<?xml version="1.0" encoding="utf-8" standalone="no"?>
<!DOCTYPE svg PUBLIC "-//W3C//DTD SVG 1.1//EN"
  "http://www.w3.org/Graphics/SVG/1.1/DTD/svg11.dtd">
<!-- Created with matplotlib (https://matplotlib.org/) -->
<svg height="432pt" version="1.1" viewBox="0 0 864 432" width="864pt" xmlns="http://www.w3.org/2000/svg" xmlns:xlink="http://www.w3.org/1999/xlink">
 <metadata>
  <rdf:RDF xmlns:cc="http://creativecommons.org/ns#" xmlns:dc="http://purl.org/dc/elements/1.1/" xmlns:rdf="http://www.w3.org/1999/02/22-rdf-syntax-ns#">
   <cc:Work>
    <dc:type rdf:resource="http://purl.org/dc/dcmitype/StillImage"/>
    <dc:date>2021-11-25T23:37:24.576080</dc:date>
    <dc:format>image/svg+xml</dc:format>
    <dc:creator>
     <cc:Agent>
      <dc:title>Matplotlib v3.3.2, https://matplotlib.org/</dc:title>
     </cc:Agent>
    </dc:creator>
   </cc:Work>
  </rdf:RDF>
 </metadata>
 <defs>
  <style type="text/css">*{stroke-linecap:butt;stroke-linejoin:round;}</style>
 </defs>
 <g id="figure_1">
  <g id="patch_1">
   <path d="M 0 432 
L 864 432 
L 864 0 
L 0 0 
z
" style="fill:none;"/>
  </g>
  <g id="axes_1">
   <g id="patch_2">
    <path d="M 108 378 
L 777.6 378 
L 777.6 51.84 
L 108 51.84 
z
" style="fill:#ffffff;"/>
   </g>
   <g id="matplotlib.axis_1">
    <g id="xtick_1">
     <g id="line2d_1">
      <path clip-path="url(#paef1e229c1)" d="M 108 378 
L 108 51.84 
" style="fill:none;stroke:#b0b0b0;stroke-linecap:square;stroke-width:0.8;"/>
     </g>
     <g id="line2d_2">
      <defs>
       <path d="M 0 0 
L 0 3.5 
" id="m2b821440c5" style="stroke:#000000;stroke-width:0.8;"/>
      </defs>
      <g>
       <use style="stroke:#000000;stroke-width:0.8;" x="108" xlink:href="#m2b821440c5" y="378"/>
      </g>
     </g>
     <g id="text_1">
      <!-- 0.0 -->
      <g transform="translate(100.048438 392.598437)scale(0.1 -0.1)">
       <defs>
        <path d="M 31.78125 66.40625 
Q 24.171875 66.40625 20.328125 58.90625 
Q 16.5 51.421875 16.5 36.375 
Q 16.5 21.390625 20.328125 13.890625 
Q 24.171875 6.390625 31.78125 6.390625 
Q 39.453125 6.390625 43.28125 13.890625 
Q 47.125 21.390625 47.125 36.375 
Q 47.125 51.421875 43.28125 58.90625 
Q 39.453125 66.40625 31.78125 66.40625 
z
M 31.78125 74.21875 
Q 44.046875 74.21875 50.515625 64.515625 
Q 56.984375 54.828125 56.984375 36.375 
Q 56.984375 17.96875 50.515625 8.265625 
Q 44.046875 -1.421875 31.78125 -1.421875 
Q 19.53125 -1.421875 13.0625 8.265625 
Q 6.59375 17.96875 6.59375 36.375 
Q 6.59375 54.828125 13.0625 64.515625 
Q 19.53125 74.21875 31.78125 74.21875 
z
" id="DejaVuSans-48"/>
        <path d="M 10.6875 12.40625 
L 21 12.40625 
L 21 0 
L 10.6875 0 
z
" id="DejaVuSans-46"/>
       </defs>
       <use xlink:href="#DejaVuSans-48"/>
       <use x="63.623047" xlink:href="#DejaVuSans-46"/>
       <use x="95.410156" xlink:href="#DejaVuSans-48"/>
      </g>
     </g>
    </g>
    <g id="xtick_2">
     <g id="line2d_3">
      <path clip-path="url(#paef1e229c1)" d="M 241.92 378 
L 241.92 51.84 
" style="fill:none;stroke:#b0b0b0;stroke-linecap:square;stroke-width:0.8;"/>
     </g>
     <g id="line2d_4">
      <g>
       <use style="stroke:#000000;stroke-width:0.8;" x="241.92" xlink:href="#m2b821440c5" y="378"/>
      </g>
     </g>
     <g id="text_2">
      <!-- 0.5 -->
      <g transform="translate(233.968438 392.598437)scale(0.1 -0.1)">
       <defs>
        <path d="M 10.796875 72.90625 
L 49.515625 72.90625 
L 49.515625 64.59375 
L 19.828125 64.59375 
L 19.828125 46.734375 
Q 21.96875 47.46875 24.109375 47.828125 
Q 26.265625 48.1875 28.421875 48.1875 
Q 40.625 48.1875 47.75 41.5 
Q 54.890625 34.8125 54.890625 23.390625 
Q 54.890625 11.625 47.5625 5.09375 
Q 40.234375 -1.421875 26.90625 -1.421875 
Q 22.3125 -1.421875 17.546875 -0.640625 
Q 12.796875 0.140625 7.71875 1.703125 
L 7.71875 11.625 
Q 12.109375 9.234375 16.796875 8.0625 
Q 21.484375 6.890625 26.703125 6.890625 
Q 35.15625 6.890625 40.078125 11.328125 
Q 45.015625 15.765625 45.015625 23.390625 
Q 45.015625 31 40.078125 35.4375 
Q 35.15625 39.890625 26.703125 39.890625 
Q 22.75 39.890625 18.8125 39.015625 
Q 14.890625 38.140625 10.796875 36.28125 
z
" id="DejaVuSans-53"/>
       </defs>
       <use xlink:href="#DejaVuSans-48"/>
       <use x="63.623047" xlink:href="#DejaVuSans-46"/>
       <use x="95.410156" xlink:href="#DejaVuSans-53"/>
      </g>
     </g>
    </g>
    <g id="xtick_3">
     <g id="line2d_5">
      <path clip-path="url(#paef1e229c1)" d="M 375.84 378 
L 375.84 51.84 
" style="fill:none;stroke:#b0b0b0;stroke-linecap:square;stroke-width:0.8;"/>
     </g>
     <g id="line2d_6">
      <g>
       <use style="stroke:#000000;stroke-width:0.8;" x="375.84" xlink:href="#m2b821440c5" y="378"/>
      </g>
     </g>
     <g id="text_3">
      <!-- 1.0 -->
      <g transform="translate(367.888438 392.598437)scale(0.1 -0.1)">
       <defs>
        <path d="M 12.40625 8.296875 
L 28.515625 8.296875 
L 28.515625 63.921875 
L 10.984375 60.40625 
L 10.984375 69.390625 
L 28.421875 72.90625 
L 38.28125 72.90625 
L 38.28125 8.296875 
L 54.390625 8.296875 
L 54.390625 0 
L 12.40625 0 
z
" id="DejaVuSans-49"/>
       </defs>
       <use xlink:href="#DejaVuSans-49"/>
       <use x="63.623047" xlink:href="#DejaVuSans-46"/>
       <use x="95.410156" xlink:href="#DejaVuSans-48"/>
      </g>
     </g>
    </g>
    <g id="xtick_4">
     <g id="line2d_7">
      <path clip-path="url(#paef1e229c1)" d="M 509.76 378 
L 509.76 51.84 
" style="fill:none;stroke:#b0b0b0;stroke-linecap:square;stroke-width:0.8;"/>
     </g>
     <g id="line2d_8">
      <g>
       <use style="stroke:#000000;stroke-width:0.8;" x="509.76" xlink:href="#m2b821440c5" y="378"/>
      </g>
     </g>
     <g id="text_4">
      <!-- 1.5 -->
      <g transform="translate(501.808438 392.598437)scale(0.1 -0.1)">
       <use xlink:href="#DejaVuSans-49"/>
       <use x="63.623047" xlink:href="#DejaVuSans-46"/>
       <use x="95.410156" xlink:href="#DejaVuSans-53"/>
      </g>
     </g>
    </g>
    <g id="xtick_5">
     <g id="line2d_9">
      <path clip-path="url(#paef1e229c1)" d="M 643.68 378 
L 643.68 51.84 
" style="fill:none;stroke:#b0b0b0;stroke-linecap:square;stroke-width:0.8;"/>
     </g>
     <g id="line2d_10">
      <g>
       <use style="stroke:#000000;stroke-width:0.8;" x="643.68" xlink:href="#m2b821440c5" y="378"/>
      </g>
     </g>
     <g id="text_5">
      <!-- 2.0 -->
      <g transform="translate(635.728438 392.598437)scale(0.1 -0.1)">
       <defs>
        <path d="M 19.1875 8.296875 
L 53.609375 8.296875 
L 53.609375 0 
L 7.328125 0 
L 7.328125 8.296875 
Q 12.9375 14.109375 22.625 23.890625 
Q 32.328125 33.6875 34.8125 36.53125 
Q 39.546875 41.84375 41.421875 45.53125 
Q 43.3125 49.21875 43.3125 52.78125 
Q 43.3125 58.59375 39.234375 62.25 
Q 35.15625 65.921875 28.609375 65.921875 
Q 23.96875 65.921875 18.8125 64.3125 
Q 13.671875 62.703125 7.8125 59.421875 
L 7.8125 69.390625 
Q 13.765625 71.78125 18.9375 73 
Q 24.125 74.21875 28.421875 74.21875 
Q 39.75 74.21875 46.484375 68.546875 
Q 53.21875 62.890625 53.21875 53.421875 
Q 53.21875 48.921875 51.53125 44.890625 
Q 49.859375 40.875 45.40625 35.40625 
Q 44.1875 33.984375 37.640625 27.21875 
Q 31.109375 20.453125 19.1875 8.296875 
z
" id="DejaVuSans-50"/>
       </defs>
       <use xlink:href="#DejaVuSans-50"/>
       <use x="63.623047" xlink:href="#DejaVuSans-46"/>
       <use x="95.410156" xlink:href="#DejaVuSans-48"/>
      </g>
     </g>
    </g>
    <g id="xtick_6">
     <g id="line2d_11">
      <path clip-path="url(#paef1e229c1)" d="M 777.6 378 
L 777.6 51.84 
" style="fill:none;stroke:#b0b0b0;stroke-linecap:square;stroke-width:0.8;"/>
     </g>
     <g id="line2d_12">
      <g>
       <use style="stroke:#000000;stroke-width:0.8;" x="777.6" xlink:href="#m2b821440c5" y="378"/>
      </g>
     </g>
     <g id="text_6">
      <!-- 2.5 -->
      <g transform="translate(769.648438 392.598437)scale(0.1 -0.1)">
       <use xlink:href="#DejaVuSans-50"/>
       <use x="63.623047" xlink:href="#DejaVuSans-46"/>
       <use x="95.410156" xlink:href="#DejaVuSans-53"/>
      </g>
     </g>
    </g>
    <g id="text_7">
     <!-- time (s) -->
     <g transform="translate(423.408594 406.276563)scale(0.1 -0.1)">
      <defs>
       <path d="M 18.3125 70.21875 
L 18.3125 54.6875 
L 36.8125 54.6875 
L 36.8125 47.703125 
L 18.3125 47.703125 
L 18.3125 18.015625 
Q 18.3125 11.328125 20.140625 9.421875 
Q 21.96875 7.515625 27.59375 7.515625 
L 36.8125 7.515625 
L 36.8125 0 
L 27.59375 0 
Q 17.1875 0 13.234375 3.875 
Q 9.28125 7.765625 9.28125 18.015625 
L 9.28125 47.703125 
L 2.6875 47.703125 
L 2.6875 54.6875 
L 9.28125 54.6875 
L 9.28125 70.21875 
z
" id="DejaVuSans-116"/>
       <path d="M 9.421875 54.6875 
L 18.40625 54.6875 
L 18.40625 0 
L 9.421875 0 
z
M 9.421875 75.984375 
L 18.40625 75.984375 
L 18.40625 64.59375 
L 9.421875 64.59375 
z
" id="DejaVuSans-105"/>
       <path d="M 52 44.1875 
Q 55.375 50.25 60.0625 53.125 
Q 64.75 56 71.09375 56 
Q 79.640625 56 84.28125 50.015625 
Q 88.921875 44.046875 88.921875 33.015625 
L 88.921875 0 
L 79.890625 0 
L 79.890625 32.71875 
Q 79.890625 40.578125 77.09375 44.375 
Q 74.3125 48.1875 68.609375 48.1875 
Q 61.625 48.1875 57.5625 43.546875 
Q 53.515625 38.921875 53.515625 30.90625 
L 53.515625 0 
L 44.484375 0 
L 44.484375 32.71875 
Q 44.484375 40.625 41.703125 44.40625 
Q 38.921875 48.1875 33.109375 48.1875 
Q 26.21875 48.1875 22.15625 43.53125 
Q 18.109375 38.875 18.109375 30.90625 
L 18.109375 0 
L 9.078125 0 
L 9.078125 54.6875 
L 18.109375 54.6875 
L 18.109375 46.1875 
Q 21.1875 51.21875 25.484375 53.609375 
Q 29.78125 56 35.6875 56 
Q 41.65625 56 45.828125 52.96875 
Q 50 49.953125 52 44.1875 
z
" id="DejaVuSans-109"/>
       <path d="M 56.203125 29.59375 
L 56.203125 25.203125 
L 14.890625 25.203125 
Q 15.484375 15.921875 20.484375 11.0625 
Q 25.484375 6.203125 34.421875 6.203125 
Q 39.59375 6.203125 44.453125 7.46875 
Q 49.3125 8.734375 54.109375 11.28125 
L 54.109375 2.78125 
Q 49.265625 0.734375 44.1875 -0.34375 
Q 39.109375 -1.421875 33.890625 -1.421875 
Q 20.796875 -1.421875 13.15625 6.1875 
Q 5.515625 13.8125 5.515625 26.8125 
Q 5.515625 40.234375 12.765625 48.109375 
Q 20.015625 56 32.328125 56 
Q 43.359375 56 49.78125 48.890625 
Q 56.203125 41.796875 56.203125 29.59375 
z
M 47.21875 32.234375 
Q 47.125 39.59375 43.09375 43.984375 
Q 39.0625 48.390625 32.421875 48.390625 
Q 24.90625 48.390625 20.390625 44.140625 
Q 15.875 39.890625 15.1875 32.171875 
z
" id="DejaVuSans-101"/>
       <path id="DejaVuSans-32"/>
       <path d="M 31 75.875 
Q 24.46875 64.65625 21.28125 53.65625 
Q 18.109375 42.671875 18.109375 31.390625 
Q 18.109375 20.125 21.3125 9.0625 
Q 24.515625 -2 31 -13.1875 
L 23.1875 -13.1875 
Q 15.875 -1.703125 12.234375 9.375 
Q 8.59375 20.453125 8.59375 31.390625 
Q 8.59375 42.28125 12.203125 53.3125 
Q 15.828125 64.359375 23.1875 75.875 
z
" id="DejaVuSans-40"/>
       <path d="M 44.28125 53.078125 
L 44.28125 44.578125 
Q 40.484375 46.53125 36.375 47.5 
Q 32.28125 48.484375 27.875 48.484375 
Q 21.1875 48.484375 17.84375 46.4375 
Q 14.5 44.390625 14.5 40.28125 
Q 14.5 37.15625 16.890625 35.375 
Q 19.28125 33.59375 26.515625 31.984375 
L 29.59375 31.296875 
Q 39.15625 29.25 43.1875 25.515625 
Q 47.21875 21.78125 47.21875 15.09375 
Q 47.21875 7.46875 41.1875 3.015625 
Q 35.15625 -1.421875 24.609375 -1.421875 
Q 20.21875 -1.421875 15.453125 -0.5625 
Q 10.6875 0.296875 5.421875 2 
L 5.421875 11.28125 
Q 10.40625 8.6875 15.234375 7.390625 
Q 20.0625 6.109375 24.8125 6.109375 
Q 31.15625 6.109375 34.5625 8.28125 
Q 37.984375 10.453125 37.984375 14.40625 
Q 37.984375 18.0625 35.515625 20.015625 
Q 33.0625 21.96875 24.703125 23.78125 
L 21.578125 24.515625 
Q 13.234375 26.265625 9.515625 29.90625 
Q 5.8125 33.546875 5.8125 39.890625 
Q 5.8125 47.609375 11.28125 51.796875 
Q 16.75 56 26.8125 56 
Q 31.78125 56 36.171875 55.265625 
Q 40.578125 54.546875 44.28125 53.078125 
z
" id="DejaVuSans-115"/>
       <path d="M 8.015625 75.875 
L 15.828125 75.875 
Q 23.140625 64.359375 26.78125 53.3125 
Q 30.421875 42.28125 30.421875 31.390625 
Q 30.421875 20.453125 26.78125 9.375 
Q 23.140625 -1.703125 15.828125 -13.1875 
L 8.015625 -13.1875 
Q 14.5 -2 17.703125 9.0625 
Q 20.90625 20.125 20.90625 31.390625 
Q 20.90625 42.671875 17.703125 53.65625 
Q 14.5 64.65625 8.015625 75.875 
z
" id="DejaVuSans-41"/>
      </defs>
      <use xlink:href="#DejaVuSans-116"/>
      <use x="39.208984" xlink:href="#DejaVuSans-105"/>
      <use x="66.992188" xlink:href="#DejaVuSans-109"/>
      <use x="164.404297" xlink:href="#DejaVuSans-101"/>
      <use x="225.927734" xlink:href="#DejaVuSans-32"/>
      <use x="257.714844" xlink:href="#DejaVuSans-40"/>
      <use x="296.728516" xlink:href="#DejaVuSans-115"/>
      <use x="348.828125" xlink:href="#DejaVuSans-41"/>
     </g>
    </g>
   </g>
   <g id="matplotlib.axis_2">
    <g id="ytick_1">
     <g id="line2d_13">
      <path clip-path="url(#paef1e229c1)" d="M 108 378 
L 777.6 378 
" style="fill:none;stroke:#b0b0b0;stroke-linecap:square;stroke-width:0.8;"/>
     </g>
     <g id="line2d_14">
      <defs>
       <path d="M 0 0 
L -3.5 0 
" id="mddb2a36107" style="stroke:#000000;stroke-width:0.8;"/>
      </defs>
      <g>
       <use style="stroke:#000000;stroke-width:0.8;" x="108" xlink:href="#mddb2a36107" y="378"/>
      </g>
     </g>
     <g id="text_8">
      <!-- −15 -->
      <g transform="translate(79.895313 381.799219)scale(0.1 -0.1)">
       <defs>
        <path d="M 10.59375 35.5 
L 73.1875 35.5 
L 73.1875 27.203125 
L 10.59375 27.203125 
z
" id="DejaVuSans-8722"/>
       </defs>
       <use xlink:href="#DejaVuSans-8722"/>
       <use x="83.789062" xlink:href="#DejaVuSans-49"/>
       <use x="147.412109" xlink:href="#DejaVuSans-53"/>
      </g>
     </g>
    </g>
    <g id="ytick_2">
     <g id="line2d_15">
      <path clip-path="url(#paef1e229c1)" d="M 108 323.64 
L 777.6 323.64 
" style="fill:none;stroke:#b0b0b0;stroke-linecap:square;stroke-width:0.8;"/>
     </g>
     <g id="line2d_16">
      <g>
       <use style="stroke:#000000;stroke-width:0.8;" x="108" xlink:href="#mddb2a36107" y="323.64"/>
      </g>
     </g>
     <g id="text_9">
      <!-- −10 -->
      <g transform="translate(79.895313 327.439219)scale(0.1 -0.1)">
       <use xlink:href="#DejaVuSans-8722"/>
       <use x="83.789062" xlink:href="#DejaVuSans-49"/>
       <use x="147.412109" xlink:href="#DejaVuSans-48"/>
      </g>
     </g>
    </g>
    <g id="ytick_3">
     <g id="line2d_17">
      <path clip-path="url(#paef1e229c1)" d="M 108 269.28 
L 777.6 269.28 
" style="fill:none;stroke:#b0b0b0;stroke-linecap:square;stroke-width:0.8;"/>
     </g>
     <g id="line2d_18">
      <g>
       <use style="stroke:#000000;stroke-width:0.8;" x="108" xlink:href="#mddb2a36107" y="269.28"/>
      </g>
     </g>
     <g id="text_10">
      <!-- −5 -->
      <g transform="translate(86.257812 273.079219)scale(0.1 -0.1)">
       <use xlink:href="#DejaVuSans-8722"/>
       <use x="83.789062" xlink:href="#DejaVuSans-53"/>
      </g>
     </g>
    </g>
    <g id="ytick_4">
     <g id="line2d_19">
      <path clip-path="url(#paef1e229c1)" d="M 108 214.92 
L 777.6 214.92 
" style="fill:none;stroke:#b0b0b0;stroke-linecap:square;stroke-width:0.8;"/>
     </g>
     <g id="line2d_20">
      <g>
       <use style="stroke:#000000;stroke-width:0.8;" x="108" xlink:href="#mddb2a36107" y="214.92"/>
      </g>
     </g>
     <g id="text_11">
      <!-- 0 -->
      <g transform="translate(94.6375 218.719219)scale(0.1 -0.1)">
       <use xlink:href="#DejaVuSans-48"/>
      </g>
     </g>
    </g>
    <g id="ytick_5">
     <g id="line2d_21">
      <path clip-path="url(#paef1e229c1)" d="M 108 160.56 
L 777.6 160.56 
" style="fill:none;stroke:#b0b0b0;stroke-linecap:square;stroke-width:0.8;"/>
     </g>
     <g id="line2d_22">
      <g>
       <use style="stroke:#000000;stroke-width:0.8;" x="108" xlink:href="#mddb2a36107" y="160.56"/>
      </g>
     </g>
     <g id="text_12">
      <!-- 5 -->
      <g transform="translate(94.6375 164.359219)scale(0.1 -0.1)">
       <use xlink:href="#DejaVuSans-53"/>
      </g>
     </g>
    </g>
    <g id="ytick_6">
     <g id="line2d_23">
      <path clip-path="url(#paef1e229c1)" d="M 108 106.2 
L 777.6 106.2 
" style="fill:none;stroke:#b0b0b0;stroke-linecap:square;stroke-width:0.8;"/>
     </g>
     <g id="line2d_24">
      <g>
       <use style="stroke:#000000;stroke-width:0.8;" x="108" xlink:href="#mddb2a36107" y="106.2"/>
      </g>
     </g>
     <g id="text_13">
      <!-- 10 -->
      <g transform="translate(88.275 109.999219)scale(0.1 -0.1)">
       <use xlink:href="#DejaVuSans-49"/>
       <use x="63.623047" xlink:href="#DejaVuSans-48"/>
      </g>
     </g>
    </g>
    <g id="ytick_7">
     <g id="line2d_25">
      <path clip-path="url(#paef1e229c1)" d="M 108 51.84 
L 777.6 51.84 
" style="fill:none;stroke:#b0b0b0;stroke-linecap:square;stroke-width:0.8;"/>
     </g>
     <g id="line2d_26">
      <g>
       <use style="stroke:#000000;stroke-width:0.8;" x="108" xlink:href="#mddb2a36107" y="51.84"/>
      </g>
     </g>
     <g id="text_14">
      <!-- 15 -->
      <g transform="translate(88.275 55.639219)scale(0.1 -0.1)">
       <use xlink:href="#DejaVuSans-49"/>
       <use x="63.623047" xlink:href="#DejaVuSans-53"/>
      </g>
     </g>
    </g>
    <g id="text_15">
     <!-- a(t) -->
     <g transform="translate(73.815625 223.845781)rotate(-90)scale(0.1 -0.1)">
      <defs>
       <path d="M 34.28125 27.484375 
Q 23.390625 27.484375 19.1875 25 
Q 14.984375 22.515625 14.984375 16.5 
Q 14.984375 11.71875 18.140625 8.90625 
Q 21.296875 6.109375 26.703125 6.109375 
Q 34.1875 6.109375 38.703125 11.40625 
Q 43.21875 16.703125 43.21875 25.484375 
L 43.21875 27.484375 
z
M 52.203125 31.203125 
L 52.203125 0 
L 43.21875 0 
L 43.21875 8.296875 
Q 40.140625 3.328125 35.546875 0.953125 
Q 30.953125 -1.421875 24.3125 -1.421875 
Q 15.921875 -1.421875 10.953125 3.296875 
Q 6 8.015625 6 15.921875 
Q 6 25.140625 12.171875 29.828125 
Q 18.359375 34.515625 30.609375 34.515625 
L 43.21875 34.515625 
L 43.21875 35.40625 
Q 43.21875 41.609375 39.140625 45 
Q 35.0625 48.390625 27.6875 48.390625 
Q 23 48.390625 18.546875 47.265625 
Q 14.109375 46.140625 10.015625 43.890625 
L 10.015625 52.203125 
Q 14.9375 54.109375 19.578125 55.046875 
Q 24.21875 56 28.609375 56 
Q 40.484375 56 46.34375 49.84375 
Q 52.203125 43.703125 52.203125 31.203125 
z
" id="DejaVuSans-97"/>
      </defs>
      <use xlink:href="#DejaVuSans-97"/>
      <use x="61.279297" xlink:href="#DejaVuSans-40"/>
      <use x="100.292969" xlink:href="#DejaVuSans-116"/>
      <use x="139.501953" xlink:href="#DejaVuSans-41"/>
     </g>
    </g>
   </g>
   <g id="line2d_27">
    <path clip-path="url(#paef1e229c1)" d="M 108 212.811206 
L 108.728848 212.293205 
L 109.457696 211.913748 
L 110.186544 211.790731 
L 111.64424 210.911168 
L 112.373088 210.149856 
L 113.830783 207.464784 
L 114.559631 205.026826 
L 116.017327 201.007757 
L 117.475023 195.207 
L 118.203871 191.503883 
L 118.932719 187.180115 
L 119.661567 184.517865 
L 120.390415 180.274898 
L 121.119263 172.717794 
L 121.848111 169.72106 
L 122.576958 168.441673 
L 123.305806 164.908981 
L 124.034654 160.712741 
L 124.763502 159.105593 
L 125.49235 155.897551 
L 126.221198 149.201805 
L 126.950046 140.44461 
L 127.678894 160.339661 
L 128.407742 184.125333 
L 129.13659 198.397887 
L 129.865438 208.303622 
L 130.594286 212.992534 
L 131.323134 215.601136 
L 132.051981 221.112022 
L 132.780829 221.331492 
L 133.509677 216.544483 
L 134.238525 209.839815 
L 134.967373 209.794119 
L 135.696221 219.313564 
L 137.153917 245.021566 
L 137.882765 263.887329 
L 138.611613 289.018551 
L 139.340461 308.43288 
L 140.069309 317.273556 
L 140.798157 315.809573 
L 141.527004 315.457515 
L 142.255852 318.409482 
L 142.9847 320.810888 
L 143.713548 318.906935 
L 144.442396 308.918642 
L 145.171244 294.614256 
L 145.900092 282.683381 
L 148.086636 260.193689 
L 148.815484 260.158422 
L 149.544332 265.800855 
L 150.27318 268.067702 
L 151.002027 259.812193 
L 151.730875 245.991684 
L 153.188571 227.915399 
L 153.917419 222.676086 
L 154.646267 222.023913 
L 155.375115 221.006234 
L 156.103963 216.242656 
L 156.832811 206.409534 
L 157.561659 190.866185 
L 158.290507 169.528891 
L 159.019355 143.448656 
L 159.748203 128.286179 
L 160.47705 129.367663 
L 161.205898 141.775044 
L 161.934746 148.782158 
L 162.663594 154.292246 
L 163.392442 163.441111 
L 164.12129 166.900998 
L 164.850138 164.652814 
L 165.578986 154.20566 
L 166.307834 146.421979 
L 167.036682 144.188853 
L 167.76553 144.330866 
L 168.494378 145.077698 
L 169.952074 139.991559 
L 170.680921 146.110447 
L 171.409769 163.468891 
L 172.138617 190.507365 
L 172.867465 208.081364 
L 174.325161 226.428922 
L 175.054009 231.419251 
L 175.782857 228.476759 
L 176.511705 221.487467 
L 177.240553 218.306652 
L 177.969401 220.75022 
L 180.155944 246.476747 
L 180.884792 247.296151 
L 181.61364 245.358511 
L 182.342488 244.639352 
L 183.800184 250.090164 
L 184.529032 258.524247 
L 185.25788 272.119324 
L 185.986728 281.637605 
L 186.715576 287.106655 
L 187.444424 281.316483 
L 188.90212 263.262516 
L 189.630967 261.225917 
L 190.359815 260.281683 
L 191.088663 257.265506 
L 191.817511 251.145161 
L 192.546359 244.011897 
L 194.004055 226.770841 
L 195.461751 214.245206 
L 196.190599 214.881142 
L 197.648295 225.589955 
L 198.377143 226.408292 
L 199.10599 223.639695 
L 199.834838 217.107861 
L 202.021382 200.424836 
L 202.75023 190.912794 
L 203.479078 184.142464 
L 204.207926 180.9419 
L 204.936774 178.248652 
L 206.39447 161.405506 
L 207.123318 158.124802 
L 207.852166 165.721375 
L 208.581013 180.036802 
L 209.309861 189.745267 
L 210.038709 193.577567 
L 210.767557 191.9411 
L 212.225253 184.542536 
L 212.954101 182.913112 
L 213.682949 181.675186 
L 214.411797 183.71372 
L 215.140645 191.864596 
L 215.869493 198.220861 
L 216.598341 200.989968 
L 217.327189 199.220927 
L 218.056036 199.786531 
L 218.784884 204.573811 
L 220.24258 215.669315 
L 220.971428 220.648315 
L 221.700276 223.238042 
L 222.429124 228.349368 
L 223.157972 237.010535 
L 223.88682 240.099778 
L 224.615668 238.877187 
L 225.344516 235.617572 
L 226.073364 232.934832 
L 227.531059 236.43901 
L 228.259907 235.578408 
L 228.988755 233.763566 
L 229.717603 233.8851 
L 231.175299 236.080546 
L 231.904147 235.866179 
L 232.632995 236.531406 
L 233.361843 238.113774 
L 234.819539 248.302193 
L 235.548387 246.264633 
L 236.277235 240.938498 
L 237.73493 232.231639 
L 239.921474 221.095094 
L 240.650322 219.361563 
L 241.37917 218.521208 
L 242.836866 215.724665 
L 243.565714 212.775522 
L 244.294562 208.474244 
L 245.02341 206.550613 
L 245.752258 207.232124 
L 246.481105 209.046275 
L 247.209953 208.225524 
L 247.938801 206.326931 
L 248.667649 203.427961 
L 249.396497 201.006065 
L 250.125345 197.093871 
L 250.854193 191.825916 
L 251.583041 188.781537 
L 252.311889 187.491366 
L 253.040737 189.074124 
L 253.769585 191.197473 
L 254.498433 191.579132 
L 255.227281 189.819119 
L 255.956128 189.974219 
L 256.684976 192.645152 
L 257.413824 195.823424 
L 258.142672 198.387914 
L 258.87152 200.358608 
L 260.329216 206.452721 
L 261.058064 208.138843 
L 262.51576 206.843312 
L 263.244608 207.47063 
L 263.973456 209.080585 
L 265.431151 214.337691 
L 266.159999 214.719187 
L 266.888847 214.823732 
L 267.617695 217.762292 
L 268.346543 222.560085 
L 269.075391 225.208019 
L 269.804239 227.235827 
L 270.533087 228.789166 
L 271.261935 230.743194 
L 271.990783 233.590022 
L 272.719631 234.504113 
L 274.177327 231.440626 
L 274.906175 230.794429 
L 276.36387 232.28387 
L 277.092718 232.046507 
L 278.550414 230.16684 
L 279.279262 231.207535 
L 280.00811 231.532132 
L 280.736958 231.21436 
L 282.923502 230.864931 
L 283.65235 230.296122 
L 284.381198 228.610046 
L 285.838893 223.288245 
L 286.567741 221.415183 
L 287.296589 220.040956 
L 288.025437 219.702596 
L 288.754285 217.799505 
L 289.483133 214.966017 
L 290.211981 213.427104 
L 290.940829 212.311593 
L 293.127373 203.652099 
L 293.856221 201.698375 
L 295.313916 200.072749 
L 296.042764 197.869374 
L 297.50046 192.352942 
L 298.229308 192.173003 
L 298.958156 194.662652 
L 299.687004 195.486844 
L 300.415852 195.621326 
L 301.1447 194.971511 
L 301.873548 195.069946 
L 302.602396 194.746945 
L 303.331244 193.454631 
L 304.060091 193.726997 
L 304.788939 194.940001 
L 305.517787 197.089639 
L 306.975483 203.723639 
L 307.704331 205.487761 
L 308.433179 205.61952 
L 309.162027 207.120644 
L 309.890875 210.517653 
L 310.619723 213.323853 
L 311.348571 214.588299 
L 312.077419 214.972037 
L 314.263962 220.403251 
L 315.721658 221.999561 
L 316.450506 223.365211 
L 317.908202 228.563384 
L 318.63705 230.048305 
L 319.365898 230.029316 
L 320.094746 229.810651 
L 320.823594 230.098154 
L 321.552442 231.130575 
L 322.28129 232.5083 
L 323.010137 233.291164 
L 324.467833 235.823688 
L 325.196681 236.215233 
L 325.925529 235.473965 
L 326.654377 233.717736 
L 327.383225 232.788299 
L 328.112073 232.656038 
L 328.840921 232.993688 
L 329.569769 232.505077 
L 330.298617 231.125296 
L 331.756313 225.903488 
L 333.214008 222.894572 
L 333.942856 220.944945 
L 334.671704 219.786465 
L 335.400552 219.62038 
L 336.1294 219.159235 
L 336.858248 218.283573 
L 338.315944 214.809245 
L 339.044792 213.897406 
L 339.77364 212.730993 
L 341.231336 206.369571 
L 341.960183 202.378807 
L 342.689031 199.231302 
L 345.604423 190.121096 
L 346.333271 189.41603 
L 347.790967 193.944551 
L 348.519815 195.418407 
L 349.248663 196.149514 
L 349.977511 194.924756 
L 350.706359 194.644907 
L 352.164054 195.063298 
L 352.892902 194.463362 
L 353.62175 195.064338 
L 355.079446 199.501095 
L 355.808294 200.987896 
L 356.537142 202.114755 
L 357.994838 208.045845 
L 358.723686 212.338023 
L 359.452534 215.060315 
L 360.910229 217.194396 
L 361.639077 217.898144 
L 362.367925 218.922126 
L 363.096773 220.418979 
L 363.825621 221.502716 
L 364.554469 223.17686 
L 366.012165 227.294066 
L 366.741013 228.381397 
L 367.469861 228.55955 
L 368.198709 227.620079 
L 368.927557 227.090337 
L 369.656405 227.425007 
L 370.385252 229.28585 
L 371.1141 232.629016 
L 371.842948 233.503725 
L 373.300644 236.565792 
L 374.029492 237.022255 
L 374.75834 236.299915 
L 375.487188 234.827993 
L 376.216036 233.780969 
L 377.673732 233.323931 
L 378.40258 232.308284 
L 379.131428 230.466102 
L 379.860275 226.913161 
L 380.589123 224.687592 
L 382.046819 221.593154 
L 382.775667 220.490002 
L 383.504515 219.988902 
L 384.233363 220.639725 
L 384.962211 220.597072 
L 385.691059 219.868597 
L 387.148755 216.335004 
L 387.877603 215.736872 
L 388.606451 215.658167 
L 389.335299 214.295761 
L 390.064146 211.359274 
L 392.25069 199.637978 
L 393.708386 195.55467 
L 394.437234 192.229953 
L 395.166082 192.319916 
L 395.89493 193.145985 
L 396.623778 194.688813 
L 397.352626 196.859835 
L 398.081474 198.046463 
L 398.810322 198.843381 
L 399.539169 198.885295 
L 400.268017 198.50186 
L 401.725713 196.363037 
L 402.454561 195.916658 
L 403.183409 196.515038 
L 403.912257 197.64271 
L 405.369953 199.094828 
L 406.098801 201.331068 
L 407.556497 207.8304 
L 409.014192 213.253821 
L 409.74304 215.950659 
L 410.471888 217.507685 
L 411.200736 217.748102 
L 411.929584 217.822107 
L 412.658432 218.131616 
L 413.38728 218.749041 
L 414.844976 221.304334 
L 415.573824 223.404295 
L 416.302672 224.47412 
L 417.03152 224.689939 
L 417.760368 223.963169 
L 418.489215 223.605012 
L 419.218063 223.83014 
L 419.946911 224.290576 
L 420.675759 225.778937 
L 421.404607 228.147061 
L 422.133455 231.156736 
L 422.862303 233.094886 
L 423.591151 233.16144 
L 424.319999 232.352177 
L 425.048847 231.073644 
L 425.777695 230.146662 
L 426.506543 230.177907 
L 427.235391 229.660933 
L 427.964238 228.847284 
L 428.693086 228.723715 
L 429.421934 227.511702 
L 430.87963 223.985816 
L 431.608478 221.812143 
L 432.337326 220.592848 
L 433.066174 220.731144 
L 435.252718 221.62046 
L 435.981566 220.481967 
L 436.710414 219.067125 
L 437.439261 218.294468 
L 438.168109 217.767653 
L 438.896957 215.923018 
L 439.625805 214.740733 
L 440.354653 213.996183 
L 441.083501 211.739346 
L 442.541197 206.24722 
L 443.270045 202.912574 
L 443.998893 200.565101 
L 444.727741 199.79668 
L 445.456589 199.28868 
L 446.185437 199.540552 
L 446.914284 200.430819 
L 448.37198 203.33039 
L 449.100828 204.318984 
L 449.829676 204.665492 
L 450.558524 203.792128 
L 451.287372 202.472341 
L 452.01622 201.773415 
L 452.745068 201.303534 
L 454.202764 199.345757 
L 454.931612 199.699389 
L 456.389307 201.807505 
L 457.118155 203.848065 
L 457.847003 206.799536 
L 459.304699 211.290383 
L 460.033547 214.019795 
L 460.762395 215.584496 
L 461.491243 215.676059 
L 462.948939 216.908338 
L 464.406635 215.952877 
L 465.135483 215.687959 
L 465.86433 216.130019 
L 466.593178 217.339209 
L 467.322026 218.113186 
L 468.779722 220.911619 
L 470.237418 221.739434 
L 470.966266 222.617834 
L 471.695114 223.202891 
L 472.423962 224.070077 
L 473.881658 226.307476 
L 474.610506 227.18652 
L 476.797049 226.99179 
L 478.254745 224.715813 
L 478.983593 224.226815 
L 479.712441 223.383138 
L 480.441289 223.238256 
L 481.170137 223.411032 
L 481.898985 222.780473 
L 482.627833 221.83136 
L 483.356681 221.220772 
L 484.814376 220.559522 
L 485.543224 220.345678 
L 486.272072 220.638796 
L 487.00092 220.460015 
L 488.458616 219.195862 
L 489.187464 218.443792 
L 489.916312 217.527684 
L 491.374008 214.967071 
L 492.102856 213.505232 
L 492.831704 212.357334 
L 493.560552 211.452373 
L 495.018247 209.222968 
L 496.475943 207.619018 
L 497.933639 206.45205 
L 498.662487 206.717045 
L 499.391335 207.821251 
L 500.120183 208.289135 
L 500.849031 207.74499 
L 501.577879 208.173374 
L 502.306727 208.261021 
L 503.035575 207.704226 
L 503.764423 206.444536 
L 505.222118 204.852626 
L 505.950966 204.448466 
L 506.679814 205.042274 
L 507.408662 206.156362 
L 509.595206 208.453337 
L 510.324054 209.44233 
L 511.78175 212.157457 
L 513.239446 213.824773 
L 513.968293 214.892279 
L 514.697141 214.948509 
L 516.154837 214.392401 
L 516.883685 213.773628 
L 517.612533 213.519315 
L 519.070229 214.57753 
L 519.799077 215.282348 
L 520.527925 216.736629 
L 521.985621 218.723809 
L 522.714469 219.486982 
L 523.443316 219.743932 
L 524.172164 220.397099 
L 524.901012 221.431713 
L 525.62986 221.400866 
L 526.358708 221.981791 
L 527.087556 222.274586 
L 527.816404 222.049899 
L 528.545252 221.514043 
L 529.2741 220.5749 
L 530.002948 219.855468 
L 530.731796 219.739495 
L 531.460644 219.779849 
L 532.189492 220.336289 
L 532.918339 220.202281 
L 535.104883 220.450203 
L 535.833731 220.42647 
L 538.020275 219.777179 
L 538.749123 219.863904 
L 540.206819 218.534635 
L 541.664515 216.371044 
L 543.851058 214.483146 
L 545.308754 214.06749 
L 546.037602 213.195856 
L 547.495298 212.817615 
L 548.224146 212.022107 
L 548.952994 211.833625 
L 549.681842 211.908095 
L 551.139538 211.320254 
L 551.868385 211.177162 
L 552.597233 211.20636 
L 553.326081 210.973449 
L 554.054929 210.481383 
L 554.783777 210.479644 
L 555.512625 209.65071 
L 556.241473 209.359896 
L 556.970321 209.326394 
L 558.428017 208.995566 
L 559.885713 209.243888 
L 560.614561 209.662268 
L 563.529952 212.120448 
L 564.987648 212.140165 
L 567.174192 213.208322 
L 568.631888 213.350467 
L 569.360736 213.420022 
L 570.089584 213.683511 
L 571.547279 214.657777 
L 572.276127 214.871803 
L 573.004975 215.512104 
L 573.733823 215.581905 
L 574.462671 215.938307 
L 575.191519 216.863196 
L 575.920367 217.378378 
L 577.378063 217.660722 
L 578.106911 217.501176 
L 580.293454 218.195079 
L 581.022302 218.187967 
L 581.75115 217.817391 
L 582.479998 218.16256 
L 583.208846 218.076567 
L 583.937694 218.697252 
L 584.666542 219.070412 
L 586.124238 218.543316 
L 586.853086 218.781075 
L 587.581934 218.502011 
L 588.310782 218.343418 
L 589.03963 218.511038 
L 589.768477 218.796914 
L 590.497325 218.687101 
L 591.226173 218.263041 
L 591.955021 217.648225 
L 594.141565 216.635536 
L 594.870413 215.937478 
L 595.599261 215.837083 
L 596.328109 215.461531 
L 597.785805 215.301993 
L 599.2435 214.871158 
L 599.972348 214.60948 
L 600.701196 214.764215 
L 601.430044 214.604571 
L 602.158892 213.894627 
L 602.88774 213.351289 
L 603.616588 213.319844 
L 604.345436 213.111661 
L 605.074284 212.532903 
L 605.803132 212.305585 
L 606.53198 212.407688 
L 607.989676 211.914347 
L 608.718524 211.998914 
L 610.176219 211.473101 
L 610.905067 211.939913 
L 611.633915 211.50808 
L 612.362763 211.48502 
L 613.091611 211.850609 
L 614.549307 211.53884 
L 616.007003 211.680376 
L 616.735851 211.48519 
L 618.922394 212.098473 
L 619.651242 212.633826 
L 620.38009 212.784449 
L 621.108938 212.745746 
L 621.837786 212.960703 
L 622.566634 213.49012 
L 623.295482 213.756406 
L 624.02433 214.290616 
L 625.482026 214.472011 
L 626.210874 215.231545 
L 629.126265 215.705167 
L 629.855113 215.523347 
L 632.041657 216.301647 
L 632.770505 216.211454 
L 633.499353 216.407815 
L 634.957049 217.292369 
L 635.685897 217.467817 
L 636.414745 217.477338 
L 637.143593 217.714461 
L 637.87244 218.123913 
L 638.601288 218.083652 
L 639.330136 217.724308 
L 640.058984 217.926164 
L 641.51668 217.693557 
L 643.703224 216.878923 
L 644.432072 216.523513 
L 645.889768 216.412203 
L 646.618616 216.227474 
L 648.076311 216.949374 
L 649.534007 216.277952 
L 650.262855 216.284645 
L 650.991703 215.768774 
L 651.720551 215.391512 
L 653.178247 215.203311 
L 654.635943 214.278856 
L 655.364791 214.209729 
L 656.093639 213.975958 
L 656.822486 213.386166 
L 657.551334 213.09438 
L 658.280182 213.394695 
L 659.00903 213.423597 
L 660.466726 212.816718 
L 661.195574 213.183928 
L 661.924422 213.680326 
L 662.65327 212.910802 
L 664.110966 212.525482 
L 664.839814 212.439129 
L 665.568662 212.674522 
L 666.297509 212.18858 
L 667.026357 212.311279 
L 667.755205 212.715395 
L 669.212901 212.463355 
L 672.857141 213.604288 
L 673.585989 213.495294 
L 674.314837 213.886637 
L 675.043685 214.015791 
L 677.230228 213.951069 
L 678.687924 214.860305 
L 679.416772 214.746143 
L 680.14562 215.112171 
L 680.874468 215.259299 
L 682.332164 215.794152 
L 683.061012 215.257417 
L 683.78986 215.45934 
L 685.247555 216.388433 
L 685.976403 216.632484 
L 687.434099 216.477202 
L 688.162947 216.913793 
L 688.891795 217.011249 
L 689.620643 216.813574 
L 690.349491 216.443283 
L 691.807187 217.071737 
L 692.536035 216.960981 
L 693.264883 217.004289 
L 693.993731 216.867826 
L 694.722578 216.400319 
L 695.451426 216.679823 
L 696.180274 216.22341 
L 696.909122 216.446665 
L 697.63797 217.057146 
L 698.366818 216.53201 
L 699.095666 216.162587 
L 699.824514 216.306173 
L 700.553362 216.119521 
L 702.011058 215.978451 
L 702.739906 215.491025 
L 703.468754 215.334931 
L 704.197601 215.451873 
L 705.655297 214.878309 
L 706.384145 215.163207 
L 707.112993 215.011208 
L 707.841841 214.974039 
L 708.570689 214.749101 
L 709.299537 213.913236 
L 710.028385 214.240269 
L 711.486081 213.882196 
L 712.214929 213.844712 
L 712.943777 214.060792 
L 713.672624 213.960664 
L 714.401472 213.499906 
L 715.859168 213.597565 
L 716.588016 213.228547 
L 717.316864 213.088553 
L 718.045712 213.276476 
L 719.503408 213.157726 
L 720.232256 213.337485 
L 720.961104 213.026084 
L 722.4188 213.43256 
L 723.147648 213.402014 
L 723.876495 213.244137 
L 724.605343 213.73773 
L 725.334191 213.907316 
L 726.063039 213.669935 
L 726.791887 213.644868 
L 727.520735 213.760392 
L 728.978431 214.30017 
L 729.707279 214.192675 
L 731.164975 214.781467 
L 732.622671 214.745426 
L 733.351518 214.948835 
L 734.080366 214.82517 
L 734.809214 215.083747 
L 735.538062 215.614323 
L 736.26691 215.849836 
L 736.995758 215.476936 
L 738.453454 215.576947 
L 739.182302 215.490227 
L 740.639998 216.063833 
L 741.368846 215.966718 
L 742.826541 216.194232 
L 743.555389 215.869499 
L 744.284237 216.189804 
L 745.013085 216.062471 
L 746.470781 216.420453 
L 747.199629 216.430964 
L 747.928477 215.99267 
L 748.657325 215.699775 
L 749.386173 215.809372 
L 750.115021 215.729211 
L 750.843869 215.518312 
L 754.488108 215.341621 
L 755.216956 215.224014 
L 755.945804 215.220278 
L 756.674652 215.002728 
L 757.4035 215.236969 
L 758.132348 214.82149 
L 758.861196 214.659155 
L 760.318892 215.014777 
L 761.776587 214.760195 
L 762.505435 214.489555 
L 763.234283 214.440902 
L 763.963131 214.107456 
L 764.691979 214.304749 
L 766.149675 213.923059 
L 767.607371 214.367602 
L 768.336219 213.883481 
L 769.065067 213.714104 
L 769.793915 214.09658 
L 770.522763 214.261664 
L 771.980458 213.893453 
L 772.709306 213.887031 
L 774.167002 214.324935 
L 774.89585 213.723388 
L 775.624698 213.757128 
L 776.353546 214.076118 
L 777.811242 213.899483 
L 777.811242 213.899483 
" style="fill:none;stroke:#1f77b4;stroke-linecap:square;stroke-width:1.5;"/>
   </g>
   <g id="line2d_28">
    <path clip-path="url(#paef1e229c1)" d="M 108 230.889013 
L 111.64424 192.139613 
L 113.101935 178.296878 
L 114.559631 166.236525 
L 116.017327 156.408894 
L 116.746175 152.446048 
L 117.475023 149.164143 
L 118.203871 146.58932 
L 118.932719 144.740216 
L 119.661567 143.627854 
L 120.390415 143.255615 
L 121.119263 143.619284 
L 121.848111 144.707176 
L 122.576958 146.500337 
L 123.305806 148.972815 
L 124.034654 152.092002 
L 125.49235 160.109279 
L 126.950046 170.175011 
L 128.407742 181.837152 
L 131.323134 207.889444 
L 134.238525 233.947055 
L 135.696221 245.659634 
L 137.153917 255.874151 
L 138.611613 264.208942 
L 139.340461 267.574942 
L 140.069309 270.366742 
L 140.798157 272.562051 
L 141.527004 274.144911 
L 142.255852 275.105788 
L 142.9847 275.441608 
L 143.713548 275.155711 
L 144.442396 274.25775 
L 145.171244 272.763525 
L 145.900092 270.694755 
L 146.62894 268.078789 
L 148.086636 261.340742 
L 149.544332 252.866682 
L 151.002027 243.037418 
L 153.188571 226.696009 
L 156.832811 199.030096 
L 158.290507 189.120029 
L 159.748203 180.469009 
L 161.205898 173.400492 
L 161.934746 170.54157 
L 162.663594 168.16683 
L 163.392442 166.29528 
L 164.12129 164.940585 
L 164.850138 164.110979 
L 165.578986 163.809248 
L 166.307834 164.032757 
L 167.036682 164.773533 
L 167.76553 166.01841 
L 168.494378 167.749212 
L 169.223226 169.943003 
L 170.680921 175.605718 
L 172.138617 182.739629 
L 173.596313 191.023939 
L 175.782857 204.811731 
L 179.427097 228.188101 
L 180.884792 236.57293 
L 182.342488 243.89963 
L 183.800184 249.894086 
L 184.529032 252.322218 
L 185.25788 254.342078 
L 185.986728 255.93746 
L 186.715576 257.096671 
L 187.444424 257.812594 
L 188.173272 258.08272 
L 188.90212 257.909118 
L 189.630967 257.298369 
L 190.359815 256.261444 
L 191.088663 254.813548 
L 191.817511 252.973919 
L 193.275207 248.215102 
L 194.732903 242.20954 
L 196.190599 235.227468 
L 198.377143 223.594404 
L 202.021382 203.842734 
L 203.479078 196.748502 
L 204.936774 190.543509 
L 206.39447 185.460053 
L 207.123318 183.397885 
L 207.852166 181.679975 
L 208.581013 180.320136 
L 209.309861 179.328379 
L 210.038709 178.710845 
L 210.767557 178.469788 
L 211.496405 178.603591 
L 212.225253 179.106828 
L 212.954101 179.970359 
L 213.682949 181.181461 
L 214.411797 182.724002 
L 215.869493 186.72305 
L 217.327189 191.778611 
L 218.784884 197.663047 
L 220.971428 207.477989 
L 224.615668 224.166796 
L 226.073364 230.168991 
L 227.531059 235.423908 
L 228.988755 239.734694 
L 229.717603 241.485982 
L 230.446451 242.946996 
L 231.175299 244.105958 
L 231.904147 244.954304 
L 232.632995 245.486735 
L 233.361843 245.701235 
L 234.090691 245.599056 
L 234.819539 245.184673 
L 235.548387 244.465698 
L 236.277235 243.452774 
L 237.006082 242.159428 
L 238.463778 238.798978 
L 239.921474 234.543242 
L 241.37917 229.583969 
L 243.565714 221.303108 
L 247.209953 207.202382 
L 248.667649 202.124199 
L 250.125345 197.67397 
L 251.583041 194.018512 
L 253.040737 191.288836 
L 253.769585 190.301168 
L 254.498433 189.575617 
L 255.227281 189.116756 
L 255.956128 188.926382 
L 256.684976 189.003531 
L 257.413824 189.344518 
L 258.142672 189.943002 
L 258.87152 190.790083 
L 259.600368 191.874417 
L 261.058064 194.698134 
L 262.51576 198.280499 
L 263.973456 202.459992 
L 266.159999 209.446456 
L 269.804239 221.360312 
L 271.261935 225.656669 
L 272.719631 229.42536 
L 274.177327 232.52503 
L 275.635022 234.844479 
L 276.36387 235.686096 
L 277.092718 236.306523 
L 277.821566 236.701818 
L 278.550414 236.870385 
L 279.279262 236.812956 
L 280.00811 236.532566 
L 280.736958 236.034494 
L 281.465806 235.326183 
L 282.194654 234.417146 
L 283.65235 232.044528 
L 285.110045 229.029062 
L 286.567741 225.506799 
L 288.754285 219.612483 
L 292.398525 209.546459 
L 294.585068 204.252422 
L 296.042764 201.329055 
L 297.50046 199.01944 
L 298.229308 198.12105 
L 298.958156 197.40395 
L 299.687004 196.873502 
L 300.415852 196.533099 
L 301.1447 196.384161 
L 301.873548 196.426133 
L 302.602396 196.656521 
L 303.331244 197.07093 
L 304.060091 197.663136 
L 305.517787 199.347391 
L 306.975483 201.626434 
L 308.433179 204.395093 
L 310.619723 209.194102 
L 315.721658 220.979783 
L 317.179354 223.882545 
L 318.63705 226.359564 
L 320.094746 228.31963 
L 321.552442 229.694451 
L 322.28129 230.1479 
L 323.010137 230.440921 
L 323.738985 230.572261 
L 324.467833 230.542329 
L 325.196681 230.353177 
L 325.925529 230.008462 
L 326.654377 229.513389 
L 328.112073 228.100301 
L 329.569769 226.183531 
L 331.027465 223.851607 
L 333.214008 219.804568 
L 338.315944 209.847121 
L 339.77364 207.390275 
L 341.231336 205.291502 
L 342.689031 203.628138 
L 344.146727 202.458211 
L 344.875575 202.070644 
L 345.604423 201.8185 
L 346.333271 201.702886 
L 347.062119 201.723505 
L 347.790967 201.878671 
L 348.519815 202.165341 
L 349.977511 203.114536 
L 351.435206 204.521693 
L 352.892902 206.319921 
L 355.079446 209.569621 
L 362.367925 221.245704 
L 363.825621 223.023953 
L 365.283317 224.435479 
L 366.741013 225.430982 
L 368.198709 225.979083 
L 368.927557 226.080685 
L 369.656405 226.067209 
L 371.1141 225.701699 
L 372.571796 224.90714 
L 374.029492 223.724973 
L 375.487188 222.211458 
L 377.673732 219.472292 
L 384.962211 209.606014 
L 386.419907 208.099372 
L 387.877603 206.901594 
L 389.335299 206.054566 
L 390.792994 205.585056 
L 392.25069 205.503957 
L 393.708386 205.806188 
L 395.166082 206.471241 
L 396.623778 207.464349 
L 398.081474 208.738198 
L 400.268017 211.046999 
L 407.556497 219.383891 
L 409.014192 220.660384 
L 410.471888 221.676747 
L 411.929584 222.397398 
L 413.38728 222.799504 
L 414.844976 222.873631 
L 416.302672 222.623844 
L 417.760368 222.067242 
L 419.218063 221.232992 
L 420.675759 220.160885 
L 422.862303 218.214865 
L 430.150782 211.170372 
L 431.608478 210.088895 
L 433.066174 209.226497 
L 434.52387 208.613407 
L 435.981566 208.269098 
L 437.439261 208.201733 
L 438.896957 208.408075 
L 440.354653 208.873866 
L 441.812349 209.574638 
L 443.270045 210.476931 
L 445.456589 212.117146 
L 452.745068 218.069516 
L 454.931612 219.376491 
L 456.389307 220.005791 
L 457.847003 220.415433 
L 459.304699 220.593549 
L 460.762395 220.537908 
L 462.220091 220.255802 
L 463.677787 219.763543 
L 465.135483 219.085606 
L 467.322026 217.790971 
L 470.237418 215.75087 
L 473.881658 213.177546 
L 476.068201 211.868774 
L 478.254745 210.877595 
L 479.712441 210.433943 
L 481.170137 210.181647 
L 482.627833 210.126806 
L 484.085529 210.267389 
L 485.543224 210.593489 
L 487.729768 211.391039 
L 489.916312 212.481618 
L 493.560552 214.651029 
L 497.204791 216.771302 
L 499.391335 217.799362 
L 501.577879 218.534372 
L 503.035575 218.832098 
L 504.49327 218.964873 
L 505.950966 218.93087 
L 507.408662 218.73506 
L 509.595206 218.164563 
L 511.78175 217.31942 
L 514.697141 215.914748 
L 519.799077 213.367654 
L 521.985621 212.49698 
L 524.172164 211.87309 
L 526.358708 211.544389 
L 528.545252 211.53107 
L 530.731796 211.824198 
L 532.918339 212.387454 
L 535.833731 213.453144 
L 543.851058 216.73358 
L 546.037602 217.338082 
L 548.224146 217.704801 
L 550.41069 217.808267 
L 552.597233 217.647597 
L 554.783777 217.24579 
L 557.699169 216.413524 
L 562.801104 214.57576 
L 566.445344 213.395263 
L 568.631888 212.882651 
L 570.818431 212.570488 
L 573.004975 212.480518 
L 575.191519 212.613725 
L 577.378063 212.950907 
L 580.293454 213.651725 
L 590.497325 216.509005 
L 592.683869 216.833945 
L 594.870413 216.975612 
L 597.056957 216.927104 
L 599.2435 216.698914 
L 602.158892 216.162696 
L 606.53198 215.068611 
L 610.905067 213.992126 
L 613.820459 213.473794 
L 616.735851 213.207084 
L 619.651242 213.2236 
L 622.566634 213.508648 
L 626.210874 214.153046 
L 635.685897 216.046576 
L 638.601288 216.33089 
L 641.51668 216.379162 
L 644.432072 216.193792 
L 648.076311 215.696449 
L 659.00903 213.893492 
L 661.924422 213.699902 
L 664.839814 213.708207 
L 668.484053 213.984428 
L 672.857141 214.587732 
L 680.14562 215.643531 
L 683.78986 215.92417 
L 687.434099 215.944167 
L 691.078339 215.71244 
L 696.180274 215.106915 
L 702.739906 214.311271 
L 706.384145 214.07286 
L 710.028385 214.05442 
L 713.672624 214.248807 
L 718.77456 214.759314 
L 726.063039 215.486127 
L 730.436127 215.664449 
L 734.080366 215.60601 
L 738.453454 215.323407 
L 750.843869 214.339567 
L 755.216956 214.301749 
L 759.590044 214.481005 
L 776.353546 215.453339 
L 777.811242 215.442499 
L 777.811242 215.442499 
" style="fill:none;stroke:#ff0000;stroke-dasharray:1.5,2.475;stroke-dashoffset:0;stroke-width:1.5;"/>
   </g>
   <g id="patch_3">
    <path d="M 108 378 
L 108 51.84 
" style="fill:none;stroke:#000000;stroke-linecap:square;stroke-linejoin:miter;stroke-width:0.8;"/>
   </g>
   <g id="patch_4">
    <path d="M 777.6 378 
L 777.6 51.84 
" style="fill:none;stroke:#000000;stroke-linecap:square;stroke-linejoin:miter;stroke-width:0.8;"/>
   </g>
   <g id="patch_5">
    <path d="M 108 378 
L 777.6 378 
" style="fill:none;stroke:#000000;stroke-linecap:square;stroke-linejoin:miter;stroke-width:0.8;"/>
   </g>
   <g id="patch_6">
    <path d="M 108 51.84 
L 777.6 51.84 
" style="fill:none;stroke:#000000;stroke-linecap:square;stroke-linejoin:miter;stroke-width:0.8;"/>
   </g>
   <g id="text_16">
    <!-- Medição 2 - Direção Y -->
    <g transform="translate(344.964375 45.84)scale(0.18 -0.18)">
     <defs>
      <path d="M 9.8125 72.90625 
L 24.515625 72.90625 
L 43.109375 23.296875 
L 61.8125 72.90625 
L 76.515625 72.90625 
L 76.515625 0 
L 66.890625 0 
L 66.890625 64.015625 
L 48.09375 14.015625 
L 38.1875 14.015625 
L 19.390625 64.015625 
L 19.390625 0 
L 9.8125 0 
z
" id="DejaVuSans-77"/>
      <path d="M 45.40625 46.390625 
L 45.40625 75.984375 
L 54.390625 75.984375 
L 54.390625 0 
L 45.40625 0 
L 45.40625 8.203125 
Q 42.578125 3.328125 38.25 0.953125 
Q 33.9375 -1.421875 27.875 -1.421875 
Q 17.96875 -1.421875 11.734375 6.484375 
Q 5.515625 14.40625 5.515625 27.296875 
Q 5.515625 40.1875 11.734375 48.09375 
Q 17.96875 56 27.875 56 
Q 33.9375 56 38.25 53.625 
Q 42.578125 51.265625 45.40625 46.390625 
z
M 14.796875 27.296875 
Q 14.796875 17.390625 18.875 11.75 
Q 22.953125 6.109375 30.078125 6.109375 
Q 37.203125 6.109375 41.296875 11.75 
Q 45.40625 17.390625 45.40625 27.296875 
Q 45.40625 37.203125 41.296875 42.84375 
Q 37.203125 48.484375 30.078125 48.484375 
Q 22.953125 48.484375 18.875 42.84375 
Q 14.796875 37.203125 14.796875 27.296875 
z
" id="DejaVuSans-100"/>
      <path d="M 48.78125 52.59375 
L 48.78125 44.1875 
Q 44.96875 46.296875 41.140625 47.34375 
Q 37.3125 48.390625 33.40625 48.390625 
Q 24.65625 48.390625 19.8125 42.84375 
Q 14.984375 37.3125 14.984375 27.296875 
Q 14.984375 17.28125 19.8125 11.734375 
Q 24.65625 6.203125 33.40625 6.203125 
Q 37.3125 6.203125 41.140625 7.25 
Q 44.96875 8.296875 48.78125 10.40625 
L 48.78125 2.09375 
Q 45.015625 0.34375 40.984375 -0.53125 
Q 36.96875 -1.421875 32.421875 -1.421875 
Q 20.0625 -1.421875 12.78125 6.34375 
Q 5.515625 14.109375 5.515625 27.296875 
Q 5.515625 40.671875 12.859375 48.328125 
Q 20.21875 56 33.015625 56 
Q 37.15625 56 41.109375 55.140625 
Q 45.0625 54.296875 48.78125 52.59375 
z
M 36.078125 0 
Q 38.765625 -3.03125 40.078125 -5.59375 
Q 41.40625 -8.15625 41.40625 -10.5 
Q 41.40625 -14.84375 38.46875 -17.0625 
Q 35.546875 -19.28125 29.78125 -19.28125 
Q 27.546875 -19.28125 25.421875 -18.984375 
Q 23.296875 -18.703125 21.1875 -18.109375 
L 21.1875 -11.71875 
Q 22.859375 -12.546875 24.65625 -12.90625 
Q 26.46875 -13.28125 28.765625 -13.28125 
Q 31.640625 -13.28125 33.109375 -12.109375 
Q 34.578125 -10.9375 34.578125 -8.6875 
Q 34.578125 -7.234375 33.515625 -5.109375 
Q 32.46875 -2.984375 30.28125 0 
z
" id="DejaVuSans-231"/>
      <path d="M 34.28125 27.484375 
Q 23.390625 27.484375 19.1875 25 
Q 14.984375 22.515625 14.984375 16.5 
Q 14.984375 11.71875 18.140625 8.90625 
Q 21.296875 6.109375 26.703125 6.109375 
Q 34.1875 6.109375 38.703125 11.40625 
Q 43.21875 16.703125 43.21875 25.484375 
L 43.21875 27.484375 
z
M 52.203125 31.203125 
L 52.203125 0 
L 43.21875 0 
L 43.21875 8.296875 
Q 40.140625 3.328125 35.546875 0.953125 
Q 30.953125 -1.421875 24.3125 -1.421875 
Q 15.921875 -1.421875 10.953125 3.296875 
Q 6 8.015625 6 15.921875 
Q 6 25.140625 12.171875 29.828125 
Q 18.359375 34.515625 30.609375 34.515625 
L 43.21875 34.515625 
L 43.21875 35.40625 
Q 43.21875 41.609375 39.140625 45 
Q 35.0625 48.390625 27.6875 48.390625 
Q 23 48.390625 18.546875 47.265625 
Q 14.109375 46.140625 10.015625 43.890625 
L 10.015625 52.203125 
Q 14.9375 54.109375 19.578125 55.046875 
Q 24.21875 56 28.609375 56 
Q 40.484375 56 46.34375 49.84375 
Q 52.203125 43.703125 52.203125 31.203125 
z
M 28.8125 66.890625 
L 26.03125 69.578125 
Q 24.953125 70.5625 24.140625 71.015625 
Q 23.34375 71.484375 22.703125 71.484375 
Q 20.84375 71.484375 19.96875 69.703125 
Q 19.09375 67.921875 19 63.921875 
L 12.890625 63.921875 
Q 12.984375 70.515625 15.46875 74.09375 
Q 17.96875 77.6875 22.40625 77.6875 
Q 24.265625 77.6875 25.828125 77 
Q 27.390625 76.3125 29.203125 74.703125 
L 31.984375 72.015625 
Q 33.0625 71.046875 33.859375 70.578125 
Q 34.671875 70.125 35.296875 70.125 
Q 37.15625 70.125 38.03125 71.90625 
Q 38.921875 73.6875 39.015625 77.6875 
L 45.125 77.6875 
Q 45.015625 71.09375 42.53125 67.5 
Q 40.046875 63.921875 35.59375 63.921875 
Q 33.734375 63.921875 32.171875 64.59375 
Q 30.609375 65.28125 28.8125 66.890625 
z
" id="DejaVuSans-227"/>
      <path d="M 30.609375 48.390625 
Q 23.390625 48.390625 19.1875 42.75 
Q 14.984375 37.109375 14.984375 27.296875 
Q 14.984375 17.484375 19.15625 11.84375 
Q 23.34375 6.203125 30.609375 6.203125 
Q 37.796875 6.203125 41.984375 11.859375 
Q 46.1875 17.53125 46.1875 27.296875 
Q 46.1875 37.015625 41.984375 42.703125 
Q 37.796875 48.390625 30.609375 48.390625 
z
M 30.609375 56 
Q 42.328125 56 49.015625 48.375 
Q 55.71875 40.765625 55.71875 27.296875 
Q 55.71875 13.875 49.015625 6.21875 
Q 42.328125 -1.421875 30.609375 -1.421875 
Q 18.84375 -1.421875 12.171875 6.21875 
Q 5.515625 13.875 5.515625 27.296875 
Q 5.515625 40.765625 12.171875 48.375 
Q 18.84375 56 30.609375 56 
z
" id="DejaVuSans-111"/>
      <path d="M 4.890625 31.390625 
L 31.203125 31.390625 
L 31.203125 23.390625 
L 4.890625 23.390625 
z
" id="DejaVuSans-45"/>
      <path d="M 19.671875 64.796875 
L 19.671875 8.109375 
L 31.59375 8.109375 
Q 46.6875 8.109375 53.6875 14.9375 
Q 60.6875 21.78125 60.6875 36.53125 
Q 60.6875 51.171875 53.6875 57.984375 
Q 46.6875 64.796875 31.59375 64.796875 
z
M 9.8125 72.90625 
L 30.078125 72.90625 
Q 51.265625 72.90625 61.171875 64.09375 
Q 71.09375 55.28125 71.09375 36.53125 
Q 71.09375 17.671875 61.125 8.828125 
Q 51.171875 0 30.078125 0 
L 9.8125 0 
z
" id="DejaVuSans-68"/>
      <path d="M 41.109375 46.296875 
Q 39.59375 47.171875 37.8125 47.578125 
Q 36.03125 48 33.890625 48 
Q 26.265625 48 22.1875 43.046875 
Q 18.109375 38.09375 18.109375 28.8125 
L 18.109375 0 
L 9.078125 0 
L 9.078125 54.6875 
L 18.109375 54.6875 
L 18.109375 46.1875 
Q 20.953125 51.171875 25.484375 53.578125 
Q 30.03125 56 36.53125 56 
Q 37.453125 56 38.578125 55.875 
Q 39.703125 55.765625 41.0625 55.515625 
z
" id="DejaVuSans-114"/>
      <path d="M -0.203125 72.90625 
L 10.40625 72.90625 
L 30.609375 42.921875 
L 50.6875 72.90625 
L 61.28125 72.90625 
L 35.5 34.71875 
L 35.5 0 
L 25.59375 0 
L 25.59375 34.71875 
z
" id="DejaVuSans-89"/>
     </defs>
     <use xlink:href="#DejaVuSans-77"/>
     <use x="86.279297" xlink:href="#DejaVuSans-101"/>
     <use x="147.802734" xlink:href="#DejaVuSans-100"/>
     <use x="211.279297" xlink:href="#DejaVuSans-105"/>
     <use x="239.0625" xlink:href="#DejaVuSans-231"/>
     <use x="294.042969" xlink:href="#DejaVuSans-227"/>
     <use x="355.322266" xlink:href="#DejaVuSans-111"/>
     <use x="416.503906" xlink:href="#DejaVuSans-32"/>
     <use x="448.291016" xlink:href="#DejaVuSans-50"/>
     <use x="511.914062" xlink:href="#DejaVuSans-32"/>
     <use x="543.701172" xlink:href="#DejaVuSans-45"/>
     <use x="579.785156" xlink:href="#DejaVuSans-32"/>
     <use x="611.572266" xlink:href="#DejaVuSans-68"/>
     <use x="688.574219" xlink:href="#DejaVuSans-105"/>
     <use x="716.357422" xlink:href="#DejaVuSans-114"/>
     <use x="755.220703" xlink:href="#DejaVuSans-101"/>
     <use x="816.744141" xlink:href="#DejaVuSans-231"/>
     <use x="871.724609" xlink:href="#DejaVuSans-227"/>
     <use x="933.003906" xlink:href="#DejaVuSans-111"/>
     <use x="994.185547" xlink:href="#DejaVuSans-32"/>
     <use x="1025.972656" xlink:href="#DejaVuSans-89"/>
    </g>
   </g>
   <g id="legend_1">
    <g id="patch_7">
     <path d="M 701.221875 89.19625 
L 770.6 89.19625 
Q 772.6 89.19625 772.6 87.19625 
L 772.6 58.84 
Q 772.6 56.84 770.6 56.84 
L 701.221875 56.84 
Q 699.221875 56.84 699.221875 58.84 
L 699.221875 87.19625 
Q 699.221875 89.19625 701.221875 89.19625 
z
" style="fill:#ffffff;opacity:0.8;stroke:#cccccc;stroke-linejoin:miter;"/>
    </g>
    <g id="line2d_29">
     <path d="M 703.221875 64.938437 
L 723.221875 64.938437 
" style="fill:none;stroke:#1f77b4;stroke-linecap:square;stroke-width:1.5;"/>
    </g>
    <g id="line2d_30"/>
    <g id="text_17">
     <!-- original -->
     <g transform="translate(731.221875 68.438437)scale(0.1 -0.1)">
      <defs>
       <path d="M 45.40625 27.984375 
Q 45.40625 37.75 41.375 43.109375 
Q 37.359375 48.484375 30.078125 48.484375 
Q 22.859375 48.484375 18.828125 43.109375 
Q 14.796875 37.75 14.796875 27.984375 
Q 14.796875 18.265625 18.828125 12.890625 
Q 22.859375 7.515625 30.078125 7.515625 
Q 37.359375 7.515625 41.375 12.890625 
Q 45.40625 18.265625 45.40625 27.984375 
z
M 54.390625 6.78125 
Q 54.390625 -7.171875 48.1875 -13.984375 
Q 42 -20.796875 29.203125 -20.796875 
Q 24.46875 -20.796875 20.265625 -20.09375 
Q 16.0625 -19.390625 12.109375 -17.921875 
L 12.109375 -9.1875 
Q 16.0625 -11.328125 19.921875 -12.34375 
Q 23.78125 -13.375 27.78125 -13.375 
Q 36.625 -13.375 41.015625 -8.765625 
Q 45.40625 -4.15625 45.40625 5.171875 
L 45.40625 9.625 
Q 42.625 4.78125 38.28125 2.390625 
Q 33.9375 0 27.875 0 
Q 17.828125 0 11.671875 7.65625 
Q 5.515625 15.328125 5.515625 27.984375 
Q 5.515625 40.671875 11.671875 48.328125 
Q 17.828125 56 27.875 56 
Q 33.9375 56 38.28125 53.609375 
Q 42.625 51.21875 45.40625 46.390625 
L 45.40625 54.6875 
L 54.390625 54.6875 
z
" id="DejaVuSans-103"/>
       <path d="M 54.890625 33.015625 
L 54.890625 0 
L 45.90625 0 
L 45.90625 32.71875 
Q 45.90625 40.484375 42.875 44.328125 
Q 39.84375 48.1875 33.796875 48.1875 
Q 26.515625 48.1875 22.3125 43.546875 
Q 18.109375 38.921875 18.109375 30.90625 
L 18.109375 0 
L 9.078125 0 
L 9.078125 54.6875 
L 18.109375 54.6875 
L 18.109375 46.1875 
Q 21.34375 51.125 25.703125 53.5625 
Q 30.078125 56 35.796875 56 
Q 45.21875 56 50.046875 50.171875 
Q 54.890625 44.34375 54.890625 33.015625 
z
" id="DejaVuSans-110"/>
       <path d="M 9.421875 75.984375 
L 18.40625 75.984375 
L 18.40625 0 
L 9.421875 0 
z
" id="DejaVuSans-108"/>
      </defs>
      <use xlink:href="#DejaVuSans-111"/>
      <use x="61.181641" xlink:href="#DejaVuSans-114"/>
      <use x="102.294922" xlink:href="#DejaVuSans-105"/>
      <use x="130.078125" xlink:href="#DejaVuSans-103"/>
      <use x="193.554688" xlink:href="#DejaVuSans-105"/>
      <use x="221.337891" xlink:href="#DejaVuSans-110"/>
      <use x="284.716797" xlink:href="#DejaVuSans-97"/>
      <use x="345.996094" xlink:href="#DejaVuSans-108"/>
     </g>
    </g>
    <g id="line2d_31">
     <path d="M 703.221875 79.616562 
L 723.221875 79.616562 
" style="fill:none;stroke:#ff0000;stroke-dasharray:1.5,2.475;stroke-dashoffset:0;stroke-width:1.5;"/>
    </g>
    <g id="line2d_32"/>
    <g id="text_18">
     <!-- fitted -->
     <g transform="translate(731.221875 83.116562)scale(0.1 -0.1)">
      <defs>
       <path d="M 37.109375 75.984375 
L 37.109375 68.5 
L 28.515625 68.5 
Q 23.6875 68.5 21.796875 66.546875 
Q 19.921875 64.59375 19.921875 59.515625 
L 19.921875 54.6875 
L 34.71875 54.6875 
L 34.71875 47.703125 
L 19.921875 47.703125 
L 19.921875 0 
L 10.890625 0 
L 10.890625 47.703125 
L 2.296875 47.703125 
L 2.296875 54.6875 
L 10.890625 54.6875 
L 10.890625 58.5 
Q 10.890625 67.625 15.140625 71.796875 
Q 19.390625 75.984375 28.609375 75.984375 
z
" id="DejaVuSans-102"/>
      </defs>
      <use xlink:href="#DejaVuSans-102"/>
      <use x="35.205078" xlink:href="#DejaVuSans-105"/>
      <use x="62.988281" xlink:href="#DejaVuSans-116"/>
      <use x="102.197266" xlink:href="#DejaVuSans-116"/>
      <use x="141.40625" xlink:href="#DejaVuSans-101"/>
      <use x="202.929688" xlink:href="#DejaVuSans-100"/>
     </g>
    </g>
   </g>
  </g>
 </g>
 <defs>
  <clipPath id="paef1e229c1">
   <rect height="326.16" width="669.6" x="108" y="51.84"/>
  </clipPath>
 </defs>
</svg>
