<?xml version="1.0" encoding="utf-8" standalone="no"?>
<!DOCTYPE svg PUBLIC "-//W3C//DTD SVG 1.1//EN"
  "http://www.w3.org/Graphics/SVG/1.1/DTD/svg11.dtd">
<!-- Created with matplotlib (https://matplotlib.org/) -->
<svg height="432pt" version="1.1" viewBox="0 0 864 432" width="864pt" xmlns="http://www.w3.org/2000/svg" xmlns:xlink="http://www.w3.org/1999/xlink">
 <metadata>
  <rdf:RDF xmlns:cc="http://creativecommons.org/ns#" xmlns:dc="http://purl.org/dc/elements/1.1/" xmlns:rdf="http://www.w3.org/1999/02/22-rdf-syntax-ns#">
   <cc:Work>
    <dc:type rdf:resource="http://purl.org/dc/dcmitype/StillImage"/>
    <dc:date>2021-11-25T23:46:35.684275</dc:date>
    <dc:format>image/svg+xml</dc:format>
    <dc:creator>
     <cc:Agent>
      <dc:title>Matplotlib v3.3.2, https://matplotlib.org/</dc:title>
     </cc:Agent>
    </dc:creator>
   </cc:Work>
  </rdf:RDF>
 </metadata>
 <defs>
  <style type="text/css">*{stroke-linecap:butt;stroke-linejoin:round;}</style>
 </defs>
 <g id="figure_1">
  <g id="patch_1">
   <path d="M 0 432 
L 864 432 
L 864 0 
L 0 0 
z
" style="fill:none;"/>
  </g>
  <g id="axes_1">
   <g id="patch_2">
    <path d="M 108 378 
L 777.6 378 
L 777.6 51.84 
L 108 51.84 
z
" style="fill:#ffffff;"/>
   </g>
   <g id="matplotlib.axis_1">
    <g id="xtick_1">
     <g id="line2d_1">
      <path clip-path="url(#pc027bf3b69)" d="M 108 378 
L 108 51.84 
" style="fill:none;stroke:#b0b0b0;stroke-linecap:square;stroke-width:0.8;"/>
     </g>
     <g id="line2d_2">
      <defs>
       <path d="M 0 0 
L 0 3.5 
" id="m244a8b91a9" style="stroke:#000000;stroke-width:0.8;"/>
      </defs>
      <g>
       <use style="stroke:#000000;stroke-width:0.8;" x="108" xlink:href="#m244a8b91a9" y="378"/>
      </g>
     </g>
     <g id="text_1">
      <!-- 0.00 -->
      <g transform="translate(96.867188 392.598437)scale(0.1 -0.1)">
       <defs>
        <path d="M 31.78125 66.40625 
Q 24.171875 66.40625 20.328125 58.90625 
Q 16.5 51.421875 16.5 36.375 
Q 16.5 21.390625 20.328125 13.890625 
Q 24.171875 6.390625 31.78125 6.390625 
Q 39.453125 6.390625 43.28125 13.890625 
Q 47.125 21.390625 47.125 36.375 
Q 47.125 51.421875 43.28125 58.90625 
Q 39.453125 66.40625 31.78125 66.40625 
z
M 31.78125 74.21875 
Q 44.046875 74.21875 50.515625 64.515625 
Q 56.984375 54.828125 56.984375 36.375 
Q 56.984375 17.96875 50.515625 8.265625 
Q 44.046875 -1.421875 31.78125 -1.421875 
Q 19.53125 -1.421875 13.0625 8.265625 
Q 6.59375 17.96875 6.59375 36.375 
Q 6.59375 54.828125 13.0625 64.515625 
Q 19.53125 74.21875 31.78125 74.21875 
z
" id="DejaVuSans-48"/>
        <path d="M 10.6875 12.40625 
L 21 12.40625 
L 21 0 
L 10.6875 0 
z
" id="DejaVuSans-46"/>
       </defs>
       <use xlink:href="#DejaVuSans-48"/>
       <use x="63.623047" xlink:href="#DejaVuSans-46"/>
       <use x="95.410156" xlink:href="#DejaVuSans-48"/>
       <use x="159.033203" xlink:href="#DejaVuSans-48"/>
      </g>
     </g>
    </g>
    <g id="xtick_2">
     <g id="line2d_3">
      <path clip-path="url(#pc027bf3b69)" d="M 189.380651 378 
L 189.380651 51.84 
" style="fill:none;stroke:#b0b0b0;stroke-linecap:square;stroke-width:0.8;"/>
     </g>
     <g id="line2d_4">
      <g>
       <use style="stroke:#000000;stroke-width:0.8;" x="189.380651" xlink:href="#m244a8b91a9" y="378"/>
      </g>
     </g>
     <g id="text_2">
      <!-- 0.25 -->
      <g transform="translate(178.247839 392.598437)scale(0.1 -0.1)">
       <defs>
        <path d="M 19.1875 8.296875 
L 53.609375 8.296875 
L 53.609375 0 
L 7.328125 0 
L 7.328125 8.296875 
Q 12.9375 14.109375 22.625 23.890625 
Q 32.328125 33.6875 34.8125 36.53125 
Q 39.546875 41.84375 41.421875 45.53125 
Q 43.3125 49.21875 43.3125 52.78125 
Q 43.3125 58.59375 39.234375 62.25 
Q 35.15625 65.921875 28.609375 65.921875 
Q 23.96875 65.921875 18.8125 64.3125 
Q 13.671875 62.703125 7.8125 59.421875 
L 7.8125 69.390625 
Q 13.765625 71.78125 18.9375 73 
Q 24.125 74.21875 28.421875 74.21875 
Q 39.75 74.21875 46.484375 68.546875 
Q 53.21875 62.890625 53.21875 53.421875 
Q 53.21875 48.921875 51.53125 44.890625 
Q 49.859375 40.875 45.40625 35.40625 
Q 44.1875 33.984375 37.640625 27.21875 
Q 31.109375 20.453125 19.1875 8.296875 
z
" id="DejaVuSans-50"/>
        <path d="M 10.796875 72.90625 
L 49.515625 72.90625 
L 49.515625 64.59375 
L 19.828125 64.59375 
L 19.828125 46.734375 
Q 21.96875 47.46875 24.109375 47.828125 
Q 26.265625 48.1875 28.421875 48.1875 
Q 40.625 48.1875 47.75 41.5 
Q 54.890625 34.8125 54.890625 23.390625 
Q 54.890625 11.625 47.5625 5.09375 
Q 40.234375 -1.421875 26.90625 -1.421875 
Q 22.3125 -1.421875 17.546875 -0.640625 
Q 12.796875 0.140625 7.71875 1.703125 
L 7.71875 11.625 
Q 12.109375 9.234375 16.796875 8.0625 
Q 21.484375 6.890625 26.703125 6.890625 
Q 35.15625 6.890625 40.078125 11.328125 
Q 45.015625 15.765625 45.015625 23.390625 
Q 45.015625 31 40.078125 35.4375 
Q 35.15625 39.890625 26.703125 39.890625 
Q 22.75 39.890625 18.8125 39.015625 
Q 14.890625 38.140625 10.796875 36.28125 
z
" id="DejaVuSans-53"/>
       </defs>
       <use xlink:href="#DejaVuSans-48"/>
       <use x="63.623047" xlink:href="#DejaVuSans-46"/>
       <use x="95.410156" xlink:href="#DejaVuSans-50"/>
       <use x="159.033203" xlink:href="#DejaVuSans-53"/>
      </g>
     </g>
    </g>
    <g id="xtick_3">
     <g id="line2d_5">
      <path clip-path="url(#pc027bf3b69)" d="M 270.761303 378 
L 270.761303 51.84 
" style="fill:none;stroke:#b0b0b0;stroke-linecap:square;stroke-width:0.8;"/>
     </g>
     <g id="line2d_6">
      <g>
       <use style="stroke:#000000;stroke-width:0.8;" x="270.761303" xlink:href="#m244a8b91a9" y="378"/>
      </g>
     </g>
     <g id="text_3">
      <!-- 0.50 -->
      <g transform="translate(259.62849 392.598437)scale(0.1 -0.1)">
       <use xlink:href="#DejaVuSans-48"/>
       <use x="63.623047" xlink:href="#DejaVuSans-46"/>
       <use x="95.410156" xlink:href="#DejaVuSans-53"/>
       <use x="159.033203" xlink:href="#DejaVuSans-48"/>
      </g>
     </g>
    </g>
    <g id="xtick_4">
     <g id="line2d_7">
      <path clip-path="url(#pc027bf3b69)" d="M 352.141954 378 
L 352.141954 51.84 
" style="fill:none;stroke:#b0b0b0;stroke-linecap:square;stroke-width:0.8;"/>
     </g>
     <g id="line2d_8">
      <g>
       <use style="stroke:#000000;stroke-width:0.8;" x="352.141954" xlink:href="#m244a8b91a9" y="378"/>
      </g>
     </g>
     <g id="text_4">
      <!-- 0.75 -->
      <g transform="translate(341.009142 392.598437)scale(0.1 -0.1)">
       <defs>
        <path d="M 8.203125 72.90625 
L 55.078125 72.90625 
L 55.078125 68.703125 
L 28.609375 0 
L 18.3125 0 
L 43.21875 64.59375 
L 8.203125 64.59375 
z
" id="DejaVuSans-55"/>
       </defs>
       <use xlink:href="#DejaVuSans-48"/>
       <use x="63.623047" xlink:href="#DejaVuSans-46"/>
       <use x="95.410156" xlink:href="#DejaVuSans-55"/>
       <use x="159.033203" xlink:href="#DejaVuSans-53"/>
      </g>
     </g>
    </g>
    <g id="xtick_5">
     <g id="line2d_9">
      <path clip-path="url(#pc027bf3b69)" d="M 433.522606 378 
L 433.522606 51.84 
" style="fill:none;stroke:#b0b0b0;stroke-linecap:square;stroke-width:0.8;"/>
     </g>
     <g id="line2d_10">
      <g>
       <use style="stroke:#000000;stroke-width:0.8;" x="433.522606" xlink:href="#m244a8b91a9" y="378"/>
      </g>
     </g>
     <g id="text_5">
      <!-- 1.00 -->
      <g transform="translate(422.389793 392.598437)scale(0.1 -0.1)">
       <defs>
        <path d="M 12.40625 8.296875 
L 28.515625 8.296875 
L 28.515625 63.921875 
L 10.984375 60.40625 
L 10.984375 69.390625 
L 28.421875 72.90625 
L 38.28125 72.90625 
L 38.28125 8.296875 
L 54.390625 8.296875 
L 54.390625 0 
L 12.40625 0 
z
" id="DejaVuSans-49"/>
       </defs>
       <use xlink:href="#DejaVuSans-49"/>
       <use x="63.623047" xlink:href="#DejaVuSans-46"/>
       <use x="95.410156" xlink:href="#DejaVuSans-48"/>
       <use x="159.033203" xlink:href="#DejaVuSans-48"/>
      </g>
     </g>
    </g>
    <g id="xtick_6">
     <g id="line2d_11">
      <path clip-path="url(#pc027bf3b69)" d="M 514.903257 378 
L 514.903257 51.84 
" style="fill:none;stroke:#b0b0b0;stroke-linecap:square;stroke-width:0.8;"/>
     </g>
     <g id="line2d_12">
      <g>
       <use style="stroke:#000000;stroke-width:0.8;" x="514.903257" xlink:href="#m244a8b91a9" y="378"/>
      </g>
     </g>
     <g id="text_6">
      <!-- 1.25 -->
      <g transform="translate(503.770445 392.598437)scale(0.1 -0.1)">
       <use xlink:href="#DejaVuSans-49"/>
       <use x="63.623047" xlink:href="#DejaVuSans-46"/>
       <use x="95.410156" xlink:href="#DejaVuSans-50"/>
       <use x="159.033203" xlink:href="#DejaVuSans-53"/>
      </g>
     </g>
    </g>
    <g id="xtick_7">
     <g id="line2d_13">
      <path clip-path="url(#pc027bf3b69)" d="M 596.283909 378 
L 596.283909 51.84 
" style="fill:none;stroke:#b0b0b0;stroke-linecap:square;stroke-width:0.8;"/>
     </g>
     <g id="line2d_14">
      <g>
       <use style="stroke:#000000;stroke-width:0.8;" x="596.283909" xlink:href="#m244a8b91a9" y="378"/>
      </g>
     </g>
     <g id="text_7">
      <!-- 1.50 -->
      <g transform="translate(585.151096 392.598437)scale(0.1 -0.1)">
       <use xlink:href="#DejaVuSans-49"/>
       <use x="63.623047" xlink:href="#DejaVuSans-46"/>
       <use x="95.410156" xlink:href="#DejaVuSans-53"/>
       <use x="159.033203" xlink:href="#DejaVuSans-48"/>
      </g>
     </g>
    </g>
    <g id="xtick_8">
     <g id="line2d_15">
      <path clip-path="url(#pc027bf3b69)" d="M 677.66456 378 
L 677.66456 51.84 
" style="fill:none;stroke:#b0b0b0;stroke-linecap:square;stroke-width:0.8;"/>
     </g>
     <g id="line2d_16">
      <g>
       <use style="stroke:#000000;stroke-width:0.8;" x="677.66456" xlink:href="#m244a8b91a9" y="378"/>
      </g>
     </g>
     <g id="text_8">
      <!-- 1.75 -->
      <g transform="translate(666.531748 392.598437)scale(0.1 -0.1)">
       <use xlink:href="#DejaVuSans-49"/>
       <use x="63.623047" xlink:href="#DejaVuSans-46"/>
       <use x="95.410156" xlink:href="#DejaVuSans-55"/>
       <use x="159.033203" xlink:href="#DejaVuSans-53"/>
      </g>
     </g>
    </g>
    <g id="xtick_9">
     <g id="line2d_17">
      <path clip-path="url(#pc027bf3b69)" d="M 759.045211 378 
L 759.045211 51.84 
" style="fill:none;stroke:#b0b0b0;stroke-linecap:square;stroke-width:0.8;"/>
     </g>
     <g id="line2d_18">
      <g>
       <use style="stroke:#000000;stroke-width:0.8;" x="759.045211" xlink:href="#m244a8b91a9" y="378"/>
      </g>
     </g>
     <g id="text_9">
      <!-- 2.00 -->
      <g transform="translate(747.912399 392.598437)scale(0.1 -0.1)">
       <use xlink:href="#DejaVuSans-50"/>
       <use x="63.623047" xlink:href="#DejaVuSans-46"/>
       <use x="95.410156" xlink:href="#DejaVuSans-48"/>
       <use x="159.033203" xlink:href="#DejaVuSans-48"/>
      </g>
     </g>
    </g>
    <g id="text_10">
     <!-- time (s) -->
     <g transform="translate(423.408594 406.276563)scale(0.1 -0.1)">
      <defs>
       <path d="M 18.3125 70.21875 
L 18.3125 54.6875 
L 36.8125 54.6875 
L 36.8125 47.703125 
L 18.3125 47.703125 
L 18.3125 18.015625 
Q 18.3125 11.328125 20.140625 9.421875 
Q 21.96875 7.515625 27.59375 7.515625 
L 36.8125 7.515625 
L 36.8125 0 
L 27.59375 0 
Q 17.1875 0 13.234375 3.875 
Q 9.28125 7.765625 9.28125 18.015625 
L 9.28125 47.703125 
L 2.6875 47.703125 
L 2.6875 54.6875 
L 9.28125 54.6875 
L 9.28125 70.21875 
z
" id="DejaVuSans-116"/>
       <path d="M 9.421875 54.6875 
L 18.40625 54.6875 
L 18.40625 0 
L 9.421875 0 
z
M 9.421875 75.984375 
L 18.40625 75.984375 
L 18.40625 64.59375 
L 9.421875 64.59375 
z
" id="DejaVuSans-105"/>
       <path d="M 52 44.1875 
Q 55.375 50.25 60.0625 53.125 
Q 64.75 56 71.09375 56 
Q 79.640625 56 84.28125 50.015625 
Q 88.921875 44.046875 88.921875 33.015625 
L 88.921875 0 
L 79.890625 0 
L 79.890625 32.71875 
Q 79.890625 40.578125 77.09375 44.375 
Q 74.3125 48.1875 68.609375 48.1875 
Q 61.625 48.1875 57.5625 43.546875 
Q 53.515625 38.921875 53.515625 30.90625 
L 53.515625 0 
L 44.484375 0 
L 44.484375 32.71875 
Q 44.484375 40.625 41.703125 44.40625 
Q 38.921875 48.1875 33.109375 48.1875 
Q 26.21875 48.1875 22.15625 43.53125 
Q 18.109375 38.875 18.109375 30.90625 
L 18.109375 0 
L 9.078125 0 
L 9.078125 54.6875 
L 18.109375 54.6875 
L 18.109375 46.1875 
Q 21.1875 51.21875 25.484375 53.609375 
Q 29.78125 56 35.6875 56 
Q 41.65625 56 45.828125 52.96875 
Q 50 49.953125 52 44.1875 
z
" id="DejaVuSans-109"/>
       <path d="M 56.203125 29.59375 
L 56.203125 25.203125 
L 14.890625 25.203125 
Q 15.484375 15.921875 20.484375 11.0625 
Q 25.484375 6.203125 34.421875 6.203125 
Q 39.59375 6.203125 44.453125 7.46875 
Q 49.3125 8.734375 54.109375 11.28125 
L 54.109375 2.78125 
Q 49.265625 0.734375 44.1875 -0.34375 
Q 39.109375 -1.421875 33.890625 -1.421875 
Q 20.796875 -1.421875 13.15625 6.1875 
Q 5.515625 13.8125 5.515625 26.8125 
Q 5.515625 40.234375 12.765625 48.109375 
Q 20.015625 56 32.328125 56 
Q 43.359375 56 49.78125 48.890625 
Q 56.203125 41.796875 56.203125 29.59375 
z
M 47.21875 32.234375 
Q 47.125 39.59375 43.09375 43.984375 
Q 39.0625 48.390625 32.421875 48.390625 
Q 24.90625 48.390625 20.390625 44.140625 
Q 15.875 39.890625 15.1875 32.171875 
z
" id="DejaVuSans-101"/>
       <path id="DejaVuSans-32"/>
       <path d="M 31 75.875 
Q 24.46875 64.65625 21.28125 53.65625 
Q 18.109375 42.671875 18.109375 31.390625 
Q 18.109375 20.125 21.3125 9.0625 
Q 24.515625 -2 31 -13.1875 
L 23.1875 -13.1875 
Q 15.875 -1.703125 12.234375 9.375 
Q 8.59375 20.453125 8.59375 31.390625 
Q 8.59375 42.28125 12.203125 53.3125 
Q 15.828125 64.359375 23.1875 75.875 
z
" id="DejaVuSans-40"/>
       <path d="M 44.28125 53.078125 
L 44.28125 44.578125 
Q 40.484375 46.53125 36.375 47.5 
Q 32.28125 48.484375 27.875 48.484375 
Q 21.1875 48.484375 17.84375 46.4375 
Q 14.5 44.390625 14.5 40.28125 
Q 14.5 37.15625 16.890625 35.375 
Q 19.28125 33.59375 26.515625 31.984375 
L 29.59375 31.296875 
Q 39.15625 29.25 43.1875 25.515625 
Q 47.21875 21.78125 47.21875 15.09375 
Q 47.21875 7.46875 41.1875 3.015625 
Q 35.15625 -1.421875 24.609375 -1.421875 
Q 20.21875 -1.421875 15.453125 -0.5625 
Q 10.6875 0.296875 5.421875 2 
L 5.421875 11.28125 
Q 10.40625 8.6875 15.234375 7.390625 
Q 20.0625 6.109375 24.8125 6.109375 
Q 31.15625 6.109375 34.5625 8.28125 
Q 37.984375 10.453125 37.984375 14.40625 
Q 37.984375 18.0625 35.515625 20.015625 
Q 33.0625 21.96875 24.703125 23.78125 
L 21.578125 24.515625 
Q 13.234375 26.265625 9.515625 29.90625 
Q 5.8125 33.546875 5.8125 39.890625 
Q 5.8125 47.609375 11.28125 51.796875 
Q 16.75 56 26.8125 56 
Q 31.78125 56 36.171875 55.265625 
Q 40.578125 54.546875 44.28125 53.078125 
z
" id="DejaVuSans-115"/>
       <path d="M 8.015625 75.875 
L 15.828125 75.875 
Q 23.140625 64.359375 26.78125 53.3125 
Q 30.421875 42.28125 30.421875 31.390625 
Q 30.421875 20.453125 26.78125 9.375 
Q 23.140625 -1.703125 15.828125 -13.1875 
L 8.015625 -13.1875 
Q 14.5 -2 17.703125 9.0625 
Q 20.90625 20.125 20.90625 31.390625 
Q 20.90625 42.671875 17.703125 53.65625 
Q 14.5 64.65625 8.015625 75.875 
z
" id="DejaVuSans-41"/>
      </defs>
      <use xlink:href="#DejaVuSans-116"/>
      <use x="39.208984" xlink:href="#DejaVuSans-105"/>
      <use x="66.992188" xlink:href="#DejaVuSans-109"/>
      <use x="164.404297" xlink:href="#DejaVuSans-101"/>
      <use x="225.927734" xlink:href="#DejaVuSans-32"/>
      <use x="257.714844" xlink:href="#DejaVuSans-40"/>
      <use x="296.728516" xlink:href="#DejaVuSans-115"/>
      <use x="348.828125" xlink:href="#DejaVuSans-41"/>
     </g>
    </g>
   </g>
   <g id="matplotlib.axis_2">
    <g id="ytick_1">
     <g id="line2d_19">
      <path clip-path="url(#pc027bf3b69)" d="M 108 378 
L 777.6 378 
" style="fill:none;stroke:#b0b0b0;stroke-linecap:square;stroke-width:0.8;"/>
     </g>
     <g id="line2d_20">
      <defs>
       <path d="M 0 0 
L -3.5 0 
" id="maf5a4a4558" style="stroke:#000000;stroke-width:0.8;"/>
      </defs>
      <g>
       <use style="stroke:#000000;stroke-width:0.8;" x="108" xlink:href="#maf5a4a4558" y="378"/>
      </g>
     </g>
     <g id="text_11">
      <!-- −15 -->
      <g transform="translate(79.895313 381.799219)scale(0.1 -0.1)">
       <defs>
        <path d="M 10.59375 35.5 
L 73.1875 35.5 
L 73.1875 27.203125 
L 10.59375 27.203125 
z
" id="DejaVuSans-8722"/>
       </defs>
       <use xlink:href="#DejaVuSans-8722"/>
       <use x="83.789062" xlink:href="#DejaVuSans-49"/>
       <use x="147.412109" xlink:href="#DejaVuSans-53"/>
      </g>
     </g>
    </g>
    <g id="ytick_2">
     <g id="line2d_21">
      <path clip-path="url(#pc027bf3b69)" d="M 108 323.64 
L 777.6 323.64 
" style="fill:none;stroke:#b0b0b0;stroke-linecap:square;stroke-width:0.8;"/>
     </g>
     <g id="line2d_22">
      <g>
       <use style="stroke:#000000;stroke-width:0.8;" x="108" xlink:href="#maf5a4a4558" y="323.64"/>
      </g>
     </g>
     <g id="text_12">
      <!-- −10 -->
      <g transform="translate(79.895313 327.439219)scale(0.1 -0.1)">
       <use xlink:href="#DejaVuSans-8722"/>
       <use x="83.789062" xlink:href="#DejaVuSans-49"/>
       <use x="147.412109" xlink:href="#DejaVuSans-48"/>
      </g>
     </g>
    </g>
    <g id="ytick_3">
     <g id="line2d_23">
      <path clip-path="url(#pc027bf3b69)" d="M 108 269.28 
L 777.6 269.28 
" style="fill:none;stroke:#b0b0b0;stroke-linecap:square;stroke-width:0.8;"/>
     </g>
     <g id="line2d_24">
      <g>
       <use style="stroke:#000000;stroke-width:0.8;" x="108" xlink:href="#maf5a4a4558" y="269.28"/>
      </g>
     </g>
     <g id="text_13">
      <!-- −5 -->
      <g transform="translate(86.257812 273.079219)scale(0.1 -0.1)">
       <use xlink:href="#DejaVuSans-8722"/>
       <use x="83.789062" xlink:href="#DejaVuSans-53"/>
      </g>
     </g>
    </g>
    <g id="ytick_4">
     <g id="line2d_25">
      <path clip-path="url(#pc027bf3b69)" d="M 108 214.92 
L 777.6 214.92 
" style="fill:none;stroke:#b0b0b0;stroke-linecap:square;stroke-width:0.8;"/>
     </g>
     <g id="line2d_26">
      <g>
       <use style="stroke:#000000;stroke-width:0.8;" x="108" xlink:href="#maf5a4a4558" y="214.92"/>
      </g>
     </g>
     <g id="text_14">
      <!-- 0 -->
      <g transform="translate(94.6375 218.719219)scale(0.1 -0.1)">
       <use xlink:href="#DejaVuSans-48"/>
      </g>
     </g>
    </g>
    <g id="ytick_5">
     <g id="line2d_27">
      <path clip-path="url(#pc027bf3b69)" d="M 108 160.56 
L 777.6 160.56 
" style="fill:none;stroke:#b0b0b0;stroke-linecap:square;stroke-width:0.8;"/>
     </g>
     <g id="line2d_28">
      <g>
       <use style="stroke:#000000;stroke-width:0.8;" x="108" xlink:href="#maf5a4a4558" y="160.56"/>
      </g>
     </g>
     <g id="text_15">
      <!-- 5 -->
      <g transform="translate(94.6375 164.359219)scale(0.1 -0.1)">
       <use xlink:href="#DejaVuSans-53"/>
      </g>
     </g>
    </g>
    <g id="ytick_6">
     <g id="line2d_29">
      <path clip-path="url(#pc027bf3b69)" d="M 108 106.2 
L 777.6 106.2 
" style="fill:none;stroke:#b0b0b0;stroke-linecap:square;stroke-width:0.8;"/>
     </g>
     <g id="line2d_30">
      <g>
       <use style="stroke:#000000;stroke-width:0.8;" x="108" xlink:href="#maf5a4a4558" y="106.2"/>
      </g>
     </g>
     <g id="text_16">
      <!-- 10 -->
      <g transform="translate(88.275 109.999219)scale(0.1 -0.1)">
       <use xlink:href="#DejaVuSans-49"/>
       <use x="63.623047" xlink:href="#DejaVuSans-48"/>
      </g>
     </g>
    </g>
    <g id="ytick_7">
     <g id="line2d_31">
      <path clip-path="url(#pc027bf3b69)" d="M 108 51.84 
L 777.6 51.84 
" style="fill:none;stroke:#b0b0b0;stroke-linecap:square;stroke-width:0.8;"/>
     </g>
     <g id="line2d_32">
      <g>
       <use style="stroke:#000000;stroke-width:0.8;" x="108" xlink:href="#maf5a4a4558" y="51.84"/>
      </g>
     </g>
     <g id="text_17">
      <!-- 15 -->
      <g transform="translate(88.275 55.639219)scale(0.1 -0.1)">
       <use xlink:href="#DejaVuSans-49"/>
       <use x="63.623047" xlink:href="#DejaVuSans-53"/>
      </g>
     </g>
    </g>
    <g id="text_18">
     <!-- a(t) -->
     <g transform="translate(73.815625 223.845781)rotate(-90)scale(0.1 -0.1)">
      <defs>
       <path d="M 34.28125 27.484375 
Q 23.390625 27.484375 19.1875 25 
Q 14.984375 22.515625 14.984375 16.5 
Q 14.984375 11.71875 18.140625 8.90625 
Q 21.296875 6.109375 26.703125 6.109375 
Q 34.1875 6.109375 38.703125 11.40625 
Q 43.21875 16.703125 43.21875 25.484375 
L 43.21875 27.484375 
z
M 52.203125 31.203125 
L 52.203125 0 
L 43.21875 0 
L 43.21875 8.296875 
Q 40.140625 3.328125 35.546875 0.953125 
Q 30.953125 -1.421875 24.3125 -1.421875 
Q 15.921875 -1.421875 10.953125 3.296875 
Q 6 8.015625 6 15.921875 
Q 6 25.140625 12.171875 29.828125 
Q 18.359375 34.515625 30.609375 34.515625 
L 43.21875 34.515625 
L 43.21875 35.40625 
Q 43.21875 41.609375 39.140625 45 
Q 35.0625 48.390625 27.6875 48.390625 
Q 23 48.390625 18.546875 47.265625 
Q 14.109375 46.140625 10.015625 43.890625 
L 10.015625 52.203125 
Q 14.9375 54.109375 19.578125 55.046875 
Q 24.21875 56 28.609375 56 
Q 40.484375 56 46.34375 49.84375 
Q 52.203125 43.703125 52.203125 31.203125 
z
" id="DejaVuSans-97"/>
      </defs>
      <use xlink:href="#DejaVuSans-97"/>
      <use x="61.279297" xlink:href="#DejaVuSans-40"/>
      <use x="100.292969" xlink:href="#DejaVuSans-116"/>
      <use x="139.501953" xlink:href="#DejaVuSans-41"/>
     </g>
    </g>
   </g>
   <g id="line2d_33">
    <path clip-path="url(#pc027bf3b69)" d="M 108 219.199073 
L 108.886023 217.633575 
L 109.772047 207.81354 
L 110.65807 191.619566 
L 111.544093 147.26634 
L 112.430117 117.055164 
L 113.31614 107.108435 
L 114.202163 103.182696 
L 115.088187 109.983151 
L 115.97421 120.283794 
L 116.860233 133.766651 
L 117.746257 139.428298 
L 118.63228 143.031416 
L 119.518304 145.835765 
L 120.404327 150.892546 
L 121.29035 158.465163 
L 122.176374 168.64089 
L 123.062397 173.876011 
L 123.94842 167.560091 
L 124.834444 150.920807 
L 125.720467 147.709933 
L 126.60649 154.952183 
L 127.492514 171.729583 
L 128.378537 191.01711 
L 130.150584 218.876519 
L 131.036607 223.475634 
L 131.92263 221.921082 
L 132.808654 219.280544 
L 133.694677 220.868291 
L 134.5807 234.834368 
L 135.466724 253.006054 
L 137.23877 279.419121 
L 138.124794 277.257657 
L 139.89684 258.325444 
L 140.782864 252.039117 
L 141.668887 251.445803 
L 142.554911 256.614143 
L 143.440934 264.531258 
L 145.212981 284.388085 
L 146.099004 282.455303 
L 146.985027 278.419322 
L 147.871051 271.644657 
L 149.643097 278.706809 
L 150.529121 274.581405 
L 151.415144 266.740357 
L 152.301167 253.41791 
L 153.187191 234.400097 
L 154.073214 220.951653 
L 154.959237 215.822269 
L 155.845261 209.005021 
L 156.731284 207.649238 
L 157.617307 211.503115 
L 158.503331 216.600218 
L 159.389354 218.154234 
L 160.275377 214.711561 
L 161.161401 205.04603 
L 162.047424 199.540434 
L 162.933448 195.64634 
L 163.819471 194.110705 
L 164.705494 188.891211 
L 165.591518 184.408602 
L 166.477541 178.342208 
L 167.363564 173.363027 
L 168.249588 163.755853 
L 170.021634 154.479369 
L 170.907658 156.074233 
L 171.793681 164.240099 
L 172.679704 169.599939 
L 173.565728 171.877408 
L 174.451751 170.06367 
L 175.337774 169.555078 
L 176.223798 172.701196 
L 177.109821 179.38646 
L 177.995844 184.597405 
L 178.881868 192.160883 
L 179.767891 198.280158 
L 180.653914 202.480515 
L 181.539938 205.105812 
L 182.425961 203.174634 
L 183.311984 203.69419 
L 184.198008 204.969126 
L 185.970055 214.045323 
L 186.856078 216.569137 
L 187.742101 217.352441 
L 188.628125 220.518592 
L 190.400171 236.444316 
L 191.286195 240.174302 
L 192.172218 240.849051 
L 193.058241 242.165402 
L 193.944265 245.673214 
L 194.830288 247.641917 
L 195.716311 248.572605 
L 196.602335 247.230114 
L 197.488358 246.514648 
L 198.374381 246.34773 
L 199.260405 246.583714 
L 200.146428 243.132498 
L 201.032451 239.131123 
L 201.918475 237.385622 
L 203.690521 245.864056 
L 204.576545 246.89551 
L 205.462568 244.098854 
L 206.348591 240.648785 
L 207.234615 235.709825 
L 208.120638 232.987562 
L 209.006662 229.530014 
L 209.892685 225.148055 
L 210.778708 223.19361 
L 211.664732 222.262412 
L 212.550755 221.863881 
L 213.436778 220.830475 
L 214.322802 217.31209 
L 215.208825 209.571269 
L 216.094848 205.858317 
L 218.752918 203.45449 
L 219.638942 202.367701 
L 220.524965 202.251365 
L 221.410988 201.38059 
L 222.297012 196.600775 
L 223.183035 190.838026 
L 224.069058 187.743487 
L 224.955082 187.564597 
L 225.841105 191.481737 
L 226.727128 196.141812 
L 227.613152 197.128743 
L 228.499175 194.082468 
L 229.385199 190.425292 
L 230.271222 188.372412 
L 231.157245 188.044953 
L 232.043269 189.49945 
L 232.929292 192.217367 
L 233.815315 196.904082 
L 234.701339 200.202962 
L 235.587362 204.471992 
L 236.473385 204.983871 
L 237.359409 203.673686 
L 238.245432 204.724164 
L 239.131455 207.620931 
L 240.903502 215.956674 
L 241.789525 216.330644 
L 242.675549 215.974189 
L 244.447595 217.018455 
L 245.333619 216.835395 
L 246.219642 217.91686 
L 247.105665 220.390556 
L 248.877712 229.131363 
L 249.763735 231.466278 
L 250.649759 231.686645 
L 251.535782 228.188871 
L 252.421806 227.386152 
L 253.307829 227.18995 
L 254.193852 228.678329 
L 255.079876 229.480001 
L 255.965899 230.937944 
L 256.851922 231.954296 
L 257.737946 233.146452 
L 258.623969 232.005535 
L 261.282039 223.840642 
L 262.168062 223.944432 
L 263.054086 226.638542 
L 263.940109 227.513782 
L 264.826132 226.350422 
L 265.712156 223.751139 
L 266.598179 222.193894 
L 267.484202 221.22355 
L 268.370226 219.629731 
L 269.256249 217.321259 
L 270.142272 216.575084 
L 271.028296 216.716282 
L 271.914319 217.17683 
L 272.800343 216.969542 
L 273.686366 215.638499 
L 274.572389 209.716194 
L 275.458413 206.356836 
L 276.344436 203.792678 
L 278.116483 204.861075 
L 279.002506 204.22691 
L 279.888529 204.883653 
L 280.774553 204.499744 
L 281.660576 204.325401 
L 282.546599 203.30731 
L 283.432623 201.804148 
L 284.318646 201.884006 
L 285.204669 204.464208 
L 286.976716 208.156863 
L 287.862739 207.27063 
L 288.748763 204.852611 
L 289.634786 202.889757 
L 291.406833 203.85693 
L 292.292856 205.153327 
L 293.178879 207.177573 
L 294.064903 208.7272 
L 294.950926 210.660764 
L 295.83695 211.733464 
L 296.722973 212.256714 
L 297.608996 212.342634 
L 298.49502 213.109684 
L 299.381043 214.746882 
L 300.267066 217.413367 
L 301.15309 218.634686 
L 302.039113 218.890288 
L 304.697183 220.568106 
L 305.583206 220.45177 
L 308.241276 222.016952 
L 309.1273 223.088127 
L 310.013323 223.72684 
L 310.899346 223.544176 
L 311.78537 223.62527 
L 312.671393 222.755313 
L 313.557416 222.268789 
L 315.329463 223.903834 
L 316.215487 224.154789 
L 317.10151 224.541064 
L 317.987533 225.740873 
L 320.645603 220.988778 
L 321.531627 218.708592 
L 322.41765 219.180667 
L 323.303673 218.671039 
L 324.189697 218.427314 
L 325.07572 218.532965 
L 325.961743 217.933104 
L 328.619813 213.302052 
L 329.505837 211.421406 
L 330.39186 210.63629 
L 331.277883 210.823131 
L 332.163907 210.322957 
L 333.04993 209.062003 
L 333.935953 208.875865 
L 334.821977 206.444716 
L 335.708 204.581414 
L 336.594023 204.37201 
L 337.480047 204.360673 
L 338.36607 205.788197 
L 339.252094 206.326729 
L 340.138117 207.381391 
L 341.02414 207.881354 
L 341.910164 207.298966 
L 342.796187 206.324881 
L 343.68221 204.92096 
L 344.568234 204.683145 
L 345.454257 205.699476 
L 346.34028 206.399497 
L 347.226304 208.268916 
L 348.112327 207.927813 
L 348.99835 208.917062 
L 349.884374 209.388222 
L 350.770397 210.056954 
L 351.65642 211.244964 
L 353.428467 213.369534 
L 354.31449 215.761181 
L 355.200514 216.497998 
L 356.086537 216.744691 
L 356.97256 216.755877 
L 357.858584 217.141339 
L 359.63063 218.304551 
L 360.516654 219.379696 
L 361.402677 221.6059 
L 362.288701 221.652435 
L 363.174724 222.599581 
L 364.060747 223.094149 
L 364.946771 222.663076 
L 365.832794 222.378192 
L 366.718817 222.482493 
L 367.604841 223.269697 
L 368.490864 223.827586 
L 369.376887 225.122136 
L 370.262911 224.820494 
L 371.148934 225.456689 
L 372.034957 225.109261 
L 372.920981 224.56445 
L 373.807004 223.74328 
L 374.693027 222.740644 
L 375.579051 222.778316 
L 378.237121 221.753311 
L 379.123144 221.170632 
L 380.009167 219.777043 
L 381.781214 217.947649 
L 382.667238 217.395028 
L 383.553261 217.051364 
L 384.439284 216.849576 
L 385.325308 216.039295 
L 386.211331 216.150499 
L 387.097354 215.206353 
L 387.983378 213.368244 
L 388.869401 212.358389 
L 389.755424 209.303446 
L 390.641448 207.186131 
L 391.527471 206.530901 
L 392.413494 206.190266 
L 393.299518 204.929803 
L 394.185541 203.961853 
L 395.071564 203.508621 
L 395.957588 203.33787 
L 396.843611 203.348653 
L 397.729634 203.783228 
L 398.615658 205.233955 
L 399.501681 205.998537 
L 400.387704 206.291138 
L 401.273728 205.648118 
L 402.159751 205.512584 
L 403.931798 203.635751 
L 404.817821 204.089528 
L 405.703845 204.937755 
L 407.475891 205.717452 
L 408.361915 207.012885 
L 409.247938 207.983485 
L 410.133961 209.123687 
L 411.906008 213.479028 
L 412.792031 214.59678 
L 413.678055 215.94269 
L 414.564078 216.585008 
L 415.450101 216.593933 
L 416.336125 217.567845 
L 417.222148 218.041304 
L 418.994195 218.540801 
L 419.880218 219.142086 
L 420.766241 220.813142 
L 421.652265 222.054996 
L 422.538288 222.892375 
L 426.082382 223.076069 
L 426.968405 223.712393 
L 429.626475 226.843316 
L 430.512498 227.161806 
L 431.398522 227.019978 
L 432.284545 225.766081 
L 433.170568 225.445845 
L 434.942615 223.945857 
L 435.828638 223.987051 
L 436.714662 223.506541 
L 438.486708 221.61719 
L 439.372732 220.959449 
L 440.258755 219.501367 
L 441.144778 218.723635 
L 442.916825 217.447843 
L 443.802848 217.959265 
L 444.688872 218.014198 
L 446.460918 216.959523 
L 447.346942 216.034652 
L 448.232965 214.879786 
L 450.891035 210.044153 
L 451.777059 207.94919 
L 452.663082 206.584975 
L 453.549105 205.48499 
L 454.435129 203.684106 
L 455.321152 202.850425 
L 457.093199 202.564061 
L 457.979222 203.45321 
L 458.865245 204.70006 
L 459.751269 206.173757 
L 460.637292 206.103955 
L 461.523315 206.816759 
L 462.409339 206.163079 
L 463.295362 204.645634 
L 464.181385 203.854018 
L 465.067409 203.276432 
L 465.953432 203.335929 
L 466.839455 203.741854 
L 467.725479 205.137222 
L 468.611502 206.195032 
L 469.497526 206.724649 
L 470.383549 207.687003 
L 471.269572 209.796729 
L 472.155596 210.969285 
L 473.041619 213.961417 
L 473.927642 215.379175 
L 474.813666 217.129942 
L 476.585712 216.947683 
L 477.471736 215.886586 
L 478.357759 215.764736 
L 479.243782 216.743774 
L 480.129806 217.467336 
L 481.015829 218.022816 
L 481.901852 218.813719 
L 482.787876 220.095117 
L 483.673899 221.031816 
L 485.445946 221.933403 
L 486.331969 222.643883 
L 487.217992 223.032111 
L 488.104016 223.812057 
L 488.990039 224.353019 
L 489.876062 225.237453 
L 490.762086 225.795803 
L 491.648109 225.984229 
L 492.534133 225.981876 
L 494.306179 224.495028 
L 495.192203 224.057125 
L 496.078226 223.013921 
L 497.850273 223.037326 
L 498.736296 221.913039 
L 499.622319 221.296669 
L 500.508343 220.499589 
L 501.394366 220.052531 
L 503.166413 218.751574 
L 505.824483 218.618913 
L 506.710506 217.911022 
L 507.596529 217.410252 
L 508.482553 215.960865 
L 509.368576 215.317822 
L 510.254599 214.353507 
L 511.140623 212.371637 
L 512.026646 210.757308 
L 512.912669 210.325434 
L 513.798693 209.183579 
L 514.684716 208.372351 
L 515.57074 206.97552 
L 517.342786 205.054309 
L 518.22881 204.458481 
L 519.114833 205.112794 
L 521.772903 207.92781 
L 522.658926 207.725341 
L 523.54495 207.384471 
L 525.316996 205.78189 
L 526.20302 205.277626 
L 527.089043 204.467095 
L 527.975066 204.527601 
L 528.86109 204.938426 
L 531.51916 207.385547 
L 532.405183 207.839205 
L 533.291206 209.526565 
L 534.17723 211.726383 
L 535.063253 213.342158 
L 536.8353 215.431602 
L 537.721323 215.368318 
L 538.607347 215.713192 
L 539.49337 214.590389 
L 541.265417 215.691635 
L 542.15144 215.804165 
L 547.46758 220.234525 
L 548.353603 221.460361 
L 549.239627 221.738357 
L 550.12565 222.263859 
L 551.011673 223.403818 
L 551.897697 224.017335 
L 552.78372 223.907696 
L 553.669743 224.018741 
L 554.555767 223.596651 
L 555.44179 222.686646 
L 556.327813 222.349603 
L 557.213837 222.277856 
L 558.09986 221.573654 
L 558.985884 221.759447 
L 559.871907 221.702663 
L 560.75793 221.089173 
L 561.643954 220.846852 
L 562.529977 220.15555 
L 564.302024 219.233693 
L 565.188047 219.776481 
L 566.07407 219.809716 
L 566.960094 219.617412 
L 567.846117 218.865481 
L 569.618164 217.719907 
L 571.39021 215.715864 
L 572.276234 215.005766 
L 574.04828 212.978905 
L 574.934304 212.253865 
L 576.70635 210.195615 
L 578.478397 209.173732 
L 579.364421 208.389104 
L 580.250444 208.307954 
L 581.136467 208.606443 
L 582.022491 208.758989 
L 582.908514 209.174169 
L 583.794537 209.23369 
L 584.680561 209.650771 
L 585.566584 208.553786 
L 586.452607 208.344381 
L 588.224654 207.254631 
L 589.110677 207.06489 
L 590.882724 207.023943 
L 592.654771 207.755906 
L 593.540794 208.557983 
L 594.426817 209.660783 
L 595.312841 210.39386 
L 597.970911 214.050356 
L 598.856934 215.142185 
L 599.742957 214.539167 
L 601.515004 214.68052 
L 603.287051 214.465804 
L 604.173074 214.864906 
L 605.059098 214.543379 
L 605.945121 215.019999 
L 606.831144 216.010623 
L 607.717168 216.727483 
L 608.603191 217.272816 
L 609.489214 217.605075 
L 610.375238 218.77439 
L 611.261261 219.563787 
L 612.147284 219.951045 
L 613.033308 220.801886 
L 613.919331 220.823027 
L 615.691378 221.274752 
L 617.463424 220.988452 
L 618.349448 221.000138 
L 620.121494 219.96375 
L 621.893541 219.726227 
L 622.779565 219.441573 
L 623.665588 219.38637 
L 624.551611 219.572726 
L 626.323658 219.120576 
L 627.209681 219.763031 
L 628.095705 219.286573 
L 628.981728 219.168773 
L 631.639798 217.948992 
L 634.297868 215.817714 
L 635.183891 214.927755 
L 636.955938 214.132407 
L 637.841961 212.920957 
L 638.727985 212.770527 
L 639.614008 212.22042 
L 640.500031 211.27534 
L 641.386055 211.584223 
L 643.158101 210.931433 
L 644.044125 210.733042 
L 644.930148 210.842636 
L 645.816172 210.634735 
L 646.702195 210.760278 
L 647.588218 210.769462 
L 648.474242 211.088589 
L 650.246288 210.333703 
L 651.132312 209.578022 
L 652.018335 209.460872 
L 652.904358 208.930358 
L 653.790382 209.054097 
L 655.562428 209.58702 
L 656.448452 210.451477 
L 657.334475 211.13706 
L 659.992545 212.141754 
L 661.764592 213.578601 
L 662.650615 213.925339 
L 663.536638 214.099623 
L 664.422662 213.971334 
L 665.308685 214.380122 
L 666.194708 214.638126 
L 667.080732 214.735052 
L 668.852779 215.099438 
L 669.738802 215.015145 
L 670.624825 215.231504 
L 672.396872 216.930859 
L 673.282895 216.985401 
L 675.940965 218.74766 
L 678.599035 219.446154 
L 679.485059 219.208962 
L 680.371082 219.467957 
L 681.257105 219.379073 
L 682.143129 219.406794 
L 683.029152 219.102505 
L 684.801199 218.924243 
L 688.345292 218.047038 
L 689.231316 218.237563 
L 690.117339 218.749309 
L 691.003362 218.008541 
L 691.889386 217.591534 
L 693.661432 217.253306 
L 694.547456 217.015969 
L 695.433479 216.455014 
L 696.319502 216.103015 
L 697.205526 215.630198 
L 698.977572 215.010403 
L 699.863596 214.51131 
L 700.749619 214.667813 
L 701.635642 214.181954 
L 702.521666 213.489455 
L 703.407689 213.318185 
L 705.179736 212.48389 
L 706.065759 212.395968 
L 706.951782 212.447934 
L 707.837806 212.06677 
L 708.723829 212.281062 
L 709.609852 212.16733 
L 710.495876 211.896742 
L 711.381899 212.15697 
L 712.267923 212.166108 
L 713.153946 211.635616 
L 714.039969 211.586742 
L 715.812016 210.9991 
L 716.698039 211.167278 
L 717.584063 210.853356 
L 718.470086 210.997892 
L 719.356109 211.561522 
L 720.242133 212.308924 
L 721.128156 212.4068 
L 722.014179 212.376293 
L 722.900203 212.643399 
L 723.786226 212.56545 
L 724.672249 213.411943 
L 726.444296 213.557897 
L 727.330319 214.191752 
L 728.216343 214.345462 
L 729.102366 214.188423 
L 731.760436 215.289205 
L 734.418506 215.907158 
L 735.30453 215.996006 
L 736.190553 216.463737 
L 737.076576 216.526606 
L 737.9626 217.218062 
L 738.848623 217.187948 
L 742.392716 217.625879 
L 743.27874 217.556305 
L 744.164763 217.828135 
L 745.93681 217.734321 
L 746.822833 217.268372 
L 747.708856 217.23918 
L 748.59488 216.997403 
L 749.480903 217.578316 
L 750.366926 217.420679 
L 752.138973 217.532731 
L 753.024996 217.227441 
L 753.91102 217.064547 
L 754.797043 216.703571 
L 755.683067 216.215157 
L 757.455113 216.257607 
L 758.341137 216.474617 
L 759.22716 216.03585 
L 760.113183 215.830484 
L 761.88523 214.628034 
L 762.771253 214.822506 
L 763.657277 214.512748 
L 765.429323 213.306741 
L 766.315347 213.693185 
L 767.20137 213.517005 
L 768.973417 213.485795 
L 769.85944 213.545091 
L 770.745463 213.31001 
L 771.631487 212.918084 
L 772.51751 213.100305 
L 774.289557 212.822802 
L 775.17558 212.587923 
L 776.061604 212.564002 
L 776.947627 212.337924 
L 776.947627 212.337924 
" style="fill:none;stroke:#1f77b4;stroke-linecap:square;stroke-width:1.5;"/>
   </g>
   <g id="line2d_34">
    <path clip-path="url(#pc027bf3b69)" d="M 108 172.299174 
L 109.772047 159.576119 
L 110.65807 154.176511 
L 111.544093 149.476435 
L 112.430117 145.510035 
L 113.31614 142.303563 
L 114.202163 139.875257 
L 115.088187 138.235304 
L 115.97421 137.385884 
L 116.860233 137.321291 
L 117.746257 138.028131 
L 118.63228 139.48559 
L 119.518304 141.665778 
L 120.404327 144.534127 
L 121.29035 148.049858 
L 122.176374 152.166495 
L 123.94842 161.991517 
L 125.720467 173.545812 
L 128.378537 192.984797 
L 132.808654 226.451765 
L 134.5807 238.673725 
L 136.352747 249.530055 
L 138.124794 258.643031 
L 139.010817 262.44983 
L 139.89684 265.716748 
L 140.782864 268.421011 
L 141.668887 270.545837 
L 142.554911 272.080497 
L 143.440934 273.020313 
L 144.326957 273.366593 
L 145.212981 273.126514 
L 146.099004 272.312947 
L 146.985027 270.944224 
L 147.871051 269.043859 
L 148.757074 266.640223 
L 149.643097 263.766178 
L 151.415144 256.758268 
L 153.187191 248.356535 
L 155.845261 233.977682 
L 161.161401 203.88941 
L 162.933448 194.916249 
L 164.705494 187.046359 
L 166.477541 180.549542 
L 167.363564 177.883175 
L 168.249588 175.632136 
L 169.135611 173.811343 
L 170.021634 172.431175 
L 170.907658 171.497451 
L 171.793681 171.011457 
L 172.679704 170.970009 
L 173.565728 171.365568 
L 174.451751 172.186392 
L 175.337774 173.416728 
L 176.223798 175.03704 
L 177.109821 177.024269 
L 178.881868 181.991416 
L 180.653914 188.075002 
L 182.425961 194.996659 
L 185.970055 210.138212 
L 188.628125 221.411169 
L 190.400171 228.336664 
L 192.172218 234.49003 
L 193.944265 239.657107 
L 194.830288 241.816373 
L 195.716311 243.670037 
L 196.602335 245.205166 
L 197.488358 246.412217 
L 198.374381 247.285076 
L 199.260405 247.821056 
L 200.146428 248.020861 
L 201.032451 247.88852 
L 201.918475 247.431286 
L 202.804498 246.659508 
L 203.690521 245.586474 
L 204.576545 244.228221 
L 205.462568 242.603334 
L 207.234615 238.639312 
L 209.006662 233.884774 
L 211.664732 225.744656 
L 216.980872 208.702244 
L 218.752918 203.617338 
L 220.524965 199.156335 
L 222.297012 195.472224 
L 223.183035 193.959592 
L 224.069058 192.682074 
L 224.955082 191.648146 
L 225.841105 190.863714 
L 226.727128 190.332105 
L 227.613152 190.054072 
L 228.499175 190.027841 
L 229.385199 190.249169 
L 230.271222 190.711432 
L 231.157245 191.405733 
L 232.043269 192.321028 
L 232.929292 193.444282 
L 234.701339 196.253535 
L 236.473385 199.695904 
L 238.245432 203.613824 
L 241.789525 212.187825 
L 245.333619 220.581897 
L 247.105665 224.304572 
L 248.877712 227.526922 
L 250.649759 230.140197 
L 251.535782 231.19197 
L 252.421806 232.063411 
L 253.307829 232.749095 
L 254.193852 233.245537 
L 255.079876 233.551193 
L 255.965899 233.666442 
L 256.851922 233.593545 
L 257.737946 233.336591 
L 258.623969 232.90142 
L 259.509992 232.295542 
L 260.396016 231.528022 
L 262.168062 229.551408 
L 263.940109 227.070548 
L 265.712156 224.200696 
L 268.370226 219.444878 
L 272.800343 211.415243 
L 274.572389 208.533735 
L 276.344436 206.005045 
L 278.116483 203.915924 
L 279.888529 202.332791 
L 280.774553 201.745685 
L 281.660576 201.299852 
L 282.546599 200.997192 
L 283.432623 200.838148 
L 284.318646 200.82173 
L 285.204669 200.945552 
L 286.090693 201.205875 
L 286.976716 201.597675 
L 288.748763 202.749611 
L 290.520809 204.338426 
L 292.292856 206.28627 
L 294.950926 209.683981 
L 302.039113 219.200144 
L 303.81116 221.176977 
L 305.583206 222.838136 
L 307.355253 224.129607 
L 309.1273 225.013801 
L 310.899346 225.470449 
L 312.671393 225.496783 
L 314.44344 225.107022 
L 316.215487 224.331216 
L 317.987533 223.213501 
L 319.75958 221.809869 
L 322.41765 219.31284 
L 330.39186 211.311639 
L 332.163907 209.878271 
L 333.935953 208.693611 
L 335.708 207.795345 
L 337.480047 207.208578 
L 339.252094 206.9453 
L 341.02414 207.004378 
L 342.796187 207.372067 
L 344.568234 208.022995 
L 346.34028 208.92157 
L 348.99835 210.635595 
L 352.542444 213.328821 
L 356.97256 216.72216 
L 359.63063 218.457923 
L 361.402677 219.399798 
L 363.174724 220.132443 
L 364.946771 220.634517 
L 366.718817 220.894488 
L 368.490864 220.910732 
L 370.262911 220.691251 
L 372.034957 220.253017 
L 373.807004 219.620985 
L 376.465074 218.380341 
L 380.009167 216.382917 
L 385.325308 213.331753 
L 387.983378 212.06873 
L 390.641448 211.120795 
L 392.413494 210.697981 
L 394.185541 210.455877 
L 395.957588 210.397582 
L 397.729634 210.518867 
L 399.501681 210.808607 
L 402.159751 211.519646 
L 404.817821 212.489605 
L 409.247938 214.410593 
L 413.678055 216.285388 
L 416.336125 217.201317 
L 418.994195 217.870127 
L 421.652265 218.246545 
L 424.310335 218.31317 
L 426.968405 218.080519 
L 429.626475 217.584643 
L 433.170568 216.614983 
L 443.802848 213.307515 
L 446.460918 212.769916 
L 449.118989 212.448059 
L 451.777059 212.35863 
L 454.435129 212.497173 
L 457.093199 212.839601 
L 460.637292 213.541325 
L 473.041619 216.353923 
L 476.585712 216.751586 
L 479.243782 216.848554 
L 481.901852 216.77231 
L 485.445946 216.430388 
L 489.876062 215.723326 
L 499.622319 214.008091 
L 503.166413 213.627999 
L 506.710506 213.471646 
L 510.254599 213.547322 
L 513.798693 213.827316 
L 519.114833 214.500346 
L 527.089043 215.559572 
L 531.51916 215.916376 
L 535.949277 216.008568 
L 540.379393 215.837341 
L 545.695533 215.37597 
L 557.213837 214.2818 
L 561.643954 214.109513 
L 566.07407 214.142296 
L 571.39021 214.413575 
L 588.224654 215.507047 
L 593.540794 215.514505 
L 599.742957 215.278092 
L 615.691378 214.486393 
L 621.893541 214.479385 
L 628.981728 214.705744 
L 643.158101 215.239263 
L 650.246288 215.24572 
L 659.106522 215.006922 
L 671.510849 214.674535 
L 679.485059 214.691554 
L 694.547456 215.035615 
L 704.293712 215.11525 
L 715.812016 214.952075 
L 729.988389 214.771036 
L 742.392716 214.876255 
L 760.113183 215.030602 
L 776.947627 214.882529 
L 776.947627 214.882529 
" style="fill:none;stroke:#ff0000;stroke-dasharray:1.5,2.475;stroke-dashoffset:0;stroke-width:1.5;"/>
   </g>
   <g id="patch_3">
    <path d="M 108 378 
L 108 51.84 
" style="fill:none;stroke:#000000;stroke-linecap:square;stroke-linejoin:miter;stroke-width:0.8;"/>
   </g>
   <g id="patch_4">
    <path d="M 777.6 378 
L 777.6 51.84 
" style="fill:none;stroke:#000000;stroke-linecap:square;stroke-linejoin:miter;stroke-width:0.8;"/>
   </g>
   <g id="patch_5">
    <path d="M 108 378 
L 777.6 378 
" style="fill:none;stroke:#000000;stroke-linecap:square;stroke-linejoin:miter;stroke-width:0.8;"/>
   </g>
   <g id="patch_6">
    <path d="M 108 51.84 
L 777.6 51.84 
" style="fill:none;stroke:#000000;stroke-linecap:square;stroke-linejoin:miter;stroke-width:0.8;"/>
   </g>
   <g id="text_19">
    <!-- Medição 4 - Direção Y -->
    <g transform="translate(344.964375 45.84)scale(0.18 -0.18)">
     <defs>
      <path d="M 9.8125 72.90625 
L 24.515625 72.90625 
L 43.109375 23.296875 
L 61.8125 72.90625 
L 76.515625 72.90625 
L 76.515625 0 
L 66.890625 0 
L 66.890625 64.015625 
L 48.09375 14.015625 
L 38.1875 14.015625 
L 19.390625 64.015625 
L 19.390625 0 
L 9.8125 0 
z
" id="DejaVuSans-77"/>
      <path d="M 45.40625 46.390625 
L 45.40625 75.984375 
L 54.390625 75.984375 
L 54.390625 0 
L 45.40625 0 
L 45.40625 8.203125 
Q 42.578125 3.328125 38.25 0.953125 
Q 33.9375 -1.421875 27.875 -1.421875 
Q 17.96875 -1.421875 11.734375 6.484375 
Q 5.515625 14.40625 5.515625 27.296875 
Q 5.515625 40.1875 11.734375 48.09375 
Q 17.96875 56 27.875 56 
Q 33.9375 56 38.25 53.625 
Q 42.578125 51.265625 45.40625 46.390625 
z
M 14.796875 27.296875 
Q 14.796875 17.390625 18.875 11.75 
Q 22.953125 6.109375 30.078125 6.109375 
Q 37.203125 6.109375 41.296875 11.75 
Q 45.40625 17.390625 45.40625 27.296875 
Q 45.40625 37.203125 41.296875 42.84375 
Q 37.203125 48.484375 30.078125 48.484375 
Q 22.953125 48.484375 18.875 42.84375 
Q 14.796875 37.203125 14.796875 27.296875 
z
" id="DejaVuSans-100"/>
      <path d="M 48.78125 52.59375 
L 48.78125 44.1875 
Q 44.96875 46.296875 41.140625 47.34375 
Q 37.3125 48.390625 33.40625 48.390625 
Q 24.65625 48.390625 19.8125 42.84375 
Q 14.984375 37.3125 14.984375 27.296875 
Q 14.984375 17.28125 19.8125 11.734375 
Q 24.65625 6.203125 33.40625 6.203125 
Q 37.3125 6.203125 41.140625 7.25 
Q 44.96875 8.296875 48.78125 10.40625 
L 48.78125 2.09375 
Q 45.015625 0.34375 40.984375 -0.53125 
Q 36.96875 -1.421875 32.421875 -1.421875 
Q 20.0625 -1.421875 12.78125 6.34375 
Q 5.515625 14.109375 5.515625 27.296875 
Q 5.515625 40.671875 12.859375 48.328125 
Q 20.21875 56 33.015625 56 
Q 37.15625 56 41.109375 55.140625 
Q 45.0625 54.296875 48.78125 52.59375 
z
M 36.078125 0 
Q 38.765625 -3.03125 40.078125 -5.59375 
Q 41.40625 -8.15625 41.40625 -10.5 
Q 41.40625 -14.84375 38.46875 -17.0625 
Q 35.546875 -19.28125 29.78125 -19.28125 
Q 27.546875 -19.28125 25.421875 -18.984375 
Q 23.296875 -18.703125 21.1875 -18.109375 
L 21.1875 -11.71875 
Q 22.859375 -12.546875 24.65625 -12.90625 
Q 26.46875 -13.28125 28.765625 -13.28125 
Q 31.640625 -13.28125 33.109375 -12.109375 
Q 34.578125 -10.9375 34.578125 -8.6875 
Q 34.578125 -7.234375 33.515625 -5.109375 
Q 32.46875 -2.984375 30.28125 0 
z
" id="DejaVuSans-231"/>
      <path d="M 34.28125 27.484375 
Q 23.390625 27.484375 19.1875 25 
Q 14.984375 22.515625 14.984375 16.5 
Q 14.984375 11.71875 18.140625 8.90625 
Q 21.296875 6.109375 26.703125 6.109375 
Q 34.1875 6.109375 38.703125 11.40625 
Q 43.21875 16.703125 43.21875 25.484375 
L 43.21875 27.484375 
z
M 52.203125 31.203125 
L 52.203125 0 
L 43.21875 0 
L 43.21875 8.296875 
Q 40.140625 3.328125 35.546875 0.953125 
Q 30.953125 -1.421875 24.3125 -1.421875 
Q 15.921875 -1.421875 10.953125 3.296875 
Q 6 8.015625 6 15.921875 
Q 6 25.140625 12.171875 29.828125 
Q 18.359375 34.515625 30.609375 34.515625 
L 43.21875 34.515625 
L 43.21875 35.40625 
Q 43.21875 41.609375 39.140625 45 
Q 35.0625 48.390625 27.6875 48.390625 
Q 23 48.390625 18.546875 47.265625 
Q 14.109375 46.140625 10.015625 43.890625 
L 10.015625 52.203125 
Q 14.9375 54.109375 19.578125 55.046875 
Q 24.21875 56 28.609375 56 
Q 40.484375 56 46.34375 49.84375 
Q 52.203125 43.703125 52.203125 31.203125 
z
M 28.8125 66.890625 
L 26.03125 69.578125 
Q 24.953125 70.5625 24.140625 71.015625 
Q 23.34375 71.484375 22.703125 71.484375 
Q 20.84375 71.484375 19.96875 69.703125 
Q 19.09375 67.921875 19 63.921875 
L 12.890625 63.921875 
Q 12.984375 70.515625 15.46875 74.09375 
Q 17.96875 77.6875 22.40625 77.6875 
Q 24.265625 77.6875 25.828125 77 
Q 27.390625 76.3125 29.203125 74.703125 
L 31.984375 72.015625 
Q 33.0625 71.046875 33.859375 70.578125 
Q 34.671875 70.125 35.296875 70.125 
Q 37.15625 70.125 38.03125 71.90625 
Q 38.921875 73.6875 39.015625 77.6875 
L 45.125 77.6875 
Q 45.015625 71.09375 42.53125 67.5 
Q 40.046875 63.921875 35.59375 63.921875 
Q 33.734375 63.921875 32.171875 64.59375 
Q 30.609375 65.28125 28.8125 66.890625 
z
" id="DejaVuSans-227"/>
      <path d="M 30.609375 48.390625 
Q 23.390625 48.390625 19.1875 42.75 
Q 14.984375 37.109375 14.984375 27.296875 
Q 14.984375 17.484375 19.15625 11.84375 
Q 23.34375 6.203125 30.609375 6.203125 
Q 37.796875 6.203125 41.984375 11.859375 
Q 46.1875 17.53125 46.1875 27.296875 
Q 46.1875 37.015625 41.984375 42.703125 
Q 37.796875 48.390625 30.609375 48.390625 
z
M 30.609375 56 
Q 42.328125 56 49.015625 48.375 
Q 55.71875 40.765625 55.71875 27.296875 
Q 55.71875 13.875 49.015625 6.21875 
Q 42.328125 -1.421875 30.609375 -1.421875 
Q 18.84375 -1.421875 12.171875 6.21875 
Q 5.515625 13.875 5.515625 27.296875 
Q 5.515625 40.765625 12.171875 48.375 
Q 18.84375 56 30.609375 56 
z
" id="DejaVuSans-111"/>
      <path d="M 37.796875 64.3125 
L 12.890625 25.390625 
L 37.796875 25.390625 
z
M 35.203125 72.90625 
L 47.609375 72.90625 
L 47.609375 25.390625 
L 58.015625 25.390625 
L 58.015625 17.1875 
L 47.609375 17.1875 
L 47.609375 0 
L 37.796875 0 
L 37.796875 17.1875 
L 4.890625 17.1875 
L 4.890625 26.703125 
z
" id="DejaVuSans-52"/>
      <path d="M 4.890625 31.390625 
L 31.203125 31.390625 
L 31.203125 23.390625 
L 4.890625 23.390625 
z
" id="DejaVuSans-45"/>
      <path d="M 19.671875 64.796875 
L 19.671875 8.109375 
L 31.59375 8.109375 
Q 46.6875 8.109375 53.6875 14.9375 
Q 60.6875 21.78125 60.6875 36.53125 
Q 60.6875 51.171875 53.6875 57.984375 
Q 46.6875 64.796875 31.59375 64.796875 
z
M 9.8125 72.90625 
L 30.078125 72.90625 
Q 51.265625 72.90625 61.171875 64.09375 
Q 71.09375 55.28125 71.09375 36.53125 
Q 71.09375 17.671875 61.125 8.828125 
Q 51.171875 0 30.078125 0 
L 9.8125 0 
z
" id="DejaVuSans-68"/>
      <path d="M 41.109375 46.296875 
Q 39.59375 47.171875 37.8125 47.578125 
Q 36.03125 48 33.890625 48 
Q 26.265625 48 22.1875 43.046875 
Q 18.109375 38.09375 18.109375 28.8125 
L 18.109375 0 
L 9.078125 0 
L 9.078125 54.6875 
L 18.109375 54.6875 
L 18.109375 46.1875 
Q 20.953125 51.171875 25.484375 53.578125 
Q 30.03125 56 36.53125 56 
Q 37.453125 56 38.578125 55.875 
Q 39.703125 55.765625 41.0625 55.515625 
z
" id="DejaVuSans-114"/>
      <path d="M -0.203125 72.90625 
L 10.40625 72.90625 
L 30.609375 42.921875 
L 50.6875 72.90625 
L 61.28125 72.90625 
L 35.5 34.71875 
L 35.5 0 
L 25.59375 0 
L 25.59375 34.71875 
z
" id="DejaVuSans-89"/>
     </defs>
     <use xlink:href="#DejaVuSans-77"/>
     <use x="86.279297" xlink:href="#DejaVuSans-101"/>
     <use x="147.802734" xlink:href="#DejaVuSans-100"/>
     <use x="211.279297" xlink:href="#DejaVuSans-105"/>
     <use x="239.0625" xlink:href="#DejaVuSans-231"/>
     <use x="294.042969" xlink:href="#DejaVuSans-227"/>
     <use x="355.322266" xlink:href="#DejaVuSans-111"/>
     <use x="416.503906" xlink:href="#DejaVuSans-32"/>
     <use x="448.291016" xlink:href="#DejaVuSans-52"/>
     <use x="511.914062" xlink:href="#DejaVuSans-32"/>
     <use x="543.701172" xlink:href="#DejaVuSans-45"/>
     <use x="579.785156" xlink:href="#DejaVuSans-32"/>
     <use x="611.572266" xlink:href="#DejaVuSans-68"/>
     <use x="688.574219" xlink:href="#DejaVuSans-105"/>
     <use x="716.357422" xlink:href="#DejaVuSans-114"/>
     <use x="755.220703" xlink:href="#DejaVuSans-101"/>
     <use x="816.744141" xlink:href="#DejaVuSans-231"/>
     <use x="871.724609" xlink:href="#DejaVuSans-227"/>
     <use x="933.003906" xlink:href="#DejaVuSans-111"/>
     <use x="994.185547" xlink:href="#DejaVuSans-32"/>
     <use x="1025.972656" xlink:href="#DejaVuSans-89"/>
    </g>
   </g>
   <g id="legend_1">
    <g id="patch_7">
     <path d="M 701.221875 89.19625 
L 770.6 89.19625 
Q 772.6 89.19625 772.6 87.19625 
L 772.6 58.84 
Q 772.6 56.84 770.6 56.84 
L 701.221875 56.84 
Q 699.221875 56.84 699.221875 58.84 
L 699.221875 87.19625 
Q 699.221875 89.19625 701.221875 89.19625 
z
" style="fill:#ffffff;opacity:0.8;stroke:#cccccc;stroke-linejoin:miter;"/>
    </g>
    <g id="line2d_35">
     <path d="M 703.221875 64.938437 
L 723.221875 64.938437 
" style="fill:none;stroke:#1f77b4;stroke-linecap:square;stroke-width:1.5;"/>
    </g>
    <g id="line2d_36"/>
    <g id="text_20">
     <!-- original -->
     <g transform="translate(731.221875 68.438437)scale(0.1 -0.1)">
      <defs>
       <path d="M 45.40625 27.984375 
Q 45.40625 37.75 41.375 43.109375 
Q 37.359375 48.484375 30.078125 48.484375 
Q 22.859375 48.484375 18.828125 43.109375 
Q 14.796875 37.75 14.796875 27.984375 
Q 14.796875 18.265625 18.828125 12.890625 
Q 22.859375 7.515625 30.078125 7.515625 
Q 37.359375 7.515625 41.375 12.890625 
Q 45.40625 18.265625 45.40625 27.984375 
z
M 54.390625 6.78125 
Q 54.390625 -7.171875 48.1875 -13.984375 
Q 42 -20.796875 29.203125 -20.796875 
Q 24.46875 -20.796875 20.265625 -20.09375 
Q 16.0625 -19.390625 12.109375 -17.921875 
L 12.109375 -9.1875 
Q 16.0625 -11.328125 19.921875 -12.34375 
Q 23.78125 -13.375 27.78125 -13.375 
Q 36.625 -13.375 41.015625 -8.765625 
Q 45.40625 -4.15625 45.40625 5.171875 
L 45.40625 9.625 
Q 42.625 4.78125 38.28125 2.390625 
Q 33.9375 0 27.875 0 
Q 17.828125 0 11.671875 7.65625 
Q 5.515625 15.328125 5.515625 27.984375 
Q 5.515625 40.671875 11.671875 48.328125 
Q 17.828125 56 27.875 56 
Q 33.9375 56 38.28125 53.609375 
Q 42.625 51.21875 45.40625 46.390625 
L 45.40625 54.6875 
L 54.390625 54.6875 
z
" id="DejaVuSans-103"/>
       <path d="M 54.890625 33.015625 
L 54.890625 0 
L 45.90625 0 
L 45.90625 32.71875 
Q 45.90625 40.484375 42.875 44.328125 
Q 39.84375 48.1875 33.796875 48.1875 
Q 26.515625 48.1875 22.3125 43.546875 
Q 18.109375 38.921875 18.109375 30.90625 
L 18.109375 0 
L 9.078125 0 
L 9.078125 54.6875 
L 18.109375 54.6875 
L 18.109375 46.1875 
Q 21.34375 51.125 25.703125 53.5625 
Q 30.078125 56 35.796875 56 
Q 45.21875 56 50.046875 50.171875 
Q 54.890625 44.34375 54.890625 33.015625 
z
" id="DejaVuSans-110"/>
       <path d="M 9.421875 75.984375 
L 18.40625 75.984375 
L 18.40625 0 
L 9.421875 0 
z
" id="DejaVuSans-108"/>
      </defs>
      <use xlink:href="#DejaVuSans-111"/>
      <use x="61.181641" xlink:href="#DejaVuSans-114"/>
      <use x="102.294922" xlink:href="#DejaVuSans-105"/>
      <use x="130.078125" xlink:href="#DejaVuSans-103"/>
      <use x="193.554688" xlink:href="#DejaVuSans-105"/>
      <use x="221.337891" xlink:href="#DejaVuSans-110"/>
      <use x="284.716797" xlink:href="#DejaVuSans-97"/>
      <use x="345.996094" xlink:href="#DejaVuSans-108"/>
     </g>
    </g>
    <g id="line2d_37">
     <path d="M 703.221875 79.616562 
L 723.221875 79.616562 
" style="fill:none;stroke:#ff0000;stroke-dasharray:1.5,2.475;stroke-dashoffset:0;stroke-width:1.5;"/>
    </g>
    <g id="line2d_38"/>
    <g id="text_21">
     <!-- fitted -->
     <g transform="translate(731.221875 83.116562)scale(0.1 -0.1)">
      <defs>
       <path d="M 37.109375 75.984375 
L 37.109375 68.5 
L 28.515625 68.5 
Q 23.6875 68.5 21.796875 66.546875 
Q 19.921875 64.59375 19.921875 59.515625 
L 19.921875 54.6875 
L 34.71875 54.6875 
L 34.71875 47.703125 
L 19.921875 47.703125 
L 19.921875 0 
L 10.890625 0 
L 10.890625 47.703125 
L 2.296875 47.703125 
L 2.296875 54.6875 
L 10.890625 54.6875 
L 10.890625 58.5 
Q 10.890625 67.625 15.140625 71.796875 
Q 19.390625 75.984375 28.609375 75.984375 
z
" id="DejaVuSans-102"/>
      </defs>
      <use xlink:href="#DejaVuSans-102"/>
      <use x="35.205078" xlink:href="#DejaVuSans-105"/>
      <use x="62.988281" xlink:href="#DejaVuSans-116"/>
      <use x="102.197266" xlink:href="#DejaVuSans-116"/>
      <use x="141.40625" xlink:href="#DejaVuSans-101"/>
      <use x="202.929688" xlink:href="#DejaVuSans-100"/>
     </g>
    </g>
   </g>
  </g>
 </g>
 <defs>
  <clipPath id="pc027bf3b69">
   <rect height="326.16" width="669.6" x="108" y="51.84"/>
  </clipPath>
 </defs>
</svg>
