<?xml version="1.0" encoding="utf-8" standalone="no"?>
<!DOCTYPE svg PUBLIC "-//W3C//DTD SVG 1.1//EN"
  "http://www.w3.org/Graphics/SVG/1.1/DTD/svg11.dtd">
<!-- Created with matplotlib (https://matplotlib.org/) -->
<svg height="432pt" version="1.1" viewBox="0 0 864 432" width="864pt" xmlns="http://www.w3.org/2000/svg" xmlns:xlink="http://www.w3.org/1999/xlink">
 <metadata>
  <rdf:RDF xmlns:cc="http://creativecommons.org/ns#" xmlns:dc="http://purl.org/dc/elements/1.1/" xmlns:rdf="http://www.w3.org/1999/02/22-rdf-syntax-ns#">
   <cc:Work>
    <dc:type rdf:resource="http://purl.org/dc/dcmitype/StillImage"/>
    <dc:date>2021-11-25T23:51:16.472499</dc:date>
    <dc:format>image/svg+xml</dc:format>
    <dc:creator>
     <cc:Agent>
      <dc:title>Matplotlib v3.3.2, https://matplotlib.org/</dc:title>
     </cc:Agent>
    </dc:creator>
   </cc:Work>
  </rdf:RDF>
 </metadata>
 <defs>
  <style type="text/css">*{stroke-linecap:butt;stroke-linejoin:round;}</style>
 </defs>
 <g id="figure_1">
  <g id="patch_1">
   <path d="M 0 432 
L 864 432 
L 864 0 
L 0 0 
z
" style="fill:none;"/>
  </g>
  <g id="axes_1">
   <g id="patch_2">
    <path d="M 108 378 
L 777.6 378 
L 777.6 51.84 
L 108 51.84 
z
" style="fill:#ffffff;"/>
   </g>
   <g id="matplotlib.axis_1">
    <g id="xtick_1">
     <g id="line2d_1">
      <path clip-path="url(#p4e33ed9fc6)" d="M 108 378 
L 108 51.84 
" style="fill:none;stroke:#b0b0b0;stroke-linecap:square;stroke-width:0.8;"/>
     </g>
     <g id="line2d_2">
      <defs>
       <path d="M 0 0 
L 0 3.5 
" id="m8646ff4708" style="stroke:#000000;stroke-width:0.8;"/>
      </defs>
      <g>
       <use style="stroke:#000000;stroke-width:0.8;" x="108" xlink:href="#m8646ff4708" y="378"/>
      </g>
     </g>
     <g id="text_1">
      <!-- 0.0 -->
      <g transform="translate(100.048438 392.598437)scale(0.1 -0.1)">
       <defs>
        <path d="M 31.78125 66.40625 
Q 24.171875 66.40625 20.328125 58.90625 
Q 16.5 51.421875 16.5 36.375 
Q 16.5 21.390625 20.328125 13.890625 
Q 24.171875 6.390625 31.78125 6.390625 
Q 39.453125 6.390625 43.28125 13.890625 
Q 47.125 21.390625 47.125 36.375 
Q 47.125 51.421875 43.28125 58.90625 
Q 39.453125 66.40625 31.78125 66.40625 
z
M 31.78125 74.21875 
Q 44.046875 74.21875 50.515625 64.515625 
Q 56.984375 54.828125 56.984375 36.375 
Q 56.984375 17.96875 50.515625 8.265625 
Q 44.046875 -1.421875 31.78125 -1.421875 
Q 19.53125 -1.421875 13.0625 8.265625 
Q 6.59375 17.96875 6.59375 36.375 
Q 6.59375 54.828125 13.0625 64.515625 
Q 19.53125 74.21875 31.78125 74.21875 
z
" id="DejaVuSans-48"/>
        <path d="M 10.6875 12.40625 
L 21 12.40625 
L 21 0 
L 10.6875 0 
z
" id="DejaVuSans-46"/>
       </defs>
       <use xlink:href="#DejaVuSans-48"/>
       <use x="63.623047" xlink:href="#DejaVuSans-46"/>
       <use x="95.410156" xlink:href="#DejaVuSans-48"/>
      </g>
     </g>
    </g>
    <g id="xtick_2">
     <g id="line2d_3">
      <path clip-path="url(#p4e33ed9fc6)" d="M 185.009776 378 
L 185.009776 51.84 
" style="fill:none;stroke:#b0b0b0;stroke-linecap:square;stroke-width:0.8;"/>
     </g>
     <g id="line2d_4">
      <g>
       <use style="stroke:#000000;stroke-width:0.8;" x="185.009776" xlink:href="#m8646ff4708" y="378"/>
      </g>
     </g>
     <g id="text_2">
      <!-- 0.2 -->
      <g transform="translate(177.058213 392.598437)scale(0.1 -0.1)">
       <defs>
        <path d="M 19.1875 8.296875 
L 53.609375 8.296875 
L 53.609375 0 
L 7.328125 0 
L 7.328125 8.296875 
Q 12.9375 14.109375 22.625 23.890625 
Q 32.328125 33.6875 34.8125 36.53125 
Q 39.546875 41.84375 41.421875 45.53125 
Q 43.3125 49.21875 43.3125 52.78125 
Q 43.3125 58.59375 39.234375 62.25 
Q 35.15625 65.921875 28.609375 65.921875 
Q 23.96875 65.921875 18.8125 64.3125 
Q 13.671875 62.703125 7.8125 59.421875 
L 7.8125 69.390625 
Q 13.765625 71.78125 18.9375 73 
Q 24.125 74.21875 28.421875 74.21875 
Q 39.75 74.21875 46.484375 68.546875 
Q 53.21875 62.890625 53.21875 53.421875 
Q 53.21875 48.921875 51.53125 44.890625 
Q 49.859375 40.875 45.40625 35.40625 
Q 44.1875 33.984375 37.640625 27.21875 
Q 31.109375 20.453125 19.1875 8.296875 
z
" id="DejaVuSans-50"/>
       </defs>
       <use xlink:href="#DejaVuSans-48"/>
       <use x="63.623047" xlink:href="#DejaVuSans-46"/>
       <use x="95.410156" xlink:href="#DejaVuSans-50"/>
      </g>
     </g>
    </g>
    <g id="xtick_3">
     <g id="line2d_5">
      <path clip-path="url(#p4e33ed9fc6)" d="M 262.019551 378 
L 262.019551 51.84 
" style="fill:none;stroke:#b0b0b0;stroke-linecap:square;stroke-width:0.8;"/>
     </g>
     <g id="line2d_6">
      <g>
       <use style="stroke:#000000;stroke-width:0.8;" x="262.019551" xlink:href="#m8646ff4708" y="378"/>
      </g>
     </g>
     <g id="text_3">
      <!-- 0.4 -->
      <g transform="translate(254.067989 392.598437)scale(0.1 -0.1)">
       <defs>
        <path d="M 37.796875 64.3125 
L 12.890625 25.390625 
L 37.796875 25.390625 
z
M 35.203125 72.90625 
L 47.609375 72.90625 
L 47.609375 25.390625 
L 58.015625 25.390625 
L 58.015625 17.1875 
L 47.609375 17.1875 
L 47.609375 0 
L 37.796875 0 
L 37.796875 17.1875 
L 4.890625 17.1875 
L 4.890625 26.703125 
z
" id="DejaVuSans-52"/>
       </defs>
       <use xlink:href="#DejaVuSans-48"/>
       <use x="63.623047" xlink:href="#DejaVuSans-46"/>
       <use x="95.410156" xlink:href="#DejaVuSans-52"/>
      </g>
     </g>
    </g>
    <g id="xtick_4">
     <g id="line2d_7">
      <path clip-path="url(#p4e33ed9fc6)" d="M 339.029327 378 
L 339.029327 51.84 
" style="fill:none;stroke:#b0b0b0;stroke-linecap:square;stroke-width:0.8;"/>
     </g>
     <g id="line2d_8">
      <g>
       <use style="stroke:#000000;stroke-width:0.8;" x="339.029327" xlink:href="#m8646ff4708" y="378"/>
      </g>
     </g>
     <g id="text_4">
      <!-- 0.6 -->
      <g transform="translate(331.077765 392.598437)scale(0.1 -0.1)">
       <defs>
        <path d="M 33.015625 40.375 
Q 26.375 40.375 22.484375 35.828125 
Q 18.609375 31.296875 18.609375 23.390625 
Q 18.609375 15.53125 22.484375 10.953125 
Q 26.375 6.390625 33.015625 6.390625 
Q 39.65625 6.390625 43.53125 10.953125 
Q 47.40625 15.53125 47.40625 23.390625 
Q 47.40625 31.296875 43.53125 35.828125 
Q 39.65625 40.375 33.015625 40.375 
z
M 52.59375 71.296875 
L 52.59375 62.3125 
Q 48.875 64.0625 45.09375 64.984375 
Q 41.3125 65.921875 37.59375 65.921875 
Q 27.828125 65.921875 22.671875 59.328125 
Q 17.53125 52.734375 16.796875 39.40625 
Q 19.671875 43.65625 24.015625 45.921875 
Q 28.375 48.1875 33.59375 48.1875 
Q 44.578125 48.1875 50.953125 41.515625 
Q 57.328125 34.859375 57.328125 23.390625 
Q 57.328125 12.15625 50.6875 5.359375 
Q 44.046875 -1.421875 33.015625 -1.421875 
Q 20.359375 -1.421875 13.671875 8.265625 
Q 6.984375 17.96875 6.984375 36.375 
Q 6.984375 53.65625 15.1875 63.9375 
Q 23.390625 74.21875 37.203125 74.21875 
Q 40.921875 74.21875 44.703125 73.484375 
Q 48.484375 72.75 52.59375 71.296875 
z
" id="DejaVuSans-54"/>
       </defs>
       <use xlink:href="#DejaVuSans-48"/>
       <use x="63.623047" xlink:href="#DejaVuSans-46"/>
       <use x="95.410156" xlink:href="#DejaVuSans-54"/>
      </g>
     </g>
    </g>
    <g id="xtick_5">
     <g id="line2d_9">
      <path clip-path="url(#p4e33ed9fc6)" d="M 416.039103 378 
L 416.039103 51.84 
" style="fill:none;stroke:#b0b0b0;stroke-linecap:square;stroke-width:0.8;"/>
     </g>
     <g id="line2d_10">
      <g>
       <use style="stroke:#000000;stroke-width:0.8;" x="416.039103" xlink:href="#m8646ff4708" y="378"/>
      </g>
     </g>
     <g id="text_5">
      <!-- 0.8 -->
      <g transform="translate(408.08754 392.598437)scale(0.1 -0.1)">
       <defs>
        <path d="M 31.78125 34.625 
Q 24.75 34.625 20.71875 30.859375 
Q 16.703125 27.09375 16.703125 20.515625 
Q 16.703125 13.921875 20.71875 10.15625 
Q 24.75 6.390625 31.78125 6.390625 
Q 38.8125 6.390625 42.859375 10.171875 
Q 46.921875 13.96875 46.921875 20.515625 
Q 46.921875 27.09375 42.890625 30.859375 
Q 38.875 34.625 31.78125 34.625 
z
M 21.921875 38.8125 
Q 15.578125 40.375 12.03125 44.71875 
Q 8.5 49.078125 8.5 55.328125 
Q 8.5 64.0625 14.71875 69.140625 
Q 20.953125 74.21875 31.78125 74.21875 
Q 42.671875 74.21875 48.875 69.140625 
Q 55.078125 64.0625 55.078125 55.328125 
Q 55.078125 49.078125 51.53125 44.71875 
Q 48 40.375 41.703125 38.8125 
Q 48.828125 37.15625 52.796875 32.3125 
Q 56.78125 27.484375 56.78125 20.515625 
Q 56.78125 9.90625 50.3125 4.234375 
Q 43.84375 -1.421875 31.78125 -1.421875 
Q 19.734375 -1.421875 13.25 4.234375 
Q 6.78125 9.90625 6.78125 20.515625 
Q 6.78125 27.484375 10.78125 32.3125 
Q 14.796875 37.15625 21.921875 38.8125 
z
M 18.3125 54.390625 
Q 18.3125 48.734375 21.84375 45.5625 
Q 25.390625 42.390625 31.78125 42.390625 
Q 38.140625 42.390625 41.71875 45.5625 
Q 45.3125 48.734375 45.3125 54.390625 
Q 45.3125 60.0625 41.71875 63.234375 
Q 38.140625 66.40625 31.78125 66.40625 
Q 25.390625 66.40625 21.84375 63.234375 
Q 18.3125 60.0625 18.3125 54.390625 
z
" id="DejaVuSans-56"/>
       </defs>
       <use xlink:href="#DejaVuSans-48"/>
       <use x="63.623047" xlink:href="#DejaVuSans-46"/>
       <use x="95.410156" xlink:href="#DejaVuSans-56"/>
      </g>
     </g>
    </g>
    <g id="xtick_6">
     <g id="line2d_11">
      <path clip-path="url(#p4e33ed9fc6)" d="M 493.048879 378 
L 493.048879 51.84 
" style="fill:none;stroke:#b0b0b0;stroke-linecap:square;stroke-width:0.8;"/>
     </g>
     <g id="line2d_12">
      <g>
       <use style="stroke:#000000;stroke-width:0.8;" x="493.048879" xlink:href="#m8646ff4708" y="378"/>
      </g>
     </g>
     <g id="text_6">
      <!-- 1.0 -->
      <g transform="translate(485.097316 392.598437)scale(0.1 -0.1)">
       <defs>
        <path d="M 12.40625 8.296875 
L 28.515625 8.296875 
L 28.515625 63.921875 
L 10.984375 60.40625 
L 10.984375 69.390625 
L 28.421875 72.90625 
L 38.28125 72.90625 
L 38.28125 8.296875 
L 54.390625 8.296875 
L 54.390625 0 
L 12.40625 0 
z
" id="DejaVuSans-49"/>
       </defs>
       <use xlink:href="#DejaVuSans-49"/>
       <use x="63.623047" xlink:href="#DejaVuSans-46"/>
       <use x="95.410156" xlink:href="#DejaVuSans-48"/>
      </g>
     </g>
    </g>
    <g id="xtick_7">
     <g id="line2d_13">
      <path clip-path="url(#p4e33ed9fc6)" d="M 570.058654 378 
L 570.058654 51.84 
" style="fill:none;stroke:#b0b0b0;stroke-linecap:square;stroke-width:0.8;"/>
     </g>
     <g id="line2d_14">
      <g>
       <use style="stroke:#000000;stroke-width:0.8;" x="570.058654" xlink:href="#m8646ff4708" y="378"/>
      </g>
     </g>
     <g id="text_7">
      <!-- 1.2 -->
      <g transform="translate(562.107092 392.598437)scale(0.1 -0.1)">
       <use xlink:href="#DejaVuSans-49"/>
       <use x="63.623047" xlink:href="#DejaVuSans-46"/>
       <use x="95.410156" xlink:href="#DejaVuSans-50"/>
      </g>
     </g>
    </g>
    <g id="xtick_8">
     <g id="line2d_15">
      <path clip-path="url(#p4e33ed9fc6)" d="M 647.06843 378 
L 647.06843 51.84 
" style="fill:none;stroke:#b0b0b0;stroke-linecap:square;stroke-width:0.8;"/>
     </g>
     <g id="line2d_16">
      <g>
       <use style="stroke:#000000;stroke-width:0.8;" x="647.06843" xlink:href="#m8646ff4708" y="378"/>
      </g>
     </g>
     <g id="text_8">
      <!-- 1.4 -->
      <g transform="translate(639.116868 392.598437)scale(0.1 -0.1)">
       <use xlink:href="#DejaVuSans-49"/>
       <use x="63.623047" xlink:href="#DejaVuSans-46"/>
       <use x="95.410156" xlink:href="#DejaVuSans-52"/>
      </g>
     </g>
    </g>
    <g id="xtick_9">
     <g id="line2d_17">
      <path clip-path="url(#p4e33ed9fc6)" d="M 724.078206 378 
L 724.078206 51.84 
" style="fill:none;stroke:#b0b0b0;stroke-linecap:square;stroke-width:0.8;"/>
     </g>
     <g id="line2d_18">
      <g>
       <use style="stroke:#000000;stroke-width:0.8;" x="724.078206" xlink:href="#m8646ff4708" y="378"/>
      </g>
     </g>
     <g id="text_9">
      <!-- 1.6 -->
      <g transform="translate(716.126643 392.598437)scale(0.1 -0.1)">
       <use xlink:href="#DejaVuSans-49"/>
       <use x="63.623047" xlink:href="#DejaVuSans-46"/>
       <use x="95.410156" xlink:href="#DejaVuSans-54"/>
      </g>
     </g>
    </g>
    <g id="text_10">
     <!-- time (s) -->
     <g transform="translate(423.408594 406.276563)scale(0.1 -0.1)">
      <defs>
       <path d="M 18.3125 70.21875 
L 18.3125 54.6875 
L 36.8125 54.6875 
L 36.8125 47.703125 
L 18.3125 47.703125 
L 18.3125 18.015625 
Q 18.3125 11.328125 20.140625 9.421875 
Q 21.96875 7.515625 27.59375 7.515625 
L 36.8125 7.515625 
L 36.8125 0 
L 27.59375 0 
Q 17.1875 0 13.234375 3.875 
Q 9.28125 7.765625 9.28125 18.015625 
L 9.28125 47.703125 
L 2.6875 47.703125 
L 2.6875 54.6875 
L 9.28125 54.6875 
L 9.28125 70.21875 
z
" id="DejaVuSans-116"/>
       <path d="M 9.421875 54.6875 
L 18.40625 54.6875 
L 18.40625 0 
L 9.421875 0 
z
M 9.421875 75.984375 
L 18.40625 75.984375 
L 18.40625 64.59375 
L 9.421875 64.59375 
z
" id="DejaVuSans-105"/>
       <path d="M 52 44.1875 
Q 55.375 50.25 60.0625 53.125 
Q 64.75 56 71.09375 56 
Q 79.640625 56 84.28125 50.015625 
Q 88.921875 44.046875 88.921875 33.015625 
L 88.921875 0 
L 79.890625 0 
L 79.890625 32.71875 
Q 79.890625 40.578125 77.09375 44.375 
Q 74.3125 48.1875 68.609375 48.1875 
Q 61.625 48.1875 57.5625 43.546875 
Q 53.515625 38.921875 53.515625 30.90625 
L 53.515625 0 
L 44.484375 0 
L 44.484375 32.71875 
Q 44.484375 40.625 41.703125 44.40625 
Q 38.921875 48.1875 33.109375 48.1875 
Q 26.21875 48.1875 22.15625 43.53125 
Q 18.109375 38.875 18.109375 30.90625 
L 18.109375 0 
L 9.078125 0 
L 9.078125 54.6875 
L 18.109375 54.6875 
L 18.109375 46.1875 
Q 21.1875 51.21875 25.484375 53.609375 
Q 29.78125 56 35.6875 56 
Q 41.65625 56 45.828125 52.96875 
Q 50 49.953125 52 44.1875 
z
" id="DejaVuSans-109"/>
       <path d="M 56.203125 29.59375 
L 56.203125 25.203125 
L 14.890625 25.203125 
Q 15.484375 15.921875 20.484375 11.0625 
Q 25.484375 6.203125 34.421875 6.203125 
Q 39.59375 6.203125 44.453125 7.46875 
Q 49.3125 8.734375 54.109375 11.28125 
L 54.109375 2.78125 
Q 49.265625 0.734375 44.1875 -0.34375 
Q 39.109375 -1.421875 33.890625 -1.421875 
Q 20.796875 -1.421875 13.15625 6.1875 
Q 5.515625 13.8125 5.515625 26.8125 
Q 5.515625 40.234375 12.765625 48.109375 
Q 20.015625 56 32.328125 56 
Q 43.359375 56 49.78125 48.890625 
Q 56.203125 41.796875 56.203125 29.59375 
z
M 47.21875 32.234375 
Q 47.125 39.59375 43.09375 43.984375 
Q 39.0625 48.390625 32.421875 48.390625 
Q 24.90625 48.390625 20.390625 44.140625 
Q 15.875 39.890625 15.1875 32.171875 
z
" id="DejaVuSans-101"/>
       <path id="DejaVuSans-32"/>
       <path d="M 31 75.875 
Q 24.46875 64.65625 21.28125 53.65625 
Q 18.109375 42.671875 18.109375 31.390625 
Q 18.109375 20.125 21.3125 9.0625 
Q 24.515625 -2 31 -13.1875 
L 23.1875 -13.1875 
Q 15.875 -1.703125 12.234375 9.375 
Q 8.59375 20.453125 8.59375 31.390625 
Q 8.59375 42.28125 12.203125 53.3125 
Q 15.828125 64.359375 23.1875 75.875 
z
" id="DejaVuSans-40"/>
       <path d="M 44.28125 53.078125 
L 44.28125 44.578125 
Q 40.484375 46.53125 36.375 47.5 
Q 32.28125 48.484375 27.875 48.484375 
Q 21.1875 48.484375 17.84375 46.4375 
Q 14.5 44.390625 14.5 40.28125 
Q 14.5 37.15625 16.890625 35.375 
Q 19.28125 33.59375 26.515625 31.984375 
L 29.59375 31.296875 
Q 39.15625 29.25 43.1875 25.515625 
Q 47.21875 21.78125 47.21875 15.09375 
Q 47.21875 7.46875 41.1875 3.015625 
Q 35.15625 -1.421875 24.609375 -1.421875 
Q 20.21875 -1.421875 15.453125 -0.5625 
Q 10.6875 0.296875 5.421875 2 
L 5.421875 11.28125 
Q 10.40625 8.6875 15.234375 7.390625 
Q 20.0625 6.109375 24.8125 6.109375 
Q 31.15625 6.109375 34.5625 8.28125 
Q 37.984375 10.453125 37.984375 14.40625 
Q 37.984375 18.0625 35.515625 20.015625 
Q 33.0625 21.96875 24.703125 23.78125 
L 21.578125 24.515625 
Q 13.234375 26.265625 9.515625 29.90625 
Q 5.8125 33.546875 5.8125 39.890625 
Q 5.8125 47.609375 11.28125 51.796875 
Q 16.75 56 26.8125 56 
Q 31.78125 56 36.171875 55.265625 
Q 40.578125 54.546875 44.28125 53.078125 
z
" id="DejaVuSans-115"/>
       <path d="M 8.015625 75.875 
L 15.828125 75.875 
Q 23.140625 64.359375 26.78125 53.3125 
Q 30.421875 42.28125 30.421875 31.390625 
Q 30.421875 20.453125 26.78125 9.375 
Q 23.140625 -1.703125 15.828125 -13.1875 
L 8.015625 -13.1875 
Q 14.5 -2 17.703125 9.0625 
Q 20.90625 20.125 20.90625 31.390625 
Q 20.90625 42.671875 17.703125 53.65625 
Q 14.5 64.65625 8.015625 75.875 
z
" id="DejaVuSans-41"/>
      </defs>
      <use xlink:href="#DejaVuSans-116"/>
      <use x="39.208984" xlink:href="#DejaVuSans-105"/>
      <use x="66.992188" xlink:href="#DejaVuSans-109"/>
      <use x="164.404297" xlink:href="#DejaVuSans-101"/>
      <use x="225.927734" xlink:href="#DejaVuSans-32"/>
      <use x="257.714844" xlink:href="#DejaVuSans-40"/>
      <use x="296.728516" xlink:href="#DejaVuSans-115"/>
      <use x="348.828125" xlink:href="#DejaVuSans-41"/>
     </g>
    </g>
   </g>
   <g id="matplotlib.axis_2">
    <g id="ytick_1">
     <g id="line2d_19">
      <path clip-path="url(#p4e33ed9fc6)" d="M 108 378 
L 777.6 378 
" style="fill:none;stroke:#b0b0b0;stroke-linecap:square;stroke-width:0.8;"/>
     </g>
     <g id="line2d_20">
      <defs>
       <path d="M 0 0 
L -3.5 0 
" id="m3d2a334828" style="stroke:#000000;stroke-width:0.8;"/>
      </defs>
      <g>
       <use style="stroke:#000000;stroke-width:0.8;" x="108" xlink:href="#m3d2a334828" y="378"/>
      </g>
     </g>
     <g id="text_11">
      <!-- −15 -->
      <g transform="translate(79.895313 381.799219)scale(0.1 -0.1)">
       <defs>
        <path d="M 10.59375 35.5 
L 73.1875 35.5 
L 73.1875 27.203125 
L 10.59375 27.203125 
z
" id="DejaVuSans-8722"/>
        <path d="M 10.796875 72.90625 
L 49.515625 72.90625 
L 49.515625 64.59375 
L 19.828125 64.59375 
L 19.828125 46.734375 
Q 21.96875 47.46875 24.109375 47.828125 
Q 26.265625 48.1875 28.421875 48.1875 
Q 40.625 48.1875 47.75 41.5 
Q 54.890625 34.8125 54.890625 23.390625 
Q 54.890625 11.625 47.5625 5.09375 
Q 40.234375 -1.421875 26.90625 -1.421875 
Q 22.3125 -1.421875 17.546875 -0.640625 
Q 12.796875 0.140625 7.71875 1.703125 
L 7.71875 11.625 
Q 12.109375 9.234375 16.796875 8.0625 
Q 21.484375 6.890625 26.703125 6.890625 
Q 35.15625 6.890625 40.078125 11.328125 
Q 45.015625 15.765625 45.015625 23.390625 
Q 45.015625 31 40.078125 35.4375 
Q 35.15625 39.890625 26.703125 39.890625 
Q 22.75 39.890625 18.8125 39.015625 
Q 14.890625 38.140625 10.796875 36.28125 
z
" id="DejaVuSans-53"/>
       </defs>
       <use xlink:href="#DejaVuSans-8722"/>
       <use x="83.789062" xlink:href="#DejaVuSans-49"/>
       <use x="147.412109" xlink:href="#DejaVuSans-53"/>
      </g>
     </g>
    </g>
    <g id="ytick_2">
     <g id="line2d_21">
      <path clip-path="url(#p4e33ed9fc6)" d="M 108 323.64 
L 777.6 323.64 
" style="fill:none;stroke:#b0b0b0;stroke-linecap:square;stroke-width:0.8;"/>
     </g>
     <g id="line2d_22">
      <g>
       <use style="stroke:#000000;stroke-width:0.8;" x="108" xlink:href="#m3d2a334828" y="323.64"/>
      </g>
     </g>
     <g id="text_12">
      <!-- −10 -->
      <g transform="translate(79.895313 327.439219)scale(0.1 -0.1)">
       <use xlink:href="#DejaVuSans-8722"/>
       <use x="83.789062" xlink:href="#DejaVuSans-49"/>
       <use x="147.412109" xlink:href="#DejaVuSans-48"/>
      </g>
     </g>
    </g>
    <g id="ytick_3">
     <g id="line2d_23">
      <path clip-path="url(#p4e33ed9fc6)" d="M 108 269.28 
L 777.6 269.28 
" style="fill:none;stroke:#b0b0b0;stroke-linecap:square;stroke-width:0.8;"/>
     </g>
     <g id="line2d_24">
      <g>
       <use style="stroke:#000000;stroke-width:0.8;" x="108" xlink:href="#m3d2a334828" y="269.28"/>
      </g>
     </g>
     <g id="text_13">
      <!-- −5 -->
      <g transform="translate(86.257812 273.079219)scale(0.1 -0.1)">
       <use xlink:href="#DejaVuSans-8722"/>
       <use x="83.789062" xlink:href="#DejaVuSans-53"/>
      </g>
     </g>
    </g>
    <g id="ytick_4">
     <g id="line2d_25">
      <path clip-path="url(#p4e33ed9fc6)" d="M 108 214.92 
L 777.6 214.92 
" style="fill:none;stroke:#b0b0b0;stroke-linecap:square;stroke-width:0.8;"/>
     </g>
     <g id="line2d_26">
      <g>
       <use style="stroke:#000000;stroke-width:0.8;" x="108" xlink:href="#m3d2a334828" y="214.92"/>
      </g>
     </g>
     <g id="text_14">
      <!-- 0 -->
      <g transform="translate(94.6375 218.719219)scale(0.1 -0.1)">
       <use xlink:href="#DejaVuSans-48"/>
      </g>
     </g>
    </g>
    <g id="ytick_5">
     <g id="line2d_27">
      <path clip-path="url(#p4e33ed9fc6)" d="M 108 160.56 
L 777.6 160.56 
" style="fill:none;stroke:#b0b0b0;stroke-linecap:square;stroke-width:0.8;"/>
     </g>
     <g id="line2d_28">
      <g>
       <use style="stroke:#000000;stroke-width:0.8;" x="108" xlink:href="#m3d2a334828" y="160.56"/>
      </g>
     </g>
     <g id="text_15">
      <!-- 5 -->
      <g transform="translate(94.6375 164.359219)scale(0.1 -0.1)">
       <use xlink:href="#DejaVuSans-53"/>
      </g>
     </g>
    </g>
    <g id="ytick_6">
     <g id="line2d_29">
      <path clip-path="url(#p4e33ed9fc6)" d="M 108 106.2 
L 777.6 106.2 
" style="fill:none;stroke:#b0b0b0;stroke-linecap:square;stroke-width:0.8;"/>
     </g>
     <g id="line2d_30">
      <g>
       <use style="stroke:#000000;stroke-width:0.8;" x="108" xlink:href="#m3d2a334828" y="106.2"/>
      </g>
     </g>
     <g id="text_16">
      <!-- 10 -->
      <g transform="translate(88.275 109.999219)scale(0.1 -0.1)">
       <use xlink:href="#DejaVuSans-49"/>
       <use x="63.623047" xlink:href="#DejaVuSans-48"/>
      </g>
     </g>
    </g>
    <g id="ytick_7">
     <g id="line2d_31">
      <path clip-path="url(#p4e33ed9fc6)" d="M 108 51.84 
L 777.6 51.84 
" style="fill:none;stroke:#b0b0b0;stroke-linecap:square;stroke-width:0.8;"/>
     </g>
     <g id="line2d_32">
      <g>
       <use style="stroke:#000000;stroke-width:0.8;" x="108" xlink:href="#m3d2a334828" y="51.84"/>
      </g>
     </g>
     <g id="text_17">
      <!-- 15 -->
      <g transform="translate(88.275 55.639219)scale(0.1 -0.1)">
       <use xlink:href="#DejaVuSans-49"/>
       <use x="63.623047" xlink:href="#DejaVuSans-53"/>
      </g>
     </g>
    </g>
    <g id="text_18">
     <!-- a(t) -->
     <g transform="translate(73.815625 223.845781)rotate(-90)scale(0.1 -0.1)">
      <defs>
       <path d="M 34.28125 27.484375 
Q 23.390625 27.484375 19.1875 25 
Q 14.984375 22.515625 14.984375 16.5 
Q 14.984375 11.71875 18.140625 8.90625 
Q 21.296875 6.109375 26.703125 6.109375 
Q 34.1875 6.109375 38.703125 11.40625 
Q 43.21875 16.703125 43.21875 25.484375 
L 43.21875 27.484375 
z
M 52.203125 31.203125 
L 52.203125 0 
L 43.21875 0 
L 43.21875 8.296875 
Q 40.140625 3.328125 35.546875 0.953125 
Q 30.953125 -1.421875 24.3125 -1.421875 
Q 15.921875 -1.421875 10.953125 3.296875 
Q 6 8.015625 6 15.921875 
Q 6 25.140625 12.171875 29.828125 
Q 18.359375 34.515625 30.609375 34.515625 
L 43.21875 34.515625 
L 43.21875 35.40625 
Q 43.21875 41.609375 39.140625 45 
Q 35.0625 48.390625 27.6875 48.390625 
Q 23 48.390625 18.546875 47.265625 
Q 14.109375 46.140625 10.015625 43.890625 
L 10.015625 52.203125 
Q 14.9375 54.109375 19.578125 55.046875 
Q 24.21875 56 28.609375 56 
Q 40.484375 56 46.34375 49.84375 
Q 52.203125 43.703125 52.203125 31.203125 
z
" id="DejaVuSans-97"/>
      </defs>
      <use xlink:href="#DejaVuSans-97"/>
      <use x="61.279297" xlink:href="#DejaVuSans-40"/>
      <use x="100.292969" xlink:href="#DejaVuSans-116"/>
      <use x="139.501953" xlink:href="#DejaVuSans-41"/>
     </g>
    </g>
   </g>
   <g id="line2d_33">
    <path clip-path="url(#p4e33ed9fc6)" d="M 108 224.304423 
L 110.096603 109.738138 
L 111.144905 83.338194 
L 112.193207 76.997017 
L 113.241508 83.873063 
L 114.28981 96.854563 
L 115.338112 117.791603 
L 116.386413 128.497713 
L 117.434715 133.71367 
L 118.483017 132.074029 
L 119.531318 133.035199 
L 120.57962 139.371193 
L 122.676223 174.654355 
L 123.724525 165.499287 
L 124.772827 136.65359 
L 125.821128 115.396801 
L 126.86943 116.385703 
L 127.917732 140.785909 
L 128.966033 170.521083 
L 130.014335 191.683087 
L 131.062637 217.892486 
L 132.110938 233.967224 
L 133.15924 236.168309 
L 134.207542 230.061609 
L 135.255843 221.80855 
L 136.304145 225.062019 
L 137.352447 242.692558 
L 138.400748 276.117126 
L 139.44905 293.562512 
L 140.497352 287.77518 
L 141.545653 274.069156 
L 142.593955 262.639163 
L 143.642257 252.776608 
L 144.690558 245.569921 
L 145.73886 251.209905 
L 146.787162 266.984161 
L 148.883765 311.573122 
L 149.932067 310.389107 
L 150.980368 300.500527 
L 152.02867 285.045549 
L 153.076972 287.749997 
L 154.125274 293.476092 
L 155.173575 295.183585 
L 156.221877 279.768708 
L 160.415084 207.336496 
L 161.463385 194.220239 
L 162.511687 193.862459 
L 163.559989 203.890051 
L 164.60829 216.852107 
L 165.656592 224.685968 
L 166.704894 222.264843 
L 167.753195 206.225522 
L 168.801497 197.171333 
L 169.849799 195.088621 
L 170.8981 192.109405 
L 171.946402 180.475172 
L 172.994704 170.141973 
L 174.043005 168.866273 
L 175.091307 166.253342 
L 177.18791 139.393205 
L 178.236212 132.545217 
L 179.284514 136.728448 
L 180.332815 151.480437 
L 181.381117 164.186902 
L 182.429419 175.267387 
L 183.47772 174.339295 
L 184.526022 175.32239 
L 185.574324 180.91983 
L 186.622625 183.349457 
L 187.670927 183.95869 
L 188.719229 186.262632 
L 190.815832 204.162372 
L 191.864134 207.206921 
L 192.912435 202.357647 
L 193.960737 200.674857 
L 195.009039 202.144422 
L 196.05734 206.365847 
L 197.105642 212.410643 
L 198.153944 222.060288 
L 199.202245 229.530426 
L 200.250547 238.274809 
L 201.298849 252.189739 
L 202.34715 255.47997 
L 203.395452 254.22344 
L 204.443754 249.184475 
L 205.492055 249.295895 
L 206.540357 255.212921 
L 207.588659 257.380898 
L 208.63696 255.857817 
L 209.685262 252.863725 
L 212.830167 240.110091 
L 213.878469 241.846638 
L 214.92677 247.17607 
L 215.975072 253.136653 
L 217.023374 260.14696 
L 218.071675 260.469558 
L 219.119977 251.64579 
L 220.168279 241.649773 
L 221.21658 235.014202 
L 223.313184 225.65174 
L 224.361485 221.637799 
L 225.409787 219.995844 
L 226.458089 220.759367 
L 227.50639 218.692858 
L 230.651295 200.931878 
L 231.699597 194.392086 
L 232.747899 196.606022 
L 233.7962 200.402241 
L 234.844502 201.976347 
L 235.892804 198.489234 
L 237.989407 190.788713 
L 239.037709 184.872354 
L 240.086011 177.748068 
L 241.134312 177.888212 
L 243.230916 185.679448 
L 244.279217 186.045135 
L 245.327519 183.690287 
L 247.424122 175.447575 
L 248.472424 178.451088 
L 249.520726 189.241886 
L 250.569027 195.972821 
L 252.665631 203.516734 
L 253.713932 207.965464 
L 254.762234 208.714075 
L 255.810536 205.912724 
L 256.858837 205.84168 
L 257.907139 209.732664 
L 258.955441 214.335642 
L 260.003742 216.605803 
L 261.052044 218.425992 
L 262.100346 220.009081 
L 263.148647 219.039778 
L 264.196949 219.583455 
L 266.293552 228.898033 
L 267.341854 231.208493 
L 268.390156 232.934901 
L 269.438457 236.4604 
L 270.486759 240.621416 
L 271.535061 240.656108 
L 272.583362 237.146765 
L 273.631664 236.201417 
L 275.728267 237.910146 
L 276.776569 239.204258 
L 277.824871 240.136786 
L 278.873172 238.700949 
L 279.921474 235.103325 
L 280.969776 234.643395 
L 282.018077 234.935096 
L 283.066379 231.657367 
L 284.114681 229.923254 
L 285.162982 230.252176 
L 286.211284 230.910123 
L 287.259586 229.589479 
L 289.356189 222.893951 
L 290.404491 221.290958 
L 291.452792 219.18501 
L 292.501094 218.138869 
L 293.549396 219.359867 
L 294.597697 219.078551 
L 295.645999 215.199328 
L 296.694301 211.917397 
L 297.742602 209.042344 
L 298.790904 204.392523 
L 299.839206 199.0752 
L 300.887507 197.029054 
L 302.984111 195.842432 
L 304.032412 194.409803 
L 305.080714 190.944305 
L 306.129016 189.23926 
L 307.177317 188.487292 
L 308.225619 190.107594 
L 310.322222 197.030021 
L 311.370524 196.71202 
L 312.418826 196.108516 
L 313.467127 196.200565 
L 315.563731 192.412395 
L 316.612032 193.074347 
L 319.756937 203.185514 
L 320.805239 204.66513 
L 321.853541 206.474641 
L 323.950144 209.734221 
L 324.998446 212.587125 
L 326.046748 216.474061 
L 327.095049 217.650012 
L 328.143351 217.86269 
L 330.239954 224.238439 
L 331.288256 224.794108 
L 333.384859 227.230318 
L 334.433161 228.177868 
L 335.481463 228.917869 
L 336.529764 229.51386 
L 337.578066 230.386296 
L 339.674669 228.905286 
L 340.722971 230.14344 
L 341.771273 231.951463 
L 342.819574 232.872581 
L 343.867876 233.058546 
L 345.964479 236.304848 
L 347.012781 236.118786 
L 348.061083 234.551747 
L 349.109384 233.813097 
L 350.157686 233.290341 
L 351.205988 231.711786 
L 353.302591 227.514392 
L 354.350893 225.515831 
L 355.399194 223.095714 
L 356.447496 220.367643 
L 357.495798 219.628342 
L 358.544099 219.081847 
L 359.592401 217.525191 
L 360.640703 216.604071 
L 361.689004 216.841852 
L 362.737306 216.747352 
L 363.785608 215.217757 
L 364.833909 214.513854 
L 365.882211 212.323414 
L 369.027116 202.881009 
L 370.075418 200.592384 
L 371.123719 197.79531 
L 372.172021 193.88187 
L 373.220323 192.155238 
L 374.268624 191.359068 
L 375.316926 191.478606 
L 376.365228 191.879137 
L 377.413529 194.87606 
L 378.461831 196.978197 
L 379.510133 198.008461 
L 380.558434 199.220178 
L 381.606736 199.519896 
L 382.655038 198.792667 
L 383.703339 197.916044 
L 384.751641 198.091857 
L 386.848244 200.61444 
L 387.896546 201.180641 
L 388.944848 202.424348 
L 391.041451 206.656283 
L 392.089753 209.041068 
L 394.186356 214.63002 
L 395.234658 216.249995 
L 396.282959 218.12802 
L 397.331261 219.46305 
L 398.379563 220.348975 
L 399.427864 221.080473 
L 400.476166 222.521436 
L 401.524468 225.121052 
L 402.572769 227.361129 
L 403.621071 227.756347 
L 404.669373 227.635006 
L 405.717674 227.856168 
L 406.765976 227.330701 
L 407.814278 226.021905 
L 408.862579 226.087476 
L 410.959183 228.967501 
L 412.007485 230.262766 
L 413.055786 231.83478 
L 414.104088 232.77346 
L 415.15239 232.96987 
L 417.248993 232.211701 
L 418.297295 232.348581 
L 419.345596 231.800141 
L 420.393898 230.468271 
L 421.4422 229.711693 
L 422.490501 228.034402 
L 424.587105 222.597593 
L 426.683708 219.617983 
L 427.73201 217.685136 
L 428.780311 217.769843 
L 429.828613 218.405774 
L 430.876915 217.460546 
L 431.925216 216.259334 
L 432.973518 215.887944 
L 434.02182 216.357515 
L 435.070121 216.012767 
L 436.118423 213.270855 
L 437.166725 210.855335 
L 438.215026 209.018515 
L 439.263328 205.884409 
L 440.31163 203.192594 
L 441.359931 201.214922 
L 442.408233 197.787405 
L 443.456535 194.982211 
L 444.504836 193.936256 
L 445.553138 194.894506 
L 446.60144 196.196752 
L 447.649741 198.293018 
L 448.698043 200.119086 
L 449.746345 201.616311 
L 450.794646 202.370301 
L 451.842948 201.529176 
L 452.89125 200.999443 
L 454.987853 200.150533 
L 456.036155 200.372248 
L 457.084456 201.072278 
L 458.132758 202.109418 
L 459.18106 202.266133 
L 460.229361 203.172999 
L 461.277663 206.083747 
L 462.325965 208.384681 
L 463.374266 211.12533 
L 464.422568 214.506312 
L 465.47087 216.477277 
L 466.519171 217.68923 
L 467.567473 218.021841 
L 468.615775 218.086852 
L 469.664076 218.833201 
L 470.712378 219.331071 
L 471.76068 220.516737 
L 472.808981 222.016899 
L 473.857283 224.141909 
L 474.905585 224.736654 
L 475.953886 224.362616 
L 478.05049 224.061967 
L 479.098791 223.058533 
L 480.147093 222.907371 
L 481.195395 224.686473 
L 482.243696 226.784939 
L 483.291998 228.14286 
L 484.3403 228.929915 
L 485.388601 230.647957 
L 486.436903 230.999186 
L 489.581808 227.760691 
L 491.678411 227.085412 
L 492.726713 226.396079 
L 493.775015 225.97524 
L 494.823316 223.818789 
L 495.871618 221.18615 
L 496.91992 219.451618 
L 497.968222 218.618166 
L 499.016523 218.100477 
L 500.064825 218.21181 
L 501.113127 218.011123 
L 502.161428 218.16664 
L 503.20973 217.884004 
L 504.258032 218.018284 
L 505.306333 217.865975 
L 506.354635 217.284046 
L 507.402937 215.289598 
L 508.451238 212.95092 
L 510.547842 209.896265 
L 511.596143 206.9575 
L 512.644445 204.623514 
L 514.741048 201.487728 
L 515.78935 200.02223 
L 516.837652 199.274197 
L 517.885953 200.315487 
L 519.982557 203.087257 
L 521.030858 205.369484 
L 522.07916 206.935525 
L 523.127462 206.416486 
L 524.175763 205.390634 
L 525.224065 204.191065 
L 526.272367 203.356263 
L 527.320668 203.096598 
L 528.36897 203.236638 
L 529.417272 203.236638 
L 530.465573 203.760984 
L 532.562177 205.222383 
L 533.610478 206.666777 
L 535.707082 210.937849 
L 536.755383 213.754116 
L 537.803685 216.017693 
L 538.851987 216.967104 
L 539.900288 217.290024 
L 540.94859 217.292333 
L 541.996892 217.844271 
L 544.093495 218.000641 
L 545.141797 218.623608 
L 546.190098 219.061064 
L 547.2384 219.819587 
L 548.286702 220.783037 
L 549.335003 221.14642 
L 550.383305 221.05239 
L 552.479908 221.219094 
L 553.52821 222.000255 
L 554.576512 223.425243 
L 555.624813 224.251706 
L 556.673115 225.387208 
L 557.721417 226.30446 
L 558.769718 226.221927 
L 561.914623 224.836582 
L 564.011227 222.392713 
L 565.059528 221.92351 
L 566.10783 221.875355 
L 567.156132 221.706542 
L 568.204433 220.148698 
L 569.252735 219.049415 
L 570.301037 218.400529 
L 572.39764 217.549075 
L 574.494243 218.215805 
L 575.542545 218.288585 
L 576.590847 218.223678 
L 577.639148 217.980302 
L 578.68745 216.361805 
L 579.735752 215.333979 
L 580.784053 214.751452 
L 581.832355 213.757364 
L 582.880657 211.791412 
L 586.025562 208.024602 
L 587.073864 207.265805 
L 588.122165 205.995477 
L 589.170467 204.975046 
L 590.218769 205.357168 
L 591.26707 206.513472 
L 592.315372 207.460861 
L 593.363674 208.97166 
L 594.411975 209.761922 
L 595.460277 209.27895 
L 597.55688 209.051478 
L 598.605182 208.021278 
L 599.653484 207.223242 
L 600.701785 206.60698 
L 601.750087 206.450608 
L 602.798389 206.713749 
L 603.84669 207.519279 
L 605.943294 208.313613 
L 606.991595 209.354562 
L 609.088199 213.302215 
L 610.1365 214.546887 
L 612.233104 216.146625 
L 613.281405 216.654005 
L 614.329707 216.61902 
L 615.378009 215.755939 
L 616.42631 215.424397 
L 617.474612 215.310777 
L 618.522914 215.534976 
L 620.619517 216.513944 
L 621.667819 217.534839 
L 622.71612 217.801586 
L 623.764422 217.658982 
L 624.812724 218.529901 
L 625.861025 219.727395 
L 626.909327 219.664414 
L 629.00593 221.519426 
L 631.102534 222.542373 
L 632.150835 221.678134 
L 633.199137 221.434905 
L 634.247439 220.648829 
L 635.29574 220.399318 
L 637.392344 219.568161 
L 638.440645 219.428802 
L 639.488947 218.457406 
L 640.537249 218.174322 
L 641.58555 218.435971 
L 642.633852 218.158588 
L 643.682154 217.407614 
L 644.730455 217.890453 
L 645.778757 218.576015 
L 646.827059 218.682314 
L 647.87536 218.5546 
L 648.923662 218.11839 
L 649.971964 217.877875 
L 651.020265 217.09048 
L 653.116869 214.987246 
L 654.16517 214.443855 
L 655.213472 213.272929 
L 656.261774 212.362652 
L 657.310075 212.147951 
L 658.358377 211.747392 
L 659.406679 210.905198 
L 660.45498 210.590927 
L 662.551584 210.477268 
L 663.599885 210.649666 
L 664.648187 211.494165 
L 665.696489 212.076399 
L 666.74479 212.203396 
L 667.793092 212.011538 
L 668.841394 212.274769 
L 669.889696 211.863085 
L 671.986299 210.731189 
L 674.082902 210.28564 
L 675.131204 210.055462 
L 677.227807 210.30456 
L 678.276109 210.887781 
L 680.372712 211.575924 
L 681.421014 212.454501 
L 682.469316 213.497918 
L 683.517617 214.302254 
L 684.565919 214.781053 
L 685.614221 215.08555 
L 687.710824 214.554923 
L 688.759126 214.892141 
L 689.807427 214.598622 
L 692.952332 214.890571 
L 694.000634 215.453709 
L 698.193841 216.953942 
L 699.242142 217.042062 
L 700.290444 217.77373 
L 701.338746 217.976908 
L 702.387047 218.511423 
L 704.483651 218.741164 
L 705.531952 218.284643 
L 706.580254 218.342381 
L 708.676857 217.535108 
L 709.725159 217.396584 
L 710.773461 217.109841 
L 712.870064 217.24933 
L 713.918366 217.072327 
L 714.966667 217.235034 
L 716.014969 217.258828 
L 717.063271 217.598338 
L 718.111572 217.473717 
L 719.159874 217.117178 
L 720.208176 217.195158 
L 721.256477 217.46333 
L 722.304779 217.269628 
L 723.353081 216.419493 
L 724.401382 215.841761 
L 725.449684 215.551527 
L 726.497986 215.05705 
L 727.546287 214.801939 
L 728.594589 214.716727 
L 729.642891 214.189561 
L 730.691192 213.436183 
L 731.739494 214.000234 
L 732.787796 213.537421 
L 733.836097 213.637098 
L 738.029304 213.232116 
L 740.125907 213.363875 
L 742.222511 213.01073 
L 743.270812 213.024684 
L 745.367416 212.398329 
L 746.415717 212.22932 
L 747.464019 212.563774 
L 749.560622 212.34397 
L 752.705527 212.764561 
L 754.802131 213.696823 
L 755.850433 213.672289 
L 757.947036 214.401517 
L 758.995338 214.585087 
L 760.043639 214.502901 
L 762.140243 214.048128 
L 763.188544 214.666298 
L 764.236846 214.947504 
L 765.285148 214.67202 
L 768.430053 214.401264 
L 769.478354 215.84526 
L 770.526656 215.985154 
L 771.574958 215.576033 
L 772.623259 215.715338 
L 773.671561 216.229221 
L 774.719863 216.402346 
L 775.768164 215.934003 
L 775.768164 215.934003 
" style="fill:none;stroke:#1f77b4;stroke-linecap:square;stroke-width:1.5;"/>
   </g>
   <g id="line2d_34">
    <path clip-path="url(#p4e33ed9fc6)" d="M 108 140.19629 
L 109.048302 134.54355 
L 110.096603 129.799436 
L 111.144905 125.99703 
L 112.193207 123.159316 
L 113.241508 121.299116 
L 114.28981 120.419126 
L 115.338112 120.512057 
L 116.386413 121.560873 
L 117.434715 123.539126 
L 118.483017 126.411381 
L 119.531318 130.133722 
L 120.57962 134.654337 
L 121.627922 139.914179 
L 123.724525 152.383514 
L 125.821128 166.953154 
L 128.966033 191.305258 
L 134.207542 232.787444 
L 136.304145 247.751693 
L 138.400748 260.907555 
L 139.44905 266.656895 
L 140.497352 271.786455 
L 141.545653 276.254466 
L 142.593955 280.026559 
L 143.642257 283.07599 
L 144.690558 285.383789 
L 145.73886 286.938818 
L 146.787162 287.737759 
L 147.835463 287.785015 
L 148.883765 287.092542 
L 149.932067 285.679597 
L 150.980368 283.572426 
L 152.02867 280.803883 
L 153.076972 277.412984 
L 154.125274 273.444412 
L 156.221877 263.977982 
L 158.31848 252.853581 
L 161.463385 234.162558 
L 166.704894 202.108714 
L 168.801497 190.47544 
L 170.8981 180.20472 
L 172.994704 171.663983 
L 174.043005 168.13517 
L 175.091307 165.139186 
L 176.139609 162.697603 
L 177.18791 160.82601 
L 178.236212 159.53396 
L 179.284514 158.82497 
L 180.332815 158.696586 
L 181.381117 159.140505 
L 182.429419 160.142761 
L 183.47772 161.683952 
L 184.526022 163.739535 
L 185.574324 166.280154 
L 186.622625 169.272023 
L 188.719229 176.454716 
L 190.815832 184.945255 
L 193.960737 199.286959 
L 199.202245 224.048991 
L 201.298849 233.090021 
L 203.395452 241.105323 
L 205.492055 247.80692 
L 206.540357 250.591871 
L 207.588659 252.968996 
L 208.63696 254.920934 
L 209.685262 256.434922 
L 210.733564 257.502851 
L 211.781865 258.121269 
L 212.830167 258.291339 
L 213.878469 258.018753 
L 214.92677 257.313597 
L 215.975072 256.190177 
L 217.023374 254.666805 
L 218.071675 252.765546 
L 219.119977 250.51193 
L 221.21658 245.065172 
L 223.313184 238.587478 
L 225.409787 231.3726 
L 233.7962 201.437943 
L 235.892804 195.185068 
L 237.989407 189.929242 
L 239.037709 187.732927 
L 240.086011 185.848654 
L 241.134312 184.290371 
L 242.182614 183.068488 
L 243.230916 182.189833 
L 244.279217 181.65764 
L 245.327519 181.471574 
L 246.375821 181.627797 
L 247.424122 182.119064 
L 248.472424 182.93485 
L 249.520726 184.061514 
L 250.569027 185.482488 
L 251.617329 187.178493 
L 253.713932 191.306394 
L 255.810536 196.246408 
L 257.907139 201.773664 
L 266.293552 224.90436 
L 268.390156 229.780584 
L 270.486759 233.900517 
L 271.535061 235.63142 
L 272.583362 237.123651 
L 273.631664 238.366025 
L 274.679966 239.350075 
L 275.728267 240.070094 
L 276.776569 240.523148 
L 277.824871 240.709058 
L 278.873172 240.630358 
L 279.921474 240.292222 
L 280.969776 239.702371 
L 282.018077 238.870951 
L 283.066379 237.810388 
L 284.114681 236.535229 
L 286.211284 233.408784 
L 288.307887 229.643013 
L 290.404491 225.41 
L 298.790904 207.541389 
L 300.887507 203.740068 
L 302.984111 200.512078 
L 304.032412 199.148864 
L 305.080714 197.96814 
L 306.129016 196.978859 
L 307.177317 196.18789 
L 308.225619 195.599972 
L 309.273921 195.21771 
L 310.322222 195.041579 
L 311.370524 195.069954 
L 312.418826 195.299166 
L 313.467127 195.723568 
L 314.515429 196.335627 
L 315.563731 197.126033 
L 316.612032 198.083819 
L 318.708636 200.450241 
L 320.805239 203.319653 
L 322.901842 206.560412 
L 328.143351 215.343946 
L 331.288256 220.36046 
L 333.384859 223.322804 
L 335.481463 225.85078 
L 337.578066 227.857198 
L 338.626368 228.644026 
L 339.674669 229.278658 
L 340.722971 229.757178 
L 341.771273 230.077314 
L 342.819574 230.238438 
L 343.867876 230.241549 
L 344.916178 230.089227 
L 345.964479 229.785588 
L 347.012781 229.336215 
L 348.061083 228.748076 
L 350.157686 227.189723 
L 352.254289 225.19015 
L 354.350893 222.844069 
L 357.495798 218.907874 
L 362.737306 212.169964 
L 364.833909 209.728603 
L 366.930513 207.575654 
L 369.027116 205.788045 
L 371.123719 204.425523 
L 373.220323 203.528814 
L 374.268624 203.262402 
L 375.316926 203.118619 
L 376.365228 203.096897 
L 377.413529 203.195435 
L 379.510133 203.740203 
L 381.606736 204.715709 
L 383.703339 206.068679 
L 385.799943 207.732436 
L 388.944848 210.640482 
L 396.282959 217.854792 
L 398.379563 219.651999 
L 400.476166 221.200361 
L 402.572769 222.445913 
L 404.669373 223.348608 
L 406.765976 223.883473 
L 408.862579 224.041113 
L 410.959183 223.827578 
L 413.055786 223.263614 
L 415.15239 222.383349 
L 417.248993 221.232482 
L 420.393898 219.121189 
L 425.635406 215.110485 
L 428.780311 212.774068 
L 431.925216 210.743014 
L 434.02182 209.642644 
L 436.118423 208.79014 
L 438.215026 208.211577 
L 440.31163 207.921185 
L 442.408233 207.921162 
L 444.504836 208.201982 
L 446.60144 208.743162 
L 448.698043 209.514445 
L 450.794646 210.477332 
L 453.939551 212.181386 
L 463.374266 217.572665 
L 465.47087 218.519404 
L 467.567473 219.29065 
L 469.664076 219.861211 
L 471.76068 220.214777 
L 473.857283 220.34428 
L 475.953886 220.251874 
L 478.05049 219.948548 
L 480.147093 219.453393 
L 483.291998 218.409834 
L 486.436903 217.106055 
L 495.871618 212.937659 
L 499.016523 211.87655 
L 501.113127 211.344858 
L 503.20973 210.97407 
L 505.306333 210.773784 
L 507.402937 210.746445 
L 509.49954 210.887475 
L 512.644445 211.388602 
L 515.78935 212.180129 
L 519.982557 213.538531 
L 528.36897 216.399368 
L 531.513875 217.229315 
L 534.65878 217.812857 
L 537.803685 218.109992 
L 540.94859 218.108207 
L 544.093495 217.822249 
L 547.2384 217.291485 
L 551.431607 216.307532 
L 562.962925 213.366324 
L 566.10783 212.838102 
L 569.252735 212.521281 
L 572.39764 212.433792 
L 575.542545 212.572243 
L 578.68745 212.913262 
L 582.880657 213.611519 
L 597.55688 216.386085 
L 601.750087 216.761215 
L 604.894992 216.838158 
L 608.039897 216.740324 
L 612.233104 216.369783 
L 617.474612 215.63334 
L 627.957629 214.035979 
L 632.150835 213.627519 
L 636.344042 213.447391 
L 640.537249 213.509006 
L 644.730455 213.787132 
L 651.020265 214.478494 
L 661.503282 215.680953 
L 666.74479 216.003846 
L 670.937997 216.056391 
L 676.179506 215.870771 
L 682.469316 215.375517 
L 695.048936 214.277145 
L 700.290444 214.063589 
L 705.531952 214.072919 
L 711.821762 214.34654 
L 732.787796 215.5778 
L 739.077606 215.555646 
L 746.415717 215.265714 
L 763.188544 214.453637 
L 769.478354 214.402017 
L 775.768164 214.531419 
L 775.768164 214.531419 
" style="fill:none;stroke:#ff0000;stroke-dasharray:1.5,2.475;stroke-dashoffset:0;stroke-width:1.5;"/>
   </g>
   <g id="patch_3">
    <path d="M 108 378 
L 108 51.84 
" style="fill:none;stroke:#000000;stroke-linecap:square;stroke-linejoin:miter;stroke-width:0.8;"/>
   </g>
   <g id="patch_4">
    <path d="M 777.6 378 
L 777.6 51.84 
" style="fill:none;stroke:#000000;stroke-linecap:square;stroke-linejoin:miter;stroke-width:0.8;"/>
   </g>
   <g id="patch_5">
    <path d="M 108 378 
L 777.6 378 
" style="fill:none;stroke:#000000;stroke-linecap:square;stroke-linejoin:miter;stroke-width:0.8;"/>
   </g>
   <g id="patch_6">
    <path d="M 108 51.84 
L 777.6 51.84 
" style="fill:none;stroke:#000000;stroke-linecap:square;stroke-linejoin:miter;stroke-width:0.8;"/>
   </g>
   <g id="text_19">
    <!-- Medição 5 - Direção Y -->
    <g transform="translate(344.964375 45.84)scale(0.18 -0.18)">
     <defs>
      <path d="M 9.8125 72.90625 
L 24.515625 72.90625 
L 43.109375 23.296875 
L 61.8125 72.90625 
L 76.515625 72.90625 
L 76.515625 0 
L 66.890625 0 
L 66.890625 64.015625 
L 48.09375 14.015625 
L 38.1875 14.015625 
L 19.390625 64.015625 
L 19.390625 0 
L 9.8125 0 
z
" id="DejaVuSans-77"/>
      <path d="M 45.40625 46.390625 
L 45.40625 75.984375 
L 54.390625 75.984375 
L 54.390625 0 
L 45.40625 0 
L 45.40625 8.203125 
Q 42.578125 3.328125 38.25 0.953125 
Q 33.9375 -1.421875 27.875 -1.421875 
Q 17.96875 -1.421875 11.734375 6.484375 
Q 5.515625 14.40625 5.515625 27.296875 
Q 5.515625 40.1875 11.734375 48.09375 
Q 17.96875 56 27.875 56 
Q 33.9375 56 38.25 53.625 
Q 42.578125 51.265625 45.40625 46.390625 
z
M 14.796875 27.296875 
Q 14.796875 17.390625 18.875 11.75 
Q 22.953125 6.109375 30.078125 6.109375 
Q 37.203125 6.109375 41.296875 11.75 
Q 45.40625 17.390625 45.40625 27.296875 
Q 45.40625 37.203125 41.296875 42.84375 
Q 37.203125 48.484375 30.078125 48.484375 
Q 22.953125 48.484375 18.875 42.84375 
Q 14.796875 37.203125 14.796875 27.296875 
z
" id="DejaVuSans-100"/>
      <path d="M 48.78125 52.59375 
L 48.78125 44.1875 
Q 44.96875 46.296875 41.140625 47.34375 
Q 37.3125 48.390625 33.40625 48.390625 
Q 24.65625 48.390625 19.8125 42.84375 
Q 14.984375 37.3125 14.984375 27.296875 
Q 14.984375 17.28125 19.8125 11.734375 
Q 24.65625 6.203125 33.40625 6.203125 
Q 37.3125 6.203125 41.140625 7.25 
Q 44.96875 8.296875 48.78125 10.40625 
L 48.78125 2.09375 
Q 45.015625 0.34375 40.984375 -0.53125 
Q 36.96875 -1.421875 32.421875 -1.421875 
Q 20.0625 -1.421875 12.78125 6.34375 
Q 5.515625 14.109375 5.515625 27.296875 
Q 5.515625 40.671875 12.859375 48.328125 
Q 20.21875 56 33.015625 56 
Q 37.15625 56 41.109375 55.140625 
Q 45.0625 54.296875 48.78125 52.59375 
z
M 36.078125 0 
Q 38.765625 -3.03125 40.078125 -5.59375 
Q 41.40625 -8.15625 41.40625 -10.5 
Q 41.40625 -14.84375 38.46875 -17.0625 
Q 35.546875 -19.28125 29.78125 -19.28125 
Q 27.546875 -19.28125 25.421875 -18.984375 
Q 23.296875 -18.703125 21.1875 -18.109375 
L 21.1875 -11.71875 
Q 22.859375 -12.546875 24.65625 -12.90625 
Q 26.46875 -13.28125 28.765625 -13.28125 
Q 31.640625 -13.28125 33.109375 -12.109375 
Q 34.578125 -10.9375 34.578125 -8.6875 
Q 34.578125 -7.234375 33.515625 -5.109375 
Q 32.46875 -2.984375 30.28125 0 
z
" id="DejaVuSans-231"/>
      <path d="M 34.28125 27.484375 
Q 23.390625 27.484375 19.1875 25 
Q 14.984375 22.515625 14.984375 16.5 
Q 14.984375 11.71875 18.140625 8.90625 
Q 21.296875 6.109375 26.703125 6.109375 
Q 34.1875 6.109375 38.703125 11.40625 
Q 43.21875 16.703125 43.21875 25.484375 
L 43.21875 27.484375 
z
M 52.203125 31.203125 
L 52.203125 0 
L 43.21875 0 
L 43.21875 8.296875 
Q 40.140625 3.328125 35.546875 0.953125 
Q 30.953125 -1.421875 24.3125 -1.421875 
Q 15.921875 -1.421875 10.953125 3.296875 
Q 6 8.015625 6 15.921875 
Q 6 25.140625 12.171875 29.828125 
Q 18.359375 34.515625 30.609375 34.515625 
L 43.21875 34.515625 
L 43.21875 35.40625 
Q 43.21875 41.609375 39.140625 45 
Q 35.0625 48.390625 27.6875 48.390625 
Q 23 48.390625 18.546875 47.265625 
Q 14.109375 46.140625 10.015625 43.890625 
L 10.015625 52.203125 
Q 14.9375 54.109375 19.578125 55.046875 
Q 24.21875 56 28.609375 56 
Q 40.484375 56 46.34375 49.84375 
Q 52.203125 43.703125 52.203125 31.203125 
z
M 28.8125 66.890625 
L 26.03125 69.578125 
Q 24.953125 70.5625 24.140625 71.015625 
Q 23.34375 71.484375 22.703125 71.484375 
Q 20.84375 71.484375 19.96875 69.703125 
Q 19.09375 67.921875 19 63.921875 
L 12.890625 63.921875 
Q 12.984375 70.515625 15.46875 74.09375 
Q 17.96875 77.6875 22.40625 77.6875 
Q 24.265625 77.6875 25.828125 77 
Q 27.390625 76.3125 29.203125 74.703125 
L 31.984375 72.015625 
Q 33.0625 71.046875 33.859375 70.578125 
Q 34.671875 70.125 35.296875 70.125 
Q 37.15625 70.125 38.03125 71.90625 
Q 38.921875 73.6875 39.015625 77.6875 
L 45.125 77.6875 
Q 45.015625 71.09375 42.53125 67.5 
Q 40.046875 63.921875 35.59375 63.921875 
Q 33.734375 63.921875 32.171875 64.59375 
Q 30.609375 65.28125 28.8125 66.890625 
z
" id="DejaVuSans-227"/>
      <path d="M 30.609375 48.390625 
Q 23.390625 48.390625 19.1875 42.75 
Q 14.984375 37.109375 14.984375 27.296875 
Q 14.984375 17.484375 19.15625 11.84375 
Q 23.34375 6.203125 30.609375 6.203125 
Q 37.796875 6.203125 41.984375 11.859375 
Q 46.1875 17.53125 46.1875 27.296875 
Q 46.1875 37.015625 41.984375 42.703125 
Q 37.796875 48.390625 30.609375 48.390625 
z
M 30.609375 56 
Q 42.328125 56 49.015625 48.375 
Q 55.71875 40.765625 55.71875 27.296875 
Q 55.71875 13.875 49.015625 6.21875 
Q 42.328125 -1.421875 30.609375 -1.421875 
Q 18.84375 -1.421875 12.171875 6.21875 
Q 5.515625 13.875 5.515625 27.296875 
Q 5.515625 40.765625 12.171875 48.375 
Q 18.84375 56 30.609375 56 
z
" id="DejaVuSans-111"/>
      <path d="M 4.890625 31.390625 
L 31.203125 31.390625 
L 31.203125 23.390625 
L 4.890625 23.390625 
z
" id="DejaVuSans-45"/>
      <path d="M 19.671875 64.796875 
L 19.671875 8.109375 
L 31.59375 8.109375 
Q 46.6875 8.109375 53.6875 14.9375 
Q 60.6875 21.78125 60.6875 36.53125 
Q 60.6875 51.171875 53.6875 57.984375 
Q 46.6875 64.796875 31.59375 64.796875 
z
M 9.8125 72.90625 
L 30.078125 72.90625 
Q 51.265625 72.90625 61.171875 64.09375 
Q 71.09375 55.28125 71.09375 36.53125 
Q 71.09375 17.671875 61.125 8.828125 
Q 51.171875 0 30.078125 0 
L 9.8125 0 
z
" id="DejaVuSans-68"/>
      <path d="M 41.109375 46.296875 
Q 39.59375 47.171875 37.8125 47.578125 
Q 36.03125 48 33.890625 48 
Q 26.265625 48 22.1875 43.046875 
Q 18.109375 38.09375 18.109375 28.8125 
L 18.109375 0 
L 9.078125 0 
L 9.078125 54.6875 
L 18.109375 54.6875 
L 18.109375 46.1875 
Q 20.953125 51.171875 25.484375 53.578125 
Q 30.03125 56 36.53125 56 
Q 37.453125 56 38.578125 55.875 
Q 39.703125 55.765625 41.0625 55.515625 
z
" id="DejaVuSans-114"/>
      <path d="M -0.203125 72.90625 
L 10.40625 72.90625 
L 30.609375 42.921875 
L 50.6875 72.90625 
L 61.28125 72.90625 
L 35.5 34.71875 
L 35.5 0 
L 25.59375 0 
L 25.59375 34.71875 
z
" id="DejaVuSans-89"/>
     </defs>
     <use xlink:href="#DejaVuSans-77"/>
     <use x="86.279297" xlink:href="#DejaVuSans-101"/>
     <use x="147.802734" xlink:href="#DejaVuSans-100"/>
     <use x="211.279297" xlink:href="#DejaVuSans-105"/>
     <use x="239.0625" xlink:href="#DejaVuSans-231"/>
     <use x="294.042969" xlink:href="#DejaVuSans-227"/>
     <use x="355.322266" xlink:href="#DejaVuSans-111"/>
     <use x="416.503906" xlink:href="#DejaVuSans-32"/>
     <use x="448.291016" xlink:href="#DejaVuSans-53"/>
     <use x="511.914062" xlink:href="#DejaVuSans-32"/>
     <use x="543.701172" xlink:href="#DejaVuSans-45"/>
     <use x="579.785156" xlink:href="#DejaVuSans-32"/>
     <use x="611.572266" xlink:href="#DejaVuSans-68"/>
     <use x="688.574219" xlink:href="#DejaVuSans-105"/>
     <use x="716.357422" xlink:href="#DejaVuSans-114"/>
     <use x="755.220703" xlink:href="#DejaVuSans-101"/>
     <use x="816.744141" xlink:href="#DejaVuSans-231"/>
     <use x="871.724609" xlink:href="#DejaVuSans-227"/>
     <use x="933.003906" xlink:href="#DejaVuSans-111"/>
     <use x="994.185547" xlink:href="#DejaVuSans-32"/>
     <use x="1025.972656" xlink:href="#DejaVuSans-89"/>
    </g>
   </g>
   <g id="legend_1">
    <g id="patch_7">
     <path d="M 701.221875 89.19625 
L 770.6 89.19625 
Q 772.6 89.19625 772.6 87.19625 
L 772.6 58.84 
Q 772.6 56.84 770.6 56.84 
L 701.221875 56.84 
Q 699.221875 56.84 699.221875 58.84 
L 699.221875 87.19625 
Q 699.221875 89.19625 701.221875 89.19625 
z
" style="fill:#ffffff;opacity:0.8;stroke:#cccccc;stroke-linejoin:miter;"/>
    </g>
    <g id="line2d_35">
     <path d="M 703.221875 64.938437 
L 723.221875 64.938437 
" style="fill:none;stroke:#1f77b4;stroke-linecap:square;stroke-width:1.5;"/>
    </g>
    <g id="line2d_36"/>
    <g id="text_20">
     <!-- original -->
     <g transform="translate(731.221875 68.438437)scale(0.1 -0.1)">
      <defs>
       <path d="M 45.40625 27.984375 
Q 45.40625 37.75 41.375 43.109375 
Q 37.359375 48.484375 30.078125 48.484375 
Q 22.859375 48.484375 18.828125 43.109375 
Q 14.796875 37.75 14.796875 27.984375 
Q 14.796875 18.265625 18.828125 12.890625 
Q 22.859375 7.515625 30.078125 7.515625 
Q 37.359375 7.515625 41.375 12.890625 
Q 45.40625 18.265625 45.40625 27.984375 
z
M 54.390625 6.78125 
Q 54.390625 -7.171875 48.1875 -13.984375 
Q 42 -20.796875 29.203125 -20.796875 
Q 24.46875 -20.796875 20.265625 -20.09375 
Q 16.0625 -19.390625 12.109375 -17.921875 
L 12.109375 -9.1875 
Q 16.0625 -11.328125 19.921875 -12.34375 
Q 23.78125 -13.375 27.78125 -13.375 
Q 36.625 -13.375 41.015625 -8.765625 
Q 45.40625 -4.15625 45.40625 5.171875 
L 45.40625 9.625 
Q 42.625 4.78125 38.28125 2.390625 
Q 33.9375 0 27.875 0 
Q 17.828125 0 11.671875 7.65625 
Q 5.515625 15.328125 5.515625 27.984375 
Q 5.515625 40.671875 11.671875 48.328125 
Q 17.828125 56 27.875 56 
Q 33.9375 56 38.28125 53.609375 
Q 42.625 51.21875 45.40625 46.390625 
L 45.40625 54.6875 
L 54.390625 54.6875 
z
" id="DejaVuSans-103"/>
       <path d="M 54.890625 33.015625 
L 54.890625 0 
L 45.90625 0 
L 45.90625 32.71875 
Q 45.90625 40.484375 42.875 44.328125 
Q 39.84375 48.1875 33.796875 48.1875 
Q 26.515625 48.1875 22.3125 43.546875 
Q 18.109375 38.921875 18.109375 30.90625 
L 18.109375 0 
L 9.078125 0 
L 9.078125 54.6875 
L 18.109375 54.6875 
L 18.109375 46.1875 
Q 21.34375 51.125 25.703125 53.5625 
Q 30.078125 56 35.796875 56 
Q 45.21875 56 50.046875 50.171875 
Q 54.890625 44.34375 54.890625 33.015625 
z
" id="DejaVuSans-110"/>
       <path d="M 9.421875 75.984375 
L 18.40625 75.984375 
L 18.40625 0 
L 9.421875 0 
z
" id="DejaVuSans-108"/>
      </defs>
      <use xlink:href="#DejaVuSans-111"/>
      <use x="61.181641" xlink:href="#DejaVuSans-114"/>
      <use x="102.294922" xlink:href="#DejaVuSans-105"/>
      <use x="130.078125" xlink:href="#DejaVuSans-103"/>
      <use x="193.554688" xlink:href="#DejaVuSans-105"/>
      <use x="221.337891" xlink:href="#DejaVuSans-110"/>
      <use x="284.716797" xlink:href="#DejaVuSans-97"/>
      <use x="345.996094" xlink:href="#DejaVuSans-108"/>
     </g>
    </g>
    <g id="line2d_37">
     <path d="M 703.221875 79.616562 
L 723.221875 79.616562 
" style="fill:none;stroke:#ff0000;stroke-dasharray:1.5,2.475;stroke-dashoffset:0;stroke-width:1.5;"/>
    </g>
    <g id="line2d_38"/>
    <g id="text_21">
     <!-- fitted -->
     <g transform="translate(731.221875 83.116562)scale(0.1 -0.1)">
      <defs>
       <path d="M 37.109375 75.984375 
L 37.109375 68.5 
L 28.515625 68.5 
Q 23.6875 68.5 21.796875 66.546875 
Q 19.921875 64.59375 19.921875 59.515625 
L 19.921875 54.6875 
L 34.71875 54.6875 
L 34.71875 47.703125 
L 19.921875 47.703125 
L 19.921875 0 
L 10.890625 0 
L 10.890625 47.703125 
L 2.296875 47.703125 
L 2.296875 54.6875 
L 10.890625 54.6875 
L 10.890625 58.5 
Q 10.890625 67.625 15.140625 71.796875 
Q 19.390625 75.984375 28.609375 75.984375 
z
" id="DejaVuSans-102"/>
      </defs>
      <use xlink:href="#DejaVuSans-102"/>
      <use x="35.205078" xlink:href="#DejaVuSans-105"/>
      <use x="62.988281" xlink:href="#DejaVuSans-116"/>
      <use x="102.197266" xlink:href="#DejaVuSans-116"/>
      <use x="141.40625" xlink:href="#DejaVuSans-101"/>
      <use x="202.929688" xlink:href="#DejaVuSans-100"/>
     </g>
    </g>
   </g>
  </g>
 </g>
 <defs>
  <clipPath id="p4e33ed9fc6">
   <rect height="326.16" width="669.6" x="108" y="51.84"/>
  </clipPath>
 </defs>
</svg>
