<?xml version="1.0" encoding="utf-8" standalone="no"?>
<!DOCTYPE svg PUBLIC "-//W3C//DTD SVG 1.1//EN"
  "http://www.w3.org/Graphics/SVG/1.1/DTD/svg11.dtd">
<!-- Created with matplotlib (https://matplotlib.org/) -->
<svg height="432pt" version="1.1" viewBox="0 0 864 432" width="864pt" xmlns="http://www.w3.org/2000/svg" xmlns:xlink="http://www.w3.org/1999/xlink">
 <metadata>
  <rdf:RDF xmlns:cc="http://creativecommons.org/ns#" xmlns:dc="http://purl.org/dc/elements/1.1/" xmlns:rdf="http://www.w3.org/1999/02/22-rdf-syntax-ns#">
   <cc:Work>
    <dc:type rdf:resource="http://purl.org/dc/dcmitype/StillImage"/>
    <dc:date>2021-11-25T23:56:16.529331</dc:date>
    <dc:format>image/svg+xml</dc:format>
    <dc:creator>
     <cc:Agent>
      <dc:title>Matplotlib v3.3.2, https://matplotlib.org/</dc:title>
     </cc:Agent>
    </dc:creator>
   </cc:Work>
  </rdf:RDF>
 </metadata>
 <defs>
  <style type="text/css">*{stroke-linecap:butt;stroke-linejoin:round;}</style>
 </defs>
 <g id="figure_1">
  <g id="patch_1">
   <path d="M 0 432 
L 864 432 
L 864 0 
L 0 0 
z
" style="fill:none;"/>
  </g>
  <g id="axes_1">
   <g id="patch_2">
    <path d="M 108 378 
L 777.6 378 
L 777.6 51.84 
L 108 51.84 
z
" style="fill:#ffffff;"/>
   </g>
   <g id="matplotlib.axis_1">
    <g id="xtick_1">
     <g id="line2d_1">
      <path clip-path="url(#p60ee62338a)" d="M 108 378 
L 108 51.84 
" style="fill:none;stroke:#b0b0b0;stroke-linecap:square;stroke-width:0.8;"/>
     </g>
     <g id="line2d_2">
      <defs>
       <path d="M 0 0 
L 0 3.5 
" id="m3d2b024a68" style="stroke:#000000;stroke-width:0.8;"/>
      </defs>
      <g>
       <use style="stroke:#000000;stroke-width:0.8;" x="108" xlink:href="#m3d2b024a68" y="378"/>
      </g>
     </g>
     <g id="text_1">
      <!-- 0.0 -->
      <g transform="translate(100.048438 392.598437)scale(0.1 -0.1)">
       <defs>
        <path d="M 31.78125 66.40625 
Q 24.171875 66.40625 20.328125 58.90625 
Q 16.5 51.421875 16.5 36.375 
Q 16.5 21.390625 20.328125 13.890625 
Q 24.171875 6.390625 31.78125 6.390625 
Q 39.453125 6.390625 43.28125 13.890625 
Q 47.125 21.390625 47.125 36.375 
Q 47.125 51.421875 43.28125 58.90625 
Q 39.453125 66.40625 31.78125 66.40625 
z
M 31.78125 74.21875 
Q 44.046875 74.21875 50.515625 64.515625 
Q 56.984375 54.828125 56.984375 36.375 
Q 56.984375 17.96875 50.515625 8.265625 
Q 44.046875 -1.421875 31.78125 -1.421875 
Q 19.53125 -1.421875 13.0625 8.265625 
Q 6.59375 17.96875 6.59375 36.375 
Q 6.59375 54.828125 13.0625 64.515625 
Q 19.53125 74.21875 31.78125 74.21875 
z
" id="DejaVuSans-48"/>
        <path d="M 10.6875 12.40625 
L 21 12.40625 
L 21 0 
L 10.6875 0 
z
" id="DejaVuSans-46"/>
       </defs>
       <use xlink:href="#DejaVuSans-48"/>
       <use x="63.623047" xlink:href="#DejaVuSans-46"/>
       <use x="95.410156" xlink:href="#DejaVuSans-48"/>
      </g>
     </g>
    </g>
    <g id="xtick_2">
     <g id="line2d_3">
      <path clip-path="url(#p60ee62338a)" d="M 182.482759 378 
L 182.482759 51.84 
" style="fill:none;stroke:#b0b0b0;stroke-linecap:square;stroke-width:0.8;"/>
     </g>
     <g id="line2d_4">
      <g>
       <use style="stroke:#000000;stroke-width:0.8;" x="182.482759" xlink:href="#m3d2b024a68" y="378"/>
      </g>
     </g>
     <g id="text_2">
      <!-- 0.2 -->
      <g transform="translate(174.531196 392.598437)scale(0.1 -0.1)">
       <defs>
        <path d="M 19.1875 8.296875 
L 53.609375 8.296875 
L 53.609375 0 
L 7.328125 0 
L 7.328125 8.296875 
Q 12.9375 14.109375 22.625 23.890625 
Q 32.328125 33.6875 34.8125 36.53125 
Q 39.546875 41.84375 41.421875 45.53125 
Q 43.3125 49.21875 43.3125 52.78125 
Q 43.3125 58.59375 39.234375 62.25 
Q 35.15625 65.921875 28.609375 65.921875 
Q 23.96875 65.921875 18.8125 64.3125 
Q 13.671875 62.703125 7.8125 59.421875 
L 7.8125 69.390625 
Q 13.765625 71.78125 18.9375 73 
Q 24.125 74.21875 28.421875 74.21875 
Q 39.75 74.21875 46.484375 68.546875 
Q 53.21875 62.890625 53.21875 53.421875 
Q 53.21875 48.921875 51.53125 44.890625 
Q 49.859375 40.875 45.40625 35.40625 
Q 44.1875 33.984375 37.640625 27.21875 
Q 31.109375 20.453125 19.1875 8.296875 
z
" id="DejaVuSans-50"/>
       </defs>
       <use xlink:href="#DejaVuSans-48"/>
       <use x="63.623047" xlink:href="#DejaVuSans-46"/>
       <use x="95.410156" xlink:href="#DejaVuSans-50"/>
      </g>
     </g>
    </g>
    <g id="xtick_3">
     <g id="line2d_5">
      <path clip-path="url(#p60ee62338a)" d="M 256.965517 378 
L 256.965517 51.84 
" style="fill:none;stroke:#b0b0b0;stroke-linecap:square;stroke-width:0.8;"/>
     </g>
     <g id="line2d_6">
      <g>
       <use style="stroke:#000000;stroke-width:0.8;" x="256.965517" xlink:href="#m3d2b024a68" y="378"/>
      </g>
     </g>
     <g id="text_3">
      <!-- 0.4 -->
      <g transform="translate(249.013955 392.598437)scale(0.1 -0.1)">
       <defs>
        <path d="M 37.796875 64.3125 
L 12.890625 25.390625 
L 37.796875 25.390625 
z
M 35.203125 72.90625 
L 47.609375 72.90625 
L 47.609375 25.390625 
L 58.015625 25.390625 
L 58.015625 17.1875 
L 47.609375 17.1875 
L 47.609375 0 
L 37.796875 0 
L 37.796875 17.1875 
L 4.890625 17.1875 
L 4.890625 26.703125 
z
" id="DejaVuSans-52"/>
       </defs>
       <use xlink:href="#DejaVuSans-48"/>
       <use x="63.623047" xlink:href="#DejaVuSans-46"/>
       <use x="95.410156" xlink:href="#DejaVuSans-52"/>
      </g>
     </g>
    </g>
    <g id="xtick_4">
     <g id="line2d_7">
      <path clip-path="url(#p60ee62338a)" d="M 331.448276 378 
L 331.448276 51.84 
" style="fill:none;stroke:#b0b0b0;stroke-linecap:square;stroke-width:0.8;"/>
     </g>
     <g id="line2d_8">
      <g>
       <use style="stroke:#000000;stroke-width:0.8;" x="331.448276" xlink:href="#m3d2b024a68" y="378"/>
      </g>
     </g>
     <g id="text_4">
      <!-- 0.6 -->
      <g transform="translate(323.496713 392.598437)scale(0.1 -0.1)">
       <defs>
        <path d="M 33.015625 40.375 
Q 26.375 40.375 22.484375 35.828125 
Q 18.609375 31.296875 18.609375 23.390625 
Q 18.609375 15.53125 22.484375 10.953125 
Q 26.375 6.390625 33.015625 6.390625 
Q 39.65625 6.390625 43.53125 10.953125 
Q 47.40625 15.53125 47.40625 23.390625 
Q 47.40625 31.296875 43.53125 35.828125 
Q 39.65625 40.375 33.015625 40.375 
z
M 52.59375 71.296875 
L 52.59375 62.3125 
Q 48.875 64.0625 45.09375 64.984375 
Q 41.3125 65.921875 37.59375 65.921875 
Q 27.828125 65.921875 22.671875 59.328125 
Q 17.53125 52.734375 16.796875 39.40625 
Q 19.671875 43.65625 24.015625 45.921875 
Q 28.375 48.1875 33.59375 48.1875 
Q 44.578125 48.1875 50.953125 41.515625 
Q 57.328125 34.859375 57.328125 23.390625 
Q 57.328125 12.15625 50.6875 5.359375 
Q 44.046875 -1.421875 33.015625 -1.421875 
Q 20.359375 -1.421875 13.671875 8.265625 
Q 6.984375 17.96875 6.984375 36.375 
Q 6.984375 53.65625 15.1875 63.9375 
Q 23.390625 74.21875 37.203125 74.21875 
Q 40.921875 74.21875 44.703125 73.484375 
Q 48.484375 72.75 52.59375 71.296875 
z
" id="DejaVuSans-54"/>
       </defs>
       <use xlink:href="#DejaVuSans-48"/>
       <use x="63.623047" xlink:href="#DejaVuSans-46"/>
       <use x="95.410156" xlink:href="#DejaVuSans-54"/>
      </g>
     </g>
    </g>
    <g id="xtick_5">
     <g id="line2d_9">
      <path clip-path="url(#p60ee62338a)" d="M 405.931034 378 
L 405.931034 51.84 
" style="fill:none;stroke:#b0b0b0;stroke-linecap:square;stroke-width:0.8;"/>
     </g>
     <g id="line2d_10">
      <g>
       <use style="stroke:#000000;stroke-width:0.8;" x="405.931034" xlink:href="#m3d2b024a68" y="378"/>
      </g>
     </g>
     <g id="text_5">
      <!-- 0.8 -->
      <g transform="translate(397.979472 392.598437)scale(0.1 -0.1)">
       <defs>
        <path d="M 31.78125 34.625 
Q 24.75 34.625 20.71875 30.859375 
Q 16.703125 27.09375 16.703125 20.515625 
Q 16.703125 13.921875 20.71875 10.15625 
Q 24.75 6.390625 31.78125 6.390625 
Q 38.8125 6.390625 42.859375 10.171875 
Q 46.921875 13.96875 46.921875 20.515625 
Q 46.921875 27.09375 42.890625 30.859375 
Q 38.875 34.625 31.78125 34.625 
z
M 21.921875 38.8125 
Q 15.578125 40.375 12.03125 44.71875 
Q 8.5 49.078125 8.5 55.328125 
Q 8.5 64.0625 14.71875 69.140625 
Q 20.953125 74.21875 31.78125 74.21875 
Q 42.671875 74.21875 48.875 69.140625 
Q 55.078125 64.0625 55.078125 55.328125 
Q 55.078125 49.078125 51.53125 44.71875 
Q 48 40.375 41.703125 38.8125 
Q 48.828125 37.15625 52.796875 32.3125 
Q 56.78125 27.484375 56.78125 20.515625 
Q 56.78125 9.90625 50.3125 4.234375 
Q 43.84375 -1.421875 31.78125 -1.421875 
Q 19.734375 -1.421875 13.25 4.234375 
Q 6.78125 9.90625 6.78125 20.515625 
Q 6.78125 27.484375 10.78125 32.3125 
Q 14.796875 37.15625 21.921875 38.8125 
z
M 18.3125 54.390625 
Q 18.3125 48.734375 21.84375 45.5625 
Q 25.390625 42.390625 31.78125 42.390625 
Q 38.140625 42.390625 41.71875 45.5625 
Q 45.3125 48.734375 45.3125 54.390625 
Q 45.3125 60.0625 41.71875 63.234375 
Q 38.140625 66.40625 31.78125 66.40625 
Q 25.390625 66.40625 21.84375 63.234375 
Q 18.3125 60.0625 18.3125 54.390625 
z
" id="DejaVuSans-56"/>
       </defs>
       <use xlink:href="#DejaVuSans-48"/>
       <use x="63.623047" xlink:href="#DejaVuSans-46"/>
       <use x="95.410156" xlink:href="#DejaVuSans-56"/>
      </g>
     </g>
    </g>
    <g id="xtick_6">
     <g id="line2d_11">
      <path clip-path="url(#p60ee62338a)" d="M 480.413793 378 
L 480.413793 51.84 
" style="fill:none;stroke:#b0b0b0;stroke-linecap:square;stroke-width:0.8;"/>
     </g>
     <g id="line2d_12">
      <g>
       <use style="stroke:#000000;stroke-width:0.8;" x="480.413793" xlink:href="#m3d2b024a68" y="378"/>
      </g>
     </g>
     <g id="text_6">
      <!-- 1.0 -->
      <g transform="translate(472.462231 392.598437)scale(0.1 -0.1)">
       <defs>
        <path d="M 12.40625 8.296875 
L 28.515625 8.296875 
L 28.515625 63.921875 
L 10.984375 60.40625 
L 10.984375 69.390625 
L 28.421875 72.90625 
L 38.28125 72.90625 
L 38.28125 8.296875 
L 54.390625 8.296875 
L 54.390625 0 
L 12.40625 0 
z
" id="DejaVuSans-49"/>
       </defs>
       <use xlink:href="#DejaVuSans-49"/>
       <use x="63.623047" xlink:href="#DejaVuSans-46"/>
       <use x="95.410156" xlink:href="#DejaVuSans-48"/>
      </g>
     </g>
    </g>
    <g id="xtick_7">
     <g id="line2d_13">
      <path clip-path="url(#p60ee62338a)" d="M 554.896552 378 
L 554.896552 51.84 
" style="fill:none;stroke:#b0b0b0;stroke-linecap:square;stroke-width:0.8;"/>
     </g>
     <g id="line2d_14">
      <g>
       <use style="stroke:#000000;stroke-width:0.8;" x="554.896552" xlink:href="#m3d2b024a68" y="378"/>
      </g>
     </g>
     <g id="text_7">
      <!-- 1.2 -->
      <g transform="translate(546.944989 392.598437)scale(0.1 -0.1)">
       <use xlink:href="#DejaVuSans-49"/>
       <use x="63.623047" xlink:href="#DejaVuSans-46"/>
       <use x="95.410156" xlink:href="#DejaVuSans-50"/>
      </g>
     </g>
    </g>
    <g id="xtick_8">
     <g id="line2d_15">
      <path clip-path="url(#p60ee62338a)" d="M 629.37931 378 
L 629.37931 51.84 
" style="fill:none;stroke:#b0b0b0;stroke-linecap:square;stroke-width:0.8;"/>
     </g>
     <g id="line2d_16">
      <g>
       <use style="stroke:#000000;stroke-width:0.8;" x="629.37931" xlink:href="#m3d2b024a68" y="378"/>
      </g>
     </g>
     <g id="text_8">
      <!-- 1.4 -->
      <g transform="translate(621.427748 392.598437)scale(0.1 -0.1)">
       <use xlink:href="#DejaVuSans-49"/>
       <use x="63.623047" xlink:href="#DejaVuSans-46"/>
       <use x="95.410156" xlink:href="#DejaVuSans-52"/>
      </g>
     </g>
    </g>
    <g id="xtick_9">
     <g id="line2d_17">
      <path clip-path="url(#p60ee62338a)" d="M 703.862069 378 
L 703.862069 51.84 
" style="fill:none;stroke:#b0b0b0;stroke-linecap:square;stroke-width:0.8;"/>
     </g>
     <g id="line2d_18">
      <g>
       <use style="stroke:#000000;stroke-width:0.8;" x="703.862069" xlink:href="#m3d2b024a68" y="378"/>
      </g>
     </g>
     <g id="text_9">
      <!-- 1.6 -->
      <g transform="translate(695.910506 392.598437)scale(0.1 -0.1)">
       <use xlink:href="#DejaVuSans-49"/>
       <use x="63.623047" xlink:href="#DejaVuSans-46"/>
       <use x="95.410156" xlink:href="#DejaVuSans-54"/>
      </g>
     </g>
    </g>
    <g id="text_10">
     <!-- time (s) -->
     <g transform="translate(423.408594 406.276563)scale(0.1 -0.1)">
      <defs>
       <path d="M 18.3125 70.21875 
L 18.3125 54.6875 
L 36.8125 54.6875 
L 36.8125 47.703125 
L 18.3125 47.703125 
L 18.3125 18.015625 
Q 18.3125 11.328125 20.140625 9.421875 
Q 21.96875 7.515625 27.59375 7.515625 
L 36.8125 7.515625 
L 36.8125 0 
L 27.59375 0 
Q 17.1875 0 13.234375 3.875 
Q 9.28125 7.765625 9.28125 18.015625 
L 9.28125 47.703125 
L 2.6875 47.703125 
L 2.6875 54.6875 
L 9.28125 54.6875 
L 9.28125 70.21875 
z
" id="DejaVuSans-116"/>
       <path d="M 9.421875 54.6875 
L 18.40625 54.6875 
L 18.40625 0 
L 9.421875 0 
z
M 9.421875 75.984375 
L 18.40625 75.984375 
L 18.40625 64.59375 
L 9.421875 64.59375 
z
" id="DejaVuSans-105"/>
       <path d="M 52 44.1875 
Q 55.375 50.25 60.0625 53.125 
Q 64.75 56 71.09375 56 
Q 79.640625 56 84.28125 50.015625 
Q 88.921875 44.046875 88.921875 33.015625 
L 88.921875 0 
L 79.890625 0 
L 79.890625 32.71875 
Q 79.890625 40.578125 77.09375 44.375 
Q 74.3125 48.1875 68.609375 48.1875 
Q 61.625 48.1875 57.5625 43.546875 
Q 53.515625 38.921875 53.515625 30.90625 
L 53.515625 0 
L 44.484375 0 
L 44.484375 32.71875 
Q 44.484375 40.625 41.703125 44.40625 
Q 38.921875 48.1875 33.109375 48.1875 
Q 26.21875 48.1875 22.15625 43.53125 
Q 18.109375 38.875 18.109375 30.90625 
L 18.109375 0 
L 9.078125 0 
L 9.078125 54.6875 
L 18.109375 54.6875 
L 18.109375 46.1875 
Q 21.1875 51.21875 25.484375 53.609375 
Q 29.78125 56 35.6875 56 
Q 41.65625 56 45.828125 52.96875 
Q 50 49.953125 52 44.1875 
z
" id="DejaVuSans-109"/>
       <path d="M 56.203125 29.59375 
L 56.203125 25.203125 
L 14.890625 25.203125 
Q 15.484375 15.921875 20.484375 11.0625 
Q 25.484375 6.203125 34.421875 6.203125 
Q 39.59375 6.203125 44.453125 7.46875 
Q 49.3125 8.734375 54.109375 11.28125 
L 54.109375 2.78125 
Q 49.265625 0.734375 44.1875 -0.34375 
Q 39.109375 -1.421875 33.890625 -1.421875 
Q 20.796875 -1.421875 13.15625 6.1875 
Q 5.515625 13.8125 5.515625 26.8125 
Q 5.515625 40.234375 12.765625 48.109375 
Q 20.015625 56 32.328125 56 
Q 43.359375 56 49.78125 48.890625 
Q 56.203125 41.796875 56.203125 29.59375 
z
M 47.21875 32.234375 
Q 47.125 39.59375 43.09375 43.984375 
Q 39.0625 48.390625 32.421875 48.390625 
Q 24.90625 48.390625 20.390625 44.140625 
Q 15.875 39.890625 15.1875 32.171875 
z
" id="DejaVuSans-101"/>
       <path id="DejaVuSans-32"/>
       <path d="M 31 75.875 
Q 24.46875 64.65625 21.28125 53.65625 
Q 18.109375 42.671875 18.109375 31.390625 
Q 18.109375 20.125 21.3125 9.0625 
Q 24.515625 -2 31 -13.1875 
L 23.1875 -13.1875 
Q 15.875 -1.703125 12.234375 9.375 
Q 8.59375 20.453125 8.59375 31.390625 
Q 8.59375 42.28125 12.203125 53.3125 
Q 15.828125 64.359375 23.1875 75.875 
z
" id="DejaVuSans-40"/>
       <path d="M 44.28125 53.078125 
L 44.28125 44.578125 
Q 40.484375 46.53125 36.375 47.5 
Q 32.28125 48.484375 27.875 48.484375 
Q 21.1875 48.484375 17.84375 46.4375 
Q 14.5 44.390625 14.5 40.28125 
Q 14.5 37.15625 16.890625 35.375 
Q 19.28125 33.59375 26.515625 31.984375 
L 29.59375 31.296875 
Q 39.15625 29.25 43.1875 25.515625 
Q 47.21875 21.78125 47.21875 15.09375 
Q 47.21875 7.46875 41.1875 3.015625 
Q 35.15625 -1.421875 24.609375 -1.421875 
Q 20.21875 -1.421875 15.453125 -0.5625 
Q 10.6875 0.296875 5.421875 2 
L 5.421875 11.28125 
Q 10.40625 8.6875 15.234375 7.390625 
Q 20.0625 6.109375 24.8125 6.109375 
Q 31.15625 6.109375 34.5625 8.28125 
Q 37.984375 10.453125 37.984375 14.40625 
Q 37.984375 18.0625 35.515625 20.015625 
Q 33.0625 21.96875 24.703125 23.78125 
L 21.578125 24.515625 
Q 13.234375 26.265625 9.515625 29.90625 
Q 5.8125 33.546875 5.8125 39.890625 
Q 5.8125 47.609375 11.28125 51.796875 
Q 16.75 56 26.8125 56 
Q 31.78125 56 36.171875 55.265625 
Q 40.578125 54.546875 44.28125 53.078125 
z
" id="DejaVuSans-115"/>
       <path d="M 8.015625 75.875 
L 15.828125 75.875 
Q 23.140625 64.359375 26.78125 53.3125 
Q 30.421875 42.28125 30.421875 31.390625 
Q 30.421875 20.453125 26.78125 9.375 
Q 23.140625 -1.703125 15.828125 -13.1875 
L 8.015625 -13.1875 
Q 14.5 -2 17.703125 9.0625 
Q 20.90625 20.125 20.90625 31.390625 
Q 20.90625 42.671875 17.703125 53.65625 
Q 14.5 64.65625 8.015625 75.875 
z
" id="DejaVuSans-41"/>
      </defs>
      <use xlink:href="#DejaVuSans-116"/>
      <use x="39.208984" xlink:href="#DejaVuSans-105"/>
      <use x="66.992188" xlink:href="#DejaVuSans-109"/>
      <use x="164.404297" xlink:href="#DejaVuSans-101"/>
      <use x="225.927734" xlink:href="#DejaVuSans-32"/>
      <use x="257.714844" xlink:href="#DejaVuSans-40"/>
      <use x="296.728516" xlink:href="#DejaVuSans-115"/>
      <use x="348.828125" xlink:href="#DejaVuSans-41"/>
     </g>
    </g>
   </g>
   <g id="matplotlib.axis_2">
    <g id="ytick_1">
     <g id="line2d_19">
      <path clip-path="url(#p60ee62338a)" d="M 108 378 
L 777.6 378 
" style="fill:none;stroke:#b0b0b0;stroke-linecap:square;stroke-width:0.8;"/>
     </g>
     <g id="line2d_20">
      <defs>
       <path d="M 0 0 
L -3.5 0 
" id="m9fc92000ae" style="stroke:#000000;stroke-width:0.8;"/>
      </defs>
      <g>
       <use style="stroke:#000000;stroke-width:0.8;" x="108" xlink:href="#m9fc92000ae" y="378"/>
      </g>
     </g>
     <g id="text_11">
      <!-- −15 -->
      <g transform="translate(79.895313 381.799219)scale(0.1 -0.1)">
       <defs>
        <path d="M 10.59375 35.5 
L 73.1875 35.5 
L 73.1875 27.203125 
L 10.59375 27.203125 
z
" id="DejaVuSans-8722"/>
        <path d="M 10.796875 72.90625 
L 49.515625 72.90625 
L 49.515625 64.59375 
L 19.828125 64.59375 
L 19.828125 46.734375 
Q 21.96875 47.46875 24.109375 47.828125 
Q 26.265625 48.1875 28.421875 48.1875 
Q 40.625 48.1875 47.75 41.5 
Q 54.890625 34.8125 54.890625 23.390625 
Q 54.890625 11.625 47.5625 5.09375 
Q 40.234375 -1.421875 26.90625 -1.421875 
Q 22.3125 -1.421875 17.546875 -0.640625 
Q 12.796875 0.140625 7.71875 1.703125 
L 7.71875 11.625 
Q 12.109375 9.234375 16.796875 8.0625 
Q 21.484375 6.890625 26.703125 6.890625 
Q 35.15625 6.890625 40.078125 11.328125 
Q 45.015625 15.765625 45.015625 23.390625 
Q 45.015625 31 40.078125 35.4375 
Q 35.15625 39.890625 26.703125 39.890625 
Q 22.75 39.890625 18.8125 39.015625 
Q 14.890625 38.140625 10.796875 36.28125 
z
" id="DejaVuSans-53"/>
       </defs>
       <use xlink:href="#DejaVuSans-8722"/>
       <use x="83.789062" xlink:href="#DejaVuSans-49"/>
       <use x="147.412109" xlink:href="#DejaVuSans-53"/>
      </g>
     </g>
    </g>
    <g id="ytick_2">
     <g id="line2d_21">
      <path clip-path="url(#p60ee62338a)" d="M 108 323.64 
L 777.6 323.64 
" style="fill:none;stroke:#b0b0b0;stroke-linecap:square;stroke-width:0.8;"/>
     </g>
     <g id="line2d_22">
      <g>
       <use style="stroke:#000000;stroke-width:0.8;" x="108" xlink:href="#m9fc92000ae" y="323.64"/>
      </g>
     </g>
     <g id="text_12">
      <!-- −10 -->
      <g transform="translate(79.895313 327.439219)scale(0.1 -0.1)">
       <use xlink:href="#DejaVuSans-8722"/>
       <use x="83.789062" xlink:href="#DejaVuSans-49"/>
       <use x="147.412109" xlink:href="#DejaVuSans-48"/>
      </g>
     </g>
    </g>
    <g id="ytick_3">
     <g id="line2d_23">
      <path clip-path="url(#p60ee62338a)" d="M 108 269.28 
L 777.6 269.28 
" style="fill:none;stroke:#b0b0b0;stroke-linecap:square;stroke-width:0.8;"/>
     </g>
     <g id="line2d_24">
      <g>
       <use style="stroke:#000000;stroke-width:0.8;" x="108" xlink:href="#m9fc92000ae" y="269.28"/>
      </g>
     </g>
     <g id="text_13">
      <!-- −5 -->
      <g transform="translate(86.257812 273.079219)scale(0.1 -0.1)">
       <use xlink:href="#DejaVuSans-8722"/>
       <use x="83.789062" xlink:href="#DejaVuSans-53"/>
      </g>
     </g>
    </g>
    <g id="ytick_4">
     <g id="line2d_25">
      <path clip-path="url(#p60ee62338a)" d="M 108 214.92 
L 777.6 214.92 
" style="fill:none;stroke:#b0b0b0;stroke-linecap:square;stroke-width:0.8;"/>
     </g>
     <g id="line2d_26">
      <g>
       <use style="stroke:#000000;stroke-width:0.8;" x="108" xlink:href="#m9fc92000ae" y="214.92"/>
      </g>
     </g>
     <g id="text_14">
      <!-- 0 -->
      <g transform="translate(94.6375 218.719219)scale(0.1 -0.1)">
       <use xlink:href="#DejaVuSans-48"/>
      </g>
     </g>
    </g>
    <g id="ytick_5">
     <g id="line2d_27">
      <path clip-path="url(#p60ee62338a)" d="M 108 160.56 
L 777.6 160.56 
" style="fill:none;stroke:#b0b0b0;stroke-linecap:square;stroke-width:0.8;"/>
     </g>
     <g id="line2d_28">
      <g>
       <use style="stroke:#000000;stroke-width:0.8;" x="108" xlink:href="#m9fc92000ae" y="160.56"/>
      </g>
     </g>
     <g id="text_15">
      <!-- 5 -->
      <g transform="translate(94.6375 164.359219)scale(0.1 -0.1)">
       <use xlink:href="#DejaVuSans-53"/>
      </g>
     </g>
    </g>
    <g id="ytick_6">
     <g id="line2d_29">
      <path clip-path="url(#p60ee62338a)" d="M 108 106.2 
L 777.6 106.2 
" style="fill:none;stroke:#b0b0b0;stroke-linecap:square;stroke-width:0.8;"/>
     </g>
     <g id="line2d_30">
      <g>
       <use style="stroke:#000000;stroke-width:0.8;" x="108" xlink:href="#m9fc92000ae" y="106.2"/>
      </g>
     </g>
     <g id="text_16">
      <!-- 10 -->
      <g transform="translate(88.275 109.999219)scale(0.1 -0.1)">
       <use xlink:href="#DejaVuSans-49"/>
       <use x="63.623047" xlink:href="#DejaVuSans-48"/>
      </g>
     </g>
    </g>
    <g id="ytick_7">
     <g id="line2d_31">
      <path clip-path="url(#p60ee62338a)" d="M 108 51.84 
L 777.6 51.84 
" style="fill:none;stroke:#b0b0b0;stroke-linecap:square;stroke-width:0.8;"/>
     </g>
     <g id="line2d_32">
      <g>
       <use style="stroke:#000000;stroke-width:0.8;" x="108" xlink:href="#m9fc92000ae" y="51.84"/>
      </g>
     </g>
     <g id="text_17">
      <!-- 15 -->
      <g transform="translate(88.275 55.639219)scale(0.1 -0.1)">
       <use xlink:href="#DejaVuSans-49"/>
       <use x="63.623047" xlink:href="#DejaVuSans-53"/>
      </g>
     </g>
    </g>
    <g id="text_18">
     <!-- a(t) -->
     <g transform="translate(73.815625 223.845781)rotate(-90)scale(0.1 -0.1)">
      <defs>
       <path d="M 34.28125 27.484375 
Q 23.390625 27.484375 19.1875 25 
Q 14.984375 22.515625 14.984375 16.5 
Q 14.984375 11.71875 18.140625 8.90625 
Q 21.296875 6.109375 26.703125 6.109375 
Q 34.1875 6.109375 38.703125 11.40625 
Q 43.21875 16.703125 43.21875 25.484375 
L 43.21875 27.484375 
z
M 52.203125 31.203125 
L 52.203125 0 
L 43.21875 0 
L 43.21875 8.296875 
Q 40.140625 3.328125 35.546875 0.953125 
Q 30.953125 -1.421875 24.3125 -1.421875 
Q 15.921875 -1.421875 10.953125 3.296875 
Q 6 8.015625 6 15.921875 
Q 6 25.140625 12.171875 29.828125 
Q 18.359375 34.515625 30.609375 34.515625 
L 43.21875 34.515625 
L 43.21875 35.40625 
Q 43.21875 41.609375 39.140625 45 
Q 35.0625 48.390625 27.6875 48.390625 
Q 23 48.390625 18.546875 47.265625 
Q 14.109375 46.140625 10.015625 43.890625 
L 10.015625 52.203125 
Q 14.9375 54.109375 19.578125 55.046875 
Q 24.21875 56 28.609375 56 
Q 40.484375 56 46.34375 49.84375 
Q 52.203125 43.703125 52.203125 31.203125 
z
" id="DejaVuSans-97"/>
      </defs>
      <use xlink:href="#DejaVuSans-97"/>
      <use x="61.279297" xlink:href="#DejaVuSans-40"/>
      <use x="100.292969" xlink:href="#DejaVuSans-116"/>
      <use x="139.501953" xlink:href="#DejaVuSans-41"/>
     </g>
    </g>
   </g>
   <g id="line2d_33">
    <path clip-path="url(#p60ee62338a)" d="M 108 223.084864 
L 109.013849 207.258992 
L 110.027699 176.731804 
L 111.041548 122.014773 
L 112.055398 90.625604 
L 113.069247 70.866478 
L 114.083096 68.368265 
L 115.096946 82.023795 
L 116.110795 91.91352 
L 117.124645 107.109646 
L 118.138494 113.349121 
L 119.152343 116.825984 
L 120.166193 117.882496 
L 121.180042 120.308102 
L 122.193892 125.921968 
L 123.207741 132.445315 
L 124.22159 131.239847 
L 125.23544 123.467645 
L 126.249289 111.057149 
L 127.263139 113.249013 
L 128.276988 126.19806 
L 130.304687 196.527485 
L 131.318536 219.361786 
L 132.332386 235.721644 
L 133.346235 237.337764 
L 135.373934 224.077933 
L 136.387783 227.484105 
L 137.401633 237.802815 
L 139.429331 279.738936 
L 140.443181 295.463554 
L 141.45703 295.324298 
L 142.470879 284.783049 
L 143.484729 270.374935 
L 144.498578 269.428813 
L 145.512428 274.934143 
L 146.526277 293.702982 
L 147.540126 315.124464 
L 148.553976 330.835197 
L 149.567825 333.179913 
L 151.595524 297.460648 
L 152.609373 286.880915 
L 153.623223 283.489169 
L 154.637072 282.953779 
L 155.650922 278.138522 
L 157.67862 250.593128 
L 158.69247 228.32259 
L 159.706319 211.667947 
L 160.720169 203.198568 
L 161.734018 199.727814 
L 162.747867 205.18383 
L 164.775566 227.354446 
L 165.789416 221.377617 
L 166.803265 205.760926 
L 167.817114 185.471925 
L 168.830964 171.220417 
L 169.844813 154.97636 
L 170.858663 146.609028 
L 171.872512 144.431334 
L 172.886361 147.183704 
L 173.900211 148.620055 
L 174.91406 146.733216 
L 176.941759 127.678864 
L 177.955608 128.715997 
L 178.969458 141.982237 
L 179.983307 162.290641 
L 180.997157 172.95355 
L 182.011006 170.835283 
L 183.024855 167.321993 
L 184.038705 165.554887 
L 185.052554 164.747255 
L 186.066404 169.778437 
L 187.080253 178.430773 
L 189.107952 209.729382 
L 190.121801 217.260379 
L 191.135651 219.45018 
L 193.163349 206.034667 
L 194.177199 207.184791 
L 195.191048 216.170778 
L 196.204898 231.882984 
L 197.218747 253.110633 
L 198.232596 264.915548 
L 199.246446 270.385829 
L 200.260295 268.361583 
L 201.274145 262.479426 
L 202.287994 253.483867 
L 203.301843 252.690734 
L 204.315693 257.036116 
L 205.329542 270.126722 
L 206.343391 277.189395 
L 207.357241 272.826979 
L 208.37109 261.701311 
L 209.38494 253.610299 
L 210.398789 253.29901 
L 211.412638 260.12046 
L 213.440337 267.685377 
L 214.454187 265.648594 
L 215.468036 255.078961 
L 216.481885 246.882676 
L 218.509584 219.211828 
L 219.523434 212.992499 
L 220.537283 213.484702 
L 221.551132 219.207605 
L 222.564982 222.871514 
L 223.578831 219.036126 
L 224.592681 212.600427 
L 225.60653 204.136473 
L 226.620379 191.443553 
L 227.634229 182.634025 
L 228.648078 179.885447 
L 230.675777 186.374751 
L 231.689626 184.212424 
L 232.703476 180.495489 
L 233.717325 172.621128 
L 234.731175 161.596839 
L 235.745024 160.02741 
L 236.758873 164.039309 
L 237.772723 172.750941 
L 238.786572 176.288545 
L 239.800422 175.629602 
L 240.814271 172.165302 
L 241.82812 169.769638 
L 242.84197 168.32614 
L 243.855819 173.936283 
L 244.869669 186.692044 
L 245.883518 196.022688 
L 246.897367 207.687418 
L 247.911217 209.639793 
L 248.925066 209.51071 
L 249.938916 208.04825 
L 250.952765 207.80181 
L 251.966614 209.998532 
L 252.980464 213.726434 
L 253.994313 214.93902 
L 255.008163 218.147168 
L 256.022012 227.277277 
L 257.035861 235.217914 
L 258.049711 237.819916 
L 259.06356 236.894622 
L 260.07741 236.619677 
L 261.091259 238.321512 
L 262.105108 242.591045 
L 263.118958 248.960858 
L 264.132807 254.002818 
L 265.146657 255.675694 
L 267.174355 256.358314 
L 268.188205 254.307663 
L 269.202054 249.044142 
L 270.215903 244.582391 
L 271.229753 247.562197 
L 272.243602 252.685603 
L 273.257452 253.546863 
L 275.28515 242.865847 
L 276.299 235.331719 
L 277.312849 231.366583 
L 279.340548 226.330772 
L 280.354397 224.614976 
L 281.368247 223.686359 
L 282.382096 224.045103 
L 283.395946 224.205296 
L 284.409795 221.73579 
L 285.423644 215.349138 
L 286.437494 210.208349 
L 288.465193 204.719512 
L 291.506741 191.280747 
L 293.53444 180.372092 
L 294.548289 173.453887 
L 295.562138 170.720877 
L 296.575988 169.612368 
L 297.589837 175.125899 
L 298.603687 183.224772 
L 299.617536 188.67311 
L 300.631385 186.156756 
L 301.645235 182.638184 
L 302.659084 179.786412 
L 303.672934 179.197865 
L 304.686783 179.736796 
L 305.700632 183.247612 
L 306.714482 188.376231 
L 309.75603 197.643464 
L 310.769879 199.966115 
L 311.783729 203.331902 
L 312.797578 207.270322 
L 314.825277 218.785253 
L 315.839126 219.212778 
L 316.852976 218.808424 
L 317.866825 220.569112 
L 318.880675 224.205657 
L 320.908373 230.489017 
L 321.922223 233.802227 
L 322.936072 236.728352 
L 323.949922 237.925745 
L 324.963771 238.699083 
L 325.97762 237.968216 
L 326.99147 235.598271 
L 328.005319 236.785684 
L 329.019169 240.233014 
L 330.033018 245.746166 
L 331.046867 249.467643 
L 332.060717 250.110616 
L 333.074566 248.927075 
L 334.088415 248.095613 
L 335.102265 246.743469 
L 337.129964 245.431268 
L 338.143813 243.727687 
L 339.157662 239.355565 
L 340.171512 236.676978 
L 341.185361 232.524801 
L 342.199211 225.568586 
L 343.21306 221.083685 
L 344.226909 218.583837 
L 346.254608 220.793442 
L 348.282307 219.79355 
L 349.296156 219.678853 
L 350.310006 218.778852 
L 351.323855 216.679504 
L 352.337705 212.756647 
L 353.351554 205.843573 
L 354.365403 201.945019 
L 355.379253 199.369245 
L 356.393102 196.481847 
L 358.420801 184.256711 
L 359.43465 178.647537 
L 360.4485 175.507831 
L 361.462349 176.050996 
L 362.476199 178.670341 
L 363.490048 182.210401 
L 364.503897 188.913208 
L 365.517747 192.756592 
L 366.531596 193.611035 
L 368.559295 188.022592 
L 369.573144 186.431944 
L 370.586994 187.622284 
L 372.614693 193.99339 
L 374.642391 195.692806 
L 375.656241 198.020765 
L 377.68394 205.973108 
L 378.697789 208.42712 
L 379.711638 213.010191 
L 380.725488 218.134192 
L 381.739337 221.15449 
L 382.753187 222.450242 
L 383.767036 222.372588 
L 384.780885 223.161356 
L 385.794735 225.866614 
L 386.808584 229.525019 
L 387.822434 231.856779 
L 388.836283 232.136185 
L 389.850132 231.815105 
L 391.877831 231.694116 
L 392.891681 230.46686 
L 393.90553 228.757895 
L 394.919379 230.716486 
L 395.933229 234.200102 
L 396.947078 239.472655 
L 397.960927 243.364624 
L 398.974777 244.669845 
L 401.002476 241.460692 
L 402.016325 241.207844 
L 403.030174 240.560209 
L 404.044024 238.985096 
L 405.057873 236.407481 
L 406.071723 232.697485 
L 407.085572 230.509355 
L 408.099421 227.938978 
L 409.113271 223.259239 
L 410.12712 219.536894 
L 411.14097 218.058206 
L 412.154819 217.764145 
L 413.168668 219.30564 
L 414.182518 220.570461 
L 415.196367 220.199826 
L 416.210217 218.699344 
L 417.224066 218.063359 
L 418.237915 218.081817 
L 419.251765 216.297189 
L 422.293313 206.025253 
L 423.307162 203.608577 
L 424.321012 199.963959 
L 426.348711 190.395105 
L 427.36256 186.351411 
L 428.376409 185.410506 
L 429.390259 187.066717 
L 430.404108 190.35902 
L 431.417958 194.271726 
L 432.431807 198.767115 
L 433.445656 201.285501 
L 434.459506 201.014384 
L 435.473355 197.878808 
L 436.487205 196.451652 
L 437.501054 196.388601 
L 438.514903 196.629824 
L 440.542602 196.480499 
L 442.570301 197.538313 
L 443.58415 198.855104 
L 445.611849 205.936183 
L 446.625699 209.398511 
L 447.639548 214.400856 
L 448.653397 218.36196 
L 449.667247 220.381092 
L 450.681096 220.876068 
L 451.694946 220.220205 
L 452.708795 220.094799 
L 454.736494 222.120677 
L 455.750343 223.197755 
L 456.764193 224.632749 
L 457.778042 225.285059 
L 458.791891 224.938179 
L 459.805741 224.241574 
L 460.81959 223.125491 
L 461.833439 222.183966 
L 462.847289 222.419234 
L 463.861138 224.556076 
L 464.874988 229.391201 
L 465.888837 232.868222 
L 467.916536 235.055474 
L 468.930385 233.93084 
L 469.944235 232.212594 
L 471.971933 230.149583 
L 472.985783 229.743535 
L 476.027331 227.374929 
L 478.05503 220.827275 
L 479.068879 218.635235 
L 480.082729 217.736839 
L 481.096578 218.01842 
L 483.124277 220.065377 
L 484.138126 220.74393 
L 485.151976 220.74738 
L 486.165825 220.058328 
L 487.179674 219.17474 
L 488.193524 218.556175 
L 489.207373 217.694252 
L 490.221223 215.231991 
L 491.235072 213.325705 
L 492.248921 211.836767 
L 493.262771 208.985121 
L 494.27662 204.956866 
L 495.29047 202.178643 
L 496.304319 201.009726 
L 497.318168 199.420114 
L 498.332018 199.262249 
L 499.345867 200.133811 
L 500.359717 201.94747 
L 501.373566 204.660638 
L 503.401265 208.135126 
L 504.415114 208.474192 
L 505.428964 207.64465 
L 507.456662 204.870846 
L 508.470512 203.948973 
L 509.484361 202.405263 
L 510.498211 201.211624 
L 511.51206 201.130481 
L 512.525909 201.790296 
L 513.539759 202.714527 
L 514.553608 204.659579 
L 515.567458 207.817607 
L 516.581307 209.616375 
L 518.609006 214.530225 
L 519.622855 216.268568 
L 520.636705 217.478055 
L 521.650554 217.919783 
L 522.664403 217.534467 
L 523.678253 217.402266 
L 524.692102 216.894506 
L 525.705951 216.174223 
L 526.719801 215.651429 
L 527.73365 216.335164 
L 529.761349 217.360182 
L 530.775198 218.178557 
L 531.789048 218.301313 
L 532.802897 219.113802 
L 533.816747 219.737725 
L 534.830596 220.694171 
L 535.844445 222.361253 
L 536.858295 223.63137 
L 538.885994 225.268694 
L 539.899843 224.913715 
L 540.913692 224.311617 
L 541.927542 224.083094 
L 543.955241 221.459978 
L 544.96909 220.327498 
L 548.010638 219.73195 
L 549.024488 218.619852 
L 550.038337 218.450289 
L 551.052186 218.566884 
L 552.066036 218.449786 
L 554.093735 218.778856 
L 555.107584 219.337269 
L 557.135283 219.471327 
L 559.162982 217.811459 
L 561.19068 215.436333 
L 562.20453 213.64034 
L 563.218379 213.701912 
L 564.232229 212.438998 
L 565.246078 210.954664 
L 567.273777 210.406608 
L 568.287626 209.835485 
L 569.301476 210.104426 
L 570.315325 210.508721 
L 571.329174 210.549899 
L 572.343024 211.118263 
L 573.356873 212.235355 
L 574.370723 212.632236 
L 576.398421 212.709507 
L 577.412271 212.0344 
L 578.42612 210.776595 
L 580.453819 208.964072 
L 583.495367 208.40003 
L 584.509217 208.585837 
L 585.523066 209.175977 
L 586.536915 209.96367 
L 587.550765 211.105902 
L 588.564614 212.034246 
L 589.578463 213.119448 
L 591.606162 214.988915 
L 592.620012 214.64086 
L 593.633861 214.511162 
L 594.64771 214.884031 
L 595.66156 213.998929 
L 598.703108 212.653801 
L 599.716957 213.157904 
L 600.730807 213.902848 
L 602.758506 214.667775 
L 603.772355 215.297351 
L 605.800054 215.847861 
L 607.827753 217.992126 
L 608.841602 218.148944 
L 609.855451 218.027341 
L 614.924698 216.060874 
L 616.952397 216.393049 
L 617.966247 215.904549 
L 619.993945 216.873359 
L 621.007795 217.08201 
L 622.021644 216.941638 
L 623.035494 216.919053 
L 624.049343 217.809458 
L 625.063192 218.287723 
L 626.077042 218.30491 
L 627.090891 218.766034 
L 628.104741 217.785175 
L 630.132439 216.912883 
L 631.146289 216.76761 
L 632.160138 216.967897 
L 633.173988 216.464236 
L 634.187837 215.76459 
L 636.215536 215.935996 
L 637.229385 215.28689 
L 638.243235 214.989949 
L 640.270933 215.234375 
L 641.284783 215.524837 
L 643.312482 216.475572 
L 645.34018 216.002588 
L 646.35403 215.779146 
L 652.437126 213.170605 
L 653.450975 213.227767 
L 654.464825 212.738527 
L 656.492524 212.825173 
L 657.506373 212.930065 
L 658.520222 213.743453 
L 659.534072 213.64013 
L 662.57562 213.963627 
L 663.589469 213.864319 
L 664.603319 213.44551 
L 666.631018 211.994013 
L 668.658716 212.320807 
L 669.672566 212.062849 
L 671.700265 212.167725 
L 672.714114 212.550313 
L 673.727963 213.072625 
L 674.741813 213.080603 
L 675.755662 213.393621 
L 677.783361 213.67641 
L 678.79721 214.133581 
L 679.81106 213.99767 
L 681.838759 214.51365 
L 682.852608 213.966518 
L 683.866457 213.665174 
L 684.880307 214.015665 
L 686.908006 214.280452 
L 687.921855 214.673865 
L 689.949554 215.920186 
L 690.963403 215.635053 
L 691.977253 216.318291 
L 692.991102 216.287329 
L 694.004951 216.031296 
L 695.018801 216.286327 
L 696.03265 217.105265 
L 697.0465 217.202757 
L 700.088048 216.421342 
L 702.115747 217.146557 
L 704.143445 216.950843 
L 706.171144 217.409394 
L 707.184994 217.77138 
L 708.198843 217.269381 
L 710.226542 217.4158 
L 711.240391 217.088267 
L 712.254241 217.441207 
L 713.26809 216.790145 
L 716.309638 216.479334 
L 717.323487 216.608658 
L 718.337337 216.466107 
L 719.351186 216.013448 
L 721.378885 216.014289 
L 722.392734 215.779293 
L 723.406584 215.789827 
L 724.420433 214.863582 
L 726.448132 215.184993 
L 727.461981 215.019381 
L 728.475831 214.504655 
L 729.48968 214.122086 
L 732.531228 213.967854 
L 733.545078 213.675942 
L 734.558927 212.961096 
L 735.572777 212.692116 
L 736.586626 212.998207 
L 737.600475 212.924478 
L 738.614325 212.408479 
L 739.628174 212.276254 
L 740.642024 212.277787 
L 741.655873 212.052739 
L 742.669722 211.676837 
L 743.683572 211.97022 
L 744.697421 212.030179 
L 745.711271 211.941713 
L 746.72512 212.763389 
L 747.738969 213.015708 
L 748.752819 212.619218 
L 750.780518 212.52644 
L 751.794367 213.245407 
L 754.835915 213.190485 
L 756.863614 213.967221 
L 759.905162 214.248483 
L 760.919012 214.707461 
L 761.932861 215.019097 
L 762.94671 215.640793 
L 763.96056 215.999069 
L 764.974409 216.068165 
L 765.988259 215.984047 
L 768.015957 216.145697 
L 769.029807 216.331197 
L 771.057506 217.216948 
L 772.071355 216.900529 
L 776.126753 217.13563 
L 776.126753 217.13563 
" style="fill:none;stroke:#1f77b4;stroke-linecap:square;stroke-width:1.5;"/>
   </g>
   <g id="line2d_34">
    <path clip-path="url(#p60ee62338a)" d="M 108 146.785552 
L 110.027699 129.988 
L 111.041548 123.094925 
L 112.055398 117.288475 
L 113.069247 112.61522 
L 114.083096 109.108879 
L 115.096946 106.790146 
L 116.110795 105.666656 
L 117.124645 105.733096 
L 118.138494 106.971446 
L 119.152343 109.35136 
L 120.166193 112.830671 
L 121.180042 117.356016 
L 122.193892 122.863571 
L 123.207741 129.279889 
L 125.23544 144.502572 
L 127.263139 162.281239 
L 130.304687 191.911271 
L 134.360084 232.309127 
L 136.387783 250.951571 
L 138.415482 267.522933 
L 140.443181 281.378073 
L 141.45703 287.121607 
L 142.470879 292.006027 
L 143.484729 295.99136 
L 144.498578 299.047871 
L 145.512428 301.156236 
L 146.526277 302.307596 
L 147.540126 302.503501 
L 148.553976 301.755742 
L 149.567825 300.086077 
L 150.581675 297.525848 
L 151.595524 294.115508 
L 152.609373 289.904055 
L 153.623223 284.948379 
L 155.650922 273.066958 
L 157.67862 259.055057 
L 160.720169 235.493803 
L 165.789416 195.323122 
L 167.817114 180.933016 
L 169.844813 168.404228 
L 170.858663 162.991846 
L 171.872512 158.215985 
L 172.886361 154.118692 
L 173.900211 150.734109 
L 174.91406 148.088229 
L 175.92791 146.198731 
L 176.941759 145.074909 
L 177.955608 144.717702 
L 178.969458 145.119797 
L 179.983307 146.265832 
L 180.997157 148.132677 
L 182.011006 150.689795 
L 183.024855 153.899679 
L 184.038705 157.718355 
L 185.052554 162.09595 
L 187.080253 172.302677 
L 189.107952 184.027615 
L 192.1495 203.266948 
L 196.204898 229.021033 
L 198.232596 240.712941 
L 200.260295 250.970016 
L 202.287994 259.397353 
L 203.301843 262.825549 
L 204.315693 265.68929 
L 205.329542 267.966023 
L 206.343391 269.639829 
L 207.357241 270.701497 
L 208.37109 271.148524 
L 209.38494 270.985049 
L 210.398789 270.221704 
L 211.412638 268.875416 
L 212.426488 266.969122 
L 213.440337 264.531446 
L 214.454187 261.596299 
L 215.468036 258.202447 
L 217.495735 250.214973 
L 219.523434 240.956698 
L 222.564982 225.635262 
L 226.620379 204.917458 
L 228.648078 195.426163 
L 230.675777 187.038196 
L 232.703476 180.078521 
L 233.717325 177.21693 
L 234.731175 174.801959 
L 235.745024 172.853054 
L 236.758873 171.384373 
L 237.772723 170.404707 
L 238.786572 169.917468 
L 239.800422 169.920728 
L 240.814271 170.40732 
L 241.82812 171.364986 
L 242.84197 172.776589 
L 243.855819 174.620362 
L 244.869669 176.870217 
L 245.883518 179.496078 
L 247.911217 185.737933 
L 249.938916 193.040952 
L 252.980464 205.232432 
L 258.049711 225.822712 
L 260.07741 233.134372 
L 262.105108 239.46007 
L 263.118958 242.175763 
L 264.132807 244.559181 
L 265.146657 246.589555 
L 266.160506 248.250209 
L 267.174355 249.528681 
L 268.188205 250.416796 
L 269.202054 250.910692 
L 270.215903 251.010795 
L 271.229753 250.721759 
L 272.243602 250.052347 
L 273.257452 249.015281 
L 274.271301 247.62705 
L 275.28515 245.907672 
L 276.299 243.880433 
L 278.326699 239.010029 
L 280.354397 233.255474 
L 283.395946 223.562555 
L 288.465193 207.000185 
L 290.492891 201.05516 
L 292.52059 195.871607 
L 294.548289 191.648045 
L 295.562138 189.945721 
L 296.575988 188.536425 
L 297.589837 187.431036 
L 298.603687 186.637006 
L 299.617536 186.158338 
L 300.631385 185.995587 
L 301.645235 186.145906 
L 302.659084 186.603128 
L 303.672934 187.357878 
L 304.686783 188.397721 
L 305.700632 189.707341 
L 306.714482 191.268747 
L 308.742181 195.062991 
L 310.769879 199.592389 
L 313.811428 207.292323 
L 318.880675 220.604811 
L 320.908373 225.434315 
L 322.936072 229.677089 
L 324.963771 233.169588 
L 325.97762 234.593264 
L 326.99147 235.784906 
L 328.005319 236.735088 
L 329.019169 237.437116 
L 330.033018 237.887057 
L 331.046867 238.083744 
L 332.060717 238.028748 
L 333.074566 237.72632 
L 334.088415 237.183306 
L 335.102265 236.409039 
L 336.116114 235.415199 
L 337.129964 234.215656 
L 339.157662 231.264773 
L 341.185361 227.703795 
L 344.226909 221.592321 
L 350.310006 208.893066 
L 352.337705 205.180234 
L 354.365403 201.98894 
L 356.393102 199.439879 
L 357.406952 198.435572 
L 358.420801 197.622946 
L 359.43465 197.007941 
L 360.4485 196.59429 
L 361.462349 196.383508 
L 362.476199 196.374909 
L 363.490048 196.565645 
L 364.503897 196.950768 
L 365.517747 197.523314 
L 366.531596 198.274406 
L 367.545446 199.193381 
L 369.573144 201.484232 
L 371.600843 204.280489 
L 373.628542 207.448607 
L 382.753187 222.354522 
L 384.780885 224.972129 
L 386.808584 227.086537 
L 387.822434 227.930447 
L 388.836283 228.622328 
L 389.850132 229.156957 
L 390.863982 229.530878 
L 391.877831 229.742412 
L 392.891681 229.791649 
L 393.90553 229.68042 
L 394.919379 229.412254 
L 395.933229 228.992312 
L 396.947078 228.427315 
L 398.974777 226.896219 
L 401.002476 224.899867 
L 403.030174 222.536618 
L 406.071723 218.549146 
L 411.14097 211.720662 
L 413.168668 209.264655 
L 415.196367 207.120143 
L 417.224066 205.369359 
L 419.251765 204.075412 
L 420.265614 203.613701 
L 421.279464 203.280155 
L 422.293313 203.076495 
L 423.307162 203.003018 
L 424.321012 203.058621 
L 425.334861 203.24083 
L 426.348711 203.545845 
L 428.376409 204.502854 
L 430.404108 205.875373 
L 432.431807 207.593017 
L 435.473355 210.632449 
L 443.58415 219.205447 
L 445.611849 220.960375 
L 447.639548 222.407673 
L 449.667247 223.494655 
L 451.694946 224.185486 
L 453.722644 224.462217 
L 455.750343 224.325033 
L 457.778042 223.791722 
L 459.805741 222.896409 
L 461.833439 221.687633 
L 463.861138 220.225868 
L 466.902686 217.712546 
L 472.985783 212.476871 
L 475.013482 210.942548 
L 477.04118 209.621729 
L 479.068879 208.564437 
L 481.096578 207.808039 
L 483.124277 207.376024 
L 485.151976 207.277402 
L 487.179674 207.506743 
L 489.207373 208.044821 
L 491.235072 208.85983 
L 493.262771 209.909103 
L 496.304319 211.80803 
L 505.428964 217.954162 
L 507.456662 219.037296 
L 509.484361 219.914006 
L 511.51206 220.552956 
L 513.539759 220.933831 
L 515.567458 221.047881 
L 517.595156 220.897959 
L 519.622855 220.498065 
L 521.650554 219.872428 
L 523.678253 219.054181 
L 526.719801 217.555485 
L 536.858295 212.151733 
L 538.885994 211.341498 
L 540.913692 210.706887 
L 542.941391 210.269826 
L 544.96909 210.043203 
L 546.996789 210.030581 
L 549.024488 210.226319 
L 551.052186 210.616074 
L 553.079885 211.177662 
L 556.121433 212.277642 
L 560.176831 214.036864 
L 565.246078 216.264727 
L 568.287626 217.392263 
L 571.329174 218.23746 
L 573.356873 218.609133 
L 575.384572 218.813139 
L 577.412271 218.84564 
L 579.43997 218.710207 
L 582.481518 218.217161 
L 585.523066 217.433429 
L 589.578463 216.088456 
L 596.675409 213.603474 
L 599.716957 212.749262 
L 602.758506 212.137115 
L 605.800054 211.814527 
L 608.841602 211.799564 
L 611.88315 212.080411 
L 614.924698 212.617785 
L 618.980096 213.623984 
L 629.11859 216.39183 
L 632.160138 216.969803 
L 635.201686 217.329029 
L 638.243235 217.444934 
L 641.284783 217.317017 
L 644.326331 216.967861 
L 648.381729 216.233982 
L 661.561771 213.453035 
L 664.603319 213.087991 
L 667.644867 212.911937 
L 670.686415 212.9334 
L 673.727963 213.141856 
L 677.783361 213.660618 
L 683.866457 214.736074 
L 689.949554 215.787482 
L 694.004951 216.28221 
L 698.060349 216.522799 
L 702.115747 216.483802 
L 706.171144 216.1876 
L 711.240391 215.555757 
L 722.392734 214.03069 
L 726.448132 213.717786 
L 730.50353 213.622132 
L 734.558927 213.747228 
L 739.628174 214.160335 
L 755.849765 215.821874 
L 759.905162 215.955225 
L 764.974409 215.871204 
L 770.043656 215.550325 
L 776.126753 214.993877 
L 776.126753 214.993877 
" style="fill:none;stroke:#ff0000;stroke-dasharray:1.5,2.475;stroke-dashoffset:0;stroke-width:1.5;"/>
   </g>
   <g id="patch_3">
    <path d="M 108 378 
L 108 51.84 
" style="fill:none;stroke:#000000;stroke-linecap:square;stroke-linejoin:miter;stroke-width:0.8;"/>
   </g>
   <g id="patch_4">
    <path d="M 777.6 378 
L 777.6 51.84 
" style="fill:none;stroke:#000000;stroke-linecap:square;stroke-linejoin:miter;stroke-width:0.8;"/>
   </g>
   <g id="patch_5">
    <path d="M 108 378 
L 777.6 378 
" style="fill:none;stroke:#000000;stroke-linecap:square;stroke-linejoin:miter;stroke-width:0.8;"/>
   </g>
   <g id="patch_6">
    <path d="M 108 51.84 
L 777.6 51.84 
" style="fill:none;stroke:#000000;stroke-linecap:square;stroke-linejoin:miter;stroke-width:0.8;"/>
   </g>
   <g id="text_19">
    <!-- Medição 6 - Direção Y -->
    <g transform="translate(344.964375 45.84)scale(0.18 -0.18)">
     <defs>
      <path d="M 9.8125 72.90625 
L 24.515625 72.90625 
L 43.109375 23.296875 
L 61.8125 72.90625 
L 76.515625 72.90625 
L 76.515625 0 
L 66.890625 0 
L 66.890625 64.015625 
L 48.09375 14.015625 
L 38.1875 14.015625 
L 19.390625 64.015625 
L 19.390625 0 
L 9.8125 0 
z
" id="DejaVuSans-77"/>
      <path d="M 45.40625 46.390625 
L 45.40625 75.984375 
L 54.390625 75.984375 
L 54.390625 0 
L 45.40625 0 
L 45.40625 8.203125 
Q 42.578125 3.328125 38.25 0.953125 
Q 33.9375 -1.421875 27.875 -1.421875 
Q 17.96875 -1.421875 11.734375 6.484375 
Q 5.515625 14.40625 5.515625 27.296875 
Q 5.515625 40.1875 11.734375 48.09375 
Q 17.96875 56 27.875 56 
Q 33.9375 56 38.25 53.625 
Q 42.578125 51.265625 45.40625 46.390625 
z
M 14.796875 27.296875 
Q 14.796875 17.390625 18.875 11.75 
Q 22.953125 6.109375 30.078125 6.109375 
Q 37.203125 6.109375 41.296875 11.75 
Q 45.40625 17.390625 45.40625 27.296875 
Q 45.40625 37.203125 41.296875 42.84375 
Q 37.203125 48.484375 30.078125 48.484375 
Q 22.953125 48.484375 18.875 42.84375 
Q 14.796875 37.203125 14.796875 27.296875 
z
" id="DejaVuSans-100"/>
      <path d="M 48.78125 52.59375 
L 48.78125 44.1875 
Q 44.96875 46.296875 41.140625 47.34375 
Q 37.3125 48.390625 33.40625 48.390625 
Q 24.65625 48.390625 19.8125 42.84375 
Q 14.984375 37.3125 14.984375 27.296875 
Q 14.984375 17.28125 19.8125 11.734375 
Q 24.65625 6.203125 33.40625 6.203125 
Q 37.3125 6.203125 41.140625 7.25 
Q 44.96875 8.296875 48.78125 10.40625 
L 48.78125 2.09375 
Q 45.015625 0.34375 40.984375 -0.53125 
Q 36.96875 -1.421875 32.421875 -1.421875 
Q 20.0625 -1.421875 12.78125 6.34375 
Q 5.515625 14.109375 5.515625 27.296875 
Q 5.515625 40.671875 12.859375 48.328125 
Q 20.21875 56 33.015625 56 
Q 37.15625 56 41.109375 55.140625 
Q 45.0625 54.296875 48.78125 52.59375 
z
M 36.078125 0 
Q 38.765625 -3.03125 40.078125 -5.59375 
Q 41.40625 -8.15625 41.40625 -10.5 
Q 41.40625 -14.84375 38.46875 -17.0625 
Q 35.546875 -19.28125 29.78125 -19.28125 
Q 27.546875 -19.28125 25.421875 -18.984375 
Q 23.296875 -18.703125 21.1875 -18.109375 
L 21.1875 -11.71875 
Q 22.859375 -12.546875 24.65625 -12.90625 
Q 26.46875 -13.28125 28.765625 -13.28125 
Q 31.640625 -13.28125 33.109375 -12.109375 
Q 34.578125 -10.9375 34.578125 -8.6875 
Q 34.578125 -7.234375 33.515625 -5.109375 
Q 32.46875 -2.984375 30.28125 0 
z
" id="DejaVuSans-231"/>
      <path d="M 34.28125 27.484375 
Q 23.390625 27.484375 19.1875 25 
Q 14.984375 22.515625 14.984375 16.5 
Q 14.984375 11.71875 18.140625 8.90625 
Q 21.296875 6.109375 26.703125 6.109375 
Q 34.1875 6.109375 38.703125 11.40625 
Q 43.21875 16.703125 43.21875 25.484375 
L 43.21875 27.484375 
z
M 52.203125 31.203125 
L 52.203125 0 
L 43.21875 0 
L 43.21875 8.296875 
Q 40.140625 3.328125 35.546875 0.953125 
Q 30.953125 -1.421875 24.3125 -1.421875 
Q 15.921875 -1.421875 10.953125 3.296875 
Q 6 8.015625 6 15.921875 
Q 6 25.140625 12.171875 29.828125 
Q 18.359375 34.515625 30.609375 34.515625 
L 43.21875 34.515625 
L 43.21875 35.40625 
Q 43.21875 41.609375 39.140625 45 
Q 35.0625 48.390625 27.6875 48.390625 
Q 23 48.390625 18.546875 47.265625 
Q 14.109375 46.140625 10.015625 43.890625 
L 10.015625 52.203125 
Q 14.9375 54.109375 19.578125 55.046875 
Q 24.21875 56 28.609375 56 
Q 40.484375 56 46.34375 49.84375 
Q 52.203125 43.703125 52.203125 31.203125 
z
M 28.8125 66.890625 
L 26.03125 69.578125 
Q 24.953125 70.5625 24.140625 71.015625 
Q 23.34375 71.484375 22.703125 71.484375 
Q 20.84375 71.484375 19.96875 69.703125 
Q 19.09375 67.921875 19 63.921875 
L 12.890625 63.921875 
Q 12.984375 70.515625 15.46875 74.09375 
Q 17.96875 77.6875 22.40625 77.6875 
Q 24.265625 77.6875 25.828125 77 
Q 27.390625 76.3125 29.203125 74.703125 
L 31.984375 72.015625 
Q 33.0625 71.046875 33.859375 70.578125 
Q 34.671875 70.125 35.296875 70.125 
Q 37.15625 70.125 38.03125 71.90625 
Q 38.921875 73.6875 39.015625 77.6875 
L 45.125 77.6875 
Q 45.015625 71.09375 42.53125 67.5 
Q 40.046875 63.921875 35.59375 63.921875 
Q 33.734375 63.921875 32.171875 64.59375 
Q 30.609375 65.28125 28.8125 66.890625 
z
" id="DejaVuSans-227"/>
      <path d="M 30.609375 48.390625 
Q 23.390625 48.390625 19.1875 42.75 
Q 14.984375 37.109375 14.984375 27.296875 
Q 14.984375 17.484375 19.15625 11.84375 
Q 23.34375 6.203125 30.609375 6.203125 
Q 37.796875 6.203125 41.984375 11.859375 
Q 46.1875 17.53125 46.1875 27.296875 
Q 46.1875 37.015625 41.984375 42.703125 
Q 37.796875 48.390625 30.609375 48.390625 
z
M 30.609375 56 
Q 42.328125 56 49.015625 48.375 
Q 55.71875 40.765625 55.71875 27.296875 
Q 55.71875 13.875 49.015625 6.21875 
Q 42.328125 -1.421875 30.609375 -1.421875 
Q 18.84375 -1.421875 12.171875 6.21875 
Q 5.515625 13.875 5.515625 27.296875 
Q 5.515625 40.765625 12.171875 48.375 
Q 18.84375 56 30.609375 56 
z
" id="DejaVuSans-111"/>
      <path d="M 4.890625 31.390625 
L 31.203125 31.390625 
L 31.203125 23.390625 
L 4.890625 23.390625 
z
" id="DejaVuSans-45"/>
      <path d="M 19.671875 64.796875 
L 19.671875 8.109375 
L 31.59375 8.109375 
Q 46.6875 8.109375 53.6875 14.9375 
Q 60.6875 21.78125 60.6875 36.53125 
Q 60.6875 51.171875 53.6875 57.984375 
Q 46.6875 64.796875 31.59375 64.796875 
z
M 9.8125 72.90625 
L 30.078125 72.90625 
Q 51.265625 72.90625 61.171875 64.09375 
Q 71.09375 55.28125 71.09375 36.53125 
Q 71.09375 17.671875 61.125 8.828125 
Q 51.171875 0 30.078125 0 
L 9.8125 0 
z
" id="DejaVuSans-68"/>
      <path d="M 41.109375 46.296875 
Q 39.59375 47.171875 37.8125 47.578125 
Q 36.03125 48 33.890625 48 
Q 26.265625 48 22.1875 43.046875 
Q 18.109375 38.09375 18.109375 28.8125 
L 18.109375 0 
L 9.078125 0 
L 9.078125 54.6875 
L 18.109375 54.6875 
L 18.109375 46.1875 
Q 20.953125 51.171875 25.484375 53.578125 
Q 30.03125 56 36.53125 56 
Q 37.453125 56 38.578125 55.875 
Q 39.703125 55.765625 41.0625 55.515625 
z
" id="DejaVuSans-114"/>
      <path d="M -0.203125 72.90625 
L 10.40625 72.90625 
L 30.609375 42.921875 
L 50.6875 72.90625 
L 61.28125 72.90625 
L 35.5 34.71875 
L 35.5 0 
L 25.59375 0 
L 25.59375 34.71875 
z
" id="DejaVuSans-89"/>
     </defs>
     <use xlink:href="#DejaVuSans-77"/>
     <use x="86.279297" xlink:href="#DejaVuSans-101"/>
     <use x="147.802734" xlink:href="#DejaVuSans-100"/>
     <use x="211.279297" xlink:href="#DejaVuSans-105"/>
     <use x="239.0625" xlink:href="#DejaVuSans-231"/>
     <use x="294.042969" xlink:href="#DejaVuSans-227"/>
     <use x="355.322266" xlink:href="#DejaVuSans-111"/>
     <use x="416.503906" xlink:href="#DejaVuSans-32"/>
     <use x="448.291016" xlink:href="#DejaVuSans-54"/>
     <use x="511.914062" xlink:href="#DejaVuSans-32"/>
     <use x="543.701172" xlink:href="#DejaVuSans-45"/>
     <use x="579.785156" xlink:href="#DejaVuSans-32"/>
     <use x="611.572266" xlink:href="#DejaVuSans-68"/>
     <use x="688.574219" xlink:href="#DejaVuSans-105"/>
     <use x="716.357422" xlink:href="#DejaVuSans-114"/>
     <use x="755.220703" xlink:href="#DejaVuSans-101"/>
     <use x="816.744141" xlink:href="#DejaVuSans-231"/>
     <use x="871.724609" xlink:href="#DejaVuSans-227"/>
     <use x="933.003906" xlink:href="#DejaVuSans-111"/>
     <use x="994.185547" xlink:href="#DejaVuSans-32"/>
     <use x="1025.972656" xlink:href="#DejaVuSans-89"/>
    </g>
   </g>
   <g id="legend_1">
    <g id="patch_7">
     <path d="M 701.221875 89.19625 
L 770.6 89.19625 
Q 772.6 89.19625 772.6 87.19625 
L 772.6 58.84 
Q 772.6 56.84 770.6 56.84 
L 701.221875 56.84 
Q 699.221875 56.84 699.221875 58.84 
L 699.221875 87.19625 
Q 699.221875 89.19625 701.221875 89.19625 
z
" style="fill:#ffffff;opacity:0.8;stroke:#cccccc;stroke-linejoin:miter;"/>
    </g>
    <g id="line2d_35">
     <path d="M 703.221875 64.938437 
L 723.221875 64.938437 
" style="fill:none;stroke:#1f77b4;stroke-linecap:square;stroke-width:1.5;"/>
    </g>
    <g id="line2d_36"/>
    <g id="text_20">
     <!-- original -->
     <g transform="translate(731.221875 68.438437)scale(0.1 -0.1)">
      <defs>
       <path d="M 45.40625 27.984375 
Q 45.40625 37.75 41.375 43.109375 
Q 37.359375 48.484375 30.078125 48.484375 
Q 22.859375 48.484375 18.828125 43.109375 
Q 14.796875 37.75 14.796875 27.984375 
Q 14.796875 18.265625 18.828125 12.890625 
Q 22.859375 7.515625 30.078125 7.515625 
Q 37.359375 7.515625 41.375 12.890625 
Q 45.40625 18.265625 45.40625 27.984375 
z
M 54.390625 6.78125 
Q 54.390625 -7.171875 48.1875 -13.984375 
Q 42 -20.796875 29.203125 -20.796875 
Q 24.46875 -20.796875 20.265625 -20.09375 
Q 16.0625 -19.390625 12.109375 -17.921875 
L 12.109375 -9.1875 
Q 16.0625 -11.328125 19.921875 -12.34375 
Q 23.78125 -13.375 27.78125 -13.375 
Q 36.625 -13.375 41.015625 -8.765625 
Q 45.40625 -4.15625 45.40625 5.171875 
L 45.40625 9.625 
Q 42.625 4.78125 38.28125 2.390625 
Q 33.9375 0 27.875 0 
Q 17.828125 0 11.671875 7.65625 
Q 5.515625 15.328125 5.515625 27.984375 
Q 5.515625 40.671875 11.671875 48.328125 
Q 17.828125 56 27.875 56 
Q 33.9375 56 38.28125 53.609375 
Q 42.625 51.21875 45.40625 46.390625 
L 45.40625 54.6875 
L 54.390625 54.6875 
z
" id="DejaVuSans-103"/>
       <path d="M 54.890625 33.015625 
L 54.890625 0 
L 45.90625 0 
L 45.90625 32.71875 
Q 45.90625 40.484375 42.875 44.328125 
Q 39.84375 48.1875 33.796875 48.1875 
Q 26.515625 48.1875 22.3125 43.546875 
Q 18.109375 38.921875 18.109375 30.90625 
L 18.109375 0 
L 9.078125 0 
L 9.078125 54.6875 
L 18.109375 54.6875 
L 18.109375 46.1875 
Q 21.34375 51.125 25.703125 53.5625 
Q 30.078125 56 35.796875 56 
Q 45.21875 56 50.046875 50.171875 
Q 54.890625 44.34375 54.890625 33.015625 
z
" id="DejaVuSans-110"/>
       <path d="M 9.421875 75.984375 
L 18.40625 75.984375 
L 18.40625 0 
L 9.421875 0 
z
" id="DejaVuSans-108"/>
      </defs>
      <use xlink:href="#DejaVuSans-111"/>
      <use x="61.181641" xlink:href="#DejaVuSans-114"/>
      <use x="102.294922" xlink:href="#DejaVuSans-105"/>
      <use x="130.078125" xlink:href="#DejaVuSans-103"/>
      <use x="193.554688" xlink:href="#DejaVuSans-105"/>
      <use x="221.337891" xlink:href="#DejaVuSans-110"/>
      <use x="284.716797" xlink:href="#DejaVuSans-97"/>
      <use x="345.996094" xlink:href="#DejaVuSans-108"/>
     </g>
    </g>
    <g id="line2d_37">
     <path d="M 703.221875 79.616562 
L 723.221875 79.616562 
" style="fill:none;stroke:#ff0000;stroke-dasharray:1.5,2.475;stroke-dashoffset:0;stroke-width:1.5;"/>
    </g>
    <g id="line2d_38"/>
    <g id="text_21">
     <!-- fitted -->
     <g transform="translate(731.221875 83.116562)scale(0.1 -0.1)">
      <defs>
       <path d="M 37.109375 75.984375 
L 37.109375 68.5 
L 28.515625 68.5 
Q 23.6875 68.5 21.796875 66.546875 
Q 19.921875 64.59375 19.921875 59.515625 
L 19.921875 54.6875 
L 34.71875 54.6875 
L 34.71875 47.703125 
L 19.921875 47.703125 
L 19.921875 0 
L 10.890625 0 
L 10.890625 47.703125 
L 2.296875 47.703125 
L 2.296875 54.6875 
L 10.890625 54.6875 
L 10.890625 58.5 
Q 10.890625 67.625 15.140625 71.796875 
Q 19.390625 75.984375 28.609375 75.984375 
z
" id="DejaVuSans-102"/>
      </defs>
      <use xlink:href="#DejaVuSans-102"/>
      <use x="35.205078" xlink:href="#DejaVuSans-105"/>
      <use x="62.988281" xlink:href="#DejaVuSans-116"/>
      <use x="102.197266" xlink:href="#DejaVuSans-116"/>
      <use x="141.40625" xlink:href="#DejaVuSans-101"/>
      <use x="202.929688" xlink:href="#DejaVuSans-100"/>
     </g>
    </g>
   </g>
  </g>
 </g>
 <defs>
  <clipPath id="p60ee62338a">
   <rect height="326.16" width="669.6" x="108" y="51.84"/>
  </clipPath>
 </defs>
</svg>
