<?xml version="1.0" encoding="utf-8" standalone="no"?>
<!DOCTYPE svg PUBLIC "-//W3C//DTD SVG 1.1//EN"
  "http://www.w3.org/Graphics/SVG/1.1/DTD/svg11.dtd">
<!-- Created with matplotlib (https://matplotlib.org/) -->
<svg height="432pt" version="1.1" viewBox="0 0 864 432" width="864pt" xmlns="http://www.w3.org/2000/svg" xmlns:xlink="http://www.w3.org/1999/xlink">
 <metadata>
  <rdf:RDF xmlns:cc="http://creativecommons.org/ns#" xmlns:dc="http://purl.org/dc/elements/1.1/" xmlns:rdf="http://www.w3.org/1999/02/22-rdf-syntax-ns#">
   <cc:Work>
    <dc:type rdf:resource="http://purl.org/dc/dcmitype/StillImage"/>
    <dc:date>2021-11-25T23:42:50.078908</dc:date>
    <dc:format>image/svg+xml</dc:format>
    <dc:creator>
     <cc:Agent>
      <dc:title>Matplotlib v3.3.2, https://matplotlib.org/</dc:title>
     </cc:Agent>
    </dc:creator>
   </cc:Work>
  </rdf:RDF>
 </metadata>
 <defs>
  <style type="text/css">*{stroke-linecap:butt;stroke-linejoin:round;}</style>
 </defs>
 <g id="figure_1">
  <g id="patch_1">
   <path d="M 0 432 
L 864 432 
L 864 0 
L 0 0 
z
" style="fill:none;"/>
  </g>
  <g id="axes_1">
   <g id="patch_2">
    <path d="M 108 378 
L 777.6 378 
L 777.6 51.84 
L 108 51.84 
z
" style="fill:#ffffff;"/>
   </g>
   <g id="matplotlib.axis_1">
    <g id="xtick_1">
     <g id="line2d_1">
      <path clip-path="url(#p3197568025)" d="M 108 378 
L 108 51.84 
" style="fill:none;stroke:#b0b0b0;stroke-linecap:square;stroke-width:0.8;"/>
     </g>
     <g id="line2d_2">
      <defs>
       <path d="M 0 0 
L 0 3.5 
" id="mbcb93eb3e7" style="stroke:#000000;stroke-width:0.8;"/>
      </defs>
      <g>
       <use style="stroke:#000000;stroke-width:0.8;" x="108" xlink:href="#mbcb93eb3e7" y="378"/>
      </g>
     </g>
     <g id="text_1">
      <!-- 0.0 -->
      <g transform="translate(100.048438 392.598437)scale(0.1 -0.1)">
       <defs>
        <path d="M 31.78125 66.40625 
Q 24.171875 66.40625 20.328125 58.90625 
Q 16.5 51.421875 16.5 36.375 
Q 16.5 21.390625 20.328125 13.890625 
Q 24.171875 6.390625 31.78125 6.390625 
Q 39.453125 6.390625 43.28125 13.890625 
Q 47.125 21.390625 47.125 36.375 
Q 47.125 51.421875 43.28125 58.90625 
Q 39.453125 66.40625 31.78125 66.40625 
z
M 31.78125 74.21875 
Q 44.046875 74.21875 50.515625 64.515625 
Q 56.984375 54.828125 56.984375 36.375 
Q 56.984375 17.96875 50.515625 8.265625 
Q 44.046875 -1.421875 31.78125 -1.421875 
Q 19.53125 -1.421875 13.0625 8.265625 
Q 6.59375 17.96875 6.59375 36.375 
Q 6.59375 54.828125 13.0625 64.515625 
Q 19.53125 74.21875 31.78125 74.21875 
z
" id="DejaVuSans-48"/>
        <path d="M 10.6875 12.40625 
L 21 12.40625 
L 21 0 
L 10.6875 0 
z
" id="DejaVuSans-46"/>
       </defs>
       <use xlink:href="#DejaVuSans-48"/>
       <use x="63.623047" xlink:href="#DejaVuSans-46"/>
       <use x="95.410156" xlink:href="#DejaVuSans-48"/>
      </g>
     </g>
    </g>
    <g id="xtick_2">
     <g id="line2d_3">
      <path clip-path="url(#p3197568025)" d="M 184.525714 378 
L 184.525714 51.84 
" style="fill:none;stroke:#b0b0b0;stroke-linecap:square;stroke-width:0.8;"/>
     </g>
     <g id="line2d_4">
      <g>
       <use style="stroke:#000000;stroke-width:0.8;" x="184.525714" xlink:href="#mbcb93eb3e7" y="378"/>
      </g>
     </g>
     <g id="text_2">
      <!-- 0.2 -->
      <g transform="translate(176.574152 392.598437)scale(0.1 -0.1)">
       <defs>
        <path d="M 19.1875 8.296875 
L 53.609375 8.296875 
L 53.609375 0 
L 7.328125 0 
L 7.328125 8.296875 
Q 12.9375 14.109375 22.625 23.890625 
Q 32.328125 33.6875 34.8125 36.53125 
Q 39.546875 41.84375 41.421875 45.53125 
Q 43.3125 49.21875 43.3125 52.78125 
Q 43.3125 58.59375 39.234375 62.25 
Q 35.15625 65.921875 28.609375 65.921875 
Q 23.96875 65.921875 18.8125 64.3125 
Q 13.671875 62.703125 7.8125 59.421875 
L 7.8125 69.390625 
Q 13.765625 71.78125 18.9375 73 
Q 24.125 74.21875 28.421875 74.21875 
Q 39.75 74.21875 46.484375 68.546875 
Q 53.21875 62.890625 53.21875 53.421875 
Q 53.21875 48.921875 51.53125 44.890625 
Q 49.859375 40.875 45.40625 35.40625 
Q 44.1875 33.984375 37.640625 27.21875 
Q 31.109375 20.453125 19.1875 8.296875 
z
" id="DejaVuSans-50"/>
       </defs>
       <use xlink:href="#DejaVuSans-48"/>
       <use x="63.623047" xlink:href="#DejaVuSans-46"/>
       <use x="95.410156" xlink:href="#DejaVuSans-50"/>
      </g>
     </g>
    </g>
    <g id="xtick_3">
     <g id="line2d_5">
      <path clip-path="url(#p3197568025)" d="M 261.051429 378 
L 261.051429 51.84 
" style="fill:none;stroke:#b0b0b0;stroke-linecap:square;stroke-width:0.8;"/>
     </g>
     <g id="line2d_6">
      <g>
       <use style="stroke:#000000;stroke-width:0.8;" x="261.051429" xlink:href="#mbcb93eb3e7" y="378"/>
      </g>
     </g>
     <g id="text_3">
      <!-- 0.4 -->
      <g transform="translate(253.099866 392.598437)scale(0.1 -0.1)">
       <defs>
        <path d="M 37.796875 64.3125 
L 12.890625 25.390625 
L 37.796875 25.390625 
z
M 35.203125 72.90625 
L 47.609375 72.90625 
L 47.609375 25.390625 
L 58.015625 25.390625 
L 58.015625 17.1875 
L 47.609375 17.1875 
L 47.609375 0 
L 37.796875 0 
L 37.796875 17.1875 
L 4.890625 17.1875 
L 4.890625 26.703125 
z
" id="DejaVuSans-52"/>
       </defs>
       <use xlink:href="#DejaVuSans-48"/>
       <use x="63.623047" xlink:href="#DejaVuSans-46"/>
       <use x="95.410156" xlink:href="#DejaVuSans-52"/>
      </g>
     </g>
    </g>
    <g id="xtick_4">
     <g id="line2d_7">
      <path clip-path="url(#p3197568025)" d="M 337.577143 378 
L 337.577143 51.84 
" style="fill:none;stroke:#b0b0b0;stroke-linecap:square;stroke-width:0.8;"/>
     </g>
     <g id="line2d_8">
      <g>
       <use style="stroke:#000000;stroke-width:0.8;" x="337.577143" xlink:href="#mbcb93eb3e7" y="378"/>
      </g>
     </g>
     <g id="text_4">
      <!-- 0.6 -->
      <g transform="translate(329.62558 392.598437)scale(0.1 -0.1)">
       <defs>
        <path d="M 33.015625 40.375 
Q 26.375 40.375 22.484375 35.828125 
Q 18.609375 31.296875 18.609375 23.390625 
Q 18.609375 15.53125 22.484375 10.953125 
Q 26.375 6.390625 33.015625 6.390625 
Q 39.65625 6.390625 43.53125 10.953125 
Q 47.40625 15.53125 47.40625 23.390625 
Q 47.40625 31.296875 43.53125 35.828125 
Q 39.65625 40.375 33.015625 40.375 
z
M 52.59375 71.296875 
L 52.59375 62.3125 
Q 48.875 64.0625 45.09375 64.984375 
Q 41.3125 65.921875 37.59375 65.921875 
Q 27.828125 65.921875 22.671875 59.328125 
Q 17.53125 52.734375 16.796875 39.40625 
Q 19.671875 43.65625 24.015625 45.921875 
Q 28.375 48.1875 33.59375 48.1875 
Q 44.578125 48.1875 50.953125 41.515625 
Q 57.328125 34.859375 57.328125 23.390625 
Q 57.328125 12.15625 50.6875 5.359375 
Q 44.046875 -1.421875 33.015625 -1.421875 
Q 20.359375 -1.421875 13.671875 8.265625 
Q 6.984375 17.96875 6.984375 36.375 
Q 6.984375 53.65625 15.1875 63.9375 
Q 23.390625 74.21875 37.203125 74.21875 
Q 40.921875 74.21875 44.703125 73.484375 
Q 48.484375 72.75 52.59375 71.296875 
z
" id="DejaVuSans-54"/>
       </defs>
       <use xlink:href="#DejaVuSans-48"/>
       <use x="63.623047" xlink:href="#DejaVuSans-46"/>
       <use x="95.410156" xlink:href="#DejaVuSans-54"/>
      </g>
     </g>
    </g>
    <g id="xtick_5">
     <g id="line2d_9">
      <path clip-path="url(#p3197568025)" d="M 414.102857 378 
L 414.102857 51.84 
" style="fill:none;stroke:#b0b0b0;stroke-linecap:square;stroke-width:0.8;"/>
     </g>
     <g id="line2d_10">
      <g>
       <use style="stroke:#000000;stroke-width:0.8;" x="414.102857" xlink:href="#mbcb93eb3e7" y="378"/>
      </g>
     </g>
     <g id="text_5">
      <!-- 0.8 -->
      <g transform="translate(406.151295 392.598437)scale(0.1 -0.1)">
       <defs>
        <path d="M 31.78125 34.625 
Q 24.75 34.625 20.71875 30.859375 
Q 16.703125 27.09375 16.703125 20.515625 
Q 16.703125 13.921875 20.71875 10.15625 
Q 24.75 6.390625 31.78125 6.390625 
Q 38.8125 6.390625 42.859375 10.171875 
Q 46.921875 13.96875 46.921875 20.515625 
Q 46.921875 27.09375 42.890625 30.859375 
Q 38.875 34.625 31.78125 34.625 
z
M 21.921875 38.8125 
Q 15.578125 40.375 12.03125 44.71875 
Q 8.5 49.078125 8.5 55.328125 
Q 8.5 64.0625 14.71875 69.140625 
Q 20.953125 74.21875 31.78125 74.21875 
Q 42.671875 74.21875 48.875 69.140625 
Q 55.078125 64.0625 55.078125 55.328125 
Q 55.078125 49.078125 51.53125 44.71875 
Q 48 40.375 41.703125 38.8125 
Q 48.828125 37.15625 52.796875 32.3125 
Q 56.78125 27.484375 56.78125 20.515625 
Q 56.78125 9.90625 50.3125 4.234375 
Q 43.84375 -1.421875 31.78125 -1.421875 
Q 19.734375 -1.421875 13.25 4.234375 
Q 6.78125 9.90625 6.78125 20.515625 
Q 6.78125 27.484375 10.78125 32.3125 
Q 14.796875 37.15625 21.921875 38.8125 
z
M 18.3125 54.390625 
Q 18.3125 48.734375 21.84375 45.5625 
Q 25.390625 42.390625 31.78125 42.390625 
Q 38.140625 42.390625 41.71875 45.5625 
Q 45.3125 48.734375 45.3125 54.390625 
Q 45.3125 60.0625 41.71875 63.234375 
Q 38.140625 66.40625 31.78125 66.40625 
Q 25.390625 66.40625 21.84375 63.234375 
Q 18.3125 60.0625 18.3125 54.390625 
z
" id="DejaVuSans-56"/>
       </defs>
       <use xlink:href="#DejaVuSans-48"/>
       <use x="63.623047" xlink:href="#DejaVuSans-46"/>
       <use x="95.410156" xlink:href="#DejaVuSans-56"/>
      </g>
     </g>
    </g>
    <g id="xtick_6">
     <g id="line2d_11">
      <path clip-path="url(#p3197568025)" d="M 490.628571 378 
L 490.628571 51.84 
" style="fill:none;stroke:#b0b0b0;stroke-linecap:square;stroke-width:0.8;"/>
     </g>
     <g id="line2d_12">
      <g>
       <use style="stroke:#000000;stroke-width:0.8;" x="490.628571" xlink:href="#mbcb93eb3e7" y="378"/>
      </g>
     </g>
     <g id="text_6">
      <!-- 1.0 -->
      <g transform="translate(482.677009 392.598437)scale(0.1 -0.1)">
       <defs>
        <path d="M 12.40625 8.296875 
L 28.515625 8.296875 
L 28.515625 63.921875 
L 10.984375 60.40625 
L 10.984375 69.390625 
L 28.421875 72.90625 
L 38.28125 72.90625 
L 38.28125 8.296875 
L 54.390625 8.296875 
L 54.390625 0 
L 12.40625 0 
z
" id="DejaVuSans-49"/>
       </defs>
       <use xlink:href="#DejaVuSans-49"/>
       <use x="63.623047" xlink:href="#DejaVuSans-46"/>
       <use x="95.410156" xlink:href="#DejaVuSans-48"/>
      </g>
     </g>
    </g>
    <g id="xtick_7">
     <g id="line2d_13">
      <path clip-path="url(#p3197568025)" d="M 567.154286 378 
L 567.154286 51.84 
" style="fill:none;stroke:#b0b0b0;stroke-linecap:square;stroke-width:0.8;"/>
     </g>
     <g id="line2d_14">
      <g>
       <use style="stroke:#000000;stroke-width:0.8;" x="567.154286" xlink:href="#mbcb93eb3e7" y="378"/>
      </g>
     </g>
     <g id="text_7">
      <!-- 1.2 -->
      <g transform="translate(559.202723 392.598437)scale(0.1 -0.1)">
       <use xlink:href="#DejaVuSans-49"/>
       <use x="63.623047" xlink:href="#DejaVuSans-46"/>
       <use x="95.410156" xlink:href="#DejaVuSans-50"/>
      </g>
     </g>
    </g>
    <g id="xtick_8">
     <g id="line2d_15">
      <path clip-path="url(#p3197568025)" d="M 643.68 378 
L 643.68 51.84 
" style="fill:none;stroke:#b0b0b0;stroke-linecap:square;stroke-width:0.8;"/>
     </g>
     <g id="line2d_16">
      <g>
       <use style="stroke:#000000;stroke-width:0.8;" x="643.68" xlink:href="#mbcb93eb3e7" y="378"/>
      </g>
     </g>
     <g id="text_8">
      <!-- 1.4 -->
      <g transform="translate(635.728438 392.598437)scale(0.1 -0.1)">
       <use xlink:href="#DejaVuSans-49"/>
       <use x="63.623047" xlink:href="#DejaVuSans-46"/>
       <use x="95.410156" xlink:href="#DejaVuSans-52"/>
      </g>
     </g>
    </g>
    <g id="xtick_9">
     <g id="line2d_17">
      <path clip-path="url(#p3197568025)" d="M 720.205714 378 
L 720.205714 51.84 
" style="fill:none;stroke:#b0b0b0;stroke-linecap:square;stroke-width:0.8;"/>
     </g>
     <g id="line2d_18">
      <g>
       <use style="stroke:#000000;stroke-width:0.8;" x="720.205714" xlink:href="#mbcb93eb3e7" y="378"/>
      </g>
     </g>
     <g id="text_9">
      <!-- 1.6 -->
      <g transform="translate(712.254152 392.598437)scale(0.1 -0.1)">
       <use xlink:href="#DejaVuSans-49"/>
       <use x="63.623047" xlink:href="#DejaVuSans-46"/>
       <use x="95.410156" xlink:href="#DejaVuSans-54"/>
      </g>
     </g>
    </g>
    <g id="text_10">
     <!-- time (s) -->
     <g transform="translate(423.408594 406.276563)scale(0.1 -0.1)">
      <defs>
       <path d="M 18.3125 70.21875 
L 18.3125 54.6875 
L 36.8125 54.6875 
L 36.8125 47.703125 
L 18.3125 47.703125 
L 18.3125 18.015625 
Q 18.3125 11.328125 20.140625 9.421875 
Q 21.96875 7.515625 27.59375 7.515625 
L 36.8125 7.515625 
L 36.8125 0 
L 27.59375 0 
Q 17.1875 0 13.234375 3.875 
Q 9.28125 7.765625 9.28125 18.015625 
L 9.28125 47.703125 
L 2.6875 47.703125 
L 2.6875 54.6875 
L 9.28125 54.6875 
L 9.28125 70.21875 
z
" id="DejaVuSans-116"/>
       <path d="M 9.421875 54.6875 
L 18.40625 54.6875 
L 18.40625 0 
L 9.421875 0 
z
M 9.421875 75.984375 
L 18.40625 75.984375 
L 18.40625 64.59375 
L 9.421875 64.59375 
z
" id="DejaVuSans-105"/>
       <path d="M 52 44.1875 
Q 55.375 50.25 60.0625 53.125 
Q 64.75 56 71.09375 56 
Q 79.640625 56 84.28125 50.015625 
Q 88.921875 44.046875 88.921875 33.015625 
L 88.921875 0 
L 79.890625 0 
L 79.890625 32.71875 
Q 79.890625 40.578125 77.09375 44.375 
Q 74.3125 48.1875 68.609375 48.1875 
Q 61.625 48.1875 57.5625 43.546875 
Q 53.515625 38.921875 53.515625 30.90625 
L 53.515625 0 
L 44.484375 0 
L 44.484375 32.71875 
Q 44.484375 40.625 41.703125 44.40625 
Q 38.921875 48.1875 33.109375 48.1875 
Q 26.21875 48.1875 22.15625 43.53125 
Q 18.109375 38.875 18.109375 30.90625 
L 18.109375 0 
L 9.078125 0 
L 9.078125 54.6875 
L 18.109375 54.6875 
L 18.109375 46.1875 
Q 21.1875 51.21875 25.484375 53.609375 
Q 29.78125 56 35.6875 56 
Q 41.65625 56 45.828125 52.96875 
Q 50 49.953125 52 44.1875 
z
" id="DejaVuSans-109"/>
       <path d="M 56.203125 29.59375 
L 56.203125 25.203125 
L 14.890625 25.203125 
Q 15.484375 15.921875 20.484375 11.0625 
Q 25.484375 6.203125 34.421875 6.203125 
Q 39.59375 6.203125 44.453125 7.46875 
Q 49.3125 8.734375 54.109375 11.28125 
L 54.109375 2.78125 
Q 49.265625 0.734375 44.1875 -0.34375 
Q 39.109375 -1.421875 33.890625 -1.421875 
Q 20.796875 -1.421875 13.15625 6.1875 
Q 5.515625 13.8125 5.515625 26.8125 
Q 5.515625 40.234375 12.765625 48.109375 
Q 20.015625 56 32.328125 56 
Q 43.359375 56 49.78125 48.890625 
Q 56.203125 41.796875 56.203125 29.59375 
z
M 47.21875 32.234375 
Q 47.125 39.59375 43.09375 43.984375 
Q 39.0625 48.390625 32.421875 48.390625 
Q 24.90625 48.390625 20.390625 44.140625 
Q 15.875 39.890625 15.1875 32.171875 
z
" id="DejaVuSans-101"/>
       <path id="DejaVuSans-32"/>
       <path d="M 31 75.875 
Q 24.46875 64.65625 21.28125 53.65625 
Q 18.109375 42.671875 18.109375 31.390625 
Q 18.109375 20.125 21.3125 9.0625 
Q 24.515625 -2 31 -13.1875 
L 23.1875 -13.1875 
Q 15.875 -1.703125 12.234375 9.375 
Q 8.59375 20.453125 8.59375 31.390625 
Q 8.59375 42.28125 12.203125 53.3125 
Q 15.828125 64.359375 23.1875 75.875 
z
" id="DejaVuSans-40"/>
       <path d="M 44.28125 53.078125 
L 44.28125 44.578125 
Q 40.484375 46.53125 36.375 47.5 
Q 32.28125 48.484375 27.875 48.484375 
Q 21.1875 48.484375 17.84375 46.4375 
Q 14.5 44.390625 14.5 40.28125 
Q 14.5 37.15625 16.890625 35.375 
Q 19.28125 33.59375 26.515625 31.984375 
L 29.59375 31.296875 
Q 39.15625 29.25 43.1875 25.515625 
Q 47.21875 21.78125 47.21875 15.09375 
Q 47.21875 7.46875 41.1875 3.015625 
Q 35.15625 -1.421875 24.609375 -1.421875 
Q 20.21875 -1.421875 15.453125 -0.5625 
Q 10.6875 0.296875 5.421875 2 
L 5.421875 11.28125 
Q 10.40625 8.6875 15.234375 7.390625 
Q 20.0625 6.109375 24.8125 6.109375 
Q 31.15625 6.109375 34.5625 8.28125 
Q 37.984375 10.453125 37.984375 14.40625 
Q 37.984375 18.0625 35.515625 20.015625 
Q 33.0625 21.96875 24.703125 23.78125 
L 21.578125 24.515625 
Q 13.234375 26.265625 9.515625 29.90625 
Q 5.8125 33.546875 5.8125 39.890625 
Q 5.8125 47.609375 11.28125 51.796875 
Q 16.75 56 26.8125 56 
Q 31.78125 56 36.171875 55.265625 
Q 40.578125 54.546875 44.28125 53.078125 
z
" id="DejaVuSans-115"/>
       <path d="M 8.015625 75.875 
L 15.828125 75.875 
Q 23.140625 64.359375 26.78125 53.3125 
Q 30.421875 42.28125 30.421875 31.390625 
Q 30.421875 20.453125 26.78125 9.375 
Q 23.140625 -1.703125 15.828125 -13.1875 
L 8.015625 -13.1875 
Q 14.5 -2 17.703125 9.0625 
Q 20.90625 20.125 20.90625 31.390625 
Q 20.90625 42.671875 17.703125 53.65625 
Q 14.5 64.65625 8.015625 75.875 
z
" id="DejaVuSans-41"/>
      </defs>
      <use xlink:href="#DejaVuSans-116"/>
      <use x="39.208984" xlink:href="#DejaVuSans-105"/>
      <use x="66.992188" xlink:href="#DejaVuSans-109"/>
      <use x="164.404297" xlink:href="#DejaVuSans-101"/>
      <use x="225.927734" xlink:href="#DejaVuSans-32"/>
      <use x="257.714844" xlink:href="#DejaVuSans-40"/>
      <use x="296.728516" xlink:href="#DejaVuSans-115"/>
      <use x="348.828125" xlink:href="#DejaVuSans-41"/>
     </g>
    </g>
   </g>
   <g id="matplotlib.axis_2">
    <g id="ytick_1">
     <g id="line2d_19">
      <path clip-path="url(#p3197568025)" d="M 108 378 
L 777.6 378 
" style="fill:none;stroke:#b0b0b0;stroke-linecap:square;stroke-width:0.8;"/>
     </g>
     <g id="line2d_20">
      <defs>
       <path d="M 0 0 
L -3.5 0 
" id="m55eab109f2" style="stroke:#000000;stroke-width:0.8;"/>
      </defs>
      <g>
       <use style="stroke:#000000;stroke-width:0.8;" x="108" xlink:href="#m55eab109f2" y="378"/>
      </g>
     </g>
     <g id="text_11">
      <!-- −15 -->
      <g transform="translate(79.895313 381.799219)scale(0.1 -0.1)">
       <defs>
        <path d="M 10.59375 35.5 
L 73.1875 35.5 
L 73.1875 27.203125 
L 10.59375 27.203125 
z
" id="DejaVuSans-8722"/>
        <path d="M 10.796875 72.90625 
L 49.515625 72.90625 
L 49.515625 64.59375 
L 19.828125 64.59375 
L 19.828125 46.734375 
Q 21.96875 47.46875 24.109375 47.828125 
Q 26.265625 48.1875 28.421875 48.1875 
Q 40.625 48.1875 47.75 41.5 
Q 54.890625 34.8125 54.890625 23.390625 
Q 54.890625 11.625 47.5625 5.09375 
Q 40.234375 -1.421875 26.90625 -1.421875 
Q 22.3125 -1.421875 17.546875 -0.640625 
Q 12.796875 0.140625 7.71875 1.703125 
L 7.71875 11.625 
Q 12.109375 9.234375 16.796875 8.0625 
Q 21.484375 6.890625 26.703125 6.890625 
Q 35.15625 6.890625 40.078125 11.328125 
Q 45.015625 15.765625 45.015625 23.390625 
Q 45.015625 31 40.078125 35.4375 
Q 35.15625 39.890625 26.703125 39.890625 
Q 22.75 39.890625 18.8125 39.015625 
Q 14.890625 38.140625 10.796875 36.28125 
z
" id="DejaVuSans-53"/>
       </defs>
       <use xlink:href="#DejaVuSans-8722"/>
       <use x="83.789062" xlink:href="#DejaVuSans-49"/>
       <use x="147.412109" xlink:href="#DejaVuSans-53"/>
      </g>
     </g>
    </g>
    <g id="ytick_2">
     <g id="line2d_21">
      <path clip-path="url(#p3197568025)" d="M 108 323.64 
L 777.6 323.64 
" style="fill:none;stroke:#b0b0b0;stroke-linecap:square;stroke-width:0.8;"/>
     </g>
     <g id="line2d_22">
      <g>
       <use style="stroke:#000000;stroke-width:0.8;" x="108" xlink:href="#m55eab109f2" y="323.64"/>
      </g>
     </g>
     <g id="text_12">
      <!-- −10 -->
      <g transform="translate(79.895313 327.439219)scale(0.1 -0.1)">
       <use xlink:href="#DejaVuSans-8722"/>
       <use x="83.789062" xlink:href="#DejaVuSans-49"/>
       <use x="147.412109" xlink:href="#DejaVuSans-48"/>
      </g>
     </g>
    </g>
    <g id="ytick_3">
     <g id="line2d_23">
      <path clip-path="url(#p3197568025)" d="M 108 269.28 
L 777.6 269.28 
" style="fill:none;stroke:#b0b0b0;stroke-linecap:square;stroke-width:0.8;"/>
     </g>
     <g id="line2d_24">
      <g>
       <use style="stroke:#000000;stroke-width:0.8;" x="108" xlink:href="#m55eab109f2" y="269.28"/>
      </g>
     </g>
     <g id="text_13">
      <!-- −5 -->
      <g transform="translate(86.257812 273.079219)scale(0.1 -0.1)">
       <use xlink:href="#DejaVuSans-8722"/>
       <use x="83.789062" xlink:href="#DejaVuSans-53"/>
      </g>
     </g>
    </g>
    <g id="ytick_4">
     <g id="line2d_25">
      <path clip-path="url(#p3197568025)" d="M 108 214.92 
L 777.6 214.92 
" style="fill:none;stroke:#b0b0b0;stroke-linecap:square;stroke-width:0.8;"/>
     </g>
     <g id="line2d_26">
      <g>
       <use style="stroke:#000000;stroke-width:0.8;" x="108" xlink:href="#m55eab109f2" y="214.92"/>
      </g>
     </g>
     <g id="text_14">
      <!-- 0 -->
      <g transform="translate(94.6375 218.719219)scale(0.1 -0.1)">
       <use xlink:href="#DejaVuSans-48"/>
      </g>
     </g>
    </g>
    <g id="ytick_5">
     <g id="line2d_27">
      <path clip-path="url(#p3197568025)" d="M 108 160.56 
L 777.6 160.56 
" style="fill:none;stroke:#b0b0b0;stroke-linecap:square;stroke-width:0.8;"/>
     </g>
     <g id="line2d_28">
      <g>
       <use style="stroke:#000000;stroke-width:0.8;" x="108" xlink:href="#m55eab109f2" y="160.56"/>
      </g>
     </g>
     <g id="text_15">
      <!-- 5 -->
      <g transform="translate(94.6375 164.359219)scale(0.1 -0.1)">
       <use xlink:href="#DejaVuSans-53"/>
      </g>
     </g>
    </g>
    <g id="ytick_6">
     <g id="line2d_29">
      <path clip-path="url(#p3197568025)" d="M 108 106.2 
L 777.6 106.2 
" style="fill:none;stroke:#b0b0b0;stroke-linecap:square;stroke-width:0.8;"/>
     </g>
     <g id="line2d_30">
      <g>
       <use style="stroke:#000000;stroke-width:0.8;" x="108" xlink:href="#m55eab109f2" y="106.2"/>
      </g>
     </g>
     <g id="text_16">
      <!-- 10 -->
      <g transform="translate(88.275 109.999219)scale(0.1 -0.1)">
       <use xlink:href="#DejaVuSans-49"/>
       <use x="63.623047" xlink:href="#DejaVuSans-48"/>
      </g>
     </g>
    </g>
    <g id="ytick_7">
     <g id="line2d_31">
      <path clip-path="url(#p3197568025)" d="M 108 51.84 
L 777.6 51.84 
" style="fill:none;stroke:#b0b0b0;stroke-linecap:square;stroke-width:0.8;"/>
     </g>
     <g id="line2d_32">
      <g>
       <use style="stroke:#000000;stroke-width:0.8;" x="108" xlink:href="#m55eab109f2" y="51.84"/>
      </g>
     </g>
     <g id="text_17">
      <!-- 15 -->
      <g transform="translate(88.275 55.639219)scale(0.1 -0.1)">
       <use xlink:href="#DejaVuSans-49"/>
       <use x="63.623047" xlink:href="#DejaVuSans-53"/>
      </g>
     </g>
    </g>
    <g id="text_18">
     <!-- a(t) -->
     <g transform="translate(73.815625 223.845781)rotate(-90)scale(0.1 -0.1)">
      <defs>
       <path d="M 34.28125 27.484375 
Q 23.390625 27.484375 19.1875 25 
Q 14.984375 22.515625 14.984375 16.5 
Q 14.984375 11.71875 18.140625 8.90625 
Q 21.296875 6.109375 26.703125 6.109375 
Q 34.1875 6.109375 38.703125 11.40625 
Q 43.21875 16.703125 43.21875 25.484375 
L 43.21875 27.484375 
z
M 52.203125 31.203125 
L 52.203125 0 
L 43.21875 0 
L 43.21875 8.296875 
Q 40.140625 3.328125 35.546875 0.953125 
Q 30.953125 -1.421875 24.3125 -1.421875 
Q 15.921875 -1.421875 10.953125 3.296875 
Q 6 8.015625 6 15.921875 
Q 6 25.140625 12.171875 29.828125 
Q 18.359375 34.515625 30.609375 34.515625 
L 43.21875 34.515625 
L 43.21875 35.40625 
Q 43.21875 41.609375 39.140625 45 
Q 35.0625 48.390625 27.6875 48.390625 
Q 23 48.390625 18.546875 47.265625 
Q 14.109375 46.140625 10.015625 43.890625 
L 10.015625 52.203125 
Q 14.9375 54.109375 19.578125 55.046875 
Q 24.21875 56 28.609375 56 
Q 40.484375 56 46.34375 49.84375 
Q 52.203125 43.703125 52.203125 31.203125 
z
" id="DejaVuSans-97"/>
      </defs>
      <use xlink:href="#DejaVuSans-97"/>
      <use x="61.279297" xlink:href="#DejaVuSans-40"/>
      <use x="100.292969" xlink:href="#DejaVuSans-116"/>
      <use x="139.501953" xlink:href="#DejaVuSans-41"/>
     </g>
    </g>
   </g>
   <g id="line2d_33">
    <path clip-path="url(#p3197568025)" d="M 108 213.237325 
L 109.041697 212.535177 
L 111.125091 208.396855 
L 112.166788 206.668008 
L 114.250183 197.859526 
L 115.29188 192.486166 
L 116.333577 185.407327 
L 118.416971 175.433858 
L 120.500365 162.674091 
L 121.542062 158.701926 
L 122.58376 152.704344 
L 123.625457 144.596377 
L 124.667154 138.971366 
L 125.708851 134.395951 
L 126.750548 132.059626 
L 127.792245 133.376021 
L 128.833942 138.209431 
L 129.875639 140.791757 
L 130.917336 149.400231 
L 131.959034 177.730537 
L 133.000731 197.845193 
L 135.084125 213.597279 
L 136.125822 220.219527 
L 137.167519 223.324604 
L 138.209216 222.321435 
L 139.250913 215.443414 
L 140.29261 205.229773 
L 141.334308 205.878736 
L 142.376005 215.823183 
L 143.417702 247.080448 
L 144.459399 289.077884 
L 145.501096 320.647638 
L 146.542793 339.397672 
L 147.58449 342.942284 
L 148.626187 340.628625 
L 149.667884 337.05083 
L 150.709582 338.517872 
L 151.751279 340.412886 
L 152.792976 340.249224 
L 153.834673 330.613585 
L 154.87637 316.523716 
L 155.918067 297.995334 
L 156.959764 275.612186 
L 158.001461 263.280973 
L 159.043158 267.280395 
L 160.084856 278.552159 
L 161.126553 285.46348 
L 162.16825 283.143958 
L 164.251644 256.083604 
L 165.293341 236.370866 
L 166.335038 221.03093 
L 167.376735 214.995536 
L 168.418432 215.310487 
L 169.460129 219.222485 
L 170.501827 219.302719 
L 171.543524 208.534242 
L 172.585221 176.92254 
L 173.626918 131.769308 
L 174.668615 98.073602 
L 175.710312 95.706747 
L 176.752009 111.165434 
L 177.793706 131.111488 
L 178.835403 147.432832 
L 179.877101 160.806841 
L 180.918798 162.576834 
L 181.960495 152.464551 
L 183.002192 129.529934 
L 184.043889 122.012957 
L 185.085586 130.103121 
L 186.127283 140.52051 
L 187.16898 139.792213 
L 188.210677 132.045458 
L 189.252375 119.571496 
L 190.294072 123.099092 
L 191.335769 143.991574 
L 192.377466 180.758062 
L 193.419163 210.028192 
L 194.46086 225.127718 
L 195.502557 237.307775 
L 196.544254 242.126562 
L 197.585951 236.021716 
L 198.627649 222.86571 
L 199.669346 214.616084 
L 200.711043 221.554369 
L 201.75274 244.508955 
L 202.794437 257.847333 
L 203.836134 265.460869 
L 204.877831 267.469205 
L 205.919528 263.64785 
L 206.961225 257.505068 
L 208.002923 253.957997 
L 209.04462 256.756086 
L 211.128014 289.688194 
L 212.169711 307.459309 
L 213.211408 316.5573 
L 216.336499 269.518718 
L 217.378197 267.836368 
L 218.419894 266.488022 
L 219.461591 259.516947 
L 220.503288 255.305132 
L 221.544985 248.291843 
L 222.586682 233.8972 
L 223.628379 217.335805 
L 224.670076 207.308017 
L 225.711773 201.696408 
L 226.753471 207.016031 
L 228.836865 230.630293 
L 229.878562 231.322413 
L 230.920259 222.75752 
L 231.961956 205.353698 
L 234.04535 180.53566 
L 235.087047 165.224578 
L 236.128745 161.085814 
L 237.170442 160.215866 
L 238.212139 161.597167 
L 239.253836 159.231594 
L 240.295533 149.656036 
L 241.33723 142.943674 
L 242.378927 143.887797 
L 243.420624 157.646005 
L 244.462321 174.748098 
L 245.504019 182.703947 
L 246.545716 183.230596 
L 249.670807 171.867055 
L 250.712504 171.439024 
L 251.754201 177.914942 
L 252.795898 190.455744 
L 253.837595 201.507565 
L 254.879293 208.480086 
L 255.92099 211.237296 
L 256.962687 207.893492 
L 258.004384 205.854754 
L 259.046081 207.257281 
L 260.087778 213.779834 
L 261.129475 222.983601 
L 262.171172 238.047026 
L 263.212869 250.020576 
L 264.254567 257.123579 
L 265.296264 256.661723 
L 266.337961 248.118131 
L 267.379658 243.150207 
L 268.421355 242.72556 
L 269.463052 246.349172 
L 270.504749 251.832231 
L 271.546446 258.767825 
L 272.588143 260.04979 
L 273.629841 255.77718 
L 274.671538 249.761322 
L 275.713235 247.518603 
L 276.754932 248.977993 
L 277.796629 254.499956 
L 278.838326 261.851331 
L 279.880023 266.548089 
L 280.92172 262.117068 
L 281.963417 250.439977 
L 283.005114 233.6608 
L 284.046812 226.112068 
L 285.088509 221.638365 
L 286.130206 218.426314 
L 287.171903 219.021496 
L 288.2136 220.523219 
L 289.255297 220.410202 
L 290.296994 217.649697 
L 291.338691 212.858695 
L 292.380388 204.64594 
L 293.422086 198.269145 
L 294.463783 194.775948 
L 295.50548 194.313035 
L 296.547177 196.329052 
L 297.588874 195.553759 
L 298.630571 190.427362 
L 300.713965 172.101084 
L 301.755662 165.920125 
L 302.79736 164.987186 
L 303.839057 169.010384 
L 304.880754 175.746942 
L 305.922451 178.579104 
L 306.964148 177.565736 
L 309.047542 171.667231 
L 310.089239 171.605059 
L 311.130936 177.978982 
L 312.172634 186.731234 
L 313.214331 197.238952 
L 314.256028 201.844811 
L 315.297725 204.261145 
L 316.339422 205.276431 
L 317.381119 204.117771 
L 318.422816 205.03106 
L 319.464513 207.79079 
L 320.50621 211.998939 
L 322.589605 216.955627 
L 324.672999 223.319424 
L 326.756393 232.103651 
L 327.79809 235.201209 
L 328.839787 237.823535 
L 329.881484 241.891157 
L 330.923182 246.498063 
L 331.964879 249.035217 
L 333.006576 249.24537 
L 334.048273 249.315171 
L 335.08997 250.103702 
L 336.131667 251.737097 
L 337.173364 251.016887 
L 338.215061 248.673108 
L 339.256758 247.41883 
L 340.298456 247.777057 
L 341.340153 248.622949 
L 342.38185 248.437875 
L 343.423547 246.075744 
L 346.548638 236.93321 
L 348.632032 228.693492 
L 349.67373 223.299102 
L 350.715427 222.680664 
L 351.757124 222.682173 
L 352.798821 222.078178 
L 355.923912 214.053283 
L 356.965609 211.959039 
L 358.007306 208.817199 
L 360.090701 196.589758 
L 361.132398 191.671709 
L 362.174095 188.109837 
L 363.215792 185.666448 
L 364.257489 181.58133 
L 365.299186 175.003078 
L 366.340883 172.526556 
L 367.38258 174.730506 
L 369.465975 182.791506 
L 370.507672 183.760097 
L 371.549369 183.088605 
L 373.632763 181.241324 
L 374.67446 180.368786 
L 375.716157 180.605804 
L 376.757854 183.141768 
L 377.799552 188.883621 
L 379.882946 197.495405 
L 380.924643 199.824291 
L 381.96634 203.197251 
L 383.008037 208.532639 
L 384.049734 211.499054 
L 387.174825 217.721028 
L 389.25822 220.701242 
L 394.466705 235.076313 
L 395.508402 236.86806 
L 396.550099 236.577575 
L 397.591797 235.537216 
L 398.633494 236.929963 
L 399.675191 240.22764 
L 400.716888 242.982646 
L 401.758585 245.207271 
L 402.800282 248.398008 
L 403.841979 249.777489 
L 404.883676 248.887981 
L 405.925373 247.803967 
L 406.967071 246.418547 
L 408.008768 244.827404 
L 409.050465 243.931557 
L 410.092162 242.524215 
L 411.133859 239.265825 
L 412.175556 235.083155 
L 413.217253 229.844831 
L 414.25895 226.001831 
L 415.300647 223.270346 
L 416.342345 221.509427 
L 417.384042 220.885111 
L 418.425739 221.323613 
L 419.467436 221.474916 
L 421.55083 218.623414 
L 422.592527 218.002385 
L 423.634224 216.893479 
L 424.675921 213.49315 
L 425.717619 209.544246 
L 427.801013 202.312431 
L 429.884407 192.120786 
L 430.926104 188.327161 
L 431.967801 182.435717 
L 433.009498 178.994339 
L 434.051195 177.786867 
L 435.092893 179.725791 
L 437.176287 188.935018 
L 438.217984 193.025309 
L 439.259681 194.412814 
L 440.301378 192.010472 
L 441.343075 188.462737 
L 442.384772 187.583554 
L 443.426469 188.495663 
L 444.468167 189.63962 
L 445.509864 191.476842 
L 446.551561 194.415363 
L 447.593258 195.087288 
L 448.634955 196.604449 
L 449.676652 199.360355 
L 450.718349 204.176666 
L 452.801743 212.086058 
L 453.843441 216.651842 
L 454.885138 219.713394 
L 455.926835 221.069208 
L 456.968532 220.576378 
L 458.010229 220.776835 
L 459.051926 222.101887 
L 461.13532 226.297093 
L 462.177017 229.027282 
L 463.218715 229.769342 
L 464.260412 228.794836 
L 465.302109 227.982765 
L 466.343806 227.762175 
L 467.385503 227.425796 
L 468.4272 227.316535 
L 469.468897 229.833573 
L 470.510594 233.709128 
L 471.552291 239.021756 
L 472.593989 242.041091 
L 473.635686 242.296984 
L 474.677383 241.053126 
L 475.71908 238.973517 
L 476.760777 237.561341 
L 477.802474 236.962975 
L 478.844171 235.969341 
L 479.885868 232.749807 
L 480.927565 230.502479 
L 481.969263 229.171834 
L 483.01096 226.427572 
L 484.052657 221.5925 
L 485.094354 219.522284 
L 486.136051 219.18154 
L 487.177748 220.088472 
L 488.219445 221.246362 
L 489.261142 222.131938 
L 490.302839 221.929796 
L 491.344537 220.65345 
L 492.386234 219.017878 
L 493.427931 218.098466 
L 494.469628 216.979918 
L 495.511325 215.036658 
L 496.553022 212.080318 
L 498.636416 207.226993 
L 499.678113 202.910223 
L 500.71981 199.391197 
L 501.761508 195.29979 
L 502.803205 192.445503 
L 503.844902 191.483102 
L 504.886599 191.956056 
L 505.928296 194.985704 
L 506.969993 199.104174 
L 509.053387 202.870947 
L 510.095084 202.746728 
L 511.136782 200.369844 
L 512.178479 198.994314 
L 513.220176 197.985281 
L 514.261873 197.967204 
L 515.30357 197.700394 
L 516.345267 196.763246 
L 517.386964 196.56982 
L 518.428661 197.265494 
L 520.512056 201.974665 
L 521.553753 204.462521 
L 523.637147 213.410941 
L 525.720541 218.022652 
L 526.762238 218.877591 
L 527.803935 218.471379 
L 528.845632 217.403275 
L 529.88733 217.504241 
L 531.970724 219.474344 
L 533.012421 219.639954 
L 535.095815 220.428234 
L 536.137512 220.941614 
L 537.179209 221.124758 
L 538.220906 220.588795 
L 539.262604 220.693117 
L 540.304301 222.06993 
L 541.345998 224.625845 
L 543.429392 228.946328 
L 544.471089 230.290765 
L 545.512786 230.474328 
L 546.554483 230.417518 
L 547.59618 228.43628 
L 548.637878 226.797849 
L 550.721272 225.959834 
L 551.762969 225.542768 
L 552.804666 224.930197 
L 553.846363 224.009533 
L 554.88806 222.687024 
L 555.929757 220.508633 
L 556.971454 218.851332 
L 558.013152 218.421155 
L 559.054849 219.190486 
L 561.138243 220.424512 
L 562.17994 220.855162 
L 564.263334 220.817119 
L 565.305031 220.216203 
L 566.346728 218.212647 
L 567.388426 216.942746 
L 568.430123 216.189932 
L 570.513517 213.907944 
L 571.555214 211.860472 
L 572.596911 209.499963 
L 573.638608 207.482315 
L 574.680305 205.853029 
L 575.722002 204.865822 
L 576.7637 204.623665 
L 578.847094 206.74862 
L 579.888791 208.051448 
L 580.930488 209.088872 
L 581.972185 209.750375 
L 583.013882 210.079246 
L 584.055579 209.654634 
L 585.097276 209.414064 
L 586.138974 208.187622 
L 587.180671 206.610106 
L 588.222368 205.437374 
L 589.264065 204.464909 
L 591.347459 203.79987 
L 592.389156 204.419977 
L 594.47255 207.339642 
L 595.514248 210.167579 
L 596.555945 211.859578 
L 597.597642 212.852733 
L 598.639339 214.077901 
L 599.681036 214.715368 
L 600.722733 214.734431 
L 601.76443 215.798732 
L 602.806127 215.40341 
L 604.889522 213.879362 
L 606.972916 213.80713 
L 608.014613 214.071483 
L 609.05631 214.120159 
L 610.098007 214.341708 
L 611.139704 214.788802 
L 612.181401 216.261303 
L 613.223098 218.085491 
L 614.264795 219.023172 
L 615.306493 219.54026 
L 617.389887 221.075737 
L 618.431584 221.252738 
L 619.473281 221.135699 
L 621.556675 220.082382 
L 623.640069 218.722307 
L 625.723464 217.254729 
L 626.765161 217.142642 
L 628.848555 217.630692 
L 629.890252 218.187243 
L 630.931949 219.018358 
L 633.015343 219.32001 
L 634.057041 220.13205 
L 635.098738 220.459584 
L 636.140435 220.001731 
L 637.182132 219.947419 
L 638.223829 219.320606 
L 639.265526 219.033822 
L 640.307223 218.372477 
L 642.390617 216.115081 
L 643.432315 215.212653 
L 644.474012 214.728784 
L 645.515709 214.475112 
L 647.599103 214.395056 
L 649.682497 214.009929 
L 650.724194 213.92565 
L 651.765891 214.507297 
L 652.807589 214.808677 
L 655.93268 214.696359 
L 658.016074 213.321415 
L 661.141165 211.52371 
L 662.182863 210.933242 
L 663.22456 210.535068 
L 664.266257 210.715886 
L 665.307954 210.277439 
L 667.391348 211.115484 
L 668.433045 212.007974 
L 669.474742 212.552776 
L 670.516439 212.547398 
L 671.558137 212.764911 
L 672.599834 213.144063 
L 675.724925 212.055232 
L 677.808319 211.714793 
L 678.850016 211.528246 
L 679.891713 211.528246 
L 681.975108 212.324075 
L 683.016805 212.334065 
L 685.100199 213.814438 
L 686.141896 213.883043 
L 689.266987 214.60451 
L 690.308685 215.124231 
L 692.392079 215.080439 
L 693.433776 214.837629 
L 694.475473 214.840282 
L 695.51717 215.0389 
L 696.558867 214.778959 
L 700.725656 215.404871 
L 703.850747 216.8158 
L 704.892444 217.47329 
L 705.934141 217.908027 
L 706.975838 217.762664 
L 708.017535 217.952333 
L 709.059233 218.470946 
L 710.10093 218.842342 
L 711.142627 218.738695 
L 712.184324 218.483873 
L 713.226021 218.514552 
L 714.267718 217.751612 
L 715.309415 217.328379 
L 717.392809 217.599275 
L 718.434506 217.431763 
L 720.517901 217.789791 
L 721.559598 217.557485 
L 723.642992 217.451389 
L 724.684689 217.738042 
L 725.726386 217.641959 
L 726.768083 217.406491 
L 728.851478 217.495644 
L 729.893175 216.689053 
L 730.934872 216.083268 
L 731.976569 215.899985 
L 733.018266 215.455808 
L 734.059963 214.800925 
L 735.10166 213.897171 
L 736.143357 214.260935 
L 737.185054 214.221012 
L 738.226752 213.822907 
L 739.268449 213.630262 
L 740.310146 213.931474 
L 741.351843 213.616593 
L 742.39354 213.11158 
L 743.435237 213.028132 
L 744.476934 213.202018 
L 745.518631 213.130484 
L 747.602026 212.670932 
L 749.68542 211.349373 
L 752.810511 210.365894 
L 754.893905 210.0764 
L 755.935602 210.16679 
L 756.9773 210.732486 
L 759.060694 211.428519 
L 760.102391 211.944856 
L 761.144088 212.16454 
L 762.185785 211.79441 
L 763.227482 211.958066 
L 764.269179 212.449089 
L 765.310876 212.738226 
L 766.352574 212.583567 
L 767.394271 212.60898 
L 768.435968 212.971159 
L 769.477665 213.155674 
L 771.561059 214.13177 
L 773.644453 215.027985 
L 774.68615 215.035897 
L 775.727848 215.269291 
L 777.811242 216.021095 
L 777.811242 216.021095 
" style="fill:none;stroke:#1f77b4;stroke-linecap:square;stroke-width:1.5;"/>
   </g>
   <g id="line2d_34">
    <path clip-path="url(#p3197568025)" d="M 108 193.538958 
L 110.083394 173.690266 
L 112.166788 156.076503 
L 114.250183 141.422323 
L 115.29188 135.392438 
L 116.333577 130.30699 
L 117.375274 126.212013 
L 118.416971 123.142088 
L 119.458668 121.120093 
L 120.500365 120.157069 
L 121.542062 120.25223 
L 122.58376 121.393098 
L 123.625457 123.555768 
L 124.667154 126.705294 
L 125.708851 130.796196 
L 126.750548 135.773079 
L 127.792245 141.571345 
L 129.875639 155.332622 
L 131.959034 171.41223 
L 135.084125 198.211305 
L 139.250913 234.671738 
L 141.334308 251.412155 
L 143.417702 266.192225 
L 144.459399 272.653018 
L 145.501096 278.405702 
L 146.542793 283.394314 
L 147.58449 287.571946 
L 148.626187 290.901163 
L 149.667884 293.354315 
L 150.709582 294.913736 
L 151.751279 295.571835 
L 152.792976 295.331066 
L 153.834673 294.203798 
L 154.87637 292.212066 
L 155.918067 289.387227 
L 156.959764 285.769511 
L 158.001461 281.407479 
L 159.043158 276.357398 
L 161.126553 264.452388 
L 163.209947 250.630256 
L 166.335038 227.731154 
L 170.501827 196.796654 
L 172.585221 182.683585 
L 174.668615 170.287746 
L 175.710312 164.89622 
L 176.752009 160.116018 
L 177.793706 155.993394 
L 178.835403 152.566831 
L 179.877101 149.8667 
L 180.918798 147.915014 
L 181.960495 146.72527 
L 183.002192 146.302397 
L 184.043889 146.64279 
L 185.085586 147.734443 
L 186.127283 149.557175 
L 187.16898 152.082938 
L 188.210677 155.276214 
L 189.252375 159.094488 
L 190.294072 163.488792 
L 192.377466 173.781094 
L 194.46086 185.656961 
L 197.585951 205.216154 
L 201.75274 231.452876 
L 203.836134 243.345964 
L 205.919528 253.736656 
L 206.961225 258.232761 
L 208.002923 262.201415 
L 209.04462 265.604429 
L 210.086317 268.410286 
L 211.128014 270.594408 
L 212.169711 272.139359 
L 213.211408 273.034959 
L 214.253105 273.278315 
L 215.294802 272.87378 
L 216.336499 271.832823 
L 217.378197 270.173824 
L 218.419894 267.921801 
L 219.461591 265.108056 
L 220.503288 261.769768 
L 221.544985 257.94951 
L 223.628379 249.057155 
L 225.711773 238.85831 
L 228.836865 222.158214 
L 233.003653 199.913819 
L 235.087047 189.895779 
L 237.170442 181.19064 
L 238.212139 177.443941 
L 239.253836 174.152068 
L 240.295533 171.346506 
L 241.33723 169.053026 
L 242.378927 167.291458 
L 243.420624 166.075536 
L 244.462321 165.412812 
L 245.504019 165.304641 
L 246.545716 165.746232 
L 247.587413 166.726765 
L 248.62911 168.22958 
L 249.670807 170.232422 
L 250.712504 172.707745 
L 251.754201 175.623078 
L 253.837595 182.621777 
L 255.92099 190.886972 
L 259.046081 204.798077 
L 264.254567 228.48047 
L 266.337961 236.915421 
L 268.421355 244.204336 
L 269.463052 247.324202 
L 270.504749 250.052091 
L 271.546446 252.362072 
L 272.588143 254.233118 
L 273.629841 255.649278 
L 274.671538 256.599807 
L 275.713235 257.079222 
L 276.754932 257.087309 
L 277.796629 256.629067 
L 278.838326 255.7146 
L 279.880023 254.358943 
L 280.92172 252.581851 
L 281.963417 250.407522 
L 283.005114 247.864288 
L 285.088509 241.802894 
L 287.171903 234.692426 
L 290.296994 222.798357 
L 294.463783 206.546926 
L 296.547177 199.056798 
L 298.630571 192.423412 
L 300.713965 186.919351 
L 301.755662 184.6611 
L 302.79736 182.761803 
L 303.839057 181.238584 
L 304.880754 180.104226 
L 305.922451 179.367071 
L 306.964148 179.030981 
L 308.005845 179.095343 
L 309.047542 179.555121 
L 310.089239 180.400961 
L 311.130936 181.619342 
L 312.172634 183.192771 
L 313.214331 185.100017 
L 314.256028 187.316386 
L 316.339422 192.562312 
L 318.422816 198.676321 
L 321.547908 208.841851 
L 325.714696 222.633172 
L 327.79809 228.949325 
L 329.881484 234.514397 
L 331.964879 239.1004 
L 333.006576 240.967881 
L 334.048273 242.527189 
L 335.08997 243.764409 
L 336.131667 244.66934 
L 337.173364 245.235564 
L 338.215061 245.460477 
L 339.256758 245.345278 
L 340.298456 244.894912 
L 341.340153 244.117979 
L 342.38185 243.026595 
L 343.423547 241.636223 
L 344.465244 239.965463 
L 345.506941 238.035818 
L 347.590335 233.49873 
L 349.67373 228.244104 
L 352.798821 219.559254 
L 356.965609 207.8598 
L 359.049004 202.535828 
L 361.132398 197.869459 
L 363.215792 194.051266 
L 364.257489 192.508667 
L 365.299186 191.230524 
L 366.340883 190.228115 
L 367.38258 189.509546 
L 368.424278 189.079697 
L 369.465975 188.940203 
L 370.507672 189.089473 
L 371.549369 189.522737 
L 372.591066 190.232138 
L 373.632763 191.206852 
L 374.67446 192.433236 
L 375.716157 193.895012 
L 377.799552 197.447732 
L 379.882946 201.690595 
L 383.008037 208.904388 
L 388.216523 221.347174 
L 390.299917 225.83293 
L 392.383311 229.743626 
L 394.466705 232.920063 
L 395.508402 234.192787 
L 396.550099 235.238672 
L 397.591797 236.048601 
L 398.633494 236.616168 
L 399.675191 236.937714 
L 400.716888 237.01234 
L 401.758585 236.841886 
L 402.800282 236.430885 
L 403.841979 235.786476 
L 404.883676 234.918307 
L 405.925373 233.838392 
L 406.967071 232.560958 
L 409.050465 229.48039 
L 411.133859 225.827272 
L 414.25895 219.655526 
L 419.467436 209.096965 
L 421.55083 205.319076 
L 423.634224 202.04349 
L 425.717619 199.403108 
L 426.759316 198.354366 
L 427.801013 197.500112 
L 428.84271 196.847692 
L 429.884407 196.402142 
L 430.926104 196.166152 
L 431.967801 196.140071 
L 433.009498 196.321919 
L 434.051195 196.707442 
L 435.092893 197.290177 
L 436.13459 198.061552 
L 437.176287 199.011 
L 439.259681 201.392737 
L 441.343075 204.316715 
L 443.426469 207.643021 
L 448.634955 216.687918 
L 451.760046 221.81068 
L 453.843441 224.787234 
L 455.926835 227.267014 
L 456.968532 228.288888 
L 458.010229 229.151909 
L 459.051926 229.848251 
L 460.093623 230.372014 
L 461.13532 230.71927 
L 462.177017 230.888084 
L 463.218715 230.878519 
L 464.260412 230.692604 
L 465.302109 230.3343 
L 466.343806 229.80943 
L 467.385503 229.125596 
L 469.468897 227.3197 
L 471.552291 225.008659 
L 473.635686 222.304699 
L 476.760777 217.792575 
L 481.969263 210.197807 
L 484.052657 207.521698 
L 486.136051 205.227607 
L 488.219445 203.407962 
L 489.261142 202.698786 
L 490.302839 202.132395 
L 491.344537 201.713512 
L 492.386234 201.445175 
L 493.427931 201.328726 
L 494.469628 201.363812 
L 495.511325 201.548408 
L 496.553022 201.87886 
L 497.594719 202.349939 
L 499.678113 203.685662 
L 501.761508 205.485508 
L 503.844902 207.660556 
L 506.969993 211.397498 
L 513.220176 219.150458 
L 515.30357 221.40126 
L 517.386964 223.319407 
L 519.470358 224.827901 
L 521.553753 225.869368 
L 522.59545 226.20294 
L 523.637147 226.408154 
L 524.678844 226.48413 
L 525.720541 226.431421 
L 526.762238 226.252 
L 527.803935 225.94922 
L 529.88733 224.993561 
L 531.970724 223.616534 
L 534.054118 221.887595 
L 536.137512 219.890146 
L 540.304301 215.468946 
L 544.471089 211.141397 
L 546.554483 209.249186 
L 548.637878 207.646376 
L 550.721272 206.397061 
L 552.804666 205.548453 
L 554.88806 205.12917 
L 556.971454 205.148384 
L 559.054849 205.595834 
L 561.138243 206.442693 
L 563.221637 207.643235 
L 565.305031 209.137198 
L 568.430123 211.768829 
L 575.722002 218.285883 
L 577.805397 219.875881 
L 579.888791 221.21433 
L 581.972185 222.24792 
L 584.055579 222.937859 
L 586.138974 223.261262 
L 588.222368 223.211815 
L 590.305762 222.799696 
L 592.389156 222.050773 
L 594.47255 221.005132 
L 596.555945 219.715015 
L 599.681036 217.458644 
L 606.972916 211.929136 
L 609.05631 210.59373 
L 611.139704 209.476786 
L 613.223098 208.622608 
L 615.306493 208.063021 
L 617.389887 207.816247 
L 619.473281 207.886391 
L 621.556675 208.263569 
L 623.640069 208.924642 
L 625.723464 209.834513 
L 627.806858 210.947924 
L 630.931949 212.881713 
L 638.223829 217.571648 
L 640.307223 218.692672 
L 642.390617 219.624123 
L 644.474012 220.329214 
L 646.557406 220.781877 
L 648.6408 220.967676 
L 650.724194 220.884193 
L 652.807589 220.540873 
L 654.890983 219.958359 
L 656.974377 219.16734 
L 660.099468 217.677425 
L 665.307954 214.787525 
L 669.474742 212.573955 
L 672.599834 211.222613 
L 674.683228 210.540594 
L 676.766622 210.065332 
L 678.850016 209.813237 
L 680.933411 209.790573 
L 683.016805 209.993407 
L 685.100199 210.407998 
L 687.183593 211.01161 
L 690.308685 212.202874 
L 694.475473 214.119867 
L 699.683959 216.553747 
L 702.80905 217.780476 
L 704.892444 218.426827 
L 706.975838 218.905461 
L 709.059233 219.198987 
L 711.142627 219.298503 
L 713.226021 219.203812 
L 715.309415 218.923237 
L 717.392809 218.47308 
L 720.517901 217.532695 
L 724.684689 215.949224 
L 731.976569 213.093784 
L 735.10166 212.1469 
L 738.226752 211.501326 
L 740.310146 211.266198 
L 742.39354 211.1964 
L 744.476934 211.291443 
L 747.602026 211.724361 
L 750.727117 212.455663 
L 754.893905 213.751974 
L 763.227482 216.527175 
L 766.352574 217.31909 
L 769.477665 217.851205 
L 772.602756 218.079851 
L 775.727848 217.99241 
L 777.811242 217.766511 
L 777.811242 217.766511 
" style="fill:none;stroke:#ff0000;stroke-dasharray:1.5,2.475;stroke-dashoffset:0;stroke-width:1.5;"/>
   </g>
   <g id="patch_3">
    <path d="M 108 378 
L 108 51.84 
" style="fill:none;stroke:#000000;stroke-linecap:square;stroke-linejoin:miter;stroke-width:0.8;"/>
   </g>
   <g id="patch_4">
    <path d="M 777.6 378 
L 777.6 51.84 
" style="fill:none;stroke:#000000;stroke-linecap:square;stroke-linejoin:miter;stroke-width:0.8;"/>
   </g>
   <g id="patch_5">
    <path d="M 108 378 
L 777.6 378 
" style="fill:none;stroke:#000000;stroke-linecap:square;stroke-linejoin:miter;stroke-width:0.8;"/>
   </g>
   <g id="patch_6">
    <path d="M 108 51.84 
L 777.6 51.84 
" style="fill:none;stroke:#000000;stroke-linecap:square;stroke-linejoin:miter;stroke-width:0.8;"/>
   </g>
   <g id="text_19">
    <!-- Medição 3 - Direção Y -->
    <g transform="translate(344.964375 45.84)scale(0.18 -0.18)">
     <defs>
      <path d="M 9.8125 72.90625 
L 24.515625 72.90625 
L 43.109375 23.296875 
L 61.8125 72.90625 
L 76.515625 72.90625 
L 76.515625 0 
L 66.890625 0 
L 66.890625 64.015625 
L 48.09375 14.015625 
L 38.1875 14.015625 
L 19.390625 64.015625 
L 19.390625 0 
L 9.8125 0 
z
" id="DejaVuSans-77"/>
      <path d="M 45.40625 46.390625 
L 45.40625 75.984375 
L 54.390625 75.984375 
L 54.390625 0 
L 45.40625 0 
L 45.40625 8.203125 
Q 42.578125 3.328125 38.25 0.953125 
Q 33.9375 -1.421875 27.875 -1.421875 
Q 17.96875 -1.421875 11.734375 6.484375 
Q 5.515625 14.40625 5.515625 27.296875 
Q 5.515625 40.1875 11.734375 48.09375 
Q 17.96875 56 27.875 56 
Q 33.9375 56 38.25 53.625 
Q 42.578125 51.265625 45.40625 46.390625 
z
M 14.796875 27.296875 
Q 14.796875 17.390625 18.875 11.75 
Q 22.953125 6.109375 30.078125 6.109375 
Q 37.203125 6.109375 41.296875 11.75 
Q 45.40625 17.390625 45.40625 27.296875 
Q 45.40625 37.203125 41.296875 42.84375 
Q 37.203125 48.484375 30.078125 48.484375 
Q 22.953125 48.484375 18.875 42.84375 
Q 14.796875 37.203125 14.796875 27.296875 
z
" id="DejaVuSans-100"/>
      <path d="M 48.78125 52.59375 
L 48.78125 44.1875 
Q 44.96875 46.296875 41.140625 47.34375 
Q 37.3125 48.390625 33.40625 48.390625 
Q 24.65625 48.390625 19.8125 42.84375 
Q 14.984375 37.3125 14.984375 27.296875 
Q 14.984375 17.28125 19.8125 11.734375 
Q 24.65625 6.203125 33.40625 6.203125 
Q 37.3125 6.203125 41.140625 7.25 
Q 44.96875 8.296875 48.78125 10.40625 
L 48.78125 2.09375 
Q 45.015625 0.34375 40.984375 -0.53125 
Q 36.96875 -1.421875 32.421875 -1.421875 
Q 20.0625 -1.421875 12.78125 6.34375 
Q 5.515625 14.109375 5.515625 27.296875 
Q 5.515625 40.671875 12.859375 48.328125 
Q 20.21875 56 33.015625 56 
Q 37.15625 56 41.109375 55.140625 
Q 45.0625 54.296875 48.78125 52.59375 
z
M 36.078125 0 
Q 38.765625 -3.03125 40.078125 -5.59375 
Q 41.40625 -8.15625 41.40625 -10.5 
Q 41.40625 -14.84375 38.46875 -17.0625 
Q 35.546875 -19.28125 29.78125 -19.28125 
Q 27.546875 -19.28125 25.421875 -18.984375 
Q 23.296875 -18.703125 21.1875 -18.109375 
L 21.1875 -11.71875 
Q 22.859375 -12.546875 24.65625 -12.90625 
Q 26.46875 -13.28125 28.765625 -13.28125 
Q 31.640625 -13.28125 33.109375 -12.109375 
Q 34.578125 -10.9375 34.578125 -8.6875 
Q 34.578125 -7.234375 33.515625 -5.109375 
Q 32.46875 -2.984375 30.28125 0 
z
" id="DejaVuSans-231"/>
      <path d="M 34.28125 27.484375 
Q 23.390625 27.484375 19.1875 25 
Q 14.984375 22.515625 14.984375 16.5 
Q 14.984375 11.71875 18.140625 8.90625 
Q 21.296875 6.109375 26.703125 6.109375 
Q 34.1875 6.109375 38.703125 11.40625 
Q 43.21875 16.703125 43.21875 25.484375 
L 43.21875 27.484375 
z
M 52.203125 31.203125 
L 52.203125 0 
L 43.21875 0 
L 43.21875 8.296875 
Q 40.140625 3.328125 35.546875 0.953125 
Q 30.953125 -1.421875 24.3125 -1.421875 
Q 15.921875 -1.421875 10.953125 3.296875 
Q 6 8.015625 6 15.921875 
Q 6 25.140625 12.171875 29.828125 
Q 18.359375 34.515625 30.609375 34.515625 
L 43.21875 34.515625 
L 43.21875 35.40625 
Q 43.21875 41.609375 39.140625 45 
Q 35.0625 48.390625 27.6875 48.390625 
Q 23 48.390625 18.546875 47.265625 
Q 14.109375 46.140625 10.015625 43.890625 
L 10.015625 52.203125 
Q 14.9375 54.109375 19.578125 55.046875 
Q 24.21875 56 28.609375 56 
Q 40.484375 56 46.34375 49.84375 
Q 52.203125 43.703125 52.203125 31.203125 
z
M 28.8125 66.890625 
L 26.03125 69.578125 
Q 24.953125 70.5625 24.140625 71.015625 
Q 23.34375 71.484375 22.703125 71.484375 
Q 20.84375 71.484375 19.96875 69.703125 
Q 19.09375 67.921875 19 63.921875 
L 12.890625 63.921875 
Q 12.984375 70.515625 15.46875 74.09375 
Q 17.96875 77.6875 22.40625 77.6875 
Q 24.265625 77.6875 25.828125 77 
Q 27.390625 76.3125 29.203125 74.703125 
L 31.984375 72.015625 
Q 33.0625 71.046875 33.859375 70.578125 
Q 34.671875 70.125 35.296875 70.125 
Q 37.15625 70.125 38.03125 71.90625 
Q 38.921875 73.6875 39.015625 77.6875 
L 45.125 77.6875 
Q 45.015625 71.09375 42.53125 67.5 
Q 40.046875 63.921875 35.59375 63.921875 
Q 33.734375 63.921875 32.171875 64.59375 
Q 30.609375 65.28125 28.8125 66.890625 
z
" id="DejaVuSans-227"/>
      <path d="M 30.609375 48.390625 
Q 23.390625 48.390625 19.1875 42.75 
Q 14.984375 37.109375 14.984375 27.296875 
Q 14.984375 17.484375 19.15625 11.84375 
Q 23.34375 6.203125 30.609375 6.203125 
Q 37.796875 6.203125 41.984375 11.859375 
Q 46.1875 17.53125 46.1875 27.296875 
Q 46.1875 37.015625 41.984375 42.703125 
Q 37.796875 48.390625 30.609375 48.390625 
z
M 30.609375 56 
Q 42.328125 56 49.015625 48.375 
Q 55.71875 40.765625 55.71875 27.296875 
Q 55.71875 13.875 49.015625 6.21875 
Q 42.328125 -1.421875 30.609375 -1.421875 
Q 18.84375 -1.421875 12.171875 6.21875 
Q 5.515625 13.875 5.515625 27.296875 
Q 5.515625 40.765625 12.171875 48.375 
Q 18.84375 56 30.609375 56 
z
" id="DejaVuSans-111"/>
      <path d="M 40.578125 39.3125 
Q 47.65625 37.796875 51.625 33 
Q 55.609375 28.21875 55.609375 21.1875 
Q 55.609375 10.40625 48.1875 4.484375 
Q 40.765625 -1.421875 27.09375 -1.421875 
Q 22.515625 -1.421875 17.65625 -0.515625 
Q 12.796875 0.390625 7.625 2.203125 
L 7.625 11.71875 
Q 11.71875 9.328125 16.59375 8.109375 
Q 21.484375 6.890625 26.8125 6.890625 
Q 36.078125 6.890625 40.9375 10.546875 
Q 45.796875 14.203125 45.796875 21.1875 
Q 45.796875 27.640625 41.28125 31.265625 
Q 36.765625 34.90625 28.71875 34.90625 
L 20.21875 34.90625 
L 20.21875 43.015625 
L 29.109375 43.015625 
Q 36.375 43.015625 40.234375 45.921875 
Q 44.09375 48.828125 44.09375 54.296875 
Q 44.09375 59.90625 40.109375 62.90625 
Q 36.140625 65.921875 28.71875 65.921875 
Q 24.65625 65.921875 20.015625 65.03125 
Q 15.375 64.15625 9.8125 62.3125 
L 9.8125 71.09375 
Q 15.4375 72.65625 20.34375 73.4375 
Q 25.25 74.21875 29.59375 74.21875 
Q 40.828125 74.21875 47.359375 69.109375 
Q 53.90625 64.015625 53.90625 55.328125 
Q 53.90625 49.265625 50.4375 45.09375 
Q 46.96875 40.921875 40.578125 39.3125 
z
" id="DejaVuSans-51"/>
      <path d="M 4.890625 31.390625 
L 31.203125 31.390625 
L 31.203125 23.390625 
L 4.890625 23.390625 
z
" id="DejaVuSans-45"/>
      <path d="M 19.671875 64.796875 
L 19.671875 8.109375 
L 31.59375 8.109375 
Q 46.6875 8.109375 53.6875 14.9375 
Q 60.6875 21.78125 60.6875 36.53125 
Q 60.6875 51.171875 53.6875 57.984375 
Q 46.6875 64.796875 31.59375 64.796875 
z
M 9.8125 72.90625 
L 30.078125 72.90625 
Q 51.265625 72.90625 61.171875 64.09375 
Q 71.09375 55.28125 71.09375 36.53125 
Q 71.09375 17.671875 61.125 8.828125 
Q 51.171875 0 30.078125 0 
L 9.8125 0 
z
" id="DejaVuSans-68"/>
      <path d="M 41.109375 46.296875 
Q 39.59375 47.171875 37.8125 47.578125 
Q 36.03125 48 33.890625 48 
Q 26.265625 48 22.1875 43.046875 
Q 18.109375 38.09375 18.109375 28.8125 
L 18.109375 0 
L 9.078125 0 
L 9.078125 54.6875 
L 18.109375 54.6875 
L 18.109375 46.1875 
Q 20.953125 51.171875 25.484375 53.578125 
Q 30.03125 56 36.53125 56 
Q 37.453125 56 38.578125 55.875 
Q 39.703125 55.765625 41.0625 55.515625 
z
" id="DejaVuSans-114"/>
      <path d="M -0.203125 72.90625 
L 10.40625 72.90625 
L 30.609375 42.921875 
L 50.6875 72.90625 
L 61.28125 72.90625 
L 35.5 34.71875 
L 35.5 0 
L 25.59375 0 
L 25.59375 34.71875 
z
" id="DejaVuSans-89"/>
     </defs>
     <use xlink:href="#DejaVuSans-77"/>
     <use x="86.279297" xlink:href="#DejaVuSans-101"/>
     <use x="147.802734" xlink:href="#DejaVuSans-100"/>
     <use x="211.279297" xlink:href="#DejaVuSans-105"/>
     <use x="239.0625" xlink:href="#DejaVuSans-231"/>
     <use x="294.042969" xlink:href="#DejaVuSans-227"/>
     <use x="355.322266" xlink:href="#DejaVuSans-111"/>
     <use x="416.503906" xlink:href="#DejaVuSans-32"/>
     <use x="448.291016" xlink:href="#DejaVuSans-51"/>
     <use x="511.914062" xlink:href="#DejaVuSans-32"/>
     <use x="543.701172" xlink:href="#DejaVuSans-45"/>
     <use x="579.785156" xlink:href="#DejaVuSans-32"/>
     <use x="611.572266" xlink:href="#DejaVuSans-68"/>
     <use x="688.574219" xlink:href="#DejaVuSans-105"/>
     <use x="716.357422" xlink:href="#DejaVuSans-114"/>
     <use x="755.220703" xlink:href="#DejaVuSans-101"/>
     <use x="816.744141" xlink:href="#DejaVuSans-231"/>
     <use x="871.724609" xlink:href="#DejaVuSans-227"/>
     <use x="933.003906" xlink:href="#DejaVuSans-111"/>
     <use x="994.185547" xlink:href="#DejaVuSans-32"/>
     <use x="1025.972656" xlink:href="#DejaVuSans-89"/>
    </g>
   </g>
   <g id="legend_1">
    <g id="patch_7">
     <path d="M 701.221875 89.19625 
L 770.6 89.19625 
Q 772.6 89.19625 772.6 87.19625 
L 772.6 58.84 
Q 772.6 56.84 770.6 56.84 
L 701.221875 56.84 
Q 699.221875 56.84 699.221875 58.84 
L 699.221875 87.19625 
Q 699.221875 89.19625 701.221875 89.19625 
z
" style="fill:#ffffff;opacity:0.8;stroke:#cccccc;stroke-linejoin:miter;"/>
    </g>
    <g id="line2d_35">
     <path d="M 703.221875 64.938437 
L 723.221875 64.938437 
" style="fill:none;stroke:#1f77b4;stroke-linecap:square;stroke-width:1.5;"/>
    </g>
    <g id="line2d_36"/>
    <g id="text_20">
     <!-- original -->
     <g transform="translate(731.221875 68.438437)scale(0.1 -0.1)">
      <defs>
       <path d="M 45.40625 27.984375 
Q 45.40625 37.75 41.375 43.109375 
Q 37.359375 48.484375 30.078125 48.484375 
Q 22.859375 48.484375 18.828125 43.109375 
Q 14.796875 37.75 14.796875 27.984375 
Q 14.796875 18.265625 18.828125 12.890625 
Q 22.859375 7.515625 30.078125 7.515625 
Q 37.359375 7.515625 41.375 12.890625 
Q 45.40625 18.265625 45.40625 27.984375 
z
M 54.390625 6.78125 
Q 54.390625 -7.171875 48.1875 -13.984375 
Q 42 -20.796875 29.203125 -20.796875 
Q 24.46875 -20.796875 20.265625 -20.09375 
Q 16.0625 -19.390625 12.109375 -17.921875 
L 12.109375 -9.1875 
Q 16.0625 -11.328125 19.921875 -12.34375 
Q 23.78125 -13.375 27.78125 -13.375 
Q 36.625 -13.375 41.015625 -8.765625 
Q 45.40625 -4.15625 45.40625 5.171875 
L 45.40625 9.625 
Q 42.625 4.78125 38.28125 2.390625 
Q 33.9375 0 27.875 0 
Q 17.828125 0 11.671875 7.65625 
Q 5.515625 15.328125 5.515625 27.984375 
Q 5.515625 40.671875 11.671875 48.328125 
Q 17.828125 56 27.875 56 
Q 33.9375 56 38.28125 53.609375 
Q 42.625 51.21875 45.40625 46.390625 
L 45.40625 54.6875 
L 54.390625 54.6875 
z
" id="DejaVuSans-103"/>
       <path d="M 54.890625 33.015625 
L 54.890625 0 
L 45.90625 0 
L 45.90625 32.71875 
Q 45.90625 40.484375 42.875 44.328125 
Q 39.84375 48.1875 33.796875 48.1875 
Q 26.515625 48.1875 22.3125 43.546875 
Q 18.109375 38.921875 18.109375 30.90625 
L 18.109375 0 
L 9.078125 0 
L 9.078125 54.6875 
L 18.109375 54.6875 
L 18.109375 46.1875 
Q 21.34375 51.125 25.703125 53.5625 
Q 30.078125 56 35.796875 56 
Q 45.21875 56 50.046875 50.171875 
Q 54.890625 44.34375 54.890625 33.015625 
z
" id="DejaVuSans-110"/>
       <path d="M 9.421875 75.984375 
L 18.40625 75.984375 
L 18.40625 0 
L 9.421875 0 
z
" id="DejaVuSans-108"/>
      </defs>
      <use xlink:href="#DejaVuSans-111"/>
      <use x="61.181641" xlink:href="#DejaVuSans-114"/>
      <use x="102.294922" xlink:href="#DejaVuSans-105"/>
      <use x="130.078125" xlink:href="#DejaVuSans-103"/>
      <use x="193.554688" xlink:href="#DejaVuSans-105"/>
      <use x="221.337891" xlink:href="#DejaVuSans-110"/>
      <use x="284.716797" xlink:href="#DejaVuSans-97"/>
      <use x="345.996094" xlink:href="#DejaVuSans-108"/>
     </g>
    </g>
    <g id="line2d_37">
     <path d="M 703.221875 79.616562 
L 723.221875 79.616562 
" style="fill:none;stroke:#ff0000;stroke-dasharray:1.5,2.475;stroke-dashoffset:0;stroke-width:1.5;"/>
    </g>
    <g id="line2d_38"/>
    <g id="text_21">
     <!-- fitted -->
     <g transform="translate(731.221875 83.116562)scale(0.1 -0.1)">
      <defs>
       <path d="M 37.109375 75.984375 
L 37.109375 68.5 
L 28.515625 68.5 
Q 23.6875 68.5 21.796875 66.546875 
Q 19.921875 64.59375 19.921875 59.515625 
L 19.921875 54.6875 
L 34.71875 54.6875 
L 34.71875 47.703125 
L 19.921875 47.703125 
L 19.921875 0 
L 10.890625 0 
L 10.890625 47.703125 
L 2.296875 47.703125 
L 2.296875 54.6875 
L 10.890625 54.6875 
L 10.890625 58.5 
Q 10.890625 67.625 15.140625 71.796875 
Q 19.390625 75.984375 28.609375 75.984375 
z
" id="DejaVuSans-102"/>
      </defs>
      <use xlink:href="#DejaVuSans-102"/>
      <use x="35.205078" xlink:href="#DejaVuSans-105"/>
      <use x="62.988281" xlink:href="#DejaVuSans-116"/>
      <use x="102.197266" xlink:href="#DejaVuSans-116"/>
      <use x="141.40625" xlink:href="#DejaVuSans-101"/>
      <use x="202.929688" xlink:href="#DejaVuSans-100"/>
     </g>
    </g>
   </g>
  </g>
 </g>
 <defs>
  <clipPath id="p3197568025">
   <rect height="326.16" width="669.6" x="108" y="51.84"/>
  </clipPath>
 </defs>
</svg>
