<?xml version="1.0" encoding="utf-8" standalone="no"?>
<!DOCTYPE svg PUBLIC "-//W3C//DTD SVG 1.1//EN"
  "http://www.w3.org/Graphics/SVG/1.1/DTD/svg11.dtd">
<!-- Created with matplotlib (https://matplotlib.org/) -->
<svg height="432pt" version="1.1" viewBox="0 0 864 432" width="864pt" xmlns="http://www.w3.org/2000/svg" xmlns:xlink="http://www.w3.org/1999/xlink">
 <metadata>
  <rdf:RDF xmlns:cc="http://creativecommons.org/ns#" xmlns:dc="http://purl.org/dc/elements/1.1/" xmlns:rdf="http://www.w3.org/1999/02/22-rdf-syntax-ns#">
   <cc:Work>
    <dc:type rdf:resource="http://purl.org/dc/dcmitype/StillImage"/>
    <dc:date>2021-11-25T23:31:13.027976</dc:date>
    <dc:format>image/svg+xml</dc:format>
    <dc:creator>
     <cc:Agent>
      <dc:title>Matplotlib v3.3.2, https://matplotlib.org/</dc:title>
     </cc:Agent>
    </dc:creator>
   </cc:Work>
  </rdf:RDF>
 </metadata>
 <defs>
  <style type="text/css">*{stroke-linecap:butt;stroke-linejoin:round;}</style>
 </defs>
 <g id="figure_1">
  <g id="patch_1">
   <path d="M 0 432 
L 864 432 
L 864 0 
L 0 0 
z
" style="fill:none;"/>
  </g>
  <g id="axes_1">
   <g id="patch_2">
    <path d="M 108 378 
L 777.6 378 
L 777.6 51.84 
L 108 51.84 
z
" style="fill:#ffffff;"/>
   </g>
   <g id="matplotlib.axis_1">
    <g id="xtick_1">
     <g id="line2d_1">
      <path clip-path="url(#pb6b6944fbd)" d="M 108 378 
L 108 51.84 
" style="fill:none;stroke:#b0b0b0;stroke-linecap:square;stroke-width:0.8;"/>
     </g>
     <g id="line2d_2">
      <defs>
       <path d="M 0 0 
L 0 3.5 
" id="m2809d87e4b" style="stroke:#000000;stroke-width:0.8;"/>
      </defs>
      <g>
       <use style="stroke:#000000;stroke-width:0.8;" x="108" xlink:href="#m2809d87e4b" y="378"/>
      </g>
     </g>
     <g id="text_1">
      <!-- 0.00 -->
      <g transform="translate(96.867188 392.598437)scale(0.1 -0.1)">
       <defs>
        <path d="M 31.78125 66.40625 
Q 24.171875 66.40625 20.328125 58.90625 
Q 16.5 51.421875 16.5 36.375 
Q 16.5 21.390625 20.328125 13.890625 
Q 24.171875 6.390625 31.78125 6.390625 
Q 39.453125 6.390625 43.28125 13.890625 
Q 47.125 21.390625 47.125 36.375 
Q 47.125 51.421875 43.28125 58.90625 
Q 39.453125 66.40625 31.78125 66.40625 
z
M 31.78125 74.21875 
Q 44.046875 74.21875 50.515625 64.515625 
Q 56.984375 54.828125 56.984375 36.375 
Q 56.984375 17.96875 50.515625 8.265625 
Q 44.046875 -1.421875 31.78125 -1.421875 
Q 19.53125 -1.421875 13.0625 8.265625 
Q 6.59375 17.96875 6.59375 36.375 
Q 6.59375 54.828125 13.0625 64.515625 
Q 19.53125 74.21875 31.78125 74.21875 
z
" id="DejaVuSans-48"/>
        <path d="M 10.6875 12.40625 
L 21 12.40625 
L 21 0 
L 10.6875 0 
z
" id="DejaVuSans-46"/>
       </defs>
       <use xlink:href="#DejaVuSans-48"/>
       <use x="63.623047" xlink:href="#DejaVuSans-46"/>
       <use x="95.410156" xlink:href="#DejaVuSans-48"/>
       <use x="159.033203" xlink:href="#DejaVuSans-48"/>
      </g>
     </g>
    </g>
    <g id="xtick_2">
     <g id="line2d_3">
      <path clip-path="url(#pb6b6944fbd)" d="M 186.224299 378 
L 186.224299 51.84 
" style="fill:none;stroke:#b0b0b0;stroke-linecap:square;stroke-width:0.8;"/>
     </g>
     <g id="line2d_4">
      <g>
       <use style="stroke:#000000;stroke-width:0.8;" x="186.224299" xlink:href="#m2809d87e4b" y="378"/>
      </g>
     </g>
     <g id="text_2">
      <!-- 0.25 -->
      <g transform="translate(175.091487 392.598437)scale(0.1 -0.1)">
       <defs>
        <path d="M 19.1875 8.296875 
L 53.609375 8.296875 
L 53.609375 0 
L 7.328125 0 
L 7.328125 8.296875 
Q 12.9375 14.109375 22.625 23.890625 
Q 32.328125 33.6875 34.8125 36.53125 
Q 39.546875 41.84375 41.421875 45.53125 
Q 43.3125 49.21875 43.3125 52.78125 
Q 43.3125 58.59375 39.234375 62.25 
Q 35.15625 65.921875 28.609375 65.921875 
Q 23.96875 65.921875 18.8125 64.3125 
Q 13.671875 62.703125 7.8125 59.421875 
L 7.8125 69.390625 
Q 13.765625 71.78125 18.9375 73 
Q 24.125 74.21875 28.421875 74.21875 
Q 39.75 74.21875 46.484375 68.546875 
Q 53.21875 62.890625 53.21875 53.421875 
Q 53.21875 48.921875 51.53125 44.890625 
Q 49.859375 40.875 45.40625 35.40625 
Q 44.1875 33.984375 37.640625 27.21875 
Q 31.109375 20.453125 19.1875 8.296875 
z
" id="DejaVuSans-50"/>
        <path d="M 10.796875 72.90625 
L 49.515625 72.90625 
L 49.515625 64.59375 
L 19.828125 64.59375 
L 19.828125 46.734375 
Q 21.96875 47.46875 24.109375 47.828125 
Q 26.265625 48.1875 28.421875 48.1875 
Q 40.625 48.1875 47.75 41.5 
Q 54.890625 34.8125 54.890625 23.390625 
Q 54.890625 11.625 47.5625 5.09375 
Q 40.234375 -1.421875 26.90625 -1.421875 
Q 22.3125 -1.421875 17.546875 -0.640625 
Q 12.796875 0.140625 7.71875 1.703125 
L 7.71875 11.625 
Q 12.109375 9.234375 16.796875 8.0625 
Q 21.484375 6.890625 26.703125 6.890625 
Q 35.15625 6.890625 40.078125 11.328125 
Q 45.015625 15.765625 45.015625 23.390625 
Q 45.015625 31 40.078125 35.4375 
Q 35.15625 39.890625 26.703125 39.890625 
Q 22.75 39.890625 18.8125 39.015625 
Q 14.890625 38.140625 10.796875 36.28125 
z
" id="DejaVuSans-53"/>
       </defs>
       <use xlink:href="#DejaVuSans-48"/>
       <use x="63.623047" xlink:href="#DejaVuSans-46"/>
       <use x="95.410156" xlink:href="#DejaVuSans-50"/>
       <use x="159.033203" xlink:href="#DejaVuSans-53"/>
      </g>
     </g>
    </g>
    <g id="xtick_3">
     <g id="line2d_5">
      <path clip-path="url(#pb6b6944fbd)" d="M 264.448598 378 
L 264.448598 51.84 
" style="fill:none;stroke:#b0b0b0;stroke-linecap:square;stroke-width:0.8;"/>
     </g>
     <g id="line2d_6">
      <g>
       <use style="stroke:#000000;stroke-width:0.8;" x="264.448598" xlink:href="#m2809d87e4b" y="378"/>
      </g>
     </g>
     <g id="text_3">
      <!-- 0.50 -->
      <g transform="translate(253.315786 392.598437)scale(0.1 -0.1)">
       <use xlink:href="#DejaVuSans-48"/>
       <use x="63.623047" xlink:href="#DejaVuSans-46"/>
       <use x="95.410156" xlink:href="#DejaVuSans-53"/>
       <use x="159.033203" xlink:href="#DejaVuSans-48"/>
      </g>
     </g>
    </g>
    <g id="xtick_4">
     <g id="line2d_7">
      <path clip-path="url(#pb6b6944fbd)" d="M 342.672897 378 
L 342.672897 51.84 
" style="fill:none;stroke:#b0b0b0;stroke-linecap:square;stroke-width:0.8;"/>
     </g>
     <g id="line2d_8">
      <g>
       <use style="stroke:#000000;stroke-width:0.8;" x="342.672897" xlink:href="#m2809d87e4b" y="378"/>
      </g>
     </g>
     <g id="text_4">
      <!-- 0.75 -->
      <g transform="translate(331.540085 392.598437)scale(0.1 -0.1)">
       <defs>
        <path d="M 8.203125 72.90625 
L 55.078125 72.90625 
L 55.078125 68.703125 
L 28.609375 0 
L 18.3125 0 
L 43.21875 64.59375 
L 8.203125 64.59375 
z
" id="DejaVuSans-55"/>
       </defs>
       <use xlink:href="#DejaVuSans-48"/>
       <use x="63.623047" xlink:href="#DejaVuSans-46"/>
       <use x="95.410156" xlink:href="#DejaVuSans-55"/>
       <use x="159.033203" xlink:href="#DejaVuSans-53"/>
      </g>
     </g>
    </g>
    <g id="xtick_5">
     <g id="line2d_9">
      <path clip-path="url(#pb6b6944fbd)" d="M 420.897196 378 
L 420.897196 51.84 
" style="fill:none;stroke:#b0b0b0;stroke-linecap:square;stroke-width:0.8;"/>
     </g>
     <g id="line2d_10">
      <g>
       <use style="stroke:#000000;stroke-width:0.8;" x="420.897196" xlink:href="#m2809d87e4b" y="378"/>
      </g>
     </g>
     <g id="text_5">
      <!-- 1.00 -->
      <g transform="translate(409.764384 392.598437)scale(0.1 -0.1)">
       <defs>
        <path d="M 12.40625 8.296875 
L 28.515625 8.296875 
L 28.515625 63.921875 
L 10.984375 60.40625 
L 10.984375 69.390625 
L 28.421875 72.90625 
L 38.28125 72.90625 
L 38.28125 8.296875 
L 54.390625 8.296875 
L 54.390625 0 
L 12.40625 0 
z
" id="DejaVuSans-49"/>
       </defs>
       <use xlink:href="#DejaVuSans-49"/>
       <use x="63.623047" xlink:href="#DejaVuSans-46"/>
       <use x="95.410156" xlink:href="#DejaVuSans-48"/>
       <use x="159.033203" xlink:href="#DejaVuSans-48"/>
      </g>
     </g>
    </g>
    <g id="xtick_6">
     <g id="line2d_11">
      <path clip-path="url(#pb6b6944fbd)" d="M 499.121495 378 
L 499.121495 51.84 
" style="fill:none;stroke:#b0b0b0;stroke-linecap:square;stroke-width:0.8;"/>
     </g>
     <g id="line2d_12">
      <g>
       <use style="stroke:#000000;stroke-width:0.8;" x="499.121495" xlink:href="#m2809d87e4b" y="378"/>
      </g>
     </g>
     <g id="text_6">
      <!-- 1.25 -->
      <g transform="translate(487.988683 392.598437)scale(0.1 -0.1)">
       <use xlink:href="#DejaVuSans-49"/>
       <use x="63.623047" xlink:href="#DejaVuSans-46"/>
       <use x="95.410156" xlink:href="#DejaVuSans-50"/>
       <use x="159.033203" xlink:href="#DejaVuSans-53"/>
      </g>
     </g>
    </g>
    <g id="xtick_7">
     <g id="line2d_13">
      <path clip-path="url(#pb6b6944fbd)" d="M 577.345794 378 
L 577.345794 51.84 
" style="fill:none;stroke:#b0b0b0;stroke-linecap:square;stroke-width:0.8;"/>
     </g>
     <g id="line2d_14">
      <g>
       <use style="stroke:#000000;stroke-width:0.8;" x="577.345794" xlink:href="#m2809d87e4b" y="378"/>
      </g>
     </g>
     <g id="text_7">
      <!-- 1.50 -->
      <g transform="translate(566.212982 392.598437)scale(0.1 -0.1)">
       <use xlink:href="#DejaVuSans-49"/>
       <use x="63.623047" xlink:href="#DejaVuSans-46"/>
       <use x="95.410156" xlink:href="#DejaVuSans-53"/>
       <use x="159.033203" xlink:href="#DejaVuSans-48"/>
      </g>
     </g>
    </g>
    <g id="xtick_8">
     <g id="line2d_15">
      <path clip-path="url(#pb6b6944fbd)" d="M 655.570093 378 
L 655.570093 51.84 
" style="fill:none;stroke:#b0b0b0;stroke-linecap:square;stroke-width:0.8;"/>
     </g>
     <g id="line2d_16">
      <g>
       <use style="stroke:#000000;stroke-width:0.8;" x="655.570093" xlink:href="#m2809d87e4b" y="378"/>
      </g>
     </g>
     <g id="text_8">
      <!-- 1.75 -->
      <g transform="translate(644.437281 392.598437)scale(0.1 -0.1)">
       <use xlink:href="#DejaVuSans-49"/>
       <use x="63.623047" xlink:href="#DejaVuSans-46"/>
       <use x="95.410156" xlink:href="#DejaVuSans-55"/>
       <use x="159.033203" xlink:href="#DejaVuSans-53"/>
      </g>
     </g>
    </g>
    <g id="xtick_9">
     <g id="line2d_17">
      <path clip-path="url(#pb6b6944fbd)" d="M 733.794393 378 
L 733.794393 51.84 
" style="fill:none;stroke:#b0b0b0;stroke-linecap:square;stroke-width:0.8;"/>
     </g>
     <g id="line2d_18">
      <g>
       <use style="stroke:#000000;stroke-width:0.8;" x="733.794393" xlink:href="#m2809d87e4b" y="378"/>
      </g>
     </g>
     <g id="text_9">
      <!-- 2.00 -->
      <g transform="translate(722.66158 392.598437)scale(0.1 -0.1)">
       <use xlink:href="#DejaVuSans-50"/>
       <use x="63.623047" xlink:href="#DejaVuSans-46"/>
       <use x="95.410156" xlink:href="#DejaVuSans-48"/>
       <use x="159.033203" xlink:href="#DejaVuSans-48"/>
      </g>
     </g>
    </g>
    <g id="text_10">
     <!-- time (s) -->
     <g transform="translate(423.408594 406.276563)scale(0.1 -0.1)">
      <defs>
       <path d="M 18.3125 70.21875 
L 18.3125 54.6875 
L 36.8125 54.6875 
L 36.8125 47.703125 
L 18.3125 47.703125 
L 18.3125 18.015625 
Q 18.3125 11.328125 20.140625 9.421875 
Q 21.96875 7.515625 27.59375 7.515625 
L 36.8125 7.515625 
L 36.8125 0 
L 27.59375 0 
Q 17.1875 0 13.234375 3.875 
Q 9.28125 7.765625 9.28125 18.015625 
L 9.28125 47.703125 
L 2.6875 47.703125 
L 2.6875 54.6875 
L 9.28125 54.6875 
L 9.28125 70.21875 
z
" id="DejaVuSans-116"/>
       <path d="M 9.421875 54.6875 
L 18.40625 54.6875 
L 18.40625 0 
L 9.421875 0 
z
M 9.421875 75.984375 
L 18.40625 75.984375 
L 18.40625 64.59375 
L 9.421875 64.59375 
z
" id="DejaVuSans-105"/>
       <path d="M 52 44.1875 
Q 55.375 50.25 60.0625 53.125 
Q 64.75 56 71.09375 56 
Q 79.640625 56 84.28125 50.015625 
Q 88.921875 44.046875 88.921875 33.015625 
L 88.921875 0 
L 79.890625 0 
L 79.890625 32.71875 
Q 79.890625 40.578125 77.09375 44.375 
Q 74.3125 48.1875 68.609375 48.1875 
Q 61.625 48.1875 57.5625 43.546875 
Q 53.515625 38.921875 53.515625 30.90625 
L 53.515625 0 
L 44.484375 0 
L 44.484375 32.71875 
Q 44.484375 40.625 41.703125 44.40625 
Q 38.921875 48.1875 33.109375 48.1875 
Q 26.21875 48.1875 22.15625 43.53125 
Q 18.109375 38.875 18.109375 30.90625 
L 18.109375 0 
L 9.078125 0 
L 9.078125 54.6875 
L 18.109375 54.6875 
L 18.109375 46.1875 
Q 21.1875 51.21875 25.484375 53.609375 
Q 29.78125 56 35.6875 56 
Q 41.65625 56 45.828125 52.96875 
Q 50 49.953125 52 44.1875 
z
" id="DejaVuSans-109"/>
       <path d="M 56.203125 29.59375 
L 56.203125 25.203125 
L 14.890625 25.203125 
Q 15.484375 15.921875 20.484375 11.0625 
Q 25.484375 6.203125 34.421875 6.203125 
Q 39.59375 6.203125 44.453125 7.46875 
Q 49.3125 8.734375 54.109375 11.28125 
L 54.109375 2.78125 
Q 49.265625 0.734375 44.1875 -0.34375 
Q 39.109375 -1.421875 33.890625 -1.421875 
Q 20.796875 -1.421875 13.15625 6.1875 
Q 5.515625 13.8125 5.515625 26.8125 
Q 5.515625 40.234375 12.765625 48.109375 
Q 20.015625 56 32.328125 56 
Q 43.359375 56 49.78125 48.890625 
Q 56.203125 41.796875 56.203125 29.59375 
z
M 47.21875 32.234375 
Q 47.125 39.59375 43.09375 43.984375 
Q 39.0625 48.390625 32.421875 48.390625 
Q 24.90625 48.390625 20.390625 44.140625 
Q 15.875 39.890625 15.1875 32.171875 
z
" id="DejaVuSans-101"/>
       <path id="DejaVuSans-32"/>
       <path d="M 31 75.875 
Q 24.46875 64.65625 21.28125 53.65625 
Q 18.109375 42.671875 18.109375 31.390625 
Q 18.109375 20.125 21.3125 9.0625 
Q 24.515625 -2 31 -13.1875 
L 23.1875 -13.1875 
Q 15.875 -1.703125 12.234375 9.375 
Q 8.59375 20.453125 8.59375 31.390625 
Q 8.59375 42.28125 12.203125 53.3125 
Q 15.828125 64.359375 23.1875 75.875 
z
" id="DejaVuSans-40"/>
       <path d="M 44.28125 53.078125 
L 44.28125 44.578125 
Q 40.484375 46.53125 36.375 47.5 
Q 32.28125 48.484375 27.875 48.484375 
Q 21.1875 48.484375 17.84375 46.4375 
Q 14.5 44.390625 14.5 40.28125 
Q 14.5 37.15625 16.890625 35.375 
Q 19.28125 33.59375 26.515625 31.984375 
L 29.59375 31.296875 
Q 39.15625 29.25 43.1875 25.515625 
Q 47.21875 21.78125 47.21875 15.09375 
Q 47.21875 7.46875 41.1875 3.015625 
Q 35.15625 -1.421875 24.609375 -1.421875 
Q 20.21875 -1.421875 15.453125 -0.5625 
Q 10.6875 0.296875 5.421875 2 
L 5.421875 11.28125 
Q 10.40625 8.6875 15.234375 7.390625 
Q 20.0625 6.109375 24.8125 6.109375 
Q 31.15625 6.109375 34.5625 8.28125 
Q 37.984375 10.453125 37.984375 14.40625 
Q 37.984375 18.0625 35.515625 20.015625 
Q 33.0625 21.96875 24.703125 23.78125 
L 21.578125 24.515625 
Q 13.234375 26.265625 9.515625 29.90625 
Q 5.8125 33.546875 5.8125 39.890625 
Q 5.8125 47.609375 11.28125 51.796875 
Q 16.75 56 26.8125 56 
Q 31.78125 56 36.171875 55.265625 
Q 40.578125 54.546875 44.28125 53.078125 
z
" id="DejaVuSans-115"/>
       <path d="M 8.015625 75.875 
L 15.828125 75.875 
Q 23.140625 64.359375 26.78125 53.3125 
Q 30.421875 42.28125 30.421875 31.390625 
Q 30.421875 20.453125 26.78125 9.375 
Q 23.140625 -1.703125 15.828125 -13.1875 
L 8.015625 -13.1875 
Q 14.5 -2 17.703125 9.0625 
Q 20.90625 20.125 20.90625 31.390625 
Q 20.90625 42.671875 17.703125 53.65625 
Q 14.5 64.65625 8.015625 75.875 
z
" id="DejaVuSans-41"/>
      </defs>
      <use xlink:href="#DejaVuSans-116"/>
      <use x="39.208984" xlink:href="#DejaVuSans-105"/>
      <use x="66.992188" xlink:href="#DejaVuSans-109"/>
      <use x="164.404297" xlink:href="#DejaVuSans-101"/>
      <use x="225.927734" xlink:href="#DejaVuSans-32"/>
      <use x="257.714844" xlink:href="#DejaVuSans-40"/>
      <use x="296.728516" xlink:href="#DejaVuSans-115"/>
      <use x="348.828125" xlink:href="#DejaVuSans-41"/>
     </g>
    </g>
   </g>
   <g id="matplotlib.axis_2">
    <g id="ytick_1">
     <g id="line2d_19">
      <path clip-path="url(#pb6b6944fbd)" d="M 108 378 
L 777.6 378 
" style="fill:none;stroke:#b0b0b0;stroke-linecap:square;stroke-width:0.8;"/>
     </g>
     <g id="line2d_20">
      <defs>
       <path d="M 0 0 
L -3.5 0 
" id="mb63213dc20" style="stroke:#000000;stroke-width:0.8;"/>
      </defs>
      <g>
       <use style="stroke:#000000;stroke-width:0.8;" x="108" xlink:href="#mb63213dc20" y="378"/>
      </g>
     </g>
     <g id="text_11">
      <!-- −15 -->
      <g transform="translate(79.895313 381.799219)scale(0.1 -0.1)">
       <defs>
        <path d="M 10.59375 35.5 
L 73.1875 35.5 
L 73.1875 27.203125 
L 10.59375 27.203125 
z
" id="DejaVuSans-8722"/>
       </defs>
       <use xlink:href="#DejaVuSans-8722"/>
       <use x="83.789062" xlink:href="#DejaVuSans-49"/>
       <use x="147.412109" xlink:href="#DejaVuSans-53"/>
      </g>
     </g>
    </g>
    <g id="ytick_2">
     <g id="line2d_21">
      <path clip-path="url(#pb6b6944fbd)" d="M 108 323.64 
L 777.6 323.64 
" style="fill:none;stroke:#b0b0b0;stroke-linecap:square;stroke-width:0.8;"/>
     </g>
     <g id="line2d_22">
      <g>
       <use style="stroke:#000000;stroke-width:0.8;" x="108" xlink:href="#mb63213dc20" y="323.64"/>
      </g>
     </g>
     <g id="text_12">
      <!-- −10 -->
      <g transform="translate(79.895313 327.439219)scale(0.1 -0.1)">
       <use xlink:href="#DejaVuSans-8722"/>
       <use x="83.789062" xlink:href="#DejaVuSans-49"/>
       <use x="147.412109" xlink:href="#DejaVuSans-48"/>
      </g>
     </g>
    </g>
    <g id="ytick_3">
     <g id="line2d_23">
      <path clip-path="url(#pb6b6944fbd)" d="M 108 269.28 
L 777.6 269.28 
" style="fill:none;stroke:#b0b0b0;stroke-linecap:square;stroke-width:0.8;"/>
     </g>
     <g id="line2d_24">
      <g>
       <use style="stroke:#000000;stroke-width:0.8;" x="108" xlink:href="#mb63213dc20" y="269.28"/>
      </g>
     </g>
     <g id="text_13">
      <!-- −5 -->
      <g transform="translate(86.257812 273.079219)scale(0.1 -0.1)">
       <use xlink:href="#DejaVuSans-8722"/>
       <use x="83.789062" xlink:href="#DejaVuSans-53"/>
      </g>
     </g>
    </g>
    <g id="ytick_4">
     <g id="line2d_25">
      <path clip-path="url(#pb6b6944fbd)" d="M 108 214.92 
L 777.6 214.92 
" style="fill:none;stroke:#b0b0b0;stroke-linecap:square;stroke-width:0.8;"/>
     </g>
     <g id="line2d_26">
      <g>
       <use style="stroke:#000000;stroke-width:0.8;" x="108" xlink:href="#mb63213dc20" y="214.92"/>
      </g>
     </g>
     <g id="text_14">
      <!-- 0 -->
      <g transform="translate(94.6375 218.719219)scale(0.1 -0.1)">
       <use xlink:href="#DejaVuSans-48"/>
      </g>
     </g>
    </g>
    <g id="ytick_5">
     <g id="line2d_27">
      <path clip-path="url(#pb6b6944fbd)" d="M 108 160.56 
L 777.6 160.56 
" style="fill:none;stroke:#b0b0b0;stroke-linecap:square;stroke-width:0.8;"/>
     </g>
     <g id="line2d_28">
      <g>
       <use style="stroke:#000000;stroke-width:0.8;" x="108" xlink:href="#mb63213dc20" y="160.56"/>
      </g>
     </g>
     <g id="text_15">
      <!-- 5 -->
      <g transform="translate(94.6375 164.359219)scale(0.1 -0.1)">
       <use xlink:href="#DejaVuSans-53"/>
      </g>
     </g>
    </g>
    <g id="ytick_6">
     <g id="line2d_29">
      <path clip-path="url(#pb6b6944fbd)" d="M 108 106.2 
L 777.6 106.2 
" style="fill:none;stroke:#b0b0b0;stroke-linecap:square;stroke-width:0.8;"/>
     </g>
     <g id="line2d_30">
      <g>
       <use style="stroke:#000000;stroke-width:0.8;" x="108" xlink:href="#mb63213dc20" y="106.2"/>
      </g>
     </g>
     <g id="text_16">
      <!-- 10 -->
      <g transform="translate(88.275 109.999219)scale(0.1 -0.1)">
       <use xlink:href="#DejaVuSans-49"/>
       <use x="63.623047" xlink:href="#DejaVuSans-48"/>
      </g>
     </g>
    </g>
    <g id="ytick_7">
     <g id="line2d_31">
      <path clip-path="url(#pb6b6944fbd)" d="M 108 51.84 
L 777.6 51.84 
" style="fill:none;stroke:#b0b0b0;stroke-linecap:square;stroke-width:0.8;"/>
     </g>
     <g id="line2d_32">
      <g>
       <use style="stroke:#000000;stroke-width:0.8;" x="108" xlink:href="#mb63213dc20" y="51.84"/>
      </g>
     </g>
     <g id="text_17">
      <!-- 15 -->
      <g transform="translate(88.275 55.639219)scale(0.1 -0.1)">
       <use xlink:href="#DejaVuSans-49"/>
       <use x="63.623047" xlink:href="#DejaVuSans-53"/>
      </g>
     </g>
    </g>
    <g id="text_18">
     <!-- a(t) -->
     <g transform="translate(73.815625 223.845781)rotate(-90)scale(0.1 -0.1)">
      <defs>
       <path d="M 34.28125 27.484375 
Q 23.390625 27.484375 19.1875 25 
Q 14.984375 22.515625 14.984375 16.5 
Q 14.984375 11.71875 18.140625 8.90625 
Q 21.296875 6.109375 26.703125 6.109375 
Q 34.1875 6.109375 38.703125 11.40625 
Q 43.21875 16.703125 43.21875 25.484375 
L 43.21875 27.484375 
z
M 52.203125 31.203125 
L 52.203125 0 
L 43.21875 0 
L 43.21875 8.296875 
Q 40.140625 3.328125 35.546875 0.953125 
Q 30.953125 -1.421875 24.3125 -1.421875 
Q 15.921875 -1.421875 10.953125 3.296875 
Q 6 8.015625 6 15.921875 
Q 6 25.140625 12.171875 29.828125 
Q 18.359375 34.515625 30.609375 34.515625 
L 43.21875 34.515625 
L 43.21875 35.40625 
Q 43.21875 41.609375 39.140625 45 
Q 35.0625 48.390625 27.6875 48.390625 
Q 23 48.390625 18.546875 47.265625 
Q 14.109375 46.140625 10.015625 43.890625 
L 10.015625 52.203125 
Q 14.9375 54.109375 19.578125 55.046875 
Q 24.21875 56 28.609375 56 
Q 40.484375 56 46.34375 49.84375 
Q 52.203125 43.703125 52.203125 31.203125 
z
" id="DejaVuSans-97"/>
      </defs>
      <use xlink:href="#DejaVuSans-97"/>
      <use x="61.279297" xlink:href="#DejaVuSans-40"/>
      <use x="100.292969" xlink:href="#DejaVuSans-116"/>
      <use x="139.501953" xlink:href="#DejaVuSans-41"/>
     </g>
    </g>
   </g>
   <g id="line2d_33">
    <path clip-path="url(#pb6b6944fbd)" d="M 108 214.457574 
L 108.851701 214.13749 
L 110.555103 214.103894 
L 111.406804 214.18902 
L 112.258505 214.418233 
L 113.961907 213.736507 
L 114.813608 214.101552 
L 116.51701 213.64869 
L 117.368711 213.368283 
L 118.220413 212.764187 
L 119.072114 213.059577 
L 119.923815 212.643421 
L 120.775516 212.564343 
L 121.627217 212.346239 
L 122.478918 211.848779 
L 123.330619 211.673902 
L 124.18232 210.860788 
L 125.034021 210.419561 
L 125.885722 210.160244 
L 126.737423 208.591017 
L 127.589124 207.611639 
L 128.440825 207.039557 
L 130.144227 203.162316 
L 130.995928 199.672874 
L 134.402732 183.90481 
L 135.254433 181.66519 
L 136.106134 179.080216 
L 136.957835 175.004731 
L 137.809536 169.364249 
L 138.661238 165.362867 
L 139.512939 159.163753 
L 140.36464 151.477885 
L 141.216341 146.65665 
L 142.068042 143.533905 
L 142.919743 144.794985 
L 143.771444 156.622556 
L 144.623145 184.675247 
L 145.474846 195.59713 
L 146.326547 202.424256 
L 147.178248 210.616416 
L 148.029949 216.970106 
L 148.88165 221.532759 
L 149.733351 223.520167 
L 150.585052 220.980548 
L 152.288454 205.302638 
L 153.140155 205.010498 
L 153.991856 216.090511 
L 154.843557 236.673179 
L 156.546959 294.951134 
L 157.39866 314.702659 
L 158.250361 322.287418 
L 159.102063 320.325245 
L 160.805465 318.232467 
L 161.657166 318.864851 
L 162.508867 316.132827 
L 163.360568 312.305287 
L 164.212269 300.135839 
L 165.06397 280.74975 
L 165.915671 266.110365 
L 166.767372 255.777576 
L 167.619073 253.316825 
L 168.470774 259.023401 
L 169.322475 271.665107 
L 170.174176 275.880691 
L 171.025877 270.58711 
L 172.729279 240.80387 
L 174.432681 221.991055 
L 175.284382 220.08015 
L 176.136083 220.790174 
L 176.987784 219.328104 
L 177.839485 212.246149 
L 178.691186 194.807465 
L 180.394589 139.714182 
L 181.24629 123.136261 
L 182.097991 127.489968 
L 182.949692 140.060162 
L 183.801393 154.788146 
L 185.504795 167.521123 
L 186.356496 170.83732 
L 188.059898 154.553439 
L 188.911599 142.246371 
L 189.7633 142.132761 
L 190.615001 142.809309 
L 191.466702 142.084183 
L 192.318403 137.037069 
L 193.170104 133.730989 
L 194.021805 144.198511 
L 194.873506 162.756419 
L 196.576908 208.462099 
L 197.428609 221.777439 
L 198.28031 228.558929 
L 199.132011 233.663169 
L 199.983713 229.38056 
L 200.835414 221.235219 
L 201.687115 214.646543 
L 202.538816 216.864234 
L 203.390517 223.461463 
L 204.242218 234.06255 
L 205.093919 242.777916 
L 205.94562 244.51124 
L 206.797321 244.210217 
L 207.649022 244.948389 
L 209.352424 251.831654 
L 210.204125 259.665729 
L 211.055826 276.918602 
L 211.907527 290.267333 
L 212.759228 294.107196 
L 213.610929 286.2565 
L 214.46263 273.532424 
L 215.314331 264.775482 
L 216.166032 259.880905 
L 217.017733 259.357341 
L 217.869434 257.37971 
L 219.572836 242.65776 
L 220.424538 237.200696 
L 222.12794 220.881576 
L 222.979641 217.196656 
L 223.831342 218.104037 
L 224.683043 224.736412 
L 225.534744 228.677176 
L 226.386445 228.867215 
L 227.238146 225.381795 
L 228.089847 219.894674 
L 228.941548 210.847212 
L 230.64495 199.622005 
L 232.348352 181.820348 
L 233.200053 176.574796 
L 234.051754 173.925366 
L 234.903455 167.719049 
L 235.755156 157.083519 
L 236.606857 156.372299 
L 237.458558 162.511861 
L 238.310259 180.58439 
L 239.16196 192.16987 
L 240.013661 194.76831 
L 240.865363 191.604567 
L 242.568765 180.415665 
L 243.420466 176.86702 
L 244.272167 175.408274 
L 245.123868 177.20433 
L 246.82727 194.020938 
L 247.678971 197.311803 
L 248.530672 197.687342 
L 249.382373 199.971113 
L 250.234074 205.637304 
L 251.085775 212.965801 
L 251.937476 218.026826 
L 252.789177 221.623323 
L 255.34428 233.47435 
L 256.195981 236.933753 
L 257.047682 235.855826 
L 257.899383 233.948232 
L 258.751084 232.436839 
L 259.602785 233.759748 
L 260.454486 235.881512 
L 261.306188 234.709488 
L 262.157889 234.062382 
L 263.00959 234.846395 
L 263.861291 237.992168 
L 264.712992 240.555895 
L 265.564693 241.837828 
L 266.416394 242.727671 
L 267.268095 245.171624 
L 268.119796 250.225488 
L 268.971497 251.84455 
L 269.823198 250.518138 
L 270.674899 245.669465 
L 271.5266 238.169832 
L 272.378301 234.086881 
L 273.230002 230.871174 
L 274.081703 225.380082 
L 274.933404 221.028866 
L 275.785105 218.049453 
L 276.636806 217.065894 
L 277.488507 216.769405 
L 278.340208 215.471982 
L 280.04361 211.728158 
L 280.895312 211.329084 
L 281.747013 212.165521 
L 282.598714 211.966459 
L 283.450415 210.280577 
L 285.153817 204.219446 
L 286.857219 198.13458 
L 288.560621 186.3066 
L 289.412322 183.932689 
L 290.264023 184.834753 
L 291.115724 187.206551 
L 291.967425 188.09814 
L 292.819126 188.634335 
L 293.670827 190.357389 
L 294.522528 193.146883 
L 295.374229 197.179337 
L 297.077631 197.788982 
L 297.929332 198.867496 
L 298.781033 201.697118 
L 299.632734 203.978985 
L 300.484435 204.109188 
L 301.336137 203.089184 
L 302.187838 203.551837 
L 303.039539 206.886699 
L 303.89124 209.452167 
L 305.594642 212.729446 
L 306.446343 213.935746 
L 308.149745 220.106348 
L 309.001446 223.838696 
L 310.704848 228.199648 
L 312.40825 232.378624 
L 313.259951 233.798456 
L 314.111652 232.544965 
L 314.963353 229.882764 
L 315.815054 229.41613 
L 316.666755 229.843893 
L 317.518456 230.806157 
L 318.370157 230.862575 
L 319.221858 230.4032 
L 320.073559 230.386104 
L 320.92526 230.81369 
L 322.628663 232.387283 
L 324.332065 232.685802 
L 325.183766 233.101488 
L 326.035467 233.716021 
L 326.887168 231.974885 
L 327.738869 227.909142 
L 328.59057 224.883907 
L 329.442271 222.810377 
L 330.293972 221.335457 
L 331.145673 219.450802 
L 331.997374 217.192568 
L 332.849075 215.394883 
L 333.700776 214.851722 
L 334.552477 213.935914 
L 335.404178 211.222262 
L 337.10758 207.154326 
L 337.959281 205.389459 
L 339.662683 204.952906 
L 340.514384 203.361909 
L 341.366085 200.820148 
L 342.217787 197.595144 
L 343.069488 196.783308 
L 343.921189 196.15464 
L 344.77289 195.286753 
L 345.624591 195.063579 
L 346.476292 195.580118 
L 347.327993 196.354596 
L 349.031395 194.668444 
L 349.883096 194.245463 
L 350.734797 195.089912 
L 351.586498 197.19932 
L 352.438199 200.787847 
L 353.2899 203.080077 
L 354.993302 205.559078 
L 355.845003 207.325421 
L 356.696704 208.368108 
L 359.251807 212.869333 
L 360.103508 214.945359 
L 360.955209 215.979834 
L 361.80691 216.599758 
L 362.658612 217.798614 
L 363.510313 218.195006 
L 364.362014 219.247652 
L 365.213715 221.718357 
L 366.065416 224.546811 
L 366.917117 226.836052 
L 367.768818 227.941909 
L 368.620519 228.193646 
L 369.47222 228.592436 
L 370.323921 228.82738 
L 371.175622 228.585355 
L 372.027323 229.099994 
L 373.730725 231.823852 
L 374.582426 232.422928 
L 375.434127 232.009654 
L 377.137529 230.110045 
L 377.98923 229.495325 
L 379.692632 229.519209 
L 380.544333 229.249165 
L 381.396034 228.795591 
L 382.247735 227.980235 
L 383.951138 224.40779 
L 384.802839 222.40404 
L 387.357942 218.866792 
L 388.209643 217.839329 
L 389.061344 217.29885 
L 389.913045 216.384103 
L 391.616447 214.317668 
L 392.468148 212.89764 
L 395.023251 204.539591 
L 395.874952 203.208325 
L 397.578354 199.463187 
L 399.281756 195.742562 
L 400.133457 195.204118 
L 400.985158 196.451613 
L 401.836859 198.799656 
L 402.68856 200.371779 
L 403.540262 200.343463 
L 404.391963 199.796419 
L 406.095365 198.435156 
L 406.947066 197.333131 
L 407.798767 197.064414 
L 408.650468 198.417958 
L 409.502169 200.668259 
L 410.35387 202.505015 
L 412.057272 204.617947 
L 413.760674 208.699739 
L 415.464076 213.874067 
L 416.315777 215.64392 
L 418.87088 217.953777 
L 420.574282 218.616926 
L 421.425983 219.660517 
L 423.981087 225.903814 
L 424.832788 226.35986 
L 425.684489 226.039925 
L 426.53619 225.221692 
L 427.387891 224.913322 
L 428.239592 226.341824 
L 429.091293 227.462286 
L 429.942994 229.358995 
L 430.794695 230.200129 
L 431.646396 231.622657 
L 432.498097 232.579464 
L 433.349798 232.016898 
L 435.0532 229.55396 
L 435.904901 229.072143 
L 436.756602 228.965796 
L 437.608303 229.223642 
L 438.460004 228.48276 
L 440.163406 224.857537 
L 441.015107 222.658925 
L 442.718509 219.054345 
L 443.570211 219.220332 
L 444.421912 219.690025 
L 445.273613 219.398555 
L 446.125314 218.891989 
L 447.828716 217.492726 
L 448.680417 216.841896 
L 450.383819 214.077068 
L 451.23552 212.069891 
L 453.790623 203.844298 
L 455.494025 200.980903 
L 456.345726 197.578327 
L 457.197427 197.369188 
L 458.049128 197.342289 
L 458.900829 197.921085 
L 461.455932 203.310691 
L 462.307633 203.375513 
L 463.159334 202.396098 
L 464.011036 200.749688 
L 465.714438 199.593791 
L 466.566139 199.898967 
L 468.269541 202.139072 
L 469.121242 202.552225 
L 470.824644 205.254996 
L 471.676345 207.223674 
L 472.528046 210.636138 
L 474.231448 214.956072 
L 475.083149 216.561497 
L 476.786551 217.212225 
L 477.638252 217.056378 
L 478.489953 217.069786 
L 479.341654 218.5368 
L 480.193355 219.105521 
L 481.045056 220.866268 
L 481.896757 222.161819 
L 482.748458 223.169085 
L 483.600159 223.765377 
L 484.451861 223.721576 
L 486.155263 222.556088 
L 487.006964 223.229368 
L 487.858665 224.417855 
L 489.562067 228.512138 
L 490.413768 229.570665 
L 491.265469 229.837622 
L 492.11717 229.232889 
L 492.968871 227.647236 
L 493.820572 226.301114 
L 494.672273 225.620999 
L 495.523974 225.793058 
L 496.375675 226.100976 
L 497.227376 225.987296 
L 498.079077 225.253482 
L 498.930778 223.442006 
L 500.63418 219.271816 
L 501.485881 217.963247 
L 502.337582 218.285426 
L 503.189283 218.853216 
L 505.744387 218.710274 
L 506.596088 218.166527 
L 507.447789 216.936203 
L 512.557995 208.147145 
L 514.261397 204.012627 
L 515.964799 201.332166 
L 516.8165 200.895283 
L 517.668201 201.567837 
L 518.519902 203.173658 
L 519.371603 205.364644 
L 520.223304 206.674815 
L 521.075005 206.837408 
L 521.926706 206.215784 
L 522.778407 205.026002 
L 523.630108 203.52326 
L 524.481809 203.266066 
L 525.333511 203.205662 
L 527.888614 204.000886 
L 529.592016 205.647594 
L 530.443717 207.04871 
L 531.295418 209.333156 
L 532.147119 212.249082 
L 532.99882 214.311523 
L 533.850521 215.696716 
L 534.702222 216.301333 
L 535.553923 216.375416 
L 536.405624 216.913455 
L 538.109026 215.869213 
L 538.960727 216.299731 
L 539.812428 217.016543 
L 540.664129 217.897209 
L 541.51583 218.478156 
L 543.219232 220.635695 
L 544.070933 220.297686 
L 544.922634 220.123877 
L 545.774336 221.032311 
L 548.329439 224.458742 
L 549.18114 224.67355 
L 550.884542 225.442776 
L 551.736243 225.509466 
L 552.587944 224.861634 
L 553.439645 223.48124 
L 554.291346 222.538824 
L 555.143047 222.311213 
L 555.994748 222.288307 
L 556.846449 221.745258 
L 557.69815 221.469683 
L 558.549851 221.053569 
L 559.401552 219.571619 
L 560.253253 219.153988 
L 561.104954 219.105493 
L 561.956655 218.838522 
L 562.808356 218.887226 
L 563.660057 218.551308 
L 565.363459 218.38073 
L 566.215161 218.101495 
L 567.066862 217.259229 
L 568.770264 214.349216 
L 569.621965 213.274841 
L 570.473666 211.819322 
L 572.177068 210.105688 
L 573.028769 208.613979 
L 574.732171 207.219055 
L 576.435573 206.927288 
L 577.287274 207.541304 
L 578.990676 209.224295 
L 579.842377 209.639524 
L 580.694078 209.577472 
L 581.545779 209.063252 
L 583.249181 208.472253 
L 584.100882 207.313716 
L 584.952583 206.502607 
L 585.804284 206.610984 
L 586.655986 207.03492 
L 588.359388 208.271417 
L 589.211089 208.322761 
L 591.766192 212.019991 
L 593.469594 214.152109 
L 595.172996 215.636308 
L 596.024697 215.562882 
L 596.876398 215.212097 
L 597.728099 214.364822 
L 598.5798 214.439435 
L 599.431501 215.012095 
L 600.283202 215.829364 
L 601.134903 216.031848 
L 601.986604 216.777432 
L 602.838305 217.68527 
L 603.690006 217.475751 
L 604.541707 217.918936 
L 605.393408 219.029092 
L 606.24511 219.91731 
L 607.096811 220.038267 
L 607.948512 220.917863 
L 608.800213 221.56927 
L 609.651914 221.303863 
L 610.503615 221.228188 
L 611.355316 221.03597 
L 612.207017 220.243028 
L 613.058718 219.646209 
L 613.910419 219.649464 
L 614.76212 219.809892 
L 616.465522 219.152535 
L 619.020625 218.975094 
L 620.724027 218.126487 
L 622.427429 218.82327 
L 623.27913 218.590602 
L 624.982532 217.500915 
L 626.685935 216.096349 
L 630.092739 213.165659 
L 630.94444 212.847609 
L 631.796141 212.327206 
L 632.647842 211.644857 
L 633.499543 211.657223 
L 634.351244 211.451335 
L 635.202945 210.980991 
L 636.054646 210.891935 
L 636.906347 211.019596 
L 638.609749 211.869758 
L 639.46145 211.800266 
L 643.719955 209.863718 
L 644.571656 210.037052 
L 645.423357 209.882937 
L 646.275058 209.560879 
L 647.12676 209.799105 
L 648.830162 210.587541 
L 649.681863 211.348149 
L 650.533564 211.778868 
L 651.385265 212.355793 
L 652.236966 213.447114 
L 653.088667 213.860686 
L 653.940368 214.064692 
L 654.792069 214.552598 
L 655.64377 214.369291 
L 656.495471 214.524999 
L 658.198873 214.532337 
L 660.753976 215.265201 
L 661.605677 215.833186 
L 662.457378 215.86533 
L 663.309079 216.292729 
L 664.16078 216.902458 
L 666.715883 218.100657 
L 667.567585 218.93255 
L 668.419286 218.814964 
L 669.270987 218.932745 
L 670.122688 218.890844 
L 671.82609 218.451237 
L 672.677791 217.69175 
L 673.529492 217.577302 
L 674.381193 218.278307 
L 675.232894 218.226382 
L 676.084595 217.897293 
L 676.936296 217.796785 
L 677.787997 217.482157 
L 679.491399 217.764059 
L 681.194801 217.482744 
L 682.898203 217.368538 
L 683.749904 217.044654 
L 684.601605 217.005201 
L 685.453306 216.604703 
L 686.305007 216.055555 
L 687.156708 215.928602 
L 688.00841 215.140436 
L 688.860111 215.058699 
L 689.711812 215.096793 
L 691.415214 213.705258 
L 692.266915 213.366774 
L 693.118616 213.390547 
L 693.970317 213.778838 
L 694.822018 213.370154 
L 695.673719 213.377976 
L 696.52542 214.140381 
L 697.377121 213.915661 
L 699.080523 212.823153 
L 699.932224 212.968175 
L 700.783925 212.940436 
L 701.635626 212.345261 
L 702.487327 211.999654 
L 703.339028 211.986357 
L 704.190729 211.604366 
L 705.04243 211.949605 
L 705.894131 212.16621 
L 706.745832 212.148099 
L 707.597533 211.924594 
L 708.449235 212.528456 
L 709.300936 212.981891 
L 710.152637 212.804991 
L 712.70774 213.582131 
L 713.559441 213.771351 
L 714.411142 213.59176 
L 716.114544 214.160136 
L 716.966245 214.227328 
L 717.817946 214.420021 
L 718.669647 214.360967 
L 719.521348 214.50131 
L 721.22475 215.306311 
L 722.076451 215.694258 
L 722.928152 215.122297 
L 725.483255 216.127813 
L 726.334956 216.436928 
L 727.186657 216.400222 
L 728.038358 216.034585 
L 729.741761 217.017865 
L 730.593462 216.494519 
L 731.445163 216.654957 
L 732.296864 217.03877 
L 733.148565 216.577625 
L 734.000266 216.705575 
L 734.851967 216.49749 
L 735.703668 216.637135 
L 736.555369 216.938745 
L 737.40707 216.480017 
L 738.258771 216.211244 
L 739.962173 216.481102 
L 740.813874 216.766286 
L 741.665575 216.077088 
L 742.517276 215.854696 
L 743.368977 216.003625 
L 744.220678 216.328011 
L 745.92408 215.882649 
L 746.775781 215.55675 
L 747.627482 215.61281 
L 748.479183 215.790483 
L 750.182586 215.051362 
L 751.034287 214.876724 
L 752.737689 215.065608 
L 753.58939 214.589332 
L 754.441091 214.551258 
L 755.292792 214.303813 
L 756.144493 213.748054 
L 756.996194 214.108252 
L 757.847895 214.318413 
L 759.551297 213.983682 
L 760.402998 213.927692 
L 762.1064 213.94449 
L 762.958101 213.797805 
L 763.809802 213.99237 
L 766.364905 212.904093 
L 768.068307 213.734375 
L 768.920008 213.366299 
L 769.77171 213.608986 
L 771.475112 213.633983 
L 772.326813 213.791408 
L 773.178514 214.348424 
L 774.030215 214.623217 
L 774.881916 214.301215 
L 775.733617 214.318944 
L 776.585318 214.795532 
L 776.585318 214.795532 
" style="fill:none;stroke:#1f77b4;stroke-linecap:square;stroke-width:1.5;"/>
   </g>
   <g id="line2d_34">
    <path clip-path="url(#pb6b6944fbd)" d="M 108 276.228907 
L 108.851701 274.565075 
L 109.703402 272.333937 
L 110.555103 269.561791 
L 111.406804 266.279986 
L 113.110206 258.335963 
L 114.813608 248.839597 
L 117.368711 232.553728 
L 123.330619 192.789617 
L 125.034021 182.957443 
L 126.737423 174.519869 
L 128.440825 167.780979 
L 129.292526 165.124496 
L 130.144227 162.974245 
L 130.995928 161.347082 
L 131.847629 160.254631 
L 132.69933 159.703221 
L 133.551031 159.693857 
L 134.402732 160.222261 
L 135.254433 161.278955 
L 136.106134 162.849392 
L 136.957835 164.91414 
L 137.809536 167.449111 
L 138.661238 170.425836 
L 140.36464 177.57065 
L 142.068042 186.045904 
L 144.623145 200.480015 
L 149.733351 230.704581 
L 151.436753 239.747786 
L 153.140155 247.685125 
L 154.843557 254.227235 
L 155.695258 256.900449 
L 156.546959 259.143384 
L 157.39866 260.937671 
L 158.250361 262.269457 
L 159.102063 263.129504 
L 159.953764 263.513241 
L 160.805465 263.420771 
L 161.657166 262.856832 
L 162.508867 261.830716 
L 163.360568 260.356139 
L 164.212269 258.451073 
L 165.06397 256.137535 
L 166.767372 250.391834 
L 168.470774 243.365874 
L 170.174176 235.352069 
L 173.58098 217.685058 
L 176.987784 200.160455 
L 178.691186 192.298479 
L 180.394589 185.438034 
L 182.097991 179.828492 
L 182.949692 177.55661 
L 183.801393 175.666819 
L 184.653094 174.174437 
L 185.504795 173.090793 
L 186.356496 172.423142 
L 187.208197 172.17463 
L 188.059898 172.3443 
L 188.911599 172.927127 
L 189.7633 173.914108 
L 190.615001 175.292376 
L 191.466702 177.045356 
L 192.318403 179.152961 
L 194.021805 184.335495 
L 195.725207 190.618224 
L 197.428609 197.740385 
L 200.835414 213.330121 
L 204.242218 228.664956 
L 205.94562 235.496207 
L 207.649022 241.421615 
L 209.352424 246.226453 
L 210.204125 248.154183 
L 211.055826 249.742799 
L 211.907527 250.979568 
L 212.759228 251.855283 
L 213.610929 252.364331 
L 214.46263 252.504709 
L 215.314331 252.278023 
L 216.166032 251.689439 
L 217.017733 250.747605 
L 217.869434 249.464537 
L 218.721135 247.85548 
L 219.572836 245.938725 
L 221.276239 241.269316 
L 222.979641 235.655344 
L 225.534744 225.978476 
L 231.496651 202.16621 
L 233.200053 196.233919 
L 234.903455 191.119901 
L 236.606857 187.008896 
L 237.458558 185.375976 
L 238.310259 184.043866 
L 239.16196 183.023109 
L 240.013661 182.321136 
L 240.865363 181.94221 
L 241.717064 181.887417 
L 242.568765 182.154678 
L 243.420466 182.738795 
L 244.272167 183.631526 
L 245.123868 184.821693 
L 245.975569 186.295308 
L 247.678971 190.023897 
L 249.382373 194.655924 
L 251.085775 199.997656 
L 253.640878 208.859397 
L 257.899383 223.922978 
L 259.602785 229.371079 
L 261.306188 234.172547 
L 263.00959 238.151979 
L 263.861291 239.787942 
L 264.712992 241.168599 
L 265.564693 242.282564 
L 266.416394 243.121143 
L 267.268095 243.67839 
L 268.119796 243.951147 
L 268.971497 243.939053 
L 269.823198 243.64452 
L 270.674899 243.072694 
L 271.5266 242.231377 
L 272.378301 241.130932 
L 273.230002 239.784162 
L 274.933404 236.414171 
L 276.636806 232.266614 
L 278.340208 227.514458 
L 280.895312 219.679788 
L 285.153817 206.474252 
L 286.857219 201.735933 
L 288.560621 197.583827 
L 290.264023 194.169179 
L 291.115724 192.777323 
L 291.967425 191.612272 
L 292.819126 190.683541 
L 293.670827 189.998267 
L 294.522528 189.56116 
L 295.374229 189.374476 
L 296.22593 189.438013 
L 297.077631 189.749136 
L 297.929332 190.302819 
L 298.781033 191.091718 
L 299.632734 192.106254 
L 300.484435 193.334732 
L 302.187838 196.376932 
L 303.89124 200.087773 
L 305.594642 204.312935 
L 309.001446 213.608755 
L 312.40825 222.807806 
L 314.111652 226.926563 
L 315.815054 230.514616 
L 317.518456 233.441654 
L 318.370157 234.624031 
L 319.221858 235.605034 
L 320.073559 236.376736 
L 320.92526 236.93331 
L 321.776962 237.271072 
L 322.628663 237.388496 
L 323.480364 237.286216 
L 324.332065 236.966998 
L 325.183766 236.4357 
L 326.035467 235.699202 
L 326.887168 234.766331 
L 328.59057 232.355851 
L 330.293972 229.309428 
L 331.997374 225.755149 
L 334.552477 219.793538 
L 339.662683 207.582238 
L 341.366085 204.00403 
L 343.069488 200.905647 
L 344.77289 198.399273 
L 345.624591 197.396478 
L 346.476292 196.572379 
L 347.327993 195.933559 
L 348.179694 195.484745 
L 349.031395 195.228774 
L 349.883096 195.166584 
L 350.734797 195.297219 
L 351.586498 195.617852 
L 352.438199 196.123831 
L 353.2899 196.808734 
L 354.141601 197.664452 
L 355.845003 199.848006 
L 357.548405 202.579682 
L 359.251807 205.744981 
L 361.80691 211.020029 
L 366.065416 220.041594 
L 367.768818 223.322911 
L 369.47222 226.226408 
L 371.175622 228.645805 
L 372.879024 230.495262 
L 373.730725 231.185781 
L 374.582426 231.712368 
L 375.434127 232.071215 
L 376.285828 232.260183 
L 377.137529 232.278799 
L 377.98923 232.128257 
L 378.840931 231.811385 
L 379.692632 231.332609 
L 380.544333 230.697896 
L 382.247735 228.99179 
L 383.951138 226.768598 
L 385.65454 224.122643 
L 388.209643 219.602807 
L 394.17155 208.634243 
L 395.874952 205.938273 
L 397.578354 203.633121 
L 399.281756 201.801705 
L 400.985158 200.507283 
L 401.836859 200.075294 
L 402.68856 199.791317 
L 403.540262 199.656926 
L 404.391963 199.672223 
L 405.243664 199.835851 
L 406.095365 200.145024 
L 406.947066 200.595556 
L 408.650468 201.897319 
L 410.35387 203.682068 
L 412.057272 205.87299 
L 414.612375 209.718198 
L 421.425983 220.712041 
L 423.129385 223.050086 
L 424.832788 225.036013 
L 426.53619 226.598633 
L 428.239592 227.68428 
L 429.091293 228.036717 
L 429.942994 228.258607 
L 430.794695 228.34884 
L 431.646396 228.3076 
L 432.498097 228.136348 
L 433.349798 227.837799 
L 435.0532 226.875712 
L 436.756602 225.466469 
L 438.460004 223.671779 
L 440.163406 221.567272 
L 442.718509 218.020701 
L 447.828716 210.705916 
L 449.532118 208.548265 
L 451.23552 206.6718 
L 452.938922 205.144613 
L 454.642324 204.020187 
L 456.345726 203.335563 
L 457.197427 203.164953 
L 458.049128 203.110169 
L 458.900829 203.170809 
L 460.604231 203.631182 
L 462.307633 204.520963 
L 464.011036 205.798827 
L 465.714438 207.4091 
L 468.269541 210.297216 
L 472.528046 215.702918 
L 475.083149 218.836177 
L 476.786551 220.710357 
L 478.489953 222.330397 
L 480.193355 223.637694 
L 481.896757 224.586686 
L 483.600159 225.146407 
L 485.303562 225.30145 
L 487.006964 225.052312 
L 488.710366 224.415125 
L 490.413768 223.420773 
L 492.11717 222.113466 
L 493.820572 220.548813 
L 496.375675 217.862612 
L 502.337582 211.293041 
L 504.040984 209.666025 
L 505.744387 208.268426 
L 507.447789 207.150637 
L 509.151191 206.351416 
L 510.854593 205.896573 
L 512.557995 205.798177 
L 514.261397 206.054313 
L 515.964799 206.649376 
L 517.668201 207.554901 
L 519.371603 208.730864 
L 521.926706 210.890671 
L 525.333511 214.193429 
L 528.740315 217.50144 
L 531.295418 219.680442 
L 532.99882 220.885198 
L 534.702222 221.839797 
L 536.405624 222.51132 
L 538.109026 222.87833 
L 539.812428 222.931515 
L 541.51583 222.673855 
L 543.219232 222.120312 
L 544.922634 221.297055 
L 546.626037 220.240269 
L 549.18114 218.31673 
L 553.439645 214.65684 
L 556.846449 211.836542 
L 559.401552 210.067893 
L 561.104954 209.137866 
L 562.808356 208.4465 
L 564.511758 208.016715 
L 566.215161 207.860939 
L 567.918563 207.980802 
L 569.621965 208.367239 
L 571.325367 209.001018 
L 573.028769 209.853644 
L 575.583872 211.461252 
L 578.990676 213.980665 
L 583.249181 217.170704 
L 585.804284 218.812616 
L 587.507687 219.705623 
L 589.211089 220.399121 
L 590.914491 220.86948 
L 592.617893 221.102083 
L 594.321295 221.091748 
L 596.024697 220.842774 
L 597.728099 220.368628 
L 599.431501 219.691271 
L 601.986604 218.360432 
L 605.393408 216.198074 
L 610.503615 212.830496 
L 613.058718 211.406497 
L 614.76212 210.638667 
L 616.465522 210.048823 
L 618.168924 209.656931 
L 619.872326 209.474976 
L 621.575728 209.506627 
L 623.27913 209.74723 
L 624.982532 210.18412 
L 626.685935 210.797241 
L 629.241038 211.987767 
L 632.647842 213.902816 
L 637.758048 216.853453 
L 640.313151 218.087704 
L 642.868254 219.018798 
L 644.571656 219.433624 
L 646.275058 219.667143 
L 647.978461 219.713231 
L 649.681863 219.573114 
L 651.385265 219.255204 
L 653.940368 218.479807 
L 656.495471 217.415599 
L 659.902275 215.720423 
L 665.012481 213.136261 
L 667.567585 212.067148 
L 670.122688 211.270042 
L 671.82609 210.921738 
L 673.529492 210.733731 
L 675.232894 210.710723 
L 676.936296 210.850954 
L 679.491399 211.348149 
L 682.046502 212.141868 
L 685.453306 213.528013 
L 693.118616 216.892493 
L 695.673719 217.744091 
L 698.228822 218.331384 
L 700.783925 218.609996 
L 703.339028 218.563272 
L 705.894131 218.20305 
L 708.449235 217.567959 
L 711.856039 216.402359 
L 721.22475 212.858551 
L 723.779853 212.197471 
L 726.334956 211.787355 
L 728.89006 211.657599 
L 731.445163 211.812683 
L 734.000266 212.232382 
L 736.555369 212.874105 
L 739.962173 213.968199 
L 747.627482 216.54867 
L 750.182586 217.181042 
L 752.737689 217.60299 
L 755.292792 217.783125 
L 757.847895 217.711691 
L 760.402998 217.400891 
L 762.958101 216.883307 
L 766.364905 215.959246 
L 774.881916 213.443414 
L 776.585318 213.061562 
L 776.585318 213.061562 
" style="fill:none;stroke:#ff0000;stroke-dasharray:1.5,2.475;stroke-dashoffset:0;stroke-width:1.5;"/>
   </g>
   <g id="patch_3">
    <path d="M 108 378 
L 108 51.84 
" style="fill:none;stroke:#000000;stroke-linecap:square;stroke-linejoin:miter;stroke-width:0.8;"/>
   </g>
   <g id="patch_4">
    <path d="M 777.6 378 
L 777.6 51.84 
" style="fill:none;stroke:#000000;stroke-linecap:square;stroke-linejoin:miter;stroke-width:0.8;"/>
   </g>
   <g id="patch_5">
    <path d="M 108 378 
L 777.6 378 
" style="fill:none;stroke:#000000;stroke-linecap:square;stroke-linejoin:miter;stroke-width:0.8;"/>
   </g>
   <g id="patch_6">
    <path d="M 108 51.84 
L 777.6 51.84 
" style="fill:none;stroke:#000000;stroke-linecap:square;stroke-linejoin:miter;stroke-width:0.8;"/>
   </g>
   <g id="text_19">
    <!-- Medição 1 - Direção Y -->
    <g transform="translate(344.964375 45.84)scale(0.18 -0.18)">
     <defs>
      <path d="M 9.8125 72.90625 
L 24.515625 72.90625 
L 43.109375 23.296875 
L 61.8125 72.90625 
L 76.515625 72.90625 
L 76.515625 0 
L 66.890625 0 
L 66.890625 64.015625 
L 48.09375 14.015625 
L 38.1875 14.015625 
L 19.390625 64.015625 
L 19.390625 0 
L 9.8125 0 
z
" id="DejaVuSans-77"/>
      <path d="M 45.40625 46.390625 
L 45.40625 75.984375 
L 54.390625 75.984375 
L 54.390625 0 
L 45.40625 0 
L 45.40625 8.203125 
Q 42.578125 3.328125 38.25 0.953125 
Q 33.9375 -1.421875 27.875 -1.421875 
Q 17.96875 -1.421875 11.734375 6.484375 
Q 5.515625 14.40625 5.515625 27.296875 
Q 5.515625 40.1875 11.734375 48.09375 
Q 17.96875 56 27.875 56 
Q 33.9375 56 38.25 53.625 
Q 42.578125 51.265625 45.40625 46.390625 
z
M 14.796875 27.296875 
Q 14.796875 17.390625 18.875 11.75 
Q 22.953125 6.109375 30.078125 6.109375 
Q 37.203125 6.109375 41.296875 11.75 
Q 45.40625 17.390625 45.40625 27.296875 
Q 45.40625 37.203125 41.296875 42.84375 
Q 37.203125 48.484375 30.078125 48.484375 
Q 22.953125 48.484375 18.875 42.84375 
Q 14.796875 37.203125 14.796875 27.296875 
z
" id="DejaVuSans-100"/>
      <path d="M 48.78125 52.59375 
L 48.78125 44.1875 
Q 44.96875 46.296875 41.140625 47.34375 
Q 37.3125 48.390625 33.40625 48.390625 
Q 24.65625 48.390625 19.8125 42.84375 
Q 14.984375 37.3125 14.984375 27.296875 
Q 14.984375 17.28125 19.8125 11.734375 
Q 24.65625 6.203125 33.40625 6.203125 
Q 37.3125 6.203125 41.140625 7.25 
Q 44.96875 8.296875 48.78125 10.40625 
L 48.78125 2.09375 
Q 45.015625 0.34375 40.984375 -0.53125 
Q 36.96875 -1.421875 32.421875 -1.421875 
Q 20.0625 -1.421875 12.78125 6.34375 
Q 5.515625 14.109375 5.515625 27.296875 
Q 5.515625 40.671875 12.859375 48.328125 
Q 20.21875 56 33.015625 56 
Q 37.15625 56 41.109375 55.140625 
Q 45.0625 54.296875 48.78125 52.59375 
z
M 36.078125 0 
Q 38.765625 -3.03125 40.078125 -5.59375 
Q 41.40625 -8.15625 41.40625 -10.5 
Q 41.40625 -14.84375 38.46875 -17.0625 
Q 35.546875 -19.28125 29.78125 -19.28125 
Q 27.546875 -19.28125 25.421875 -18.984375 
Q 23.296875 -18.703125 21.1875 -18.109375 
L 21.1875 -11.71875 
Q 22.859375 -12.546875 24.65625 -12.90625 
Q 26.46875 -13.28125 28.765625 -13.28125 
Q 31.640625 -13.28125 33.109375 -12.109375 
Q 34.578125 -10.9375 34.578125 -8.6875 
Q 34.578125 -7.234375 33.515625 -5.109375 
Q 32.46875 -2.984375 30.28125 0 
z
" id="DejaVuSans-231"/>
      <path d="M 34.28125 27.484375 
Q 23.390625 27.484375 19.1875 25 
Q 14.984375 22.515625 14.984375 16.5 
Q 14.984375 11.71875 18.140625 8.90625 
Q 21.296875 6.109375 26.703125 6.109375 
Q 34.1875 6.109375 38.703125 11.40625 
Q 43.21875 16.703125 43.21875 25.484375 
L 43.21875 27.484375 
z
M 52.203125 31.203125 
L 52.203125 0 
L 43.21875 0 
L 43.21875 8.296875 
Q 40.140625 3.328125 35.546875 0.953125 
Q 30.953125 -1.421875 24.3125 -1.421875 
Q 15.921875 -1.421875 10.953125 3.296875 
Q 6 8.015625 6 15.921875 
Q 6 25.140625 12.171875 29.828125 
Q 18.359375 34.515625 30.609375 34.515625 
L 43.21875 34.515625 
L 43.21875 35.40625 
Q 43.21875 41.609375 39.140625 45 
Q 35.0625 48.390625 27.6875 48.390625 
Q 23 48.390625 18.546875 47.265625 
Q 14.109375 46.140625 10.015625 43.890625 
L 10.015625 52.203125 
Q 14.9375 54.109375 19.578125 55.046875 
Q 24.21875 56 28.609375 56 
Q 40.484375 56 46.34375 49.84375 
Q 52.203125 43.703125 52.203125 31.203125 
z
M 28.8125 66.890625 
L 26.03125 69.578125 
Q 24.953125 70.5625 24.140625 71.015625 
Q 23.34375 71.484375 22.703125 71.484375 
Q 20.84375 71.484375 19.96875 69.703125 
Q 19.09375 67.921875 19 63.921875 
L 12.890625 63.921875 
Q 12.984375 70.515625 15.46875 74.09375 
Q 17.96875 77.6875 22.40625 77.6875 
Q 24.265625 77.6875 25.828125 77 
Q 27.390625 76.3125 29.203125 74.703125 
L 31.984375 72.015625 
Q 33.0625 71.046875 33.859375 70.578125 
Q 34.671875 70.125 35.296875 70.125 
Q 37.15625 70.125 38.03125 71.90625 
Q 38.921875 73.6875 39.015625 77.6875 
L 45.125 77.6875 
Q 45.015625 71.09375 42.53125 67.5 
Q 40.046875 63.921875 35.59375 63.921875 
Q 33.734375 63.921875 32.171875 64.59375 
Q 30.609375 65.28125 28.8125 66.890625 
z
" id="DejaVuSans-227"/>
      <path d="M 30.609375 48.390625 
Q 23.390625 48.390625 19.1875 42.75 
Q 14.984375 37.109375 14.984375 27.296875 
Q 14.984375 17.484375 19.15625 11.84375 
Q 23.34375 6.203125 30.609375 6.203125 
Q 37.796875 6.203125 41.984375 11.859375 
Q 46.1875 17.53125 46.1875 27.296875 
Q 46.1875 37.015625 41.984375 42.703125 
Q 37.796875 48.390625 30.609375 48.390625 
z
M 30.609375 56 
Q 42.328125 56 49.015625 48.375 
Q 55.71875 40.765625 55.71875 27.296875 
Q 55.71875 13.875 49.015625 6.21875 
Q 42.328125 -1.421875 30.609375 -1.421875 
Q 18.84375 -1.421875 12.171875 6.21875 
Q 5.515625 13.875 5.515625 27.296875 
Q 5.515625 40.765625 12.171875 48.375 
Q 18.84375 56 30.609375 56 
z
" id="DejaVuSans-111"/>
      <path d="M 4.890625 31.390625 
L 31.203125 31.390625 
L 31.203125 23.390625 
L 4.890625 23.390625 
z
" id="DejaVuSans-45"/>
      <path d="M 19.671875 64.796875 
L 19.671875 8.109375 
L 31.59375 8.109375 
Q 46.6875 8.109375 53.6875 14.9375 
Q 60.6875 21.78125 60.6875 36.53125 
Q 60.6875 51.171875 53.6875 57.984375 
Q 46.6875 64.796875 31.59375 64.796875 
z
M 9.8125 72.90625 
L 30.078125 72.90625 
Q 51.265625 72.90625 61.171875 64.09375 
Q 71.09375 55.28125 71.09375 36.53125 
Q 71.09375 17.671875 61.125 8.828125 
Q 51.171875 0 30.078125 0 
L 9.8125 0 
z
" id="DejaVuSans-68"/>
      <path d="M 41.109375 46.296875 
Q 39.59375 47.171875 37.8125 47.578125 
Q 36.03125 48 33.890625 48 
Q 26.265625 48 22.1875 43.046875 
Q 18.109375 38.09375 18.109375 28.8125 
L 18.109375 0 
L 9.078125 0 
L 9.078125 54.6875 
L 18.109375 54.6875 
L 18.109375 46.1875 
Q 20.953125 51.171875 25.484375 53.578125 
Q 30.03125 56 36.53125 56 
Q 37.453125 56 38.578125 55.875 
Q 39.703125 55.765625 41.0625 55.515625 
z
" id="DejaVuSans-114"/>
      <path d="M -0.203125 72.90625 
L 10.40625 72.90625 
L 30.609375 42.921875 
L 50.6875 72.90625 
L 61.28125 72.90625 
L 35.5 34.71875 
L 35.5 0 
L 25.59375 0 
L 25.59375 34.71875 
z
" id="DejaVuSans-89"/>
     </defs>
     <use xlink:href="#DejaVuSans-77"/>
     <use x="86.279297" xlink:href="#DejaVuSans-101"/>
     <use x="147.802734" xlink:href="#DejaVuSans-100"/>
     <use x="211.279297" xlink:href="#DejaVuSans-105"/>
     <use x="239.0625" xlink:href="#DejaVuSans-231"/>
     <use x="294.042969" xlink:href="#DejaVuSans-227"/>
     <use x="355.322266" xlink:href="#DejaVuSans-111"/>
     <use x="416.503906" xlink:href="#DejaVuSans-32"/>
     <use x="448.291016" xlink:href="#DejaVuSans-49"/>
     <use x="511.914062" xlink:href="#DejaVuSans-32"/>
     <use x="543.701172" xlink:href="#DejaVuSans-45"/>
     <use x="579.785156" xlink:href="#DejaVuSans-32"/>
     <use x="611.572266" xlink:href="#DejaVuSans-68"/>
     <use x="688.574219" xlink:href="#DejaVuSans-105"/>
     <use x="716.357422" xlink:href="#DejaVuSans-114"/>
     <use x="755.220703" xlink:href="#DejaVuSans-101"/>
     <use x="816.744141" xlink:href="#DejaVuSans-231"/>
     <use x="871.724609" xlink:href="#DejaVuSans-227"/>
     <use x="933.003906" xlink:href="#DejaVuSans-111"/>
     <use x="994.185547" xlink:href="#DejaVuSans-32"/>
     <use x="1025.972656" xlink:href="#DejaVuSans-89"/>
    </g>
   </g>
   <g id="legend_1">
    <g id="patch_7">
     <path d="M 701.221875 89.19625 
L 770.6 89.19625 
Q 772.6 89.19625 772.6 87.19625 
L 772.6 58.84 
Q 772.6 56.84 770.6 56.84 
L 701.221875 56.84 
Q 699.221875 56.84 699.221875 58.84 
L 699.221875 87.19625 
Q 699.221875 89.19625 701.221875 89.19625 
z
" style="fill:#ffffff;opacity:0.8;stroke:#cccccc;stroke-linejoin:miter;"/>
    </g>
    <g id="line2d_35">
     <path d="M 703.221875 64.938437 
L 723.221875 64.938437 
" style="fill:none;stroke:#1f77b4;stroke-linecap:square;stroke-width:1.5;"/>
    </g>
    <g id="line2d_36"/>
    <g id="text_20">
     <!-- original -->
     <g transform="translate(731.221875 68.438437)scale(0.1 -0.1)">
      <defs>
       <path d="M 45.40625 27.984375 
Q 45.40625 37.75 41.375 43.109375 
Q 37.359375 48.484375 30.078125 48.484375 
Q 22.859375 48.484375 18.828125 43.109375 
Q 14.796875 37.75 14.796875 27.984375 
Q 14.796875 18.265625 18.828125 12.890625 
Q 22.859375 7.515625 30.078125 7.515625 
Q 37.359375 7.515625 41.375 12.890625 
Q 45.40625 18.265625 45.40625 27.984375 
z
M 54.390625 6.78125 
Q 54.390625 -7.171875 48.1875 -13.984375 
Q 42 -20.796875 29.203125 -20.796875 
Q 24.46875 -20.796875 20.265625 -20.09375 
Q 16.0625 -19.390625 12.109375 -17.921875 
L 12.109375 -9.1875 
Q 16.0625 -11.328125 19.921875 -12.34375 
Q 23.78125 -13.375 27.78125 -13.375 
Q 36.625 -13.375 41.015625 -8.765625 
Q 45.40625 -4.15625 45.40625 5.171875 
L 45.40625 9.625 
Q 42.625 4.78125 38.28125 2.390625 
Q 33.9375 0 27.875 0 
Q 17.828125 0 11.671875 7.65625 
Q 5.515625 15.328125 5.515625 27.984375 
Q 5.515625 40.671875 11.671875 48.328125 
Q 17.828125 56 27.875 56 
Q 33.9375 56 38.28125 53.609375 
Q 42.625 51.21875 45.40625 46.390625 
L 45.40625 54.6875 
L 54.390625 54.6875 
z
" id="DejaVuSans-103"/>
       <path d="M 54.890625 33.015625 
L 54.890625 0 
L 45.90625 0 
L 45.90625 32.71875 
Q 45.90625 40.484375 42.875 44.328125 
Q 39.84375 48.1875 33.796875 48.1875 
Q 26.515625 48.1875 22.3125 43.546875 
Q 18.109375 38.921875 18.109375 30.90625 
L 18.109375 0 
L 9.078125 0 
L 9.078125 54.6875 
L 18.109375 54.6875 
L 18.109375 46.1875 
Q 21.34375 51.125 25.703125 53.5625 
Q 30.078125 56 35.796875 56 
Q 45.21875 56 50.046875 50.171875 
Q 54.890625 44.34375 54.890625 33.015625 
z
" id="DejaVuSans-110"/>
       <path d="M 9.421875 75.984375 
L 18.40625 75.984375 
L 18.40625 0 
L 9.421875 0 
z
" id="DejaVuSans-108"/>
      </defs>
      <use xlink:href="#DejaVuSans-111"/>
      <use x="61.181641" xlink:href="#DejaVuSans-114"/>
      <use x="102.294922" xlink:href="#DejaVuSans-105"/>
      <use x="130.078125" xlink:href="#DejaVuSans-103"/>
      <use x="193.554688" xlink:href="#DejaVuSans-105"/>
      <use x="221.337891" xlink:href="#DejaVuSans-110"/>
      <use x="284.716797" xlink:href="#DejaVuSans-97"/>
      <use x="345.996094" xlink:href="#DejaVuSans-108"/>
     </g>
    </g>
    <g id="line2d_37">
     <path d="M 703.221875 79.616562 
L 723.221875 79.616562 
" style="fill:none;stroke:#ff0000;stroke-dasharray:1.5,2.475;stroke-dashoffset:0;stroke-width:1.5;"/>
    </g>
    <g id="line2d_38"/>
    <g id="text_21">
     <!-- fitted -->
     <g transform="translate(731.221875 83.116562)scale(0.1 -0.1)">
      <defs>
       <path d="M 37.109375 75.984375 
L 37.109375 68.5 
L 28.515625 68.5 
Q 23.6875 68.5 21.796875 66.546875 
Q 19.921875 64.59375 19.921875 59.515625 
L 19.921875 54.6875 
L 34.71875 54.6875 
L 34.71875 47.703125 
L 19.921875 47.703125 
L 19.921875 0 
L 10.890625 0 
L 10.890625 47.703125 
L 2.296875 47.703125 
L 2.296875 54.6875 
L 10.890625 54.6875 
L 10.890625 58.5 
Q 10.890625 67.625 15.140625 71.796875 
Q 19.390625 75.984375 28.609375 75.984375 
z
" id="DejaVuSans-102"/>
      </defs>
      <use xlink:href="#DejaVuSans-102"/>
      <use x="35.205078" xlink:href="#DejaVuSans-105"/>
      <use x="62.988281" xlink:href="#DejaVuSans-116"/>
      <use x="102.197266" xlink:href="#DejaVuSans-116"/>
      <use x="141.40625" xlink:href="#DejaVuSans-101"/>
      <use x="202.929688" xlink:href="#DejaVuSans-100"/>
     </g>
    </g>
   </g>
  </g>
 </g>
 <defs>
  <clipPath id="pb6b6944fbd">
   <rect height="326.16" width="669.6" x="108" y="51.84"/>
  </clipPath>
 </defs>
</svg>
