<?xml version="1.0" encoding="utf-8" standalone="no"?>
<!DOCTYPE svg PUBLIC "-//W3C//DTD SVG 1.1//EN"
  "http://www.w3.org/Graphics/SVG/1.1/DTD/svg11.dtd">
<!-- Created with matplotlib (https://matplotlib.org/) -->
<svg height="432pt" version="1.1" viewBox="0 0 864 432" width="864pt" xmlns="http://www.w3.org/2000/svg" xmlns:xlink="http://www.w3.org/1999/xlink">
 <metadata>
  <rdf:RDF xmlns:cc="http://creativecommons.org/ns#" xmlns:dc="http://purl.org/dc/elements/1.1/" xmlns:rdf="http://www.w3.org/1999/02/22-rdf-syntax-ns#">
   <cc:Work>
    <dc:type rdf:resource="http://purl.org/dc/dcmitype/StillImage"/>
    <dc:date>2021-11-25T22:49:33.191334</dc:date>
    <dc:format>image/svg+xml</dc:format>
    <dc:creator>
     <cc:Agent>
      <dc:title>Matplotlib v3.3.2, https://matplotlib.org/</dc:title>
     </cc:Agent>
    </dc:creator>
   </cc:Work>
  </rdf:RDF>
 </metadata>
 <defs>
  <style type="text/css">*{stroke-linecap:butt;stroke-linejoin:round;}</style>
 </defs>
 <g id="figure_1">
  <g id="patch_1">
   <path d="M 0 432 
L 864 432 
L 864 0 
L 0 0 
z
" style="fill:none;"/>
  </g>
  <g id="axes_1">
   <g id="patch_2">
    <path d="M 108 378 
L 777.6 378 
L 777.6 51.84 
L 108 51.84 
z
" style="fill:#ffffff;"/>
   </g>
   <g id="matplotlib.axis_1">
    <g id="xtick_1">
     <g id="line2d_1">
      <path clip-path="url(#pb088cac0cf)" d="M 108 378 
L 108 51.84 
" style="fill:none;stroke:#b0b0b0;stroke-linecap:square;stroke-width:0.8;"/>
     </g>
     <g id="line2d_2">
      <defs>
       <path d="M 0 0 
L 0 3.5 
" id="mf8c713c364" style="stroke:#000000;stroke-width:0.8;"/>
      </defs>
      <g>
       <use style="stroke:#000000;stroke-width:0.8;" x="108" xlink:href="#mf8c713c364" y="378"/>
      </g>
     </g>
     <g id="text_1">
      <!-- 0.0 -->
      <g transform="translate(100.048438 392.598437)scale(0.1 -0.1)">
       <defs>
        <path d="M 31.78125 66.40625 
Q 24.171875 66.40625 20.328125 58.90625 
Q 16.5 51.421875 16.5 36.375 
Q 16.5 21.390625 20.328125 13.890625 
Q 24.171875 6.390625 31.78125 6.390625 
Q 39.453125 6.390625 43.28125 13.890625 
Q 47.125 21.390625 47.125 36.375 
Q 47.125 51.421875 43.28125 58.90625 
Q 39.453125 66.40625 31.78125 66.40625 
z
M 31.78125 74.21875 
Q 44.046875 74.21875 50.515625 64.515625 
Q 56.984375 54.828125 56.984375 36.375 
Q 56.984375 17.96875 50.515625 8.265625 
Q 44.046875 -1.421875 31.78125 -1.421875 
Q 19.53125 -1.421875 13.0625 8.265625 
Q 6.59375 17.96875 6.59375 36.375 
Q 6.59375 54.828125 13.0625 64.515625 
Q 19.53125 74.21875 31.78125 74.21875 
z
" id="DejaVuSans-48"/>
        <path d="M 10.6875 12.40625 
L 21 12.40625 
L 21 0 
L 10.6875 0 
z
" id="DejaVuSans-46"/>
       </defs>
       <use xlink:href="#DejaVuSans-48"/>
       <use x="63.623047" xlink:href="#DejaVuSans-46"/>
       <use x="95.410156" xlink:href="#DejaVuSans-48"/>
      </g>
     </g>
    </g>
    <g id="xtick_2">
     <g id="line2d_3">
      <path clip-path="url(#pb088cac0cf)" d="M 247.5 378 
L 247.5 51.84 
" style="fill:none;stroke:#b0b0b0;stroke-linecap:square;stroke-width:0.8;"/>
     </g>
     <g id="line2d_4">
      <g>
       <use style="stroke:#000000;stroke-width:0.8;" x="247.5" xlink:href="#mf8c713c364" y="378"/>
      </g>
     </g>
     <g id="text_2">
      <!-- 0.5 -->
      <g transform="translate(239.548438 392.598437)scale(0.1 -0.1)">
       <defs>
        <path d="M 10.796875 72.90625 
L 49.515625 72.90625 
L 49.515625 64.59375 
L 19.828125 64.59375 
L 19.828125 46.734375 
Q 21.96875 47.46875 24.109375 47.828125 
Q 26.265625 48.1875 28.421875 48.1875 
Q 40.625 48.1875 47.75 41.5 
Q 54.890625 34.8125 54.890625 23.390625 
Q 54.890625 11.625 47.5625 5.09375 
Q 40.234375 -1.421875 26.90625 -1.421875 
Q 22.3125 -1.421875 17.546875 -0.640625 
Q 12.796875 0.140625 7.71875 1.703125 
L 7.71875 11.625 
Q 12.109375 9.234375 16.796875 8.0625 
Q 21.484375 6.890625 26.703125 6.890625 
Q 35.15625 6.890625 40.078125 11.328125 
Q 45.015625 15.765625 45.015625 23.390625 
Q 45.015625 31 40.078125 35.4375 
Q 35.15625 39.890625 26.703125 39.890625 
Q 22.75 39.890625 18.8125 39.015625 
Q 14.890625 38.140625 10.796875 36.28125 
z
" id="DejaVuSans-53"/>
       </defs>
       <use xlink:href="#DejaVuSans-48"/>
       <use x="63.623047" xlink:href="#DejaVuSans-46"/>
       <use x="95.410156" xlink:href="#DejaVuSans-53"/>
      </g>
     </g>
    </g>
    <g id="xtick_3">
     <g id="line2d_5">
      <path clip-path="url(#pb088cac0cf)" d="M 387 378 
L 387 51.84 
" style="fill:none;stroke:#b0b0b0;stroke-linecap:square;stroke-width:0.8;"/>
     </g>
     <g id="line2d_6">
      <g>
       <use style="stroke:#000000;stroke-width:0.8;" x="387" xlink:href="#mf8c713c364" y="378"/>
      </g>
     </g>
     <g id="text_3">
      <!-- 1.0 -->
      <g transform="translate(379.048437 392.598437)scale(0.1 -0.1)">
       <defs>
        <path d="M 12.40625 8.296875 
L 28.515625 8.296875 
L 28.515625 63.921875 
L 10.984375 60.40625 
L 10.984375 69.390625 
L 28.421875 72.90625 
L 38.28125 72.90625 
L 38.28125 8.296875 
L 54.390625 8.296875 
L 54.390625 0 
L 12.40625 0 
z
" id="DejaVuSans-49"/>
       </defs>
       <use xlink:href="#DejaVuSans-49"/>
       <use x="63.623047" xlink:href="#DejaVuSans-46"/>
       <use x="95.410156" xlink:href="#DejaVuSans-48"/>
      </g>
     </g>
    </g>
    <g id="xtick_4">
     <g id="line2d_7">
      <path clip-path="url(#pb088cac0cf)" d="M 526.5 378 
L 526.5 51.84 
" style="fill:none;stroke:#b0b0b0;stroke-linecap:square;stroke-width:0.8;"/>
     </g>
     <g id="line2d_8">
      <g>
       <use style="stroke:#000000;stroke-width:0.8;" x="526.5" xlink:href="#mf8c713c364" y="378"/>
      </g>
     </g>
     <g id="text_4">
      <!-- 1.5 -->
      <g transform="translate(518.548437 392.598437)scale(0.1 -0.1)">
       <use xlink:href="#DejaVuSans-49"/>
       <use x="63.623047" xlink:href="#DejaVuSans-46"/>
       <use x="95.410156" xlink:href="#DejaVuSans-53"/>
      </g>
     </g>
    </g>
    <g id="xtick_5">
     <g id="line2d_9">
      <path clip-path="url(#pb088cac0cf)" d="M 666 378 
L 666 51.84 
" style="fill:none;stroke:#b0b0b0;stroke-linecap:square;stroke-width:0.8;"/>
     </g>
     <g id="line2d_10">
      <g>
       <use style="stroke:#000000;stroke-width:0.8;" x="666" xlink:href="#mf8c713c364" y="378"/>
      </g>
     </g>
     <g id="text_5">
      <!-- 2.0 -->
      <g transform="translate(658.048437 392.598437)scale(0.1 -0.1)">
       <defs>
        <path d="M 19.1875 8.296875 
L 53.609375 8.296875 
L 53.609375 0 
L 7.328125 0 
L 7.328125 8.296875 
Q 12.9375 14.109375 22.625 23.890625 
Q 32.328125 33.6875 34.8125 36.53125 
Q 39.546875 41.84375 41.421875 45.53125 
Q 43.3125 49.21875 43.3125 52.78125 
Q 43.3125 58.59375 39.234375 62.25 
Q 35.15625 65.921875 28.609375 65.921875 
Q 23.96875 65.921875 18.8125 64.3125 
Q 13.671875 62.703125 7.8125 59.421875 
L 7.8125 69.390625 
Q 13.765625 71.78125 18.9375 73 
Q 24.125 74.21875 28.421875 74.21875 
Q 39.75 74.21875 46.484375 68.546875 
Q 53.21875 62.890625 53.21875 53.421875 
Q 53.21875 48.921875 51.53125 44.890625 
Q 49.859375 40.875 45.40625 35.40625 
Q 44.1875 33.984375 37.640625 27.21875 
Q 31.109375 20.453125 19.1875 8.296875 
z
" id="DejaVuSans-50"/>
       </defs>
       <use xlink:href="#DejaVuSans-50"/>
       <use x="63.623047" xlink:href="#DejaVuSans-46"/>
       <use x="95.410156" xlink:href="#DejaVuSans-48"/>
      </g>
     </g>
    </g>
    <g id="text_6">
     <!-- time (s) -->
     <g transform="translate(423.408594 406.276563)scale(0.1 -0.1)">
      <defs>
       <path d="M 18.3125 70.21875 
L 18.3125 54.6875 
L 36.8125 54.6875 
L 36.8125 47.703125 
L 18.3125 47.703125 
L 18.3125 18.015625 
Q 18.3125 11.328125 20.140625 9.421875 
Q 21.96875 7.515625 27.59375 7.515625 
L 36.8125 7.515625 
L 36.8125 0 
L 27.59375 0 
Q 17.1875 0 13.234375 3.875 
Q 9.28125 7.765625 9.28125 18.015625 
L 9.28125 47.703125 
L 2.6875 47.703125 
L 2.6875 54.6875 
L 9.28125 54.6875 
L 9.28125 70.21875 
z
" id="DejaVuSans-116"/>
       <path d="M 9.421875 54.6875 
L 18.40625 54.6875 
L 18.40625 0 
L 9.421875 0 
z
M 9.421875 75.984375 
L 18.40625 75.984375 
L 18.40625 64.59375 
L 9.421875 64.59375 
z
" id="DejaVuSans-105"/>
       <path d="M 52 44.1875 
Q 55.375 50.25 60.0625 53.125 
Q 64.75 56 71.09375 56 
Q 79.640625 56 84.28125 50.015625 
Q 88.921875 44.046875 88.921875 33.015625 
L 88.921875 0 
L 79.890625 0 
L 79.890625 32.71875 
Q 79.890625 40.578125 77.09375 44.375 
Q 74.3125 48.1875 68.609375 48.1875 
Q 61.625 48.1875 57.5625 43.546875 
Q 53.515625 38.921875 53.515625 30.90625 
L 53.515625 0 
L 44.484375 0 
L 44.484375 32.71875 
Q 44.484375 40.625 41.703125 44.40625 
Q 38.921875 48.1875 33.109375 48.1875 
Q 26.21875 48.1875 22.15625 43.53125 
Q 18.109375 38.875 18.109375 30.90625 
L 18.109375 0 
L 9.078125 0 
L 9.078125 54.6875 
L 18.109375 54.6875 
L 18.109375 46.1875 
Q 21.1875 51.21875 25.484375 53.609375 
Q 29.78125 56 35.6875 56 
Q 41.65625 56 45.828125 52.96875 
Q 50 49.953125 52 44.1875 
z
" id="DejaVuSans-109"/>
       <path d="M 56.203125 29.59375 
L 56.203125 25.203125 
L 14.890625 25.203125 
Q 15.484375 15.921875 20.484375 11.0625 
Q 25.484375 6.203125 34.421875 6.203125 
Q 39.59375 6.203125 44.453125 7.46875 
Q 49.3125 8.734375 54.109375 11.28125 
L 54.109375 2.78125 
Q 49.265625 0.734375 44.1875 -0.34375 
Q 39.109375 -1.421875 33.890625 -1.421875 
Q 20.796875 -1.421875 13.15625 6.1875 
Q 5.515625 13.8125 5.515625 26.8125 
Q 5.515625 40.234375 12.765625 48.109375 
Q 20.015625 56 32.328125 56 
Q 43.359375 56 49.78125 48.890625 
Q 56.203125 41.796875 56.203125 29.59375 
z
M 47.21875 32.234375 
Q 47.125 39.59375 43.09375 43.984375 
Q 39.0625 48.390625 32.421875 48.390625 
Q 24.90625 48.390625 20.390625 44.140625 
Q 15.875 39.890625 15.1875 32.171875 
z
" id="DejaVuSans-101"/>
       <path id="DejaVuSans-32"/>
       <path d="M 31 75.875 
Q 24.46875 64.65625 21.28125 53.65625 
Q 18.109375 42.671875 18.109375 31.390625 
Q 18.109375 20.125 21.3125 9.0625 
Q 24.515625 -2 31 -13.1875 
L 23.1875 -13.1875 
Q 15.875 -1.703125 12.234375 9.375 
Q 8.59375 20.453125 8.59375 31.390625 
Q 8.59375 42.28125 12.203125 53.3125 
Q 15.828125 64.359375 23.1875 75.875 
z
" id="DejaVuSans-40"/>
       <path d="M 44.28125 53.078125 
L 44.28125 44.578125 
Q 40.484375 46.53125 36.375 47.5 
Q 32.28125 48.484375 27.875 48.484375 
Q 21.1875 48.484375 17.84375 46.4375 
Q 14.5 44.390625 14.5 40.28125 
Q 14.5 37.15625 16.890625 35.375 
Q 19.28125 33.59375 26.515625 31.984375 
L 29.59375 31.296875 
Q 39.15625 29.25 43.1875 25.515625 
Q 47.21875 21.78125 47.21875 15.09375 
Q 47.21875 7.46875 41.1875 3.015625 
Q 35.15625 -1.421875 24.609375 -1.421875 
Q 20.21875 -1.421875 15.453125 -0.5625 
Q 10.6875 0.296875 5.421875 2 
L 5.421875 11.28125 
Q 10.40625 8.6875 15.234375 7.390625 
Q 20.0625 6.109375 24.8125 6.109375 
Q 31.15625 6.109375 34.5625 8.28125 
Q 37.984375 10.453125 37.984375 14.40625 
Q 37.984375 18.0625 35.515625 20.015625 
Q 33.0625 21.96875 24.703125 23.78125 
L 21.578125 24.515625 
Q 13.234375 26.265625 9.515625 29.90625 
Q 5.8125 33.546875 5.8125 39.890625 
Q 5.8125 47.609375 11.28125 51.796875 
Q 16.75 56 26.8125 56 
Q 31.78125 56 36.171875 55.265625 
Q 40.578125 54.546875 44.28125 53.078125 
z
" id="DejaVuSans-115"/>
       <path d="M 8.015625 75.875 
L 15.828125 75.875 
Q 23.140625 64.359375 26.78125 53.3125 
Q 30.421875 42.28125 30.421875 31.390625 
Q 30.421875 20.453125 26.78125 9.375 
Q 23.140625 -1.703125 15.828125 -13.1875 
L 8.015625 -13.1875 
Q 14.5 -2 17.703125 9.0625 
Q 20.90625 20.125 20.90625 31.390625 
Q 20.90625 42.671875 17.703125 53.65625 
Q 14.5 64.65625 8.015625 75.875 
z
" id="DejaVuSans-41"/>
      </defs>
      <use xlink:href="#DejaVuSans-116"/>
      <use x="39.208984" xlink:href="#DejaVuSans-105"/>
      <use x="66.992188" xlink:href="#DejaVuSans-109"/>
      <use x="164.404297" xlink:href="#DejaVuSans-101"/>
      <use x="225.927734" xlink:href="#DejaVuSans-32"/>
      <use x="257.714844" xlink:href="#DejaVuSans-40"/>
      <use x="296.728516" xlink:href="#DejaVuSans-115"/>
      <use x="348.828125" xlink:href="#DejaVuSans-41"/>
     </g>
    </g>
   </g>
   <g id="matplotlib.axis_2">
    <g id="ytick_1">
     <g id="line2d_11">
      <path clip-path="url(#pb088cac0cf)" d="M 108 378 
L 777.6 378 
" style="fill:none;stroke:#b0b0b0;stroke-linecap:square;stroke-width:0.8;"/>
     </g>
     <g id="line2d_12">
      <defs>
       <path d="M 0 0 
L -3.5 0 
" id="m48e75e8d4b" style="stroke:#000000;stroke-width:0.8;"/>
      </defs>
      <g>
       <use style="stroke:#000000;stroke-width:0.8;" x="108" xlink:href="#m48e75e8d4b" y="378"/>
      </g>
     </g>
     <g id="text_7">
      <!-- −10.0 -->
      <g transform="translate(70.354687 381.799219)scale(0.1 -0.1)">
       <defs>
        <path d="M 10.59375 35.5 
L 73.1875 35.5 
L 73.1875 27.203125 
L 10.59375 27.203125 
z
" id="DejaVuSans-8722"/>
       </defs>
       <use xlink:href="#DejaVuSans-8722"/>
       <use x="83.789062" xlink:href="#DejaVuSans-49"/>
       <use x="147.412109" xlink:href="#DejaVuSans-48"/>
       <use x="211.035156" xlink:href="#DejaVuSans-46"/>
       <use x="242.822266" xlink:href="#DejaVuSans-48"/>
      </g>
     </g>
    </g>
    <g id="ytick_2">
     <g id="line2d_13">
      <path clip-path="url(#pb088cac0cf)" d="M 108 337.23 
L 777.6 337.23 
" style="fill:none;stroke:#b0b0b0;stroke-linecap:square;stroke-width:0.8;"/>
     </g>
     <g id="line2d_14">
      <g>
       <use style="stroke:#000000;stroke-width:0.8;" x="108" xlink:href="#m48e75e8d4b" y="337.23"/>
      </g>
     </g>
     <g id="text_8">
      <!-- −7.5 -->
      <g transform="translate(76.717187 341.029219)scale(0.1 -0.1)">
       <defs>
        <path d="M 8.203125 72.90625 
L 55.078125 72.90625 
L 55.078125 68.703125 
L 28.609375 0 
L 18.3125 0 
L 43.21875 64.59375 
L 8.203125 64.59375 
z
" id="DejaVuSans-55"/>
       </defs>
       <use xlink:href="#DejaVuSans-8722"/>
       <use x="83.789062" xlink:href="#DejaVuSans-55"/>
       <use x="147.412109" xlink:href="#DejaVuSans-46"/>
       <use x="179.199219" xlink:href="#DejaVuSans-53"/>
      </g>
     </g>
    </g>
    <g id="ytick_3">
     <g id="line2d_15">
      <path clip-path="url(#pb088cac0cf)" d="M 108 296.46 
L 777.6 296.46 
" style="fill:none;stroke:#b0b0b0;stroke-linecap:square;stroke-width:0.8;"/>
     </g>
     <g id="line2d_16">
      <g>
       <use style="stroke:#000000;stroke-width:0.8;" x="108" xlink:href="#m48e75e8d4b" y="296.46"/>
      </g>
     </g>
     <g id="text_9">
      <!-- −5.0 -->
      <g transform="translate(76.717187 300.259219)scale(0.1 -0.1)">
       <use xlink:href="#DejaVuSans-8722"/>
       <use x="83.789062" xlink:href="#DejaVuSans-53"/>
       <use x="147.412109" xlink:href="#DejaVuSans-46"/>
       <use x="179.199219" xlink:href="#DejaVuSans-48"/>
      </g>
     </g>
    </g>
    <g id="ytick_4">
     <g id="line2d_17">
      <path clip-path="url(#pb088cac0cf)" d="M 108 255.69 
L 777.6 255.69 
" style="fill:none;stroke:#b0b0b0;stroke-linecap:square;stroke-width:0.8;"/>
     </g>
     <g id="line2d_18">
      <g>
       <use style="stroke:#000000;stroke-width:0.8;" x="108" xlink:href="#m48e75e8d4b" y="255.69"/>
      </g>
     </g>
     <g id="text_10">
      <!-- −2.5 -->
      <g transform="translate(76.717187 259.489219)scale(0.1 -0.1)">
       <use xlink:href="#DejaVuSans-8722"/>
       <use x="83.789062" xlink:href="#DejaVuSans-50"/>
       <use x="147.412109" xlink:href="#DejaVuSans-46"/>
       <use x="179.199219" xlink:href="#DejaVuSans-53"/>
      </g>
     </g>
    </g>
    <g id="ytick_5">
     <g id="line2d_19">
      <path clip-path="url(#pb088cac0cf)" d="M 108 214.92 
L 777.6 214.92 
" style="fill:none;stroke:#b0b0b0;stroke-linecap:square;stroke-width:0.8;"/>
     </g>
     <g id="line2d_20">
      <g>
       <use style="stroke:#000000;stroke-width:0.8;" x="108" xlink:href="#m48e75e8d4b" y="214.92"/>
      </g>
     </g>
     <g id="text_11">
      <!-- 0.0 -->
      <g transform="translate(85.096875 218.719219)scale(0.1 -0.1)">
       <use xlink:href="#DejaVuSans-48"/>
       <use x="63.623047" xlink:href="#DejaVuSans-46"/>
       <use x="95.410156" xlink:href="#DejaVuSans-48"/>
      </g>
     </g>
    </g>
    <g id="ytick_6">
     <g id="line2d_21">
      <path clip-path="url(#pb088cac0cf)" d="M 108 174.15 
L 777.6 174.15 
" style="fill:none;stroke:#b0b0b0;stroke-linecap:square;stroke-width:0.8;"/>
     </g>
     <g id="line2d_22">
      <g>
       <use style="stroke:#000000;stroke-width:0.8;" x="108" xlink:href="#m48e75e8d4b" y="174.15"/>
      </g>
     </g>
     <g id="text_12">
      <!-- 2.5 -->
      <g transform="translate(85.096875 177.949219)scale(0.1 -0.1)">
       <use xlink:href="#DejaVuSans-50"/>
       <use x="63.623047" xlink:href="#DejaVuSans-46"/>
       <use x="95.410156" xlink:href="#DejaVuSans-53"/>
      </g>
     </g>
    </g>
    <g id="ytick_7">
     <g id="line2d_23">
      <path clip-path="url(#pb088cac0cf)" d="M 108 133.38 
L 777.6 133.38 
" style="fill:none;stroke:#b0b0b0;stroke-linecap:square;stroke-width:0.8;"/>
     </g>
     <g id="line2d_24">
      <g>
       <use style="stroke:#000000;stroke-width:0.8;" x="108" xlink:href="#m48e75e8d4b" y="133.38"/>
      </g>
     </g>
     <g id="text_13">
      <!-- 5.0 -->
      <g transform="translate(85.096875 137.179219)scale(0.1 -0.1)">
       <use xlink:href="#DejaVuSans-53"/>
       <use x="63.623047" xlink:href="#DejaVuSans-46"/>
       <use x="95.410156" xlink:href="#DejaVuSans-48"/>
      </g>
     </g>
    </g>
    <g id="ytick_8">
     <g id="line2d_25">
      <path clip-path="url(#pb088cac0cf)" d="M 108 92.61 
L 777.6 92.61 
" style="fill:none;stroke:#b0b0b0;stroke-linecap:square;stroke-width:0.8;"/>
     </g>
     <g id="line2d_26">
      <g>
       <use style="stroke:#000000;stroke-width:0.8;" x="108" xlink:href="#m48e75e8d4b" y="92.61"/>
      </g>
     </g>
     <g id="text_14">
      <!-- 7.5 -->
      <g transform="translate(85.096875 96.409219)scale(0.1 -0.1)">
       <use xlink:href="#DejaVuSans-55"/>
       <use x="63.623047" xlink:href="#DejaVuSans-46"/>
       <use x="95.410156" xlink:href="#DejaVuSans-53"/>
      </g>
     </g>
    </g>
    <g id="ytick_9">
     <g id="line2d_27">
      <path clip-path="url(#pb088cac0cf)" d="M 108 51.84 
L 777.6 51.84 
" style="fill:none;stroke:#b0b0b0;stroke-linecap:square;stroke-width:0.8;"/>
     </g>
     <g id="line2d_28">
      <g>
       <use style="stroke:#000000;stroke-width:0.8;" x="108" xlink:href="#m48e75e8d4b" y="51.84"/>
      </g>
     </g>
     <g id="text_15">
      <!-- 10.0 -->
      <g transform="translate(78.734375 55.639219)scale(0.1 -0.1)">
       <use xlink:href="#DejaVuSans-49"/>
       <use x="63.623047" xlink:href="#DejaVuSans-48"/>
       <use x="127.246094" xlink:href="#DejaVuSans-46"/>
       <use x="159.033203" xlink:href="#DejaVuSans-48"/>
      </g>
     </g>
    </g>
    <g id="text_16">
     <!-- a(t) -->
     <g transform="translate(64.275 223.845781)rotate(-90)scale(0.1 -0.1)">
      <defs>
       <path d="M 34.28125 27.484375 
Q 23.390625 27.484375 19.1875 25 
Q 14.984375 22.515625 14.984375 16.5 
Q 14.984375 11.71875 18.140625 8.90625 
Q 21.296875 6.109375 26.703125 6.109375 
Q 34.1875 6.109375 38.703125 11.40625 
Q 43.21875 16.703125 43.21875 25.484375 
L 43.21875 27.484375 
z
M 52.203125 31.203125 
L 52.203125 0 
L 43.21875 0 
L 43.21875 8.296875 
Q 40.140625 3.328125 35.546875 0.953125 
Q 30.953125 -1.421875 24.3125 -1.421875 
Q 15.921875 -1.421875 10.953125 3.296875 
Q 6 8.015625 6 15.921875 
Q 6 25.140625 12.171875 29.828125 
Q 18.359375 34.515625 30.609375 34.515625 
L 43.21875 34.515625 
L 43.21875 35.40625 
Q 43.21875 41.609375 39.140625 45 
Q 35.0625 48.390625 27.6875 48.390625 
Q 23 48.390625 18.546875 47.265625 
Q 14.109375 46.140625 10.015625 43.890625 
L 10.015625 52.203125 
Q 14.9375 54.109375 19.578125 55.046875 
Q 24.21875 56 28.609375 56 
Q 40.484375 56 46.34375 49.84375 
Q 52.203125 43.703125 52.203125 31.203125 
z
" id="DejaVuSans-97"/>
      </defs>
      <use xlink:href="#DejaVuSans-97"/>
      <use x="61.279297" xlink:href="#DejaVuSans-40"/>
      <use x="100.292969" xlink:href="#DejaVuSans-116"/>
      <use x="139.501953" xlink:href="#DejaVuSans-41"/>
     </g>
    </g>
   </g>
   <g id="line2d_29">
    <path clip-path="url(#pb088cac0cf)" d="M 108 223.861329 
L 108.759252 221.313536 
L 109.518504 216.942872 
L 110.277757 213.298191 
L 111.037009 208.978565 
L 111.796261 194.089698 
L 112.555513 174.04229 
L 113.314765 157.342507 
L 114.074017 121.993118 
L 114.83327 93.199954 
L 115.592522 74.556153 
L 116.351774 69.775441 
L 117.111026 83.491458 
L 117.870278 103.340417 
L 118.629531 118.59196 
L 119.388783 120.152807 
L 120.148035 113.661257 
L 120.907287 99.859755 
L 121.666539 89.306808 
L 122.425791 85.060576 
L 123.185044 86.491509 
L 123.944296 92.107267 
L 124.703548 102.04307 
L 125.4628 107.697001 
L 126.222052 118.640713 
L 129.259061 218.459558 
L 130.018313 226.623221 
L 130.777565 230.427409 
L 131.536818 225.663185 
L 132.29607 219.695148 
L 133.055322 211.912324 
L 133.814574 206.283046 
L 134.573826 210.523939 
L 135.333079 222.850278 
L 136.851583 286.900599 
L 137.610835 311.581299 
L 138.370087 327.760359 
L 140.647844 366.172164 
L 141.407096 368.231312 
L 142.166348 362.854566 
L 143.684853 320.562966 
L 144.444105 301.562233 
L 145.203357 272.500273 
L 145.962609 257.343734 
L 146.721861 252.919139 
L 147.481113 258.542792 
L 148.240366 268.142333 
L 148.999618 272.732541 
L 149.75887 265.542975 
L 150.518122 260.569518 
L 151.277374 250.591355 
L 152.036627 244.827163 
L 152.795879 235.334144 
L 154.314383 219.77834 
L 155.073635 207.17915 
L 155.832887 183.257988 
L 158.110644 126.665538 
L 158.869896 130.307548 
L 159.629148 139.192542 
L 160.388401 155.986944 
L 161.147653 159.042814 
L 161.906905 164.489085 
L 163.425409 187.870261 
L 164.184661 190.209879 
L 164.943914 171.079883 
L 165.703166 149.127277 
L 166.462418 133.481604 
L 167.22167 106.165512 
L 167.980922 97.291982 
L 168.740175 96.448396 
L 169.499427 107.835895 
L 170.258679 133.503386 
L 171.017931 173.526599 
L 171.777183 193.803967 
L 173.295688 210.926494 
L 174.814192 228.462048 
L 175.573444 230.05496 
L 176.332696 225.567317 
L 177.091949 218.691859 
L 177.851201 209.43517 
L 179.369705 196.554447 
L 180.128957 188.334082 
L 180.888209 188.548489 
L 181.647462 194.124677 
L 182.406714 217.188994 
L 184.68447 295.822587 
L 185.443723 315.580554 
L 186.202975 330.137015 
L 186.962227 330.081767 
L 187.721479 321.914979 
L 189.999236 271.527149 
L 190.758488 254.879464 
L 193.036244 222.377457 
L 193.795497 222.56976 
L 194.554749 230.961812 
L 195.314001 244.810203 
L 196.073253 260.868286 
L 196.832505 266.631109 
L 197.591757 265.24205 
L 198.35101 255.085915 
L 199.869514 228.601012 
L 200.628766 222.737723 
L 201.388018 212.860795 
L 202.147271 194.836067 
L 202.906523 181.847814 
L 203.665775 176.115357 
L 204.425027 162.901734 
L 205.184279 153.586493 
L 205.943531 154.582219 
L 206.702784 161.788008 
L 207.462036 170.397731 
L 208.221288 180.636108 
L 208.98054 196.809342 
L 210.499045 212.949794 
L 211.258297 221.210614 
L 212.017549 214.09085 
L 212.776801 202.446566 
L 213.536053 168.852276 
L 214.295305 146.364006 
L 215.054558 138.223393 
L 215.81381 132.300529 
L 216.573062 134.777553 
L 217.332314 147.517922 
L 218.091566 172.563457 
L 218.850819 189.403078 
L 219.610071 198.26415 
L 220.369323 208.809029 
L 221.128575 216.681363 
L 221.887827 222.871501 
L 222.647079 225.977673 
L 223.406332 230.574156 
L 224.165584 223.925946 
L 224.924836 212.150812 
L 225.684088 204.716941 
L 226.44334 192.614253 
L 227.202593 188.792615 
L 227.961845 186.813205 
L 228.721097 191.253682 
L 229.480349 202.776983 
L 230.239601 210.314806 
L 231.758106 231.343042 
L 232.517358 248.749127 
L 233.27661 269.737031 
L 234.035862 282.454603 
L 234.795114 289.368489 
L 235.554367 289.744566 
L 237.832123 249.722816 
L 238.591375 239.003582 
L 240.10988 226.17662 
L 240.869132 224.948796 
L 241.628384 224.869545 
L 242.387636 222.93469 
L 243.146888 226.709508 
L 243.906141 238.744346 
L 245.424645 252.482546 
L 246.183897 256.097375 
L 246.943149 250.966957 
L 247.702401 244.104146 
L 248.461654 230.001926 
L 249.220906 224.546838 
L 249.980158 217.671379 
L 250.73941 206.229422 
L 251.498662 198.167336 
L 252.257915 192.671784 
L 253.017167 189.010227 
L 253.776419 185.899938 
L 254.535671 183.500366 
L 255.294923 186.251279 
L 256.054175 188.265819 
L 256.813428 192.007311 
L 258.331932 208.098429 
L 259.091184 211.367456 
L 259.850436 213.912599 
L 260.609689 216.914068 
L 261.368941 217.457166 
L 262.128193 206.345941 
L 262.887445 199.121474 
L 263.646697 188.559397 
L 264.405949 174.22722 
L 265.165202 166.960904 
L 265.924454 164.223141 
L 266.683706 171.5852 
L 267.442958 182.959206 
L 268.961463 200.205644 
L 269.720715 207.455762 
L 270.479967 209.882801 
L 271.239219 210.68552 
L 272.757723 217.776427 
L 273.516976 216.70782 
L 275.03548 207.32193 
L 275.794732 203.995934 
L 277.313237 194.367434 
L 278.072489 197.837264 
L 278.831741 202.106018 
L 280.350245 211.779495 
L 281.86875 225.223079 
L 282.628002 228.224548 
L 283.387254 234.387744 
L 284.146506 246.403416 
L 284.905758 249.090778 
L 285.665011 250.545336 
L 287.183515 244.981446 
L 287.942767 240.639339 
L 288.702019 233.080652 
L 289.461271 227.742564 
L 290.220524 226.380892 
L 290.979776 226.777923 
L 291.739028 226.154789 
L 292.49828 227.067978 
L 293.257532 230.35598 
L 294.016785 230.851041 
L 294.776037 232.308358 
L 295.535289 236.531355 
L 296.294541 238.636183 
L 297.053793 237.094964 
L 297.813045 236.069102 
L 298.572298 234.681795 
L 299.33155 231.237031 
L 300.090802 224.70515 
L 300.850054 219.791773 
L 302.368559 208.614367 
L 303.887063 202.706916 
L 304.646315 203.992795 
L 305.405567 203.677036 
L 306.164819 200.736157 
L 306.924072 202.341594 
L 307.683324 205.579935 
L 308.442576 206.217452 
L 309.201828 203.9838 
L 309.96108 206.562165 
L 310.720333 210.755286 
L 311.479585 212.357801 
L 312.238837 212.79496 
L 312.998089 212.254582 
L 313.757341 208.59967 
L 315.275846 194.927176 
L 316.035098 193.577326 
L 316.79435 193.346691 
L 317.553602 192.470508 
L 318.312854 194.148558 
L 319.072107 200.787648 
L 319.831359 201.904473 
L 321.349863 205.355704 
L 322.109115 207.947956 
L 322.868367 207.372092 
L 323.62762 209.741515 
L 324.386872 211.296862 
L 325.146124 211.551887 
L 325.905376 209.847715 
L 326.664628 209.704865 
L 327.423881 208.588269 
L 328.183133 206.943462 
L 328.942385 207.118664 
L 329.701637 206.513321 
L 330.460889 209.907174 
L 331.220141 211.791817 
L 332.738646 216.537838 
L 333.497898 219.853415 
L 334.25715 220.035381 
L 335.016402 220.39502 
L 336.534907 226.308056 
L 337.294159 228.066732 
L 338.053411 228.009462 
L 338.812663 229.474343 
L 339.571915 229.868949 
L 340.331168 226.581455 
L 341.09042 224.012512 
L 341.849672 223.258277 
L 342.608924 224.810827 
L 343.368176 223.96503 
L 344.127429 224.558343 
L 344.886681 225.941927 
L 345.645933 226.629127 
L 346.405185 225.71298 
L 347.164437 226.473945 
L 347.923689 226.729013 
L 348.682942 227.104185 
L 349.442194 226.956456 
L 350.201446 225.648829 
L 350.960698 226.357301 
L 351.71995 225.136419 
L 352.479203 219.751401 
L 353.238455 218.843264 
L 353.997707 216.829978 
L 354.756959 212.463317 
L 355.516211 210.997483 
L 356.275463 212.786195 
L 357.034716 212.448756 
L 357.793968 210.878219 
L 358.55322 210.668982 
L 359.312472 209.893833 
L 360.071724 209.734266 
L 360.830977 208.793431 
L 361.590229 208.748031 
L 362.349481 211.386965 
L 363.108733 212.691535 
L 363.867985 210.839481 
L 364.627237 211.461623 
L 365.38649 210.617956 
L 366.145742 208.594994 
L 366.904994 205.545362 
L 367.664246 205.448663 
L 368.423498 205.239259 
L 369.182751 203.513731 
L 369.942003 203.280354 
L 370.701255 205.043507 
L 371.460507 206.248431 
L 372.219759 206.365603 
L 372.979011 206.87072 
L 373.738264 208.354666 
L 376.01602 211.356729 
L 376.775272 213.103672 
L 377.534525 211.676496 
L 378.293777 210.931795 
L 379.053029 211.589592 
L 379.812281 211.51979 
L 380.571533 210.404043 
L 381.330785 210.056429 
L 382.84929 212.62114 
L 383.608542 212.999148 
L 384.367794 212.690167 
L 385.127046 213.980554 
L 385.886299 216.319288 
L 386.645551 216.161719 
L 387.404803 217.535621 
L 388.164055 218.534066 
L 388.923307 220.910785 
L 389.682559 221.187442 
L 390.441812 220.349823 
L 391.201064 220.911438 
L 391.960316 220.417222 
L 392.719568 219.684305 
L 393.47882 220.022597 
L 394.238073 220.185917 
L 394.997325 220.817658 
L 395.756577 220.541182 
L 396.515829 220.60863 
L 397.275081 221.303874 
L 398.034333 221.770151 
L 398.793586 221.545164 
L 399.552838 222.929962 
L 400.31209 223.480385 
L 401.071342 222.044483 
L 401.830594 221.648542 
L 402.589847 221.870444 
L 403.349099 219.418975 
L 404.108351 220.221694 
L 404.867603 218.131242 
L 405.626855 217.984683 
L 406.386107 217.287118 
L 407.14536 215.946644 
L 408.663864 213.891509 
L 410.182368 214.438468 
L 410.941621 213.132794 
L 411.700873 212.757126 
L 412.460125 212.687864 
L 413.219377 213.311705 
L 413.978629 212.693809 
L 414.737881 212.922373 
L 415.497134 212.389192 
L 416.256386 210.963123 
L 417.015638 212.847767 
L 417.77489 211.405733 
L 418.534142 210.294992 
L 419.293395 210.209413 
L 420.052647 210.552432 
L 421.571151 210.464613 
L 422.330403 210.060123 
L 423.089655 209.290435 
L 423.848908 210.524578 
L 424.60816 211.266018 
L 425.367412 210.52683 
L 426.126664 210.841981 
L 426.885916 211.435023 
L 429.163673 212.262491 
L 429.922925 211.699801 
L 430.682177 211.524225 
L 431.441429 212.247187 
L 432.200682 213.189362 
L 432.959934 212.641086 
L 433.719186 212.71448 
L 434.478438 212.129411 
L 435.23769 213.783272 
L 435.996943 214.565473 
L 436.756195 214.439086 
L 437.515447 215.077333 
L 438.274699 217.32822 
L 439.033951 214.536156 
L 439.793203 216.425321 
L 440.552456 217.039598 
L 441.311708 216.0711 
L 442.07096 216.499665 
L 442.830212 216.437944 
L 443.589464 217.219219 
L 444.348717 217.013963 
L 445.107969 217.4275 
L 445.867221 217.577027 
L 446.626473 218.02611 
L 447.385725 216.945528 
L 448.144977 217.728998 
L 448.90423 218.30766 
L 449.663482 218.663962 
L 450.422734 217.366187 
L 451.181986 219.24223 
L 452.700491 218.989729 
L 453.459743 217.424459 
L 454.218995 216.784033 
L 454.978247 217.229241 
L 455.737499 216.477541 
L 456.496751 215.327795 
L 457.256004 216.070743 
L 458.015256 215.646333 
L 458.774508 216.063582 
L 459.53376 216.019721 
L 460.293012 216.331625 
L 461.052265 215.78067 
L 461.811517 215.818634 
L 462.570769 215.238896 
L 463.330021 214.872865 
L 464.089273 215.651571 
L 464.848525 215.057585 
L 465.607778 215.450219 
L 466.36703 215.132951 
L 467.126282 214.234385 
L 467.885534 213.049189 
L 468.644786 213.197215 
L 469.404039 213.607679 
L 470.163291 212.178506 
L 470.922543 212.786108 
L 471.681795 212.712649 
L 472.441047 212.376796 
L 473.200299 213.023465 
L 473.959552 212.221176 
L 475.478056 212.922387 
L 476.237308 211.770584 
L 476.99656 212.92231 
L 477.755813 212.91901 
L 478.515065 213.126477 
L 479.274317 212.772019 
L 480.033569 212.577227 
L 480.792821 212.545753 
L 481.552073 213.163519 
L 483.070578 213.212753 
L 483.82983 214.2096 
L 484.589082 213.707559 
L 485.348334 213.610057 
L 486.107587 213.917153 
L 486.866839 214.059811 
L 487.626091 214.733374 
L 488.385343 214.62189 
L 489.144595 214.388738 
L 491.422352 215.301391 
L 492.181604 216.300876 
L 492.940856 216.128299 
L 493.700108 215.51849 
L 494.459361 215.2627 
L 495.218613 215.236274 
L 495.977865 215.586633 
L 496.737117 215.284342 
L 497.496369 215.885844 
L 498.255621 216.797106 
L 499.014874 216.455923 
L 499.774126 217.339128 
L 501.29263 216.686218 
L 502.811135 216.129252 
L 503.570387 216.254962 
L 504.329639 217.172945 
L 505.088891 216.538367 
L 505.848143 215.710443 
L 506.607395 215.899124 
L 507.366648 214.879915 
L 508.1259 215.618978 
L 508.885152 215.218514 
L 509.644404 215.445942 
L 510.403656 215.308589 
L 511.162909 215.604937 
L 511.922161 215.142337 
L 512.681413 216.13503 
L 513.440665 215.841166 
L 514.199917 215.906282 
L 514.959169 215.551006 
L 515.718422 214.787695 
L 517.236926 215.470994 
L 517.996178 215.031003 
L 518.75543 214.723003 
L 519.514683 213.988847 
L 520.273935 214.688193 
L 521.033187 213.837413 
L 521.792439 214.309368 
L 522.551691 213.372525 
L 523.310943 213.763613 
L 525.5887 214.132172 
L 526.347952 213.432627 
L 527.107204 213.677948 
L 527.866457 213.080878 
L 528.625709 212.776526 
L 530.144213 213.34737 
L 530.903465 213.485723 
L 531.662717 213.843618 
L 532.42197 212.891868 
L 533.181222 213.802118 
L 533.940474 213.914778 
L 535.458978 213.372763 
L 536.218231 213.679059 
L 536.977483 213.857399 
L 537.736735 214.690152 
L 538.495987 214.835482 
L 539.255239 214.419557 
L 540.014491 214.573555 
L 540.773744 215.072591 
L 541.532996 215.161493 
L 542.292248 215.723453 
L 543.0515 214.876668 
L 543.810752 215.173386 
L 544.570005 216.191215 
L 545.329257 214.562666 
L 546.088509 215.371285 
L 546.847761 215.008345 
L 547.607013 215.352779 
L 548.366265 216.86019 
L 549.125518 216.029484 
L 549.88477 215.913835 
L 550.644022 216.670534 
L 551.403274 216.026698 
L 552.162526 215.975734 
L 552.921779 216.46231 
L 553.681031 215.000179 
L 554.440283 215.334652 
L 555.199535 216.259218 
L 555.958787 215.659427 
L 556.718039 215.636235 
L 557.477292 215.838677 
L 558.236544 216.727565 
L 558.995796 215.679994 
L 559.755048 215.071439 
L 561.273553 216.16379 
L 562.032805 215.62203 
L 562.792057 215.352684 
L 564.310561 216.272552 
L 565.069813 215.552633 
L 565.829066 214.589347 
L 566.588318 214.833268 
L 567.34757 215.45973 
L 568.106822 214.907951 
L 568.866074 214.662486 
L 569.625327 215.408288 
L 570.384579 214.304997 
L 571.143831 215.427333 
L 571.903083 214.355387 
L 572.662335 213.957612 
L 573.421587 214.100786 
L 574.18084 214.014232 
L 574.940092 213.549645 
L 575.699344 213.708076 
L 576.458596 214.823592 
L 577.217848 214.442554 
L 577.977101 213.514604 
L 578.736353 214.327721 
L 579.495605 214.188768 
L 580.254857 213.772071 
L 581.014109 214.156936 
L 581.773361 213.926343 
L 582.532614 213.481889 
L 583.291866 213.501388 
L 584.051118 214.222155 
L 584.81037 214.656191 
L 585.569622 214.255598 
L 586.328875 213.587021 
L 587.088127 214.028175 
L 587.847379 213.890433 
L 588.606631 214.631269 
L 589.365883 214.455131 
L 590.125135 214.394534 
L 590.884388 214.666666 
L 591.64364 213.986221 
L 593.162144 215.104264 
L 593.921396 215.068813 
L 594.680649 214.570826 
L 595.439901 214.438877 
L 596.199153 215.670007 
L 596.958405 215.650272 
L 597.717657 214.542076 
L 598.476909 214.761057 
L 599.236162 215.292003 
L 599.995414 215.213507 
L 600.754666 215.258992 
L 601.513918 216.08205 
L 602.27317 215.791088 
L 603.032423 216.207707 
L 603.791675 216.186637 
L 604.550927 215.375437 
L 605.310179 215.739167 
L 606.069431 216.264247 
L 606.828683 215.743823 
L 607.587936 216.073397 
L 608.347188 216.110284 
L 612.143449 215.325658 
L 612.902701 216.094835 
L 613.661953 215.631625 
L 614.421205 215.314938 
L 615.180457 215.633762 
L 616.698962 214.218337 
L 618.217466 215.128788 
L 618.976718 214.895056 
L 619.735971 214.824102 
L 621.254475 213.666314 
L 622.772979 214.537042 
L 623.532231 214.242772 
L 624.291484 213.655196 
L 625.050736 213.349347 
L 626.56924 213.724554 
L 627.328492 213.746835 
L 628.087745 214.486701 
L 628.846997 214.42396 
L 629.606249 213.460268 
L 630.365501 214.501796 
L 631.124753 214.73218 
L 631.884005 213.844063 
L 632.643258 214.046141 
L 633.40251 214.742131 
L 634.161762 214.250294 
L 634.921014 214.875034 
L 636.439519 213.311516 
L 637.198771 213.91372 
L 637.958023 214.680158 
L 639.476527 214.860965 
L 640.235779 214.62907 
L 640.995032 214.956397 
L 641.754284 214.890365 
L 642.513536 213.957811 
L 643.272788 214.590097 
L 644.03204 215.969467 
L 644.791293 215.589189 
L 645.550545 215.058016 
L 647.069049 215.084016 
L 647.828301 215.268577 
L 648.587553 215.262658 
L 649.346806 215.887559 
L 650.106058 215.838195 
L 650.86531 216.272065 
L 651.624562 216.144337 
L 652.383814 215.860469 
L 653.143067 216.276328 
L 653.902319 216.315119 
L 654.661571 215.898666 
L 655.420823 215.945644 
L 656.180075 216.193598 
L 656.939327 216.281388 
L 657.69858 216.038074 
L 658.457832 216.013278 
L 659.217084 215.168222 
L 659.976336 214.539015 
L 660.735588 215.253502 
L 661.494841 215.586282 
L 662.254093 214.722535 
L 663.013345 214.688071 
L 663.772597 214.443413 
L 664.531849 214.788999 
L 665.291101 214.794774 
L 666.050354 214.678388 
L 666.809606 214.735916 
L 667.568858 215.332029 
L 668.32811 215.304309 
L 669.087362 214.656798 
L 670.605867 215.080437 
L 671.365119 215.073645 
L 672.124371 215.413575 
L 672.883623 214.61278 
L 673.642875 214.272935 
L 674.402128 214.247137 
L 675.16138 213.993611 
L 675.920632 214.271405 
L 676.679884 213.992412 
L 677.439136 213.501374 
L 678.198389 215.101077 
L 678.957641 215.412674 
L 679.716893 214.539211 
L 680.476145 214.109922 
L 681.235397 214.461018 
L 682.753902 213.918958 
L 683.513154 215.205252 
L 684.272406 214.732738 
L 685.031658 214.896763 
L 685.79091 214.795373 
L 686.550163 213.178289 
L 687.309415 213.839253 
L 688.068667 214.734086 
L 689.587171 215.379166 
L 691.105676 215.435217 
L 692.62418 214.694897 
L 693.383432 214.777664 
L 694.901937 214.727911 
L 695.661189 215.833634 
L 697.179693 215.953264 
L 697.938945 216.378848 
L 698.698197 215.9937 
L 699.45745 215.856178 
L 700.216702 216.025084 
L 700.975954 216.371386 
L 701.735206 215.355565 
L 702.494458 216.426065 
L 703.253711 215.669232 
L 704.012963 215.168599 
L 704.772215 215.774658 
L 705.531467 214.489012 
L 706.290719 214.785835 
L 707.049971 215.496904 
L 707.809224 215.828543 
L 708.568476 214.732997 
L 709.327728 214.599763 
L 710.08698 215.067086 
L 710.846232 215.133118 
L 713.123989 214.833834 
L 713.883241 215.245883 
L 714.642493 215.160229 
L 715.401745 214.34972 
L 716.160998 214.597406 
L 716.92025 215.197846 
L 719.198006 214.202288 
L 720.716511 215.035131 
L 721.475763 215.139781 
L 722.235015 215.043445 
L 722.994267 214.388814 
L 723.753519 213.984728 
L 724.512772 214.378632 
L 725.272024 214.589766 
L 726.031276 213.920068 
L 726.790528 213.657197 
L 728.309033 215.150293 
L 729.068285 215.211698 
L 729.827537 214.569386 
L 730.586789 213.630432 
L 731.346041 214.022302 
L 732.105293 214.763512 
L 732.864546 214.558105 
L 734.38305 214.922006 
L 735.142302 214.509932 
L 735.901554 215.793817 
L 736.660807 214.849002 
L 737.420059 214.947137 
L 738.179311 215.354395 
L 738.938563 215.514955 
L 739.697815 214.977997 
L 740.457067 214.931766 
L 741.21632 215.28715 
L 741.975572 214.783031 
L 742.734824 214.657825 
L 743.494076 214.278895 
L 744.253328 215.317054 
L 745.012581 215.741698 
L 745.771833 214.936054 
L 746.531085 215.78595 
L 747.290337 215.640474 
L 748.049589 215.846037 
L 748.808841 215.816189 
L 749.568094 214.980071 
L 750.327346 216.236123 
L 751.84585 214.503458 
L 752.605102 214.984775 
L 753.364355 215.117286 
L 754.123607 215.093039 
L 754.882859 215.468641 
L 755.642111 215.229472 
L 756.401363 215.583019 
L 757.160615 215.102855 
L 757.919868 215.574862 
L 758.67912 214.509942 
L 759.438372 214.218043 
L 760.197624 214.311146 
L 760.956876 214.551184 
L 761.716129 215.487856 
L 762.475381 215.356937 
L 763.234633 214.100547 
L 763.993885 213.960298 
L 764.753137 214.445696 
L 765.512389 214.650817 
L 766.271642 215.254326 
L 767.030894 215.168428 
L 767.790146 214.80875 
L 768.549398 214.032041 
L 769.30865 214.207854 
L 770.067903 214.105474 
L 770.827155 214.997021 
L 772.345659 213.893261 
L 773.104911 214.465355 
L 773.864163 214.485796 
L 774.623416 214.995586 
L 776.14192 214.204153 
L 776.901172 214.250386 
L 776.901172 214.250386 
" style="fill:none;stroke:#1f77b4;stroke-linecap:square;stroke-width:1.5;"/>
   </g>
   <g id="line2d_30">
    <path clip-path="url(#pb088cac0cf)" d="M 108 214.585643 
L 110.277757 171.809519 
L 111.796261 146.536202 
L 113.314765 124.954544 
L 114.83327 107.801896 
L 115.592522 101.060956 
L 116.351774 95.609487 
L 117.111026 91.479398 
L 117.870278 88.688496 
L 118.629531 87.240556 
L 119.388783 87.125543 
L 120.148035 88.319976 
L 120.907287 90.78741 
L 121.666539 94.479053 
L 122.425791 99.334492 
L 123.185044 105.282526 
L 124.703548 120.123287 
L 126.222052 138.253233 
L 128.499809 169.728484 
L 133.814574 246.839959 
L 135.333079 265.797447 
L 136.851583 282.002694 
L 138.370087 294.901314 
L 139.129339 299.979174 
L 139.888592 304.09295 
L 140.647844 307.218394 
L 141.407096 309.341819 
L 142.166348 310.460039 
L 142.9256 310.580212 
L 143.684853 309.719572 
L 144.444105 307.90507 
L 145.203357 305.172913 
L 145.962609 301.568029 
L 146.721861 297.14344 
L 148.240366 286.083508 
L 149.75887 272.551431 
L 152.036627 249.027954 
L 157.351392 191.288984 
L 158.869896 177.069215 
L 160.388401 164.901262 
L 161.906905 155.201934 
L 162.666157 151.377038 
L 163.425409 148.272939 
L 164.184661 145.908056 
L 164.943914 144.292906 
L 165.703166 143.43014 
L 166.462418 143.314666 
L 167.22167 143.93384 
L 167.980922 145.267736 
L 168.740175 147.289487 
L 169.499427 149.965685 
L 170.258679 153.256844 
L 171.777183 161.498873 
L 173.295688 171.598912 
L 175.573444 189.179249 
L 180.888209 232.412091 
L 182.406714 243.077991 
L 183.925218 252.214294 
L 185.443723 259.507635 
L 186.202975 262.388595 
L 186.962227 264.730659 
L 187.721479 266.51984 
L 188.480731 267.748062 
L 189.239983 268.413138 
L 189.999236 268.518684 
L 190.758488 268.073971 
L 191.51774 267.093728 
L 192.276992 265.597891 
L 193.036244 263.6113 
L 193.795497 261.163358 
L 195.314001 255.02148 
L 196.832505 247.483201 
L 199.110262 234.344688 
L 204.425027 201.973901 
L 205.943531 193.973796 
L 207.462036 187.113946 
L 208.98054 181.629939 
L 209.739792 179.460068 
L 210.499045 177.693091 
L 211.258297 176.339628 
L 212.017549 175.405876 
L 212.776801 174.893622 
L 213.536053 174.800308 
L 214.295305 175.119139 
L 215.054558 175.839229 
L 215.81381 176.945786 
L 216.573062 178.420343 
L 217.332314 180.241005 
L 218.850819 184.817714 
L 220.369323 190.443872 
L 222.647079 200.262675 
L 227.961845 224.500155 
L 229.480349 230.500651 
L 230.998853 235.651157 
L 232.517358 239.774564 
L 233.27661 241.408781 
L 234.035862 242.741789 
L 234.795114 243.765523 
L 235.554367 244.475233 
L 236.313619 244.869467 
L 237.072871 244.950029 
L 237.832123 244.721899 
L 238.591375 244.19312 
L 239.350627 243.374664 
L 240.10988 242.280263 
L 240.869132 240.926218 
L 242.387636 237.515934 
L 243.906141 233.316971 
L 246.183897 225.979199 
L 251.498662 207.831716 
L 253.017167 203.331101 
L 254.535671 199.464082 
L 256.054175 196.363799 
L 256.813428 195.133062 
L 257.57268 194.127511 
L 258.331932 193.353267 
L 259.091184 192.813971 
L 259.850436 192.510794 
L 260.609689 192.442467 
L 261.368941 192.605347 
L 262.128193 192.993489 
L 262.887445 193.598755 
L 263.646697 194.410936 
L 265.165202 196.605731 
L 266.683706 199.460629 
L 268.20221 202.835989 
L 270.479967 208.53193 
L 275.03548 220.163762 
L 276.553984 223.539355 
L 278.072489 226.442669 
L 279.590993 228.77362 
L 281.109497 230.458934 
L 281.86875 231.044424 
L 282.628002 231.454132 
L 283.387254 231.687118 
L 284.146506 231.744269 
L 284.905758 231.628254 
L 285.665011 231.343461 
L 286.424263 230.895928 
L 287.183515 230.293243 
L 288.702019 228.659888 
L 290.220524 226.53082 
L 291.739028 224.010303 
L 294.016785 219.75192 
L 298.572298 211.041385 
L 300.090802 208.509632 
L 301.609306 206.329899 
L 303.127811 204.577423 
L 304.646315 203.307405 
L 305.405567 202.864701 
L 306.164819 202.553512 
L 306.924072 202.374587 
L 307.683324 202.32731 
L 308.442576 202.409729 
L 309.201828 202.618601 
L 310.720333 203.396636 
L 312.238837 204.612111 
L 313.757341 206.199841 
L 315.275846 208.081977 
L 317.553602 211.265573 
L 322.109115 217.788404 
L 324.386872 220.542126 
L 325.905376 222.025283 
L 327.423881 223.166758 
L 328.942385 223.932922 
L 330.460889 224.306551 
L 331.979394 224.286926 
L 333.497898 223.889258 
L 335.016402 223.143484 
L 336.534907 222.092523 
L 338.053411 220.790059 
L 340.331168 218.501726 
L 346.405185 212.065599 
L 347.923689 210.733299 
L 349.442194 209.619133 
L 350.960698 208.760157 
L 352.479203 208.18175 
L 353.997707 207.897017 
L 355.516211 207.906704 
L 357.034716 208.199627 
L 358.55322 208.753558 
L 360.071724 209.536531 
L 362.349481 211.051075 
L 365.38649 213.452308 
L 369.182751 216.488018 
L 371.460507 218.037637 
L 372.979011 218.874593 
L 374.497516 219.52096 
L 376.01602 219.957586 
L 377.534525 220.174505 
L 379.053029 220.171 
L 380.571533 219.955293 
L 382.090038 219.543885 
L 384.367794 218.613619 
L 386.645551 217.402513 
L 394.997325 212.598541 
L 397.275081 211.707802 
L 398.793586 211.298453 
L 400.31209 211.050551 
L 401.830594 210.968203 
L 403.349099 211.04867 
L 405.626855 211.452846 
L 407.904612 212.146196 
L 410.941621 213.383407 
L 417.77489 216.377295 
L 420.052647 217.120793 
L 422.330403 217.626253 
L 424.60816 217.861276 
L 426.885916 217.819501 
L 429.163673 217.519758 
L 431.441429 217.003005 
L 434.478438 216.078753 
L 442.07096 213.633004 
L 444.348717 213.130073 
L 446.626473 212.815197 
L 448.90423 212.706392 
L 451.181986 212.802196 
L 453.459743 213.082864 
L 456.496751 213.681958 
L 467.885534 216.256097 
L 470.922543 216.538604 
L 473.959552 216.546423 
L 476.99656 216.298094 
L 480.792821 215.717801 
L 490.6631 214.006491 
L 493.700108 213.743732 
L 496.737117 213.684729 
L 499.774126 213.82409 
L 503.570387 214.219799 
L 515.718422 215.718653 
L 519.514683 215.84794 
L 523.310943 215.741693 
L 527.866457 215.372151 
L 538.495987 214.364363 
L 543.0515 214.225537 
L 547.607013 214.338365 
L 553.681031 214.75857 
L 562.032805 215.334722 
L 566.588318 215.439724 
L 571.903083 215.326648 
L 581.014109 214.817417 
L 587.847379 214.5527 
L 593.162144 214.557849 
L 600.754666 214.827206 
L 610.624944 215.182974 
L 617.458214 215.17965 
L 627.328492 214.888328 
L 636.439519 214.704086 
L 644.791293 214.793423 
L 662.254093 215.080939 
L 672.883623 214.931502 
L 685.79091 214.799478 
L 699.45745 214.952134 
L 711.605485 215.002029 
L 744.253328 214.920556 
L 761.716129 214.954195 
L 776.901172 214.882989 
L 776.901172 214.882989 
" style="fill:none;stroke:#ff0000;stroke-dasharray:1.5,2.475;stroke-dashoffset:0;stroke-width:1.5;"/>
   </g>
   <g id="patch_3">
    <path d="M 108 378 
L 108 51.84 
" style="fill:none;stroke:#000000;stroke-linecap:square;stroke-linejoin:miter;stroke-width:0.8;"/>
   </g>
   <g id="patch_4">
    <path d="M 777.6 378 
L 777.6 51.84 
" style="fill:none;stroke:#000000;stroke-linecap:square;stroke-linejoin:miter;stroke-width:0.8;"/>
   </g>
   <g id="patch_5">
    <path d="M 108 378 
L 777.6 378 
" style="fill:none;stroke:#000000;stroke-linecap:square;stroke-linejoin:miter;stroke-width:0.8;"/>
   </g>
   <g id="patch_6">
    <path d="M 108 51.84 
L 777.6 51.84 
" style="fill:none;stroke:#000000;stroke-linecap:square;stroke-linejoin:miter;stroke-width:0.8;"/>
   </g>
   <g id="text_17">
    <!-- Medição 1 - Direção X -->
    <g transform="translate(344.296406 45.84)scale(0.18 -0.18)">
     <defs>
      <path d="M 9.8125 72.90625 
L 24.515625 72.90625 
L 43.109375 23.296875 
L 61.8125 72.90625 
L 76.515625 72.90625 
L 76.515625 0 
L 66.890625 0 
L 66.890625 64.015625 
L 48.09375 14.015625 
L 38.1875 14.015625 
L 19.390625 64.015625 
L 19.390625 0 
L 9.8125 0 
z
" id="DejaVuSans-77"/>
      <path d="M 45.40625 46.390625 
L 45.40625 75.984375 
L 54.390625 75.984375 
L 54.390625 0 
L 45.40625 0 
L 45.40625 8.203125 
Q 42.578125 3.328125 38.25 0.953125 
Q 33.9375 -1.421875 27.875 -1.421875 
Q 17.96875 -1.421875 11.734375 6.484375 
Q 5.515625 14.40625 5.515625 27.296875 
Q 5.515625 40.1875 11.734375 48.09375 
Q 17.96875 56 27.875 56 
Q 33.9375 56 38.25 53.625 
Q 42.578125 51.265625 45.40625 46.390625 
z
M 14.796875 27.296875 
Q 14.796875 17.390625 18.875 11.75 
Q 22.953125 6.109375 30.078125 6.109375 
Q 37.203125 6.109375 41.296875 11.75 
Q 45.40625 17.390625 45.40625 27.296875 
Q 45.40625 37.203125 41.296875 42.84375 
Q 37.203125 48.484375 30.078125 48.484375 
Q 22.953125 48.484375 18.875 42.84375 
Q 14.796875 37.203125 14.796875 27.296875 
z
" id="DejaVuSans-100"/>
      <path d="M 48.78125 52.59375 
L 48.78125 44.1875 
Q 44.96875 46.296875 41.140625 47.34375 
Q 37.3125 48.390625 33.40625 48.390625 
Q 24.65625 48.390625 19.8125 42.84375 
Q 14.984375 37.3125 14.984375 27.296875 
Q 14.984375 17.28125 19.8125 11.734375 
Q 24.65625 6.203125 33.40625 6.203125 
Q 37.3125 6.203125 41.140625 7.25 
Q 44.96875 8.296875 48.78125 10.40625 
L 48.78125 2.09375 
Q 45.015625 0.34375 40.984375 -0.53125 
Q 36.96875 -1.421875 32.421875 -1.421875 
Q 20.0625 -1.421875 12.78125 6.34375 
Q 5.515625 14.109375 5.515625 27.296875 
Q 5.515625 40.671875 12.859375 48.328125 
Q 20.21875 56 33.015625 56 
Q 37.15625 56 41.109375 55.140625 
Q 45.0625 54.296875 48.78125 52.59375 
z
M 36.078125 0 
Q 38.765625 -3.03125 40.078125 -5.59375 
Q 41.40625 -8.15625 41.40625 -10.5 
Q 41.40625 -14.84375 38.46875 -17.0625 
Q 35.546875 -19.28125 29.78125 -19.28125 
Q 27.546875 -19.28125 25.421875 -18.984375 
Q 23.296875 -18.703125 21.1875 -18.109375 
L 21.1875 -11.71875 
Q 22.859375 -12.546875 24.65625 -12.90625 
Q 26.46875 -13.28125 28.765625 -13.28125 
Q 31.640625 -13.28125 33.109375 -12.109375 
Q 34.578125 -10.9375 34.578125 -8.6875 
Q 34.578125 -7.234375 33.515625 -5.109375 
Q 32.46875 -2.984375 30.28125 0 
z
" id="DejaVuSans-231"/>
      <path d="M 34.28125 27.484375 
Q 23.390625 27.484375 19.1875 25 
Q 14.984375 22.515625 14.984375 16.5 
Q 14.984375 11.71875 18.140625 8.90625 
Q 21.296875 6.109375 26.703125 6.109375 
Q 34.1875 6.109375 38.703125 11.40625 
Q 43.21875 16.703125 43.21875 25.484375 
L 43.21875 27.484375 
z
M 52.203125 31.203125 
L 52.203125 0 
L 43.21875 0 
L 43.21875 8.296875 
Q 40.140625 3.328125 35.546875 0.953125 
Q 30.953125 -1.421875 24.3125 -1.421875 
Q 15.921875 -1.421875 10.953125 3.296875 
Q 6 8.015625 6 15.921875 
Q 6 25.140625 12.171875 29.828125 
Q 18.359375 34.515625 30.609375 34.515625 
L 43.21875 34.515625 
L 43.21875 35.40625 
Q 43.21875 41.609375 39.140625 45 
Q 35.0625 48.390625 27.6875 48.390625 
Q 23 48.390625 18.546875 47.265625 
Q 14.109375 46.140625 10.015625 43.890625 
L 10.015625 52.203125 
Q 14.9375 54.109375 19.578125 55.046875 
Q 24.21875 56 28.609375 56 
Q 40.484375 56 46.34375 49.84375 
Q 52.203125 43.703125 52.203125 31.203125 
z
M 28.8125 66.890625 
L 26.03125 69.578125 
Q 24.953125 70.5625 24.140625 71.015625 
Q 23.34375 71.484375 22.703125 71.484375 
Q 20.84375 71.484375 19.96875 69.703125 
Q 19.09375 67.921875 19 63.921875 
L 12.890625 63.921875 
Q 12.984375 70.515625 15.46875 74.09375 
Q 17.96875 77.6875 22.40625 77.6875 
Q 24.265625 77.6875 25.828125 77 
Q 27.390625 76.3125 29.203125 74.703125 
L 31.984375 72.015625 
Q 33.0625 71.046875 33.859375 70.578125 
Q 34.671875 70.125 35.296875 70.125 
Q 37.15625 70.125 38.03125 71.90625 
Q 38.921875 73.6875 39.015625 77.6875 
L 45.125 77.6875 
Q 45.015625 71.09375 42.53125 67.5 
Q 40.046875 63.921875 35.59375 63.921875 
Q 33.734375 63.921875 32.171875 64.59375 
Q 30.609375 65.28125 28.8125 66.890625 
z
" id="DejaVuSans-227"/>
      <path d="M 30.609375 48.390625 
Q 23.390625 48.390625 19.1875 42.75 
Q 14.984375 37.109375 14.984375 27.296875 
Q 14.984375 17.484375 19.15625 11.84375 
Q 23.34375 6.203125 30.609375 6.203125 
Q 37.796875 6.203125 41.984375 11.859375 
Q 46.1875 17.53125 46.1875 27.296875 
Q 46.1875 37.015625 41.984375 42.703125 
Q 37.796875 48.390625 30.609375 48.390625 
z
M 30.609375 56 
Q 42.328125 56 49.015625 48.375 
Q 55.71875 40.765625 55.71875 27.296875 
Q 55.71875 13.875 49.015625 6.21875 
Q 42.328125 -1.421875 30.609375 -1.421875 
Q 18.84375 -1.421875 12.171875 6.21875 
Q 5.515625 13.875 5.515625 27.296875 
Q 5.515625 40.765625 12.171875 48.375 
Q 18.84375 56 30.609375 56 
z
" id="DejaVuSans-111"/>
      <path d="M 4.890625 31.390625 
L 31.203125 31.390625 
L 31.203125 23.390625 
L 4.890625 23.390625 
z
" id="DejaVuSans-45"/>
      <path d="M 19.671875 64.796875 
L 19.671875 8.109375 
L 31.59375 8.109375 
Q 46.6875 8.109375 53.6875 14.9375 
Q 60.6875 21.78125 60.6875 36.53125 
Q 60.6875 51.171875 53.6875 57.984375 
Q 46.6875 64.796875 31.59375 64.796875 
z
M 9.8125 72.90625 
L 30.078125 72.90625 
Q 51.265625 72.90625 61.171875 64.09375 
Q 71.09375 55.28125 71.09375 36.53125 
Q 71.09375 17.671875 61.125 8.828125 
Q 51.171875 0 30.078125 0 
L 9.8125 0 
z
" id="DejaVuSans-68"/>
      <path d="M 41.109375 46.296875 
Q 39.59375 47.171875 37.8125 47.578125 
Q 36.03125 48 33.890625 48 
Q 26.265625 48 22.1875 43.046875 
Q 18.109375 38.09375 18.109375 28.8125 
L 18.109375 0 
L 9.078125 0 
L 9.078125 54.6875 
L 18.109375 54.6875 
L 18.109375 46.1875 
Q 20.953125 51.171875 25.484375 53.578125 
Q 30.03125 56 36.53125 56 
Q 37.453125 56 38.578125 55.875 
Q 39.703125 55.765625 41.0625 55.515625 
z
" id="DejaVuSans-114"/>
      <path d="M 6.296875 72.90625 
L 16.890625 72.90625 
L 35.015625 45.796875 
L 53.21875 72.90625 
L 63.8125 72.90625 
L 40.375 37.890625 
L 65.375 0 
L 54.78125 0 
L 34.28125 31 
L 13.625 0 
L 2.984375 0 
L 29 38.921875 
z
" id="DejaVuSans-88"/>
     </defs>
     <use xlink:href="#DejaVuSans-77"/>
     <use x="86.279297" xlink:href="#DejaVuSans-101"/>
     <use x="147.802734" xlink:href="#DejaVuSans-100"/>
     <use x="211.279297" xlink:href="#DejaVuSans-105"/>
     <use x="239.0625" xlink:href="#DejaVuSans-231"/>
     <use x="294.042969" xlink:href="#DejaVuSans-227"/>
     <use x="355.322266" xlink:href="#DejaVuSans-111"/>
     <use x="416.503906" xlink:href="#DejaVuSans-32"/>
     <use x="448.291016" xlink:href="#DejaVuSans-49"/>
     <use x="511.914062" xlink:href="#DejaVuSans-32"/>
     <use x="543.701172" xlink:href="#DejaVuSans-45"/>
     <use x="579.785156" xlink:href="#DejaVuSans-32"/>
     <use x="611.572266" xlink:href="#DejaVuSans-68"/>
     <use x="688.574219" xlink:href="#DejaVuSans-105"/>
     <use x="716.357422" xlink:href="#DejaVuSans-114"/>
     <use x="755.220703" xlink:href="#DejaVuSans-101"/>
     <use x="816.744141" xlink:href="#DejaVuSans-231"/>
     <use x="871.724609" xlink:href="#DejaVuSans-227"/>
     <use x="933.003906" xlink:href="#DejaVuSans-111"/>
     <use x="994.185547" xlink:href="#DejaVuSans-32"/>
     <use x="1025.972656" xlink:href="#DejaVuSans-88"/>
    </g>
   </g>
   <g id="legend_1">
    <g id="patch_7">
     <path d="M 701.221875 89.19625 
L 770.6 89.19625 
Q 772.6 89.19625 772.6 87.19625 
L 772.6 58.84 
Q 772.6 56.84 770.6 56.84 
L 701.221875 56.84 
Q 699.221875 56.84 699.221875 58.84 
L 699.221875 87.19625 
Q 699.221875 89.19625 701.221875 89.19625 
z
" style="fill:#ffffff;opacity:0.8;stroke:#cccccc;stroke-linejoin:miter;"/>
    </g>
    <g id="line2d_31">
     <path d="M 703.221875 64.938437 
L 723.221875 64.938437 
" style="fill:none;stroke:#1f77b4;stroke-linecap:square;stroke-width:1.5;"/>
    </g>
    <g id="line2d_32"/>
    <g id="text_18">
     <!-- original -->
     <g transform="translate(731.221875 68.438437)scale(0.1 -0.1)">
      <defs>
       <path d="M 45.40625 27.984375 
Q 45.40625 37.75 41.375 43.109375 
Q 37.359375 48.484375 30.078125 48.484375 
Q 22.859375 48.484375 18.828125 43.109375 
Q 14.796875 37.75 14.796875 27.984375 
Q 14.796875 18.265625 18.828125 12.890625 
Q 22.859375 7.515625 30.078125 7.515625 
Q 37.359375 7.515625 41.375 12.890625 
Q 45.40625 18.265625 45.40625 27.984375 
z
M 54.390625 6.78125 
Q 54.390625 -7.171875 48.1875 -13.984375 
Q 42 -20.796875 29.203125 -20.796875 
Q 24.46875 -20.796875 20.265625 -20.09375 
Q 16.0625 -19.390625 12.109375 -17.921875 
L 12.109375 -9.1875 
Q 16.0625 -11.328125 19.921875 -12.34375 
Q 23.78125 -13.375 27.78125 -13.375 
Q 36.625 -13.375 41.015625 -8.765625 
Q 45.40625 -4.15625 45.40625 5.171875 
L 45.40625 9.625 
Q 42.625 4.78125 38.28125 2.390625 
Q 33.9375 0 27.875 0 
Q 17.828125 0 11.671875 7.65625 
Q 5.515625 15.328125 5.515625 27.984375 
Q 5.515625 40.671875 11.671875 48.328125 
Q 17.828125 56 27.875 56 
Q 33.9375 56 38.28125 53.609375 
Q 42.625 51.21875 45.40625 46.390625 
L 45.40625 54.6875 
L 54.390625 54.6875 
z
" id="DejaVuSans-103"/>
       <path d="M 54.890625 33.015625 
L 54.890625 0 
L 45.90625 0 
L 45.90625 32.71875 
Q 45.90625 40.484375 42.875 44.328125 
Q 39.84375 48.1875 33.796875 48.1875 
Q 26.515625 48.1875 22.3125 43.546875 
Q 18.109375 38.921875 18.109375 30.90625 
L 18.109375 0 
L 9.078125 0 
L 9.078125 54.6875 
L 18.109375 54.6875 
L 18.109375 46.1875 
Q 21.34375 51.125 25.703125 53.5625 
Q 30.078125 56 35.796875 56 
Q 45.21875 56 50.046875 50.171875 
Q 54.890625 44.34375 54.890625 33.015625 
z
" id="DejaVuSans-110"/>
       <path d="M 9.421875 75.984375 
L 18.40625 75.984375 
L 18.40625 0 
L 9.421875 0 
z
" id="DejaVuSans-108"/>
      </defs>
      <use xlink:href="#DejaVuSans-111"/>
      <use x="61.181641" xlink:href="#DejaVuSans-114"/>
      <use x="102.294922" xlink:href="#DejaVuSans-105"/>
      <use x="130.078125" xlink:href="#DejaVuSans-103"/>
      <use x="193.554688" xlink:href="#DejaVuSans-105"/>
      <use x="221.337891" xlink:href="#DejaVuSans-110"/>
      <use x="284.716797" xlink:href="#DejaVuSans-97"/>
      <use x="345.996094" xlink:href="#DejaVuSans-108"/>
     </g>
    </g>
    <g id="line2d_33">
     <path d="M 703.221875 79.616562 
L 723.221875 79.616562 
" style="fill:none;stroke:#ff0000;stroke-dasharray:1.5,2.475;stroke-dashoffset:0;stroke-width:1.5;"/>
    </g>
    <g id="line2d_34"/>
    <g id="text_19">
     <!-- fitted -->
     <g transform="translate(731.221875 83.116562)scale(0.1 -0.1)">
      <defs>
       <path d="M 37.109375 75.984375 
L 37.109375 68.5 
L 28.515625 68.5 
Q 23.6875 68.5 21.796875 66.546875 
Q 19.921875 64.59375 19.921875 59.515625 
L 19.921875 54.6875 
L 34.71875 54.6875 
L 34.71875 47.703125 
L 19.921875 47.703125 
L 19.921875 0 
L 10.890625 0 
L 10.890625 47.703125 
L 2.296875 47.703125 
L 2.296875 54.6875 
L 10.890625 54.6875 
L 10.890625 58.5 
Q 10.890625 67.625 15.140625 71.796875 
Q 19.390625 75.984375 28.609375 75.984375 
z
" id="DejaVuSans-102"/>
      </defs>
      <use xlink:href="#DejaVuSans-102"/>
      <use x="35.205078" xlink:href="#DejaVuSans-105"/>
      <use x="62.988281" xlink:href="#DejaVuSans-116"/>
      <use x="102.197266" xlink:href="#DejaVuSans-116"/>
      <use x="141.40625" xlink:href="#DejaVuSans-101"/>
      <use x="202.929688" xlink:href="#DejaVuSans-100"/>
     </g>
    </g>
   </g>
  </g>
 </g>
 <defs>
  <clipPath id="pb088cac0cf">
   <rect height="326.16" width="669.6" x="108" y="51.84"/>
  </clipPath>
 </defs>
</svg>
