<?xml version="1.0" encoding="utf-8" standalone="no"?>
<!DOCTYPE svg PUBLIC "-//W3C//DTD SVG 1.1//EN"
  "http://www.w3.org/Graphics/SVG/1.1/DTD/svg11.dtd">
<!-- Created with matplotlib (https://matplotlib.org/) -->
<svg height="432pt" version="1.1" viewBox="0 0 864 432" width="864pt" xmlns="http://www.w3.org/2000/svg" xmlns:xlink="http://www.w3.org/1999/xlink">
 <metadata>
  <rdf:RDF xmlns:cc="http://creativecommons.org/ns#" xmlns:dc="http://purl.org/dc/elements/1.1/" xmlns:rdf="http://www.w3.org/1999/02/22-rdf-syntax-ns#">
   <cc:Work>
    <dc:type rdf:resource="http://purl.org/dc/dcmitype/StillImage"/>
    <dc:date>2021-11-25T22:57:18.382035</dc:date>
    <dc:format>image/svg+xml</dc:format>
    <dc:creator>
     <cc:Agent>
      <dc:title>Matplotlib v3.3.2, https://matplotlib.org/</dc:title>
     </cc:Agent>
    </dc:creator>
   </cc:Work>
  </rdf:RDF>
 </metadata>
 <defs>
  <style type="text/css">*{stroke-linecap:butt;stroke-linejoin:round;}</style>
 </defs>
 <g id="figure_1">
  <g id="patch_1">
   <path d="M 0 432 
L 864 432 
L 864 0 
L 0 0 
z
" style="fill:none;"/>
  </g>
  <g id="axes_1">
   <g id="patch_2">
    <path d="M 108 378 
L 777.6 378 
L 777.6 51.84 
L 108 51.84 
z
" style="fill:#ffffff;"/>
   </g>
   <g id="matplotlib.axis_1">
    <g id="xtick_1">
     <g id="line2d_1">
      <path clip-path="url(#pcfaa32e6d0)" d="M 108 378 
L 108 51.84 
" style="fill:none;stroke:#b0b0b0;stroke-linecap:square;stroke-width:0.8;"/>
     </g>
     <g id="line2d_2">
      <defs>
       <path d="M 0 0 
L 0 3.5 
" id="m331659f6e8" style="stroke:#000000;stroke-width:0.8;"/>
      </defs>
      <g>
       <use style="stroke:#000000;stroke-width:0.8;" x="108" xlink:href="#m331659f6e8" y="378"/>
      </g>
     </g>
     <g id="text_1">
      <!-- 0.0 -->
      <g transform="translate(100.048438 392.598437)scale(0.1 -0.1)">
       <defs>
        <path d="M 31.78125 66.40625 
Q 24.171875 66.40625 20.328125 58.90625 
Q 16.5 51.421875 16.5 36.375 
Q 16.5 21.390625 20.328125 13.890625 
Q 24.171875 6.390625 31.78125 6.390625 
Q 39.453125 6.390625 43.28125 13.890625 
Q 47.125 21.390625 47.125 36.375 
Q 47.125 51.421875 43.28125 58.90625 
Q 39.453125 66.40625 31.78125 66.40625 
z
M 31.78125 74.21875 
Q 44.046875 74.21875 50.515625 64.515625 
Q 56.984375 54.828125 56.984375 36.375 
Q 56.984375 17.96875 50.515625 8.265625 
Q 44.046875 -1.421875 31.78125 -1.421875 
Q 19.53125 -1.421875 13.0625 8.265625 
Q 6.59375 17.96875 6.59375 36.375 
Q 6.59375 54.828125 13.0625 64.515625 
Q 19.53125 74.21875 31.78125 74.21875 
z
" id="DejaVuSans-48"/>
        <path d="M 10.6875 12.40625 
L 21 12.40625 
L 21 0 
L 10.6875 0 
z
" id="DejaVuSans-46"/>
       </defs>
       <use xlink:href="#DejaVuSans-48"/>
       <use x="63.623047" xlink:href="#DejaVuSans-46"/>
       <use x="95.410156" xlink:href="#DejaVuSans-48"/>
      </g>
     </g>
    </g>
    <g id="xtick_2">
     <g id="line2d_3">
      <path clip-path="url(#pcfaa32e6d0)" d="M 187.714286 378 
L 187.714286 51.84 
" style="fill:none;stroke:#b0b0b0;stroke-linecap:square;stroke-width:0.8;"/>
     </g>
     <g id="line2d_4">
      <g>
       <use style="stroke:#000000;stroke-width:0.8;" x="187.714286" xlink:href="#m331659f6e8" y="378"/>
      </g>
     </g>
     <g id="text_2">
      <!-- 0.2 -->
      <g transform="translate(179.762723 392.598437)scale(0.1 -0.1)">
       <defs>
        <path d="M 19.1875 8.296875 
L 53.609375 8.296875 
L 53.609375 0 
L 7.328125 0 
L 7.328125 8.296875 
Q 12.9375 14.109375 22.625 23.890625 
Q 32.328125 33.6875 34.8125 36.53125 
Q 39.546875 41.84375 41.421875 45.53125 
Q 43.3125 49.21875 43.3125 52.78125 
Q 43.3125 58.59375 39.234375 62.25 
Q 35.15625 65.921875 28.609375 65.921875 
Q 23.96875 65.921875 18.8125 64.3125 
Q 13.671875 62.703125 7.8125 59.421875 
L 7.8125 69.390625 
Q 13.765625 71.78125 18.9375 73 
Q 24.125 74.21875 28.421875 74.21875 
Q 39.75 74.21875 46.484375 68.546875 
Q 53.21875 62.890625 53.21875 53.421875 
Q 53.21875 48.921875 51.53125 44.890625 
Q 49.859375 40.875 45.40625 35.40625 
Q 44.1875 33.984375 37.640625 27.21875 
Q 31.109375 20.453125 19.1875 8.296875 
z
" id="DejaVuSans-50"/>
       </defs>
       <use xlink:href="#DejaVuSans-48"/>
       <use x="63.623047" xlink:href="#DejaVuSans-46"/>
       <use x="95.410156" xlink:href="#DejaVuSans-50"/>
      </g>
     </g>
    </g>
    <g id="xtick_3">
     <g id="line2d_5">
      <path clip-path="url(#pcfaa32e6d0)" d="M 267.428571 378 
L 267.428571 51.84 
" style="fill:none;stroke:#b0b0b0;stroke-linecap:square;stroke-width:0.8;"/>
     </g>
     <g id="line2d_6">
      <g>
       <use style="stroke:#000000;stroke-width:0.8;" x="267.428571" xlink:href="#m331659f6e8" y="378"/>
      </g>
     </g>
     <g id="text_3">
      <!-- 0.4 -->
      <g transform="translate(259.477009 392.598437)scale(0.1 -0.1)">
       <defs>
        <path d="M 37.796875 64.3125 
L 12.890625 25.390625 
L 37.796875 25.390625 
z
M 35.203125 72.90625 
L 47.609375 72.90625 
L 47.609375 25.390625 
L 58.015625 25.390625 
L 58.015625 17.1875 
L 47.609375 17.1875 
L 47.609375 0 
L 37.796875 0 
L 37.796875 17.1875 
L 4.890625 17.1875 
L 4.890625 26.703125 
z
" id="DejaVuSans-52"/>
       </defs>
       <use xlink:href="#DejaVuSans-48"/>
       <use x="63.623047" xlink:href="#DejaVuSans-46"/>
       <use x="95.410156" xlink:href="#DejaVuSans-52"/>
      </g>
     </g>
    </g>
    <g id="xtick_4">
     <g id="line2d_7">
      <path clip-path="url(#pcfaa32e6d0)" d="M 347.142857 378 
L 347.142857 51.84 
" style="fill:none;stroke:#b0b0b0;stroke-linecap:square;stroke-width:0.8;"/>
     </g>
     <g id="line2d_8">
      <g>
       <use style="stroke:#000000;stroke-width:0.8;" x="347.142857" xlink:href="#m331659f6e8" y="378"/>
      </g>
     </g>
     <g id="text_4">
      <!-- 0.6 -->
      <g transform="translate(339.191295 392.598437)scale(0.1 -0.1)">
       <defs>
        <path d="M 33.015625 40.375 
Q 26.375 40.375 22.484375 35.828125 
Q 18.609375 31.296875 18.609375 23.390625 
Q 18.609375 15.53125 22.484375 10.953125 
Q 26.375 6.390625 33.015625 6.390625 
Q 39.65625 6.390625 43.53125 10.953125 
Q 47.40625 15.53125 47.40625 23.390625 
Q 47.40625 31.296875 43.53125 35.828125 
Q 39.65625 40.375 33.015625 40.375 
z
M 52.59375 71.296875 
L 52.59375 62.3125 
Q 48.875 64.0625 45.09375 64.984375 
Q 41.3125 65.921875 37.59375 65.921875 
Q 27.828125 65.921875 22.671875 59.328125 
Q 17.53125 52.734375 16.796875 39.40625 
Q 19.671875 43.65625 24.015625 45.921875 
Q 28.375 48.1875 33.59375 48.1875 
Q 44.578125 48.1875 50.953125 41.515625 
Q 57.328125 34.859375 57.328125 23.390625 
Q 57.328125 12.15625 50.6875 5.359375 
Q 44.046875 -1.421875 33.015625 -1.421875 
Q 20.359375 -1.421875 13.671875 8.265625 
Q 6.984375 17.96875 6.984375 36.375 
Q 6.984375 53.65625 15.1875 63.9375 
Q 23.390625 74.21875 37.203125 74.21875 
Q 40.921875 74.21875 44.703125 73.484375 
Q 48.484375 72.75 52.59375 71.296875 
z
" id="DejaVuSans-54"/>
       </defs>
       <use xlink:href="#DejaVuSans-48"/>
       <use x="63.623047" xlink:href="#DejaVuSans-46"/>
       <use x="95.410156" xlink:href="#DejaVuSans-54"/>
      </g>
     </g>
    </g>
    <g id="xtick_5">
     <g id="line2d_9">
      <path clip-path="url(#pcfaa32e6d0)" d="M 426.857143 378 
L 426.857143 51.84 
" style="fill:none;stroke:#b0b0b0;stroke-linecap:square;stroke-width:0.8;"/>
     </g>
     <g id="line2d_10">
      <g>
       <use style="stroke:#000000;stroke-width:0.8;" x="426.857143" xlink:href="#m331659f6e8" y="378"/>
      </g>
     </g>
     <g id="text_5">
      <!-- 0.8 -->
      <g transform="translate(418.90558 392.598437)scale(0.1 -0.1)">
       <defs>
        <path d="M 31.78125 34.625 
Q 24.75 34.625 20.71875 30.859375 
Q 16.703125 27.09375 16.703125 20.515625 
Q 16.703125 13.921875 20.71875 10.15625 
Q 24.75 6.390625 31.78125 6.390625 
Q 38.8125 6.390625 42.859375 10.171875 
Q 46.921875 13.96875 46.921875 20.515625 
Q 46.921875 27.09375 42.890625 30.859375 
Q 38.875 34.625 31.78125 34.625 
z
M 21.921875 38.8125 
Q 15.578125 40.375 12.03125 44.71875 
Q 8.5 49.078125 8.5 55.328125 
Q 8.5 64.0625 14.71875 69.140625 
Q 20.953125 74.21875 31.78125 74.21875 
Q 42.671875 74.21875 48.875 69.140625 
Q 55.078125 64.0625 55.078125 55.328125 
Q 55.078125 49.078125 51.53125 44.71875 
Q 48 40.375 41.703125 38.8125 
Q 48.828125 37.15625 52.796875 32.3125 
Q 56.78125 27.484375 56.78125 20.515625 
Q 56.78125 9.90625 50.3125 4.234375 
Q 43.84375 -1.421875 31.78125 -1.421875 
Q 19.734375 -1.421875 13.25 4.234375 
Q 6.78125 9.90625 6.78125 20.515625 
Q 6.78125 27.484375 10.78125 32.3125 
Q 14.796875 37.15625 21.921875 38.8125 
z
M 18.3125 54.390625 
Q 18.3125 48.734375 21.84375 45.5625 
Q 25.390625 42.390625 31.78125 42.390625 
Q 38.140625 42.390625 41.71875 45.5625 
Q 45.3125 48.734375 45.3125 54.390625 
Q 45.3125 60.0625 41.71875 63.234375 
Q 38.140625 66.40625 31.78125 66.40625 
Q 25.390625 66.40625 21.84375 63.234375 
Q 18.3125 60.0625 18.3125 54.390625 
z
" id="DejaVuSans-56"/>
       </defs>
       <use xlink:href="#DejaVuSans-48"/>
       <use x="63.623047" xlink:href="#DejaVuSans-46"/>
       <use x="95.410156" xlink:href="#DejaVuSans-56"/>
      </g>
     </g>
    </g>
    <g id="xtick_6">
     <g id="line2d_11">
      <path clip-path="url(#pcfaa32e6d0)" d="M 506.571429 378 
L 506.571429 51.84 
" style="fill:none;stroke:#b0b0b0;stroke-linecap:square;stroke-width:0.8;"/>
     </g>
     <g id="line2d_12">
      <g>
       <use style="stroke:#000000;stroke-width:0.8;" x="506.571429" xlink:href="#m331659f6e8" y="378"/>
      </g>
     </g>
     <g id="text_6">
      <!-- 1.0 -->
      <g transform="translate(498.619866 392.598437)scale(0.1 -0.1)">
       <defs>
        <path d="M 12.40625 8.296875 
L 28.515625 8.296875 
L 28.515625 63.921875 
L 10.984375 60.40625 
L 10.984375 69.390625 
L 28.421875 72.90625 
L 38.28125 72.90625 
L 38.28125 8.296875 
L 54.390625 8.296875 
L 54.390625 0 
L 12.40625 0 
z
" id="DejaVuSans-49"/>
       </defs>
       <use xlink:href="#DejaVuSans-49"/>
       <use x="63.623047" xlink:href="#DejaVuSans-46"/>
       <use x="95.410156" xlink:href="#DejaVuSans-48"/>
      </g>
     </g>
    </g>
    <g id="xtick_7">
     <g id="line2d_13">
      <path clip-path="url(#pcfaa32e6d0)" d="M 586.285714 378 
L 586.285714 51.84 
" style="fill:none;stroke:#b0b0b0;stroke-linecap:square;stroke-width:0.8;"/>
     </g>
     <g id="line2d_14">
      <g>
       <use style="stroke:#000000;stroke-width:0.8;" x="586.285714" xlink:href="#m331659f6e8" y="378"/>
      </g>
     </g>
     <g id="text_7">
      <!-- 1.2 -->
      <g transform="translate(578.334152 392.598437)scale(0.1 -0.1)">
       <use xlink:href="#DejaVuSans-49"/>
       <use x="63.623047" xlink:href="#DejaVuSans-46"/>
       <use x="95.410156" xlink:href="#DejaVuSans-50"/>
      </g>
     </g>
    </g>
    <g id="xtick_8">
     <g id="line2d_15">
      <path clip-path="url(#pcfaa32e6d0)" d="M 666 378 
L 666 51.84 
" style="fill:none;stroke:#b0b0b0;stroke-linecap:square;stroke-width:0.8;"/>
     </g>
     <g id="line2d_16">
      <g>
       <use style="stroke:#000000;stroke-width:0.8;" x="666" xlink:href="#m331659f6e8" y="378"/>
      </g>
     </g>
     <g id="text_8">
      <!-- 1.4 -->
      <g transform="translate(658.048437 392.598437)scale(0.1 -0.1)">
       <use xlink:href="#DejaVuSans-49"/>
       <use x="63.623047" xlink:href="#DejaVuSans-46"/>
       <use x="95.410156" xlink:href="#DejaVuSans-52"/>
      </g>
     </g>
    </g>
    <g id="xtick_9">
     <g id="line2d_17">
      <path clip-path="url(#pcfaa32e6d0)" d="M 745.714286 378 
L 745.714286 51.84 
" style="fill:none;stroke:#b0b0b0;stroke-linecap:square;stroke-width:0.8;"/>
     </g>
     <g id="line2d_18">
      <g>
       <use style="stroke:#000000;stroke-width:0.8;" x="745.714286" xlink:href="#m331659f6e8" y="378"/>
      </g>
     </g>
     <g id="text_9">
      <!-- 1.6 -->
      <g transform="translate(737.762723 392.598437)scale(0.1 -0.1)">
       <use xlink:href="#DejaVuSans-49"/>
       <use x="63.623047" xlink:href="#DejaVuSans-46"/>
       <use x="95.410156" xlink:href="#DejaVuSans-54"/>
      </g>
     </g>
    </g>
    <g id="text_10">
     <!-- time (s) -->
     <g transform="translate(423.408594 406.276563)scale(0.1 -0.1)">
      <defs>
       <path d="M 18.3125 70.21875 
L 18.3125 54.6875 
L 36.8125 54.6875 
L 36.8125 47.703125 
L 18.3125 47.703125 
L 18.3125 18.015625 
Q 18.3125 11.328125 20.140625 9.421875 
Q 21.96875 7.515625 27.59375 7.515625 
L 36.8125 7.515625 
L 36.8125 0 
L 27.59375 0 
Q 17.1875 0 13.234375 3.875 
Q 9.28125 7.765625 9.28125 18.015625 
L 9.28125 47.703125 
L 2.6875 47.703125 
L 2.6875 54.6875 
L 9.28125 54.6875 
L 9.28125 70.21875 
z
" id="DejaVuSans-116"/>
       <path d="M 9.421875 54.6875 
L 18.40625 54.6875 
L 18.40625 0 
L 9.421875 0 
z
M 9.421875 75.984375 
L 18.40625 75.984375 
L 18.40625 64.59375 
L 9.421875 64.59375 
z
" id="DejaVuSans-105"/>
       <path d="M 52 44.1875 
Q 55.375 50.25 60.0625 53.125 
Q 64.75 56 71.09375 56 
Q 79.640625 56 84.28125 50.015625 
Q 88.921875 44.046875 88.921875 33.015625 
L 88.921875 0 
L 79.890625 0 
L 79.890625 32.71875 
Q 79.890625 40.578125 77.09375 44.375 
Q 74.3125 48.1875 68.609375 48.1875 
Q 61.625 48.1875 57.5625 43.546875 
Q 53.515625 38.921875 53.515625 30.90625 
L 53.515625 0 
L 44.484375 0 
L 44.484375 32.71875 
Q 44.484375 40.625 41.703125 44.40625 
Q 38.921875 48.1875 33.109375 48.1875 
Q 26.21875 48.1875 22.15625 43.53125 
Q 18.109375 38.875 18.109375 30.90625 
L 18.109375 0 
L 9.078125 0 
L 9.078125 54.6875 
L 18.109375 54.6875 
L 18.109375 46.1875 
Q 21.1875 51.21875 25.484375 53.609375 
Q 29.78125 56 35.6875 56 
Q 41.65625 56 45.828125 52.96875 
Q 50 49.953125 52 44.1875 
z
" id="DejaVuSans-109"/>
       <path d="M 56.203125 29.59375 
L 56.203125 25.203125 
L 14.890625 25.203125 
Q 15.484375 15.921875 20.484375 11.0625 
Q 25.484375 6.203125 34.421875 6.203125 
Q 39.59375 6.203125 44.453125 7.46875 
Q 49.3125 8.734375 54.109375 11.28125 
L 54.109375 2.78125 
Q 49.265625 0.734375 44.1875 -0.34375 
Q 39.109375 -1.421875 33.890625 -1.421875 
Q 20.796875 -1.421875 13.15625 6.1875 
Q 5.515625 13.8125 5.515625 26.8125 
Q 5.515625 40.234375 12.765625 48.109375 
Q 20.015625 56 32.328125 56 
Q 43.359375 56 49.78125 48.890625 
Q 56.203125 41.796875 56.203125 29.59375 
z
M 47.21875 32.234375 
Q 47.125 39.59375 43.09375 43.984375 
Q 39.0625 48.390625 32.421875 48.390625 
Q 24.90625 48.390625 20.390625 44.140625 
Q 15.875 39.890625 15.1875 32.171875 
z
" id="DejaVuSans-101"/>
       <path id="DejaVuSans-32"/>
       <path d="M 31 75.875 
Q 24.46875 64.65625 21.28125 53.65625 
Q 18.109375 42.671875 18.109375 31.390625 
Q 18.109375 20.125 21.3125 9.0625 
Q 24.515625 -2 31 -13.1875 
L 23.1875 -13.1875 
Q 15.875 -1.703125 12.234375 9.375 
Q 8.59375 20.453125 8.59375 31.390625 
Q 8.59375 42.28125 12.203125 53.3125 
Q 15.828125 64.359375 23.1875 75.875 
z
" id="DejaVuSans-40"/>
       <path d="M 44.28125 53.078125 
L 44.28125 44.578125 
Q 40.484375 46.53125 36.375 47.5 
Q 32.28125 48.484375 27.875 48.484375 
Q 21.1875 48.484375 17.84375 46.4375 
Q 14.5 44.390625 14.5 40.28125 
Q 14.5 37.15625 16.890625 35.375 
Q 19.28125 33.59375 26.515625 31.984375 
L 29.59375 31.296875 
Q 39.15625 29.25 43.1875 25.515625 
Q 47.21875 21.78125 47.21875 15.09375 
Q 47.21875 7.46875 41.1875 3.015625 
Q 35.15625 -1.421875 24.609375 -1.421875 
Q 20.21875 -1.421875 15.453125 -0.5625 
Q 10.6875 0.296875 5.421875 2 
L 5.421875 11.28125 
Q 10.40625 8.6875 15.234375 7.390625 
Q 20.0625 6.109375 24.8125 6.109375 
Q 31.15625 6.109375 34.5625 8.28125 
Q 37.984375 10.453125 37.984375 14.40625 
Q 37.984375 18.0625 35.515625 20.015625 
Q 33.0625 21.96875 24.703125 23.78125 
L 21.578125 24.515625 
Q 13.234375 26.265625 9.515625 29.90625 
Q 5.8125 33.546875 5.8125 39.890625 
Q 5.8125 47.609375 11.28125 51.796875 
Q 16.75 56 26.8125 56 
Q 31.78125 56 36.171875 55.265625 
Q 40.578125 54.546875 44.28125 53.078125 
z
" id="DejaVuSans-115"/>
       <path d="M 8.015625 75.875 
L 15.828125 75.875 
Q 23.140625 64.359375 26.78125 53.3125 
Q 30.421875 42.28125 30.421875 31.390625 
Q 30.421875 20.453125 26.78125 9.375 
Q 23.140625 -1.703125 15.828125 -13.1875 
L 8.015625 -13.1875 
Q 14.5 -2 17.703125 9.0625 
Q 20.90625 20.125 20.90625 31.390625 
Q 20.90625 42.671875 17.703125 53.65625 
Q 14.5 64.65625 8.015625 75.875 
z
" id="DejaVuSans-41"/>
      </defs>
      <use xlink:href="#DejaVuSans-116"/>
      <use x="39.208984" xlink:href="#DejaVuSans-105"/>
      <use x="66.992188" xlink:href="#DejaVuSans-109"/>
      <use x="164.404297" xlink:href="#DejaVuSans-101"/>
      <use x="225.927734" xlink:href="#DejaVuSans-32"/>
      <use x="257.714844" xlink:href="#DejaVuSans-40"/>
      <use x="296.728516" xlink:href="#DejaVuSans-115"/>
      <use x="348.828125" xlink:href="#DejaVuSans-41"/>
     </g>
    </g>
   </g>
   <g id="matplotlib.axis_2">
    <g id="ytick_1">
     <g id="line2d_19">
      <path clip-path="url(#pcfaa32e6d0)" d="M 108 378 
L 777.6 378 
" style="fill:none;stroke:#b0b0b0;stroke-linecap:square;stroke-width:0.8;"/>
     </g>
     <g id="line2d_20">
      <defs>
       <path d="M 0 0 
L -3.5 0 
" id="m6d740e2ffe" style="stroke:#000000;stroke-width:0.8;"/>
      </defs>
      <g>
       <use style="stroke:#000000;stroke-width:0.8;" x="108" xlink:href="#m6d740e2ffe" y="378"/>
      </g>
     </g>
     <g id="text_11">
      <!-- −15 -->
      <g transform="translate(79.895313 381.799219)scale(0.1 -0.1)">
       <defs>
        <path d="M 10.59375 35.5 
L 73.1875 35.5 
L 73.1875 27.203125 
L 10.59375 27.203125 
z
" id="DejaVuSans-8722"/>
        <path d="M 10.796875 72.90625 
L 49.515625 72.90625 
L 49.515625 64.59375 
L 19.828125 64.59375 
L 19.828125 46.734375 
Q 21.96875 47.46875 24.109375 47.828125 
Q 26.265625 48.1875 28.421875 48.1875 
Q 40.625 48.1875 47.75 41.5 
Q 54.890625 34.8125 54.890625 23.390625 
Q 54.890625 11.625 47.5625 5.09375 
Q 40.234375 -1.421875 26.90625 -1.421875 
Q 22.3125 -1.421875 17.546875 -0.640625 
Q 12.796875 0.140625 7.71875 1.703125 
L 7.71875 11.625 
Q 12.109375 9.234375 16.796875 8.0625 
Q 21.484375 6.890625 26.703125 6.890625 
Q 35.15625 6.890625 40.078125 11.328125 
Q 45.015625 15.765625 45.015625 23.390625 
Q 45.015625 31 40.078125 35.4375 
Q 35.15625 39.890625 26.703125 39.890625 
Q 22.75 39.890625 18.8125 39.015625 
Q 14.890625 38.140625 10.796875 36.28125 
z
" id="DejaVuSans-53"/>
       </defs>
       <use xlink:href="#DejaVuSans-8722"/>
       <use x="83.789062" xlink:href="#DejaVuSans-49"/>
       <use x="147.412109" xlink:href="#DejaVuSans-53"/>
      </g>
     </g>
    </g>
    <g id="ytick_2">
     <g id="line2d_21">
      <path clip-path="url(#pcfaa32e6d0)" d="M 108 323.64 
L 777.6 323.64 
" style="fill:none;stroke:#b0b0b0;stroke-linecap:square;stroke-width:0.8;"/>
     </g>
     <g id="line2d_22">
      <g>
       <use style="stroke:#000000;stroke-width:0.8;" x="108" xlink:href="#m6d740e2ffe" y="323.64"/>
      </g>
     </g>
     <g id="text_12">
      <!-- −10 -->
      <g transform="translate(79.895313 327.439219)scale(0.1 -0.1)">
       <use xlink:href="#DejaVuSans-8722"/>
       <use x="83.789062" xlink:href="#DejaVuSans-49"/>
       <use x="147.412109" xlink:href="#DejaVuSans-48"/>
      </g>
     </g>
    </g>
    <g id="ytick_3">
     <g id="line2d_23">
      <path clip-path="url(#pcfaa32e6d0)" d="M 108 269.28 
L 777.6 269.28 
" style="fill:none;stroke:#b0b0b0;stroke-linecap:square;stroke-width:0.8;"/>
     </g>
     <g id="line2d_24">
      <g>
       <use style="stroke:#000000;stroke-width:0.8;" x="108" xlink:href="#m6d740e2ffe" y="269.28"/>
      </g>
     </g>
     <g id="text_13">
      <!-- −5 -->
      <g transform="translate(86.257812 273.079219)scale(0.1 -0.1)">
       <use xlink:href="#DejaVuSans-8722"/>
       <use x="83.789062" xlink:href="#DejaVuSans-53"/>
      </g>
     </g>
    </g>
    <g id="ytick_4">
     <g id="line2d_25">
      <path clip-path="url(#pcfaa32e6d0)" d="M 108 214.92 
L 777.6 214.92 
" style="fill:none;stroke:#b0b0b0;stroke-linecap:square;stroke-width:0.8;"/>
     </g>
     <g id="line2d_26">
      <g>
       <use style="stroke:#000000;stroke-width:0.8;" x="108" xlink:href="#m6d740e2ffe" y="214.92"/>
      </g>
     </g>
     <g id="text_14">
      <!-- 0 -->
      <g transform="translate(94.6375 218.719219)scale(0.1 -0.1)">
       <use xlink:href="#DejaVuSans-48"/>
      </g>
     </g>
    </g>
    <g id="ytick_5">
     <g id="line2d_27">
      <path clip-path="url(#pcfaa32e6d0)" d="M 108 160.56 
L 777.6 160.56 
" style="fill:none;stroke:#b0b0b0;stroke-linecap:square;stroke-width:0.8;"/>
     </g>
     <g id="line2d_28">
      <g>
       <use style="stroke:#000000;stroke-width:0.8;" x="108" xlink:href="#m6d740e2ffe" y="160.56"/>
      </g>
     </g>
     <g id="text_15">
      <!-- 5 -->
      <g transform="translate(94.6375 164.359219)scale(0.1 -0.1)">
       <use xlink:href="#DejaVuSans-53"/>
      </g>
     </g>
    </g>
    <g id="ytick_6">
     <g id="line2d_29">
      <path clip-path="url(#pcfaa32e6d0)" d="M 108 106.2 
L 777.6 106.2 
" style="fill:none;stroke:#b0b0b0;stroke-linecap:square;stroke-width:0.8;"/>
     </g>
     <g id="line2d_30">
      <g>
       <use style="stroke:#000000;stroke-width:0.8;" x="108" xlink:href="#m6d740e2ffe" y="106.2"/>
      </g>
     </g>
     <g id="text_16">
      <!-- 10 -->
      <g transform="translate(88.275 109.999219)scale(0.1 -0.1)">
       <use xlink:href="#DejaVuSans-49"/>
       <use x="63.623047" xlink:href="#DejaVuSans-48"/>
      </g>
     </g>
    </g>
    <g id="ytick_7">
     <g id="line2d_31">
      <path clip-path="url(#pcfaa32e6d0)" d="M 108 51.84 
L 777.6 51.84 
" style="fill:none;stroke:#b0b0b0;stroke-linecap:square;stroke-width:0.8;"/>
     </g>
     <g id="line2d_32">
      <g>
       <use style="stroke:#000000;stroke-width:0.8;" x="108" xlink:href="#m6d740e2ffe" y="51.84"/>
      </g>
     </g>
     <g id="text_17">
      <!-- 15 -->
      <g transform="translate(88.275 55.639219)scale(0.1 -0.1)">
       <use xlink:href="#DejaVuSans-49"/>
       <use x="63.623047" xlink:href="#DejaVuSans-53"/>
      </g>
     </g>
    </g>
    <g id="text_18">
     <!-- a(t) -->
     <g transform="translate(73.815625 223.845781)rotate(-90)scale(0.1 -0.1)">
      <defs>
       <path d="M 34.28125 27.484375 
Q 23.390625 27.484375 19.1875 25 
Q 14.984375 22.515625 14.984375 16.5 
Q 14.984375 11.71875 18.140625 8.90625 
Q 21.296875 6.109375 26.703125 6.109375 
Q 34.1875 6.109375 38.703125 11.40625 
Q 43.21875 16.703125 43.21875 25.484375 
L 43.21875 27.484375 
z
M 52.203125 31.203125 
L 52.203125 0 
L 43.21875 0 
L 43.21875 8.296875 
Q 40.140625 3.328125 35.546875 0.953125 
Q 30.953125 -1.421875 24.3125 -1.421875 
Q 15.921875 -1.421875 10.953125 3.296875 
Q 6 8.015625 6 15.921875 
Q 6 25.140625 12.171875 29.828125 
Q 18.359375 34.515625 30.609375 34.515625 
L 43.21875 34.515625 
L 43.21875 35.40625 
Q 43.21875 41.609375 39.140625 45 
Q 35.0625 48.390625 27.6875 48.390625 
Q 23 48.390625 18.546875 47.265625 
Q 14.109375 46.140625 10.015625 43.890625 
L 10.015625 52.203125 
Q 14.9375 54.109375 19.578125 55.046875 
Q 24.21875 56 28.609375 56 
Q 40.484375 56 46.34375 49.84375 
Q 52.203125 43.703125 52.203125 31.203125 
z
" id="DejaVuSans-97"/>
      </defs>
      <use xlink:href="#DejaVuSans-97"/>
      <use x="61.279297" xlink:href="#DejaVuSans-40"/>
      <use x="100.292969" xlink:href="#DejaVuSans-116"/>
      <use x="139.501953" xlink:href="#DejaVuSans-41"/>
     </g>
    </g>
   </g>
   <g id="line2d_33">
    <path clip-path="url(#pcfaa32e6d0)" d="M 108 215.26028 
L 109.085172 213.289362 
L 110.170344 208.496318 
L 111.255516 194.247641 
L 112.340689 178.443871 
L 113.425861 167.362865 
L 114.511033 139.235236 
L 115.596205 116.962069 
L 116.681377 107.742582 
L 117.766549 110.371673 
L 119.936894 139.136992 
L 121.022066 150.478107 
L 122.107238 149.352149 
L 123.19241 140.752525 
L 124.277582 123.970081 
L 125.362755 117.687936 
L 126.447927 120.181063 
L 127.533099 125.286937 
L 128.618271 129.661172 
L 129.703443 131.676288 
L 130.788615 136.769902 
L 131.873787 145.468886 
L 132.95896 162.609413 
L 134.044132 190.076141 
L 135.129304 210.041107 
L 136.214476 221.167654 
L 137.299648 226.531169 
L 138.38482 227.580954 
L 140.555165 213.521427 
L 141.640337 208.055999 
L 142.725509 211.521518 
L 144.895853 234.384571 
L 145.981026 261.140784 
L 147.066198 279.785237 
L 149.236542 301.397157 
L 152.492059 324.175164 
L 153.577231 325.181781 
L 154.662403 319.981467 
L 155.747575 299.18564 
L 156.832747 275.199426 
L 159.003091 242.893402 
L 160.088264 240.613216 
L 161.173436 244.431575 
L 162.258608 250.537292 
L 163.34378 255.027862 
L 164.428952 253.638308 
L 165.514124 249.182675 
L 166.599297 242.359143 
L 167.684469 237.942681 
L 168.769641 231.678379 
L 172.025157 216.577778 
L 173.11033 202.249406 
L 174.195502 175.718306 
L 175.280674 157.895629 
L 176.365846 152.388064 
L 177.451018 152.822529 
L 178.53619 161.211639 
L 179.621362 168.703679 
L 180.706535 173.739621 
L 181.791707 177.212251 
L 182.876879 184.95624 
L 183.962051 194.393837 
L 185.047223 195.359513 
L 186.132395 190.147944 
L 187.217568 175.695693 
L 188.30274 159.574727 
L 189.387912 147.251876 
L 190.473084 130.306363 
L 191.558256 127.92674 
L 192.643428 137.11718 
L 193.728601 154.962192 
L 194.813773 177.228905 
L 195.898945 193.964356 
L 196.984117 208.281054 
L 198.069289 214.283993 
L 199.154461 217.28094 
L 200.239633 222.583519 
L 201.324806 224.83994 
L 202.409978 223.771676 
L 203.49515 221.736738 
L 204.580322 216.70746 
L 205.665494 208.372673 
L 206.750666 200.996969 
L 207.835839 197.197113 
L 208.921011 196.203832 
L 210.006183 204.091414 
L 211.091355 219.055951 
L 214.346872 277.223913 
L 215.432044 289.84004 
L 216.517216 297.284826 
L 217.602388 298.86913 
L 218.68756 289.30809 
L 219.772732 277.759233 
L 220.857904 270.161833 
L 223.028249 245.987786 
L 224.113421 234.160838 
L 225.198593 223.999619 
L 226.283765 218.431957 
L 227.368937 218.554531 
L 228.45411 228.763954 
L 229.539282 236.581735 
L 230.624454 247.380143 
L 231.709626 252.771555 
L 232.794798 250.066742 
L 233.87997 243.889958 
L 236.050315 227.209868 
L 237.135487 220.735622 
L 238.220659 212.133939 
L 239.305831 205.074454 
L 240.391003 192.206434 
L 241.476176 185.24954 
L 242.561348 176.027177 
L 243.64652 169.798362 
L 244.731692 169.30975 
L 245.816864 176.521454 
L 246.902036 187.887028 
L 247.987208 192.107343 
L 250.157553 210.54366 
L 251.242725 216.276815 
L 252.327897 218.306456 
L 253.413069 213.137591 
L 254.498241 199.631088 
L 255.583414 181.707245 
L 256.668586 166.013347 
L 257.753758 158.4073 
L 258.83893 157.376664 
L 259.924102 161.897053 
L 261.009274 170.214066 
L 262.094447 184.362379 
L 263.179619 200.919367 
L 264.264791 208.434674 
L 265.349963 211.782057 
L 267.520307 221.032799 
L 268.605479 224.141084 
L 269.690652 226.100173 
L 270.775824 224.497168 
L 271.860996 217.397836 
L 272.946168 205.908302 
L 274.03134 198.970947 
L 275.116512 196.654853 
L 276.201685 196.491983 
L 277.286857 201.063505 
L 278.372029 209.733026 
L 279.457201 214.200329 
L 280.542373 220.906125 
L 281.627545 235.739097 
L 282.712718 248.797464 
L 283.79789 254.067485 
L 284.883062 264.469486 
L 285.968234 270.797066 
L 287.053406 268.182866 
L 288.138578 258.529561 
L 289.22375 247.289081 
L 291.394095 230.94349 
L 292.479267 225.606135 
L 293.564439 221.413036 
L 294.649611 220.173967 
L 296.819956 220.900736 
L 297.905128 224.736296 
L 300.075472 238.291612 
L 301.160644 242.822488 
L 302.245816 243.747316 
L 303.330989 240.72684 
L 305.501333 225.31434 
L 306.586505 221.237271 
L 307.671677 215.720129 
L 308.756849 207.485826 
L 309.842022 197.838978 
L 310.927194 195.582059 
L 312.012366 195.393619 
L 313.097538 192.107687 
L 314.18271 191.66561 
L 315.267882 193.221594 
L 316.353054 197.642138 
L 317.438227 201.393975 
L 318.523399 205.766679 
L 319.608571 211.127466 
L 320.693743 213.485205 
L 321.778915 214.729103 
L 322.864087 216.590089 
L 323.94926 217.027861 
L 325.034432 210.290614 
L 326.119604 195.466994 
L 327.204776 185.748201 
L 329.37512 178.852954 
L 330.460293 181.253559 
L 331.545465 188.459897 
L 332.630637 197.132141 
L 333.715809 203.460821 
L 334.800981 207.30893 
L 335.886153 211.733751 
L 336.971325 213.214656 
L 338.056498 212.60263 
L 339.14167 215.033548 
L 340.226842 218.274131 
L 341.312014 217.147551 
L 343.482358 208.806253 
L 344.567531 202.929935 
L 345.652703 201.743308 
L 346.737875 200.768401 
L 347.823047 205.060203 
L 348.908219 208.806223 
L 349.993391 211.313901 
L 351.078564 215.78342 
L 352.163736 219.186248 
L 355.419252 232.031515 
L 357.589596 242.027053 
L 358.674769 240.76296 
L 359.759941 238.697458 
L 361.930285 228.510343 
L 363.015457 223.833635 
L 364.100629 221.645056 
L 365.185802 221.957975 
L 366.270974 221.374063 
L 367.356146 221.885029 
L 368.441318 223.822023 
L 369.52649 225.526836 
L 371.696835 227.878735 
L 372.782007 230.384993 
L 373.867179 232.577595 
L 374.952351 231.907401 
L 377.122695 226.533725 
L 378.207868 224.101477 
L 379.29304 218.33575 
L 380.378212 214.333791 
L 381.463384 211.606069 
L 382.548556 208.404176 
L 383.633728 204.448752 
L 384.7189 205.34813 
L 385.804073 206.395154 
L 386.889245 207.104528 
L 387.974417 205.926977 
L 389.059589 206.593762 
L 390.144761 208.671943 
L 391.229933 209.426895 
L 392.315106 209.049888 
L 393.400278 210.48726 
L 394.48545 212.972463 
L 395.570622 214.490032 
L 396.655794 212.957981 
L 397.740966 211.1431 
L 398.826139 205.091166 
L 399.911311 201.764398 
L 400.996483 199.082629 
L 402.081655 200.256746 
L 403.166827 198.913065 
L 404.251999 199.364829 
L 405.337171 201.243313 
L 406.422344 205.236671 
L 407.507516 207.266839 
L 408.592688 207.664887 
L 409.67786 208.297799 
L 410.763032 209.748594 
L 411.848204 211.606645 
L 412.933377 212.358572 
L 414.018549 212.620515 
L 415.103721 212.434377 
L 416.188893 210.757067 
L 417.274065 210.558507 
L 419.44441 209.615253 
L 420.529582 208.916186 
L 421.614754 209.320501 
L 422.699926 211.014451 
L 423.785098 214.399097 
L 424.87027 215.165553 
L 425.955442 216.457208 
L 427.040615 218.521813 
L 428.125787 220.119263 
L 429.210959 221.287391 
L 430.296131 223.237622 
L 431.381303 224.911171 
L 432.466475 225.39167 
L 433.551648 224.462188 
L 434.63682 225.178263 
L 435.721992 224.734506 
L 437.892336 220.367918 
L 438.977508 220.203253 
L 440.062681 221.985831 
L 441.147853 222.054917 
L 442.233025 222.300835 
L 443.318197 223.363971 
L 444.403369 222.957766 
L 445.488541 222.387563 
L 446.573713 223.739433 
L 448.744058 223.544193 
L 449.82923 223.98627 
L 450.914402 223.167655 
L 451.999574 221.618653 
L 453.084746 219.15233 
L 454.169919 217.679605 
L 456.340263 214.373858 
L 457.425435 213.566702 
L 458.510607 212.557327 
L 459.595779 212.008058 
L 460.680952 212.208339 
L 461.766124 211.436244 
L 462.851296 211.304599 
L 463.936468 211.3875 
L 465.02164 211.606796 
L 466.106812 210.855245 
L 467.191985 211.42726 
L 468.277157 212.393371 
L 469.362329 213.673068 
L 471.532673 212.399747 
L 472.617845 212.094294 
L 473.703017 210.469768 
L 474.78819 208.542711 
L 475.873362 207.547142 
L 476.958534 207.502908 
L 478.043706 207.26054 
L 479.128878 207.254546 
L 481.299223 209.486964 
L 482.384395 209.218628 
L 483.469567 209.255868 
L 484.554739 211.140511 
L 485.639911 211.739185 
L 486.725083 212.496789 
L 487.810256 211.886025 
L 489.9806 212.800099 
L 491.065772 211.907963 
L 492.150944 212.168291 
L 493.236116 212.237182 
L 494.321288 211.730762 
L 495.406461 211.428107 
L 496.491633 213.167488 
L 497.576805 213.992551 
L 498.661977 214.05826 
L 499.747149 213.893397 
L 500.832321 214.827794 
L 501.917494 216.651125 
L 503.002666 217.375141 
L 504.087838 217.956822 
L 507.343354 219.199653 
L 508.428527 219.357151 
L 509.513699 219.249077 
L 510.598871 218.183935 
L 511.684043 217.536915 
L 512.769215 217.949677 
L 513.854387 218.764278 
L 514.939559 218.432832 
L 516.024732 218.306853 
L 517.109904 219.417075 
L 518.195076 219.104159 
L 519.280248 219.499701 
L 520.36542 219.271801 
L 521.450592 219.229732 
L 522.535765 219.927748 
L 523.620937 220.054408 
L 524.706109 219.548515 
L 525.791281 219.682287 
L 526.876453 218.562002 
L 527.961625 216.687403 
L 529.046798 216.294633 
L 530.13197 216.133683 
L 531.217142 216.107767 
L 532.302314 214.996633 
L 533.387486 214.362862 
L 534.472658 214.287282 
L 535.557831 215.108979 
L 536.643003 213.905916 
L 539.898519 214.316807 
L 540.983691 214.038476 
L 542.068863 214.258274 
L 543.154036 214.248041 
L 544.239208 213.549386 
L 545.32438 212.528163 
L 546.409552 212.071167 
L 548.579896 211.99054 
L 549.665069 211.676539 
L 550.750241 211.85776 
L 551.835413 211.607373 
L 552.920585 211.176852 
L 554.005757 211.711997 
L 555.090929 212.074637 
L 556.176102 212.557755 
L 559.431618 213.065806 
L 560.51679 212.636652 
L 562.687134 212.262239 
L 563.772307 212.965218 
L 565.942651 213.129612 
L 567.027823 213.017661 
L 568.112995 213.351014 
L 569.198167 213.832332 
L 570.28334 213.103984 
L 571.368512 213.811758 
L 572.453684 214.140044 
L 573.538856 214.297098 
L 575.7092 215.207623 
L 576.794373 215.962078 
L 577.879545 215.86944 
L 578.964717 215.430939 
L 580.049889 215.729525 
L 582.220233 215.71736 
L 583.305405 216.469073 
L 586.560922 216.219363 
L 587.646094 216.135327 
L 588.731266 216.740274 
L 589.816438 216.86399 
L 590.901611 216.559253 
L 591.986783 217.607883 
L 593.071955 218.142126 
L 594.157127 217.338248 
L 595.242299 217.820575 
L 600.66816 215.913115 
L 601.753332 216.108877 
L 602.838504 215.760993 
L 603.923676 216.107208 
L 605.008849 215.564101 
L 606.094021 215.572551 
L 607.179193 215.202183 
L 608.264365 215.14632 
L 609.349537 215.481454 
L 610.434709 215.303271 
L 611.519882 214.799351 
L 612.605054 214.900445 
L 613.690226 214.760463 
L 614.775398 214.883395 
L 615.86057 215.133596 
L 616.945742 213.944294 
L 618.030915 214.263831 
L 619.116087 213.975874 
L 620.201259 214.230296 
L 621.286431 213.875994 
L 622.371603 213.66587 
L 623.456775 214.084679 
L 624.541948 214.031654 
L 626.712292 213.473973 
L 627.797464 214.13593 
L 628.882636 213.787301 
L 631.05298 214.174198 
L 632.138153 213.902699 
L 633.223325 214.319877 
L 635.393669 212.493754 
L 636.478841 212.737123 
L 637.564013 213.266463 
L 638.649186 213.542161 
L 639.734358 213.57048 
L 641.904702 214.179681 
L 642.989874 214.075894 
L 644.075046 213.807317 
L 645.160219 214.418414 
L 646.245391 214.377383 
L 648.415735 214.554732 
L 649.500907 214.393552 
L 650.586079 214.369724 
L 653.841596 214.731431 
L 654.926768 214.600757 
L 656.01194 215.141478 
L 657.097112 214.463415 
L 658.182284 215.56279 
L 659.267457 215.351924 
L 660.352629 214.687264 
L 661.437801 214.898128 
L 663.608145 216.264379 
L 664.693317 216.346461 
L 665.77849 216.124032 
L 666.863662 215.764583 
L 667.948834 216.097377 
L 669.034006 216.20087 
L 670.119178 216.036753 
L 671.20435 215.320423 
L 672.289522 215.425592 
L 673.374695 215.913028 
L 674.459867 215.846422 
L 675.545039 215.922651 
L 677.715383 215.399669 
L 679.885728 216.110637 
L 682.056072 215.753586 
L 683.141244 215.974812 
L 684.226416 215.538117 
L 685.311588 215.740212 
L 687.481933 215.166484 
L 689.652277 215.328538 
L 690.737449 215.119969 
L 691.822621 213.979884 
L 692.907794 214.485946 
L 693.992966 214.584059 
L 697.248482 214.442773 
L 698.333654 213.857316 
L 700.503999 214.461957 
L 701.589171 214.021044 
L 702.674343 214.15777 
L 705.929859 213.725394 
L 707.015032 213.776812 
L 708.100204 214.535502 
L 710.270548 214.204128 
L 713.526065 213.394732 
L 714.611237 213.571325 
L 715.696409 213.984827 
L 718.951925 214.272614 
L 720.037097 214.272274 
L 721.12227 214.821238 
L 722.207442 214.236944 
L 723.292614 213.867059 
L 725.462958 215.011689 
L 726.54813 214.261573 
L 727.633303 214.836083 
L 728.718475 215.128973 
L 729.803647 214.759147 
L 730.888819 214.720539 
L 731.973991 214.934581 
L 733.059163 215.327808 
L 734.144336 214.630089 
L 735.229508 214.654762 
L 736.31468 215.163793 
L 737.399852 215.123973 
L 738.485024 215.609378 
L 739.570196 215.97087 
L 741.740541 215.176541 
L 742.825713 215.697337 
L 744.996057 215.516161 
L 746.081229 215.691674 
L 748.251574 215.666139 
L 749.336746 216.021945 
L 751.50709 215.601976 
L 752.592262 216.114063 
L 753.677434 215.880419 
L 754.762607 215.772111 
L 755.847779 215.872369 
L 756.932951 215.556812 
L 758.018123 215.667166 
L 759.103295 215.478051 
L 761.27364 214.968101 
L 763.443984 215.193469 
L 764.529156 215.110662 
L 766.6995 214.387286 
L 768.869845 214.902707 
L 769.955017 214.702844 
L 771.040189 214.180104 
L 772.125361 214.741764 
L 773.210533 214.673108 
L 774.295705 213.850912 
L 775.380878 213.393633 
L 776.46605 213.861498 
L 777.551222 214.192581 
L 777.551222 214.192581 
" style="fill:none;stroke:#1f77b4;stroke-linecap:square;stroke-width:1.5;"/>
   </g>
   <g id="line2d_34">
    <path clip-path="url(#pcfaa32e6d0)" d="M 108 188.502795 
L 110.170344 169.448555 
L 112.340689 152.965322 
L 113.425861 145.874682 
L 114.511033 139.632745 
L 115.596205 134.288287 
L 116.681377 129.879865 
L 117.766549 126.43561 
L 118.851722 123.973132 
L 119.936894 122.499535 
L 121.022066 122.011538 
L 122.107238 122.495708 
L 123.19241 123.928786 
L 124.277582 126.278114 
L 125.362755 129.502149 
L 126.447927 133.551062 
L 127.533099 138.36741 
L 128.618271 143.886869 
L 130.788615 156.748281 
L 132.95896 171.514555 
L 136.214476 195.749775 
L 140.555165 228.294205 
L 142.725509 243.170103 
L 144.895853 256.335775 
L 147.066198 267.315475 
L 148.15137 271.865896 
L 149.236542 275.740686 
L 150.321714 278.91236 
L 151.406886 281.361235 
L 152.492059 283.075488 
L 153.577231 284.051136 
L 154.662403 284.291924 
L 155.747575 283.809143 
L 156.832747 282.621373 
L 157.917919 280.754154 
L 159.003091 278.239588 
L 160.088264 275.115883 
L 161.173436 271.426848 
L 162.258608 267.221326 
L 164.428952 257.47775 
L 166.599297 246.353026 
L 169.854813 228.190723 
L 174.195502 203.954015 
L 176.365846 192.937382 
L 178.53619 183.230772 
L 179.621362 178.980813 
L 180.706535 175.18311 
L 181.791707 171.86854 
L 182.876879 169.062395 
L 183.962051 166.784221 
L 185.047223 165.047727 
L 186.132395 163.860747 
L 187.217568 163.225275 
L 188.30274 163.13755 
L 189.387912 163.588204 
L 190.473084 164.562464 
L 191.558256 166.040409 
L 192.643428 167.997268 
L 193.728601 170.403773 
L 194.813773 173.226543 
L 196.984117 179.96937 
L 199.154461 187.893272 
L 202.409978 201.181732 
L 207.835839 223.835048 
L 210.006183 231.990816 
L 212.176527 239.144116 
L 213.261699 242.262611 
L 214.346872 245.039184 
L 215.432044 247.451472 
L 216.517216 249.481306 
L 217.602388 251.114822 
L 218.68756 252.342524 
L 219.772732 253.159301 
L 220.857904 253.564397 
L 221.943077 253.561337 
L 223.028249 253.157811 
L 224.113421 252.365515 
L 225.198593 251.199957 
L 226.283765 249.68022 
L 227.368937 247.828701 
L 228.45411 245.670819 
L 230.624454 240.550776 
L 232.794798 234.571115 
L 236.050315 224.599628 
L 241.476176 207.724073 
L 243.64652 201.688355 
L 245.816864 196.419027 
L 247.987208 192.103454 
L 249.072381 190.349416 
L 250.157553 188.882965 
L 251.242725 187.713908 
L 252.327897 186.848779 
L 253.413069 186.290846 
L 254.498241 186.040126 
L 255.583414 186.093455 
L 256.668586 186.444574 
L 257.753758 187.084258 
L 258.83893 188.000462 
L 259.924102 189.178501 
L 261.009274 190.601251 
L 262.094447 192.249374 
L 264.264791 196.134779 
L 266.435135 200.645274 
L 269.690652 208.125235 
L 274.03134 218.292084 
L 276.201685 222.988859 
L 278.372029 227.180506 
L 280.542373 230.714095 
L 281.627545 232.19514 
L 282.712718 233.469337 
L 283.79789 234.52736 
L 284.883062 235.362299 
L 285.968234 235.969684 
L 287.053406 236.347491 
L 288.138578 236.496109 
L 289.22375 236.418299 
L 290.308923 236.119116 
L 291.394095 235.605815 
L 292.479267 234.887732 
L 293.564439 233.976154 
L 294.649611 232.884159 
L 296.819956 230.219178 
L 298.9903 227.026542 
L 302.245816 221.580122 
L 308.756849 210.313074 
L 310.927194 207.010958 
L 313.097538 204.155579 
L 315.267882 201.8473 
L 316.353054 200.922602 
L 317.438227 200.160339 
L 318.523399 199.565364 
L 319.608571 199.140706 
L 320.693743 198.88757 
L 321.778915 198.805362 
L 322.864087 198.891727 
L 323.94926 199.142607 
L 325.034432 199.552316 
L 326.119604 200.113625 
L 327.204776 200.817874 
L 329.37512 202.61407 
L 331.545465 204.847599 
L 333.715809 207.410709 
L 338.056498 213.052344 
L 341.312014 217.259001 
L 343.482358 219.837385 
L 345.652703 222.118486 
L 347.823047 224.019912 
L 349.993391 225.477884 
L 351.078564 226.026227 
L 352.163736 226.449164 
L 353.248908 226.744664 
L 354.33408 226.912055 
L 355.419252 226.952006 
L 356.504424 226.866494 
L 357.589596 226.658759 
L 359.759941 225.895543 
L 361.930285 224.711094 
L 364.100629 223.16959 
L 366.270974 221.34745 
L 369.52649 218.27558 
L 374.952351 213.003673 
L 377.122695 211.094257 
L 379.29304 209.412537 
L 381.463384 208.018942 
L 383.633728 206.959846 
L 385.804073 206.266203 
L 387.974417 205.95284 
L 390.144761 206.018458 
L 392.315106 206.446283 
L 394.48545 207.205322 
L 396.655794 208.252172 
L 398.826139 209.53325 
L 402.081655 211.758806 
L 409.67786 217.202299 
L 411.848204 218.534859 
L 414.018549 219.669803 
L 416.188893 220.567986 
L 418.359237 221.201416 
L 420.529582 221.553986 
L 422.699926 221.621693 
L 424.87027 221.412354 
L 427.040615 220.944843 
L 429.210959 220.247907 
L 431.381303 219.358625 
L 434.63682 217.760663 
L 444.403369 212.617961 
L 447.658886 211.309042 
L 449.82923 210.654319 
L 451.999574 210.198674 
L 454.169919 209.953373 
L 456.340263 209.920644 
L 458.510607 210.093926 
L 460.680952 210.458463 
L 463.936468 211.313947 
L 467.191985 212.45 
L 479.128878 217.051362 
L 482.384395 217.919734 
L 484.554739 218.323178 
L 486.725083 218.572215 
L 488.895428 218.662385 
L 491.065772 218.595899 
L 494.321288 218.22273 
L 497.576805 217.569924 
L 501.917494 216.396054 
L 511.684043 213.544361 
L 514.939559 212.837123 
L 518.195076 212.358304 
L 521.450592 212.138817 
L 524.706109 212.18429 
L 527.961625 212.475954 
L 531.217142 212.973694 
L 535.557831 213.858393 
L 545.32438 215.980971 
L 549.665069 216.636768 
L 552.920585 216.920584 
L 556.176102 217.006851 
L 559.431618 216.898637 
L 563.772307 216.489585 
L 569.198167 215.682267 
L 580.049889 213.962831 
L 584.390578 213.538248 
L 588.731266 213.364526 
L 593.071955 213.451008 
L 597.412644 213.764945 
L 603.923676 214.510653 
L 613.690226 215.651573 
L 619.116087 216.010103 
L 623.456775 216.082294 
L 627.797464 215.964258 
L 633.223325 215.601269 
L 650.586079 214.179441 
L 656.01194 214.051105 
L 661.437801 214.146725 
L 667.948834 214.492611 
L 684.226416 215.479036 
L 690.737449 215.566583 
L 697.248482 215.421441 
L 708.100204 214.888868 
L 717.866753 214.498181 
L 725.462958 214.445644 
L 734.144336 214.655621 
L 753.677434 215.267148 
L 762.358812 215.23333 
L 775.380878 214.892081 
L 777.551222 214.832078 
L 777.551222 214.832078 
" style="fill:none;stroke:#ff0000;stroke-dasharray:1.5,2.475;stroke-dashoffset:0;stroke-width:1.5;"/>
   </g>
   <g id="patch_3">
    <path d="M 108 378 
L 108 51.84 
" style="fill:none;stroke:#000000;stroke-linecap:square;stroke-linejoin:miter;stroke-width:0.8;"/>
   </g>
   <g id="patch_4">
    <path d="M 777.6 378 
L 777.6 51.84 
" style="fill:none;stroke:#000000;stroke-linecap:square;stroke-linejoin:miter;stroke-width:0.8;"/>
   </g>
   <g id="patch_5">
    <path d="M 108 378 
L 777.6 378 
" style="fill:none;stroke:#000000;stroke-linecap:square;stroke-linejoin:miter;stroke-width:0.8;"/>
   </g>
   <g id="patch_6">
    <path d="M 108 51.84 
L 777.6 51.84 
" style="fill:none;stroke:#000000;stroke-linecap:square;stroke-linejoin:miter;stroke-width:0.8;"/>
   </g>
   <g id="text_19">
    <!-- Medição 2 - Direção X -->
    <g transform="translate(344.296406 45.84)scale(0.18 -0.18)">
     <defs>
      <path d="M 9.8125 72.90625 
L 24.515625 72.90625 
L 43.109375 23.296875 
L 61.8125 72.90625 
L 76.515625 72.90625 
L 76.515625 0 
L 66.890625 0 
L 66.890625 64.015625 
L 48.09375 14.015625 
L 38.1875 14.015625 
L 19.390625 64.015625 
L 19.390625 0 
L 9.8125 0 
z
" id="DejaVuSans-77"/>
      <path d="M 45.40625 46.390625 
L 45.40625 75.984375 
L 54.390625 75.984375 
L 54.390625 0 
L 45.40625 0 
L 45.40625 8.203125 
Q 42.578125 3.328125 38.25 0.953125 
Q 33.9375 -1.421875 27.875 -1.421875 
Q 17.96875 -1.421875 11.734375 6.484375 
Q 5.515625 14.40625 5.515625 27.296875 
Q 5.515625 40.1875 11.734375 48.09375 
Q 17.96875 56 27.875 56 
Q 33.9375 56 38.25 53.625 
Q 42.578125 51.265625 45.40625 46.390625 
z
M 14.796875 27.296875 
Q 14.796875 17.390625 18.875 11.75 
Q 22.953125 6.109375 30.078125 6.109375 
Q 37.203125 6.109375 41.296875 11.75 
Q 45.40625 17.390625 45.40625 27.296875 
Q 45.40625 37.203125 41.296875 42.84375 
Q 37.203125 48.484375 30.078125 48.484375 
Q 22.953125 48.484375 18.875 42.84375 
Q 14.796875 37.203125 14.796875 27.296875 
z
" id="DejaVuSans-100"/>
      <path d="M 48.78125 52.59375 
L 48.78125 44.1875 
Q 44.96875 46.296875 41.140625 47.34375 
Q 37.3125 48.390625 33.40625 48.390625 
Q 24.65625 48.390625 19.8125 42.84375 
Q 14.984375 37.3125 14.984375 27.296875 
Q 14.984375 17.28125 19.8125 11.734375 
Q 24.65625 6.203125 33.40625 6.203125 
Q 37.3125 6.203125 41.140625 7.25 
Q 44.96875 8.296875 48.78125 10.40625 
L 48.78125 2.09375 
Q 45.015625 0.34375 40.984375 -0.53125 
Q 36.96875 -1.421875 32.421875 -1.421875 
Q 20.0625 -1.421875 12.78125 6.34375 
Q 5.515625 14.109375 5.515625 27.296875 
Q 5.515625 40.671875 12.859375 48.328125 
Q 20.21875 56 33.015625 56 
Q 37.15625 56 41.109375 55.140625 
Q 45.0625 54.296875 48.78125 52.59375 
z
M 36.078125 0 
Q 38.765625 -3.03125 40.078125 -5.59375 
Q 41.40625 -8.15625 41.40625 -10.5 
Q 41.40625 -14.84375 38.46875 -17.0625 
Q 35.546875 -19.28125 29.78125 -19.28125 
Q 27.546875 -19.28125 25.421875 -18.984375 
Q 23.296875 -18.703125 21.1875 -18.109375 
L 21.1875 -11.71875 
Q 22.859375 -12.546875 24.65625 -12.90625 
Q 26.46875 -13.28125 28.765625 -13.28125 
Q 31.640625 -13.28125 33.109375 -12.109375 
Q 34.578125 -10.9375 34.578125 -8.6875 
Q 34.578125 -7.234375 33.515625 -5.109375 
Q 32.46875 -2.984375 30.28125 0 
z
" id="DejaVuSans-231"/>
      <path d="M 34.28125 27.484375 
Q 23.390625 27.484375 19.1875 25 
Q 14.984375 22.515625 14.984375 16.5 
Q 14.984375 11.71875 18.140625 8.90625 
Q 21.296875 6.109375 26.703125 6.109375 
Q 34.1875 6.109375 38.703125 11.40625 
Q 43.21875 16.703125 43.21875 25.484375 
L 43.21875 27.484375 
z
M 52.203125 31.203125 
L 52.203125 0 
L 43.21875 0 
L 43.21875 8.296875 
Q 40.140625 3.328125 35.546875 0.953125 
Q 30.953125 -1.421875 24.3125 -1.421875 
Q 15.921875 -1.421875 10.953125 3.296875 
Q 6 8.015625 6 15.921875 
Q 6 25.140625 12.171875 29.828125 
Q 18.359375 34.515625 30.609375 34.515625 
L 43.21875 34.515625 
L 43.21875 35.40625 
Q 43.21875 41.609375 39.140625 45 
Q 35.0625 48.390625 27.6875 48.390625 
Q 23 48.390625 18.546875 47.265625 
Q 14.109375 46.140625 10.015625 43.890625 
L 10.015625 52.203125 
Q 14.9375 54.109375 19.578125 55.046875 
Q 24.21875 56 28.609375 56 
Q 40.484375 56 46.34375 49.84375 
Q 52.203125 43.703125 52.203125 31.203125 
z
M 28.8125 66.890625 
L 26.03125 69.578125 
Q 24.953125 70.5625 24.140625 71.015625 
Q 23.34375 71.484375 22.703125 71.484375 
Q 20.84375 71.484375 19.96875 69.703125 
Q 19.09375 67.921875 19 63.921875 
L 12.890625 63.921875 
Q 12.984375 70.515625 15.46875 74.09375 
Q 17.96875 77.6875 22.40625 77.6875 
Q 24.265625 77.6875 25.828125 77 
Q 27.390625 76.3125 29.203125 74.703125 
L 31.984375 72.015625 
Q 33.0625 71.046875 33.859375 70.578125 
Q 34.671875 70.125 35.296875 70.125 
Q 37.15625 70.125 38.03125 71.90625 
Q 38.921875 73.6875 39.015625 77.6875 
L 45.125 77.6875 
Q 45.015625 71.09375 42.53125 67.5 
Q 40.046875 63.921875 35.59375 63.921875 
Q 33.734375 63.921875 32.171875 64.59375 
Q 30.609375 65.28125 28.8125 66.890625 
z
" id="DejaVuSans-227"/>
      <path d="M 30.609375 48.390625 
Q 23.390625 48.390625 19.1875 42.75 
Q 14.984375 37.109375 14.984375 27.296875 
Q 14.984375 17.484375 19.15625 11.84375 
Q 23.34375 6.203125 30.609375 6.203125 
Q 37.796875 6.203125 41.984375 11.859375 
Q 46.1875 17.53125 46.1875 27.296875 
Q 46.1875 37.015625 41.984375 42.703125 
Q 37.796875 48.390625 30.609375 48.390625 
z
M 30.609375 56 
Q 42.328125 56 49.015625 48.375 
Q 55.71875 40.765625 55.71875 27.296875 
Q 55.71875 13.875 49.015625 6.21875 
Q 42.328125 -1.421875 30.609375 -1.421875 
Q 18.84375 -1.421875 12.171875 6.21875 
Q 5.515625 13.875 5.515625 27.296875 
Q 5.515625 40.765625 12.171875 48.375 
Q 18.84375 56 30.609375 56 
z
" id="DejaVuSans-111"/>
      <path d="M 4.890625 31.390625 
L 31.203125 31.390625 
L 31.203125 23.390625 
L 4.890625 23.390625 
z
" id="DejaVuSans-45"/>
      <path d="M 19.671875 64.796875 
L 19.671875 8.109375 
L 31.59375 8.109375 
Q 46.6875 8.109375 53.6875 14.9375 
Q 60.6875 21.78125 60.6875 36.53125 
Q 60.6875 51.171875 53.6875 57.984375 
Q 46.6875 64.796875 31.59375 64.796875 
z
M 9.8125 72.90625 
L 30.078125 72.90625 
Q 51.265625 72.90625 61.171875 64.09375 
Q 71.09375 55.28125 71.09375 36.53125 
Q 71.09375 17.671875 61.125 8.828125 
Q 51.171875 0 30.078125 0 
L 9.8125 0 
z
" id="DejaVuSans-68"/>
      <path d="M 41.109375 46.296875 
Q 39.59375 47.171875 37.8125 47.578125 
Q 36.03125 48 33.890625 48 
Q 26.265625 48 22.1875 43.046875 
Q 18.109375 38.09375 18.109375 28.8125 
L 18.109375 0 
L 9.078125 0 
L 9.078125 54.6875 
L 18.109375 54.6875 
L 18.109375 46.1875 
Q 20.953125 51.171875 25.484375 53.578125 
Q 30.03125 56 36.53125 56 
Q 37.453125 56 38.578125 55.875 
Q 39.703125 55.765625 41.0625 55.515625 
z
" id="DejaVuSans-114"/>
      <path d="M 6.296875 72.90625 
L 16.890625 72.90625 
L 35.015625 45.796875 
L 53.21875 72.90625 
L 63.8125 72.90625 
L 40.375 37.890625 
L 65.375 0 
L 54.78125 0 
L 34.28125 31 
L 13.625 0 
L 2.984375 0 
L 29 38.921875 
z
" id="DejaVuSans-88"/>
     </defs>
     <use xlink:href="#DejaVuSans-77"/>
     <use x="86.279297" xlink:href="#DejaVuSans-101"/>
     <use x="147.802734" xlink:href="#DejaVuSans-100"/>
     <use x="211.279297" xlink:href="#DejaVuSans-105"/>
     <use x="239.0625" xlink:href="#DejaVuSans-231"/>
     <use x="294.042969" xlink:href="#DejaVuSans-227"/>
     <use x="355.322266" xlink:href="#DejaVuSans-111"/>
     <use x="416.503906" xlink:href="#DejaVuSans-32"/>
     <use x="448.291016" xlink:href="#DejaVuSans-50"/>
     <use x="511.914062" xlink:href="#DejaVuSans-32"/>
     <use x="543.701172" xlink:href="#DejaVuSans-45"/>
     <use x="579.785156" xlink:href="#DejaVuSans-32"/>
     <use x="611.572266" xlink:href="#DejaVuSans-68"/>
     <use x="688.574219" xlink:href="#DejaVuSans-105"/>
     <use x="716.357422" xlink:href="#DejaVuSans-114"/>
     <use x="755.220703" xlink:href="#DejaVuSans-101"/>
     <use x="816.744141" xlink:href="#DejaVuSans-231"/>
     <use x="871.724609" xlink:href="#DejaVuSans-227"/>
     <use x="933.003906" xlink:href="#DejaVuSans-111"/>
     <use x="994.185547" xlink:href="#DejaVuSans-32"/>
     <use x="1025.972656" xlink:href="#DejaVuSans-88"/>
    </g>
   </g>
   <g id="legend_1">
    <g id="patch_7">
     <path d="M 701.221875 89.19625 
L 770.6 89.19625 
Q 772.6 89.19625 772.6 87.19625 
L 772.6 58.84 
Q 772.6 56.84 770.6 56.84 
L 701.221875 56.84 
Q 699.221875 56.84 699.221875 58.84 
L 699.221875 87.19625 
Q 699.221875 89.19625 701.221875 89.19625 
z
" style="fill:#ffffff;opacity:0.8;stroke:#cccccc;stroke-linejoin:miter;"/>
    </g>
    <g id="line2d_35">
     <path d="M 703.221875 64.938437 
L 723.221875 64.938437 
" style="fill:none;stroke:#1f77b4;stroke-linecap:square;stroke-width:1.5;"/>
    </g>
    <g id="line2d_36"/>
    <g id="text_20">
     <!-- original -->
     <g transform="translate(731.221875 68.438437)scale(0.1 -0.1)">
      <defs>
       <path d="M 45.40625 27.984375 
Q 45.40625 37.75 41.375 43.109375 
Q 37.359375 48.484375 30.078125 48.484375 
Q 22.859375 48.484375 18.828125 43.109375 
Q 14.796875 37.75 14.796875 27.984375 
Q 14.796875 18.265625 18.828125 12.890625 
Q 22.859375 7.515625 30.078125 7.515625 
Q 37.359375 7.515625 41.375 12.890625 
Q 45.40625 18.265625 45.40625 27.984375 
z
M 54.390625 6.78125 
Q 54.390625 -7.171875 48.1875 -13.984375 
Q 42 -20.796875 29.203125 -20.796875 
Q 24.46875 -20.796875 20.265625 -20.09375 
Q 16.0625 -19.390625 12.109375 -17.921875 
L 12.109375 -9.1875 
Q 16.0625 -11.328125 19.921875 -12.34375 
Q 23.78125 -13.375 27.78125 -13.375 
Q 36.625 -13.375 41.015625 -8.765625 
Q 45.40625 -4.15625 45.40625 5.171875 
L 45.40625 9.625 
Q 42.625 4.78125 38.28125 2.390625 
Q 33.9375 0 27.875 0 
Q 17.828125 0 11.671875 7.65625 
Q 5.515625 15.328125 5.515625 27.984375 
Q 5.515625 40.671875 11.671875 48.328125 
Q 17.828125 56 27.875 56 
Q 33.9375 56 38.28125 53.609375 
Q 42.625 51.21875 45.40625 46.390625 
L 45.40625 54.6875 
L 54.390625 54.6875 
z
" id="DejaVuSans-103"/>
       <path d="M 54.890625 33.015625 
L 54.890625 0 
L 45.90625 0 
L 45.90625 32.71875 
Q 45.90625 40.484375 42.875 44.328125 
Q 39.84375 48.1875 33.796875 48.1875 
Q 26.515625 48.1875 22.3125 43.546875 
Q 18.109375 38.921875 18.109375 30.90625 
L 18.109375 0 
L 9.078125 0 
L 9.078125 54.6875 
L 18.109375 54.6875 
L 18.109375 46.1875 
Q 21.34375 51.125 25.703125 53.5625 
Q 30.078125 56 35.796875 56 
Q 45.21875 56 50.046875 50.171875 
Q 54.890625 44.34375 54.890625 33.015625 
z
" id="DejaVuSans-110"/>
       <path d="M 9.421875 75.984375 
L 18.40625 75.984375 
L 18.40625 0 
L 9.421875 0 
z
" id="DejaVuSans-108"/>
      </defs>
      <use xlink:href="#DejaVuSans-111"/>
      <use x="61.181641" xlink:href="#DejaVuSans-114"/>
      <use x="102.294922" xlink:href="#DejaVuSans-105"/>
      <use x="130.078125" xlink:href="#DejaVuSans-103"/>
      <use x="193.554688" xlink:href="#DejaVuSans-105"/>
      <use x="221.337891" xlink:href="#DejaVuSans-110"/>
      <use x="284.716797" xlink:href="#DejaVuSans-97"/>
      <use x="345.996094" xlink:href="#DejaVuSans-108"/>
     </g>
    </g>
    <g id="line2d_37">
     <path d="M 703.221875 79.616562 
L 723.221875 79.616562 
" style="fill:none;stroke:#ff0000;stroke-dasharray:1.5,2.475;stroke-dashoffset:0;stroke-width:1.5;"/>
    </g>
    <g id="line2d_38"/>
    <g id="text_21">
     <!-- fitted -->
     <g transform="translate(731.221875 83.116562)scale(0.1 -0.1)">
      <defs>
       <path d="M 37.109375 75.984375 
L 37.109375 68.5 
L 28.515625 68.5 
Q 23.6875 68.5 21.796875 66.546875 
Q 19.921875 64.59375 19.921875 59.515625 
L 19.921875 54.6875 
L 34.71875 54.6875 
L 34.71875 47.703125 
L 19.921875 47.703125 
L 19.921875 0 
L 10.890625 0 
L 10.890625 47.703125 
L 2.296875 47.703125 
L 2.296875 54.6875 
L 10.890625 54.6875 
L 10.890625 58.5 
Q 10.890625 67.625 15.140625 71.796875 
Q 19.390625 75.984375 28.609375 75.984375 
z
" id="DejaVuSans-102"/>
      </defs>
      <use xlink:href="#DejaVuSans-102"/>
      <use x="35.205078" xlink:href="#DejaVuSans-105"/>
      <use x="62.988281" xlink:href="#DejaVuSans-116"/>
      <use x="102.197266" xlink:href="#DejaVuSans-116"/>
      <use x="141.40625" xlink:href="#DejaVuSans-101"/>
      <use x="202.929688" xlink:href="#DejaVuSans-100"/>
     </g>
    </g>
   </g>
  </g>
 </g>
 <defs>
  <clipPath id="pcfaa32e6d0">
   <rect height="326.16" width="669.6" x="108" y="51.84"/>
  </clipPath>
 </defs>
</svg>
