<?xml version="1.0" encoding="utf-8" standalone="no"?>
<!DOCTYPE svg PUBLIC "-//W3C//DTD SVG 1.1//EN"
  "http://www.w3.org/Graphics/SVG/1.1/DTD/svg11.dtd">
<!-- Created with matplotlib (https://matplotlib.org/) -->
<svg height="432pt" version="1.1" viewBox="0 0 864 432" width="864pt" xmlns="http://www.w3.org/2000/svg" xmlns:xlink="http://www.w3.org/1999/xlink">
 <metadata>
  <rdf:RDF xmlns:cc="http://creativecommons.org/ns#" xmlns:dc="http://purl.org/dc/elements/1.1/" xmlns:rdf="http://www.w3.org/1999/02/22-rdf-syntax-ns#">
   <cc:Work>
    <dc:type rdf:resource="http://purl.org/dc/dcmitype/StillImage"/>
    <dc:date>2021-11-25T23:19:49.870804</dc:date>
    <dc:format>image/svg+xml</dc:format>
    <dc:creator>
     <cc:Agent>
      <dc:title>Matplotlib v3.3.2, https://matplotlib.org/</dc:title>
     </cc:Agent>
    </dc:creator>
   </cc:Work>
  </rdf:RDF>
 </metadata>
 <defs>
  <style type="text/css">*{stroke-linecap:butt;stroke-linejoin:round;}</style>
 </defs>
 <g id="figure_1">
  <g id="patch_1">
   <path d="M 0 432 
L 864 432 
L 864 0 
L 0 0 
z
" style="fill:none;"/>
  </g>
  <g id="axes_1">
   <g id="patch_2">
    <path d="M 108 378 
L 777.6 378 
L 777.6 51.84 
L 108 51.84 
z
" style="fill:#ffffff;"/>
   </g>
   <g id="matplotlib.axis_1">
    <g id="xtick_1">
     <g id="line2d_1">
      <path clip-path="url(#p789854ca48)" d="M 108 378 
L 108 51.84 
" style="fill:none;stroke:#b0b0b0;stroke-linecap:square;stroke-width:0.8;"/>
     </g>
     <g id="line2d_2">
      <defs>
       <path d="M 0 0 
L 0 3.5 
" id="mef9966f725" style="stroke:#000000;stroke-width:0.8;"/>
      </defs>
      <g>
       <use style="stroke:#000000;stroke-width:0.8;" x="108" xlink:href="#mef9966f725" y="378"/>
      </g>
     </g>
     <g id="text_1">
      <!-- 0.0 -->
      <g transform="translate(100.048438 392.598437)scale(0.1 -0.1)">
       <defs>
        <path d="M 31.78125 66.40625 
Q 24.171875 66.40625 20.328125 58.90625 
Q 16.5 51.421875 16.5 36.375 
Q 16.5 21.390625 20.328125 13.890625 
Q 24.171875 6.390625 31.78125 6.390625 
Q 39.453125 6.390625 43.28125 13.890625 
Q 47.125 21.390625 47.125 36.375 
Q 47.125 51.421875 43.28125 58.90625 
Q 39.453125 66.40625 31.78125 66.40625 
z
M 31.78125 74.21875 
Q 44.046875 74.21875 50.515625 64.515625 
Q 56.984375 54.828125 56.984375 36.375 
Q 56.984375 17.96875 50.515625 8.265625 
Q 44.046875 -1.421875 31.78125 -1.421875 
Q 19.53125 -1.421875 13.0625 8.265625 
Q 6.59375 17.96875 6.59375 36.375 
Q 6.59375 54.828125 13.0625 64.515625 
Q 19.53125 74.21875 31.78125 74.21875 
z
" id="DejaVuSans-48"/>
        <path d="M 10.6875 12.40625 
L 21 12.40625 
L 21 0 
L 10.6875 0 
z
" id="DejaVuSans-46"/>
       </defs>
       <use xlink:href="#DejaVuSans-48"/>
       <use x="63.623047" xlink:href="#DejaVuSans-46"/>
       <use x="95.410156" xlink:href="#DejaVuSans-48"/>
      </g>
     </g>
    </g>
    <g id="xtick_2">
     <g id="line2d_3">
      <path clip-path="url(#p789854ca48)" d="M 215.73934 378 
L 215.73934 51.84 
" style="fill:none;stroke:#b0b0b0;stroke-linecap:square;stroke-width:0.8;"/>
     </g>
     <g id="line2d_4">
      <g>
       <use style="stroke:#000000;stroke-width:0.8;" x="215.73934" xlink:href="#mef9966f725" y="378"/>
      </g>
     </g>
     <g id="text_2">
      <!-- 0.2 -->
      <g transform="translate(207.787778 392.598437)scale(0.1 -0.1)">
       <defs>
        <path d="M 19.1875 8.296875 
L 53.609375 8.296875 
L 53.609375 0 
L 7.328125 0 
L 7.328125 8.296875 
Q 12.9375 14.109375 22.625 23.890625 
Q 32.328125 33.6875 34.8125 36.53125 
Q 39.546875 41.84375 41.421875 45.53125 
Q 43.3125 49.21875 43.3125 52.78125 
Q 43.3125 58.59375 39.234375 62.25 
Q 35.15625 65.921875 28.609375 65.921875 
Q 23.96875 65.921875 18.8125 64.3125 
Q 13.671875 62.703125 7.8125 59.421875 
L 7.8125 69.390625 
Q 13.765625 71.78125 18.9375 73 
Q 24.125 74.21875 28.421875 74.21875 
Q 39.75 74.21875 46.484375 68.546875 
Q 53.21875 62.890625 53.21875 53.421875 
Q 53.21875 48.921875 51.53125 44.890625 
Q 49.859375 40.875 45.40625 35.40625 
Q 44.1875 33.984375 37.640625 27.21875 
Q 31.109375 20.453125 19.1875 8.296875 
z
" id="DejaVuSans-50"/>
       </defs>
       <use xlink:href="#DejaVuSans-48"/>
       <use x="63.623047" xlink:href="#DejaVuSans-46"/>
       <use x="95.410156" xlink:href="#DejaVuSans-50"/>
      </g>
     </g>
    </g>
    <g id="xtick_3">
     <g id="line2d_5">
      <path clip-path="url(#p789854ca48)" d="M 323.478681 378 
L 323.478681 51.84 
" style="fill:none;stroke:#b0b0b0;stroke-linecap:square;stroke-width:0.8;"/>
     </g>
     <g id="line2d_6">
      <g>
       <use style="stroke:#000000;stroke-width:0.8;" x="323.478681" xlink:href="#mef9966f725" y="378"/>
      </g>
     </g>
     <g id="text_3">
      <!-- 0.4 -->
      <g transform="translate(315.527118 392.598437)scale(0.1 -0.1)">
       <defs>
        <path d="M 37.796875 64.3125 
L 12.890625 25.390625 
L 37.796875 25.390625 
z
M 35.203125 72.90625 
L 47.609375 72.90625 
L 47.609375 25.390625 
L 58.015625 25.390625 
L 58.015625 17.1875 
L 47.609375 17.1875 
L 47.609375 0 
L 37.796875 0 
L 37.796875 17.1875 
L 4.890625 17.1875 
L 4.890625 26.703125 
z
" id="DejaVuSans-52"/>
       </defs>
       <use xlink:href="#DejaVuSans-48"/>
       <use x="63.623047" xlink:href="#DejaVuSans-46"/>
       <use x="95.410156" xlink:href="#DejaVuSans-52"/>
      </g>
     </g>
    </g>
    <g id="xtick_4">
     <g id="line2d_7">
      <path clip-path="url(#p789854ca48)" d="M 431.218021 378 
L 431.218021 51.84 
" style="fill:none;stroke:#b0b0b0;stroke-linecap:square;stroke-width:0.8;"/>
     </g>
     <g id="line2d_8">
      <g>
       <use style="stroke:#000000;stroke-width:0.8;" x="431.218021" xlink:href="#mef9966f725" y="378"/>
      </g>
     </g>
     <g id="text_4">
      <!-- 0.6 -->
      <g transform="translate(423.266458 392.598437)scale(0.1 -0.1)">
       <defs>
        <path d="M 33.015625 40.375 
Q 26.375 40.375 22.484375 35.828125 
Q 18.609375 31.296875 18.609375 23.390625 
Q 18.609375 15.53125 22.484375 10.953125 
Q 26.375 6.390625 33.015625 6.390625 
Q 39.65625 6.390625 43.53125 10.953125 
Q 47.40625 15.53125 47.40625 23.390625 
Q 47.40625 31.296875 43.53125 35.828125 
Q 39.65625 40.375 33.015625 40.375 
z
M 52.59375 71.296875 
L 52.59375 62.3125 
Q 48.875 64.0625 45.09375 64.984375 
Q 41.3125 65.921875 37.59375 65.921875 
Q 27.828125 65.921875 22.671875 59.328125 
Q 17.53125 52.734375 16.796875 39.40625 
Q 19.671875 43.65625 24.015625 45.921875 
Q 28.375 48.1875 33.59375 48.1875 
Q 44.578125 48.1875 50.953125 41.515625 
Q 57.328125 34.859375 57.328125 23.390625 
Q 57.328125 12.15625 50.6875 5.359375 
Q 44.046875 -1.421875 33.015625 -1.421875 
Q 20.359375 -1.421875 13.671875 8.265625 
Q 6.984375 17.96875 6.984375 36.375 
Q 6.984375 53.65625 15.1875 63.9375 
Q 23.390625 74.21875 37.203125 74.21875 
Q 40.921875 74.21875 44.703125 73.484375 
Q 48.484375 72.75 52.59375 71.296875 
z
" id="DejaVuSans-54"/>
       </defs>
       <use xlink:href="#DejaVuSans-48"/>
       <use x="63.623047" xlink:href="#DejaVuSans-46"/>
       <use x="95.410156" xlink:href="#DejaVuSans-54"/>
      </g>
     </g>
    </g>
    <g id="xtick_5">
     <g id="line2d_9">
      <path clip-path="url(#p789854ca48)" d="M 538.957361 378 
L 538.957361 51.84 
" style="fill:none;stroke:#b0b0b0;stroke-linecap:square;stroke-width:0.8;"/>
     </g>
     <g id="line2d_10">
      <g>
       <use style="stroke:#000000;stroke-width:0.8;" x="538.957361" xlink:href="#mef9966f725" y="378"/>
      </g>
     </g>
     <g id="text_5">
      <!-- 0.8 -->
      <g transform="translate(531.005799 392.598437)scale(0.1 -0.1)">
       <defs>
        <path d="M 31.78125 34.625 
Q 24.75 34.625 20.71875 30.859375 
Q 16.703125 27.09375 16.703125 20.515625 
Q 16.703125 13.921875 20.71875 10.15625 
Q 24.75 6.390625 31.78125 6.390625 
Q 38.8125 6.390625 42.859375 10.171875 
Q 46.921875 13.96875 46.921875 20.515625 
Q 46.921875 27.09375 42.890625 30.859375 
Q 38.875 34.625 31.78125 34.625 
z
M 21.921875 38.8125 
Q 15.578125 40.375 12.03125 44.71875 
Q 8.5 49.078125 8.5 55.328125 
Q 8.5 64.0625 14.71875 69.140625 
Q 20.953125 74.21875 31.78125 74.21875 
Q 42.671875 74.21875 48.875 69.140625 
Q 55.078125 64.0625 55.078125 55.328125 
Q 55.078125 49.078125 51.53125 44.71875 
Q 48 40.375 41.703125 38.8125 
Q 48.828125 37.15625 52.796875 32.3125 
Q 56.78125 27.484375 56.78125 20.515625 
Q 56.78125 9.90625 50.3125 4.234375 
Q 43.84375 -1.421875 31.78125 -1.421875 
Q 19.734375 -1.421875 13.25 4.234375 
Q 6.78125 9.90625 6.78125 20.515625 
Q 6.78125 27.484375 10.78125 32.3125 
Q 14.796875 37.15625 21.921875 38.8125 
z
M 18.3125 54.390625 
Q 18.3125 48.734375 21.84375 45.5625 
Q 25.390625 42.390625 31.78125 42.390625 
Q 38.140625 42.390625 41.71875 45.5625 
Q 45.3125 48.734375 45.3125 54.390625 
Q 45.3125 60.0625 41.71875 63.234375 
Q 38.140625 66.40625 31.78125 66.40625 
Q 25.390625 66.40625 21.84375 63.234375 
Q 18.3125 60.0625 18.3125 54.390625 
z
" id="DejaVuSans-56"/>
       </defs>
       <use xlink:href="#DejaVuSans-48"/>
       <use x="63.623047" xlink:href="#DejaVuSans-46"/>
       <use x="95.410156" xlink:href="#DejaVuSans-56"/>
      </g>
     </g>
    </g>
    <g id="xtick_6">
     <g id="line2d_11">
      <path clip-path="url(#p789854ca48)" d="M 646.696702 378 
L 646.696702 51.84 
" style="fill:none;stroke:#b0b0b0;stroke-linecap:square;stroke-width:0.8;"/>
     </g>
     <g id="line2d_12">
      <g>
       <use style="stroke:#000000;stroke-width:0.8;" x="646.696702" xlink:href="#mef9966f725" y="378"/>
      </g>
     </g>
     <g id="text_6">
      <!-- 1.0 -->
      <g transform="translate(638.745139 392.598437)scale(0.1 -0.1)">
       <defs>
        <path d="M 12.40625 8.296875 
L 28.515625 8.296875 
L 28.515625 63.921875 
L 10.984375 60.40625 
L 10.984375 69.390625 
L 28.421875 72.90625 
L 38.28125 72.90625 
L 38.28125 8.296875 
L 54.390625 8.296875 
L 54.390625 0 
L 12.40625 0 
z
" id="DejaVuSans-49"/>
       </defs>
       <use xlink:href="#DejaVuSans-49"/>
       <use x="63.623047" xlink:href="#DejaVuSans-46"/>
       <use x="95.410156" xlink:href="#DejaVuSans-48"/>
      </g>
     </g>
    </g>
    <g id="xtick_7">
     <g id="line2d_13">
      <path clip-path="url(#p789854ca48)" d="M 754.436042 378 
L 754.436042 51.84 
" style="fill:none;stroke:#b0b0b0;stroke-linecap:square;stroke-width:0.8;"/>
     </g>
     <g id="line2d_14">
      <g>
       <use style="stroke:#000000;stroke-width:0.8;" x="754.436042" xlink:href="#mef9966f725" y="378"/>
      </g>
     </g>
     <g id="text_7">
      <!-- 1.2 -->
      <g transform="translate(746.484479 392.598437)scale(0.1 -0.1)">
       <use xlink:href="#DejaVuSans-49"/>
       <use x="63.623047" xlink:href="#DejaVuSans-46"/>
       <use x="95.410156" xlink:href="#DejaVuSans-50"/>
      </g>
     </g>
    </g>
    <g id="text_8">
     <!-- time (s) -->
     <g transform="translate(423.408594 406.276563)scale(0.1 -0.1)">
      <defs>
       <path d="M 18.3125 70.21875 
L 18.3125 54.6875 
L 36.8125 54.6875 
L 36.8125 47.703125 
L 18.3125 47.703125 
L 18.3125 18.015625 
Q 18.3125 11.328125 20.140625 9.421875 
Q 21.96875 7.515625 27.59375 7.515625 
L 36.8125 7.515625 
L 36.8125 0 
L 27.59375 0 
Q 17.1875 0 13.234375 3.875 
Q 9.28125 7.765625 9.28125 18.015625 
L 9.28125 47.703125 
L 2.6875 47.703125 
L 2.6875 54.6875 
L 9.28125 54.6875 
L 9.28125 70.21875 
z
" id="DejaVuSans-116"/>
       <path d="M 9.421875 54.6875 
L 18.40625 54.6875 
L 18.40625 0 
L 9.421875 0 
z
M 9.421875 75.984375 
L 18.40625 75.984375 
L 18.40625 64.59375 
L 9.421875 64.59375 
z
" id="DejaVuSans-105"/>
       <path d="M 52 44.1875 
Q 55.375 50.25 60.0625 53.125 
Q 64.75 56 71.09375 56 
Q 79.640625 56 84.28125 50.015625 
Q 88.921875 44.046875 88.921875 33.015625 
L 88.921875 0 
L 79.890625 0 
L 79.890625 32.71875 
Q 79.890625 40.578125 77.09375 44.375 
Q 74.3125 48.1875 68.609375 48.1875 
Q 61.625 48.1875 57.5625 43.546875 
Q 53.515625 38.921875 53.515625 30.90625 
L 53.515625 0 
L 44.484375 0 
L 44.484375 32.71875 
Q 44.484375 40.625 41.703125 44.40625 
Q 38.921875 48.1875 33.109375 48.1875 
Q 26.21875 48.1875 22.15625 43.53125 
Q 18.109375 38.875 18.109375 30.90625 
L 18.109375 0 
L 9.078125 0 
L 9.078125 54.6875 
L 18.109375 54.6875 
L 18.109375 46.1875 
Q 21.1875 51.21875 25.484375 53.609375 
Q 29.78125 56 35.6875 56 
Q 41.65625 56 45.828125 52.96875 
Q 50 49.953125 52 44.1875 
z
" id="DejaVuSans-109"/>
       <path d="M 56.203125 29.59375 
L 56.203125 25.203125 
L 14.890625 25.203125 
Q 15.484375 15.921875 20.484375 11.0625 
Q 25.484375 6.203125 34.421875 6.203125 
Q 39.59375 6.203125 44.453125 7.46875 
Q 49.3125 8.734375 54.109375 11.28125 
L 54.109375 2.78125 
Q 49.265625 0.734375 44.1875 -0.34375 
Q 39.109375 -1.421875 33.890625 -1.421875 
Q 20.796875 -1.421875 13.15625 6.1875 
Q 5.515625 13.8125 5.515625 26.8125 
Q 5.515625 40.234375 12.765625 48.109375 
Q 20.015625 56 32.328125 56 
Q 43.359375 56 49.78125 48.890625 
Q 56.203125 41.796875 56.203125 29.59375 
z
M 47.21875 32.234375 
Q 47.125 39.59375 43.09375 43.984375 
Q 39.0625 48.390625 32.421875 48.390625 
Q 24.90625 48.390625 20.390625 44.140625 
Q 15.875 39.890625 15.1875 32.171875 
z
" id="DejaVuSans-101"/>
       <path id="DejaVuSans-32"/>
       <path d="M 31 75.875 
Q 24.46875 64.65625 21.28125 53.65625 
Q 18.109375 42.671875 18.109375 31.390625 
Q 18.109375 20.125 21.3125 9.0625 
Q 24.515625 -2 31 -13.1875 
L 23.1875 -13.1875 
Q 15.875 -1.703125 12.234375 9.375 
Q 8.59375 20.453125 8.59375 31.390625 
Q 8.59375 42.28125 12.203125 53.3125 
Q 15.828125 64.359375 23.1875 75.875 
z
" id="DejaVuSans-40"/>
       <path d="M 44.28125 53.078125 
L 44.28125 44.578125 
Q 40.484375 46.53125 36.375 47.5 
Q 32.28125 48.484375 27.875 48.484375 
Q 21.1875 48.484375 17.84375 46.4375 
Q 14.5 44.390625 14.5 40.28125 
Q 14.5 37.15625 16.890625 35.375 
Q 19.28125 33.59375 26.515625 31.984375 
L 29.59375 31.296875 
Q 39.15625 29.25 43.1875 25.515625 
Q 47.21875 21.78125 47.21875 15.09375 
Q 47.21875 7.46875 41.1875 3.015625 
Q 35.15625 -1.421875 24.609375 -1.421875 
Q 20.21875 -1.421875 15.453125 -0.5625 
Q 10.6875 0.296875 5.421875 2 
L 5.421875 11.28125 
Q 10.40625 8.6875 15.234375 7.390625 
Q 20.0625 6.109375 24.8125 6.109375 
Q 31.15625 6.109375 34.5625 8.28125 
Q 37.984375 10.453125 37.984375 14.40625 
Q 37.984375 18.0625 35.515625 20.015625 
Q 33.0625 21.96875 24.703125 23.78125 
L 21.578125 24.515625 
Q 13.234375 26.265625 9.515625 29.90625 
Q 5.8125 33.546875 5.8125 39.890625 
Q 5.8125 47.609375 11.28125 51.796875 
Q 16.75 56 26.8125 56 
Q 31.78125 56 36.171875 55.265625 
Q 40.578125 54.546875 44.28125 53.078125 
z
" id="DejaVuSans-115"/>
       <path d="M 8.015625 75.875 
L 15.828125 75.875 
Q 23.140625 64.359375 26.78125 53.3125 
Q 30.421875 42.28125 30.421875 31.390625 
Q 30.421875 20.453125 26.78125 9.375 
Q 23.140625 -1.703125 15.828125 -13.1875 
L 8.015625 -13.1875 
Q 14.5 -2 17.703125 9.0625 
Q 20.90625 20.125 20.90625 31.390625 
Q 20.90625 42.671875 17.703125 53.65625 
Q 14.5 64.65625 8.015625 75.875 
z
" id="DejaVuSans-41"/>
      </defs>
      <use xlink:href="#DejaVuSans-116"/>
      <use x="39.208984" xlink:href="#DejaVuSans-105"/>
      <use x="66.992188" xlink:href="#DejaVuSans-109"/>
      <use x="164.404297" xlink:href="#DejaVuSans-101"/>
      <use x="225.927734" xlink:href="#DejaVuSans-32"/>
      <use x="257.714844" xlink:href="#DejaVuSans-40"/>
      <use x="296.728516" xlink:href="#DejaVuSans-115"/>
      <use x="348.828125" xlink:href="#DejaVuSans-41"/>
     </g>
    </g>
   </g>
   <g id="matplotlib.axis_2">
    <g id="ytick_1">
     <g id="line2d_15">
      <path clip-path="url(#p789854ca48)" d="M 108 378 
L 777.6 378 
" style="fill:none;stroke:#b0b0b0;stroke-linecap:square;stroke-width:0.8;"/>
     </g>
     <g id="line2d_16">
      <defs>
       <path d="M 0 0 
L -3.5 0 
" id="md896294104" style="stroke:#000000;stroke-width:0.8;"/>
      </defs>
      <g>
       <use style="stroke:#000000;stroke-width:0.8;" x="108" xlink:href="#md896294104" y="378"/>
      </g>
     </g>
     <g id="text_9">
      <!-- −15 -->
      <g transform="translate(79.895313 381.799219)scale(0.1 -0.1)">
       <defs>
        <path d="M 10.59375 35.5 
L 73.1875 35.5 
L 73.1875 27.203125 
L 10.59375 27.203125 
z
" id="DejaVuSans-8722"/>
        <path d="M 10.796875 72.90625 
L 49.515625 72.90625 
L 49.515625 64.59375 
L 19.828125 64.59375 
L 19.828125 46.734375 
Q 21.96875 47.46875 24.109375 47.828125 
Q 26.265625 48.1875 28.421875 48.1875 
Q 40.625 48.1875 47.75 41.5 
Q 54.890625 34.8125 54.890625 23.390625 
Q 54.890625 11.625 47.5625 5.09375 
Q 40.234375 -1.421875 26.90625 -1.421875 
Q 22.3125 -1.421875 17.546875 -0.640625 
Q 12.796875 0.140625 7.71875 1.703125 
L 7.71875 11.625 
Q 12.109375 9.234375 16.796875 8.0625 
Q 21.484375 6.890625 26.703125 6.890625 
Q 35.15625 6.890625 40.078125 11.328125 
Q 45.015625 15.765625 45.015625 23.390625 
Q 45.015625 31 40.078125 35.4375 
Q 35.15625 39.890625 26.703125 39.890625 
Q 22.75 39.890625 18.8125 39.015625 
Q 14.890625 38.140625 10.796875 36.28125 
z
" id="DejaVuSans-53"/>
       </defs>
       <use xlink:href="#DejaVuSans-8722"/>
       <use x="83.789062" xlink:href="#DejaVuSans-49"/>
       <use x="147.412109" xlink:href="#DejaVuSans-53"/>
      </g>
     </g>
    </g>
    <g id="ytick_2">
     <g id="line2d_17">
      <path clip-path="url(#p789854ca48)" d="M 108 323.64 
L 777.6 323.64 
" style="fill:none;stroke:#b0b0b0;stroke-linecap:square;stroke-width:0.8;"/>
     </g>
     <g id="line2d_18">
      <g>
       <use style="stroke:#000000;stroke-width:0.8;" x="108" xlink:href="#md896294104" y="323.64"/>
      </g>
     </g>
     <g id="text_10">
      <!-- −10 -->
      <g transform="translate(79.895313 327.439219)scale(0.1 -0.1)">
       <use xlink:href="#DejaVuSans-8722"/>
       <use x="83.789062" xlink:href="#DejaVuSans-49"/>
       <use x="147.412109" xlink:href="#DejaVuSans-48"/>
      </g>
     </g>
    </g>
    <g id="ytick_3">
     <g id="line2d_19">
      <path clip-path="url(#p789854ca48)" d="M 108 269.28 
L 777.6 269.28 
" style="fill:none;stroke:#b0b0b0;stroke-linecap:square;stroke-width:0.8;"/>
     </g>
     <g id="line2d_20">
      <g>
       <use style="stroke:#000000;stroke-width:0.8;" x="108" xlink:href="#md896294104" y="269.28"/>
      </g>
     </g>
     <g id="text_11">
      <!-- −5 -->
      <g transform="translate(86.257812 273.079219)scale(0.1 -0.1)">
       <use xlink:href="#DejaVuSans-8722"/>
       <use x="83.789062" xlink:href="#DejaVuSans-53"/>
      </g>
     </g>
    </g>
    <g id="ytick_4">
     <g id="line2d_21">
      <path clip-path="url(#p789854ca48)" d="M 108 214.92 
L 777.6 214.92 
" style="fill:none;stroke:#b0b0b0;stroke-linecap:square;stroke-width:0.8;"/>
     </g>
     <g id="line2d_22">
      <g>
       <use style="stroke:#000000;stroke-width:0.8;" x="108" xlink:href="#md896294104" y="214.92"/>
      </g>
     </g>
     <g id="text_12">
      <!-- 0 -->
      <g transform="translate(94.6375 218.719219)scale(0.1 -0.1)">
       <use xlink:href="#DejaVuSans-48"/>
      </g>
     </g>
    </g>
    <g id="ytick_5">
     <g id="line2d_23">
      <path clip-path="url(#p789854ca48)" d="M 108 160.56 
L 777.6 160.56 
" style="fill:none;stroke:#b0b0b0;stroke-linecap:square;stroke-width:0.8;"/>
     </g>
     <g id="line2d_24">
      <g>
       <use style="stroke:#000000;stroke-width:0.8;" x="108" xlink:href="#md896294104" y="160.56"/>
      </g>
     </g>
     <g id="text_13">
      <!-- 5 -->
      <g transform="translate(94.6375 164.359219)scale(0.1 -0.1)">
       <use xlink:href="#DejaVuSans-53"/>
      </g>
     </g>
    </g>
    <g id="ytick_6">
     <g id="line2d_25">
      <path clip-path="url(#p789854ca48)" d="M 108 106.2 
L 777.6 106.2 
" style="fill:none;stroke:#b0b0b0;stroke-linecap:square;stroke-width:0.8;"/>
     </g>
     <g id="line2d_26">
      <g>
       <use style="stroke:#000000;stroke-width:0.8;" x="108" xlink:href="#md896294104" y="106.2"/>
      </g>
     </g>
     <g id="text_14">
      <!-- 10 -->
      <g transform="translate(88.275 109.999219)scale(0.1 -0.1)">
       <use xlink:href="#DejaVuSans-49"/>
       <use x="63.623047" xlink:href="#DejaVuSans-48"/>
      </g>
     </g>
    </g>
    <g id="ytick_7">
     <g id="line2d_27">
      <path clip-path="url(#p789854ca48)" d="M 108 51.84 
L 777.6 51.84 
" style="fill:none;stroke:#b0b0b0;stroke-linecap:square;stroke-width:0.8;"/>
     </g>
     <g id="line2d_28">
      <g>
       <use style="stroke:#000000;stroke-width:0.8;" x="108" xlink:href="#md896294104" y="51.84"/>
      </g>
     </g>
     <g id="text_15">
      <!-- 15 -->
      <g transform="translate(88.275 55.639219)scale(0.1 -0.1)">
       <use xlink:href="#DejaVuSans-49"/>
       <use x="63.623047" xlink:href="#DejaVuSans-53"/>
      </g>
     </g>
    </g>
    <g id="text_16">
     <!-- a(t) -->
     <g transform="translate(73.815625 223.845781)rotate(-90)scale(0.1 -0.1)">
      <defs>
       <path d="M 34.28125 27.484375 
Q 23.390625 27.484375 19.1875 25 
Q 14.984375 22.515625 14.984375 16.5 
Q 14.984375 11.71875 18.140625 8.90625 
Q 21.296875 6.109375 26.703125 6.109375 
Q 34.1875 6.109375 38.703125 11.40625 
Q 43.21875 16.703125 43.21875 25.484375 
L 43.21875 27.484375 
z
M 52.203125 31.203125 
L 52.203125 0 
L 43.21875 0 
L 43.21875 8.296875 
Q 40.140625 3.328125 35.546875 0.953125 
Q 30.953125 -1.421875 24.3125 -1.421875 
Q 15.921875 -1.421875 10.953125 3.296875 
Q 6 8.015625 6 15.921875 
Q 6 25.140625 12.171875 29.828125 
Q 18.359375 34.515625 30.609375 34.515625 
L 43.21875 34.515625 
L 43.21875 35.40625 
Q 43.21875 41.609375 39.140625 45 
Q 35.0625 48.390625 27.6875 48.390625 
Q 23 48.390625 18.546875 47.265625 
Q 14.109375 46.140625 10.015625 43.890625 
L 10.015625 52.203125 
Q 14.9375 54.109375 19.578125 55.046875 
Q 24.21875 56 28.609375 56 
Q 40.484375 56 46.34375 49.84375 
Q 52.203125 43.703125 52.203125 31.203125 
z
" id="DejaVuSans-97"/>
      </defs>
      <use xlink:href="#DejaVuSans-97"/>
      <use x="61.279297" xlink:href="#DejaVuSans-40"/>
      <use x="100.292969" xlink:href="#DejaVuSans-116"/>
      <use x="139.501953" xlink:href="#DejaVuSans-41"/>
     </g>
    </g>
   </g>
   <g id="line2d_29">
    <path clip-path="url(#p789854ca48)" d="M 108 198.415782 
L 109.467516 220.291383 
L 112.402547 338.11053 
L 113.870063 363.534006 
L 115.337579 365.789312 
L 116.805094 353.860203 
L 119.740126 326.75173 
L 121.207642 316.112547 
L 122.675157 306.81639 
L 124.142673 294.738913 
L 128.54522 237.586387 
L 130.012736 230.125239 
L 131.480252 253.451456 
L 132.947767 283.228088 
L 134.415283 299.814943 
L 135.882799 289.689907 
L 137.350314 263.373782 
L 140.285346 229.197894 
L 141.752862 215.486343 
L 144.687893 193.922538 
L 146.155409 187.271778 
L 147.622925 179.283415 
L 149.09044 163.549511 
L 150.557956 144.806818 
L 152.025472 132.153463 
L 153.492987 132.276343 
L 154.960503 155.091881 
L 156.428019 173.766595 
L 157.895535 190.750454 
L 159.36305 205.188633 
L 160.830566 211.064462 
L 162.298082 202.745482 
L 165.233113 137.264012 
L 166.700629 113.815301 
L 168.168145 111.995222 
L 169.63566 114.024825 
L 171.103176 117.772794 
L 172.570692 127.360983 
L 174.038208 147.788021 
L 178.440755 218.548417 
L 179.90827 225.241026 
L 181.375786 230.207125 
L 182.843302 238.535037 
L 184.310818 235.990101 
L 185.778333 220.963231 
L 187.245849 202.164425 
L 188.713365 192.759865 
L 190.18088 192.221533 
L 191.648396 197.526958 
L 194.583428 204.584505 
L 196.050943 212.879869 
L 198.985975 253.94538 
L 200.453491 280.740436 
L 201.921006 303.178158 
L 203.388522 316.992767 
L 204.856038 327.121906 
L 206.323553 320.804901 
L 207.791069 298.053242 
L 209.258585 265.368505 
L 210.726101 249.882077 
L 212.193616 243.900091 
L 215.128648 230.147876 
L 216.596163 224.211984 
L 218.063679 220.099084 
L 219.531195 224.479789 
L 220.998711 240.400245 
L 222.466226 254.33382 
L 223.933742 257.530352 
L 225.401258 255.30709 
L 226.868774 251.202176 
L 228.336289 243.57067 
L 229.803805 230.501811 
L 231.271321 215.962987 
L 232.738836 202.679672 
L 234.206352 186.713233 
L 235.673868 179.465737 
L 237.141384 173.842188 
L 238.608899 167.429931 
L 240.076415 162.338329 
L 241.543931 161.238145 
L 243.011446 168.022449 
L 244.478962 178.186551 
L 245.946478 184.387453 
L 247.413994 192.697469 
L 248.881509 210.04144 
L 250.349025 224.93405 
L 251.816541 223.61477 
L 253.284057 199.823875 
L 254.751572 178.466982 
L 256.219088 154.912038 
L 257.686604 142.878985 
L 259.154119 143.85033 
L 260.621635 151.118867 
L 262.089151 161.003362 
L 263.556667 173.55293 
L 265.024182 191.849231 
L 266.491698 204.823213 
L 267.959214 207.815307 
L 269.426729 211.282347 
L 270.894245 220.895315 
L 272.361761 232.571368 
L 273.829277 236.780197 
L 275.296792 231.864159 
L 276.764308 218.299868 
L 278.231824 208.383465 
L 279.69934 199.671999 
L 281.166855 193.536778 
L 282.634371 195.473336 
L 284.101887 198.652946 
L 285.569402 205.265935 
L 288.504434 233.071209 
L 289.97195 243.04712 
L 291.439465 248.225759 
L 292.906981 257.397455 
L 294.374497 274.656005 
L 295.842012 285.163672 
L 297.309528 283.681357 
L 298.777044 270.097922 
L 300.24456 254.28067 
L 301.712075 242.124677 
L 303.179591 231.158132 
L 304.647107 222.003549 
L 306.114623 216.952445 
L 307.582138 217.44678 
L 309.049654 221.312893 
L 310.51717 226.042223 
L 311.984685 229.445426 
L 313.452201 228.605065 
L 314.919717 230.17189 
L 316.387233 237.22915 
L 317.854748 241.354911 
L 319.322264 236.776889 
L 320.78978 231.2405 
L 322.257295 226.549944 
L 323.724811 218.837704 
L 325.192327 208.963816 
L 326.659843 200.225483 
L 328.127358 186.899584 
L 329.594874 180.631067 
L 331.06239 182.105104 
L 333.997421 191.403174 
L 335.464937 191.23129 
L 336.932453 189.640249 
L 338.399968 194.248105 
L 341.335 209.963402 
L 342.802516 214.137558 
L 344.270031 217.524788 
L 345.737547 218.988212 
L 347.205063 212.181416 
L 348.672579 198.122496 
L 350.140094 177.992606 
L 351.60761 169.030065 
L 353.075126 169.916804 
L 354.542641 176.660383 
L 356.010157 189.195733 
L 357.477673 194.665192 
L 358.945189 198.063659 
L 361.88022 211.985249 
L 363.347736 214.159016 
L 364.815251 213.73796 
L 366.282767 216.731515 
L 367.750283 222.053815 
L 369.217799 224.129996 
L 370.685314 221.048718 
L 373.620346 203.402501 
L 375.087862 198.025312 
L 376.555377 200.448222 
L 378.022893 205.191196 
L 379.490409 211.498863 
L 380.957924 214.482331 
L 382.42544 218.903144 
L 383.892956 228.199196 
L 385.360472 235.386276 
L 386.827987 238.255971 
L 388.295503 240.828158 
L 389.763019 245.454045 
L 391.230534 249.27759 
L 392.69805 249.207386 
L 394.165566 244.135403 
L 395.633082 235.815482 
L 397.100597 225.515892 
L 398.568113 221.652168 
L 401.503145 220.331776 
L 402.97066 218.447587 
L 404.438176 219.272559 
L 407.373207 226.007244 
L 408.840723 227.032622 
L 410.308239 226.778542 
L 411.775755 227.177509 
L 413.24327 229.710445 
L 414.710786 230.287034 
L 416.178302 228.437541 
L 417.645817 224.702293 
L 422.048365 208.464676 
L 426.450912 197.904208 
L 427.918428 199.884029 
L 429.385943 202.883636 
L 430.853459 204.399564 
L 432.320975 203.55176 
L 433.78849 203.301159 
L 435.256006 205.893336 
L 436.723522 209.702091 
L 438.191038 212.837642 
L 439.658553 214.810451 
L 441.126069 213.565815 
L 442.593585 212.086743 
L 444.0611 209.084181 
L 445.528616 205.339955 
L 446.996132 200.870075 
L 448.463648 194.912537 
L 449.931163 193.332707 
L 451.398679 196.033802 
L 452.866195 200.364594 
L 454.333711 202.938172 
L 455.801226 204.885874 
L 460.203773 211.850486 
L 461.671289 212.977242 
L 464.606321 213.191483 
L 466.073836 213.707928 
L 467.541352 214.468727 
L 469.008868 212.89139 
L 470.476383 209.819274 
L 471.943899 208.104888 
L 473.411415 209.123827 
L 474.878931 211.566107 
L 477.813962 215.763734 
L 479.281478 217.184439 
L 480.748994 218.985139 
L 482.216509 222.867953 
L 483.684025 225.846783 
L 485.151541 226.654629 
L 486.619056 227.789403 
L 488.086572 229.116581 
L 489.554088 229.721123 
L 491.021604 229.918697 
L 492.489119 228.108984 
L 493.956635 224.272502 
L 495.424151 221.832011 
L 496.891666 221.760848 
L 498.359182 221.470249 
L 499.826698 220.570282 
L 501.294214 220.460422 
L 502.761729 220.611573 
L 504.229245 221.494282 
L 505.696761 222.683291 
L 507.164277 222.503678 
L 508.631792 222.089306 
L 510.099308 222.175607 
L 511.566824 223.680026 
L 513.034339 223.833964 
L 514.501855 223.008767 
L 515.969371 221.289354 
L 517.436887 218.320072 
L 521.839434 211.085036 
L 523.306949 209.867005 
L 526.241981 209.353211 
L 530.644528 209.796733 
L 532.112044 209.566261 
L 533.57956 210.244651 
L 536.514591 212.93521 
L 537.982107 213.223402 
L 540.917138 212.488182 
L 542.384654 210.892755 
L 543.85217 208.408106 
L 545.319685 207.153854 
L 546.787201 206.207796 
L 548.254717 205.866464 
L 549.722232 206.617806 
L 552.657264 208.512579 
L 555.592295 209.692931 
L 557.059811 210.272492 
L 558.527327 211.10878 
L 559.994843 211.70179 
L 561.462358 212.502629 
L 562.929874 213.465958 
L 564.39739 213.557898 
L 567.332421 213.448608 
L 568.799937 213.811612 
L 570.267453 213.346398 
L 571.734968 213.085664 
L 573.202484 214.328316 
L 574.67 214.354521 
L 577.605031 215.450489 
L 579.072547 216.183121 
L 580.540063 217.233067 
L 582.007578 217.659568 
L 583.475094 218.437226 
L 584.94261 219.435044 
L 586.410126 220.079915 
L 587.877641 220.543967 
L 589.345157 221.2566 
L 590.812673 221.093949 
L 592.280188 220.745523 
L 593.747704 220.057825 
L 595.21522 219.635792 
L 596.682736 219.445627 
L 599.617767 218.23713 
L 604.020314 218.349962 
L 605.48783 217.660913 
L 608.422861 218.986964 
L 609.890377 219.325578 
L 612.825409 219.625093 
L 614.292924 219.59749 
L 615.76044 218.156105 
L 617.227956 216.97446 
L 620.162987 213.966044 
L 621.630503 213.024685 
L 623.098019 212.45643 
L 626.03305 212.396189 
L 627.500566 212.596298 
L 630.435597 212.091185 
L 631.903113 212.333273 
L 633.370629 213.147001 
L 634.838144 213.628866 
L 636.30566 213.404621 
L 637.773176 212.92872 
L 640.708207 213.259962 
L 642.175723 212.749333 
L 643.643239 211.913901 
L 646.57827 210.848341 
L 648.045786 210.709553 
L 649.513302 210.209635 
L 650.980817 210.900528 
L 652.448333 211.367054 
L 653.915849 211.685704 
L 658.318396 213.905645 
L 659.785912 214.479189 
L 664.188459 215.306144 
L 665.655975 214.670674 
L 667.12349 214.848105 
L 670.058522 214.62513 
L 671.526037 214.220654 
L 672.993553 214.066271 
L 675.928585 214.641213 
L 677.3961 215.075579 
L 678.863616 215.64696 
L 681.798648 217.24219 
L 683.266163 217.309579 
L 686.201195 218.032401 
L 687.66871 218.286683 
L 689.136226 218.335776 
L 693.538773 216.344034 
L 696.473805 216.403676 
L 697.94132 215.935727 
L 699.408836 215.665778 
L 700.876352 216.639265 
L 702.343868 217.440441 
L 703.811383 217.389836 
L 705.278899 216.891433 
L 706.746415 217.479738 
L 708.213931 217.556741 
L 711.148962 216.827568 
L 712.616478 216.695158 
L 714.083993 216.072695 
L 715.551509 215.098988 
L 717.019025 214.908792 
L 718.486541 215.026065 
L 719.954056 213.924268 
L 721.421572 213.188428 
L 722.889088 213.583424 
L 724.356603 213.811021 
L 725.824119 213.725296 
L 727.291635 213.929068 
L 728.759151 213.846952 
L 730.226666 214.708267 
L 731.694182 214.289457 
L 737.564245 213.798904 
L 740.499276 213.800515 
L 741.966792 213.729186 
L 744.901824 212.985797 
L 746.369339 213.258038 
L 747.836855 214.109223 
L 749.304371 213.661484 
L 750.771886 213.828187 
L 752.239402 214.661285 
L 753.706918 214.669633 
L 755.174434 214.533288 
L 756.641949 214.658021 
L 758.109465 214.940222 
L 759.576981 214.588769 
L 762.512012 215.273523 
L 763.979528 215.04123 
L 765.447044 214.970829 
L 768.382075 214.071525 
L 769.849591 214.924697 
L 771.317107 214.965097 
L 772.784622 214.414038 
L 774.252138 214.685351 
L 777.187169 216.130215 
L 778.654685 216.476087 
L 778.654685 216.476087 
" style="fill:none;stroke:#1f77b4;stroke-linecap:square;stroke-width:1.5;"/>
   </g>
   <g id="line2d_30">
    <path clip-path="url(#p789854ca48)" d="M 108 289.476244 
L 109.467516 295.020072 
L 110.935031 299.645373 
L 112.402547 303.323 
L 113.870063 306.03397 
L 115.337579 307.769462 
L 116.805094 308.530705 
L 118.27261 308.32878 
L 119.740126 307.184311 
L 121.207642 305.127075 
L 122.675157 302.195521 
L 124.142673 298.436219 
L 125.610189 293.903224 
L 127.077704 288.65739 
L 128.54522 282.765618 
L 131.480252 269.337308 
L 134.415283 254.24342 
L 138.81783 229.945426 
L 143.220377 205.691771 
L 146.155409 190.621298 
L 149.09044 177.099411 
L 150.557956 171.073608 
L 152.025472 165.608299 
L 153.492987 160.748046 
L 154.960503 156.530426 
L 156.428019 152.985775 
L 157.895535 150.137028 
L 159.36305 147.999626 
L 160.830566 146.581505 
L 162.298082 145.883159 
L 163.765597 145.89778 
L 165.233113 146.611469 
L 166.700629 148.003508 
L 168.168145 150.04671 
L 169.63566 152.707812 
L 171.103176 155.947932 
L 172.570692 159.723072 
L 174.038208 163.984661 
L 175.505723 168.680138 
L 178.440755 179.146222 
L 181.375786 190.644658 
L 190.18088 226.345268 
L 193.115912 237.052411 
L 196.050943 246.4644 
L 197.518459 250.579495 
L 198.985975 254.253905 
L 200.453491 257.458899 
L 201.921006 260.171059 
L 203.388522 262.37241 
L 204.856038 264.0505 
L 206.323553 265.198421 
L 207.791069 265.814767 
L 209.258585 265.903547 
L 210.726101 265.474038 
L 212.193616 264.540588 
L 213.661132 263.122377 
L 215.128648 261.243123 
L 216.596163 258.930763 
L 218.063679 256.217078 
L 219.531195 253.137305 
L 220.998711 249.729712 
L 223.933742 242.096581 
L 226.868774 233.667055 
L 237.141384 203.191408 
L 240.076415 195.643535 
L 241.543931 192.252109 
L 243.011446 189.155775 
L 244.478962 186.380216 
L 245.946478 183.947366 
L 247.413994 181.875264 
L 248.881509 180.177948 
L 250.349025 178.865385 
L 251.816541 177.943454 
L 253.284057 177.413961 
L 254.751572 177.274701 
L 256.219088 177.519558 
L 257.686604 178.138642 
L 259.154119 179.118461 
L 260.621635 180.44213 
L 262.089151 182.089605 
L 263.556667 184.037946 
L 265.024182 186.26161 
L 266.491698 188.732756 
L 269.426729 194.296613 
L 272.361761 200.473563 
L 282.634371 223.012017 
L 285.569402 228.647258 
L 288.504434 233.517625 
L 289.97195 235.612524 
L 291.439465 237.457353 
L 292.906981 239.038243 
L 294.374497 240.344269 
L 295.842012 241.367498 
L 297.309528 242.103018 
L 298.777044 242.548926 
L 300.24456 242.706291 
L 301.712075 242.579083 
L 303.179591 242.174081 
L 304.647107 241.500746 
L 306.114623 240.571077 
L 307.582138 239.399437 
L 309.049654 238.002366 
L 310.51717 236.398368 
L 313.452201 232.652062 
L 316.387233 228.338977 
L 320.78978 221.234013 
L 326.659843 211.630418 
L 329.594874 207.205292 
L 332.529906 203.258093 
L 335.464937 199.928588 
L 336.932453 198.531025 
L 338.399968 197.326476 
L 339.867484 196.323423 
L 341.335 195.528143 
L 342.802516 194.944686 
L 344.270031 194.574877 
L 345.737547 194.418343 
L 347.205063 194.472556 
L 348.672579 194.732901 
L 350.140094 195.192765 
L 351.60761 195.843639 
L 353.075126 196.675245 
L 354.542641 197.67567 
L 357.477673 200.128089 
L 360.412704 203.079012 
L 363.347736 206.391251 
L 375.087862 220.316221 
L 378.022893 223.267775 
L 380.957924 225.772356 
L 382.42544 226.830102 
L 383.892956 227.74677 
L 385.360472 228.515792 
L 386.827987 229.132225 
L 388.295503 229.592766 
L 389.763019 229.895756 
L 391.230534 230.041164 
L 392.69805 230.030556 
L 394.165566 229.867049 
L 395.633082 229.555249 
L 397.100597 229.101176 
L 398.568113 228.512174 
L 401.503145 226.964783 
L 404.438176 224.994293 
L 407.373207 222.69576 
L 411.775755 218.863073 
L 419.113333 212.359313 
L 422.048365 210.020479 
L 424.983396 207.967156 
L 427.918428 206.270641 
L 430.853459 204.985224 
L 433.78849 204.146659 
L 435.256006 203.900858 
L 436.723522 203.771446 
L 438.191038 203.757491 
L 441.126069 204.066497 
L 444.0611 204.798221 
L 446.996132 205.907219 
L 449.931163 207.334676 
L 452.866195 209.011277 
L 457.268742 211.82449 
L 464.606321 216.636785 
L 467.541352 218.379852 
L 470.476383 219.917807 
L 473.411415 221.196915 
L 476.346446 222.175855 
L 479.281478 222.826902 
L 482.216509 223.13652 
L 485.151541 223.105358 
L 488.086572 222.747682 
L 491.021604 222.090288 
L 493.956635 221.170944 
L 496.891666 220.036466 
L 501.294214 218.049981 
L 513.034339 212.483145 
L 515.969371 211.331811 
L 518.904402 210.36812 
L 521.839434 209.623483 
L 524.774465 209.119344 
L 527.709497 208.866697 
L 530.644528 208.866049 
L 533.57956 209.107798 
L 536.514591 209.573005 
L 539.449622 210.234506 
L 543.85217 211.519005 
L 549.722232 213.562838 
L 557.059811 216.158999 
L 561.462358 217.492872 
L 565.864905 218.52248 
L 568.799937 219.001681 
L 571.734968 219.299162 
L 574.67 219.409957 
L 577.605031 219.336761 
L 580.540063 219.089536 
L 584.94261 218.430167 
L 589.345157 217.496402 
L 595.21522 215.996474 
L 604.020314 213.721891 
L 608.422861 212.791163 
L 612.825409 212.102373 
L 617.227956 211.702976 
L 621.630503 211.612028 
L 626.03305 211.8201 
L 630.435597 212.291737 
L 634.838144 212.970082 
L 642.175723 214.36068 
L 650.980817 216.00446 
L 655.383365 216.647773 
L 659.785912 217.101089 
L 664.188459 217.334922 
L 668.591006 217.340958 
L 672.993553 217.131589 
L 678.863616 216.572834 
L 686.201195 215.587669 
L 697.94132 213.979501 
L 703.811383 213.424506 
L 709.681446 213.143627 
L 715.551509 213.15999 
L 721.421572 213.448772 
L 728.759151 214.090502 
L 746.369339 215.82192 
L 752.239402 216.144452 
L 758.109465 216.252434 
L 763.979528 216.145155 
L 771.317107 215.760954 
L 778.654685 215.21161 
L 778.654685 215.21161 
" style="fill:none;stroke:#ff0000;stroke-dasharray:1.5,2.475;stroke-dashoffset:0;stroke-width:1.5;"/>
   </g>
   <g id="patch_3">
    <path d="M 108 378 
L 108 51.84 
" style="fill:none;stroke:#000000;stroke-linecap:square;stroke-linejoin:miter;stroke-width:0.8;"/>
   </g>
   <g id="patch_4">
    <path d="M 777.6 378 
L 777.6 51.84 
" style="fill:none;stroke:#000000;stroke-linecap:square;stroke-linejoin:miter;stroke-width:0.8;"/>
   </g>
   <g id="patch_5">
    <path d="M 108 378 
L 777.6 378 
" style="fill:none;stroke:#000000;stroke-linecap:square;stroke-linejoin:miter;stroke-width:0.8;"/>
   </g>
   <g id="patch_6">
    <path d="M 108 51.84 
L 777.6 51.84 
" style="fill:none;stroke:#000000;stroke-linecap:square;stroke-linejoin:miter;stroke-width:0.8;"/>
   </g>
   <g id="text_17">
    <!-- Medição 6 - Direção X -->
    <g transform="translate(344.296406 45.84)scale(0.18 -0.18)">
     <defs>
      <path d="M 9.8125 72.90625 
L 24.515625 72.90625 
L 43.109375 23.296875 
L 61.8125 72.90625 
L 76.515625 72.90625 
L 76.515625 0 
L 66.890625 0 
L 66.890625 64.015625 
L 48.09375 14.015625 
L 38.1875 14.015625 
L 19.390625 64.015625 
L 19.390625 0 
L 9.8125 0 
z
" id="DejaVuSans-77"/>
      <path d="M 45.40625 46.390625 
L 45.40625 75.984375 
L 54.390625 75.984375 
L 54.390625 0 
L 45.40625 0 
L 45.40625 8.203125 
Q 42.578125 3.328125 38.25 0.953125 
Q 33.9375 -1.421875 27.875 -1.421875 
Q 17.96875 -1.421875 11.734375 6.484375 
Q 5.515625 14.40625 5.515625 27.296875 
Q 5.515625 40.1875 11.734375 48.09375 
Q 17.96875 56 27.875 56 
Q 33.9375 56 38.25 53.625 
Q 42.578125 51.265625 45.40625 46.390625 
z
M 14.796875 27.296875 
Q 14.796875 17.390625 18.875 11.75 
Q 22.953125 6.109375 30.078125 6.109375 
Q 37.203125 6.109375 41.296875 11.75 
Q 45.40625 17.390625 45.40625 27.296875 
Q 45.40625 37.203125 41.296875 42.84375 
Q 37.203125 48.484375 30.078125 48.484375 
Q 22.953125 48.484375 18.875 42.84375 
Q 14.796875 37.203125 14.796875 27.296875 
z
" id="DejaVuSans-100"/>
      <path d="M 48.78125 52.59375 
L 48.78125 44.1875 
Q 44.96875 46.296875 41.140625 47.34375 
Q 37.3125 48.390625 33.40625 48.390625 
Q 24.65625 48.390625 19.8125 42.84375 
Q 14.984375 37.3125 14.984375 27.296875 
Q 14.984375 17.28125 19.8125 11.734375 
Q 24.65625 6.203125 33.40625 6.203125 
Q 37.3125 6.203125 41.140625 7.25 
Q 44.96875 8.296875 48.78125 10.40625 
L 48.78125 2.09375 
Q 45.015625 0.34375 40.984375 -0.53125 
Q 36.96875 -1.421875 32.421875 -1.421875 
Q 20.0625 -1.421875 12.78125 6.34375 
Q 5.515625 14.109375 5.515625 27.296875 
Q 5.515625 40.671875 12.859375 48.328125 
Q 20.21875 56 33.015625 56 
Q 37.15625 56 41.109375 55.140625 
Q 45.0625 54.296875 48.78125 52.59375 
z
M 36.078125 0 
Q 38.765625 -3.03125 40.078125 -5.59375 
Q 41.40625 -8.15625 41.40625 -10.5 
Q 41.40625 -14.84375 38.46875 -17.0625 
Q 35.546875 -19.28125 29.78125 -19.28125 
Q 27.546875 -19.28125 25.421875 -18.984375 
Q 23.296875 -18.703125 21.1875 -18.109375 
L 21.1875 -11.71875 
Q 22.859375 -12.546875 24.65625 -12.90625 
Q 26.46875 -13.28125 28.765625 -13.28125 
Q 31.640625 -13.28125 33.109375 -12.109375 
Q 34.578125 -10.9375 34.578125 -8.6875 
Q 34.578125 -7.234375 33.515625 -5.109375 
Q 32.46875 -2.984375 30.28125 0 
z
" id="DejaVuSans-231"/>
      <path d="M 34.28125 27.484375 
Q 23.390625 27.484375 19.1875 25 
Q 14.984375 22.515625 14.984375 16.5 
Q 14.984375 11.71875 18.140625 8.90625 
Q 21.296875 6.109375 26.703125 6.109375 
Q 34.1875 6.109375 38.703125 11.40625 
Q 43.21875 16.703125 43.21875 25.484375 
L 43.21875 27.484375 
z
M 52.203125 31.203125 
L 52.203125 0 
L 43.21875 0 
L 43.21875 8.296875 
Q 40.140625 3.328125 35.546875 0.953125 
Q 30.953125 -1.421875 24.3125 -1.421875 
Q 15.921875 -1.421875 10.953125 3.296875 
Q 6 8.015625 6 15.921875 
Q 6 25.140625 12.171875 29.828125 
Q 18.359375 34.515625 30.609375 34.515625 
L 43.21875 34.515625 
L 43.21875 35.40625 
Q 43.21875 41.609375 39.140625 45 
Q 35.0625 48.390625 27.6875 48.390625 
Q 23 48.390625 18.546875 47.265625 
Q 14.109375 46.140625 10.015625 43.890625 
L 10.015625 52.203125 
Q 14.9375 54.109375 19.578125 55.046875 
Q 24.21875 56 28.609375 56 
Q 40.484375 56 46.34375 49.84375 
Q 52.203125 43.703125 52.203125 31.203125 
z
M 28.8125 66.890625 
L 26.03125 69.578125 
Q 24.953125 70.5625 24.140625 71.015625 
Q 23.34375 71.484375 22.703125 71.484375 
Q 20.84375 71.484375 19.96875 69.703125 
Q 19.09375 67.921875 19 63.921875 
L 12.890625 63.921875 
Q 12.984375 70.515625 15.46875 74.09375 
Q 17.96875 77.6875 22.40625 77.6875 
Q 24.265625 77.6875 25.828125 77 
Q 27.390625 76.3125 29.203125 74.703125 
L 31.984375 72.015625 
Q 33.0625 71.046875 33.859375 70.578125 
Q 34.671875 70.125 35.296875 70.125 
Q 37.15625 70.125 38.03125 71.90625 
Q 38.921875 73.6875 39.015625 77.6875 
L 45.125 77.6875 
Q 45.015625 71.09375 42.53125 67.5 
Q 40.046875 63.921875 35.59375 63.921875 
Q 33.734375 63.921875 32.171875 64.59375 
Q 30.609375 65.28125 28.8125 66.890625 
z
" id="DejaVuSans-227"/>
      <path d="M 30.609375 48.390625 
Q 23.390625 48.390625 19.1875 42.75 
Q 14.984375 37.109375 14.984375 27.296875 
Q 14.984375 17.484375 19.15625 11.84375 
Q 23.34375 6.203125 30.609375 6.203125 
Q 37.796875 6.203125 41.984375 11.859375 
Q 46.1875 17.53125 46.1875 27.296875 
Q 46.1875 37.015625 41.984375 42.703125 
Q 37.796875 48.390625 30.609375 48.390625 
z
M 30.609375 56 
Q 42.328125 56 49.015625 48.375 
Q 55.71875 40.765625 55.71875 27.296875 
Q 55.71875 13.875 49.015625 6.21875 
Q 42.328125 -1.421875 30.609375 -1.421875 
Q 18.84375 -1.421875 12.171875 6.21875 
Q 5.515625 13.875 5.515625 27.296875 
Q 5.515625 40.765625 12.171875 48.375 
Q 18.84375 56 30.609375 56 
z
" id="DejaVuSans-111"/>
      <path d="M 4.890625 31.390625 
L 31.203125 31.390625 
L 31.203125 23.390625 
L 4.890625 23.390625 
z
" id="DejaVuSans-45"/>
      <path d="M 19.671875 64.796875 
L 19.671875 8.109375 
L 31.59375 8.109375 
Q 46.6875 8.109375 53.6875 14.9375 
Q 60.6875 21.78125 60.6875 36.53125 
Q 60.6875 51.171875 53.6875 57.984375 
Q 46.6875 64.796875 31.59375 64.796875 
z
M 9.8125 72.90625 
L 30.078125 72.90625 
Q 51.265625 72.90625 61.171875 64.09375 
Q 71.09375 55.28125 71.09375 36.53125 
Q 71.09375 17.671875 61.125 8.828125 
Q 51.171875 0 30.078125 0 
L 9.8125 0 
z
" id="DejaVuSans-68"/>
      <path d="M 41.109375 46.296875 
Q 39.59375 47.171875 37.8125 47.578125 
Q 36.03125 48 33.890625 48 
Q 26.265625 48 22.1875 43.046875 
Q 18.109375 38.09375 18.109375 28.8125 
L 18.109375 0 
L 9.078125 0 
L 9.078125 54.6875 
L 18.109375 54.6875 
L 18.109375 46.1875 
Q 20.953125 51.171875 25.484375 53.578125 
Q 30.03125 56 36.53125 56 
Q 37.453125 56 38.578125 55.875 
Q 39.703125 55.765625 41.0625 55.515625 
z
" id="DejaVuSans-114"/>
      <path d="M 6.296875 72.90625 
L 16.890625 72.90625 
L 35.015625 45.796875 
L 53.21875 72.90625 
L 63.8125 72.90625 
L 40.375 37.890625 
L 65.375 0 
L 54.78125 0 
L 34.28125 31 
L 13.625 0 
L 2.984375 0 
L 29 38.921875 
z
" id="DejaVuSans-88"/>
     </defs>
     <use xlink:href="#DejaVuSans-77"/>
     <use x="86.279297" xlink:href="#DejaVuSans-101"/>
     <use x="147.802734" xlink:href="#DejaVuSans-100"/>
     <use x="211.279297" xlink:href="#DejaVuSans-105"/>
     <use x="239.0625" xlink:href="#DejaVuSans-231"/>
     <use x="294.042969" xlink:href="#DejaVuSans-227"/>
     <use x="355.322266" xlink:href="#DejaVuSans-111"/>
     <use x="416.503906" xlink:href="#DejaVuSans-32"/>
     <use x="448.291016" xlink:href="#DejaVuSans-54"/>
     <use x="511.914062" xlink:href="#DejaVuSans-32"/>
     <use x="543.701172" xlink:href="#DejaVuSans-45"/>
     <use x="579.785156" xlink:href="#DejaVuSans-32"/>
     <use x="611.572266" xlink:href="#DejaVuSans-68"/>
     <use x="688.574219" xlink:href="#DejaVuSans-105"/>
     <use x="716.357422" xlink:href="#DejaVuSans-114"/>
     <use x="755.220703" xlink:href="#DejaVuSans-101"/>
     <use x="816.744141" xlink:href="#DejaVuSans-231"/>
     <use x="871.724609" xlink:href="#DejaVuSans-227"/>
     <use x="933.003906" xlink:href="#DejaVuSans-111"/>
     <use x="994.185547" xlink:href="#DejaVuSans-32"/>
     <use x="1025.972656" xlink:href="#DejaVuSans-88"/>
    </g>
   </g>
   <g id="legend_1">
    <g id="patch_7">
     <path d="M 701.221875 89.19625 
L 770.6 89.19625 
Q 772.6 89.19625 772.6 87.19625 
L 772.6 58.84 
Q 772.6 56.84 770.6 56.84 
L 701.221875 56.84 
Q 699.221875 56.84 699.221875 58.84 
L 699.221875 87.19625 
Q 699.221875 89.19625 701.221875 89.19625 
z
" style="fill:#ffffff;opacity:0.8;stroke:#cccccc;stroke-linejoin:miter;"/>
    </g>
    <g id="line2d_31">
     <path d="M 703.221875 64.938437 
L 723.221875 64.938437 
" style="fill:none;stroke:#1f77b4;stroke-linecap:square;stroke-width:1.5;"/>
    </g>
    <g id="line2d_32"/>
    <g id="text_18">
     <!-- original -->
     <g transform="translate(731.221875 68.438437)scale(0.1 -0.1)">
      <defs>
       <path d="M 45.40625 27.984375 
Q 45.40625 37.75 41.375 43.109375 
Q 37.359375 48.484375 30.078125 48.484375 
Q 22.859375 48.484375 18.828125 43.109375 
Q 14.796875 37.75 14.796875 27.984375 
Q 14.796875 18.265625 18.828125 12.890625 
Q 22.859375 7.515625 30.078125 7.515625 
Q 37.359375 7.515625 41.375 12.890625 
Q 45.40625 18.265625 45.40625 27.984375 
z
M 54.390625 6.78125 
Q 54.390625 -7.171875 48.1875 -13.984375 
Q 42 -20.796875 29.203125 -20.796875 
Q 24.46875 -20.796875 20.265625 -20.09375 
Q 16.0625 -19.390625 12.109375 -17.921875 
L 12.109375 -9.1875 
Q 16.0625 -11.328125 19.921875 -12.34375 
Q 23.78125 -13.375 27.78125 -13.375 
Q 36.625 -13.375 41.015625 -8.765625 
Q 45.40625 -4.15625 45.40625 5.171875 
L 45.40625 9.625 
Q 42.625 4.78125 38.28125 2.390625 
Q 33.9375 0 27.875 0 
Q 17.828125 0 11.671875 7.65625 
Q 5.515625 15.328125 5.515625 27.984375 
Q 5.515625 40.671875 11.671875 48.328125 
Q 17.828125 56 27.875 56 
Q 33.9375 56 38.28125 53.609375 
Q 42.625 51.21875 45.40625 46.390625 
L 45.40625 54.6875 
L 54.390625 54.6875 
z
" id="DejaVuSans-103"/>
       <path d="M 54.890625 33.015625 
L 54.890625 0 
L 45.90625 0 
L 45.90625 32.71875 
Q 45.90625 40.484375 42.875 44.328125 
Q 39.84375 48.1875 33.796875 48.1875 
Q 26.515625 48.1875 22.3125 43.546875 
Q 18.109375 38.921875 18.109375 30.90625 
L 18.109375 0 
L 9.078125 0 
L 9.078125 54.6875 
L 18.109375 54.6875 
L 18.109375 46.1875 
Q 21.34375 51.125 25.703125 53.5625 
Q 30.078125 56 35.796875 56 
Q 45.21875 56 50.046875 50.171875 
Q 54.890625 44.34375 54.890625 33.015625 
z
" id="DejaVuSans-110"/>
       <path d="M 9.421875 75.984375 
L 18.40625 75.984375 
L 18.40625 0 
L 9.421875 0 
z
" id="DejaVuSans-108"/>
      </defs>
      <use xlink:href="#DejaVuSans-111"/>
      <use x="61.181641" xlink:href="#DejaVuSans-114"/>
      <use x="102.294922" xlink:href="#DejaVuSans-105"/>
      <use x="130.078125" xlink:href="#DejaVuSans-103"/>
      <use x="193.554688" xlink:href="#DejaVuSans-105"/>
      <use x="221.337891" xlink:href="#DejaVuSans-110"/>
      <use x="284.716797" xlink:href="#DejaVuSans-97"/>
      <use x="345.996094" xlink:href="#DejaVuSans-108"/>
     </g>
    </g>
    <g id="line2d_33">
     <path d="M 703.221875 79.616562 
L 723.221875 79.616562 
" style="fill:none;stroke:#ff0000;stroke-dasharray:1.5,2.475;stroke-dashoffset:0;stroke-width:1.5;"/>
    </g>
    <g id="line2d_34"/>
    <g id="text_19">
     <!-- fitted -->
     <g transform="translate(731.221875 83.116562)scale(0.1 -0.1)">
      <defs>
       <path d="M 37.109375 75.984375 
L 37.109375 68.5 
L 28.515625 68.5 
Q 23.6875 68.5 21.796875 66.546875 
Q 19.921875 64.59375 19.921875 59.515625 
L 19.921875 54.6875 
L 34.71875 54.6875 
L 34.71875 47.703125 
L 19.921875 47.703125 
L 19.921875 0 
L 10.890625 0 
L 10.890625 47.703125 
L 2.296875 47.703125 
L 2.296875 54.6875 
L 10.890625 54.6875 
L 10.890625 58.5 
Q 10.890625 67.625 15.140625 71.796875 
Q 19.390625 75.984375 28.609375 75.984375 
z
" id="DejaVuSans-102"/>
      </defs>
      <use xlink:href="#DejaVuSans-102"/>
      <use x="35.205078" xlink:href="#DejaVuSans-105"/>
      <use x="62.988281" xlink:href="#DejaVuSans-116"/>
      <use x="102.197266" xlink:href="#DejaVuSans-116"/>
      <use x="141.40625" xlink:href="#DejaVuSans-101"/>
      <use x="202.929688" xlink:href="#DejaVuSans-100"/>
     </g>
    </g>
   </g>
  </g>
 </g>
 <defs>
  <clipPath id="p789854ca48">
   <rect height="326.16" width="669.6" x="108" y="51.84"/>
  </clipPath>
 </defs>
</svg>
