<?xml version="1.0" encoding="utf-8" standalone="no"?>
<!DOCTYPE svg PUBLIC "-//W3C//DTD SVG 1.1//EN"
  "http://www.w3.org/Graphics/SVG/1.1/DTD/svg11.dtd">
<!-- Created with matplotlib (https://matplotlib.org/) -->
<svg height="432pt" version="1.1" viewBox="0 0 864 432" width="864pt" xmlns="http://www.w3.org/2000/svg" xmlns:xlink="http://www.w3.org/1999/xlink">
 <metadata>
  <rdf:RDF xmlns:cc="http://creativecommons.org/ns#" xmlns:dc="http://purl.org/dc/elements/1.1/" xmlns:rdf="http://www.w3.org/1999/02/22-rdf-syntax-ns#">
   <cc:Work>
    <dc:type rdf:resource="http://purl.org/dc/dcmitype/StillImage"/>
    <dc:date>2021-11-25T23:02:10.599641</dc:date>
    <dc:format>image/svg+xml</dc:format>
    <dc:creator>
     <cc:Agent>
      <dc:title>Matplotlib v3.3.2, https://matplotlib.org/</dc:title>
     </cc:Agent>
    </dc:creator>
   </cc:Work>
  </rdf:RDF>
 </metadata>
 <defs>
  <style type="text/css">*{stroke-linecap:butt;stroke-linejoin:round;}</style>
 </defs>
 <g id="figure_1">
  <g id="patch_1">
   <path d="M 0 432 
L 864 432 
L 864 0 
L 0 0 
z
" style="fill:none;"/>
  </g>
  <g id="axes_1">
   <g id="patch_2">
    <path d="M 108 378 
L 777.6 378 
L 777.6 51.84 
L 108 51.84 
z
" style="fill:#ffffff;"/>
   </g>
   <g id="matplotlib.axis_1">
    <g id="xtick_1">
     <g id="line2d_1">
      <path clip-path="url(#p7fc8b02e20)" d="M 108 378 
L 108 51.84 
" style="fill:none;stroke:#b0b0b0;stroke-linecap:square;stroke-width:0.8;"/>
     </g>
     <g id="line2d_2">
      <defs>
       <path d="M 0 0 
L 0 3.5 
" id="m01ce331f81" style="stroke:#000000;stroke-width:0.8;"/>
      </defs>
      <g>
       <use style="stroke:#000000;stroke-width:0.8;" x="108" xlink:href="#m01ce331f81" y="378"/>
      </g>
     </g>
     <g id="text_1">
      <!-- 0.0 -->
      <g transform="translate(100.048438 392.598437)scale(0.1 -0.1)">
       <defs>
        <path d="M 31.78125 66.40625 
Q 24.171875 66.40625 20.328125 58.90625 
Q 16.5 51.421875 16.5 36.375 
Q 16.5 21.390625 20.328125 13.890625 
Q 24.171875 6.390625 31.78125 6.390625 
Q 39.453125 6.390625 43.28125 13.890625 
Q 47.125 21.390625 47.125 36.375 
Q 47.125 51.421875 43.28125 58.90625 
Q 39.453125 66.40625 31.78125 66.40625 
z
M 31.78125 74.21875 
Q 44.046875 74.21875 50.515625 64.515625 
Q 56.984375 54.828125 56.984375 36.375 
Q 56.984375 17.96875 50.515625 8.265625 
Q 44.046875 -1.421875 31.78125 -1.421875 
Q 19.53125 -1.421875 13.0625 8.265625 
Q 6.59375 17.96875 6.59375 36.375 
Q 6.59375 54.828125 13.0625 64.515625 
Q 19.53125 74.21875 31.78125 74.21875 
z
" id="DejaVuSans-48"/>
        <path d="M 10.6875 12.40625 
L 21 12.40625 
L 21 0 
L 10.6875 0 
z
" id="DejaVuSans-46"/>
       </defs>
       <use xlink:href="#DejaVuSans-48"/>
       <use x="63.623047" xlink:href="#DejaVuSans-46"/>
       <use x="95.410156" xlink:href="#DejaVuSans-48"/>
      </g>
     </g>
    </g>
    <g id="xtick_2">
     <g id="line2d_3">
      <path clip-path="url(#p7fc8b02e20)" d="M 192.226415 378 
L 192.226415 51.84 
" style="fill:none;stroke:#b0b0b0;stroke-linecap:square;stroke-width:0.8;"/>
     </g>
     <g id="line2d_4">
      <g>
       <use style="stroke:#000000;stroke-width:0.8;" x="192.226415" xlink:href="#m01ce331f81" y="378"/>
      </g>
     </g>
     <g id="text_2">
      <!-- 0.2 -->
      <g transform="translate(184.274853 392.598437)scale(0.1 -0.1)">
       <defs>
        <path d="M 19.1875 8.296875 
L 53.609375 8.296875 
L 53.609375 0 
L 7.328125 0 
L 7.328125 8.296875 
Q 12.9375 14.109375 22.625 23.890625 
Q 32.328125 33.6875 34.8125 36.53125 
Q 39.546875 41.84375 41.421875 45.53125 
Q 43.3125 49.21875 43.3125 52.78125 
Q 43.3125 58.59375 39.234375 62.25 
Q 35.15625 65.921875 28.609375 65.921875 
Q 23.96875 65.921875 18.8125 64.3125 
Q 13.671875 62.703125 7.8125 59.421875 
L 7.8125 69.390625 
Q 13.765625 71.78125 18.9375 73 
Q 24.125 74.21875 28.421875 74.21875 
Q 39.75 74.21875 46.484375 68.546875 
Q 53.21875 62.890625 53.21875 53.421875 
Q 53.21875 48.921875 51.53125 44.890625 
Q 49.859375 40.875 45.40625 35.40625 
Q 44.1875 33.984375 37.640625 27.21875 
Q 31.109375 20.453125 19.1875 8.296875 
z
" id="DejaVuSans-50"/>
       </defs>
       <use xlink:href="#DejaVuSans-48"/>
       <use x="63.623047" xlink:href="#DejaVuSans-46"/>
       <use x="95.410156" xlink:href="#DejaVuSans-50"/>
      </g>
     </g>
    </g>
    <g id="xtick_3">
     <g id="line2d_5">
      <path clip-path="url(#p7fc8b02e20)" d="M 276.45283 378 
L 276.45283 51.84 
" style="fill:none;stroke:#b0b0b0;stroke-linecap:square;stroke-width:0.8;"/>
     </g>
     <g id="line2d_6">
      <g>
       <use style="stroke:#000000;stroke-width:0.8;" x="276.45283" xlink:href="#m01ce331f81" y="378"/>
      </g>
     </g>
     <g id="text_3">
      <!-- 0.4 -->
      <g transform="translate(268.501268 392.598437)scale(0.1 -0.1)">
       <defs>
        <path d="M 37.796875 64.3125 
L 12.890625 25.390625 
L 37.796875 25.390625 
z
M 35.203125 72.90625 
L 47.609375 72.90625 
L 47.609375 25.390625 
L 58.015625 25.390625 
L 58.015625 17.1875 
L 47.609375 17.1875 
L 47.609375 0 
L 37.796875 0 
L 37.796875 17.1875 
L 4.890625 17.1875 
L 4.890625 26.703125 
z
" id="DejaVuSans-52"/>
       </defs>
       <use xlink:href="#DejaVuSans-48"/>
       <use x="63.623047" xlink:href="#DejaVuSans-46"/>
       <use x="95.410156" xlink:href="#DejaVuSans-52"/>
      </g>
     </g>
    </g>
    <g id="xtick_4">
     <g id="line2d_7">
      <path clip-path="url(#p7fc8b02e20)" d="M 360.679245 378 
L 360.679245 51.84 
" style="fill:none;stroke:#b0b0b0;stroke-linecap:square;stroke-width:0.8;"/>
     </g>
     <g id="line2d_8">
      <g>
       <use style="stroke:#000000;stroke-width:0.8;" x="360.679245" xlink:href="#m01ce331f81" y="378"/>
      </g>
     </g>
     <g id="text_4">
      <!-- 0.6 -->
      <g transform="translate(352.727683 392.598437)scale(0.1 -0.1)">
       <defs>
        <path d="M 33.015625 40.375 
Q 26.375 40.375 22.484375 35.828125 
Q 18.609375 31.296875 18.609375 23.390625 
Q 18.609375 15.53125 22.484375 10.953125 
Q 26.375 6.390625 33.015625 6.390625 
Q 39.65625 6.390625 43.53125 10.953125 
Q 47.40625 15.53125 47.40625 23.390625 
Q 47.40625 31.296875 43.53125 35.828125 
Q 39.65625 40.375 33.015625 40.375 
z
M 52.59375 71.296875 
L 52.59375 62.3125 
Q 48.875 64.0625 45.09375 64.984375 
Q 41.3125 65.921875 37.59375 65.921875 
Q 27.828125 65.921875 22.671875 59.328125 
Q 17.53125 52.734375 16.796875 39.40625 
Q 19.671875 43.65625 24.015625 45.921875 
Q 28.375 48.1875 33.59375 48.1875 
Q 44.578125 48.1875 50.953125 41.515625 
Q 57.328125 34.859375 57.328125 23.390625 
Q 57.328125 12.15625 50.6875 5.359375 
Q 44.046875 -1.421875 33.015625 -1.421875 
Q 20.359375 -1.421875 13.671875 8.265625 
Q 6.984375 17.96875 6.984375 36.375 
Q 6.984375 53.65625 15.1875 63.9375 
Q 23.390625 74.21875 37.203125 74.21875 
Q 40.921875 74.21875 44.703125 73.484375 
Q 48.484375 72.75 52.59375 71.296875 
z
" id="DejaVuSans-54"/>
       </defs>
       <use xlink:href="#DejaVuSans-48"/>
       <use x="63.623047" xlink:href="#DejaVuSans-46"/>
       <use x="95.410156" xlink:href="#DejaVuSans-54"/>
      </g>
     </g>
    </g>
    <g id="xtick_5">
     <g id="line2d_9">
      <path clip-path="url(#p7fc8b02e20)" d="M 444.90566 378 
L 444.90566 51.84 
" style="fill:none;stroke:#b0b0b0;stroke-linecap:square;stroke-width:0.8;"/>
     </g>
     <g id="line2d_10">
      <g>
       <use style="stroke:#000000;stroke-width:0.8;" x="444.90566" xlink:href="#m01ce331f81" y="378"/>
      </g>
     </g>
     <g id="text_5">
      <!-- 0.8 -->
      <g transform="translate(436.954098 392.598437)scale(0.1 -0.1)">
       <defs>
        <path d="M 31.78125 34.625 
Q 24.75 34.625 20.71875 30.859375 
Q 16.703125 27.09375 16.703125 20.515625 
Q 16.703125 13.921875 20.71875 10.15625 
Q 24.75 6.390625 31.78125 6.390625 
Q 38.8125 6.390625 42.859375 10.171875 
Q 46.921875 13.96875 46.921875 20.515625 
Q 46.921875 27.09375 42.890625 30.859375 
Q 38.875 34.625 31.78125 34.625 
z
M 21.921875 38.8125 
Q 15.578125 40.375 12.03125 44.71875 
Q 8.5 49.078125 8.5 55.328125 
Q 8.5 64.0625 14.71875 69.140625 
Q 20.953125 74.21875 31.78125 74.21875 
Q 42.671875 74.21875 48.875 69.140625 
Q 55.078125 64.0625 55.078125 55.328125 
Q 55.078125 49.078125 51.53125 44.71875 
Q 48 40.375 41.703125 38.8125 
Q 48.828125 37.15625 52.796875 32.3125 
Q 56.78125 27.484375 56.78125 20.515625 
Q 56.78125 9.90625 50.3125 4.234375 
Q 43.84375 -1.421875 31.78125 -1.421875 
Q 19.734375 -1.421875 13.25 4.234375 
Q 6.78125 9.90625 6.78125 20.515625 
Q 6.78125 27.484375 10.78125 32.3125 
Q 14.796875 37.15625 21.921875 38.8125 
z
M 18.3125 54.390625 
Q 18.3125 48.734375 21.84375 45.5625 
Q 25.390625 42.390625 31.78125 42.390625 
Q 38.140625 42.390625 41.71875 45.5625 
Q 45.3125 48.734375 45.3125 54.390625 
Q 45.3125 60.0625 41.71875 63.234375 
Q 38.140625 66.40625 31.78125 66.40625 
Q 25.390625 66.40625 21.84375 63.234375 
Q 18.3125 60.0625 18.3125 54.390625 
z
" id="DejaVuSans-56"/>
       </defs>
       <use xlink:href="#DejaVuSans-48"/>
       <use x="63.623047" xlink:href="#DejaVuSans-46"/>
       <use x="95.410156" xlink:href="#DejaVuSans-56"/>
      </g>
     </g>
    </g>
    <g id="xtick_6">
     <g id="line2d_11">
      <path clip-path="url(#p7fc8b02e20)" d="M 529.132075 378 
L 529.132075 51.84 
" style="fill:none;stroke:#b0b0b0;stroke-linecap:square;stroke-width:0.8;"/>
     </g>
     <g id="line2d_12">
      <g>
       <use style="stroke:#000000;stroke-width:0.8;" x="529.132075" xlink:href="#m01ce331f81" y="378"/>
      </g>
     </g>
     <g id="text_6">
      <!-- 1.0 -->
      <g transform="translate(521.180513 392.598437)scale(0.1 -0.1)">
       <defs>
        <path d="M 12.40625 8.296875 
L 28.515625 8.296875 
L 28.515625 63.921875 
L 10.984375 60.40625 
L 10.984375 69.390625 
L 28.421875 72.90625 
L 38.28125 72.90625 
L 38.28125 8.296875 
L 54.390625 8.296875 
L 54.390625 0 
L 12.40625 0 
z
" id="DejaVuSans-49"/>
       </defs>
       <use xlink:href="#DejaVuSans-49"/>
       <use x="63.623047" xlink:href="#DejaVuSans-46"/>
       <use x="95.410156" xlink:href="#DejaVuSans-48"/>
      </g>
     </g>
    </g>
    <g id="xtick_7">
     <g id="line2d_13">
      <path clip-path="url(#p7fc8b02e20)" d="M 613.358491 378 
L 613.358491 51.84 
" style="fill:none;stroke:#b0b0b0;stroke-linecap:square;stroke-width:0.8;"/>
     </g>
     <g id="line2d_14">
      <g>
       <use style="stroke:#000000;stroke-width:0.8;" x="613.358491" xlink:href="#m01ce331f81" y="378"/>
      </g>
     </g>
     <g id="text_7">
      <!-- 1.2 -->
      <g transform="translate(605.406928 392.598437)scale(0.1 -0.1)">
       <use xlink:href="#DejaVuSans-49"/>
       <use x="63.623047" xlink:href="#DejaVuSans-46"/>
       <use x="95.410156" xlink:href="#DejaVuSans-50"/>
      </g>
     </g>
    </g>
    <g id="xtick_8">
     <g id="line2d_15">
      <path clip-path="url(#p7fc8b02e20)" d="M 697.584906 378 
L 697.584906 51.84 
" style="fill:none;stroke:#b0b0b0;stroke-linecap:square;stroke-width:0.8;"/>
     </g>
     <g id="line2d_16">
      <g>
       <use style="stroke:#000000;stroke-width:0.8;" x="697.584906" xlink:href="#m01ce331f81" y="378"/>
      </g>
     </g>
     <g id="text_8">
      <!-- 1.4 -->
      <g transform="translate(689.633343 392.598437)scale(0.1 -0.1)">
       <use xlink:href="#DejaVuSans-49"/>
       <use x="63.623047" xlink:href="#DejaVuSans-46"/>
       <use x="95.410156" xlink:href="#DejaVuSans-52"/>
      </g>
     </g>
    </g>
    <g id="text_9">
     <!-- time (s) -->
     <g transform="translate(423.408594 406.276563)scale(0.1 -0.1)">
      <defs>
       <path d="M 18.3125 70.21875 
L 18.3125 54.6875 
L 36.8125 54.6875 
L 36.8125 47.703125 
L 18.3125 47.703125 
L 18.3125 18.015625 
Q 18.3125 11.328125 20.140625 9.421875 
Q 21.96875 7.515625 27.59375 7.515625 
L 36.8125 7.515625 
L 36.8125 0 
L 27.59375 0 
Q 17.1875 0 13.234375 3.875 
Q 9.28125 7.765625 9.28125 18.015625 
L 9.28125 47.703125 
L 2.6875 47.703125 
L 2.6875 54.6875 
L 9.28125 54.6875 
L 9.28125 70.21875 
z
" id="DejaVuSans-116"/>
       <path d="M 9.421875 54.6875 
L 18.40625 54.6875 
L 18.40625 0 
L 9.421875 0 
z
M 9.421875 75.984375 
L 18.40625 75.984375 
L 18.40625 64.59375 
L 9.421875 64.59375 
z
" id="DejaVuSans-105"/>
       <path d="M 52 44.1875 
Q 55.375 50.25 60.0625 53.125 
Q 64.75 56 71.09375 56 
Q 79.640625 56 84.28125 50.015625 
Q 88.921875 44.046875 88.921875 33.015625 
L 88.921875 0 
L 79.890625 0 
L 79.890625 32.71875 
Q 79.890625 40.578125 77.09375 44.375 
Q 74.3125 48.1875 68.609375 48.1875 
Q 61.625 48.1875 57.5625 43.546875 
Q 53.515625 38.921875 53.515625 30.90625 
L 53.515625 0 
L 44.484375 0 
L 44.484375 32.71875 
Q 44.484375 40.625 41.703125 44.40625 
Q 38.921875 48.1875 33.109375 48.1875 
Q 26.21875 48.1875 22.15625 43.53125 
Q 18.109375 38.875 18.109375 30.90625 
L 18.109375 0 
L 9.078125 0 
L 9.078125 54.6875 
L 18.109375 54.6875 
L 18.109375 46.1875 
Q 21.1875 51.21875 25.484375 53.609375 
Q 29.78125 56 35.6875 56 
Q 41.65625 56 45.828125 52.96875 
Q 50 49.953125 52 44.1875 
z
" id="DejaVuSans-109"/>
       <path d="M 56.203125 29.59375 
L 56.203125 25.203125 
L 14.890625 25.203125 
Q 15.484375 15.921875 20.484375 11.0625 
Q 25.484375 6.203125 34.421875 6.203125 
Q 39.59375 6.203125 44.453125 7.46875 
Q 49.3125 8.734375 54.109375 11.28125 
L 54.109375 2.78125 
Q 49.265625 0.734375 44.1875 -0.34375 
Q 39.109375 -1.421875 33.890625 -1.421875 
Q 20.796875 -1.421875 13.15625 6.1875 
Q 5.515625 13.8125 5.515625 26.8125 
Q 5.515625 40.234375 12.765625 48.109375 
Q 20.015625 56 32.328125 56 
Q 43.359375 56 49.78125 48.890625 
Q 56.203125 41.796875 56.203125 29.59375 
z
M 47.21875 32.234375 
Q 47.125 39.59375 43.09375 43.984375 
Q 39.0625 48.390625 32.421875 48.390625 
Q 24.90625 48.390625 20.390625 44.140625 
Q 15.875 39.890625 15.1875 32.171875 
z
" id="DejaVuSans-101"/>
       <path id="DejaVuSans-32"/>
       <path d="M 31 75.875 
Q 24.46875 64.65625 21.28125 53.65625 
Q 18.109375 42.671875 18.109375 31.390625 
Q 18.109375 20.125 21.3125 9.0625 
Q 24.515625 -2 31 -13.1875 
L 23.1875 -13.1875 
Q 15.875 -1.703125 12.234375 9.375 
Q 8.59375 20.453125 8.59375 31.390625 
Q 8.59375 42.28125 12.203125 53.3125 
Q 15.828125 64.359375 23.1875 75.875 
z
" id="DejaVuSans-40"/>
       <path d="M 44.28125 53.078125 
L 44.28125 44.578125 
Q 40.484375 46.53125 36.375 47.5 
Q 32.28125 48.484375 27.875 48.484375 
Q 21.1875 48.484375 17.84375 46.4375 
Q 14.5 44.390625 14.5 40.28125 
Q 14.5 37.15625 16.890625 35.375 
Q 19.28125 33.59375 26.515625 31.984375 
L 29.59375 31.296875 
Q 39.15625 29.25 43.1875 25.515625 
Q 47.21875 21.78125 47.21875 15.09375 
Q 47.21875 7.46875 41.1875 3.015625 
Q 35.15625 -1.421875 24.609375 -1.421875 
Q 20.21875 -1.421875 15.453125 -0.5625 
Q 10.6875 0.296875 5.421875 2 
L 5.421875 11.28125 
Q 10.40625 8.6875 15.234375 7.390625 
Q 20.0625 6.109375 24.8125 6.109375 
Q 31.15625 6.109375 34.5625 8.28125 
Q 37.984375 10.453125 37.984375 14.40625 
Q 37.984375 18.0625 35.515625 20.015625 
Q 33.0625 21.96875 24.703125 23.78125 
L 21.578125 24.515625 
Q 13.234375 26.265625 9.515625 29.90625 
Q 5.8125 33.546875 5.8125 39.890625 
Q 5.8125 47.609375 11.28125 51.796875 
Q 16.75 56 26.8125 56 
Q 31.78125 56 36.171875 55.265625 
Q 40.578125 54.546875 44.28125 53.078125 
z
" id="DejaVuSans-115"/>
       <path d="M 8.015625 75.875 
L 15.828125 75.875 
Q 23.140625 64.359375 26.78125 53.3125 
Q 30.421875 42.28125 30.421875 31.390625 
Q 30.421875 20.453125 26.78125 9.375 
Q 23.140625 -1.703125 15.828125 -13.1875 
L 8.015625 -13.1875 
Q 14.5 -2 17.703125 9.0625 
Q 20.90625 20.125 20.90625 31.390625 
Q 20.90625 42.671875 17.703125 53.65625 
Q 14.5 64.65625 8.015625 75.875 
z
" id="DejaVuSans-41"/>
      </defs>
      <use xlink:href="#DejaVuSans-116"/>
      <use x="39.208984" xlink:href="#DejaVuSans-105"/>
      <use x="66.992188" xlink:href="#DejaVuSans-109"/>
      <use x="164.404297" xlink:href="#DejaVuSans-101"/>
      <use x="225.927734" xlink:href="#DejaVuSans-32"/>
      <use x="257.714844" xlink:href="#DejaVuSans-40"/>
      <use x="296.728516" xlink:href="#DejaVuSans-115"/>
      <use x="348.828125" xlink:href="#DejaVuSans-41"/>
     </g>
    </g>
   </g>
   <g id="matplotlib.axis_2">
    <g id="ytick_1">
     <g id="line2d_17">
      <path clip-path="url(#p7fc8b02e20)" d="M 108 378 
L 777.6 378 
" style="fill:none;stroke:#b0b0b0;stroke-linecap:square;stroke-width:0.8;"/>
     </g>
     <g id="line2d_18">
      <defs>
       <path d="M 0 0 
L -3.5 0 
" id="m572bad7d9e" style="stroke:#000000;stroke-width:0.8;"/>
      </defs>
      <g>
       <use style="stroke:#000000;stroke-width:0.8;" x="108" xlink:href="#m572bad7d9e" y="378"/>
      </g>
     </g>
     <g id="text_10">
      <!-- −15 -->
      <g transform="translate(79.895313 381.799219)scale(0.1 -0.1)">
       <defs>
        <path d="M 10.59375 35.5 
L 73.1875 35.5 
L 73.1875 27.203125 
L 10.59375 27.203125 
z
" id="DejaVuSans-8722"/>
        <path d="M 10.796875 72.90625 
L 49.515625 72.90625 
L 49.515625 64.59375 
L 19.828125 64.59375 
L 19.828125 46.734375 
Q 21.96875 47.46875 24.109375 47.828125 
Q 26.265625 48.1875 28.421875 48.1875 
Q 40.625 48.1875 47.75 41.5 
Q 54.890625 34.8125 54.890625 23.390625 
Q 54.890625 11.625 47.5625 5.09375 
Q 40.234375 -1.421875 26.90625 -1.421875 
Q 22.3125 -1.421875 17.546875 -0.640625 
Q 12.796875 0.140625 7.71875 1.703125 
L 7.71875 11.625 
Q 12.109375 9.234375 16.796875 8.0625 
Q 21.484375 6.890625 26.703125 6.890625 
Q 35.15625 6.890625 40.078125 11.328125 
Q 45.015625 15.765625 45.015625 23.390625 
Q 45.015625 31 40.078125 35.4375 
Q 35.15625 39.890625 26.703125 39.890625 
Q 22.75 39.890625 18.8125 39.015625 
Q 14.890625 38.140625 10.796875 36.28125 
z
" id="DejaVuSans-53"/>
       </defs>
       <use xlink:href="#DejaVuSans-8722"/>
       <use x="83.789062" xlink:href="#DejaVuSans-49"/>
       <use x="147.412109" xlink:href="#DejaVuSans-53"/>
      </g>
     </g>
    </g>
    <g id="ytick_2">
     <g id="line2d_19">
      <path clip-path="url(#p7fc8b02e20)" d="M 108 323.64 
L 777.6 323.64 
" style="fill:none;stroke:#b0b0b0;stroke-linecap:square;stroke-width:0.8;"/>
     </g>
     <g id="line2d_20">
      <g>
       <use style="stroke:#000000;stroke-width:0.8;" x="108" xlink:href="#m572bad7d9e" y="323.64"/>
      </g>
     </g>
     <g id="text_11">
      <!-- −10 -->
      <g transform="translate(79.895313 327.439219)scale(0.1 -0.1)">
       <use xlink:href="#DejaVuSans-8722"/>
       <use x="83.789062" xlink:href="#DejaVuSans-49"/>
       <use x="147.412109" xlink:href="#DejaVuSans-48"/>
      </g>
     </g>
    </g>
    <g id="ytick_3">
     <g id="line2d_21">
      <path clip-path="url(#p7fc8b02e20)" d="M 108 269.28 
L 777.6 269.28 
" style="fill:none;stroke:#b0b0b0;stroke-linecap:square;stroke-width:0.8;"/>
     </g>
     <g id="line2d_22">
      <g>
       <use style="stroke:#000000;stroke-width:0.8;" x="108" xlink:href="#m572bad7d9e" y="269.28"/>
      </g>
     </g>
     <g id="text_12">
      <!-- −5 -->
      <g transform="translate(86.257812 273.079219)scale(0.1 -0.1)">
       <use xlink:href="#DejaVuSans-8722"/>
       <use x="83.789062" xlink:href="#DejaVuSans-53"/>
      </g>
     </g>
    </g>
    <g id="ytick_4">
     <g id="line2d_23">
      <path clip-path="url(#p7fc8b02e20)" d="M 108 214.92 
L 777.6 214.92 
" style="fill:none;stroke:#b0b0b0;stroke-linecap:square;stroke-width:0.8;"/>
     </g>
     <g id="line2d_24">
      <g>
       <use style="stroke:#000000;stroke-width:0.8;" x="108" xlink:href="#m572bad7d9e" y="214.92"/>
      </g>
     </g>
     <g id="text_13">
      <!-- 0 -->
      <g transform="translate(94.6375 218.719219)scale(0.1 -0.1)">
       <use xlink:href="#DejaVuSans-48"/>
      </g>
     </g>
    </g>
    <g id="ytick_5">
     <g id="line2d_25">
      <path clip-path="url(#p7fc8b02e20)" d="M 108 160.56 
L 777.6 160.56 
" style="fill:none;stroke:#b0b0b0;stroke-linecap:square;stroke-width:0.8;"/>
     </g>
     <g id="line2d_26">
      <g>
       <use style="stroke:#000000;stroke-width:0.8;" x="108" xlink:href="#m572bad7d9e" y="160.56"/>
      </g>
     </g>
     <g id="text_14">
      <!-- 5 -->
      <g transform="translate(94.6375 164.359219)scale(0.1 -0.1)">
       <use xlink:href="#DejaVuSans-53"/>
      </g>
     </g>
    </g>
    <g id="ytick_6">
     <g id="line2d_27">
      <path clip-path="url(#p7fc8b02e20)" d="M 108 106.2 
L 777.6 106.2 
" style="fill:none;stroke:#b0b0b0;stroke-linecap:square;stroke-width:0.8;"/>
     </g>
     <g id="line2d_28">
      <g>
       <use style="stroke:#000000;stroke-width:0.8;" x="108" xlink:href="#m572bad7d9e" y="106.2"/>
      </g>
     </g>
     <g id="text_15">
      <!-- 10 -->
      <g transform="translate(88.275 109.999219)scale(0.1 -0.1)">
       <use xlink:href="#DejaVuSans-49"/>
       <use x="63.623047" xlink:href="#DejaVuSans-48"/>
      </g>
     </g>
    </g>
    <g id="ytick_7">
     <g id="line2d_29">
      <path clip-path="url(#p7fc8b02e20)" d="M 108 51.84 
L 777.6 51.84 
" style="fill:none;stroke:#b0b0b0;stroke-linecap:square;stroke-width:0.8;"/>
     </g>
     <g id="line2d_30">
      <g>
       <use style="stroke:#000000;stroke-width:0.8;" x="108" xlink:href="#m572bad7d9e" y="51.84"/>
      </g>
     </g>
     <g id="text_16">
      <!-- 15 -->
      <g transform="translate(88.275 55.639219)scale(0.1 -0.1)">
       <use xlink:href="#DejaVuSans-49"/>
       <use x="63.623047" xlink:href="#DejaVuSans-53"/>
      </g>
     </g>
    </g>
    <g id="text_17">
     <!-- a(t) -->
     <g transform="translate(73.815625 223.845781)rotate(-90)scale(0.1 -0.1)">
      <defs>
       <path d="M 34.28125 27.484375 
Q 23.390625 27.484375 19.1875 25 
Q 14.984375 22.515625 14.984375 16.5 
Q 14.984375 11.71875 18.140625 8.90625 
Q 21.296875 6.109375 26.703125 6.109375 
Q 34.1875 6.109375 38.703125 11.40625 
Q 43.21875 16.703125 43.21875 25.484375 
L 43.21875 27.484375 
z
M 52.203125 31.203125 
L 52.203125 0 
L 43.21875 0 
L 43.21875 8.296875 
Q 40.140625 3.328125 35.546875 0.953125 
Q 30.953125 -1.421875 24.3125 -1.421875 
Q 15.921875 -1.421875 10.953125 3.296875 
Q 6 8.015625 6 15.921875 
Q 6 25.140625 12.171875 29.828125 
Q 18.359375 34.515625 30.609375 34.515625 
L 43.21875 34.515625 
L 43.21875 35.40625 
Q 43.21875 41.609375 39.140625 45 
Q 35.0625 48.390625 27.6875 48.390625 
Q 23 48.390625 18.546875 47.265625 
Q 14.109375 46.140625 10.015625 43.890625 
L 10.015625 52.203125 
Q 14.9375 54.109375 19.578125 55.046875 
Q 24.21875 56 28.609375 56 
Q 40.484375 56 46.34375 49.84375 
Q 52.203125 43.703125 52.203125 31.203125 
z
" id="DejaVuSans-97"/>
      </defs>
      <use xlink:href="#DejaVuSans-97"/>
      <use x="61.279297" xlink:href="#DejaVuSans-40"/>
      <use x="100.292969" xlink:href="#DejaVuSans-116"/>
      <use x="139.501953" xlink:href="#DejaVuSans-41"/>
     </g>
    </g>
   </g>
   <g id="line2d_31">
    <path clip-path="url(#p7fc8b02e20)" d="M 108 222.03726 
L 109.146705 215.080366 
L 110.29341 209.059924 
L 111.440116 205.578462 
L 112.586821 195.340892 
L 114.880231 151.989513 
L 116.026936 139.308205 
L 117.173642 123.861853 
L 118.320347 112.282886 
L 119.467052 107.062753 
L 120.613757 113.546086 
L 121.760462 130.420306 
L 122.907168 142.563731 
L 124.053873 140.868791 
L 125.200578 132.190124 
L 126.347283 114.536649 
L 127.493988 100.157121 
L 128.640694 99.040295 
L 129.787399 103.573901 
L 132.080809 116.745699 
L 133.227514 131.218314 
L 134.37422 154.642812 
L 135.520925 169.168978 
L 136.66763 190.246917 
L 137.814335 208.794927 
L 138.96104 222.127337 
L 140.107746 227.208999 
L 141.254451 225.463959 
L 142.401156 221.411222 
L 143.547861 211.075197 
L 144.694566 205.677909 
L 145.841272 204.374945 
L 146.987977 215.521703 
L 148.134682 231.418031 
L 149.281387 245.186399 
L 150.428092 280.002813 
L 151.574798 309.173176 
L 152.721503 320.261809 
L 153.868208 322.929201 
L 155.014913 326.563112 
L 156.161618 331.532011 
L 157.308324 332.751531 
L 158.455029 326.121994 
L 159.601734 310.11323 
L 160.748439 280.036362 
L 161.895144 256.908762 
L 164.188555 235.143316 
L 165.33526 240.145765 
L 166.481965 253.993429 
L 167.62867 263.082502 
L 168.775376 266.922612 
L 169.922081 260.227128 
L 171.068786 245.365177 
L 172.215491 236.315375 
L 173.362196 231.942519 
L 175.655607 219.518415 
L 176.802312 208.257554 
L 177.949017 199.206612 
L 179.095722 179.918566 
L 180.242428 151.826515 
L 181.389133 139.727536 
L 182.535838 140.541889 
L 183.682543 153.592066 
L 184.829248 167.979025 
L 185.975954 176.163263 
L 188.269364 189.36904 
L 189.416069 193.537268 
L 190.562774 191.80931 
L 191.70948 183.159812 
L 192.856185 167.271124 
L 194.00289 148.259052 
L 195.149595 136.425037 
L 196.2963 128.623412 
L 197.443006 122.420839 
L 198.589711 131.30891 
L 199.736416 153.272582 
L 202.029826 200.215268 
L 203.176532 209.526125 
L 204.323237 217.410872 
L 206.616647 225.152095 
L 207.763352 227.732284 
L 208.910058 223.689872 
L 210.056763 213.485509 
L 211.203468 211.135522 
L 212.350173 208.156237 
L 214.643584 196.677323 
L 215.790289 197.142796 
L 216.936994 209.114048 
L 218.083699 225.277246 
L 220.37711 269.356594 
L 222.67052 297.743074 
L 223.817225 307.430942 
L 224.96393 305.703484 
L 226.110636 293.729361 
L 227.257341 273.484869 
L 228.404046 261.670042 
L 229.550751 255.771148 
L 230.697456 242.296801 
L 231.844162 231.217695 
L 232.990867 221.750977 
L 234.137572 217.63855 
L 235.284277 219.709331 
L 236.430982 229.264917 
L 237.577688 245.635232 
L 238.724393 251.31243 
L 239.871098 253.387505 
L 241.017803 249.845581 
L 242.164508 241.821632 
L 244.457919 222.831035 
L 245.604624 215.013893 
L 247.898034 194.320525 
L 249.044739 188.299193 
L 250.191445 178.719375 
L 251.33815 170.599121 
L 252.484855 166.172381 
L 253.63156 168.918272 
L 255.924971 186.047543 
L 257.071676 197.61503 
L 258.218381 203.199159 
L 259.365086 212.862249 
L 260.511791 221.216313 
L 261.658497 216.169823 
L 262.805202 208.04733 
L 263.951907 185.894617 
L 265.098612 166.925121 
L 266.245317 156.525526 
L 267.392023 153.512784 
L 268.538728 157.79311 
L 269.685433 165.287245 
L 270.832138 182.529455 
L 271.978843 192.278414 
L 273.125549 203.05605 
L 274.272254 211.128486 
L 276.565664 219.479108 
L 277.712369 225.986057 
L 278.859075 228.919936 
L 280.00578 226.959892 
L 282.29919 210.197841 
L 283.445895 199.272356 
L 284.592601 196.596627 
L 285.739306 197.298007 
L 286.886011 200.340214 
L 288.032716 206.924833 
L 289.179421 215.12586 
L 290.326127 225.326563 
L 291.472832 231.507154 
L 292.619537 242.34967 
L 293.766242 254.710778 
L 294.912947 265.686554 
L 296.059653 271.992497 
L 297.206358 272.350134 
L 298.353063 264.310032 
L 300.646473 240.503682 
L 301.793179 233.283981 
L 302.939884 227.30563 
L 304.086589 219.495199 
L 305.233294 218.688151 
L 306.379999 219.780439 
L 307.526705 222.300176 
L 308.67341 223.3472 
L 309.820115 226.743083 
L 310.96682 234.752998 
L 312.113525 238.923644 
L 313.260231 241.469444 
L 314.406936 241.002915 
L 315.553641 235.298088 
L 316.700346 228.874279 
L 317.847051 220.491399 
L 318.993757 214.104761 
L 320.140462 206.499617 
L 321.287167 197.681347 
L 322.433872 193.393908 
L 323.580577 191.358594 
L 324.727283 192.31255 
L 325.873988 192.028164 
L 327.020693 192.014867 
L 328.167398 194.263596 
L 329.314103 197.090561 
L 330.460809 203.476955 
L 331.607514 209.153966 
L 333.900924 216.573608 
L 335.047629 219.395423 
L 336.194335 218.499055 
L 337.34104 206.71172 
L 338.487745 197.07372 
L 339.63445 186.035296 
L 340.781155 178.123254 
L 343.074566 182.653038 
L 344.221271 190.377526 
L 345.367976 196.287396 
L 346.514681 203.672413 
L 347.661387 207.963973 
L 348.808092 210.803072 
L 349.954797 212.258577 
L 351.101502 213.319366 
L 352.248207 216.7277 
L 353.394913 219.456013 
L 354.541618 220.248368 
L 355.688323 215.209757 
L 356.835028 205.961105 
L 357.981733 203.494782 
L 359.128439 201.856712 
L 360.275144 202.99113 
L 361.421849 205.690126 
L 362.568554 209.472984 
L 364.861965 217.862452 
L 366.00867 221.544487 
L 367.155375 227.16105 
L 369.448785 234.074056 
L 370.595491 241.158361 
L 371.742196 244.689217 
L 372.888901 243.968621 
L 374.035606 236.973459 
L 375.182311 231.138547 
L 376.329017 228.07589 
L 377.475722 223.282151 
L 378.622427 220.058507 
L 379.769132 219.211893 
L 380.915837 219.581216 
L 382.062543 220.069828 
L 384.355953 224.965609 
L 385.502658 226.47924 
L 386.649363 226.484131 
L 387.796069 228.894504 
L 388.942774 231.565267 
L 390.089479 231.424244 
L 392.382889 225.70345 
L 394.6763 217.887196 
L 395.823005 213.335303 
L 396.96971 207.35853 
L 398.116415 203.635777 
L 399.263121 203.558975 
L 400.409826 204.755717 
L 401.556531 206.570559 
L 402.703236 206.132396 
L 403.849941 204.771682 
L 404.996647 204.946795 
L 406.143352 207.794151 
L 407.290057 210.20547 
L 408.436762 210.329161 
L 409.583467 211.690676 
L 410.730173 214.291784 
L 411.876878 215.369061 
L 413.023583 212.781094 
L 414.170288 207.811834 
L 415.316993 203.457782 
L 416.463699 199.793357 
L 417.610404 198.040083 
L 418.757109 199.854925 
L 419.903814 200.390749 
L 421.050519 201.121973 
L 423.34393 205.66727 
L 424.490635 208.504982 
L 425.63734 209.588147 
L 426.784045 210.286058 
L 427.930751 211.428416 
L 430.224161 214.627099 
L 431.370866 214.650366 
L 433.664277 210.614178 
L 434.810982 210.195368 
L 435.957687 210.230776 
L 437.104392 210.659177 
L 438.251097 209.996062 
L 439.397803 210.347982 
L 441.691213 215.877122 
L 442.837918 217.225584 
L 443.984623 217.773739 
L 445.131329 219.374584 
L 446.278034 221.524737 
L 447.424739 223.174187 
L 448.571444 225.379662 
L 449.718149 225.566793 
L 450.864855 224.305001 
L 452.01156 224.630742 
L 453.158265 224.831266 
L 454.30497 223.078483 
L 455.451675 220.966984 
L 456.598381 219.480219 
L 457.745086 218.804466 
L 458.891791 220.544039 
L 460.038496 222.078913 
L 461.185201 222.653667 
L 462.331907 221.431561 
L 463.478612 221.19634 
L 464.625317 222.56039 
L 465.772022 223.725549 
L 469.212138 222.113363 
L 470.358843 221.296346 
L 471.505548 220.92407 
L 472.652253 219.253562 
L 473.798959 215.864237 
L 474.945664 213.617982 
L 476.092369 212.526845 
L 477.239074 212.173963 
L 478.385779 211.679346 
L 479.532485 210.860994 
L 480.67919 211.215107 
L 481.825895 210.452511 
L 484.119305 211.602009 
L 485.266011 211.710965 
L 486.412716 210.628546 
L 488.706126 213.434093 
L 489.852831 213.929935 
L 490.999537 212.892302 
L 492.146242 211.391567 
L 493.292947 209.650723 
L 494.439652 208.568869 
L 495.586357 208.28959 
L 496.733063 207.851543 
L 497.879768 207.618163 
L 499.026473 207.806279 
L 500.173178 208.186614 
L 501.319883 210.042915 
L 502.466589 211.283058 
L 503.613294 210.122319 
L 504.759999 210.634198 
L 505.906704 211.511543 
L 507.053409 213.645177 
L 508.200115 213.877849 
L 509.34682 213.89924 
L 510.493525 212.945566 
L 512.786935 213.296117 
L 513.933641 212.353638 
L 515.080346 212.201325 
L 516.227051 212.273047 
L 517.373756 212.552631 
L 519.667166 214.984678 
L 520.813872 216.279687 
L 521.960577 214.69201 
L 523.107282 215.109202 
L 524.253987 217.580924 
L 527.694103 218.729807 
L 528.840808 218.622375 
L 531.134218 218.631799 
L 532.280924 217.853051 
L 533.427629 217.648551 
L 534.574334 217.141219 
L 535.721039 217.069203 
L 538.01445 218.715128 
L 539.161155 218.103415 
L 540.30786 218.067584 
L 541.454565 218.951738 
L 542.60127 218.628353 
L 543.747976 218.952636 
L 544.894681 219.394713 
L 546.041386 219.418749 
L 547.188091 218.782244 
L 548.334796 219.299319 
L 549.481502 218.565542 
L 550.628207 216.770771 
L 551.774912 215.535612 
L 552.921617 214.629443 
L 554.068322 214.823292 
L 555.215028 214.846635 
L 556.361733 214.501154 
L 557.508438 214.034422 
L 558.655143 214.89553 
L 559.801848 214.603464 
L 562.095259 213.519806 
L 563.241964 213.882126 
L 564.388669 213.956973 
L 565.535374 213.814509 
L 566.68208 214.663849 
L 567.828785 214.469608 
L 568.97549 213.658492 
L 570.122195 212.281502 
L 571.2689 212.421666 
L 573.562311 212.244777 
L 574.709016 211.506092 
L 575.855721 211.726008 
L 577.002426 212.668636 
L 579.295837 212.271455 
L 580.442542 213.333508 
L 581.589247 213.228805 
L 583.882658 213.324984 
L 585.029363 214.170948 
L 586.176068 214.208757 
L 587.322773 213.710031 
L 588.469478 213.508357 
L 591.909594 214.010468 
L 593.056299 213.789142 
L 594.203004 213.365584 
L 595.34971 213.298615 
L 596.496415 213.647821 
L 597.64312 214.936798 
L 599.93653 215.298509 
L 601.083236 215.869572 
L 602.229941 216.910695 
L 603.376646 216.890745 
L 604.523351 216.595383 
L 606.816762 215.573047 
L 607.963467 215.409531 
L 609.110172 215.035615 
L 610.256877 215.340649 
L 611.403582 216.108871 
L 612.550288 216.1165 
L 613.696993 215.766962 
L 614.843698 216.069435 
L 615.990403 216.154973 
L 617.137108 215.626821 
L 619.430519 216.948882 
L 620.577224 217.152993 
L 622.870634 217.138565 
L 625.164045 216.348914 
L 626.31075 216.04644 
L 627.457455 215.603736 
L 628.60416 215.822661 
L 629.750866 215.606882 
L 630.897571 215.064623 
L 632.044276 215.037344 
L 633.190981 215.35498 
L 634.337686 214.380361 
L 635.484392 215.113278 
L 636.631097 215.309076 
L 637.777802 215.211754 
L 638.924507 214.620053 
L 640.071212 214.644682 
L 641.217918 215.168707 
L 642.364623 215.055642 
L 643.511328 214.684488 
L 644.658033 214.827688 
L 645.804738 214.55321 
L 646.951444 214.504557 
L 648.098149 213.287307 
L 649.244854 213.667818 
L 650.391559 214.236138 
L 651.538264 214.096535 
L 652.68497 214.174519 
L 653.831675 214.035339 
L 654.97838 214.205137 
L 656.125085 214.085817 
L 659.565201 215.593418 
L 660.711906 214.317889 
L 661.858611 214.60863 
L 663.005316 215.159358 
L 664.152022 213.740735 
L 665.298727 213.559967 
L 666.445432 213.852659 
L 667.592137 214.783768 
L 668.738842 213.648899 
L 669.885548 213.15268 
L 671.032253 213.831165 
L 673.325663 214.098064 
L 674.472368 213.68517 
L 675.619074 214.285955 
L 676.765779 215.068338 
L 679.059189 214.484239 
L 681.3526 215.024955 
L 682.499305 214.750281 
L 683.64601 214.953457 
L 684.792715 214.791977 
L 685.93942 214.381109 
L 687.086126 215.268105 
L 688.232831 214.639891 
L 689.379536 214.633658 
L 690.526241 215.043295 
L 691.672946 215.591667 
L 692.819652 214.996448 
L 695.113062 215.081085 
L 697.406472 215.795727 
L 698.553178 215.242147 
L 699.699883 215.305163 
L 700.846588 215.243725 
L 701.993293 215.595841 
L 703.139998 215.511388 
L 704.286704 214.668831 
L 705.433409 215.522084 
L 706.580114 214.63436 
L 707.726819 214.766071 
L 708.873524 215.15758 
L 711.166935 214.735413 
L 712.31364 215.533016 
L 713.460345 215.935861 
L 714.60705 215.90074 
L 715.753756 215.295153 
L 716.900461 215.176438 
L 718.047166 215.542444 
L 720.340576 215.438271 
L 721.487282 215.516947 
L 722.633987 214.600545 
L 723.780692 215.415494 
L 724.927397 215.25844 
L 726.074102 215.564666 
L 727.220808 214.959533 
L 728.367513 214.745733 
L 729.514218 215.21716 
L 730.660923 214.509419 
L 732.954334 215.1238 
L 734.101039 214.782972 
L 735.247744 215.231388 
L 736.394449 215.37939 
L 737.541154 215.101859 
L 738.68786 214.303083 
L 739.834565 214.120123 
L 740.98127 214.69995 
L 742.127975 214.414947 
L 743.27468 214.399946 
L 744.421386 214.516619 
L 745.568091 214.098057 
L 746.714796 213.946253 
L 749.008206 214.710596 
L 750.154912 214.713191 
L 751.301617 214.398668 
L 752.448322 214.461929 
L 753.595027 214.648066 
L 755.888438 214.228596 
L 757.035143 214.443119 
L 758.181848 214.29331 
L 759.328553 213.870516 
L 760.475258 213.666619 
L 762.768669 214.433561 
L 763.915374 214.456284 
L 765.062079 214.815732 
L 766.208784 214.222827 
L 767.35549 214.635896 
L 768.502195 214.31631 
L 769.6489 214.952891 
L 770.795605 214.47354 
L 773.089016 214.995182 
L 774.235721 214.696214 
L 775.382426 215.202801 
L 776.529131 215.075729 
L 776.529131 215.075729 
" style="fill:none;stroke:#1f77b4;stroke-linecap:square;stroke-width:1.5;"/>
   </g>
   <g id="line2d_32">
    <path clip-path="url(#p7fc8b02e20)" d="M 108 206.310453 
L 110.29341 182.912332 
L 112.586821 161.782621 
L 114.880231 143.724613 
L 116.026936 136.055082 
L 117.173642 129.380426 
L 118.320347 123.752312 
L 119.467052 119.210196 
L 120.613757 115.781146 
L 121.760462 113.479791 
L 122.907168 112.308418 
L 124.053873 112.257187 
L 125.200578 113.304479 
L 126.347283 115.41736 
L 127.493988 118.552154 
L 128.640694 122.655125 
L 129.787399 127.663252 
L 130.934104 133.505084 
L 132.080809 140.101668 
L 134.37422 155.21181 
L 136.66763 172.250964 
L 145.841272 243.753116 
L 148.134682 258.686819 
L 149.281387 265.271344 
L 150.428092 271.187288 
L 151.574798 276.384637 
L 152.721503 280.82205 
L 153.868208 284.467129 
L 155.014913 287.296584 
L 156.161618 289.29631 
L 157.308324 290.461348 
L 158.455029 290.795761 
L 159.601734 290.312412 
L 160.748439 289.032651 
L 161.895144 286.985919 
L 163.04185 284.209276 
L 164.188555 280.746849 
L 165.33526 276.649224 
L 166.481965 271.972777 
L 168.775376 261.133523 
L 171.068786 248.767694 
L 174.508902 228.635052 
L 179.095722 201.951721 
L 181.389133 189.934385 
L 183.682543 179.442975 
L 184.829248 174.892855 
L 185.975954 170.860687 
L 187.122659 167.379327 
L 188.269364 164.47509 
L 189.416069 162.167604 
L 190.562774 160.469728 
L 191.70948 159.387549 
L 192.856185 158.920451 
L 194.00289 159.061255 
L 195.149595 159.796427 
L 196.2963 161.106345 
L 197.443006 162.965632 
L 198.589711 165.343539 
L 199.736416 168.204381 
L 200.883121 171.50802 
L 203.176532 179.263973 
L 205.469942 188.221544 
L 208.910058 202.975617 
L 213.496878 222.801876 
L 215.790289 231.842141 
L 218.083699 239.813618 
L 219.230404 243.303861 
L 220.37711 246.421598 
L 221.523815 249.140872 
L 222.67052 251.440497 
L 223.817225 253.304194 
L 224.96393 254.720666 
L 226.110636 255.683621 
L 227.257341 256.191739 
L 228.404046 256.248589 
L 229.550751 255.862494 
L 230.697456 255.046346 
L 231.844162 253.817382 
L 232.990867 252.196909 
L 234.137572 250.209998 
L 235.284277 247.885141 
L 237.577688 242.350409 
L 239.871098 235.874338 
L 243.311214 225.078433 
L 247.898034 210.367652 
L 250.191445 203.577793 
L 252.484855 197.532927 
L 254.778265 192.4591 
L 255.924971 190.343499 
L 257.071676 188.532498 
L 258.218381 187.039429 
L 259.365086 185.873963 
L 260.511791 185.042075 
L 261.658497 184.546057 
L 262.805202 184.384566 
L 263.951907 184.552707 
L 265.098612 185.042161 
L 266.245317 185.841335 
L 267.392023 186.935557 
L 268.538728 188.307291 
L 269.685433 189.936381 
L 271.978843 193.874527 
L 274.272254 198.546978 
L 277.712369 206.434222 
L 283.445895 219.932593 
L 285.739306 224.789733 
L 288.032716 229.039792 
L 290.326127 232.527105 
L 291.472832 233.946453 
L 292.619537 235.134312 
L 293.766242 236.082564 
L 294.912947 236.785814 
L 296.059653 237.241392 
L 297.206358 237.449329 
L 298.353063 237.412303 
L 299.499768 237.135558 
L 300.646473 236.626795 
L 301.793179 235.896046 
L 302.939884 234.955515 
L 304.086589 233.819408 
L 306.379999 231.026133 
L 308.67341 227.662248 
L 310.96682 223.892152 
L 320.140462 208.249979 
L 322.433872 205.0222 
L 324.727283 202.338837 
L 325.873988 201.231219 
L 327.020693 200.291859 
L 328.167398 199.527469 
L 329.314103 198.942759 
L 330.460809 198.540424 
L 331.607514 198.321155 
L 332.754219 198.283674 
L 333.900924 198.424784 
L 335.047629 198.739443 
L 336.194335 199.220852 
L 337.34104 199.860565 
L 338.487745 200.64861 
L 340.781155 202.623017 
L 343.074566 205.039285 
L 345.367976 207.778072 
L 354.541618 219.378879 
L 356.835028 221.825488 
L 359.128439 223.884642 
L 361.421849 225.484577 
L 362.568554 226.095942 
L 363.715259 226.575733 
L 364.861965 226.921425 
L 366.00867 227.131975 
L 367.155375 227.207807 
L 368.30208 227.150777 
L 369.448785 226.964122 
L 370.595491 226.652405 
L 372.888901 225.678171 
L 375.182311 224.287858 
L 377.475722 222.556476 
L 380.915837 219.511186 
L 388.942774 211.97887 
L 391.236184 210.127832 
L 393.529595 208.551677 
L 395.823005 207.306186 
L 398.116415 206.43099 
L 400.409826 205.948533 
L 402.703236 205.863796 
L 404.996647 206.164772 
L 407.290057 206.823637 
L 409.583467 207.798546 
L 411.876878 209.03595 
L 415.316993 211.245713 
L 424.490635 217.547615 
L 426.784045 218.854466 
L 429.077456 219.943974 
L 431.370866 220.778654 
L 433.664277 221.333247 
L 435.957687 221.595312 
L 438.251097 221.565248 
L 440.544508 221.25577 
L 442.837918 220.690897 
L 445.131329 219.904487 
L 448.571444 218.402805 
L 453.158265 216.059719 
L 458.891791 213.16829 
L 462.331907 211.739002 
L 464.625317 210.992211 
L 466.918727 210.440533 
L 469.212138 210.099617 
L 471.505548 209.975597 
L 473.798959 210.065211 
L 476.092369 210.356304 
L 478.385779 210.828688 
L 481.825895 211.816481 
L 486.412716 213.474282 
L 493.292947 216.071475 
L 496.733063 217.155168 
L 500.173178 217.966478 
L 502.466589 218.32493 
L 504.759999 218.525565 
L 507.053409 218.566095 
L 509.34682 218.451082 
L 512.786935 218.012455 
L 516.227051 217.309765 
L 520.813872 216.104344 
L 528.840808 213.885458 
L 532.280924 213.123334 
L 535.721039 212.573815 
L 539.161155 212.275986 
L 542.60127 212.24309 
L 546.041386 212.462786 
L 549.481502 212.899801 
L 554.068322 213.726054 
L 566.68208 216.186412 
L 570.122195 216.61286 
L 573.562311 216.855961 
L 577.002426 216.90362 
L 580.442542 216.76275 
L 585.029363 216.325516 
L 590.762889 215.516149 
L 599.93653 214.166695 
L 604.523351 213.701166 
L 609.110172 213.471059 
L 613.696993 213.495977 
L 618.283814 213.752243 
L 624.01734 214.304421 
L 636.631097 215.635769 
L 642.364623 215.953056 
L 646.951444 215.998266 
L 652.68497 215.805191 
L 659.565201 215.314101 
L 672.178958 214.350563 
L 677.912484 214.142541 
L 683.64601 214.149745 
L 690.526241 214.407632 
L 712.31364 215.488176 
L 719.193871 215.476931 
L 727.220808 215.221711 
L 745.568091 214.522306 
L 753.595027 214.503729 
L 762.768669 214.720634 
L 776.529131 215.147132 
L 776.529131 215.147132 
" style="fill:none;stroke:#ff0000;stroke-dasharray:1.5,2.475;stroke-dashoffset:0;stroke-width:1.5;"/>
   </g>
   <g id="patch_3">
    <path d="M 108 378 
L 108 51.84 
" style="fill:none;stroke:#000000;stroke-linecap:square;stroke-linejoin:miter;stroke-width:0.8;"/>
   </g>
   <g id="patch_4">
    <path d="M 777.6 378 
L 777.6 51.84 
" style="fill:none;stroke:#000000;stroke-linecap:square;stroke-linejoin:miter;stroke-width:0.8;"/>
   </g>
   <g id="patch_5">
    <path d="M 108 378 
L 777.6 378 
" style="fill:none;stroke:#000000;stroke-linecap:square;stroke-linejoin:miter;stroke-width:0.8;"/>
   </g>
   <g id="patch_6">
    <path d="M 108 51.84 
L 777.6 51.84 
" style="fill:none;stroke:#000000;stroke-linecap:square;stroke-linejoin:miter;stroke-width:0.8;"/>
   </g>
   <g id="text_18">
    <!-- Medição 3 - Direção X -->
    <g transform="translate(344.296406 45.84)scale(0.18 -0.18)">
     <defs>
      <path d="M 9.8125 72.90625 
L 24.515625 72.90625 
L 43.109375 23.296875 
L 61.8125 72.90625 
L 76.515625 72.90625 
L 76.515625 0 
L 66.890625 0 
L 66.890625 64.015625 
L 48.09375 14.015625 
L 38.1875 14.015625 
L 19.390625 64.015625 
L 19.390625 0 
L 9.8125 0 
z
" id="DejaVuSans-77"/>
      <path d="M 45.40625 46.390625 
L 45.40625 75.984375 
L 54.390625 75.984375 
L 54.390625 0 
L 45.40625 0 
L 45.40625 8.203125 
Q 42.578125 3.328125 38.25 0.953125 
Q 33.9375 -1.421875 27.875 -1.421875 
Q 17.96875 -1.421875 11.734375 6.484375 
Q 5.515625 14.40625 5.515625 27.296875 
Q 5.515625 40.1875 11.734375 48.09375 
Q 17.96875 56 27.875 56 
Q 33.9375 56 38.25 53.625 
Q 42.578125 51.265625 45.40625 46.390625 
z
M 14.796875 27.296875 
Q 14.796875 17.390625 18.875 11.75 
Q 22.953125 6.109375 30.078125 6.109375 
Q 37.203125 6.109375 41.296875 11.75 
Q 45.40625 17.390625 45.40625 27.296875 
Q 45.40625 37.203125 41.296875 42.84375 
Q 37.203125 48.484375 30.078125 48.484375 
Q 22.953125 48.484375 18.875 42.84375 
Q 14.796875 37.203125 14.796875 27.296875 
z
" id="DejaVuSans-100"/>
      <path d="M 48.78125 52.59375 
L 48.78125 44.1875 
Q 44.96875 46.296875 41.140625 47.34375 
Q 37.3125 48.390625 33.40625 48.390625 
Q 24.65625 48.390625 19.8125 42.84375 
Q 14.984375 37.3125 14.984375 27.296875 
Q 14.984375 17.28125 19.8125 11.734375 
Q 24.65625 6.203125 33.40625 6.203125 
Q 37.3125 6.203125 41.140625 7.25 
Q 44.96875 8.296875 48.78125 10.40625 
L 48.78125 2.09375 
Q 45.015625 0.34375 40.984375 -0.53125 
Q 36.96875 -1.421875 32.421875 -1.421875 
Q 20.0625 -1.421875 12.78125 6.34375 
Q 5.515625 14.109375 5.515625 27.296875 
Q 5.515625 40.671875 12.859375 48.328125 
Q 20.21875 56 33.015625 56 
Q 37.15625 56 41.109375 55.140625 
Q 45.0625 54.296875 48.78125 52.59375 
z
M 36.078125 0 
Q 38.765625 -3.03125 40.078125 -5.59375 
Q 41.40625 -8.15625 41.40625 -10.5 
Q 41.40625 -14.84375 38.46875 -17.0625 
Q 35.546875 -19.28125 29.78125 -19.28125 
Q 27.546875 -19.28125 25.421875 -18.984375 
Q 23.296875 -18.703125 21.1875 -18.109375 
L 21.1875 -11.71875 
Q 22.859375 -12.546875 24.65625 -12.90625 
Q 26.46875 -13.28125 28.765625 -13.28125 
Q 31.640625 -13.28125 33.109375 -12.109375 
Q 34.578125 -10.9375 34.578125 -8.6875 
Q 34.578125 -7.234375 33.515625 -5.109375 
Q 32.46875 -2.984375 30.28125 0 
z
" id="DejaVuSans-231"/>
      <path d="M 34.28125 27.484375 
Q 23.390625 27.484375 19.1875 25 
Q 14.984375 22.515625 14.984375 16.5 
Q 14.984375 11.71875 18.140625 8.90625 
Q 21.296875 6.109375 26.703125 6.109375 
Q 34.1875 6.109375 38.703125 11.40625 
Q 43.21875 16.703125 43.21875 25.484375 
L 43.21875 27.484375 
z
M 52.203125 31.203125 
L 52.203125 0 
L 43.21875 0 
L 43.21875 8.296875 
Q 40.140625 3.328125 35.546875 0.953125 
Q 30.953125 -1.421875 24.3125 -1.421875 
Q 15.921875 -1.421875 10.953125 3.296875 
Q 6 8.015625 6 15.921875 
Q 6 25.140625 12.171875 29.828125 
Q 18.359375 34.515625 30.609375 34.515625 
L 43.21875 34.515625 
L 43.21875 35.40625 
Q 43.21875 41.609375 39.140625 45 
Q 35.0625 48.390625 27.6875 48.390625 
Q 23 48.390625 18.546875 47.265625 
Q 14.109375 46.140625 10.015625 43.890625 
L 10.015625 52.203125 
Q 14.9375 54.109375 19.578125 55.046875 
Q 24.21875 56 28.609375 56 
Q 40.484375 56 46.34375 49.84375 
Q 52.203125 43.703125 52.203125 31.203125 
z
M 28.8125 66.890625 
L 26.03125 69.578125 
Q 24.953125 70.5625 24.140625 71.015625 
Q 23.34375 71.484375 22.703125 71.484375 
Q 20.84375 71.484375 19.96875 69.703125 
Q 19.09375 67.921875 19 63.921875 
L 12.890625 63.921875 
Q 12.984375 70.515625 15.46875 74.09375 
Q 17.96875 77.6875 22.40625 77.6875 
Q 24.265625 77.6875 25.828125 77 
Q 27.390625 76.3125 29.203125 74.703125 
L 31.984375 72.015625 
Q 33.0625 71.046875 33.859375 70.578125 
Q 34.671875 70.125 35.296875 70.125 
Q 37.15625 70.125 38.03125 71.90625 
Q 38.921875 73.6875 39.015625 77.6875 
L 45.125 77.6875 
Q 45.015625 71.09375 42.53125 67.5 
Q 40.046875 63.921875 35.59375 63.921875 
Q 33.734375 63.921875 32.171875 64.59375 
Q 30.609375 65.28125 28.8125 66.890625 
z
" id="DejaVuSans-227"/>
      <path d="M 30.609375 48.390625 
Q 23.390625 48.390625 19.1875 42.75 
Q 14.984375 37.109375 14.984375 27.296875 
Q 14.984375 17.484375 19.15625 11.84375 
Q 23.34375 6.203125 30.609375 6.203125 
Q 37.796875 6.203125 41.984375 11.859375 
Q 46.1875 17.53125 46.1875 27.296875 
Q 46.1875 37.015625 41.984375 42.703125 
Q 37.796875 48.390625 30.609375 48.390625 
z
M 30.609375 56 
Q 42.328125 56 49.015625 48.375 
Q 55.71875 40.765625 55.71875 27.296875 
Q 55.71875 13.875 49.015625 6.21875 
Q 42.328125 -1.421875 30.609375 -1.421875 
Q 18.84375 -1.421875 12.171875 6.21875 
Q 5.515625 13.875 5.515625 27.296875 
Q 5.515625 40.765625 12.171875 48.375 
Q 18.84375 56 30.609375 56 
z
" id="DejaVuSans-111"/>
      <path d="M 40.578125 39.3125 
Q 47.65625 37.796875 51.625 33 
Q 55.609375 28.21875 55.609375 21.1875 
Q 55.609375 10.40625 48.1875 4.484375 
Q 40.765625 -1.421875 27.09375 -1.421875 
Q 22.515625 -1.421875 17.65625 -0.515625 
Q 12.796875 0.390625 7.625 2.203125 
L 7.625 11.71875 
Q 11.71875 9.328125 16.59375 8.109375 
Q 21.484375 6.890625 26.8125 6.890625 
Q 36.078125 6.890625 40.9375 10.546875 
Q 45.796875 14.203125 45.796875 21.1875 
Q 45.796875 27.640625 41.28125 31.265625 
Q 36.765625 34.90625 28.71875 34.90625 
L 20.21875 34.90625 
L 20.21875 43.015625 
L 29.109375 43.015625 
Q 36.375 43.015625 40.234375 45.921875 
Q 44.09375 48.828125 44.09375 54.296875 
Q 44.09375 59.90625 40.109375 62.90625 
Q 36.140625 65.921875 28.71875 65.921875 
Q 24.65625 65.921875 20.015625 65.03125 
Q 15.375 64.15625 9.8125 62.3125 
L 9.8125 71.09375 
Q 15.4375 72.65625 20.34375 73.4375 
Q 25.25 74.21875 29.59375 74.21875 
Q 40.828125 74.21875 47.359375 69.109375 
Q 53.90625 64.015625 53.90625 55.328125 
Q 53.90625 49.265625 50.4375 45.09375 
Q 46.96875 40.921875 40.578125 39.3125 
z
" id="DejaVuSans-51"/>
      <path d="M 4.890625 31.390625 
L 31.203125 31.390625 
L 31.203125 23.390625 
L 4.890625 23.390625 
z
" id="DejaVuSans-45"/>
      <path d="M 19.671875 64.796875 
L 19.671875 8.109375 
L 31.59375 8.109375 
Q 46.6875 8.109375 53.6875 14.9375 
Q 60.6875 21.78125 60.6875 36.53125 
Q 60.6875 51.171875 53.6875 57.984375 
Q 46.6875 64.796875 31.59375 64.796875 
z
M 9.8125 72.90625 
L 30.078125 72.90625 
Q 51.265625 72.90625 61.171875 64.09375 
Q 71.09375 55.28125 71.09375 36.53125 
Q 71.09375 17.671875 61.125 8.828125 
Q 51.171875 0 30.078125 0 
L 9.8125 0 
z
" id="DejaVuSans-68"/>
      <path d="M 41.109375 46.296875 
Q 39.59375 47.171875 37.8125 47.578125 
Q 36.03125 48 33.890625 48 
Q 26.265625 48 22.1875 43.046875 
Q 18.109375 38.09375 18.109375 28.8125 
L 18.109375 0 
L 9.078125 0 
L 9.078125 54.6875 
L 18.109375 54.6875 
L 18.109375 46.1875 
Q 20.953125 51.171875 25.484375 53.578125 
Q 30.03125 56 36.53125 56 
Q 37.453125 56 38.578125 55.875 
Q 39.703125 55.765625 41.0625 55.515625 
z
" id="DejaVuSans-114"/>
      <path d="M 6.296875 72.90625 
L 16.890625 72.90625 
L 35.015625 45.796875 
L 53.21875 72.90625 
L 63.8125 72.90625 
L 40.375 37.890625 
L 65.375 0 
L 54.78125 0 
L 34.28125 31 
L 13.625 0 
L 2.984375 0 
L 29 38.921875 
z
" id="DejaVuSans-88"/>
     </defs>
     <use xlink:href="#DejaVuSans-77"/>
     <use x="86.279297" xlink:href="#DejaVuSans-101"/>
     <use x="147.802734" xlink:href="#DejaVuSans-100"/>
     <use x="211.279297" xlink:href="#DejaVuSans-105"/>
     <use x="239.0625" xlink:href="#DejaVuSans-231"/>
     <use x="294.042969" xlink:href="#DejaVuSans-227"/>
     <use x="355.322266" xlink:href="#DejaVuSans-111"/>
     <use x="416.503906" xlink:href="#DejaVuSans-32"/>
     <use x="448.291016" xlink:href="#DejaVuSans-51"/>
     <use x="511.914062" xlink:href="#DejaVuSans-32"/>
     <use x="543.701172" xlink:href="#DejaVuSans-45"/>
     <use x="579.785156" xlink:href="#DejaVuSans-32"/>
     <use x="611.572266" xlink:href="#DejaVuSans-68"/>
     <use x="688.574219" xlink:href="#DejaVuSans-105"/>
     <use x="716.357422" xlink:href="#DejaVuSans-114"/>
     <use x="755.220703" xlink:href="#DejaVuSans-101"/>
     <use x="816.744141" xlink:href="#DejaVuSans-231"/>
     <use x="871.724609" xlink:href="#DejaVuSans-227"/>
     <use x="933.003906" xlink:href="#DejaVuSans-111"/>
     <use x="994.185547" xlink:href="#DejaVuSans-32"/>
     <use x="1025.972656" xlink:href="#DejaVuSans-88"/>
    </g>
   </g>
   <g id="legend_1">
    <g id="patch_7">
     <path d="M 701.221875 89.19625 
L 770.6 89.19625 
Q 772.6 89.19625 772.6 87.19625 
L 772.6 58.84 
Q 772.6 56.84 770.6 56.84 
L 701.221875 56.84 
Q 699.221875 56.84 699.221875 58.84 
L 699.221875 87.19625 
Q 699.221875 89.19625 701.221875 89.19625 
z
" style="fill:#ffffff;opacity:0.8;stroke:#cccccc;stroke-linejoin:miter;"/>
    </g>
    <g id="line2d_33">
     <path d="M 703.221875 64.938437 
L 723.221875 64.938437 
" style="fill:none;stroke:#1f77b4;stroke-linecap:square;stroke-width:1.5;"/>
    </g>
    <g id="line2d_34"/>
    <g id="text_19">
     <!-- original -->
     <g transform="translate(731.221875 68.438437)scale(0.1 -0.1)">
      <defs>
       <path d="M 45.40625 27.984375 
Q 45.40625 37.75 41.375 43.109375 
Q 37.359375 48.484375 30.078125 48.484375 
Q 22.859375 48.484375 18.828125 43.109375 
Q 14.796875 37.75 14.796875 27.984375 
Q 14.796875 18.265625 18.828125 12.890625 
Q 22.859375 7.515625 30.078125 7.515625 
Q 37.359375 7.515625 41.375 12.890625 
Q 45.40625 18.265625 45.40625 27.984375 
z
M 54.390625 6.78125 
Q 54.390625 -7.171875 48.1875 -13.984375 
Q 42 -20.796875 29.203125 -20.796875 
Q 24.46875 -20.796875 20.265625 -20.09375 
Q 16.0625 -19.390625 12.109375 -17.921875 
L 12.109375 -9.1875 
Q 16.0625 -11.328125 19.921875 -12.34375 
Q 23.78125 -13.375 27.78125 -13.375 
Q 36.625 -13.375 41.015625 -8.765625 
Q 45.40625 -4.15625 45.40625 5.171875 
L 45.40625 9.625 
Q 42.625 4.78125 38.28125 2.390625 
Q 33.9375 0 27.875 0 
Q 17.828125 0 11.671875 7.65625 
Q 5.515625 15.328125 5.515625 27.984375 
Q 5.515625 40.671875 11.671875 48.328125 
Q 17.828125 56 27.875 56 
Q 33.9375 56 38.28125 53.609375 
Q 42.625 51.21875 45.40625 46.390625 
L 45.40625 54.6875 
L 54.390625 54.6875 
z
" id="DejaVuSans-103"/>
       <path d="M 54.890625 33.015625 
L 54.890625 0 
L 45.90625 0 
L 45.90625 32.71875 
Q 45.90625 40.484375 42.875 44.328125 
Q 39.84375 48.1875 33.796875 48.1875 
Q 26.515625 48.1875 22.3125 43.546875 
Q 18.109375 38.921875 18.109375 30.90625 
L 18.109375 0 
L 9.078125 0 
L 9.078125 54.6875 
L 18.109375 54.6875 
L 18.109375 46.1875 
Q 21.34375 51.125 25.703125 53.5625 
Q 30.078125 56 35.796875 56 
Q 45.21875 56 50.046875 50.171875 
Q 54.890625 44.34375 54.890625 33.015625 
z
" id="DejaVuSans-110"/>
       <path d="M 9.421875 75.984375 
L 18.40625 75.984375 
L 18.40625 0 
L 9.421875 0 
z
" id="DejaVuSans-108"/>
      </defs>
      <use xlink:href="#DejaVuSans-111"/>
      <use x="61.181641" xlink:href="#DejaVuSans-114"/>
      <use x="102.294922" xlink:href="#DejaVuSans-105"/>
      <use x="130.078125" xlink:href="#DejaVuSans-103"/>
      <use x="193.554688" xlink:href="#DejaVuSans-105"/>
      <use x="221.337891" xlink:href="#DejaVuSans-110"/>
      <use x="284.716797" xlink:href="#DejaVuSans-97"/>
      <use x="345.996094" xlink:href="#DejaVuSans-108"/>
     </g>
    </g>
    <g id="line2d_35">
     <path d="M 703.221875 79.616562 
L 723.221875 79.616562 
" style="fill:none;stroke:#ff0000;stroke-dasharray:1.5,2.475;stroke-dashoffset:0;stroke-width:1.5;"/>
    </g>
    <g id="line2d_36"/>
    <g id="text_20">
     <!-- fitted -->
     <g transform="translate(731.221875 83.116562)scale(0.1 -0.1)">
      <defs>
       <path d="M 37.109375 75.984375 
L 37.109375 68.5 
L 28.515625 68.5 
Q 23.6875 68.5 21.796875 66.546875 
Q 19.921875 64.59375 19.921875 59.515625 
L 19.921875 54.6875 
L 34.71875 54.6875 
L 34.71875 47.703125 
L 19.921875 47.703125 
L 19.921875 0 
L 10.890625 0 
L 10.890625 47.703125 
L 2.296875 47.703125 
L 2.296875 54.6875 
L 10.890625 54.6875 
L 10.890625 58.5 
Q 10.890625 67.625 15.140625 71.796875 
Q 19.390625 75.984375 28.609375 75.984375 
z
" id="DejaVuSans-102"/>
      </defs>
      <use xlink:href="#DejaVuSans-102"/>
      <use x="35.205078" xlink:href="#DejaVuSans-105"/>
      <use x="62.988281" xlink:href="#DejaVuSans-116"/>
      <use x="102.197266" xlink:href="#DejaVuSans-116"/>
      <use x="141.40625" xlink:href="#DejaVuSans-101"/>
      <use x="202.929688" xlink:href="#DejaVuSans-100"/>
     </g>
    </g>
   </g>
  </g>
 </g>
 <defs>
  <clipPath id="p7fc8b02e20">
   <rect height="326.16" width="669.6" x="108" y="51.84"/>
  </clipPath>
 </defs>
</svg>
