<?xml version="1.0" encoding="utf-8" standalone="no"?>
<!DOCTYPE svg PUBLIC "-//W3C//DTD SVG 1.1//EN"
  "http://www.w3.org/Graphics/SVG/1.1/DTD/svg11.dtd">
<!-- Created with matplotlib (https://matplotlib.org/) -->
<svg height="432pt" version="1.1" viewBox="0 0 864 432" width="864pt" xmlns="http://www.w3.org/2000/svg" xmlns:xlink="http://www.w3.org/1999/xlink">
 <metadata>
  <rdf:RDF xmlns:cc="http://creativecommons.org/ns#" xmlns:dc="http://purl.org/dc/elements/1.1/" xmlns:rdf="http://www.w3.org/1999/02/22-rdf-syntax-ns#">
   <cc:Work>
    <dc:type rdf:resource="http://purl.org/dc/dcmitype/StillImage"/>
    <dc:date>2021-11-25T23:15:14.482134</dc:date>
    <dc:format>image/svg+xml</dc:format>
    <dc:creator>
     <cc:Agent>
      <dc:title>Matplotlib v3.3.2, https://matplotlib.org/</dc:title>
     </cc:Agent>
    </dc:creator>
   </cc:Work>
  </rdf:RDF>
 </metadata>
 <defs>
  <style type="text/css">*{stroke-linecap:butt;stroke-linejoin:round;}</style>
 </defs>
 <g id="figure_1">
  <g id="patch_1">
   <path d="M 0 432 
L 864 432 
L 864 0 
L 0 0 
z
" style="fill:none;"/>
  </g>
  <g id="axes_1">
   <g id="patch_2">
    <path d="M 108 378 
L 777.6 378 
L 777.6 51.84 
L 108 51.84 
z
" style="fill:#ffffff;"/>
   </g>
   <g id="matplotlib.axis_1">
    <g id="xtick_1">
     <g id="line2d_1">
      <path clip-path="url(#p55e79b4a97)" d="M 108 378 
L 108 51.84 
" style="fill:none;stroke:#b0b0b0;stroke-linecap:square;stroke-width:0.8;"/>
     </g>
     <g id="line2d_2">
      <defs>
       <path d="M 0 0 
L 0 3.5 
" id="me8d5962580" style="stroke:#000000;stroke-width:0.8;"/>
      </defs>
      <g>
       <use style="stroke:#000000;stroke-width:0.8;" x="108" xlink:href="#me8d5962580" y="378"/>
      </g>
     </g>
     <g id="text_1">
      <!-- 0.0 -->
      <g transform="translate(100.048438 392.598437)scale(0.1 -0.1)">
       <defs>
        <path d="M 31.78125 66.40625 
Q 24.171875 66.40625 20.328125 58.90625 
Q 16.5 51.421875 16.5 36.375 
Q 16.5 21.390625 20.328125 13.890625 
Q 24.171875 6.390625 31.78125 6.390625 
Q 39.453125 6.390625 43.28125 13.890625 
Q 47.125 21.390625 47.125 36.375 
Q 47.125 51.421875 43.28125 58.90625 
Q 39.453125 66.40625 31.78125 66.40625 
z
M 31.78125 74.21875 
Q 44.046875 74.21875 50.515625 64.515625 
Q 56.984375 54.828125 56.984375 36.375 
Q 56.984375 17.96875 50.515625 8.265625 
Q 44.046875 -1.421875 31.78125 -1.421875 
Q 19.53125 -1.421875 13.0625 8.265625 
Q 6.59375 17.96875 6.59375 36.375 
Q 6.59375 54.828125 13.0625 64.515625 
Q 19.53125 74.21875 31.78125 74.21875 
z
" id="DejaVuSans-48"/>
        <path d="M 10.6875 12.40625 
L 21 12.40625 
L 21 0 
L 10.6875 0 
z
" id="DejaVuSans-46"/>
       </defs>
       <use xlink:href="#DejaVuSans-48"/>
       <use x="63.623047" xlink:href="#DejaVuSans-46"/>
       <use x="95.410156" xlink:href="#DejaVuSans-48"/>
      </g>
     </g>
    </g>
    <g id="xtick_2">
     <g id="line2d_3">
      <path clip-path="url(#p55e79b4a97)" d="M 202.309859 378 
L 202.309859 51.84 
" style="fill:none;stroke:#b0b0b0;stroke-linecap:square;stroke-width:0.8;"/>
     </g>
     <g id="line2d_4">
      <g>
       <use style="stroke:#000000;stroke-width:0.8;" x="202.309859" xlink:href="#me8d5962580" y="378"/>
      </g>
     </g>
     <g id="text_2">
      <!-- 0.2 -->
      <g transform="translate(194.358297 392.598437)scale(0.1 -0.1)">
       <defs>
        <path d="M 19.1875 8.296875 
L 53.609375 8.296875 
L 53.609375 0 
L 7.328125 0 
L 7.328125 8.296875 
Q 12.9375 14.109375 22.625 23.890625 
Q 32.328125 33.6875 34.8125 36.53125 
Q 39.546875 41.84375 41.421875 45.53125 
Q 43.3125 49.21875 43.3125 52.78125 
Q 43.3125 58.59375 39.234375 62.25 
Q 35.15625 65.921875 28.609375 65.921875 
Q 23.96875 65.921875 18.8125 64.3125 
Q 13.671875 62.703125 7.8125 59.421875 
L 7.8125 69.390625 
Q 13.765625 71.78125 18.9375 73 
Q 24.125 74.21875 28.421875 74.21875 
Q 39.75 74.21875 46.484375 68.546875 
Q 53.21875 62.890625 53.21875 53.421875 
Q 53.21875 48.921875 51.53125 44.890625 
Q 49.859375 40.875 45.40625 35.40625 
Q 44.1875 33.984375 37.640625 27.21875 
Q 31.109375 20.453125 19.1875 8.296875 
z
" id="DejaVuSans-50"/>
       </defs>
       <use xlink:href="#DejaVuSans-48"/>
       <use x="63.623047" xlink:href="#DejaVuSans-46"/>
       <use x="95.410156" xlink:href="#DejaVuSans-50"/>
      </g>
     </g>
    </g>
    <g id="xtick_3">
     <g id="line2d_5">
      <path clip-path="url(#p55e79b4a97)" d="M 296.619718 378 
L 296.619718 51.84 
" style="fill:none;stroke:#b0b0b0;stroke-linecap:square;stroke-width:0.8;"/>
     </g>
     <g id="line2d_6">
      <g>
       <use style="stroke:#000000;stroke-width:0.8;" x="296.619718" xlink:href="#me8d5962580" y="378"/>
      </g>
     </g>
     <g id="text_3">
      <!-- 0.4 -->
      <g transform="translate(288.668156 392.598437)scale(0.1 -0.1)">
       <defs>
        <path d="M 37.796875 64.3125 
L 12.890625 25.390625 
L 37.796875 25.390625 
z
M 35.203125 72.90625 
L 47.609375 72.90625 
L 47.609375 25.390625 
L 58.015625 25.390625 
L 58.015625 17.1875 
L 47.609375 17.1875 
L 47.609375 0 
L 37.796875 0 
L 37.796875 17.1875 
L 4.890625 17.1875 
L 4.890625 26.703125 
z
" id="DejaVuSans-52"/>
       </defs>
       <use xlink:href="#DejaVuSans-48"/>
       <use x="63.623047" xlink:href="#DejaVuSans-46"/>
       <use x="95.410156" xlink:href="#DejaVuSans-52"/>
      </g>
     </g>
    </g>
    <g id="xtick_4">
     <g id="line2d_7">
      <path clip-path="url(#p55e79b4a97)" d="M 390.929577 378 
L 390.929577 51.84 
" style="fill:none;stroke:#b0b0b0;stroke-linecap:square;stroke-width:0.8;"/>
     </g>
     <g id="line2d_8">
      <g>
       <use style="stroke:#000000;stroke-width:0.8;" x="390.929577" xlink:href="#me8d5962580" y="378"/>
      </g>
     </g>
     <g id="text_4">
      <!-- 0.6 -->
      <g transform="translate(382.978015 392.598437)scale(0.1 -0.1)">
       <defs>
        <path d="M 33.015625 40.375 
Q 26.375 40.375 22.484375 35.828125 
Q 18.609375 31.296875 18.609375 23.390625 
Q 18.609375 15.53125 22.484375 10.953125 
Q 26.375 6.390625 33.015625 6.390625 
Q 39.65625 6.390625 43.53125 10.953125 
Q 47.40625 15.53125 47.40625 23.390625 
Q 47.40625 31.296875 43.53125 35.828125 
Q 39.65625 40.375 33.015625 40.375 
z
M 52.59375 71.296875 
L 52.59375 62.3125 
Q 48.875 64.0625 45.09375 64.984375 
Q 41.3125 65.921875 37.59375 65.921875 
Q 27.828125 65.921875 22.671875 59.328125 
Q 17.53125 52.734375 16.796875 39.40625 
Q 19.671875 43.65625 24.015625 45.921875 
Q 28.375 48.1875 33.59375 48.1875 
Q 44.578125 48.1875 50.953125 41.515625 
Q 57.328125 34.859375 57.328125 23.390625 
Q 57.328125 12.15625 50.6875 5.359375 
Q 44.046875 -1.421875 33.015625 -1.421875 
Q 20.359375 -1.421875 13.671875 8.265625 
Q 6.984375 17.96875 6.984375 36.375 
Q 6.984375 53.65625 15.1875 63.9375 
Q 23.390625 74.21875 37.203125 74.21875 
Q 40.921875 74.21875 44.703125 73.484375 
Q 48.484375 72.75 52.59375 71.296875 
z
" id="DejaVuSans-54"/>
       </defs>
       <use xlink:href="#DejaVuSans-48"/>
       <use x="63.623047" xlink:href="#DejaVuSans-46"/>
       <use x="95.410156" xlink:href="#DejaVuSans-54"/>
      </g>
     </g>
    </g>
    <g id="xtick_5">
     <g id="line2d_9">
      <path clip-path="url(#p55e79b4a97)" d="M 485.239437 378 
L 485.239437 51.84 
" style="fill:none;stroke:#b0b0b0;stroke-linecap:square;stroke-width:0.8;"/>
     </g>
     <g id="line2d_10">
      <g>
       <use style="stroke:#000000;stroke-width:0.8;" x="485.239437" xlink:href="#me8d5962580" y="378"/>
      </g>
     </g>
     <g id="text_5">
      <!-- 0.8 -->
      <g transform="translate(477.287874 392.598437)scale(0.1 -0.1)">
       <defs>
        <path d="M 31.78125 34.625 
Q 24.75 34.625 20.71875 30.859375 
Q 16.703125 27.09375 16.703125 20.515625 
Q 16.703125 13.921875 20.71875 10.15625 
Q 24.75 6.390625 31.78125 6.390625 
Q 38.8125 6.390625 42.859375 10.171875 
Q 46.921875 13.96875 46.921875 20.515625 
Q 46.921875 27.09375 42.890625 30.859375 
Q 38.875 34.625 31.78125 34.625 
z
M 21.921875 38.8125 
Q 15.578125 40.375 12.03125 44.71875 
Q 8.5 49.078125 8.5 55.328125 
Q 8.5 64.0625 14.71875 69.140625 
Q 20.953125 74.21875 31.78125 74.21875 
Q 42.671875 74.21875 48.875 69.140625 
Q 55.078125 64.0625 55.078125 55.328125 
Q 55.078125 49.078125 51.53125 44.71875 
Q 48 40.375 41.703125 38.8125 
Q 48.828125 37.15625 52.796875 32.3125 
Q 56.78125 27.484375 56.78125 20.515625 
Q 56.78125 9.90625 50.3125 4.234375 
Q 43.84375 -1.421875 31.78125 -1.421875 
Q 19.734375 -1.421875 13.25 4.234375 
Q 6.78125 9.90625 6.78125 20.515625 
Q 6.78125 27.484375 10.78125 32.3125 
Q 14.796875 37.15625 21.921875 38.8125 
z
M 18.3125 54.390625 
Q 18.3125 48.734375 21.84375 45.5625 
Q 25.390625 42.390625 31.78125 42.390625 
Q 38.140625 42.390625 41.71875 45.5625 
Q 45.3125 48.734375 45.3125 54.390625 
Q 45.3125 60.0625 41.71875 63.234375 
Q 38.140625 66.40625 31.78125 66.40625 
Q 25.390625 66.40625 21.84375 63.234375 
Q 18.3125 60.0625 18.3125 54.390625 
z
" id="DejaVuSans-56"/>
       </defs>
       <use xlink:href="#DejaVuSans-48"/>
       <use x="63.623047" xlink:href="#DejaVuSans-46"/>
       <use x="95.410156" xlink:href="#DejaVuSans-56"/>
      </g>
     </g>
    </g>
    <g id="xtick_6">
     <g id="line2d_11">
      <path clip-path="url(#p55e79b4a97)" d="M 579.549296 378 
L 579.549296 51.84 
" style="fill:none;stroke:#b0b0b0;stroke-linecap:square;stroke-width:0.8;"/>
     </g>
     <g id="line2d_12">
      <g>
       <use style="stroke:#000000;stroke-width:0.8;" x="579.549296" xlink:href="#me8d5962580" y="378"/>
      </g>
     </g>
     <g id="text_6">
      <!-- 1.0 -->
      <g transform="translate(571.597733 392.598437)scale(0.1 -0.1)">
       <defs>
        <path d="M 12.40625 8.296875 
L 28.515625 8.296875 
L 28.515625 63.921875 
L 10.984375 60.40625 
L 10.984375 69.390625 
L 28.421875 72.90625 
L 38.28125 72.90625 
L 38.28125 8.296875 
L 54.390625 8.296875 
L 54.390625 0 
L 12.40625 0 
z
" id="DejaVuSans-49"/>
       </defs>
       <use xlink:href="#DejaVuSans-49"/>
       <use x="63.623047" xlink:href="#DejaVuSans-46"/>
       <use x="95.410156" xlink:href="#DejaVuSans-48"/>
      </g>
     </g>
    </g>
    <g id="xtick_7">
     <g id="line2d_13">
      <path clip-path="url(#p55e79b4a97)" d="M 673.859155 378 
L 673.859155 51.84 
" style="fill:none;stroke:#b0b0b0;stroke-linecap:square;stroke-width:0.8;"/>
     </g>
     <g id="line2d_14">
      <g>
       <use style="stroke:#000000;stroke-width:0.8;" x="673.859155" xlink:href="#me8d5962580" y="378"/>
      </g>
     </g>
     <g id="text_7">
      <!-- 1.2 -->
      <g transform="translate(665.907592 392.598437)scale(0.1 -0.1)">
       <use xlink:href="#DejaVuSans-49"/>
       <use x="63.623047" xlink:href="#DejaVuSans-46"/>
       <use x="95.410156" xlink:href="#DejaVuSans-50"/>
      </g>
     </g>
    </g>
    <g id="xtick_8">
     <g id="line2d_15">
      <path clip-path="url(#p55e79b4a97)" d="M 768.169014 378 
L 768.169014 51.84 
" style="fill:none;stroke:#b0b0b0;stroke-linecap:square;stroke-width:0.8;"/>
     </g>
     <g id="line2d_16">
      <g>
       <use style="stroke:#000000;stroke-width:0.8;" x="768.169014" xlink:href="#me8d5962580" y="378"/>
      </g>
     </g>
     <g id="text_8">
      <!-- 1.4 -->
      <g transform="translate(760.217452 392.598437)scale(0.1 -0.1)">
       <use xlink:href="#DejaVuSans-49"/>
       <use x="63.623047" xlink:href="#DejaVuSans-46"/>
       <use x="95.410156" xlink:href="#DejaVuSans-52"/>
      </g>
     </g>
    </g>
    <g id="text_9">
     <!-- time (s) -->
     <g transform="translate(423.408594 406.276563)scale(0.1 -0.1)">
      <defs>
       <path d="M 18.3125 70.21875 
L 18.3125 54.6875 
L 36.8125 54.6875 
L 36.8125 47.703125 
L 18.3125 47.703125 
L 18.3125 18.015625 
Q 18.3125 11.328125 20.140625 9.421875 
Q 21.96875 7.515625 27.59375 7.515625 
L 36.8125 7.515625 
L 36.8125 0 
L 27.59375 0 
Q 17.1875 0 13.234375 3.875 
Q 9.28125 7.765625 9.28125 18.015625 
L 9.28125 47.703125 
L 2.6875 47.703125 
L 2.6875 54.6875 
L 9.28125 54.6875 
L 9.28125 70.21875 
z
" id="DejaVuSans-116"/>
       <path d="M 9.421875 54.6875 
L 18.40625 54.6875 
L 18.40625 0 
L 9.421875 0 
z
M 9.421875 75.984375 
L 18.40625 75.984375 
L 18.40625 64.59375 
L 9.421875 64.59375 
z
" id="DejaVuSans-105"/>
       <path d="M 52 44.1875 
Q 55.375 50.25 60.0625 53.125 
Q 64.75 56 71.09375 56 
Q 79.640625 56 84.28125 50.015625 
Q 88.921875 44.046875 88.921875 33.015625 
L 88.921875 0 
L 79.890625 0 
L 79.890625 32.71875 
Q 79.890625 40.578125 77.09375 44.375 
Q 74.3125 48.1875 68.609375 48.1875 
Q 61.625 48.1875 57.5625 43.546875 
Q 53.515625 38.921875 53.515625 30.90625 
L 53.515625 0 
L 44.484375 0 
L 44.484375 32.71875 
Q 44.484375 40.625 41.703125 44.40625 
Q 38.921875 48.1875 33.109375 48.1875 
Q 26.21875 48.1875 22.15625 43.53125 
Q 18.109375 38.875 18.109375 30.90625 
L 18.109375 0 
L 9.078125 0 
L 9.078125 54.6875 
L 18.109375 54.6875 
L 18.109375 46.1875 
Q 21.1875 51.21875 25.484375 53.609375 
Q 29.78125 56 35.6875 56 
Q 41.65625 56 45.828125 52.96875 
Q 50 49.953125 52 44.1875 
z
" id="DejaVuSans-109"/>
       <path d="M 56.203125 29.59375 
L 56.203125 25.203125 
L 14.890625 25.203125 
Q 15.484375 15.921875 20.484375 11.0625 
Q 25.484375 6.203125 34.421875 6.203125 
Q 39.59375 6.203125 44.453125 7.46875 
Q 49.3125 8.734375 54.109375 11.28125 
L 54.109375 2.78125 
Q 49.265625 0.734375 44.1875 -0.34375 
Q 39.109375 -1.421875 33.890625 -1.421875 
Q 20.796875 -1.421875 13.15625 6.1875 
Q 5.515625 13.8125 5.515625 26.8125 
Q 5.515625 40.234375 12.765625 48.109375 
Q 20.015625 56 32.328125 56 
Q 43.359375 56 49.78125 48.890625 
Q 56.203125 41.796875 56.203125 29.59375 
z
M 47.21875 32.234375 
Q 47.125 39.59375 43.09375 43.984375 
Q 39.0625 48.390625 32.421875 48.390625 
Q 24.90625 48.390625 20.390625 44.140625 
Q 15.875 39.890625 15.1875 32.171875 
z
" id="DejaVuSans-101"/>
       <path id="DejaVuSans-32"/>
       <path d="M 31 75.875 
Q 24.46875 64.65625 21.28125 53.65625 
Q 18.109375 42.671875 18.109375 31.390625 
Q 18.109375 20.125 21.3125 9.0625 
Q 24.515625 -2 31 -13.1875 
L 23.1875 -13.1875 
Q 15.875 -1.703125 12.234375 9.375 
Q 8.59375 20.453125 8.59375 31.390625 
Q 8.59375 42.28125 12.203125 53.3125 
Q 15.828125 64.359375 23.1875 75.875 
z
" id="DejaVuSans-40"/>
       <path d="M 44.28125 53.078125 
L 44.28125 44.578125 
Q 40.484375 46.53125 36.375 47.5 
Q 32.28125 48.484375 27.875 48.484375 
Q 21.1875 48.484375 17.84375 46.4375 
Q 14.5 44.390625 14.5 40.28125 
Q 14.5 37.15625 16.890625 35.375 
Q 19.28125 33.59375 26.515625 31.984375 
L 29.59375 31.296875 
Q 39.15625 29.25 43.1875 25.515625 
Q 47.21875 21.78125 47.21875 15.09375 
Q 47.21875 7.46875 41.1875 3.015625 
Q 35.15625 -1.421875 24.609375 -1.421875 
Q 20.21875 -1.421875 15.453125 -0.5625 
Q 10.6875 0.296875 5.421875 2 
L 5.421875 11.28125 
Q 10.40625 8.6875 15.234375 7.390625 
Q 20.0625 6.109375 24.8125 6.109375 
Q 31.15625 6.109375 34.5625 8.28125 
Q 37.984375 10.453125 37.984375 14.40625 
Q 37.984375 18.0625 35.515625 20.015625 
Q 33.0625 21.96875 24.703125 23.78125 
L 21.578125 24.515625 
Q 13.234375 26.265625 9.515625 29.90625 
Q 5.8125 33.546875 5.8125 39.890625 
Q 5.8125 47.609375 11.28125 51.796875 
Q 16.75 56 26.8125 56 
Q 31.78125 56 36.171875 55.265625 
Q 40.578125 54.546875 44.28125 53.078125 
z
" id="DejaVuSans-115"/>
       <path d="M 8.015625 75.875 
L 15.828125 75.875 
Q 23.140625 64.359375 26.78125 53.3125 
Q 30.421875 42.28125 30.421875 31.390625 
Q 30.421875 20.453125 26.78125 9.375 
Q 23.140625 -1.703125 15.828125 -13.1875 
L 8.015625 -13.1875 
Q 14.5 -2 17.703125 9.0625 
Q 20.90625 20.125 20.90625 31.390625 
Q 20.90625 42.671875 17.703125 53.65625 
Q 14.5 64.65625 8.015625 75.875 
z
" id="DejaVuSans-41"/>
      </defs>
      <use xlink:href="#DejaVuSans-116"/>
      <use x="39.208984" xlink:href="#DejaVuSans-105"/>
      <use x="66.992188" xlink:href="#DejaVuSans-109"/>
      <use x="164.404297" xlink:href="#DejaVuSans-101"/>
      <use x="225.927734" xlink:href="#DejaVuSans-32"/>
      <use x="257.714844" xlink:href="#DejaVuSans-40"/>
      <use x="296.728516" xlink:href="#DejaVuSans-115"/>
      <use x="348.828125" xlink:href="#DejaVuSans-41"/>
     </g>
    </g>
   </g>
   <g id="matplotlib.axis_2">
    <g id="ytick_1">
     <g id="line2d_17">
      <path clip-path="url(#p55e79b4a97)" d="M 108 378 
L 777.6 378 
" style="fill:none;stroke:#b0b0b0;stroke-linecap:square;stroke-width:0.8;"/>
     </g>
     <g id="line2d_18">
      <defs>
       <path d="M 0 0 
L -3.5 0 
" id="m0310f89c9f" style="stroke:#000000;stroke-width:0.8;"/>
      </defs>
      <g>
       <use style="stroke:#000000;stroke-width:0.8;" x="108" xlink:href="#m0310f89c9f" y="378"/>
      </g>
     </g>
     <g id="text_10">
      <!-- −15 -->
      <g transform="translate(79.895313 381.799219)scale(0.1 -0.1)">
       <defs>
        <path d="M 10.59375 35.5 
L 73.1875 35.5 
L 73.1875 27.203125 
L 10.59375 27.203125 
z
" id="DejaVuSans-8722"/>
        <path d="M 10.796875 72.90625 
L 49.515625 72.90625 
L 49.515625 64.59375 
L 19.828125 64.59375 
L 19.828125 46.734375 
Q 21.96875 47.46875 24.109375 47.828125 
Q 26.265625 48.1875 28.421875 48.1875 
Q 40.625 48.1875 47.75 41.5 
Q 54.890625 34.8125 54.890625 23.390625 
Q 54.890625 11.625 47.5625 5.09375 
Q 40.234375 -1.421875 26.90625 -1.421875 
Q 22.3125 -1.421875 17.546875 -0.640625 
Q 12.796875 0.140625 7.71875 1.703125 
L 7.71875 11.625 
Q 12.109375 9.234375 16.796875 8.0625 
Q 21.484375 6.890625 26.703125 6.890625 
Q 35.15625 6.890625 40.078125 11.328125 
Q 45.015625 15.765625 45.015625 23.390625 
Q 45.015625 31 40.078125 35.4375 
Q 35.15625 39.890625 26.703125 39.890625 
Q 22.75 39.890625 18.8125 39.015625 
Q 14.890625 38.140625 10.796875 36.28125 
z
" id="DejaVuSans-53"/>
       </defs>
       <use xlink:href="#DejaVuSans-8722"/>
       <use x="83.789062" xlink:href="#DejaVuSans-49"/>
       <use x="147.412109" xlink:href="#DejaVuSans-53"/>
      </g>
     </g>
    </g>
    <g id="ytick_2">
     <g id="line2d_19">
      <path clip-path="url(#p55e79b4a97)" d="M 108 323.64 
L 777.6 323.64 
" style="fill:none;stroke:#b0b0b0;stroke-linecap:square;stroke-width:0.8;"/>
     </g>
     <g id="line2d_20">
      <g>
       <use style="stroke:#000000;stroke-width:0.8;" x="108" xlink:href="#m0310f89c9f" y="323.64"/>
      </g>
     </g>
     <g id="text_11">
      <!-- −10 -->
      <g transform="translate(79.895313 327.439219)scale(0.1 -0.1)">
       <use xlink:href="#DejaVuSans-8722"/>
       <use x="83.789062" xlink:href="#DejaVuSans-49"/>
       <use x="147.412109" xlink:href="#DejaVuSans-48"/>
      </g>
     </g>
    </g>
    <g id="ytick_3">
     <g id="line2d_21">
      <path clip-path="url(#p55e79b4a97)" d="M 108 269.28 
L 777.6 269.28 
" style="fill:none;stroke:#b0b0b0;stroke-linecap:square;stroke-width:0.8;"/>
     </g>
     <g id="line2d_22">
      <g>
       <use style="stroke:#000000;stroke-width:0.8;" x="108" xlink:href="#m0310f89c9f" y="269.28"/>
      </g>
     </g>
     <g id="text_12">
      <!-- −5 -->
      <g transform="translate(86.257812 273.079219)scale(0.1 -0.1)">
       <use xlink:href="#DejaVuSans-8722"/>
       <use x="83.789062" xlink:href="#DejaVuSans-53"/>
      </g>
     </g>
    </g>
    <g id="ytick_4">
     <g id="line2d_23">
      <path clip-path="url(#p55e79b4a97)" d="M 108 214.92 
L 777.6 214.92 
" style="fill:none;stroke:#b0b0b0;stroke-linecap:square;stroke-width:0.8;"/>
     </g>
     <g id="line2d_24">
      <g>
       <use style="stroke:#000000;stroke-width:0.8;" x="108" xlink:href="#m0310f89c9f" y="214.92"/>
      </g>
     </g>
     <g id="text_13">
      <!-- 0 -->
      <g transform="translate(94.6375 218.719219)scale(0.1 -0.1)">
       <use xlink:href="#DejaVuSans-48"/>
      </g>
     </g>
    </g>
    <g id="ytick_5">
     <g id="line2d_25">
      <path clip-path="url(#p55e79b4a97)" d="M 108 160.56 
L 777.6 160.56 
" style="fill:none;stroke:#b0b0b0;stroke-linecap:square;stroke-width:0.8;"/>
     </g>
     <g id="line2d_26">
      <g>
       <use style="stroke:#000000;stroke-width:0.8;" x="108" xlink:href="#m0310f89c9f" y="160.56"/>
      </g>
     </g>
     <g id="text_14">
      <!-- 5 -->
      <g transform="translate(94.6375 164.359219)scale(0.1 -0.1)">
       <use xlink:href="#DejaVuSans-53"/>
      </g>
     </g>
    </g>
    <g id="ytick_6">
     <g id="line2d_27">
      <path clip-path="url(#p55e79b4a97)" d="M 108 106.2 
L 777.6 106.2 
" style="fill:none;stroke:#b0b0b0;stroke-linecap:square;stroke-width:0.8;"/>
     </g>
     <g id="line2d_28">
      <g>
       <use style="stroke:#000000;stroke-width:0.8;" x="108" xlink:href="#m0310f89c9f" y="106.2"/>
      </g>
     </g>
     <g id="text_15">
      <!-- 10 -->
      <g transform="translate(88.275 109.999219)scale(0.1 -0.1)">
       <use xlink:href="#DejaVuSans-49"/>
       <use x="63.623047" xlink:href="#DejaVuSans-48"/>
      </g>
     </g>
    </g>
    <g id="ytick_7">
     <g id="line2d_29">
      <path clip-path="url(#p55e79b4a97)" d="M 108 51.84 
L 777.6 51.84 
" style="fill:none;stroke:#b0b0b0;stroke-linecap:square;stroke-width:0.8;"/>
     </g>
     <g id="line2d_30">
      <g>
       <use style="stroke:#000000;stroke-width:0.8;" x="108" xlink:href="#m0310f89c9f" y="51.84"/>
      </g>
     </g>
     <g id="text_16">
      <!-- 15 -->
      <g transform="translate(88.275 55.639219)scale(0.1 -0.1)">
       <use xlink:href="#DejaVuSans-49"/>
       <use x="63.623047" xlink:href="#DejaVuSans-53"/>
      </g>
     </g>
    </g>
    <g id="text_17">
     <!-- a(t) -->
     <g transform="translate(73.815625 223.845781)rotate(-90)scale(0.1 -0.1)">
      <defs>
       <path d="M 34.28125 27.484375 
Q 23.390625 27.484375 19.1875 25 
Q 14.984375 22.515625 14.984375 16.5 
Q 14.984375 11.71875 18.140625 8.90625 
Q 21.296875 6.109375 26.703125 6.109375 
Q 34.1875 6.109375 38.703125 11.40625 
Q 43.21875 16.703125 43.21875 25.484375 
L 43.21875 27.484375 
z
M 52.203125 31.203125 
L 52.203125 0 
L 43.21875 0 
L 43.21875 8.296875 
Q 40.140625 3.328125 35.546875 0.953125 
Q 30.953125 -1.421875 24.3125 -1.421875 
Q 15.921875 -1.421875 10.953125 3.296875 
Q 6 8.015625 6 15.921875 
Q 6 25.140625 12.171875 29.828125 
Q 18.359375 34.515625 30.609375 34.515625 
L 43.21875 34.515625 
L 43.21875 35.40625 
Q 43.21875 41.609375 39.140625 45 
Q 35.0625 48.390625 27.6875 48.390625 
Q 23 48.390625 18.546875 47.265625 
Q 14.109375 46.140625 10.015625 43.890625 
L 10.015625 52.203125 
Q 14.9375 54.109375 19.578125 55.046875 
Q 24.21875 56 28.609375 56 
Q 40.484375 56 46.34375 49.84375 
Q 52.203125 43.703125 52.203125 31.203125 
z
" id="DejaVuSans-97"/>
      </defs>
      <use xlink:href="#DejaVuSans-97"/>
      <use x="61.279297" xlink:href="#DejaVuSans-40"/>
      <use x="100.292969" xlink:href="#DejaVuSans-116"/>
      <use x="139.501953" xlink:href="#DejaVuSans-41"/>
     </g>
    </g>
   </g>
   <g id="line2d_31">
    <path clip-path="url(#p55e79b4a97)" d="M 108 200.069718 
L 109.284377 214.978802 
L 110.568754 249.571172 
L 111.853131 309.984704 
L 113.137508 344.761703 
L 114.421885 352.778769 
L 115.706262 344.688319 
L 118.275015 314.519925 
L 119.559392 303.003398 
L 120.843769 294.75481 
L 122.128146 285.568913 
L 123.412523 268.865682 
L 124.6969 257.254186 
L 125.981277 239.72681 
L 127.265654 226.130783 
L 128.550031 247.108056 
L 129.834408 271.418312 
L 131.118785 293.288578 
L 132.403162 294.112193 
L 133.687539 277.734046 
L 134.971916 251.179204 
L 136.256293 236.234918 
L 137.54067 224.120273 
L 138.825046 209.857615 
L 140.109423 200.525052 
L 141.3938 194.244318 
L 142.678177 185.087073 
L 143.962554 173.138155 
L 146.531308 138.943844 
L 147.815685 141.858644 
L 150.384439 177.61273 
L 152.953193 196.64372 
L 154.23757 210.867786 
L 155.521947 214.562418 
L 156.806324 199.800121 
L 158.0907 165.884691 
L 159.375077 136.882642 
L 160.659454 120.859172 
L 161.943831 120.090458 
L 163.228208 122.37713 
L 164.512585 127.100211 
L 165.796962 140.469353 
L 167.081339 166.706546 
L 168.365716 195.887041 
L 169.650093 208.452588 
L 170.93447 215.659745 
L 172.218847 221.106478 
L 173.503224 229.471632 
L 174.787601 236.449959 
L 176.071978 230.273207 
L 177.356354 210.158517 
L 178.640731 197.636874 
L 179.925108 192.050194 
L 181.209485 194.102997 
L 182.493862 196.576411 
L 183.778239 197.544038 
L 185.062616 198.984328 
L 186.346993 208.967786 
L 187.63137 237.744528 
L 188.915747 256.882451 
L 190.200124 272.037895 
L 191.484501 289.432065 
L 192.768878 308.772305 
L 194.053255 320.571838 
L 195.337632 309.215022 
L 197.906385 257.42428 
L 199.190762 250.566808 
L 200.475139 246.656009 
L 203.043893 228.28456 
L 204.32827 221.584267 
L 205.612647 219.769471 
L 206.897024 229.756081 
L 209.465778 257.032916 
L 210.750155 257.591385 
L 212.034532 258.713015 
L 213.318909 256.268625 
L 215.887663 229.897402 
L 217.172039 215.314362 
L 218.456416 205.913378 
L 221.02517 188.896684 
L 223.593924 175.064218 
L 224.878301 167.58562 
L 226.162678 168.623 
L 228.731432 186.425532 
L 230.015809 186.511745 
L 231.300186 189.799242 
L 232.584563 205.374585 
L 233.86894 223.902169 
L 235.153317 224.605958 
L 236.437694 213.644291 
L 237.72207 196.447046 
L 239.006447 169.975063 
L 240.290824 153.27565 
L 241.575201 147.437269 
L 242.859578 148.813743 
L 244.143955 157.362334 
L 245.428332 172.971953 
L 246.712709 195.689934 
L 247.997086 201.696351 
L 249.281463 203.919275 
L 250.56584 207.526807 
L 251.850217 217.829734 
L 253.134594 227.177884 
L 254.418971 231.113619 
L 255.703348 227.911987 
L 256.987724 220.696961 
L 259.556478 201.387291 
L 260.840855 195.061145 
L 262.125232 192.971045 
L 263.409609 194.186912 
L 264.693986 199.521865 
L 265.978363 213.130015 
L 267.26274 222.629701 
L 268.547117 226.596081 
L 269.831494 233.842454 
L 271.115871 245.542251 
L 273.684625 275.433207 
L 274.969002 277.285416 
L 276.253379 269.746293 
L 277.537755 257.474395 
L 278.822132 246.286052 
L 280.106509 237.232012 
L 281.390886 229.467209 
L 282.675263 222.84301 
L 283.95964 219.057572 
L 286.528394 225.780306 
L 287.812771 226.077079 
L 289.097148 226.915746 
L 290.381525 230.268402 
L 291.665902 239.2353 
L 292.950279 246.697697 
L 294.234656 244.920078 
L 296.803409 232.129098 
L 298.087786 226.683115 
L 300.65654 211.918854 
L 303.225294 191.203328 
L 304.509671 191.788419 
L 305.794048 194.065006 
L 307.078425 194.179077 
L 308.362802 190.615091 
L 309.647179 191.750828 
L 310.931556 195.692728 
L 312.215933 200.741965 
L 313.50031 205.249205 
L 314.784687 208.498568 
L 316.069063 212.118307 
L 317.35344 218.883469 
L 318.637817 220.790579 
L 319.922194 214.400984 
L 321.206571 194.860053 
L 322.490948 182.886468 
L 323.775325 176.810886 
L 325.059702 177.516333 
L 326.344079 180.950022 
L 327.628456 183.313886 
L 330.19721 201.200539 
L 331.481587 206.728959 
L 332.765964 209.602628 
L 334.050341 209.974382 
L 335.334718 211.404494 
L 336.619094 215.599253 
L 337.903471 219.079743 
L 339.187848 220.592048 
L 340.472225 216.66528 
L 341.756602 207.011497 
L 343.040979 201.8358 
L 344.325356 201.45459 
L 345.609733 202.654983 
L 346.89411 203.370584 
L 348.178487 205.350784 
L 349.462864 211.008605 
L 353.315995 224.182167 
L 354.600372 226.978533 
L 355.884748 231.536242 
L 358.453502 246.090566 
L 359.737879 247.385307 
L 361.022256 242.322522 
L 362.306633 234.091449 
L 363.59101 230.761187 
L 364.875387 228.382005 
L 366.159764 223.094375 
L 367.444141 220.071691 
L 368.728518 220.651716 
L 370.012895 223.36643 
L 371.297272 224.282741 
L 372.581649 225.58631 
L 373.866026 227.83485 
L 375.150403 228.283117 
L 376.434779 229.27569 
L 377.719156 233.835261 
L 379.003533 235.023338 
L 380.28791 232.74136 
L 381.572287 227.780908 
L 384.141041 221.495686 
L 385.425418 216.831267 
L 386.709795 209.483598 
L 387.994172 205.075321 
L 389.278549 204.218385 
L 390.562926 204.877647 
L 393.13168 205.920888 
L 394.416057 205.198094 
L 395.700433 204.173964 
L 396.98481 205.50476 
L 398.269187 209.083612 
L 399.553564 209.616874 
L 400.837941 210.547851 
L 402.122318 212.0716 
L 403.406695 214.845843 
L 404.691072 213.223987 
L 405.975449 208.299906 
L 407.259826 202.514625 
L 408.544203 198.71475 
L 409.82858 196.896356 
L 411.112957 198.093735 
L 413.681711 198.523854 
L 414.966087 199.498818 
L 417.534841 207.278049 
L 418.819218 209.030988 
L 420.103595 207.952698 
L 421.387972 208.685767 
L 422.672349 211.852286 
L 423.956726 213.82459 
L 425.241103 212.937788 
L 426.52548 211.094238 
L 427.809857 210.50391 
L 429.094234 209.078519 
L 430.378611 209.902338 
L 431.662988 210.219997 
L 432.947365 210.078326 
L 434.231742 209.49047 
L 435.516118 210.55841 
L 438.084872 217.203873 
L 439.369249 218.00304 
L 440.653626 217.854568 
L 441.938003 220.265241 
L 443.22238 223.194995 
L 444.506757 225.845543 
L 445.791134 226.413509 
L 447.075511 226.424851 
L 448.359888 225.079827 
L 449.644265 225.694538 
L 450.928642 225.682954 
L 452.213019 224.051368 
L 453.497396 221.230214 
L 454.781772 219.555348 
L 456.066149 221.391495 
L 457.350526 224.542728 
L 458.634903 224.606196 
L 459.91928 223.288045 
L 461.203657 222.918657 
L 462.488034 223.843786 
L 463.772411 224.966175 
L 465.056788 224.601065 
L 466.341165 224.110049 
L 467.625542 224.039291 
L 468.909919 223.649352 
L 470.194296 222.847433 
L 471.478673 221.804913 
L 472.76305 218.736352 
L 474.047427 215.230642 
L 475.331803 212.388658 
L 476.61618 212.694682 
L 477.900557 212.691628 
L 479.184934 211.766303 
L 480.469311 211.134683 
L 481.753688 211.250476 
L 484.322442 210.966368 
L 485.606819 210.237414 
L 486.891196 210.773004 
L 488.175573 210.730935 
L 489.45995 211.481091 
L 490.744327 213.868736 
L 492.028704 213.486111 
L 493.313081 211.236328 
L 494.597457 208.575025 
L 495.881834 207.949904 
L 497.166211 207.589548 
L 498.450588 207.017866 
L 499.734965 206.607423 
L 501.019342 206.63445 
L 502.303719 207.49512 
L 503.588096 207.885152 
L 504.872473 208.421469 
L 506.15685 208.722352 
L 507.441227 208.424765 
L 508.725604 209.053126 
L 510.009981 212.124704 
L 511.294358 213.615965 
L 512.578735 213.788601 
L 513.863111 212.394525 
L 515.147488 211.519724 
L 516.431865 211.941174 
L 520.284996 211.600469 
L 521.569373 211.882055 
L 522.85375 213.386622 
L 525.422504 215.362661 
L 526.706881 214.270864 
L 527.991258 214.880025 
L 529.275635 216.284801 
L 530.560012 217.883871 
L 531.844389 218.506422 
L 533.128766 218.728705 
L 534.413142 218.713054 
L 536.981896 220.158708 
L 538.266273 219.56932 
L 542.119404 218.782444 
L 543.403781 219.818315 
L 544.688158 220.385686 
L 545.972535 220.225895 
L 547.256912 218.97591 
L 548.541289 219.346099 
L 549.825666 220.221635 
L 551.110043 220.538106 
L 552.39442 220.254752 
L 553.678796 220.113612 
L 554.963173 220.664622 
L 556.24755 220.702837 
L 558.816304 218.626531 
L 560.100681 217.406208 
L 561.385058 216.411298 
L 562.669435 215.806616 
L 563.953812 215.658949 
L 565.238189 214.66505 
L 567.806943 213.489086 
L 570.375697 214.572828 
L 571.660074 213.887197 
L 572.944451 213.723039 
L 575.513204 213.116704 
L 578.081958 214.229614 
L 579.366335 213.448916 
L 580.650712 212.254879 
L 581.935089 211.86737 
L 583.219466 211.939148 
L 585.78822 211.272922 
L 587.072597 210.472037 
L 588.356974 211.058589 
L 589.641351 211.983616 
L 590.925728 211.552338 
L 592.210105 211.949638 
L 593.494481 211.888294 
L 594.778858 212.072285 
L 596.063235 212.732394 
L 597.347612 213.234965 
L 598.631989 213.403327 
L 599.916366 212.561406 
L 601.200743 212.208331 
L 602.48512 212.583837 
L 603.769497 213.285173 
L 605.053874 212.835025 
L 607.622628 213.19717 
L 608.907005 213.895353 
L 610.191382 213.606291 
L 611.475759 214.140335 
L 612.760136 213.738319 
L 615.328889 215.093911 
L 616.613266 215.832884 
L 617.897643 216.226688 
L 619.18202 216.186741 
L 620.466397 215.842298 
L 621.750774 215.6636 
L 623.035151 215.89529 
L 625.603905 215.758876 
L 626.888282 215.524207 
L 628.172659 215.954064 
L 629.457036 216.633676 
L 630.741413 216.318378 
L 632.02579 216.247462 
L 633.310166 217.035071 
L 634.594543 217.41294 
L 635.87892 216.97513 
L 637.163297 217.250677 
L 638.447674 218.070195 
L 639.732051 217.879332 
L 641.016428 217.853674 
L 642.300805 218.046991 
L 643.585182 217.004294 
L 644.869559 216.526044 
L 646.153936 216.352552 
L 647.438313 216.306292 
L 648.72269 216.088653 
L 650.007067 216.089659 
L 651.291444 215.771614 
L 653.860197 214.859679 
L 656.428951 215.85079 
L 661.566459 215.069431 
L 662.850836 215.010322 
L 664.135213 214.635327 
L 665.41959 214.432257 
L 666.703967 214.436237 
L 670.557098 213.265516 
L 671.841475 214.109542 
L 673.125851 213.714016 
L 674.410228 213.6013 
L 675.694605 213.632931 
L 676.978982 214.216727 
L 678.263359 214.509258 
L 679.547736 214.187089 
L 680.832113 214.998785 
L 682.11649 215.025928 
L 683.400867 214.801678 
L 684.685244 214.353495 
L 685.969621 213.60157 
L 687.253998 214.089653 
L 688.538375 214.120353 
L 689.822752 213.66256 
L 691.107129 213.911123 
L 692.391505 213.512011 
L 693.675882 213.635799 
L 696.244636 213.703177 
L 697.529013 214.088423 
L 701.382144 214.412633 
L 703.950898 215.18874 
L 706.519652 215.649996 
L 707.804029 214.663243 
L 710.372783 214.867464 
L 711.65716 214.424756 
L 712.941536 214.580203 
L 714.225913 214.517853 
L 715.51029 214.893089 
L 716.794667 215.645797 
L 718.079044 215.431939 
L 719.363421 215.523285 
L 720.647798 216.17296 
L 721.932175 215.821682 
L 723.216552 215.993601 
L 724.500929 216.363698 
L 725.785306 216.603265 
L 727.069683 216.080562 
L 728.35406 215.340928 
L 729.638437 215.578037 
L 730.922814 215.635582 
L 732.20719 215.211926 
L 733.491567 215.666869 
L 734.775944 215.575453 
L 738.629075 215.598364 
L 739.913452 215.403781 
L 741.197829 215.439304 
L 742.482206 215.827763 
L 743.766583 215.64684 
L 746.335337 215.921297 
L 747.619714 215.858039 
L 748.904091 216.21192 
L 750.188468 215.987363 
L 751.472844 214.950877 
L 752.757221 214.740129 
L 755.325975 215.085913 
L 756.610352 214.489592 
L 757.894729 214.170458 
L 759.179106 214.622324 
L 760.463483 214.695024 
L 763.032237 214.425147 
L 764.316614 214.651455 
L 765.600991 215.073863 
L 766.885368 215.306456 
L 768.169745 214.764627 
L 769.454122 215.525352 
L 772.022875 214.53331 
L 773.307252 214.640998 
L 775.876006 214.452803 
L 777.160383 214.229004 
L 777.160383 214.229004 
" style="fill:none;stroke:#1f77b4;stroke-linecap:square;stroke-width:1.5;"/>
   </g>
   <g id="line2d_32">
    <path clip-path="url(#p55e79b4a97)" d="M 108 278.774789 
L 109.284377 283.599316 
L 110.568754 287.671195 
L 111.853131 290.964879 
L 113.137508 293.462819 
L 114.421885 295.155477 
L 115.706262 296.04128 
L 116.990639 296.126484 
L 118.275015 295.42497 
L 119.559392 293.957971 
L 120.843769 291.753732 
L 122.128146 288.847105 
L 123.412523 285.279095 
L 124.6969 281.096348 
L 125.981277 276.350596 
L 128.550031 265.398851 
L 131.118785 252.916141 
L 134.971916 232.492929 
L 140.109423 204.974339 
L 142.678177 192.273727 
L 145.246931 180.901066 
L 146.531308 175.836453 
L 147.815685 171.24275 
L 149.100062 167.155721 
L 150.384439 163.605575 
L 151.668816 160.616777 
L 152.953193 158.207912 
L 154.23757 156.39162 
L 155.521947 155.174576 
L 156.806324 154.557542 
L 158.0907 154.535461 
L 159.375077 155.09762 
L 160.659454 156.227852 
L 161.943831 157.904794 
L 163.228208 160.102192 
L 164.512585 162.78924 
L 165.796962 165.930964 
L 167.081339 169.488636 
L 169.650093 177.680832 
L 172.218847 186.99834 
L 176.071978 202.21174 
L 181.209485 222.660825 
L 183.778239 232.078573 
L 186.346993 240.497632 
L 187.63137 244.241208 
L 188.915747 247.632527 
L 190.200124 250.645271 
L 191.484501 253.257264 
L 192.768878 255.450613 
L 194.053255 257.2118 
L 195.337632 258.531735 
L 196.622009 259.405762 
L 197.906385 259.83362 
L 199.190762 259.819367 
L 200.475139 259.371262 
L 201.759516 258.501607 
L 203.043893 257.226552 
L 204.32827 255.565872 
L 205.612647 253.542706 
L 206.897024 251.183275 
L 208.181401 248.516566 
L 210.750155 242.389115 
L 213.318909 235.434667 
L 217.172039 224.102679 
L 222.309547 208.90767 
L 224.878301 201.924601 
L 227.447055 195.692463 
L 230.015809 190.422151 
L 231.300186 188.201576 
L 232.584563 186.280118 
L 233.86894 184.67086 
L 235.153317 183.383628 
L 236.437694 182.424952 
L 237.72207 181.798067 
L 239.006447 181.502938 
L 240.290824 181.536327 
L 241.575201 181.891876 
L 242.859578 182.56023 
L 244.143955 183.529181 
L 245.428332 184.78384 
L 246.712709 186.306828 
L 247.997086 188.078491 
L 250.56584 192.279258 
L 253.134594 197.192583 
L 255.703348 202.604715 
L 264.693986 222.229389 
L 267.26274 227.146019 
L 269.831494 231.416343 
L 271.115871 233.264148 
L 272.400248 234.90065 
L 273.684625 236.313908 
L 274.969002 237.494359 
L 276.253379 238.434865 
L 277.537755 239.13074 
L 278.822132 239.579749 
L 280.106509 239.782086 
L 281.390886 239.740325 
L 282.675263 239.459353 
L 283.95964 238.94628 
L 285.244017 238.210332 
L 286.528394 237.262716 
L 287.812771 236.116483 
L 289.097148 234.786364 
L 291.665902 231.640741 
L 294.234656 227.970451 
L 298.087786 221.832361 
L 304.509671 211.312941 
L 307.078425 207.474324 
L 309.647179 204.060042 
L 312.215933 201.185164 
L 313.50031 199.979254 
L 314.784687 198.939951 
L 316.069063 198.074242 
L 317.35344 197.387309 
L 318.637817 196.88251 
L 319.922194 196.561381 
L 321.206571 196.423652 
L 322.490948 196.467286 
L 323.775325 196.688531 
L 325.059702 197.081985 
L 326.344079 197.640681 
L 327.628456 198.356181 
L 328.912833 199.218688 
L 331.481587 201.339453 
L 334.050341 203.902152 
L 336.619094 206.792738 
L 341.756602 213.064457 
L 345.609733 217.706974 
L 348.178487 220.552771 
L 350.747241 223.079669 
L 353.315995 225.202683 
L 355.884748 226.855359 
L 357.169125 227.490098 
L 358.453502 227.991643 
L 359.737879 228.357591 
L 361.022256 228.586895 
L 362.306633 228.679847 
L 363.59101 228.638054 
L 364.875387 228.464393 
L 366.159764 228.162968 
L 368.728518 227.198952 
L 371.297272 225.800653 
L 373.866026 224.037329 
L 376.434779 221.98967 
L 380.28791 218.580183 
L 386.709795 212.769858 
L 389.278549 210.660213 
L 391.847303 208.79019 
L 394.416057 207.222548 
L 396.98481 206.006207 
L 399.553564 205.174875 
L 402.122318 204.746317 
L 404.691072 204.722254 
L 407.259826 205.088883 
L 409.82858 205.817969 
L 412.397334 206.868449 
L 414.966087 208.18847 
L 418.819218 210.540388 
L 430.378611 218.140376 
L 432.947365 219.524189 
L 435.516118 220.681635 
L 438.084872 221.576708 
L 440.653626 222.184746 
L 443.22238 222.492951 
L 445.791134 222.500457 
L 448.359888 222.217921 
L 450.928642 221.6667 
L 453.497396 220.877646 
L 456.066149 219.889576 
L 459.91928 218.134003 
L 471.478673 212.486209 
L 475.331803 211.011981 
L 477.900557 210.252651 
L 480.469311 209.699372 
L 483.038065 209.365794 
L 485.606819 209.256671 
L 488.175573 209.368005 
L 490.744327 209.687515 
L 493.313081 210.195412 
L 497.166211 211.251541 
L 501.019342 212.561892 
L 512.578735 216.758748 
L 516.431865 217.848975 
L 520.284996 218.631629 
L 522.85375 218.956587 
L 525.422504 219.115416 
L 527.991258 219.108091 
L 530.560012 218.94094 
L 534.413142 218.418685 
L 538.266273 217.627736 
L 543.403781 216.298133 
L 553.678796 213.531237 
L 557.531927 212.725048 
L 561.385058 212.148767 
L 565.238189 211.838867 
L 569.09132 211.80724 
L 572.944451 212.041516 
L 576.797581 212.507427 
L 581.935089 213.397052 
L 597.347612 216.383258 
L 601.200743 216.868653 
L 605.053874 217.1624 
L 608.907005 217.249934 
L 612.760136 217.134982 
L 617.897643 216.704658 
L 623.035151 216.039784 
L 638.447674 213.82174 
L 643.585182 213.375445 
L 648.72269 213.190659 
L 653.860197 213.276162 
L 658.997705 213.599925 
L 665.41959 214.238209 
L 679.547736 215.744193 
L 684.685244 216.072991 
L 689.822752 216.206887 
L 694.960259 216.139906 
L 701.382144 215.81319 
L 711.65716 214.979954 
L 720.647798 214.301567 
L 727.069683 214.020943 
L 733.491567 213.97058 
L 739.913452 214.1416 
L 748.904091 214.634623 
L 763.032237 215.437911 
L 770.738499 215.625578 
L 777.160383 215.591731 
L 777.160383 215.591731 
" style="fill:none;stroke:#ff0000;stroke-dasharray:1.5,2.475;stroke-dashoffset:0;stroke-width:1.5;"/>
   </g>
   <g id="patch_3">
    <path d="M 108 378 
L 108 51.84 
" style="fill:none;stroke:#000000;stroke-linecap:square;stroke-linejoin:miter;stroke-width:0.8;"/>
   </g>
   <g id="patch_4">
    <path d="M 777.6 378 
L 777.6 51.84 
" style="fill:none;stroke:#000000;stroke-linecap:square;stroke-linejoin:miter;stroke-width:0.8;"/>
   </g>
   <g id="patch_5">
    <path d="M 108 378 
L 777.6 378 
" style="fill:none;stroke:#000000;stroke-linecap:square;stroke-linejoin:miter;stroke-width:0.8;"/>
   </g>
   <g id="patch_6">
    <path d="M 108 51.84 
L 777.6 51.84 
" style="fill:none;stroke:#000000;stroke-linecap:square;stroke-linejoin:miter;stroke-width:0.8;"/>
   </g>
   <g id="text_18">
    <!-- Medição 5 - Direção X -->
    <g transform="translate(344.296406 45.84)scale(0.18 -0.18)">
     <defs>
      <path d="M 9.8125 72.90625 
L 24.515625 72.90625 
L 43.109375 23.296875 
L 61.8125 72.90625 
L 76.515625 72.90625 
L 76.515625 0 
L 66.890625 0 
L 66.890625 64.015625 
L 48.09375 14.015625 
L 38.1875 14.015625 
L 19.390625 64.015625 
L 19.390625 0 
L 9.8125 0 
z
" id="DejaVuSans-77"/>
      <path d="M 45.40625 46.390625 
L 45.40625 75.984375 
L 54.390625 75.984375 
L 54.390625 0 
L 45.40625 0 
L 45.40625 8.203125 
Q 42.578125 3.328125 38.25 0.953125 
Q 33.9375 -1.421875 27.875 -1.421875 
Q 17.96875 -1.421875 11.734375 6.484375 
Q 5.515625 14.40625 5.515625 27.296875 
Q 5.515625 40.1875 11.734375 48.09375 
Q 17.96875 56 27.875 56 
Q 33.9375 56 38.25 53.625 
Q 42.578125 51.265625 45.40625 46.390625 
z
M 14.796875 27.296875 
Q 14.796875 17.390625 18.875 11.75 
Q 22.953125 6.109375 30.078125 6.109375 
Q 37.203125 6.109375 41.296875 11.75 
Q 45.40625 17.390625 45.40625 27.296875 
Q 45.40625 37.203125 41.296875 42.84375 
Q 37.203125 48.484375 30.078125 48.484375 
Q 22.953125 48.484375 18.875 42.84375 
Q 14.796875 37.203125 14.796875 27.296875 
z
" id="DejaVuSans-100"/>
      <path d="M 48.78125 52.59375 
L 48.78125 44.1875 
Q 44.96875 46.296875 41.140625 47.34375 
Q 37.3125 48.390625 33.40625 48.390625 
Q 24.65625 48.390625 19.8125 42.84375 
Q 14.984375 37.3125 14.984375 27.296875 
Q 14.984375 17.28125 19.8125 11.734375 
Q 24.65625 6.203125 33.40625 6.203125 
Q 37.3125 6.203125 41.140625 7.25 
Q 44.96875 8.296875 48.78125 10.40625 
L 48.78125 2.09375 
Q 45.015625 0.34375 40.984375 -0.53125 
Q 36.96875 -1.421875 32.421875 -1.421875 
Q 20.0625 -1.421875 12.78125 6.34375 
Q 5.515625 14.109375 5.515625 27.296875 
Q 5.515625 40.671875 12.859375 48.328125 
Q 20.21875 56 33.015625 56 
Q 37.15625 56 41.109375 55.140625 
Q 45.0625 54.296875 48.78125 52.59375 
z
M 36.078125 0 
Q 38.765625 -3.03125 40.078125 -5.59375 
Q 41.40625 -8.15625 41.40625 -10.5 
Q 41.40625 -14.84375 38.46875 -17.0625 
Q 35.546875 -19.28125 29.78125 -19.28125 
Q 27.546875 -19.28125 25.421875 -18.984375 
Q 23.296875 -18.703125 21.1875 -18.109375 
L 21.1875 -11.71875 
Q 22.859375 -12.546875 24.65625 -12.90625 
Q 26.46875 -13.28125 28.765625 -13.28125 
Q 31.640625 -13.28125 33.109375 -12.109375 
Q 34.578125 -10.9375 34.578125 -8.6875 
Q 34.578125 -7.234375 33.515625 -5.109375 
Q 32.46875 -2.984375 30.28125 0 
z
" id="DejaVuSans-231"/>
      <path d="M 34.28125 27.484375 
Q 23.390625 27.484375 19.1875 25 
Q 14.984375 22.515625 14.984375 16.5 
Q 14.984375 11.71875 18.140625 8.90625 
Q 21.296875 6.109375 26.703125 6.109375 
Q 34.1875 6.109375 38.703125 11.40625 
Q 43.21875 16.703125 43.21875 25.484375 
L 43.21875 27.484375 
z
M 52.203125 31.203125 
L 52.203125 0 
L 43.21875 0 
L 43.21875 8.296875 
Q 40.140625 3.328125 35.546875 0.953125 
Q 30.953125 -1.421875 24.3125 -1.421875 
Q 15.921875 -1.421875 10.953125 3.296875 
Q 6 8.015625 6 15.921875 
Q 6 25.140625 12.171875 29.828125 
Q 18.359375 34.515625 30.609375 34.515625 
L 43.21875 34.515625 
L 43.21875 35.40625 
Q 43.21875 41.609375 39.140625 45 
Q 35.0625 48.390625 27.6875 48.390625 
Q 23 48.390625 18.546875 47.265625 
Q 14.109375 46.140625 10.015625 43.890625 
L 10.015625 52.203125 
Q 14.9375 54.109375 19.578125 55.046875 
Q 24.21875 56 28.609375 56 
Q 40.484375 56 46.34375 49.84375 
Q 52.203125 43.703125 52.203125 31.203125 
z
M 28.8125 66.890625 
L 26.03125 69.578125 
Q 24.953125 70.5625 24.140625 71.015625 
Q 23.34375 71.484375 22.703125 71.484375 
Q 20.84375 71.484375 19.96875 69.703125 
Q 19.09375 67.921875 19 63.921875 
L 12.890625 63.921875 
Q 12.984375 70.515625 15.46875 74.09375 
Q 17.96875 77.6875 22.40625 77.6875 
Q 24.265625 77.6875 25.828125 77 
Q 27.390625 76.3125 29.203125 74.703125 
L 31.984375 72.015625 
Q 33.0625 71.046875 33.859375 70.578125 
Q 34.671875 70.125 35.296875 70.125 
Q 37.15625 70.125 38.03125 71.90625 
Q 38.921875 73.6875 39.015625 77.6875 
L 45.125 77.6875 
Q 45.015625 71.09375 42.53125 67.5 
Q 40.046875 63.921875 35.59375 63.921875 
Q 33.734375 63.921875 32.171875 64.59375 
Q 30.609375 65.28125 28.8125 66.890625 
z
" id="DejaVuSans-227"/>
      <path d="M 30.609375 48.390625 
Q 23.390625 48.390625 19.1875 42.75 
Q 14.984375 37.109375 14.984375 27.296875 
Q 14.984375 17.484375 19.15625 11.84375 
Q 23.34375 6.203125 30.609375 6.203125 
Q 37.796875 6.203125 41.984375 11.859375 
Q 46.1875 17.53125 46.1875 27.296875 
Q 46.1875 37.015625 41.984375 42.703125 
Q 37.796875 48.390625 30.609375 48.390625 
z
M 30.609375 56 
Q 42.328125 56 49.015625 48.375 
Q 55.71875 40.765625 55.71875 27.296875 
Q 55.71875 13.875 49.015625 6.21875 
Q 42.328125 -1.421875 30.609375 -1.421875 
Q 18.84375 -1.421875 12.171875 6.21875 
Q 5.515625 13.875 5.515625 27.296875 
Q 5.515625 40.765625 12.171875 48.375 
Q 18.84375 56 30.609375 56 
z
" id="DejaVuSans-111"/>
      <path d="M 4.890625 31.390625 
L 31.203125 31.390625 
L 31.203125 23.390625 
L 4.890625 23.390625 
z
" id="DejaVuSans-45"/>
      <path d="M 19.671875 64.796875 
L 19.671875 8.109375 
L 31.59375 8.109375 
Q 46.6875 8.109375 53.6875 14.9375 
Q 60.6875 21.78125 60.6875 36.53125 
Q 60.6875 51.171875 53.6875 57.984375 
Q 46.6875 64.796875 31.59375 64.796875 
z
M 9.8125 72.90625 
L 30.078125 72.90625 
Q 51.265625 72.90625 61.171875 64.09375 
Q 71.09375 55.28125 71.09375 36.53125 
Q 71.09375 17.671875 61.125 8.828125 
Q 51.171875 0 30.078125 0 
L 9.8125 0 
z
" id="DejaVuSans-68"/>
      <path d="M 41.109375 46.296875 
Q 39.59375 47.171875 37.8125 47.578125 
Q 36.03125 48 33.890625 48 
Q 26.265625 48 22.1875 43.046875 
Q 18.109375 38.09375 18.109375 28.8125 
L 18.109375 0 
L 9.078125 0 
L 9.078125 54.6875 
L 18.109375 54.6875 
L 18.109375 46.1875 
Q 20.953125 51.171875 25.484375 53.578125 
Q 30.03125 56 36.53125 56 
Q 37.453125 56 38.578125 55.875 
Q 39.703125 55.765625 41.0625 55.515625 
z
" id="DejaVuSans-114"/>
      <path d="M 6.296875 72.90625 
L 16.890625 72.90625 
L 35.015625 45.796875 
L 53.21875 72.90625 
L 63.8125 72.90625 
L 40.375 37.890625 
L 65.375 0 
L 54.78125 0 
L 34.28125 31 
L 13.625 0 
L 2.984375 0 
L 29 38.921875 
z
" id="DejaVuSans-88"/>
     </defs>
     <use xlink:href="#DejaVuSans-77"/>
     <use x="86.279297" xlink:href="#DejaVuSans-101"/>
     <use x="147.802734" xlink:href="#DejaVuSans-100"/>
     <use x="211.279297" xlink:href="#DejaVuSans-105"/>
     <use x="239.0625" xlink:href="#DejaVuSans-231"/>
     <use x="294.042969" xlink:href="#DejaVuSans-227"/>
     <use x="355.322266" xlink:href="#DejaVuSans-111"/>
     <use x="416.503906" xlink:href="#DejaVuSans-32"/>
     <use x="448.291016" xlink:href="#DejaVuSans-53"/>
     <use x="511.914062" xlink:href="#DejaVuSans-32"/>
     <use x="543.701172" xlink:href="#DejaVuSans-45"/>
     <use x="579.785156" xlink:href="#DejaVuSans-32"/>
     <use x="611.572266" xlink:href="#DejaVuSans-68"/>
     <use x="688.574219" xlink:href="#DejaVuSans-105"/>
     <use x="716.357422" xlink:href="#DejaVuSans-114"/>
     <use x="755.220703" xlink:href="#DejaVuSans-101"/>
     <use x="816.744141" xlink:href="#DejaVuSans-231"/>
     <use x="871.724609" xlink:href="#DejaVuSans-227"/>
     <use x="933.003906" xlink:href="#DejaVuSans-111"/>
     <use x="994.185547" xlink:href="#DejaVuSans-32"/>
     <use x="1025.972656" xlink:href="#DejaVuSans-88"/>
    </g>
   </g>
   <g id="legend_1">
    <g id="patch_7">
     <path d="M 701.221875 89.19625 
L 770.6 89.19625 
Q 772.6 89.19625 772.6 87.19625 
L 772.6 58.84 
Q 772.6 56.84 770.6 56.84 
L 701.221875 56.84 
Q 699.221875 56.84 699.221875 58.84 
L 699.221875 87.19625 
Q 699.221875 89.19625 701.221875 89.19625 
z
" style="fill:#ffffff;opacity:0.8;stroke:#cccccc;stroke-linejoin:miter;"/>
    </g>
    <g id="line2d_33">
     <path d="M 703.221875 64.938437 
L 723.221875 64.938437 
" style="fill:none;stroke:#1f77b4;stroke-linecap:square;stroke-width:1.5;"/>
    </g>
    <g id="line2d_34"/>
    <g id="text_19">
     <!-- original -->
     <g transform="translate(731.221875 68.438437)scale(0.1 -0.1)">
      <defs>
       <path d="M 45.40625 27.984375 
Q 45.40625 37.75 41.375 43.109375 
Q 37.359375 48.484375 30.078125 48.484375 
Q 22.859375 48.484375 18.828125 43.109375 
Q 14.796875 37.75 14.796875 27.984375 
Q 14.796875 18.265625 18.828125 12.890625 
Q 22.859375 7.515625 30.078125 7.515625 
Q 37.359375 7.515625 41.375 12.890625 
Q 45.40625 18.265625 45.40625 27.984375 
z
M 54.390625 6.78125 
Q 54.390625 -7.171875 48.1875 -13.984375 
Q 42 -20.796875 29.203125 -20.796875 
Q 24.46875 -20.796875 20.265625 -20.09375 
Q 16.0625 -19.390625 12.109375 -17.921875 
L 12.109375 -9.1875 
Q 16.0625 -11.328125 19.921875 -12.34375 
Q 23.78125 -13.375 27.78125 -13.375 
Q 36.625 -13.375 41.015625 -8.765625 
Q 45.40625 -4.15625 45.40625 5.171875 
L 45.40625 9.625 
Q 42.625 4.78125 38.28125 2.390625 
Q 33.9375 0 27.875 0 
Q 17.828125 0 11.671875 7.65625 
Q 5.515625 15.328125 5.515625 27.984375 
Q 5.515625 40.671875 11.671875 48.328125 
Q 17.828125 56 27.875 56 
Q 33.9375 56 38.28125 53.609375 
Q 42.625 51.21875 45.40625 46.390625 
L 45.40625 54.6875 
L 54.390625 54.6875 
z
" id="DejaVuSans-103"/>
       <path d="M 54.890625 33.015625 
L 54.890625 0 
L 45.90625 0 
L 45.90625 32.71875 
Q 45.90625 40.484375 42.875 44.328125 
Q 39.84375 48.1875 33.796875 48.1875 
Q 26.515625 48.1875 22.3125 43.546875 
Q 18.109375 38.921875 18.109375 30.90625 
L 18.109375 0 
L 9.078125 0 
L 9.078125 54.6875 
L 18.109375 54.6875 
L 18.109375 46.1875 
Q 21.34375 51.125 25.703125 53.5625 
Q 30.078125 56 35.796875 56 
Q 45.21875 56 50.046875 50.171875 
Q 54.890625 44.34375 54.890625 33.015625 
z
" id="DejaVuSans-110"/>
       <path d="M 9.421875 75.984375 
L 18.40625 75.984375 
L 18.40625 0 
L 9.421875 0 
z
" id="DejaVuSans-108"/>
      </defs>
      <use xlink:href="#DejaVuSans-111"/>
      <use x="61.181641" xlink:href="#DejaVuSans-114"/>
      <use x="102.294922" xlink:href="#DejaVuSans-105"/>
      <use x="130.078125" xlink:href="#DejaVuSans-103"/>
      <use x="193.554688" xlink:href="#DejaVuSans-105"/>
      <use x="221.337891" xlink:href="#DejaVuSans-110"/>
      <use x="284.716797" xlink:href="#DejaVuSans-97"/>
      <use x="345.996094" xlink:href="#DejaVuSans-108"/>
     </g>
    </g>
    <g id="line2d_35">
     <path d="M 703.221875 79.616562 
L 723.221875 79.616562 
" style="fill:none;stroke:#ff0000;stroke-dasharray:1.5,2.475;stroke-dashoffset:0;stroke-width:1.5;"/>
    </g>
    <g id="line2d_36"/>
    <g id="text_20">
     <!-- fitted -->
     <g transform="translate(731.221875 83.116562)scale(0.1 -0.1)">
      <defs>
       <path d="M 37.109375 75.984375 
L 37.109375 68.5 
L 28.515625 68.5 
Q 23.6875 68.5 21.796875 66.546875 
Q 19.921875 64.59375 19.921875 59.515625 
L 19.921875 54.6875 
L 34.71875 54.6875 
L 34.71875 47.703125 
L 19.921875 47.703125 
L 19.921875 0 
L 10.890625 0 
L 10.890625 47.703125 
L 2.296875 47.703125 
L 2.296875 54.6875 
L 10.890625 54.6875 
L 10.890625 58.5 
Q 10.890625 67.625 15.140625 71.796875 
Q 19.390625 75.984375 28.609375 75.984375 
z
" id="DejaVuSans-102"/>
      </defs>
      <use xlink:href="#DejaVuSans-102"/>
      <use x="35.205078" xlink:href="#DejaVuSans-105"/>
      <use x="62.988281" xlink:href="#DejaVuSans-116"/>
      <use x="102.197266" xlink:href="#DejaVuSans-116"/>
      <use x="141.40625" xlink:href="#DejaVuSans-101"/>
      <use x="202.929688" xlink:href="#DejaVuSans-100"/>
     </g>
    </g>
   </g>
  </g>
 </g>
 <defs>
  <clipPath id="p55e79b4a97">
   <rect height="326.16" width="669.6" x="108" y="51.84"/>
  </clipPath>
 </defs>
</svg>
