<?xml version="1.0" encoding="utf-8" standalone="no"?>
<!DOCTYPE svg PUBLIC "-//W3C//DTD SVG 1.1//EN"
  "http://www.w3.org/Graphics/SVG/1.1/DTD/svg11.dtd">
<!-- Created with matplotlib (https://matplotlib.org/) -->
<svg height="432pt" version="1.1" viewBox="0 0 864 432" width="864pt" xmlns="http://www.w3.org/2000/svg" xmlns:xlink="http://www.w3.org/1999/xlink">
 <metadata>
  <rdf:RDF xmlns:cc="http://creativecommons.org/ns#" xmlns:dc="http://purl.org/dc/elements/1.1/" xmlns:rdf="http://www.w3.org/1999/02/22-rdf-syntax-ns#">
   <cc:Work>
    <dc:type rdf:resource="http://purl.org/dc/dcmitype/StillImage"/>
    <dc:date>2021-11-25T23:11:12.201242</dc:date>
    <dc:format>image/svg+xml</dc:format>
    <dc:creator>
     <cc:Agent>
      <dc:title>Matplotlib v3.3.2, https://matplotlib.org/</dc:title>
     </cc:Agent>
    </dc:creator>
   </cc:Work>
  </rdf:RDF>
 </metadata>
 <defs>
  <style type="text/css">*{stroke-linecap:butt;stroke-linejoin:round;}</style>
 </defs>
 <g id="figure_1">
  <g id="patch_1">
   <path d="M 0 432 
L 864 432 
L 864 0 
L 0 0 
z
" style="fill:none;"/>
  </g>
  <g id="axes_1">
   <g id="patch_2">
    <path d="M 108 378 
L 777.6 378 
L 777.6 51.84 
L 108 51.84 
z
" style="fill:#ffffff;"/>
   </g>
   <g id="matplotlib.axis_1">
    <g id="xtick_1">
     <g id="line2d_1">
      <path clip-path="url(#p2695496406)" d="M 108 378 
L 108 51.84 
" style="fill:none;stroke:#b0b0b0;stroke-linecap:square;stroke-width:0.8;"/>
     </g>
     <g id="line2d_2">
      <defs>
       <path d="M 0 0 
L 0 3.5 
" id="m035c6f8690" style="stroke:#000000;stroke-width:0.8;"/>
      </defs>
      <g>
       <use style="stroke:#000000;stroke-width:0.8;" x="108" xlink:href="#m035c6f8690" y="378"/>
      </g>
     </g>
     <g id="text_1">
      <!-- 0.0 -->
      <g transform="translate(100.048438 392.598437)scale(0.1 -0.1)">
       <defs>
        <path d="M 31.78125 66.40625 
Q 24.171875 66.40625 20.328125 58.90625 
Q 16.5 51.421875 16.5 36.375 
Q 16.5 21.390625 20.328125 13.890625 
Q 24.171875 6.390625 31.78125 6.390625 
Q 39.453125 6.390625 43.28125 13.890625 
Q 47.125 21.390625 47.125 36.375 
Q 47.125 51.421875 43.28125 58.90625 
Q 39.453125 66.40625 31.78125 66.40625 
z
M 31.78125 74.21875 
Q 44.046875 74.21875 50.515625 64.515625 
Q 56.984375 54.828125 56.984375 36.375 
Q 56.984375 17.96875 50.515625 8.265625 
Q 44.046875 -1.421875 31.78125 -1.421875 
Q 19.53125 -1.421875 13.0625 8.265625 
Q 6.59375 17.96875 6.59375 36.375 
Q 6.59375 54.828125 13.0625 64.515625 
Q 19.53125 74.21875 31.78125 74.21875 
z
" id="DejaVuSans-48"/>
        <path d="M 10.6875 12.40625 
L 21 12.40625 
L 21 0 
L 10.6875 0 
z
" id="DejaVuSans-46"/>
       </defs>
       <use xlink:href="#DejaVuSans-48"/>
       <use x="63.623047" xlink:href="#DejaVuSans-46"/>
       <use x="95.410156" xlink:href="#DejaVuSans-48"/>
      </g>
     </g>
    </g>
    <g id="xtick_2">
     <g id="line2d_3">
      <path clip-path="url(#p2695496406)" d="M 192.067797 378 
L 192.067797 51.84 
" style="fill:none;stroke:#b0b0b0;stroke-linecap:square;stroke-width:0.8;"/>
     </g>
     <g id="line2d_4">
      <g>
       <use style="stroke:#000000;stroke-width:0.8;" x="192.067797" xlink:href="#m035c6f8690" y="378"/>
      </g>
     </g>
     <g id="text_2">
      <!-- 0.2 -->
      <g transform="translate(184.116234 392.598437)scale(0.1 -0.1)">
       <defs>
        <path d="M 19.1875 8.296875 
L 53.609375 8.296875 
L 53.609375 0 
L 7.328125 0 
L 7.328125 8.296875 
Q 12.9375 14.109375 22.625 23.890625 
Q 32.328125 33.6875 34.8125 36.53125 
Q 39.546875 41.84375 41.421875 45.53125 
Q 43.3125 49.21875 43.3125 52.78125 
Q 43.3125 58.59375 39.234375 62.25 
Q 35.15625 65.921875 28.609375 65.921875 
Q 23.96875 65.921875 18.8125 64.3125 
Q 13.671875 62.703125 7.8125 59.421875 
L 7.8125 69.390625 
Q 13.765625 71.78125 18.9375 73 
Q 24.125 74.21875 28.421875 74.21875 
Q 39.75 74.21875 46.484375 68.546875 
Q 53.21875 62.890625 53.21875 53.421875 
Q 53.21875 48.921875 51.53125 44.890625 
Q 49.859375 40.875 45.40625 35.40625 
Q 44.1875 33.984375 37.640625 27.21875 
Q 31.109375 20.453125 19.1875 8.296875 
z
" id="DejaVuSans-50"/>
       </defs>
       <use xlink:href="#DejaVuSans-48"/>
       <use x="63.623047" xlink:href="#DejaVuSans-46"/>
       <use x="95.410156" xlink:href="#DejaVuSans-50"/>
      </g>
     </g>
    </g>
    <g id="xtick_3">
     <g id="line2d_5">
      <path clip-path="url(#p2695496406)" d="M 276.135593 378 
L 276.135593 51.84 
" style="fill:none;stroke:#b0b0b0;stroke-linecap:square;stroke-width:0.8;"/>
     </g>
     <g id="line2d_6">
      <g>
       <use style="stroke:#000000;stroke-width:0.8;" x="276.135593" xlink:href="#m035c6f8690" y="378"/>
      </g>
     </g>
     <g id="text_3">
      <!-- 0.4 -->
      <g transform="translate(268.184031 392.598437)scale(0.1 -0.1)">
       <defs>
        <path d="M 37.796875 64.3125 
L 12.890625 25.390625 
L 37.796875 25.390625 
z
M 35.203125 72.90625 
L 47.609375 72.90625 
L 47.609375 25.390625 
L 58.015625 25.390625 
L 58.015625 17.1875 
L 47.609375 17.1875 
L 47.609375 0 
L 37.796875 0 
L 37.796875 17.1875 
L 4.890625 17.1875 
L 4.890625 26.703125 
z
" id="DejaVuSans-52"/>
       </defs>
       <use xlink:href="#DejaVuSans-48"/>
       <use x="63.623047" xlink:href="#DejaVuSans-46"/>
       <use x="95.410156" xlink:href="#DejaVuSans-52"/>
      </g>
     </g>
    </g>
    <g id="xtick_4">
     <g id="line2d_7">
      <path clip-path="url(#p2695496406)" d="M 360.20339 378 
L 360.20339 51.84 
" style="fill:none;stroke:#b0b0b0;stroke-linecap:square;stroke-width:0.8;"/>
     </g>
     <g id="line2d_8">
      <g>
       <use style="stroke:#000000;stroke-width:0.8;" x="360.20339" xlink:href="#m035c6f8690" y="378"/>
      </g>
     </g>
     <g id="text_4">
      <!-- 0.6 -->
      <g transform="translate(352.251827 392.598437)scale(0.1 -0.1)">
       <defs>
        <path d="M 33.015625 40.375 
Q 26.375 40.375 22.484375 35.828125 
Q 18.609375 31.296875 18.609375 23.390625 
Q 18.609375 15.53125 22.484375 10.953125 
Q 26.375 6.390625 33.015625 6.390625 
Q 39.65625 6.390625 43.53125 10.953125 
Q 47.40625 15.53125 47.40625 23.390625 
Q 47.40625 31.296875 43.53125 35.828125 
Q 39.65625 40.375 33.015625 40.375 
z
M 52.59375 71.296875 
L 52.59375 62.3125 
Q 48.875 64.0625 45.09375 64.984375 
Q 41.3125 65.921875 37.59375 65.921875 
Q 27.828125 65.921875 22.671875 59.328125 
Q 17.53125 52.734375 16.796875 39.40625 
Q 19.671875 43.65625 24.015625 45.921875 
Q 28.375 48.1875 33.59375 48.1875 
Q 44.578125 48.1875 50.953125 41.515625 
Q 57.328125 34.859375 57.328125 23.390625 
Q 57.328125 12.15625 50.6875 5.359375 
Q 44.046875 -1.421875 33.015625 -1.421875 
Q 20.359375 -1.421875 13.671875 8.265625 
Q 6.984375 17.96875 6.984375 36.375 
Q 6.984375 53.65625 15.1875 63.9375 
Q 23.390625 74.21875 37.203125 74.21875 
Q 40.921875 74.21875 44.703125 73.484375 
Q 48.484375 72.75 52.59375 71.296875 
z
" id="DejaVuSans-54"/>
       </defs>
       <use xlink:href="#DejaVuSans-48"/>
       <use x="63.623047" xlink:href="#DejaVuSans-46"/>
       <use x="95.410156" xlink:href="#DejaVuSans-54"/>
      </g>
     </g>
    </g>
    <g id="xtick_5">
     <g id="line2d_9">
      <path clip-path="url(#p2695496406)" d="M 444.271186 378 
L 444.271186 51.84 
" style="fill:none;stroke:#b0b0b0;stroke-linecap:square;stroke-width:0.8;"/>
     </g>
     <g id="line2d_10">
      <g>
       <use style="stroke:#000000;stroke-width:0.8;" x="444.271186" xlink:href="#m035c6f8690" y="378"/>
      </g>
     </g>
     <g id="text_5">
      <!-- 0.8 -->
      <g transform="translate(436.319624 392.598437)scale(0.1 -0.1)">
       <defs>
        <path d="M 31.78125 34.625 
Q 24.75 34.625 20.71875 30.859375 
Q 16.703125 27.09375 16.703125 20.515625 
Q 16.703125 13.921875 20.71875 10.15625 
Q 24.75 6.390625 31.78125 6.390625 
Q 38.8125 6.390625 42.859375 10.171875 
Q 46.921875 13.96875 46.921875 20.515625 
Q 46.921875 27.09375 42.890625 30.859375 
Q 38.875 34.625 31.78125 34.625 
z
M 21.921875 38.8125 
Q 15.578125 40.375 12.03125 44.71875 
Q 8.5 49.078125 8.5 55.328125 
Q 8.5 64.0625 14.71875 69.140625 
Q 20.953125 74.21875 31.78125 74.21875 
Q 42.671875 74.21875 48.875 69.140625 
Q 55.078125 64.0625 55.078125 55.328125 
Q 55.078125 49.078125 51.53125 44.71875 
Q 48 40.375 41.703125 38.8125 
Q 48.828125 37.15625 52.796875 32.3125 
Q 56.78125 27.484375 56.78125 20.515625 
Q 56.78125 9.90625 50.3125 4.234375 
Q 43.84375 -1.421875 31.78125 -1.421875 
Q 19.734375 -1.421875 13.25 4.234375 
Q 6.78125 9.90625 6.78125 20.515625 
Q 6.78125 27.484375 10.78125 32.3125 
Q 14.796875 37.15625 21.921875 38.8125 
z
M 18.3125 54.390625 
Q 18.3125 48.734375 21.84375 45.5625 
Q 25.390625 42.390625 31.78125 42.390625 
Q 38.140625 42.390625 41.71875 45.5625 
Q 45.3125 48.734375 45.3125 54.390625 
Q 45.3125 60.0625 41.71875 63.234375 
Q 38.140625 66.40625 31.78125 66.40625 
Q 25.390625 66.40625 21.84375 63.234375 
Q 18.3125 60.0625 18.3125 54.390625 
z
" id="DejaVuSans-56"/>
       </defs>
       <use xlink:href="#DejaVuSans-48"/>
       <use x="63.623047" xlink:href="#DejaVuSans-46"/>
       <use x="95.410156" xlink:href="#DejaVuSans-56"/>
      </g>
     </g>
    </g>
    <g id="xtick_6">
     <g id="line2d_11">
      <path clip-path="url(#p2695496406)" d="M 528.338983 378 
L 528.338983 51.84 
" style="fill:none;stroke:#b0b0b0;stroke-linecap:square;stroke-width:0.8;"/>
     </g>
     <g id="line2d_12">
      <g>
       <use style="stroke:#000000;stroke-width:0.8;" x="528.338983" xlink:href="#m035c6f8690" y="378"/>
      </g>
     </g>
     <g id="text_6">
      <!-- 1.0 -->
      <g transform="translate(520.387421 392.598437)scale(0.1 -0.1)">
       <defs>
        <path d="M 12.40625 8.296875 
L 28.515625 8.296875 
L 28.515625 63.921875 
L 10.984375 60.40625 
L 10.984375 69.390625 
L 28.421875 72.90625 
L 38.28125 72.90625 
L 38.28125 8.296875 
L 54.390625 8.296875 
L 54.390625 0 
L 12.40625 0 
z
" id="DejaVuSans-49"/>
       </defs>
       <use xlink:href="#DejaVuSans-49"/>
       <use x="63.623047" xlink:href="#DejaVuSans-46"/>
       <use x="95.410156" xlink:href="#DejaVuSans-48"/>
      </g>
     </g>
    </g>
    <g id="xtick_7">
     <g id="line2d_13">
      <path clip-path="url(#p2695496406)" d="M 612.40678 378 
L 612.40678 51.84 
" style="fill:none;stroke:#b0b0b0;stroke-linecap:square;stroke-width:0.8;"/>
     </g>
     <g id="line2d_14">
      <g>
       <use style="stroke:#000000;stroke-width:0.8;" x="612.40678" xlink:href="#m035c6f8690" y="378"/>
      </g>
     </g>
     <g id="text_7">
      <!-- 1.2 -->
      <g transform="translate(604.455217 392.598437)scale(0.1 -0.1)">
       <use xlink:href="#DejaVuSans-49"/>
       <use x="63.623047" xlink:href="#DejaVuSans-46"/>
       <use x="95.410156" xlink:href="#DejaVuSans-50"/>
      </g>
     </g>
    </g>
    <g id="xtick_8">
     <g id="line2d_15">
      <path clip-path="url(#p2695496406)" d="M 696.474576 378 
L 696.474576 51.84 
" style="fill:none;stroke:#b0b0b0;stroke-linecap:square;stroke-width:0.8;"/>
     </g>
     <g id="line2d_16">
      <g>
       <use style="stroke:#000000;stroke-width:0.8;" x="696.474576" xlink:href="#m035c6f8690" y="378"/>
      </g>
     </g>
     <g id="text_8">
      <!-- 1.4 -->
      <g transform="translate(688.523014 392.598437)scale(0.1 -0.1)">
       <use xlink:href="#DejaVuSans-49"/>
       <use x="63.623047" xlink:href="#DejaVuSans-46"/>
       <use x="95.410156" xlink:href="#DejaVuSans-52"/>
      </g>
     </g>
    </g>
    <g id="text_9">
     <!-- time (s) -->
     <g transform="translate(423.408594 406.276563)scale(0.1 -0.1)">
      <defs>
       <path d="M 18.3125 70.21875 
L 18.3125 54.6875 
L 36.8125 54.6875 
L 36.8125 47.703125 
L 18.3125 47.703125 
L 18.3125 18.015625 
Q 18.3125 11.328125 20.140625 9.421875 
Q 21.96875 7.515625 27.59375 7.515625 
L 36.8125 7.515625 
L 36.8125 0 
L 27.59375 0 
Q 17.1875 0 13.234375 3.875 
Q 9.28125 7.765625 9.28125 18.015625 
L 9.28125 47.703125 
L 2.6875 47.703125 
L 2.6875 54.6875 
L 9.28125 54.6875 
L 9.28125 70.21875 
z
" id="DejaVuSans-116"/>
       <path d="M 9.421875 54.6875 
L 18.40625 54.6875 
L 18.40625 0 
L 9.421875 0 
z
M 9.421875 75.984375 
L 18.40625 75.984375 
L 18.40625 64.59375 
L 9.421875 64.59375 
z
" id="DejaVuSans-105"/>
       <path d="M 52 44.1875 
Q 55.375 50.25 60.0625 53.125 
Q 64.75 56 71.09375 56 
Q 79.640625 56 84.28125 50.015625 
Q 88.921875 44.046875 88.921875 33.015625 
L 88.921875 0 
L 79.890625 0 
L 79.890625 32.71875 
Q 79.890625 40.578125 77.09375 44.375 
Q 74.3125 48.1875 68.609375 48.1875 
Q 61.625 48.1875 57.5625 43.546875 
Q 53.515625 38.921875 53.515625 30.90625 
L 53.515625 0 
L 44.484375 0 
L 44.484375 32.71875 
Q 44.484375 40.625 41.703125 44.40625 
Q 38.921875 48.1875 33.109375 48.1875 
Q 26.21875 48.1875 22.15625 43.53125 
Q 18.109375 38.875 18.109375 30.90625 
L 18.109375 0 
L 9.078125 0 
L 9.078125 54.6875 
L 18.109375 54.6875 
L 18.109375 46.1875 
Q 21.1875 51.21875 25.484375 53.609375 
Q 29.78125 56 35.6875 56 
Q 41.65625 56 45.828125 52.96875 
Q 50 49.953125 52 44.1875 
z
" id="DejaVuSans-109"/>
       <path d="M 56.203125 29.59375 
L 56.203125 25.203125 
L 14.890625 25.203125 
Q 15.484375 15.921875 20.484375 11.0625 
Q 25.484375 6.203125 34.421875 6.203125 
Q 39.59375 6.203125 44.453125 7.46875 
Q 49.3125 8.734375 54.109375 11.28125 
L 54.109375 2.78125 
Q 49.265625 0.734375 44.1875 -0.34375 
Q 39.109375 -1.421875 33.890625 -1.421875 
Q 20.796875 -1.421875 13.15625 6.1875 
Q 5.515625 13.8125 5.515625 26.8125 
Q 5.515625 40.234375 12.765625 48.109375 
Q 20.015625 56 32.328125 56 
Q 43.359375 56 49.78125 48.890625 
Q 56.203125 41.796875 56.203125 29.59375 
z
M 47.21875 32.234375 
Q 47.125 39.59375 43.09375 43.984375 
Q 39.0625 48.390625 32.421875 48.390625 
Q 24.90625 48.390625 20.390625 44.140625 
Q 15.875 39.890625 15.1875 32.171875 
z
" id="DejaVuSans-101"/>
       <path id="DejaVuSans-32"/>
       <path d="M 31 75.875 
Q 24.46875 64.65625 21.28125 53.65625 
Q 18.109375 42.671875 18.109375 31.390625 
Q 18.109375 20.125 21.3125 9.0625 
Q 24.515625 -2 31 -13.1875 
L 23.1875 -13.1875 
Q 15.875 -1.703125 12.234375 9.375 
Q 8.59375 20.453125 8.59375 31.390625 
Q 8.59375 42.28125 12.203125 53.3125 
Q 15.828125 64.359375 23.1875 75.875 
z
" id="DejaVuSans-40"/>
       <path d="M 44.28125 53.078125 
L 44.28125 44.578125 
Q 40.484375 46.53125 36.375 47.5 
Q 32.28125 48.484375 27.875 48.484375 
Q 21.1875 48.484375 17.84375 46.4375 
Q 14.5 44.390625 14.5 40.28125 
Q 14.5 37.15625 16.890625 35.375 
Q 19.28125 33.59375 26.515625 31.984375 
L 29.59375 31.296875 
Q 39.15625 29.25 43.1875 25.515625 
Q 47.21875 21.78125 47.21875 15.09375 
Q 47.21875 7.46875 41.1875 3.015625 
Q 35.15625 -1.421875 24.609375 -1.421875 
Q 20.21875 -1.421875 15.453125 -0.5625 
Q 10.6875 0.296875 5.421875 2 
L 5.421875 11.28125 
Q 10.40625 8.6875 15.234375 7.390625 
Q 20.0625 6.109375 24.8125 6.109375 
Q 31.15625 6.109375 34.5625 8.28125 
Q 37.984375 10.453125 37.984375 14.40625 
Q 37.984375 18.0625 35.515625 20.015625 
Q 33.0625 21.96875 24.703125 23.78125 
L 21.578125 24.515625 
Q 13.234375 26.265625 9.515625 29.90625 
Q 5.8125 33.546875 5.8125 39.890625 
Q 5.8125 47.609375 11.28125 51.796875 
Q 16.75 56 26.8125 56 
Q 31.78125 56 36.171875 55.265625 
Q 40.578125 54.546875 44.28125 53.078125 
z
" id="DejaVuSans-115"/>
       <path d="M 8.015625 75.875 
L 15.828125 75.875 
Q 23.140625 64.359375 26.78125 53.3125 
Q 30.421875 42.28125 30.421875 31.390625 
Q 30.421875 20.453125 26.78125 9.375 
Q 23.140625 -1.703125 15.828125 -13.1875 
L 8.015625 -13.1875 
Q 14.5 -2 17.703125 9.0625 
Q 20.90625 20.125 20.90625 31.390625 
Q 20.90625 42.671875 17.703125 53.65625 
Q 14.5 64.65625 8.015625 75.875 
z
" id="DejaVuSans-41"/>
      </defs>
      <use xlink:href="#DejaVuSans-116"/>
      <use x="39.208984" xlink:href="#DejaVuSans-105"/>
      <use x="66.992188" xlink:href="#DejaVuSans-109"/>
      <use x="164.404297" xlink:href="#DejaVuSans-101"/>
      <use x="225.927734" xlink:href="#DejaVuSans-32"/>
      <use x="257.714844" xlink:href="#DejaVuSans-40"/>
      <use x="296.728516" xlink:href="#DejaVuSans-115"/>
      <use x="348.828125" xlink:href="#DejaVuSans-41"/>
     </g>
    </g>
   </g>
   <g id="matplotlib.axis_2">
    <g id="ytick_1">
     <g id="line2d_17">
      <path clip-path="url(#p2695496406)" d="M 108 378 
L 777.6 378 
" style="fill:none;stroke:#b0b0b0;stroke-linecap:square;stroke-width:0.8;"/>
     </g>
     <g id="line2d_18">
      <defs>
       <path d="M 0 0 
L -3.5 0 
" id="mb7b19f0c23" style="stroke:#000000;stroke-width:0.8;"/>
      </defs>
      <g>
       <use style="stroke:#000000;stroke-width:0.8;" x="108" xlink:href="#mb7b19f0c23" y="378"/>
      </g>
     </g>
     <g id="text_10">
      <!-- −15 -->
      <g transform="translate(79.895313 381.799219)scale(0.1 -0.1)">
       <defs>
        <path d="M 10.59375 35.5 
L 73.1875 35.5 
L 73.1875 27.203125 
L 10.59375 27.203125 
z
" id="DejaVuSans-8722"/>
        <path d="M 10.796875 72.90625 
L 49.515625 72.90625 
L 49.515625 64.59375 
L 19.828125 64.59375 
L 19.828125 46.734375 
Q 21.96875 47.46875 24.109375 47.828125 
Q 26.265625 48.1875 28.421875 48.1875 
Q 40.625 48.1875 47.75 41.5 
Q 54.890625 34.8125 54.890625 23.390625 
Q 54.890625 11.625 47.5625 5.09375 
Q 40.234375 -1.421875 26.90625 -1.421875 
Q 22.3125 -1.421875 17.546875 -0.640625 
Q 12.796875 0.140625 7.71875 1.703125 
L 7.71875 11.625 
Q 12.109375 9.234375 16.796875 8.0625 
Q 21.484375 6.890625 26.703125 6.890625 
Q 35.15625 6.890625 40.078125 11.328125 
Q 45.015625 15.765625 45.015625 23.390625 
Q 45.015625 31 40.078125 35.4375 
Q 35.15625 39.890625 26.703125 39.890625 
Q 22.75 39.890625 18.8125 39.015625 
Q 14.890625 38.140625 10.796875 36.28125 
z
" id="DejaVuSans-53"/>
       </defs>
       <use xlink:href="#DejaVuSans-8722"/>
       <use x="83.789062" xlink:href="#DejaVuSans-49"/>
       <use x="147.412109" xlink:href="#DejaVuSans-53"/>
      </g>
     </g>
    </g>
    <g id="ytick_2">
     <g id="line2d_19">
      <path clip-path="url(#p2695496406)" d="M 108 323.64 
L 777.6 323.64 
" style="fill:none;stroke:#b0b0b0;stroke-linecap:square;stroke-width:0.8;"/>
     </g>
     <g id="line2d_20">
      <g>
       <use style="stroke:#000000;stroke-width:0.8;" x="108" xlink:href="#mb7b19f0c23" y="323.64"/>
      </g>
     </g>
     <g id="text_11">
      <!-- −10 -->
      <g transform="translate(79.895313 327.439219)scale(0.1 -0.1)">
       <use xlink:href="#DejaVuSans-8722"/>
       <use x="83.789062" xlink:href="#DejaVuSans-49"/>
       <use x="147.412109" xlink:href="#DejaVuSans-48"/>
      </g>
     </g>
    </g>
    <g id="ytick_3">
     <g id="line2d_21">
      <path clip-path="url(#p2695496406)" d="M 108 269.28 
L 777.6 269.28 
" style="fill:none;stroke:#b0b0b0;stroke-linecap:square;stroke-width:0.8;"/>
     </g>
     <g id="line2d_22">
      <g>
       <use style="stroke:#000000;stroke-width:0.8;" x="108" xlink:href="#mb7b19f0c23" y="269.28"/>
      </g>
     </g>
     <g id="text_12">
      <!-- −5 -->
      <g transform="translate(86.257812 273.079219)scale(0.1 -0.1)">
       <use xlink:href="#DejaVuSans-8722"/>
       <use x="83.789062" xlink:href="#DejaVuSans-53"/>
      </g>
     </g>
    </g>
    <g id="ytick_4">
     <g id="line2d_23">
      <path clip-path="url(#p2695496406)" d="M 108 214.92 
L 777.6 214.92 
" style="fill:none;stroke:#b0b0b0;stroke-linecap:square;stroke-width:0.8;"/>
     </g>
     <g id="line2d_24">
      <g>
       <use style="stroke:#000000;stroke-width:0.8;" x="108" xlink:href="#mb7b19f0c23" y="214.92"/>
      </g>
     </g>
     <g id="text_13">
      <!-- 0 -->
      <g transform="translate(94.6375 218.719219)scale(0.1 -0.1)">
       <use xlink:href="#DejaVuSans-48"/>
      </g>
     </g>
    </g>
    <g id="ytick_5">
     <g id="line2d_25">
      <path clip-path="url(#p2695496406)" d="M 108 160.56 
L 777.6 160.56 
" style="fill:none;stroke:#b0b0b0;stroke-linecap:square;stroke-width:0.8;"/>
     </g>
     <g id="line2d_26">
      <g>
       <use style="stroke:#000000;stroke-width:0.8;" x="108" xlink:href="#mb7b19f0c23" y="160.56"/>
      </g>
     </g>
     <g id="text_14">
      <!-- 5 -->
      <g transform="translate(94.6375 164.359219)scale(0.1 -0.1)">
       <use xlink:href="#DejaVuSans-53"/>
      </g>
     </g>
    </g>
    <g id="ytick_6">
     <g id="line2d_27">
      <path clip-path="url(#p2695496406)" d="M 108 106.2 
L 777.6 106.2 
" style="fill:none;stroke:#b0b0b0;stroke-linecap:square;stroke-width:0.8;"/>
     </g>
     <g id="line2d_28">
      <g>
       <use style="stroke:#000000;stroke-width:0.8;" x="108" xlink:href="#mb7b19f0c23" y="106.2"/>
      </g>
     </g>
     <g id="text_15">
      <!-- 10 -->
      <g transform="translate(88.275 109.999219)scale(0.1 -0.1)">
       <use xlink:href="#DejaVuSans-49"/>
       <use x="63.623047" xlink:href="#DejaVuSans-48"/>
      </g>
     </g>
    </g>
    <g id="ytick_7">
     <g id="line2d_29">
      <path clip-path="url(#p2695496406)" d="M 108 51.84 
L 777.6 51.84 
" style="fill:none;stroke:#b0b0b0;stroke-linecap:square;stroke-width:0.8;"/>
     </g>
     <g id="line2d_30">
      <g>
       <use style="stroke:#000000;stroke-width:0.8;" x="108" xlink:href="#mb7b19f0c23" y="51.84"/>
      </g>
     </g>
     <g id="text_16">
      <!-- 15 -->
      <g transform="translate(88.275 55.639219)scale(0.1 -0.1)">
       <use xlink:href="#DejaVuSans-49"/>
       <use x="63.623047" xlink:href="#DejaVuSans-53"/>
      </g>
     </g>
    </g>
    <g id="text_17">
     <!-- a(t) -->
     <g transform="translate(73.815625 223.845781)rotate(-90)scale(0.1 -0.1)">
      <defs>
       <path d="M 34.28125 27.484375 
Q 23.390625 27.484375 19.1875 25 
Q 14.984375 22.515625 14.984375 16.5 
Q 14.984375 11.71875 18.140625 8.90625 
Q 21.296875 6.109375 26.703125 6.109375 
Q 34.1875 6.109375 38.703125 11.40625 
Q 43.21875 16.703125 43.21875 25.484375 
L 43.21875 27.484375 
z
M 52.203125 31.203125 
L 52.203125 0 
L 43.21875 0 
L 43.21875 8.296875 
Q 40.140625 3.328125 35.546875 0.953125 
Q 30.953125 -1.421875 24.3125 -1.421875 
Q 15.921875 -1.421875 10.953125 3.296875 
Q 6 8.015625 6 15.921875 
Q 6 25.140625 12.171875 29.828125 
Q 18.359375 34.515625 30.609375 34.515625 
L 43.21875 34.515625 
L 43.21875 35.40625 
Q 43.21875 41.609375 39.140625 45 
Q 35.0625 48.390625 27.6875 48.390625 
Q 23 48.390625 18.546875 47.265625 
Q 14.109375 46.140625 10.015625 43.890625 
L 10.015625 52.203125 
Q 14.9375 54.109375 19.578125 55.046875 
Q 24.21875 56 28.609375 56 
Q 40.484375 56 46.34375 49.84375 
Q 52.203125 43.703125 52.203125 31.203125 
z
" id="DejaVuSans-97"/>
      </defs>
      <use xlink:href="#DejaVuSans-97"/>
      <use x="61.279297" xlink:href="#DejaVuSans-40"/>
      <use x="100.292969" xlink:href="#DejaVuSans-116"/>
      <use x="139.501953" xlink:href="#DejaVuSans-41"/>
     </g>
    </g>
   </g>
   <g id="line2d_31">
    <path clip-path="url(#p2695496406)" d="M 108 198.296805 
L 109.144539 212.676907 
L 112.578156 316.763155 
L 113.722695 331.641296 
L 114.867234 329.754621 
L 116.011773 319.38243 
L 117.156312 305.638647 
L 119.44539 286.569503 
L 121.734468 270.959161 
L 122.879007 259.326779 
L 124.023546 242.966511 
L 125.168085 229.803636 
L 126.312624 233.848018 
L 127.457163 251.259741 
L 128.601702 274.359246 
L 129.746241 284.400204 
L 130.89078 275.731489 
L 132.035319 257.926403 
L 133.179858 242.16786 
L 135.468935 213.088024 
L 137.758013 200.085968 
L 140.047091 184.204669 
L 141.19163 175.3525 
L 142.336169 154.575545 
L 143.480708 146.307176 
L 144.625247 158.059025 
L 145.769786 181.295081 
L 146.914325 187.612388 
L 148.058864 192.165137 
L 150.347942 214.646893 
L 151.492481 213.348797 
L 152.63702 190.493446 
L 153.781559 158.811974 
L 154.926098 140.63948 
L 156.070637 133.461996 
L 157.215176 134.567264 
L 158.359715 136.458263 
L 159.504254 141.603867 
L 160.648793 152.155142 
L 161.793332 174.280309 
L 162.937871 202.965691 
L 164.08241 212.671157 
L 165.226949 214.533707 
L 166.371488 219.601394 
L 167.516027 231.775698 
L 168.660566 233.203239 
L 169.805105 224.204166 
L 172.094183 196.607466 
L 173.238722 195.479234 
L 174.383261 197.528852 
L 175.5278 200.044848 
L 176.672339 200.419004 
L 177.816878 204.004807 
L 178.961417 215.209197 
L 182.395034 275.290767 
L 183.539573 288.368324 
L 184.684112 299.683724 
L 185.828651 305.902918 
L 186.97319 291.633113 
L 188.117729 270.532479 
L 189.262267 254.613854 
L 191.551345 241.840097 
L 192.695884 233.92993 
L 194.984962 222.477598 
L 196.129501 222.95301 
L 197.27404 231.836992 
L 200.707657 252.50116 
L 201.852196 254.213563 
L 202.996735 252.179157 
L 204.141274 241.24847 
L 205.285813 224.652321 
L 206.430352 214.552516 
L 207.574891 208.701104 
L 208.71943 198.491306 
L 209.863969 189.325332 
L 211.008508 182.855397 
L 212.153047 177.862029 
L 213.297586 175.800036 
L 214.442125 178.145328 
L 215.586664 184.215054 
L 216.731203 185.730957 
L 217.875742 187.464184 
L 220.16482 212.838463 
L 221.309359 221.646497 
L 222.453898 223.512579 
L 223.598437 214.425083 
L 224.742976 199.063263 
L 225.887515 177.031812 
L 227.032054 163.093307 
L 228.176593 157.047545 
L 229.321132 157.600643 
L 230.465671 166.809458 
L 231.61021 177.485226 
L 232.754749 192.896716 
L 233.899288 199.325476 
L 235.043827 203.2592 
L 238.477444 222.250864 
L 239.621983 226.913391 
L 240.766522 226.915311 
L 241.911061 222.362375 
L 244.200138 204.116457 
L 245.344677 197.36205 
L 246.489216 195.057416 
L 247.633755 196.261321 
L 248.778294 206.262925 
L 249.922833 213.704421 
L 251.067372 219.734899 
L 252.211911 224.999353 
L 253.35645 234.330421 
L 254.500989 242.311307 
L 255.645528 254.069679 
L 256.790067 264.149026 
L 257.934606 268.687293 
L 259.079145 265.415463 
L 260.223684 257.262721 
L 261.368223 247.839865 
L 262.512762 235.558315 
L 263.657301 225.878448 
L 264.80184 220.46923 
L 265.946379 219.014666 
L 267.090918 222.287391 
L 268.235457 224.75862 
L 269.379996 224.256488 
L 270.524535 224.436073 
L 271.669074 228.951416 
L 272.813613 237.5917 
L 273.958152 239.818514 
L 275.102691 240.242844 
L 276.24723 237.97776 
L 277.391769 232.260837 
L 279.680847 222.514036 
L 280.825386 214.031065 
L 281.969925 200.611557 
L 283.114464 194.504427 
L 284.259003 193.704767 
L 285.403542 196.298118 
L 286.548081 195.906286 
L 287.69262 194.494357 
L 289.981698 198.861026 
L 291.126237 200.622562 
L 292.270776 203.434748 
L 294.559854 211.578378 
L 295.704393 216.612475 
L 296.848931 219.268628 
L 297.99347 217.593729 
L 299.138009 206.227811 
L 300.282548 191.748604 
L 301.427087 184.90204 
L 302.571626 183.102419 
L 303.716165 183.53931 
L 304.860704 186.727141 
L 306.005243 194.713444 
L 307.149782 200.914683 
L 308.294321 204.931468 
L 309.43886 207.714079 
L 310.583399 209.259387 
L 311.727938 210.346381 
L 312.872477 212.246393 
L 314.017016 216.261574 
L 315.161555 219.283324 
L 316.306094 217.59605 
L 317.450633 212.676814 
L 318.595172 206.295762 
L 319.739711 204.513157 
L 320.88425 203.74681 
L 322.028789 202.750399 
L 324.317867 212.452969 
L 325.462406 215.411713 
L 326.606945 219.435491 
L 330.040562 229.620995 
L 331.185101 233.437789 
L 332.32964 238.750392 
L 333.474179 240.848795 
L 334.618718 238.576047 
L 338.052335 227.484612 
L 339.196874 222.391416 
L 340.341413 220.330339 
L 341.485952 220.165781 
L 342.630491 221.600521 
L 343.77503 222.508186 
L 346.064108 225.851188 
L 347.208647 225.849054 
L 348.353186 226.430764 
L 349.497725 229.138327 
L 350.642263 230.514097 
L 352.931341 226.057495 
L 354.07588 225.365636 
L 355.220419 222.660032 
L 357.509497 211.159073 
L 358.654036 207.336396 
L 359.798575 205.843789 
L 360.943114 205.492078 
L 362.087653 207.094727 
L 363.232192 207.645409 
L 364.376731 207.227647 
L 365.52127 206.028386 
L 366.665809 207.486992 
L 367.810348 209.559749 
L 368.954887 209.970536 
L 370.099426 209.639479 
L 371.243965 211.310653 
L 372.388504 214.479346 
L 373.533043 214.516799 
L 374.677582 211.866864 
L 375.822121 205.394249 
L 376.96666 201.029292 
L 378.111199 199.340665 
L 380.400277 202.147817 
L 382.689355 202.194786 
L 383.833894 204.33871 
L 384.978433 207.423391 
L 386.122972 209.148752 
L 387.267511 208.397732 
L 388.41205 208.095603 
L 389.556589 211.348195 
L 390.701128 213.279149 
L 391.845667 212.559047 
L 392.990206 212.278187 
L 394.134745 210.89923 
L 395.279284 208.384391 
L 398.712901 212.216726 
L 399.85744 211.607507 
L 401.001979 211.926677 
L 402.146518 214.496393 
L 403.291057 217.43896 
L 404.435595 217.876125 
L 405.580134 218.170804 
L 406.724673 219.580448 
L 407.869212 221.315467 
L 409.013751 224.230774 
L 410.15829 225.243704 
L 411.302829 224.696179 
L 412.447368 222.866741 
L 413.591907 222.870526 
L 414.736446 224.146034 
L 415.880985 222.961139 
L 417.025524 220.849382 
L 418.170063 219.717882 
L 419.314602 220.575185 
L 420.459141 222.243315 
L 421.60368 222.371924 
L 422.748219 222.120594 
L 423.892758 222.151049 
L 425.037297 221.863448 
L 426.181836 222.667698 
L 428.470914 223.530862 
L 430.759992 221.598547 
L 431.904531 221.460666 
L 433.04907 219.969189 
L 434.193609 217.739553 
L 435.338148 215.179778 
L 436.482687 213.630958 
L 437.627226 213.641377 
L 438.771765 212.829821 
L 439.916304 211.623807 
L 441.060843 211.767505 
L 442.205382 211.290551 
L 443.349921 211.181861 
L 444.49446 211.450347 
L 445.638999 212.684198 
L 446.783538 211.589487 
L 447.928077 210.945799 
L 449.072616 211.85858 
L 450.217155 213.335791 
L 451.361694 213.004843 
L 452.506233 210.748043 
L 453.650772 209.31989 
L 454.795311 208.74173 
L 455.93985 208.458177 
L 457.084389 207.455062 
L 458.228927 207.386162 
L 459.373466 207.87816 
L 460.518005 208.729181 
L 461.662544 209.270554 
L 462.807083 210.619705 
L 463.951622 211.436089 
L 465.096161 210.371436 
L 466.2407 211.13251 
L 468.529778 213.289318 
L 469.674317 212.34726 
L 471.963395 212.412202 
L 473.107934 211.768893 
L 474.252473 212.209785 
L 475.397012 213.330996 
L 476.541551 212.743252 
L 477.68609 212.533025 
L 478.830629 213.238578 
L 479.975168 214.570208 
L 481.119707 215.206023 
L 482.264246 215.222644 
L 483.408785 215.076595 
L 484.553324 216.424196 
L 485.697863 218.415581 
L 486.842402 218.235699 
L 487.986941 218.288682 
L 490.276019 219.32656 
L 491.420558 219.528411 
L 492.565097 219.112546 
L 493.709636 218.395075 
L 494.854175 217.438274 
L 495.998714 217.659911 
L 497.143253 218.236318 
L 498.287792 219.295469 
L 499.432331 218.533948 
L 500.57687 218.337772 
L 501.721409 218.562852 
L 502.865948 219.506896 
L 504.010487 218.923268 
L 505.155026 219.472476 
L 506.299565 219.734384 
L 508.588643 218.554311 
L 510.877721 217.824478 
L 512.022259 216.728878 
L 513.166798 215.285858 
L 514.311337 215.000285 
L 515.455876 215.327151 
L 516.600415 215.040948 
L 517.744954 214.141984 
L 518.889493 214.230588 
L 520.034032 214.511778 
L 521.178571 214.3126 
L 522.32311 213.942548 
L 523.467649 214.125037 
L 524.612188 214.108713 
L 525.756727 213.950034 
L 526.901266 213.976749 
L 528.045805 213.85991 
L 531.479422 212.312544 
L 533.7685 212.395117 
L 534.913039 211.310695 
L 536.057578 211.523876 
L 537.202117 212.136959 
L 538.346656 212.930316 
L 539.491195 212.198289 
L 540.635734 212.02875 
L 541.780273 213.352143 
L 544.069351 213.792764 
L 545.21389 214.092061 
L 547.502968 213.605475 
L 548.647507 213.152368 
L 550.936585 213.407863 
L 552.081124 212.798182 
L 554.370202 213.621742 
L 555.514741 214.294098 
L 556.65928 214.189038 
L 557.803819 214.202402 
L 558.948358 215.137779 
L 560.092897 214.887606 
L 561.237436 215.279463 
L 562.381975 216.141113 
L 563.526514 216.560514 
L 565.815591 216.333621 
L 566.96013 215.950508 
L 568.104669 215.833392 
L 569.249208 215.525232 
L 571.538286 215.518814 
L 572.682825 215.624085 
L 574.971903 216.03521 
L 576.116442 216.689113 
L 577.260981 216.59679 
L 578.40552 216.763643 
L 579.550059 217.441756 
L 580.694598 217.78267 
L 581.839137 217.616176 
L 582.983676 217.073191 
L 584.128215 216.720612 
L 585.272754 216.887777 
L 587.561832 215.368025 
L 588.706371 215.571869 
L 590.995449 215.120396 
L 592.139988 214.808234 
L 593.284527 215.312724 
L 595.573605 214.644087 
L 597.862683 215.527464 
L 600.151761 215.151013 
L 601.2963 215.488628 
L 602.440839 215.297858 
L 603.585378 215.385857 
L 605.874456 214.389243 
L 607.018995 214.781028 
L 608.163534 214.130261 
L 609.308073 213.737459 
L 611.597151 213.689299 
L 612.74169 214.091087 
L 613.886229 213.7395 
L 615.030768 213.587687 
L 616.175307 213.689951 
L 618.464385 214.307988 
L 620.753462 215.634938 
L 623.04254 214.93353 
L 625.331618 214.198467 
L 626.476157 214.101284 
L 627.620696 214.313785 
L 628.765235 214.360079 
L 629.909774 214.151198 
L 631.054313 214.13231 
L 632.198852 214.400825 
L 633.343391 214.543721 
L 635.632469 214.488264 
L 636.777008 214.796183 
L 637.921547 215.277787 
L 639.066086 215.032996 
L 641.355164 215.254018 
L 642.499703 214.882447 
L 643.644242 214.689212 
L 644.788781 214.742797 
L 645.93332 215.091805 
L 647.077859 214.532957 
L 648.222398 215.075858 
L 650.511476 214.782704 
L 651.656015 215.078809 
L 652.800554 215.498806 
L 655.089632 215.511425 
L 656.234171 214.843841 
L 658.523249 215.410909 
L 659.667788 215.177506 
L 660.812327 214.776957 
L 661.956866 214.965736 
L 663.101405 215.396551 
L 664.245944 214.965534 
L 665.390483 214.743873 
L 666.535022 215.127564 
L 667.679561 215.393758 
L 668.8241 215.526663 
L 672.257717 215.356318 
L 673.402255 215.049696 
L 674.546794 215.161216 
L 675.691333 215.597624 
L 676.835872 215.832052 
L 677.980411 215.398029 
L 679.12495 215.508317 
L 680.269489 215.225619 
L 682.558567 215.369105 
L 683.703106 215.057225 
L 684.847645 215.297355 
L 685.992184 215.255672 
L 687.136723 215.090861 
L 688.281262 215.231136 
L 689.425801 215.215975 
L 690.57034 215.007687 
L 691.714879 215.101041 
L 692.859418 214.795338 
L 694.003957 215.17969 
L 695.148496 215.081944 
L 696.293035 215.352184 
L 697.437574 215.507605 
L 698.582113 215.246888 
L 700.871191 215.095011 
L 702.01573 215.379218 
L 703.160269 214.543214 
L 704.304808 214.441732 
L 705.449347 214.744683 
L 706.593886 214.573323 
L 707.738425 214.968625 
L 708.882964 214.536703 
L 710.027503 214.311222 
L 711.172042 214.437495 
L 712.316581 214.119915 
L 713.46112 214.50506 
L 714.605659 214.608942 
L 715.750198 215.208453 
L 716.894737 214.984609 
L 718.039276 214.529286 
L 720.328354 214.516876 
L 722.617432 213.966673 
L 723.761971 213.931101 
L 724.90651 214.351783 
L 727.195587 214.06854 
L 728.340126 214.928594 
L 729.484665 214.932348 
L 730.629204 214.635926 
L 731.773743 214.558869 
L 732.918282 214.889626 
L 735.20736 214.747714 
L 736.351899 214.381896 
L 737.496438 214.380965 
L 738.640977 214.11371 
L 739.785516 214.543288 
L 740.930055 215.098817 
L 742.074594 215.255775 
L 743.219133 214.868601 
L 744.363672 215.200958 
L 745.508211 215.906267 
L 746.65275 216.016483 
L 747.797289 215.41651 
L 748.941828 215.247111 
L 750.086367 215.828667 
L 751.230906 215.949782 
L 752.375445 215.858506 
L 753.519984 215.457337 
L 754.664523 215.458824 
L 755.809062 215.105691 
L 758.09814 215.047131 
L 760.387218 215.393669 
L 761.531757 215.229334 
L 763.820835 215.531238 
L 764.965374 215.278045 
L 767.254452 215.335186 
L 768.398991 214.965296 
L 769.54353 214.985023 
L 770.688069 215.180007 
L 771.832608 215.159858 
L 774.121686 214.685559 
L 776.410764 214.433945 
L 777.555303 214.411693 
L 777.555303 214.411693 
" style="fill:none;stroke:#1f77b4;stroke-linecap:square;stroke-width:1.5;"/>
   </g>
   <g id="line2d_32">
    <path clip-path="url(#p2695496406)" d="M 108 267.698774 
L 109.144539 272.268991 
L 110.289078 276.205124 
L 111.433617 279.480758 
L 112.578156 282.076308 
L 113.722695 283.979083 
L 114.867234 285.183284 
L 116.011773 285.689937 
L 117.156312 285.506759 
L 118.300851 284.64796 
L 119.44539 283.133996 
L 120.589929 280.991251 
L 121.734468 278.251685 
L 122.879007 274.952418 
L 124.023546 271.135284 
L 126.312624 262.135371 
L 128.601702 251.661616 
L 132.035319 234.180998 
L 137.758013 204.278642 
L 140.047091 193.378364 
L 142.336169 183.687297 
L 144.625247 175.530772 
L 145.769786 172.110707 
L 146.914325 169.164121 
L 148.058864 166.710809 
L 149.203403 164.765466 
L 150.347942 163.337634 
L 151.492481 162.431707 
L 152.63702 162.04698 
L 153.781559 162.177746 
L 154.926098 162.813443 
L 156.070637 163.938845 
L 157.215176 165.534289 
L 158.359715 167.575945 
L 159.504254 170.036124 
L 160.648793 172.883609 
L 162.937871 179.600211 
L 165.226949 187.419898 
L 168.660566 200.47575 
L 174.383261 222.81979 
L 176.672339 230.9683 
L 178.961417 238.214961 
L 181.250495 244.316418 
L 182.395034 246.875771 
L 183.539573 249.081573 
L 184.684112 250.918988 
L 185.828651 252.376991 
L 186.97319 253.448407 
L 188.117729 254.129908 
L 189.262267 254.421976 
L 190.406806 254.32883 
L 191.551345 253.858318 
L 192.695884 253.021778 
L 193.840423 251.833859 
L 194.984962 250.312332 
L 196.129501 248.47785 
L 197.27404 246.353706 
L 199.563118 241.341145 
L 201.852196 235.502994 
L 205.285813 225.751907 
L 211.008508 209.055717 
L 213.297586 202.964303 
L 215.586664 197.545498 
L 217.875742 192.981339 
L 219.020281 191.066093 
L 220.16482 189.414847 
L 221.309359 188.03872 
L 222.453898 186.945981 
L 223.598437 186.142027 
L 224.742976 185.629379 
L 225.887515 185.407709 
L 227.032054 185.473899 
L 228.176593 185.822116 
L 229.321132 186.443921 
L 230.465671 187.328396 
L 231.61021 188.462292 
L 232.754749 189.830203 
L 233.899288 191.414747 
L 236.188366 195.155582 
L 238.477444 199.514317 
L 241.911061 206.797146 
L 247.633755 219.273063 
L 249.922833 223.826689 
L 252.211911 227.878678 
L 254.500989 231.292861 
L 255.645528 232.726096 
L 256.790067 233.9622 
L 257.934606 234.99284 
L 259.079145 235.811813 
L 260.223684 236.415061 
L 261.368223 236.800675 
L 262.512762 236.968874 
L 263.657301 236.921965 
L 264.80184 236.66428 
L 265.946379 236.202102 
L 267.090918 235.543568 
L 268.235457 234.698555 
L 269.379996 233.678557 
L 271.669074 231.166802 
L 273.958152 228.126969 
L 276.24723 224.693563 
L 280.825386 217.228977 
L 284.259003 211.688863 
L 286.548081 208.284813 
L 288.837159 205.254887 
L 291.126237 202.70094 
L 293.415315 200.703083 
L 294.559854 199.931198 
L 295.704393 199.31741 
L 296.848931 198.864771 
L 297.99347 198.574725 
L 299.138009 198.447128 
L 300.282548 198.480276 
L 301.427087 198.670947 
L 302.571626 199.014466 
L 303.716165 199.504769 
L 304.860704 200.134493 
L 307.149782 201.776801 
L 309.43886 203.860247 
L 311.727938 206.28981 
L 315.161555 210.352299 
L 320.88425 217.318258 
L 323.173328 219.862942 
L 325.462406 222.128604 
L 327.751484 224.039053 
L 330.040562 225.534336 
L 332.32964 226.572431 
L 333.474179 226.912057 
L 334.618718 227.130209 
L 335.763257 227.226983 
L 336.907796 227.203638 
L 338.052335 227.062566 
L 340.341413 226.442205 
L 342.630491 225.405804 
L 344.919569 224.007662 
L 347.208647 222.313896 
L 350.642263 219.384652 
L 358.654036 212.166861 
L 360.943114 210.360826 
L 363.232192 208.792794 
L 365.52127 207.513891 
L 367.810348 206.562416 
L 370.099426 205.962843 
L 372.388504 205.725391 
L 374.677582 205.846135 
L 376.96666 206.307673 
L 379.255738 207.080258 
L 381.544816 208.123382 
L 383.833894 209.387692 
L 387.267511 211.575151 
L 396.423823 217.663067 
L 398.712901 218.929898 
L 401.001979 219.998903 
L 403.291057 220.836502 
L 405.580134 221.419113 
L 407.869212 221.7337 
L 410.15829 221.777884 
L 412.447368 221.559659 
L 414.736446 221.096709 
L 417.025524 220.415397 
L 419.314602 219.549445 
L 422.748219 217.991985 
L 434.193609 212.386343 
L 437.627226 211.12966 
L 439.916304 210.502773 
L 442.205382 210.066313 
L 444.49446 209.830068 
L 446.783538 209.795862 
L 449.072616 209.957768 
L 451.361694 210.302615 
L 454.795311 211.118356 
L 458.228927 212.211819 
L 463.951622 214.356208 
L 469.674317 216.44219 
L 473.107934 217.46468 
L 476.541551 218.21787 
L 479.975168 218.652465 
L 482.264246 218.7542 
L 485.697863 218.62858 
L 489.13148 218.196404 
L 492.565097 217.510473 
L 497.143253 216.326442 
L 507.444104 213.512017 
L 510.877721 212.808987 
L 514.311337 212.321642 
L 517.744954 212.079674 
L 521.178571 212.090474 
L 524.612188 212.33969 
L 528.045805 212.793594 
L 532.623961 213.630509 
L 545.21389 216.160716 
L 549.792046 216.758225 
L 553.225663 217.002298 
L 556.65928 217.057516 
L 560.092897 216.929258 
L 564.671053 216.510311 
L 570.393747 215.709347 
L 581.839137 213.994659 
L 586.417293 213.547603 
L 590.995449 213.335027 
L 595.573605 213.371911 
L 600.151761 213.635268 
L 605.874456 214.19711 
L 620.753462 215.797405 
L 626.476157 216.081682 
L 631.054313 216.100724 
L 636.777008 215.880666 
L 643.644242 215.362996 
L 657.37871 214.265212 
L 663.101405 214.052322 
L 668.8241 214.055327 
L 675.691333 214.313285 
L 699.726652 215.568081 
L 706.593886 215.547128 
L 714.605659 215.276254 
L 734.062821 214.469596 
L 742.074594 214.437047 
L 751.230906 214.653371 
L 771.832608 215.270751 
L 777.555303 215.288174 
L 777.555303 215.288174 
" style="fill:none;stroke:#ff0000;stroke-dasharray:1.5,2.475;stroke-dashoffset:0;stroke-width:1.5;"/>
   </g>
   <g id="patch_3">
    <path d="M 108 378 
L 108 51.84 
" style="fill:none;stroke:#000000;stroke-linecap:square;stroke-linejoin:miter;stroke-width:0.8;"/>
   </g>
   <g id="patch_4">
    <path d="M 777.6 378 
L 777.6 51.84 
" style="fill:none;stroke:#000000;stroke-linecap:square;stroke-linejoin:miter;stroke-width:0.8;"/>
   </g>
   <g id="patch_5">
    <path d="M 108 378 
L 777.6 378 
" style="fill:none;stroke:#000000;stroke-linecap:square;stroke-linejoin:miter;stroke-width:0.8;"/>
   </g>
   <g id="patch_6">
    <path d="M 108 51.84 
L 777.6 51.84 
" style="fill:none;stroke:#000000;stroke-linecap:square;stroke-linejoin:miter;stroke-width:0.8;"/>
   </g>
   <g id="text_18">
    <!-- Medição 4 - Direção X -->
    <g transform="translate(344.296406 45.84)scale(0.18 -0.18)">
     <defs>
      <path d="M 9.8125 72.90625 
L 24.515625 72.90625 
L 43.109375 23.296875 
L 61.8125 72.90625 
L 76.515625 72.90625 
L 76.515625 0 
L 66.890625 0 
L 66.890625 64.015625 
L 48.09375 14.015625 
L 38.1875 14.015625 
L 19.390625 64.015625 
L 19.390625 0 
L 9.8125 0 
z
" id="DejaVuSans-77"/>
      <path d="M 45.40625 46.390625 
L 45.40625 75.984375 
L 54.390625 75.984375 
L 54.390625 0 
L 45.40625 0 
L 45.40625 8.203125 
Q 42.578125 3.328125 38.25 0.953125 
Q 33.9375 -1.421875 27.875 -1.421875 
Q 17.96875 -1.421875 11.734375 6.484375 
Q 5.515625 14.40625 5.515625 27.296875 
Q 5.515625 40.1875 11.734375 48.09375 
Q 17.96875 56 27.875 56 
Q 33.9375 56 38.25 53.625 
Q 42.578125 51.265625 45.40625 46.390625 
z
M 14.796875 27.296875 
Q 14.796875 17.390625 18.875 11.75 
Q 22.953125 6.109375 30.078125 6.109375 
Q 37.203125 6.109375 41.296875 11.75 
Q 45.40625 17.390625 45.40625 27.296875 
Q 45.40625 37.203125 41.296875 42.84375 
Q 37.203125 48.484375 30.078125 48.484375 
Q 22.953125 48.484375 18.875 42.84375 
Q 14.796875 37.203125 14.796875 27.296875 
z
" id="DejaVuSans-100"/>
      <path d="M 48.78125 52.59375 
L 48.78125 44.1875 
Q 44.96875 46.296875 41.140625 47.34375 
Q 37.3125 48.390625 33.40625 48.390625 
Q 24.65625 48.390625 19.8125 42.84375 
Q 14.984375 37.3125 14.984375 27.296875 
Q 14.984375 17.28125 19.8125 11.734375 
Q 24.65625 6.203125 33.40625 6.203125 
Q 37.3125 6.203125 41.140625 7.25 
Q 44.96875 8.296875 48.78125 10.40625 
L 48.78125 2.09375 
Q 45.015625 0.34375 40.984375 -0.53125 
Q 36.96875 -1.421875 32.421875 -1.421875 
Q 20.0625 -1.421875 12.78125 6.34375 
Q 5.515625 14.109375 5.515625 27.296875 
Q 5.515625 40.671875 12.859375 48.328125 
Q 20.21875 56 33.015625 56 
Q 37.15625 56 41.109375 55.140625 
Q 45.0625 54.296875 48.78125 52.59375 
z
M 36.078125 0 
Q 38.765625 -3.03125 40.078125 -5.59375 
Q 41.40625 -8.15625 41.40625 -10.5 
Q 41.40625 -14.84375 38.46875 -17.0625 
Q 35.546875 -19.28125 29.78125 -19.28125 
Q 27.546875 -19.28125 25.421875 -18.984375 
Q 23.296875 -18.703125 21.1875 -18.109375 
L 21.1875 -11.71875 
Q 22.859375 -12.546875 24.65625 -12.90625 
Q 26.46875 -13.28125 28.765625 -13.28125 
Q 31.640625 -13.28125 33.109375 -12.109375 
Q 34.578125 -10.9375 34.578125 -8.6875 
Q 34.578125 -7.234375 33.515625 -5.109375 
Q 32.46875 -2.984375 30.28125 0 
z
" id="DejaVuSans-231"/>
      <path d="M 34.28125 27.484375 
Q 23.390625 27.484375 19.1875 25 
Q 14.984375 22.515625 14.984375 16.5 
Q 14.984375 11.71875 18.140625 8.90625 
Q 21.296875 6.109375 26.703125 6.109375 
Q 34.1875 6.109375 38.703125 11.40625 
Q 43.21875 16.703125 43.21875 25.484375 
L 43.21875 27.484375 
z
M 52.203125 31.203125 
L 52.203125 0 
L 43.21875 0 
L 43.21875 8.296875 
Q 40.140625 3.328125 35.546875 0.953125 
Q 30.953125 -1.421875 24.3125 -1.421875 
Q 15.921875 -1.421875 10.953125 3.296875 
Q 6 8.015625 6 15.921875 
Q 6 25.140625 12.171875 29.828125 
Q 18.359375 34.515625 30.609375 34.515625 
L 43.21875 34.515625 
L 43.21875 35.40625 
Q 43.21875 41.609375 39.140625 45 
Q 35.0625 48.390625 27.6875 48.390625 
Q 23 48.390625 18.546875 47.265625 
Q 14.109375 46.140625 10.015625 43.890625 
L 10.015625 52.203125 
Q 14.9375 54.109375 19.578125 55.046875 
Q 24.21875 56 28.609375 56 
Q 40.484375 56 46.34375 49.84375 
Q 52.203125 43.703125 52.203125 31.203125 
z
M 28.8125 66.890625 
L 26.03125 69.578125 
Q 24.953125 70.5625 24.140625 71.015625 
Q 23.34375 71.484375 22.703125 71.484375 
Q 20.84375 71.484375 19.96875 69.703125 
Q 19.09375 67.921875 19 63.921875 
L 12.890625 63.921875 
Q 12.984375 70.515625 15.46875 74.09375 
Q 17.96875 77.6875 22.40625 77.6875 
Q 24.265625 77.6875 25.828125 77 
Q 27.390625 76.3125 29.203125 74.703125 
L 31.984375 72.015625 
Q 33.0625 71.046875 33.859375 70.578125 
Q 34.671875 70.125 35.296875 70.125 
Q 37.15625 70.125 38.03125 71.90625 
Q 38.921875 73.6875 39.015625 77.6875 
L 45.125 77.6875 
Q 45.015625 71.09375 42.53125 67.5 
Q 40.046875 63.921875 35.59375 63.921875 
Q 33.734375 63.921875 32.171875 64.59375 
Q 30.609375 65.28125 28.8125 66.890625 
z
" id="DejaVuSans-227"/>
      <path d="M 30.609375 48.390625 
Q 23.390625 48.390625 19.1875 42.75 
Q 14.984375 37.109375 14.984375 27.296875 
Q 14.984375 17.484375 19.15625 11.84375 
Q 23.34375 6.203125 30.609375 6.203125 
Q 37.796875 6.203125 41.984375 11.859375 
Q 46.1875 17.53125 46.1875 27.296875 
Q 46.1875 37.015625 41.984375 42.703125 
Q 37.796875 48.390625 30.609375 48.390625 
z
M 30.609375 56 
Q 42.328125 56 49.015625 48.375 
Q 55.71875 40.765625 55.71875 27.296875 
Q 55.71875 13.875 49.015625 6.21875 
Q 42.328125 -1.421875 30.609375 -1.421875 
Q 18.84375 -1.421875 12.171875 6.21875 
Q 5.515625 13.875 5.515625 27.296875 
Q 5.515625 40.765625 12.171875 48.375 
Q 18.84375 56 30.609375 56 
z
" id="DejaVuSans-111"/>
      <path d="M 4.890625 31.390625 
L 31.203125 31.390625 
L 31.203125 23.390625 
L 4.890625 23.390625 
z
" id="DejaVuSans-45"/>
      <path d="M 19.671875 64.796875 
L 19.671875 8.109375 
L 31.59375 8.109375 
Q 46.6875 8.109375 53.6875 14.9375 
Q 60.6875 21.78125 60.6875 36.53125 
Q 60.6875 51.171875 53.6875 57.984375 
Q 46.6875 64.796875 31.59375 64.796875 
z
M 9.8125 72.90625 
L 30.078125 72.90625 
Q 51.265625 72.90625 61.171875 64.09375 
Q 71.09375 55.28125 71.09375 36.53125 
Q 71.09375 17.671875 61.125 8.828125 
Q 51.171875 0 30.078125 0 
L 9.8125 0 
z
" id="DejaVuSans-68"/>
      <path d="M 41.109375 46.296875 
Q 39.59375 47.171875 37.8125 47.578125 
Q 36.03125 48 33.890625 48 
Q 26.265625 48 22.1875 43.046875 
Q 18.109375 38.09375 18.109375 28.8125 
L 18.109375 0 
L 9.078125 0 
L 9.078125 54.6875 
L 18.109375 54.6875 
L 18.109375 46.1875 
Q 20.953125 51.171875 25.484375 53.578125 
Q 30.03125 56 36.53125 56 
Q 37.453125 56 38.578125 55.875 
Q 39.703125 55.765625 41.0625 55.515625 
z
" id="DejaVuSans-114"/>
      <path d="M 6.296875 72.90625 
L 16.890625 72.90625 
L 35.015625 45.796875 
L 53.21875 72.90625 
L 63.8125 72.90625 
L 40.375 37.890625 
L 65.375 0 
L 54.78125 0 
L 34.28125 31 
L 13.625 0 
L 2.984375 0 
L 29 38.921875 
z
" id="DejaVuSans-88"/>
     </defs>
     <use xlink:href="#DejaVuSans-77"/>
     <use x="86.279297" xlink:href="#DejaVuSans-101"/>
     <use x="147.802734" xlink:href="#DejaVuSans-100"/>
     <use x="211.279297" xlink:href="#DejaVuSans-105"/>
     <use x="239.0625" xlink:href="#DejaVuSans-231"/>
     <use x="294.042969" xlink:href="#DejaVuSans-227"/>
     <use x="355.322266" xlink:href="#DejaVuSans-111"/>
     <use x="416.503906" xlink:href="#DejaVuSans-32"/>
     <use x="448.291016" xlink:href="#DejaVuSans-52"/>
     <use x="511.914062" xlink:href="#DejaVuSans-32"/>
     <use x="543.701172" xlink:href="#DejaVuSans-45"/>
     <use x="579.785156" xlink:href="#DejaVuSans-32"/>
     <use x="611.572266" xlink:href="#DejaVuSans-68"/>
     <use x="688.574219" xlink:href="#DejaVuSans-105"/>
     <use x="716.357422" xlink:href="#DejaVuSans-114"/>
     <use x="755.220703" xlink:href="#DejaVuSans-101"/>
     <use x="816.744141" xlink:href="#DejaVuSans-231"/>
     <use x="871.724609" xlink:href="#DejaVuSans-227"/>
     <use x="933.003906" xlink:href="#DejaVuSans-111"/>
     <use x="994.185547" xlink:href="#DejaVuSans-32"/>
     <use x="1025.972656" xlink:href="#DejaVuSans-88"/>
    </g>
   </g>
   <g id="legend_1">
    <g id="patch_7">
     <path d="M 701.221875 89.19625 
L 770.6 89.19625 
Q 772.6 89.19625 772.6 87.19625 
L 772.6 58.84 
Q 772.6 56.84 770.6 56.84 
L 701.221875 56.84 
Q 699.221875 56.84 699.221875 58.84 
L 699.221875 87.19625 
Q 699.221875 89.19625 701.221875 89.19625 
z
" style="fill:#ffffff;opacity:0.8;stroke:#cccccc;stroke-linejoin:miter;"/>
    </g>
    <g id="line2d_33">
     <path d="M 703.221875 64.938437 
L 723.221875 64.938437 
" style="fill:none;stroke:#1f77b4;stroke-linecap:square;stroke-width:1.5;"/>
    </g>
    <g id="line2d_34"/>
    <g id="text_19">
     <!-- original -->
     <g transform="translate(731.221875 68.438437)scale(0.1 -0.1)">
      <defs>
       <path d="M 45.40625 27.984375 
Q 45.40625 37.75 41.375 43.109375 
Q 37.359375 48.484375 30.078125 48.484375 
Q 22.859375 48.484375 18.828125 43.109375 
Q 14.796875 37.75 14.796875 27.984375 
Q 14.796875 18.265625 18.828125 12.890625 
Q 22.859375 7.515625 30.078125 7.515625 
Q 37.359375 7.515625 41.375 12.890625 
Q 45.40625 18.265625 45.40625 27.984375 
z
M 54.390625 6.78125 
Q 54.390625 -7.171875 48.1875 -13.984375 
Q 42 -20.796875 29.203125 -20.796875 
Q 24.46875 -20.796875 20.265625 -20.09375 
Q 16.0625 -19.390625 12.109375 -17.921875 
L 12.109375 -9.1875 
Q 16.0625 -11.328125 19.921875 -12.34375 
Q 23.78125 -13.375 27.78125 -13.375 
Q 36.625 -13.375 41.015625 -8.765625 
Q 45.40625 -4.15625 45.40625 5.171875 
L 45.40625 9.625 
Q 42.625 4.78125 38.28125 2.390625 
Q 33.9375 0 27.875 0 
Q 17.828125 0 11.671875 7.65625 
Q 5.515625 15.328125 5.515625 27.984375 
Q 5.515625 40.671875 11.671875 48.328125 
Q 17.828125 56 27.875 56 
Q 33.9375 56 38.28125 53.609375 
Q 42.625 51.21875 45.40625 46.390625 
L 45.40625 54.6875 
L 54.390625 54.6875 
z
" id="DejaVuSans-103"/>
       <path d="M 54.890625 33.015625 
L 54.890625 0 
L 45.90625 0 
L 45.90625 32.71875 
Q 45.90625 40.484375 42.875 44.328125 
Q 39.84375 48.1875 33.796875 48.1875 
Q 26.515625 48.1875 22.3125 43.546875 
Q 18.109375 38.921875 18.109375 30.90625 
L 18.109375 0 
L 9.078125 0 
L 9.078125 54.6875 
L 18.109375 54.6875 
L 18.109375 46.1875 
Q 21.34375 51.125 25.703125 53.5625 
Q 30.078125 56 35.796875 56 
Q 45.21875 56 50.046875 50.171875 
Q 54.890625 44.34375 54.890625 33.015625 
z
" id="DejaVuSans-110"/>
       <path d="M 9.421875 75.984375 
L 18.40625 75.984375 
L 18.40625 0 
L 9.421875 0 
z
" id="DejaVuSans-108"/>
      </defs>
      <use xlink:href="#DejaVuSans-111"/>
      <use x="61.181641" xlink:href="#DejaVuSans-114"/>
      <use x="102.294922" xlink:href="#DejaVuSans-105"/>
      <use x="130.078125" xlink:href="#DejaVuSans-103"/>
      <use x="193.554688" xlink:href="#DejaVuSans-105"/>
      <use x="221.337891" xlink:href="#DejaVuSans-110"/>
      <use x="284.716797" xlink:href="#DejaVuSans-97"/>
      <use x="345.996094" xlink:href="#DejaVuSans-108"/>
     </g>
    </g>
    <g id="line2d_35">
     <path d="M 703.221875 79.616562 
L 723.221875 79.616562 
" style="fill:none;stroke:#ff0000;stroke-dasharray:1.5,2.475;stroke-dashoffset:0;stroke-width:1.5;"/>
    </g>
    <g id="line2d_36"/>
    <g id="text_20">
     <!-- fitted -->
     <g transform="translate(731.221875 83.116562)scale(0.1 -0.1)">
      <defs>
       <path d="M 37.109375 75.984375 
L 37.109375 68.5 
L 28.515625 68.5 
Q 23.6875 68.5 21.796875 66.546875 
Q 19.921875 64.59375 19.921875 59.515625 
L 19.921875 54.6875 
L 34.71875 54.6875 
L 34.71875 47.703125 
L 19.921875 47.703125 
L 19.921875 0 
L 10.890625 0 
L 10.890625 47.703125 
L 2.296875 47.703125 
L 2.296875 54.6875 
L 10.890625 54.6875 
L 10.890625 58.5 
Q 10.890625 67.625 15.140625 71.796875 
Q 19.390625 75.984375 28.609375 75.984375 
z
" id="DejaVuSans-102"/>
      </defs>
      <use xlink:href="#DejaVuSans-102"/>
      <use x="35.205078" xlink:href="#DejaVuSans-105"/>
      <use x="62.988281" xlink:href="#DejaVuSans-116"/>
      <use x="102.197266" xlink:href="#DejaVuSans-116"/>
      <use x="141.40625" xlink:href="#DejaVuSans-101"/>
      <use x="202.929688" xlink:href="#DejaVuSans-100"/>
     </g>
    </g>
   </g>
  </g>
 </g>
 <defs>
  <clipPath id="p2695496406">
   <rect height="326.16" width="669.6" x="108" y="51.84"/>
  </clipPath>
 </defs>
</svg>
