<?xml version="1.0" encoding="utf-8" standalone="no"?>
<!DOCTYPE svg PUBLIC "-//W3C//DTD SVG 1.1//EN"
  "http://www.w3.org/Graphics/SVG/1.1/DTD/svg11.dtd">
<!-- Created with matplotlib (https://matplotlib.org/) -->
<svg height="671pt" version="1.1" viewBox="0 0 1366 671" width="1366pt" xmlns="http://www.w3.org/2000/svg" xmlns:xlink="http://www.w3.org/1999/xlink">
 <metadata>
  <rdf:RDF xmlns:cc="http://creativecommons.org/ns#" xmlns:dc="http://purl.org/dc/elements/1.1/" xmlns:rdf="http://www.w3.org/1999/02/22-rdf-syntax-ns#">
   <cc:Work>
    <dc:type rdf:resource="http://purl.org/dc/dcmitype/StillImage"/>
    <dc:date>2021-11-25T22:52:33.282012</dc:date>
    <dc:format>image/svg+xml</dc:format>
    <dc:creator>
     <cc:Agent>
      <dc:title>Matplotlib v3.3.2, https://matplotlib.org/</dc:title>
     </cc:Agent>
    </dc:creator>
   </cc:Work>
  </rdf:RDF>
 </metadata>
 <defs>
  <style type="text/css">*{stroke-linecap:butt;stroke-linejoin:round;}</style>
 </defs>
 <g id="figure_1">
  <g id="patch_1">
   <path d="M 0 671 
L 1366 671 
L 1366 0 
L 0 0 
z
" style="fill:none;"/>
  </g>
  <g id="axes_1">
   <g id="patch_2">
    <path d="M 170.75 229.521471 
L 1229.4 229.521471 
L 1229.4 80.52 
L 170.75 80.52 
z
" style="fill:#ffffff;"/>
   </g>
   <g id="matplotlib.axis_1">
    <g id="xtick_1">
     <g id="line2d_1">
      <path clip-path="url(#paed672878b)" d="M 170.75 229.521471 
L 170.75 80.52 
" style="fill:none;stroke:#b0b0b0;stroke-linecap:square;stroke-width:0.8;"/>
     </g>
     <g id="line2d_2">
      <defs>
       <path d="M 0 0 
L 0 3.5 
" id="m0e11c33ed3" style="stroke:#000000;stroke-width:0.8;"/>
      </defs>
      <g>
       <use style="stroke:#000000;stroke-width:0.8;" x="170.75" xlink:href="#m0e11c33ed3" y="229.521471"/>
      </g>
     </g>
     <g id="text_1">
      <!-- 0.0 -->
      <g transform="translate(162.798438 244.119908)scale(0.1 -0.1)">
       <defs>
        <path d="M 31.78125 66.40625 
Q 24.171875 66.40625 20.328125 58.90625 
Q 16.5 51.421875 16.5 36.375 
Q 16.5 21.390625 20.328125 13.890625 
Q 24.171875 6.390625 31.78125 6.390625 
Q 39.453125 6.390625 43.28125 13.890625 
Q 47.125 21.390625 47.125 36.375 
Q 47.125 51.421875 43.28125 58.90625 
Q 39.453125 66.40625 31.78125 66.40625 
z
M 31.78125 74.21875 
Q 44.046875 74.21875 50.515625 64.515625 
Q 56.984375 54.828125 56.984375 36.375 
Q 56.984375 17.96875 50.515625 8.265625 
Q 44.046875 -1.421875 31.78125 -1.421875 
Q 19.53125 -1.421875 13.0625 8.265625 
Q 6.59375 17.96875 6.59375 36.375 
Q 6.59375 54.828125 13.0625 64.515625 
Q 19.53125 74.21875 31.78125 74.21875 
z
" id="DejaVuSans-48"/>
        <path d="M 10.6875 12.40625 
L 21 12.40625 
L 21 0 
L 10.6875 0 
z
" id="DejaVuSans-46"/>
       </defs>
       <use xlink:href="#DejaVuSans-48"/>
       <use x="63.623047" xlink:href="#DejaVuSans-46"/>
       <use x="95.410156" xlink:href="#DejaVuSans-48"/>
      </g>
     </g>
    </g>
    <g id="xtick_2">
     <g id="line2d_3">
      <path clip-path="url(#paed672878b)" d="M 391.302083 229.521471 
L 391.302083 80.52 
" style="fill:none;stroke:#b0b0b0;stroke-linecap:square;stroke-width:0.8;"/>
     </g>
     <g id="line2d_4">
      <g>
       <use style="stroke:#000000;stroke-width:0.8;" x="391.302083" xlink:href="#m0e11c33ed3" y="229.521471"/>
      </g>
     </g>
     <g id="text_2">
      <!-- 0.5 -->
      <g transform="translate(383.350521 244.119908)scale(0.1 -0.1)">
       <defs>
        <path d="M 10.796875 72.90625 
L 49.515625 72.90625 
L 49.515625 64.59375 
L 19.828125 64.59375 
L 19.828125 46.734375 
Q 21.96875 47.46875 24.109375 47.828125 
Q 26.265625 48.1875 28.421875 48.1875 
Q 40.625 48.1875 47.75 41.5 
Q 54.890625 34.8125 54.890625 23.390625 
Q 54.890625 11.625 47.5625 5.09375 
Q 40.234375 -1.421875 26.90625 -1.421875 
Q 22.3125 -1.421875 17.546875 -0.640625 
Q 12.796875 0.140625 7.71875 1.703125 
L 7.71875 11.625 
Q 12.109375 9.234375 16.796875 8.0625 
Q 21.484375 6.890625 26.703125 6.890625 
Q 35.15625 6.890625 40.078125 11.328125 
Q 45.015625 15.765625 45.015625 23.390625 
Q 45.015625 31 40.078125 35.4375 
Q 35.15625 39.890625 26.703125 39.890625 
Q 22.75 39.890625 18.8125 39.015625 
Q 14.890625 38.140625 10.796875 36.28125 
z
" id="DejaVuSans-53"/>
       </defs>
       <use xlink:href="#DejaVuSans-48"/>
       <use x="63.623047" xlink:href="#DejaVuSans-46"/>
       <use x="95.410156" xlink:href="#DejaVuSans-53"/>
      </g>
     </g>
    </g>
    <g id="xtick_3">
     <g id="line2d_5">
      <path clip-path="url(#paed672878b)" d="M 611.854167 229.521471 
L 611.854167 80.52 
" style="fill:none;stroke:#b0b0b0;stroke-linecap:square;stroke-width:0.8;"/>
     </g>
     <g id="line2d_6">
      <g>
       <use style="stroke:#000000;stroke-width:0.8;" x="611.854167" xlink:href="#m0e11c33ed3" y="229.521471"/>
      </g>
     </g>
     <g id="text_3">
      <!-- 1.0 -->
      <g transform="translate(603.902604 244.119908)scale(0.1 -0.1)">
       <defs>
        <path d="M 12.40625 8.296875 
L 28.515625 8.296875 
L 28.515625 63.921875 
L 10.984375 60.40625 
L 10.984375 69.390625 
L 28.421875 72.90625 
L 38.28125 72.90625 
L 38.28125 8.296875 
L 54.390625 8.296875 
L 54.390625 0 
L 12.40625 0 
z
" id="DejaVuSans-49"/>
       </defs>
       <use xlink:href="#DejaVuSans-49"/>
       <use x="63.623047" xlink:href="#DejaVuSans-46"/>
       <use x="95.410156" xlink:href="#DejaVuSans-48"/>
      </g>
     </g>
    </g>
    <g id="xtick_4">
     <g id="line2d_7">
      <path clip-path="url(#paed672878b)" d="M 832.40625 229.521471 
L 832.40625 80.52 
" style="fill:none;stroke:#b0b0b0;stroke-linecap:square;stroke-width:0.8;"/>
     </g>
     <g id="line2d_8">
      <g>
       <use style="stroke:#000000;stroke-width:0.8;" x="832.40625" xlink:href="#m0e11c33ed3" y="229.521471"/>
      </g>
     </g>
     <g id="text_4">
      <!-- 1.5 -->
      <g transform="translate(824.454688 244.119908)scale(0.1 -0.1)">
       <use xlink:href="#DejaVuSans-49"/>
       <use x="63.623047" xlink:href="#DejaVuSans-46"/>
       <use x="95.410156" xlink:href="#DejaVuSans-53"/>
      </g>
     </g>
    </g>
    <g id="xtick_5">
     <g id="line2d_9">
      <path clip-path="url(#paed672878b)" d="M 1052.958333 229.521471 
L 1052.958333 80.52 
" style="fill:none;stroke:#b0b0b0;stroke-linecap:square;stroke-width:0.8;"/>
     </g>
     <g id="line2d_10">
      <g>
       <use style="stroke:#000000;stroke-width:0.8;" x="1052.958333" xlink:href="#m0e11c33ed3" y="229.521471"/>
      </g>
     </g>
     <g id="text_5">
      <!-- 2.0 -->
      <g transform="translate(1045.006771 244.119908)scale(0.1 -0.1)">
       <defs>
        <path d="M 19.1875 8.296875 
L 53.609375 8.296875 
L 53.609375 0 
L 7.328125 0 
L 7.328125 8.296875 
Q 12.9375 14.109375 22.625 23.890625 
Q 32.328125 33.6875 34.8125 36.53125 
Q 39.546875 41.84375 41.421875 45.53125 
Q 43.3125 49.21875 43.3125 52.78125 
Q 43.3125 58.59375 39.234375 62.25 
Q 35.15625 65.921875 28.609375 65.921875 
Q 23.96875 65.921875 18.8125 64.3125 
Q 13.671875 62.703125 7.8125 59.421875 
L 7.8125 69.390625 
Q 13.765625 71.78125 18.9375 73 
Q 24.125 74.21875 28.421875 74.21875 
Q 39.75 74.21875 46.484375 68.546875 
Q 53.21875 62.890625 53.21875 53.421875 
Q 53.21875 48.921875 51.53125 44.890625 
Q 49.859375 40.875 45.40625 35.40625 
Q 44.1875 33.984375 37.640625 27.21875 
Q 31.109375 20.453125 19.1875 8.296875 
z
" id="DejaVuSans-50"/>
       </defs>
       <use xlink:href="#DejaVuSans-50"/>
       <use x="63.623047" xlink:href="#DejaVuSans-46"/>
       <use x="95.410156" xlink:href="#DejaVuSans-48"/>
      </g>
     </g>
    </g>
   </g>
   <g id="matplotlib.axis_2">
    <g id="ytick_1">
     <g id="line2d_11">
      <path clip-path="url(#paed672878b)" d="M 170.75 214.621324 
L 1229.4 214.621324 
" style="fill:none;stroke:#b0b0b0;stroke-linecap:square;stroke-width:0.8;"/>
     </g>
     <g id="line2d_12">
      <defs>
       <path d="M 0 0 
L -3.5 0 
" id="md1c56fd360" style="stroke:#000000;stroke-width:0.8;"/>
      </defs>
      <g>
       <use style="stroke:#000000;stroke-width:0.8;" x="170.75" xlink:href="#md1c56fd360" y="214.621324"/>
      </g>
     </g>
     <g id="text_6">
      <!-- −0.4 -->
      <g transform="translate(139.467187 218.420542)scale(0.1 -0.1)">
       <defs>
        <path d="M 10.59375 35.5 
L 73.1875 35.5 
L 73.1875 27.203125 
L 10.59375 27.203125 
z
" id="DejaVuSans-8722"/>
        <path d="M 37.796875 64.3125 
L 12.890625 25.390625 
L 37.796875 25.390625 
z
M 35.203125 72.90625 
L 47.609375 72.90625 
L 47.609375 25.390625 
L 58.015625 25.390625 
L 58.015625 17.1875 
L 47.609375 17.1875 
L 47.609375 0 
L 37.796875 0 
L 37.796875 17.1875 
L 4.890625 17.1875 
L 4.890625 26.703125 
z
" id="DejaVuSans-52"/>
       </defs>
       <use xlink:href="#DejaVuSans-8722"/>
       <use x="83.789062" xlink:href="#DejaVuSans-48"/>
       <use x="147.412109" xlink:href="#DejaVuSans-46"/>
       <use x="179.199219" xlink:href="#DejaVuSans-52"/>
      </g>
     </g>
    </g>
    <g id="ytick_2">
     <g id="line2d_13">
      <path clip-path="url(#paed672878b)" d="M 170.75 184.821029 
L 1229.4 184.821029 
" style="fill:none;stroke:#b0b0b0;stroke-linecap:square;stroke-width:0.8;"/>
     </g>
     <g id="line2d_14">
      <g>
       <use style="stroke:#000000;stroke-width:0.8;" x="170.75" xlink:href="#md1c56fd360" y="184.821029"/>
      </g>
     </g>
     <g id="text_7">
      <!-- −0.2 -->
      <g transform="translate(139.467187 188.620248)scale(0.1 -0.1)">
       <use xlink:href="#DejaVuSans-8722"/>
       <use x="83.789062" xlink:href="#DejaVuSans-48"/>
       <use x="147.412109" xlink:href="#DejaVuSans-46"/>
       <use x="179.199219" xlink:href="#DejaVuSans-50"/>
      </g>
     </g>
    </g>
    <g id="ytick_3">
     <g id="line2d_15">
      <path clip-path="url(#paed672878b)" d="M 170.75 155.020735 
L 1229.4 155.020735 
" style="fill:none;stroke:#b0b0b0;stroke-linecap:square;stroke-width:0.8;"/>
     </g>
     <g id="line2d_16">
      <g>
       <use style="stroke:#000000;stroke-width:0.8;" x="170.75" xlink:href="#md1c56fd360" y="155.020735"/>
      </g>
     </g>
     <g id="text_8">
      <!-- 0.0 -->
      <g transform="translate(147.846875 158.819954)scale(0.1 -0.1)">
       <use xlink:href="#DejaVuSans-48"/>
       <use x="63.623047" xlink:href="#DejaVuSans-46"/>
       <use x="95.410156" xlink:href="#DejaVuSans-48"/>
      </g>
     </g>
    </g>
    <g id="ytick_4">
     <g id="line2d_17">
      <path clip-path="url(#paed672878b)" d="M 170.75 125.220441 
L 1229.4 125.220441 
" style="fill:none;stroke:#b0b0b0;stroke-linecap:square;stroke-width:0.8;"/>
     </g>
     <g id="line2d_18">
      <g>
       <use style="stroke:#000000;stroke-width:0.8;" x="170.75" xlink:href="#md1c56fd360" y="125.220441"/>
      </g>
     </g>
     <g id="text_9">
      <!-- 0.2 -->
      <g transform="translate(147.846875 129.01966)scale(0.1 -0.1)">
       <use xlink:href="#DejaVuSans-48"/>
       <use x="63.623047" xlink:href="#DejaVuSans-46"/>
       <use x="95.410156" xlink:href="#DejaVuSans-50"/>
      </g>
     </g>
    </g>
    <g id="ytick_5">
     <g id="line2d_19">
      <path clip-path="url(#paed672878b)" d="M 170.75 95.420147 
L 1229.4 95.420147 
" style="fill:none;stroke:#b0b0b0;stroke-linecap:square;stroke-width:0.8;"/>
     </g>
     <g id="line2d_20">
      <g>
       <use style="stroke:#000000;stroke-width:0.8;" x="170.75" xlink:href="#md1c56fd360" y="95.420147"/>
      </g>
     </g>
     <g id="text_10">
      <!-- 0.4 -->
      <g transform="translate(147.846875 99.219366)scale(0.1 -0.1)">
       <use xlink:href="#DejaVuSans-48"/>
       <use x="63.623047" xlink:href="#DejaVuSans-46"/>
       <use x="95.410156" xlink:href="#DejaVuSans-52"/>
      </g>
     </g>
    </g>
    <g id="text_11">
     <!-- Amplitude 0 -->
     <g transform="translate(133.3875 185.413704)rotate(-90)scale(0.1 -0.1)">
      <defs>
       <path d="M 34.1875 63.1875 
L 20.796875 26.90625 
L 47.609375 26.90625 
z
M 28.609375 72.90625 
L 39.796875 72.90625 
L 67.578125 0 
L 57.328125 0 
L 50.6875 18.703125 
L 17.828125 18.703125 
L 11.1875 0 
L 0.78125 0 
z
" id="DejaVuSans-65"/>
       <path d="M 52 44.1875 
Q 55.375 50.25 60.0625 53.125 
Q 64.75 56 71.09375 56 
Q 79.640625 56 84.28125 50.015625 
Q 88.921875 44.046875 88.921875 33.015625 
L 88.921875 0 
L 79.890625 0 
L 79.890625 32.71875 
Q 79.890625 40.578125 77.09375 44.375 
Q 74.3125 48.1875 68.609375 48.1875 
Q 61.625 48.1875 57.5625 43.546875 
Q 53.515625 38.921875 53.515625 30.90625 
L 53.515625 0 
L 44.484375 0 
L 44.484375 32.71875 
Q 44.484375 40.625 41.703125 44.40625 
Q 38.921875 48.1875 33.109375 48.1875 
Q 26.21875 48.1875 22.15625 43.53125 
Q 18.109375 38.875 18.109375 30.90625 
L 18.109375 0 
L 9.078125 0 
L 9.078125 54.6875 
L 18.109375 54.6875 
L 18.109375 46.1875 
Q 21.1875 51.21875 25.484375 53.609375 
Q 29.78125 56 35.6875 56 
Q 41.65625 56 45.828125 52.96875 
Q 50 49.953125 52 44.1875 
z
" id="DejaVuSans-109"/>
       <path d="M 18.109375 8.203125 
L 18.109375 -20.796875 
L 9.078125 -20.796875 
L 9.078125 54.6875 
L 18.109375 54.6875 
L 18.109375 46.390625 
Q 20.953125 51.265625 25.265625 53.625 
Q 29.59375 56 35.59375 56 
Q 45.5625 56 51.78125 48.09375 
Q 58.015625 40.1875 58.015625 27.296875 
Q 58.015625 14.40625 51.78125 6.484375 
Q 45.5625 -1.421875 35.59375 -1.421875 
Q 29.59375 -1.421875 25.265625 0.953125 
Q 20.953125 3.328125 18.109375 8.203125 
z
M 48.6875 27.296875 
Q 48.6875 37.203125 44.609375 42.84375 
Q 40.53125 48.484375 33.40625 48.484375 
Q 26.265625 48.484375 22.1875 42.84375 
Q 18.109375 37.203125 18.109375 27.296875 
Q 18.109375 17.390625 22.1875 11.75 
Q 26.265625 6.109375 33.40625 6.109375 
Q 40.53125 6.109375 44.609375 11.75 
Q 48.6875 17.390625 48.6875 27.296875 
z
" id="DejaVuSans-112"/>
       <path d="M 9.421875 75.984375 
L 18.40625 75.984375 
L 18.40625 0 
L 9.421875 0 
z
" id="DejaVuSans-108"/>
       <path d="M 9.421875 54.6875 
L 18.40625 54.6875 
L 18.40625 0 
L 9.421875 0 
z
M 9.421875 75.984375 
L 18.40625 75.984375 
L 18.40625 64.59375 
L 9.421875 64.59375 
z
" id="DejaVuSans-105"/>
       <path d="M 18.3125 70.21875 
L 18.3125 54.6875 
L 36.8125 54.6875 
L 36.8125 47.703125 
L 18.3125 47.703125 
L 18.3125 18.015625 
Q 18.3125 11.328125 20.140625 9.421875 
Q 21.96875 7.515625 27.59375 7.515625 
L 36.8125 7.515625 
L 36.8125 0 
L 27.59375 0 
Q 17.1875 0 13.234375 3.875 
Q 9.28125 7.765625 9.28125 18.015625 
L 9.28125 47.703125 
L 2.6875 47.703125 
L 2.6875 54.6875 
L 9.28125 54.6875 
L 9.28125 70.21875 
z
" id="DejaVuSans-116"/>
       <path d="M 8.5 21.578125 
L 8.5 54.6875 
L 17.484375 54.6875 
L 17.484375 21.921875 
Q 17.484375 14.15625 20.5 10.265625 
Q 23.53125 6.390625 29.59375 6.390625 
Q 36.859375 6.390625 41.078125 11.03125 
Q 45.3125 15.671875 45.3125 23.6875 
L 45.3125 54.6875 
L 54.296875 54.6875 
L 54.296875 0 
L 45.3125 0 
L 45.3125 8.40625 
Q 42.046875 3.421875 37.71875 1 
Q 33.40625 -1.421875 27.6875 -1.421875 
Q 18.265625 -1.421875 13.375 4.4375 
Q 8.5 10.296875 8.5 21.578125 
z
M 31.109375 56 
z
" id="DejaVuSans-117"/>
       <path d="M 45.40625 46.390625 
L 45.40625 75.984375 
L 54.390625 75.984375 
L 54.390625 0 
L 45.40625 0 
L 45.40625 8.203125 
Q 42.578125 3.328125 38.25 0.953125 
Q 33.9375 -1.421875 27.875 -1.421875 
Q 17.96875 -1.421875 11.734375 6.484375 
Q 5.515625 14.40625 5.515625 27.296875 
Q 5.515625 40.1875 11.734375 48.09375 
Q 17.96875 56 27.875 56 
Q 33.9375 56 38.25 53.625 
Q 42.578125 51.265625 45.40625 46.390625 
z
M 14.796875 27.296875 
Q 14.796875 17.390625 18.875 11.75 
Q 22.953125 6.109375 30.078125 6.109375 
Q 37.203125 6.109375 41.296875 11.75 
Q 45.40625 17.390625 45.40625 27.296875 
Q 45.40625 37.203125 41.296875 42.84375 
Q 37.203125 48.484375 30.078125 48.484375 
Q 22.953125 48.484375 18.875 42.84375 
Q 14.796875 37.203125 14.796875 27.296875 
z
" id="DejaVuSans-100"/>
       <path d="M 56.203125 29.59375 
L 56.203125 25.203125 
L 14.890625 25.203125 
Q 15.484375 15.921875 20.484375 11.0625 
Q 25.484375 6.203125 34.421875 6.203125 
Q 39.59375 6.203125 44.453125 7.46875 
Q 49.3125 8.734375 54.109375 11.28125 
L 54.109375 2.78125 
Q 49.265625 0.734375 44.1875 -0.34375 
Q 39.109375 -1.421875 33.890625 -1.421875 
Q 20.796875 -1.421875 13.15625 6.1875 
Q 5.515625 13.8125 5.515625 26.8125 
Q 5.515625 40.234375 12.765625 48.109375 
Q 20.015625 56 32.328125 56 
Q 43.359375 56 49.78125 48.890625 
Q 56.203125 41.796875 56.203125 29.59375 
z
M 47.21875 32.234375 
Q 47.125 39.59375 43.09375 43.984375 
Q 39.0625 48.390625 32.421875 48.390625 
Q 24.90625 48.390625 20.390625 44.140625 
Q 15.875 39.890625 15.1875 32.171875 
z
" id="DejaVuSans-101"/>
       <path id="DejaVuSans-32"/>
      </defs>
      <use xlink:href="#DejaVuSans-65"/>
      <use x="68.408203" xlink:href="#DejaVuSans-109"/>
      <use x="165.820312" xlink:href="#DejaVuSans-112"/>
      <use x="229.296875" xlink:href="#DejaVuSans-108"/>
      <use x="257.080078" xlink:href="#DejaVuSans-105"/>
      <use x="284.863281" xlink:href="#DejaVuSans-116"/>
      <use x="324.072266" xlink:href="#DejaVuSans-117"/>
      <use x="387.451172" xlink:href="#DejaVuSans-100"/>
      <use x="450.927734" xlink:href="#DejaVuSans-101"/>
      <use x="512.451172" xlink:href="#DejaVuSans-32"/>
      <use x="544.238281" xlink:href="#DejaVuSans-48"/>
     </g>
    </g>
   </g>
   <g id="line2d_21">
    <path clip-path="url(#paed672878b)" d="M 170.75 170.579196 
L 171.950392 170.834647 
L 174.351175 171.011427 
L 175.551567 170.955857 
L 176.751959 170.696141 
L 177.952351 169.946484 
L 179.152742 168.785617 
L 180.353134 166.978458 
L 181.553526 164.312886 
L 182.753918 161.085156 
L 185.154701 154.108925 
L 186.355093 151.120299 
L 188.755876 146.286909 
L 189.956268 143.90879 
L 191.15666 141.262624 
L 193.557443 135.147239 
L 195.958227 128.871995 
L 198.35901 123.292698 
L 199.559402 120.779822 
L 200.759794 118.701243 
L 201.960186 117.329341 
L 203.160578 116.531072 
L 204.360969 116.338591 
L 206.761753 116.973717 
L 207.962145 117.363888 
L 209.162536 117.577681 
L 210.362928 117.655595 
L 212.763712 117.388259 
L 213.964103 117.42718 
L 215.164495 118.035659 
L 216.364887 119.475041 
L 217.565279 121.625154 
L 218.76567 124.274186 
L 221.166454 130.582998 
L 223.567237 138.063924 
L 225.968021 145.327988 
L 227.168413 148.204507 
L 228.368804 150.661813 
L 229.569196 152.479141 
L 230.769588 153.726793 
L 233.170372 155.775888 
L 234.370763 157.011434 
L 236.771547 159.844692 
L 237.971939 161.076723 
L 239.17233 162.129325 
L 240.372722 162.970079 
L 241.573114 163.645927 
L 242.773506 164.077235 
L 243.973897 164.340587 
L 245.174289 164.355696 
L 246.374681 163.921891 
L 247.575073 162.91167 
L 248.775464 161.463959 
L 252.37664 155.361114 
L 253.577031 153.73811 
L 255.977815 151.067448 
L 257.178207 149.982103 
L 258.378598 149.199442 
L 259.57899 148.628989 
L 260.779382 147.857231 
L 261.979774 146.500736 
L 263.180165 144.733335 
L 264.380557 142.401169 
L 267.981733 133.88354 
L 269.182124 131.545236 
L 270.382516 130.05295 
L 271.582908 129.375474 
L 272.7833 128.982035 
L 273.983691 128.81889 
L 275.184083 128.862783 
L 277.584867 129.553125 
L 278.785258 129.925283 
L 279.98565 130.137933 
L 281.186042 130.162198 
L 282.386434 129.968499 
L 283.586825 129.653041 
L 287.188001 127.90513 
L 288.388392 127.685647 
L 289.588784 128.112146 
L 290.789176 129.208577 
L 291.989568 130.961846 
L 293.189959 133.25966 
L 297.991527 144.233317 
L 299.191918 146.233064 
L 300.39231 147.851958 
L 301.592702 149.080398 
L 302.793094 149.966323 
L 303.993485 150.557538 
L 307.594661 151.392105 
L 308.795052 151.983459 
L 309.995444 152.975357 
L 313.596619 156.736666 
L 314.797011 157.614543 
L 315.997403 158.149473 
L 317.197795 158.441419 
L 318.398186 158.572525 
L 319.598578 158.339544 
L 320.79897 157.691852 
L 321.999362 156.839325 
L 323.199753 155.761746 
L 328.001321 150.320146 
L 329.201712 149.364342 
L 330.402104 148.749675 
L 331.602496 148.455834 
L 332.802888 148.315003 
L 335.203671 148.554391 
L 336.404063 148.456535 
L 337.604455 147.796099 
L 338.804846 146.351889 
L 341.20563 142.625778 
L 343.606413 138.79905 
L 344.806805 137.466241 
L 346.007197 136.690285 
L 347.207589 136.202613 
L 348.40798 135.957031 
L 349.608372 135.944944 
L 352.009156 136.381352 
L 354.409939 137.129726 
L 355.610331 137.228129 
L 356.810723 137.111919 
L 358.011115 136.741539 
L 362.812682 134.486289 
L 364.013073 134.317188 
L 365.213465 134.358293 
L 366.413857 134.66358 
L 367.614249 135.30426 
L 368.81464 136.450235 
L 370.015032 138.025257 
L 373.616207 143.496093 
L 374.816599 144.855082 
L 376.016991 145.899308 
L 377.217383 146.657989 
L 378.417774 147.211164 
L 380.818558 147.892965 
L 384.419733 148.70263 
L 385.620125 149.177579 
L 386.820517 149.901155 
L 388.020908 150.766871 
L 390.421692 152.805174 
L 391.622084 153.669367 
L 392.822476 154.253133 
L 394.022867 154.578297 
L 395.223259 154.78637 
L 396.423651 154.747119 
L 397.624043 154.459195 
L 400.024826 153.442075 
L 402.42561 152.075845 
L 404.826393 150.713434 
L 406.026785 150.125407 
L 407.227177 149.687026 
L 408.427568 149.465832 
L 410.828352 149.359339 
L 414.429527 149.491375 
L 415.629919 149.21053 
L 416.830311 148.74689 
L 418.030702 147.938366 
L 420.431486 145.660413 
L 421.631878 144.508932 
L 422.83227 143.613289 
L 424.032661 142.971147 
L 425.233053 142.538574 
L 426.433445 142.306035 
L 430.03462 142.087337 
L 433.635795 142.28827 
L 436.036579 141.996625 
L 437.236971 141.708893 
L 440.838146 140.502444 
L 442.038538 140.282117 
L 443.238929 140.183451 
L 444.439321 140.215011 
L 445.639713 140.422812 
L 448.040496 141.182315 
L 449.240888 141.860652 
L 455.242847 146.07914 
L 456.443239 146.659201 
L 458.844022 147.403277 
L 463.645589 148.754423 
L 467.246765 150.148019 
L 472.048332 152.485422 
L 473.248723 152.97656 
L 474.449115 153.339632 
L 475.649507 153.553166 
L 476.849899 153.645537 
L 479.250682 153.427694 
L 484.052249 152.421978 
L 486.453033 151.882601 
L 491.2546 151.165171 
L 496.056167 151.014382 
L 497.256559 150.819022 
L 499.657342 149.952172 
L 504.458909 148.039257 
L 508.060084 147.259962 
L 511.66126 146.820699 
L 517.663219 146.447816 
L 523.665177 145.774637 
L 526.065961 145.810657 
L 529.667136 146.260565 
L 532.06792 146.750571 
L 535.669095 147.833161 
L 538.069878 148.614592 
L 542.871445 149.691592 
L 546.472621 150.57122 
L 557.276147 153.366108 
L 559.67693 153.621519 
L 562.077714 153.59791 
L 569.280064 153.26081 
L 574.081631 152.923526 
L 578.883198 152.671662 
L 582.484374 152.111294 
L 589.686724 150.858331 
L 593.287899 150.515946 
L 599.289858 150.290422 
L 608.892992 149.955231 
L 612.494168 150.15403 
L 614.894951 150.421661 
L 620.89691 151.318512 
L 628.09926 152.358757 
L 640.103178 154.356321 
L 644.904745 154.701695 
L 652.107096 154.736304 
L 660.509838 154.566504 
L 682.11689 153.436292 
L 691.720024 153.422056 
L 707.325117 154.488939 
L 713.327075 155.054711 
L 718.128642 155.545322 
L 724.130601 155.89721 
L 738.535302 156.517626 
L 745.737653 156.457648 
L 762.543137 156.196353 
L 769.745488 156.232595 
L 778.14823 156.472218 
L 784.150189 156.743365 
L 790.152148 157.079485 
L 797.354499 157.552163 
L 802.156066 157.811287 
L 826.163901 158.63043 
L 848.971344 158.677593 
L 857.374087 158.910558 
L 877.780746 159.858694 
L 895.786623 160.683947 
L 907.79054 160.994883 
L 931.798376 161.291304 
L 942.601901 161.554017 
L 966.609737 162.651735 
L 982.21483 163.158343 
L 1003.821881 163.444848 
L 1026.629325 164.082225 
L 1049.436768 165.14129 
L 1062.641077 165.545301 
L 1069.843428 165.680839 
L 1075.845387 165.812125 
L 1091.45048 166.164255 
L 1132.263799 167.743363 
L 1147.868892 168.124148 
L 1153.870851 168.257291 
L 1163.473985 168.469105 
L 1174.277511 168.839662 
L 1180.27947 169.040136 
L 1191.082996 169.48605 
L 1219.892398 170.287605 
L 1228.29514 170.437924 
L 1228.29514 170.437924 
" style="fill:none;stroke:#1f77b4;stroke-linecap:square;stroke-width:0.5;"/>
   </g>
   <g id="patch_3">
    <path d="M 170.75 229.521471 
L 170.75 80.52 
" style="fill:none;stroke:#000000;stroke-linecap:square;stroke-linejoin:miter;stroke-width:0.8;"/>
   </g>
   <g id="patch_4">
    <path d="M 1229.4 229.521471 
L 1229.4 80.52 
" style="fill:none;stroke:#000000;stroke-linecap:square;stroke-linejoin:miter;stroke-width:0.8;"/>
   </g>
   <g id="patch_5">
    <path d="M 170.75 229.521471 
L 1229.4 229.521471 
" style="fill:none;stroke:#000000;stroke-linecap:square;stroke-linejoin:miter;stroke-width:0.8;"/>
   </g>
   <g id="patch_6">
    <path d="M 170.75 80.52 
L 1229.4 80.52 
" style="fill:none;stroke:#000000;stroke-linecap:square;stroke-linejoin:miter;stroke-width:0.8;"/>
   </g>
  </g>
  <g id="axes_2">
   <g id="patch_7">
    <path d="M 170.75 408.323235 
L 1229.4 408.323235 
L 1229.4 259.321765 
L 170.75 259.321765 
z
" style="fill:#ffffff;"/>
   </g>
   <g id="matplotlib.axis_3">
    <g id="xtick_6">
     <g id="line2d_22">
      <path clip-path="url(#p757c5bd8b8)" d="M 170.75 408.323235 
L 170.75 259.321765 
" style="fill:none;stroke:#b0b0b0;stroke-linecap:square;stroke-width:0.8;"/>
     </g>
     <g id="line2d_23">
      <g>
       <use style="stroke:#000000;stroke-width:0.8;" x="170.75" xlink:href="#m0e11c33ed3" y="408.323235"/>
      </g>
     </g>
     <g id="text_12">
      <!-- 0.0 -->
      <g transform="translate(162.798438 422.921673)scale(0.1 -0.1)">
       <use xlink:href="#DejaVuSans-48"/>
       <use x="63.623047" xlink:href="#DejaVuSans-46"/>
       <use x="95.410156" xlink:href="#DejaVuSans-48"/>
      </g>
     </g>
    </g>
    <g id="xtick_7">
     <g id="line2d_24">
      <path clip-path="url(#p757c5bd8b8)" d="M 391.302083 408.323235 
L 391.302083 259.321765 
" style="fill:none;stroke:#b0b0b0;stroke-linecap:square;stroke-width:0.8;"/>
     </g>
     <g id="line2d_25">
      <g>
       <use style="stroke:#000000;stroke-width:0.8;" x="391.302083" xlink:href="#m0e11c33ed3" y="408.323235"/>
      </g>
     </g>
     <g id="text_13">
      <!-- 0.5 -->
      <g transform="translate(383.350521 422.921673)scale(0.1 -0.1)">
       <use xlink:href="#DejaVuSans-48"/>
       <use x="63.623047" xlink:href="#DejaVuSans-46"/>
       <use x="95.410156" xlink:href="#DejaVuSans-53"/>
      </g>
     </g>
    </g>
    <g id="xtick_8">
     <g id="line2d_26">
      <path clip-path="url(#p757c5bd8b8)" d="M 611.854167 408.323235 
L 611.854167 259.321765 
" style="fill:none;stroke:#b0b0b0;stroke-linecap:square;stroke-width:0.8;"/>
     </g>
     <g id="line2d_27">
      <g>
       <use style="stroke:#000000;stroke-width:0.8;" x="611.854167" xlink:href="#m0e11c33ed3" y="408.323235"/>
      </g>
     </g>
     <g id="text_14">
      <!-- 1.0 -->
      <g transform="translate(603.902604 422.921673)scale(0.1 -0.1)">
       <use xlink:href="#DejaVuSans-49"/>
       <use x="63.623047" xlink:href="#DejaVuSans-46"/>
       <use x="95.410156" xlink:href="#DejaVuSans-48"/>
      </g>
     </g>
    </g>
    <g id="xtick_9">
     <g id="line2d_28">
      <path clip-path="url(#p757c5bd8b8)" d="M 832.40625 408.323235 
L 832.40625 259.321765 
" style="fill:none;stroke:#b0b0b0;stroke-linecap:square;stroke-width:0.8;"/>
     </g>
     <g id="line2d_29">
      <g>
       <use style="stroke:#000000;stroke-width:0.8;" x="832.40625" xlink:href="#m0e11c33ed3" y="408.323235"/>
      </g>
     </g>
     <g id="text_15">
      <!-- 1.5 -->
      <g transform="translate(824.454688 422.921673)scale(0.1 -0.1)">
       <use xlink:href="#DejaVuSans-49"/>
       <use x="63.623047" xlink:href="#DejaVuSans-46"/>
       <use x="95.410156" xlink:href="#DejaVuSans-53"/>
      </g>
     </g>
    </g>
    <g id="xtick_10">
     <g id="line2d_30">
      <path clip-path="url(#p757c5bd8b8)" d="M 1052.958333 408.323235 
L 1052.958333 259.321765 
" style="fill:none;stroke:#b0b0b0;stroke-linecap:square;stroke-width:0.8;"/>
     </g>
     <g id="line2d_31">
      <g>
       <use style="stroke:#000000;stroke-width:0.8;" x="1052.958333" xlink:href="#m0e11c33ed3" y="408.323235"/>
      </g>
     </g>
     <g id="text_16">
      <!-- 2.0 -->
      <g transform="translate(1045.006771 422.921673)scale(0.1 -0.1)">
       <use xlink:href="#DejaVuSans-50"/>
       <use x="63.623047" xlink:href="#DejaVuSans-46"/>
       <use x="95.410156" xlink:href="#DejaVuSans-48"/>
      </g>
     </g>
    </g>
   </g>
   <g id="matplotlib.axis_4">
    <g id="ytick_6">
     <g id="line2d_32">
      <path clip-path="url(#p757c5bd8b8)" d="M 170.75 393.423088 
L 1229.4 393.423088 
" style="fill:none;stroke:#b0b0b0;stroke-linecap:square;stroke-width:0.8;"/>
     </g>
     <g id="line2d_33">
      <g>
       <use style="stroke:#000000;stroke-width:0.8;" x="170.75" xlink:href="#md1c56fd360" y="393.423088"/>
      </g>
     </g>
     <g id="text_17">
      <!-- −0.4 -->
      <g transform="translate(139.467187 397.222307)scale(0.1 -0.1)">
       <use xlink:href="#DejaVuSans-8722"/>
       <use x="83.789062" xlink:href="#DejaVuSans-48"/>
       <use x="147.412109" xlink:href="#DejaVuSans-46"/>
       <use x="179.199219" xlink:href="#DejaVuSans-52"/>
      </g>
     </g>
    </g>
    <g id="ytick_7">
     <g id="line2d_34">
      <path clip-path="url(#p757c5bd8b8)" d="M 170.75 363.622794 
L 1229.4 363.622794 
" style="fill:none;stroke:#b0b0b0;stroke-linecap:square;stroke-width:0.8;"/>
     </g>
     <g id="line2d_35">
      <g>
       <use style="stroke:#000000;stroke-width:0.8;" x="170.75" xlink:href="#md1c56fd360" y="363.622794"/>
      </g>
     </g>
     <g id="text_18">
      <!-- −0.2 -->
      <g transform="translate(139.467187 367.422013)scale(0.1 -0.1)">
       <use xlink:href="#DejaVuSans-8722"/>
       <use x="83.789062" xlink:href="#DejaVuSans-48"/>
       <use x="147.412109" xlink:href="#DejaVuSans-46"/>
       <use x="179.199219" xlink:href="#DejaVuSans-50"/>
      </g>
     </g>
    </g>
    <g id="ytick_8">
     <g id="line2d_36">
      <path clip-path="url(#p757c5bd8b8)" d="M 170.75 333.8225 
L 1229.4 333.8225 
" style="fill:none;stroke:#b0b0b0;stroke-linecap:square;stroke-width:0.8;"/>
     </g>
     <g id="line2d_37">
      <g>
       <use style="stroke:#000000;stroke-width:0.8;" x="170.75" xlink:href="#md1c56fd360" y="333.8225"/>
      </g>
     </g>
     <g id="text_19">
      <!-- 0.0 -->
      <g transform="translate(147.846875 337.621719)scale(0.1 -0.1)">
       <use xlink:href="#DejaVuSans-48"/>
       <use x="63.623047" xlink:href="#DejaVuSans-46"/>
       <use x="95.410156" xlink:href="#DejaVuSans-48"/>
      </g>
     </g>
    </g>
    <g id="ytick_9">
     <g id="line2d_38">
      <path clip-path="url(#p757c5bd8b8)" d="M 170.75 304.022206 
L 1229.4 304.022206 
" style="fill:none;stroke:#b0b0b0;stroke-linecap:square;stroke-width:0.8;"/>
     </g>
     <g id="line2d_39">
      <g>
       <use style="stroke:#000000;stroke-width:0.8;" x="170.75" xlink:href="#md1c56fd360" y="304.022206"/>
      </g>
     </g>
     <g id="text_20">
      <!-- 0.2 -->
      <g transform="translate(147.846875 307.821425)scale(0.1 -0.1)">
       <use xlink:href="#DejaVuSans-48"/>
       <use x="63.623047" xlink:href="#DejaVuSans-46"/>
       <use x="95.410156" xlink:href="#DejaVuSans-50"/>
      </g>
     </g>
    </g>
    <g id="ytick_10">
     <g id="line2d_40">
      <path clip-path="url(#p757c5bd8b8)" d="M 170.75 274.221912 
L 1229.4 274.221912 
" style="fill:none;stroke:#b0b0b0;stroke-linecap:square;stroke-width:0.8;"/>
     </g>
     <g id="line2d_41">
      <g>
       <use style="stroke:#000000;stroke-width:0.8;" x="170.75" xlink:href="#md1c56fd360" y="274.221912"/>
      </g>
     </g>
     <g id="text_21">
      <!-- 0.4 -->
      <g transform="translate(147.846875 278.021131)scale(0.1 -0.1)">
       <use xlink:href="#DejaVuSans-48"/>
       <use x="63.623047" xlink:href="#DejaVuSans-46"/>
       <use x="95.410156" xlink:href="#DejaVuSans-52"/>
      </g>
     </g>
    </g>
    <g id="text_22">
     <!-- Amplitude 1 -->
     <g transform="translate(133.3875 364.215469)rotate(-90)scale(0.1 -0.1)">
      <use xlink:href="#DejaVuSans-65"/>
      <use x="68.408203" xlink:href="#DejaVuSans-109"/>
      <use x="165.820312" xlink:href="#DejaVuSans-112"/>
      <use x="229.296875" xlink:href="#DejaVuSans-108"/>
      <use x="257.080078" xlink:href="#DejaVuSans-105"/>
      <use x="284.863281" xlink:href="#DejaVuSans-116"/>
      <use x="324.072266" xlink:href="#DejaVuSans-117"/>
      <use x="387.451172" xlink:href="#DejaVuSans-100"/>
      <use x="450.927734" xlink:href="#DejaVuSans-101"/>
      <use x="512.451172" xlink:href="#DejaVuSans-32"/>
      <use x="544.238281" xlink:href="#DejaVuSans-49"/>
     </g>
    </g>
   </g>
   <g id="line2d_42">
    <path clip-path="url(#p757c5bd8b8)" d="M 170.75 335.588894 
L 174.351175 336.124044 
L 175.551567 336.183961 
L 179.152742 336.021938 
L 182.753918 336.199269 
L 183.954309 335.953777 
L 186.355093 335.010394 
L 188.755876 334.100017 
L 191.15666 333.45676 
L 193.557443 332.812611 
L 197.158619 331.32264 
L 199.559402 330.859854 
L 205.561361 330.245852 
L 210.362928 329.909826 
L 212.763712 329.918427 
L 213.964103 329.779316 
L 216.364887 329.311524 
L 218.76567 329.378922 
L 221.166454 329.742445 
L 224.767629 330.695382 
L 229.569196 331.538587 
L 230.769588 331.74135 
L 231.96998 331.799462 
L 234.370763 331.686506 
L 235.571155 331.778773 
L 239.17233 332.539089 
L 242.773506 333.701917 
L 249.975856 335.293185 
L 252.37664 335.481693 
L 255.977815 335.558027 
L 260.779382 335.134188 
L 263.180165 335.144345 
L 265.580949 334.843245 
L 267.981733 334.374123 
L 271.582908 333.571016 
L 277.584867 332.803973 
L 281.186042 332.08293 
L 283.586825 331.688686 
L 288.388392 331.457886 
L 294.390351 330.331609 
L 297.991527 330.138693 
L 301.592702 330.238205 
L 303.993485 330.725757 
L 306.394269 331.267168 
L 308.795052 331.347534 
L 309.995444 331.32318 
L 312.396228 331.556782 
L 315.997403 332.173605 
L 319.598578 332.925374 
L 321.999362 333.380804 
L 324.400145 334.181944 
L 325.600537 334.564002 
L 326.800929 334.816458 
L 329.201712 335.038982 
L 331.602496 334.971509 
L 334.003279 334.737393 
L 340.005238 334.806182 
L 352.009156 334.005743 
L 355.610331 333.323535 
L 358.011115 332.817343 
L 360.411898 332.536756 
L 366.413857 332.398973 
L 368.81464 332.00562 
L 372.415816 331.216794 
L 376.016991 330.828227 
L 378.417774 330.854419 
L 382.01895 331.305324 
L 384.419733 331.632293 
L 386.820517 331.675779 
L 389.2213 331.579888 
L 391.622084 331.79114 
L 397.624043 332.69641 
L 406.026785 334.339422 
L 409.62796 334.38975 
L 416.830311 334.459187 
L 420.431486 334.57664 
L 424.032661 334.560711 
L 428.834228 334.184916 
L 432.435404 333.845242 
L 438.437362 333.085469 
L 440.838146 333.044417 
L 444.439321 333.063644 
L 446.840105 332.839425 
L 452.842064 332.055991 
L 457.643631 331.869904 
L 460.044414 331.983405 
L 464.845981 332.455854 
L 468.447156 332.441803 
L 472.048332 332.503169 
L 478.05029 333.023561 
L 486.453033 334.05436 
L 494.855775 334.183178 
L 498.45695 334.171681 
L 505.659301 334.241508 
L 520.064002 332.980285 
L 528.466744 332.651148 
L 540.470662 332.275142 
L 553.674971 333.038498 
L 558.476538 333.30222 
L 565.678889 333.93005 
L 570.480456 334.151322 
L 574.081631 334.259188 
L 588.486332 333.988458 
L 593.287899 333.651606 
L 601.690642 332.955714 
L 618.496126 332.48185 
L 622.097302 332.583331 
L 630.500044 333.016925 
L 640.103178 333.712345 
L 644.904745 334.121209 
L 650.906704 334.40692 
L 655.708271 334.511156 
L 670.112972 334.121445 
L 676.114931 333.65136 
L 684.517673 333.071052 
L 696.521591 332.790554 
L 701.323158 332.861056 
L 716.928251 333.86582 
L 726.531385 334.577731 
L 732.533344 334.836841 
L 738.535302 334.862979 
L 743.336869 334.7246 
L 751.739612 334.256743 
L 767.344705 333.27546 
L 773.346663 333.119776 
L 780.549014 333.129198 
L 786.550973 333.355981 
L 792.552931 333.703253 
L 805.757241 334.539461 
L 818.96155 334.716366 
L 834.566643 334.106677 
L 850.171736 333.40734 
L 856.173695 333.393605 
L 864.576437 333.573397 
L 872.979179 333.910052 
L 881.381922 334.344259 
L 888.584272 334.623103 
L 895.786623 334.763955 
L 904.189365 334.693998 
L 929.397592 333.83056 
L 945.002685 333.969778 
L 964.208953 334.552312 
L 978.613654 334.73661 
L 1020.627366 334.409061 
L 1039.833634 334.826037 
L 1051.837552 335.030788 
L 1068.643036 335.063341 
L 1084.248129 334.88616 
L 1117.859098 335.140433 
L 1125.061449 335.222095 
L 1138.265758 335.303584 
L 1205.487697 335.395582 
L 1217.491614 335.491761 
L 1228.29514 335.48708 
L 1228.29514 335.48708 
" style="fill:none;stroke:#1f77b4;stroke-linecap:square;stroke-width:0.5;"/>
   </g>
   <g id="patch_8">
    <path d="M 170.75 408.323235 
L 170.75 259.321765 
" style="fill:none;stroke:#000000;stroke-linecap:square;stroke-linejoin:miter;stroke-width:0.8;"/>
   </g>
   <g id="patch_9">
    <path d="M 1229.4 408.323235 
L 1229.4 259.321765 
" style="fill:none;stroke:#000000;stroke-linecap:square;stroke-linejoin:miter;stroke-width:0.8;"/>
   </g>
   <g id="patch_10">
    <path d="M 170.75 408.323235 
L 1229.4 408.323235 
" style="fill:none;stroke:#000000;stroke-linecap:square;stroke-linejoin:miter;stroke-width:0.8;"/>
   </g>
   <g id="patch_11">
    <path d="M 170.75 259.321765 
L 1229.4 259.321765 
" style="fill:none;stroke:#000000;stroke-linecap:square;stroke-linejoin:miter;stroke-width:0.8;"/>
   </g>
  </g>
  <g id="axes_3">
   <g id="patch_12">
    <path d="M 170.75 587.125 
L 1229.4 587.125 
L 1229.4 438.123529 
L 170.75 438.123529 
z
" style="fill:#ffffff;"/>
   </g>
   <g id="matplotlib.axis_5">
    <g id="xtick_11">
     <g id="line2d_43">
      <path clip-path="url(#p542fe7a469)" d="M 170.75 587.125 
L 170.75 438.123529 
" style="fill:none;stroke:#b0b0b0;stroke-linecap:square;stroke-width:0.8;"/>
     </g>
     <g id="line2d_44">
      <g>
       <use style="stroke:#000000;stroke-width:0.8;" x="170.75" xlink:href="#m0e11c33ed3" y="587.125"/>
      </g>
     </g>
     <g id="text_23">
      <!-- 0.0 -->
      <g transform="translate(162.798438 601.723438)scale(0.1 -0.1)">
       <use xlink:href="#DejaVuSans-48"/>
       <use x="63.623047" xlink:href="#DejaVuSans-46"/>
       <use x="95.410156" xlink:href="#DejaVuSans-48"/>
      </g>
     </g>
    </g>
    <g id="xtick_12">
     <g id="line2d_45">
      <path clip-path="url(#p542fe7a469)" d="M 391.302083 587.125 
L 391.302083 438.123529 
" style="fill:none;stroke:#b0b0b0;stroke-linecap:square;stroke-width:0.8;"/>
     </g>
     <g id="line2d_46">
      <g>
       <use style="stroke:#000000;stroke-width:0.8;" x="391.302083" xlink:href="#m0e11c33ed3" y="587.125"/>
      </g>
     </g>
     <g id="text_24">
      <!-- 0.5 -->
      <g transform="translate(383.350521 601.723438)scale(0.1 -0.1)">
       <use xlink:href="#DejaVuSans-48"/>
       <use x="63.623047" xlink:href="#DejaVuSans-46"/>
       <use x="95.410156" xlink:href="#DejaVuSans-53"/>
      </g>
     </g>
    </g>
    <g id="xtick_13">
     <g id="line2d_47">
      <path clip-path="url(#p542fe7a469)" d="M 611.854167 587.125 
L 611.854167 438.123529 
" style="fill:none;stroke:#b0b0b0;stroke-linecap:square;stroke-width:0.8;"/>
     </g>
     <g id="line2d_48">
      <g>
       <use style="stroke:#000000;stroke-width:0.8;" x="611.854167" xlink:href="#m0e11c33ed3" y="587.125"/>
      </g>
     </g>
     <g id="text_25">
      <!-- 1.0 -->
      <g transform="translate(603.902604 601.723438)scale(0.1 -0.1)">
       <use xlink:href="#DejaVuSans-49"/>
       <use x="63.623047" xlink:href="#DejaVuSans-46"/>
       <use x="95.410156" xlink:href="#DejaVuSans-48"/>
      </g>
     </g>
    </g>
    <g id="xtick_14">
     <g id="line2d_49">
      <path clip-path="url(#p542fe7a469)" d="M 832.40625 587.125 
L 832.40625 438.123529 
" style="fill:none;stroke:#b0b0b0;stroke-linecap:square;stroke-width:0.8;"/>
     </g>
     <g id="line2d_50">
      <g>
       <use style="stroke:#000000;stroke-width:0.8;" x="832.40625" xlink:href="#m0e11c33ed3" y="587.125"/>
      </g>
     </g>
     <g id="text_26">
      <!-- 1.5 -->
      <g transform="translate(824.454688 601.723438)scale(0.1 -0.1)">
       <use xlink:href="#DejaVuSans-49"/>
       <use x="63.623047" xlink:href="#DejaVuSans-46"/>
       <use x="95.410156" xlink:href="#DejaVuSans-53"/>
      </g>
     </g>
    </g>
    <g id="xtick_15">
     <g id="line2d_51">
      <path clip-path="url(#p542fe7a469)" d="M 1052.958333 587.125 
L 1052.958333 438.123529 
" style="fill:none;stroke:#b0b0b0;stroke-linecap:square;stroke-width:0.8;"/>
     </g>
     <g id="line2d_52">
      <g>
       <use style="stroke:#000000;stroke-width:0.8;" x="1052.958333" xlink:href="#m0e11c33ed3" y="587.125"/>
      </g>
     </g>
     <g id="text_27">
      <!-- 2.0 -->
      <g transform="translate(1045.006771 601.723438)scale(0.1 -0.1)">
       <use xlink:href="#DejaVuSans-50"/>
       <use x="63.623047" xlink:href="#DejaVuSans-46"/>
       <use x="95.410156" xlink:href="#DejaVuSans-48"/>
      </g>
     </g>
    </g>
    <g id="text_28">
     <!-- Time (s) -->
     <g transform="translate(679.746094 615.401562)scale(0.1 -0.1)">
      <defs>
       <path d="M -0.296875 72.90625 
L 61.375 72.90625 
L 61.375 64.59375 
L 35.5 64.59375 
L 35.5 0 
L 25.59375 0 
L 25.59375 64.59375 
L -0.296875 64.59375 
z
" id="DejaVuSans-84"/>
       <path d="M 31 75.875 
Q 24.46875 64.65625 21.28125 53.65625 
Q 18.109375 42.671875 18.109375 31.390625 
Q 18.109375 20.125 21.3125 9.0625 
Q 24.515625 -2 31 -13.1875 
L 23.1875 -13.1875 
Q 15.875 -1.703125 12.234375 9.375 
Q 8.59375 20.453125 8.59375 31.390625 
Q 8.59375 42.28125 12.203125 53.3125 
Q 15.828125 64.359375 23.1875 75.875 
z
" id="DejaVuSans-40"/>
       <path d="M 44.28125 53.078125 
L 44.28125 44.578125 
Q 40.484375 46.53125 36.375 47.5 
Q 32.28125 48.484375 27.875 48.484375 
Q 21.1875 48.484375 17.84375 46.4375 
Q 14.5 44.390625 14.5 40.28125 
Q 14.5 37.15625 16.890625 35.375 
Q 19.28125 33.59375 26.515625 31.984375 
L 29.59375 31.296875 
Q 39.15625 29.25 43.1875 25.515625 
Q 47.21875 21.78125 47.21875 15.09375 
Q 47.21875 7.46875 41.1875 3.015625 
Q 35.15625 -1.421875 24.609375 -1.421875 
Q 20.21875 -1.421875 15.453125 -0.5625 
Q 10.6875 0.296875 5.421875 2 
L 5.421875 11.28125 
Q 10.40625 8.6875 15.234375 7.390625 
Q 20.0625 6.109375 24.8125 6.109375 
Q 31.15625 6.109375 34.5625 8.28125 
Q 37.984375 10.453125 37.984375 14.40625 
Q 37.984375 18.0625 35.515625 20.015625 
Q 33.0625 21.96875 24.703125 23.78125 
L 21.578125 24.515625 
Q 13.234375 26.265625 9.515625 29.90625 
Q 5.8125 33.546875 5.8125 39.890625 
Q 5.8125 47.609375 11.28125 51.796875 
Q 16.75 56 26.8125 56 
Q 31.78125 56 36.171875 55.265625 
Q 40.578125 54.546875 44.28125 53.078125 
z
" id="DejaVuSans-115"/>
       <path d="M 8.015625 75.875 
L 15.828125 75.875 
Q 23.140625 64.359375 26.78125 53.3125 
Q 30.421875 42.28125 30.421875 31.390625 
Q 30.421875 20.453125 26.78125 9.375 
Q 23.140625 -1.703125 15.828125 -13.1875 
L 8.015625 -13.1875 
Q 14.5 -2 17.703125 9.0625 
Q 20.90625 20.125 20.90625 31.390625 
Q 20.90625 42.671875 17.703125 53.65625 
Q 14.5 64.65625 8.015625 75.875 
z
" id="DejaVuSans-41"/>
      </defs>
      <use xlink:href="#DejaVuSans-84"/>
      <use x="57.958984" xlink:href="#DejaVuSans-105"/>
      <use x="85.742188" xlink:href="#DejaVuSans-109"/>
      <use x="183.154297" xlink:href="#DejaVuSans-101"/>
      <use x="244.677734" xlink:href="#DejaVuSans-32"/>
      <use x="276.464844" xlink:href="#DejaVuSans-40"/>
      <use x="315.478516" xlink:href="#DejaVuSans-115"/>
      <use x="367.578125" xlink:href="#DejaVuSans-41"/>
     </g>
    </g>
   </g>
   <g id="matplotlib.axis_6">
    <g id="ytick_11">
     <g id="line2d_53">
      <path clip-path="url(#p542fe7a469)" d="M 170.75 572.224853 
L 1229.4 572.224853 
" style="fill:none;stroke:#b0b0b0;stroke-linecap:square;stroke-width:0.8;"/>
     </g>
     <g id="line2d_54">
      <g>
       <use style="stroke:#000000;stroke-width:0.8;" x="170.75" xlink:href="#md1c56fd360" y="572.224853"/>
      </g>
     </g>
     <g id="text_29">
      <!-- −0.4 -->
      <g transform="translate(139.467187 576.024072)scale(0.1 -0.1)">
       <use xlink:href="#DejaVuSans-8722"/>
       <use x="83.789062" xlink:href="#DejaVuSans-48"/>
       <use x="147.412109" xlink:href="#DejaVuSans-46"/>
       <use x="179.199219" xlink:href="#DejaVuSans-52"/>
      </g>
     </g>
    </g>
    <g id="ytick_12">
     <g id="line2d_55">
      <path clip-path="url(#p542fe7a469)" d="M 170.75 542.424559 
L 1229.4 542.424559 
" style="fill:none;stroke:#b0b0b0;stroke-linecap:square;stroke-width:0.8;"/>
     </g>
     <g id="line2d_56">
      <g>
       <use style="stroke:#000000;stroke-width:0.8;" x="170.75" xlink:href="#md1c56fd360" y="542.424559"/>
      </g>
     </g>
     <g id="text_30">
      <!-- −0.2 -->
      <g transform="translate(139.467187 546.223778)scale(0.1 -0.1)">
       <use xlink:href="#DejaVuSans-8722"/>
       <use x="83.789062" xlink:href="#DejaVuSans-48"/>
       <use x="147.412109" xlink:href="#DejaVuSans-46"/>
       <use x="179.199219" xlink:href="#DejaVuSans-50"/>
      </g>
     </g>
    </g>
    <g id="ytick_13">
     <g id="line2d_57">
      <path clip-path="url(#p542fe7a469)" d="M 170.75 512.624265 
L 1229.4 512.624265 
" style="fill:none;stroke:#b0b0b0;stroke-linecap:square;stroke-width:0.8;"/>
     </g>
     <g id="line2d_58">
      <g>
       <use style="stroke:#000000;stroke-width:0.8;" x="170.75" xlink:href="#md1c56fd360" y="512.624265"/>
      </g>
     </g>
     <g id="text_31">
      <!-- 0.0 -->
      <g transform="translate(147.846875 516.423483)scale(0.1 -0.1)">
       <use xlink:href="#DejaVuSans-48"/>
       <use x="63.623047" xlink:href="#DejaVuSans-46"/>
       <use x="95.410156" xlink:href="#DejaVuSans-48"/>
      </g>
     </g>
    </g>
    <g id="ytick_14">
     <g id="line2d_59">
      <path clip-path="url(#p542fe7a469)" d="M 170.75 482.823971 
L 1229.4 482.823971 
" style="fill:none;stroke:#b0b0b0;stroke-linecap:square;stroke-width:0.8;"/>
     </g>
     <g id="line2d_60">
      <g>
       <use style="stroke:#000000;stroke-width:0.8;" x="170.75" xlink:href="#md1c56fd360" y="482.823971"/>
      </g>
     </g>
     <g id="text_32">
      <!-- 0.2 -->
      <g transform="translate(147.846875 486.623189)scale(0.1 -0.1)">
       <use xlink:href="#DejaVuSans-48"/>
       <use x="63.623047" xlink:href="#DejaVuSans-46"/>
       <use x="95.410156" xlink:href="#DejaVuSans-50"/>
      </g>
     </g>
    </g>
    <g id="ytick_15">
     <g id="line2d_61">
      <path clip-path="url(#p542fe7a469)" d="M 170.75 453.023676 
L 1229.4 453.023676 
" style="fill:none;stroke:#b0b0b0;stroke-linecap:square;stroke-width:0.8;"/>
     </g>
     <g id="line2d_62">
      <g>
       <use style="stroke:#000000;stroke-width:0.8;" x="170.75" xlink:href="#md1c56fd360" y="453.023676"/>
      </g>
     </g>
     <g id="text_33">
      <!-- 0.4 -->
      <g transform="translate(147.846875 456.822895)scale(0.1 -0.1)">
       <use xlink:href="#DejaVuSans-48"/>
       <use x="63.623047" xlink:href="#DejaVuSans-46"/>
       <use x="95.410156" xlink:href="#DejaVuSans-52"/>
      </g>
     </g>
    </g>
    <g id="text_34">
     <!-- Amplitude 2 -->
     <g transform="translate(133.3875 543.017233)rotate(-90)scale(0.1 -0.1)">
      <use xlink:href="#DejaVuSans-65"/>
      <use x="68.408203" xlink:href="#DejaVuSans-109"/>
      <use x="165.820312" xlink:href="#DejaVuSans-112"/>
      <use x="229.296875" xlink:href="#DejaVuSans-108"/>
      <use x="257.080078" xlink:href="#DejaVuSans-105"/>
      <use x="284.863281" xlink:href="#DejaVuSans-116"/>
      <use x="324.072266" xlink:href="#DejaVuSans-117"/>
      <use x="387.451172" xlink:href="#DejaVuSans-100"/>
      <use x="450.927734" xlink:href="#DejaVuSans-101"/>
      <use x="512.451172" xlink:href="#DejaVuSans-32"/>
      <use x="544.238281" xlink:href="#DejaVuSans-50"/>
     </g>
    </g>
   </g>
   <g id="line2d_63">
    <path clip-path="url(#p542fe7a469)" d="M 170.75 512.733793 
L 171.950392 512.936539 
L 173.150784 512.660882 
L 177.952351 512.786148 
L 179.152742 512.594287 
L 180.353134 512.629813 
L 181.553526 512.488499 
L 182.753918 512.532803 
L 185.154701 512.426754 
L 188.755876 512.39326 
L 191.15666 512.319174 
L 194.757835 512.268654 
L 199.559402 512.038265 
L 219.966062 512.307252 
L 227.168413 512.313362 
L 243.973897 512.612417 
L 248.775464 512.748149 
L 284.787217 512.416292 
L 288.388392 512.428641 
L 300.39231 512.569679 
L 303.993485 512.626652 
L 308.795052 512.556951 
L 319.598578 512.770186 
L 330.402104 512.836397 
L 334.003279 512.869158 
L 367.614249 512.722263 
L 371.215424 512.813989 
L 373.616207 512.806824 
L 400.024826 512.775624 
L 403.626001 512.812349 
L 416.830311 512.83895 
L 424.032661 512.78927 
L 431.235012 512.771892 
L 437.236971 512.782155 
L 444.439321 512.72538 
L 564.478497 512.668059 
L 577.682807 512.752549 
L 581.283982 512.734313 
L 588.486332 512.747396 
L 626.898869 512.494929 
L 630.500044 512.517731 
L 644.904745 512.46807 
L 677.315323 512.552611 
L 680.916498 512.561088 
L 691.720024 512.607864 
L 719.329034 512.565247 
L 742.136478 512.626971 
L 750.53922 512.532921 
L 854.973303 512.679467 
L 890.985056 512.743732 
L 906.590149 512.689727 
L 913.792499 512.720229 
L 924.596025 512.700545 
L 951.004644 512.68986 
L 964.208953 512.633941 
L 971.411304 512.634332 
L 984.615613 512.586803 
L 990.617572 512.58036 
L 997.819922 512.609221 
L 1003.821881 512.56289 
L 1021.827758 512.709777 
L 1039.833634 512.683148 
L 1048.236376 512.638927 
L 1111.85714 512.743904 
L 1120.259882 512.683734 
L 1165.874769 512.622688 
L 1175.477903 512.539054 
L 1187.48182 512.541167 
L 1211.489656 512.455179 
L 1216.291223 512.470229 
L 1223.493573 512.462986 
L 1228.29514 512.575936 
L 1228.29514 512.575936 
" style="fill:none;stroke:#1f77b4;stroke-linecap:square;stroke-width:0.5;"/>
   </g>
   <g id="patch_13">
    <path d="M 170.75 587.125 
L 170.75 438.123529 
" style="fill:none;stroke:#000000;stroke-linecap:square;stroke-linejoin:miter;stroke-width:0.8;"/>
   </g>
   <g id="patch_14">
    <path d="M 1229.4 587.125 
L 1229.4 438.123529 
" style="fill:none;stroke:#000000;stroke-linecap:square;stroke-linejoin:miter;stroke-width:0.8;"/>
   </g>
   <g id="patch_15">
    <path d="M 170.75 587.125 
L 1229.4 587.125 
" style="fill:none;stroke:#000000;stroke-linecap:square;stroke-linejoin:miter;stroke-width:0.8;"/>
   </g>
   <g id="patch_16">
    <path d="M 170.75 438.123529 
L 1229.4 438.123529 
" style="fill:none;stroke:#000000;stroke-linecap:square;stroke-linejoin:miter;stroke-width:0.8;"/>
   </g>
  </g>
  <g id="text_35">
   <!-- Time Domain Amplitude -->
   <g transform="translate(598.389688 24.057812)scale(0.14 -0.14)">
    <defs>
     <path d="M 19.671875 64.796875 
L 19.671875 8.109375 
L 31.59375 8.109375 
Q 46.6875 8.109375 53.6875 14.9375 
Q 60.6875 21.78125 60.6875 36.53125 
Q 60.6875 51.171875 53.6875 57.984375 
Q 46.6875 64.796875 31.59375 64.796875 
z
M 9.8125 72.90625 
L 30.078125 72.90625 
Q 51.265625 72.90625 61.171875 64.09375 
Q 71.09375 55.28125 71.09375 36.53125 
Q 71.09375 17.671875 61.125 8.828125 
Q 51.171875 0 30.078125 0 
L 9.8125 0 
z
" id="DejaVuSans-68"/>
     <path d="M 30.609375 48.390625 
Q 23.390625 48.390625 19.1875 42.75 
Q 14.984375 37.109375 14.984375 27.296875 
Q 14.984375 17.484375 19.15625 11.84375 
Q 23.34375 6.203125 30.609375 6.203125 
Q 37.796875 6.203125 41.984375 11.859375 
Q 46.1875 17.53125 46.1875 27.296875 
Q 46.1875 37.015625 41.984375 42.703125 
Q 37.796875 48.390625 30.609375 48.390625 
z
M 30.609375 56 
Q 42.328125 56 49.015625 48.375 
Q 55.71875 40.765625 55.71875 27.296875 
Q 55.71875 13.875 49.015625 6.21875 
Q 42.328125 -1.421875 30.609375 -1.421875 
Q 18.84375 -1.421875 12.171875 6.21875 
Q 5.515625 13.875 5.515625 27.296875 
Q 5.515625 40.765625 12.171875 48.375 
Q 18.84375 56 30.609375 56 
z
" id="DejaVuSans-111"/>
     <path d="M 34.28125 27.484375 
Q 23.390625 27.484375 19.1875 25 
Q 14.984375 22.515625 14.984375 16.5 
Q 14.984375 11.71875 18.140625 8.90625 
Q 21.296875 6.109375 26.703125 6.109375 
Q 34.1875 6.109375 38.703125 11.40625 
Q 43.21875 16.703125 43.21875 25.484375 
L 43.21875 27.484375 
z
M 52.203125 31.203125 
L 52.203125 0 
L 43.21875 0 
L 43.21875 8.296875 
Q 40.140625 3.328125 35.546875 0.953125 
Q 30.953125 -1.421875 24.3125 -1.421875 
Q 15.921875 -1.421875 10.953125 3.296875 
Q 6 8.015625 6 15.921875 
Q 6 25.140625 12.171875 29.828125 
Q 18.359375 34.515625 30.609375 34.515625 
L 43.21875 34.515625 
L 43.21875 35.40625 
Q 43.21875 41.609375 39.140625 45 
Q 35.0625 48.390625 27.6875 48.390625 
Q 23 48.390625 18.546875 47.265625 
Q 14.109375 46.140625 10.015625 43.890625 
L 10.015625 52.203125 
Q 14.9375 54.109375 19.578125 55.046875 
Q 24.21875 56 28.609375 56 
Q 40.484375 56 46.34375 49.84375 
Q 52.203125 43.703125 52.203125 31.203125 
z
" id="DejaVuSans-97"/>
     <path d="M 54.890625 33.015625 
L 54.890625 0 
L 45.90625 0 
L 45.90625 32.71875 
Q 45.90625 40.484375 42.875 44.328125 
Q 39.84375 48.1875 33.796875 48.1875 
Q 26.515625 48.1875 22.3125 43.546875 
Q 18.109375 38.921875 18.109375 30.90625 
L 18.109375 0 
L 9.078125 0 
L 9.078125 54.6875 
L 18.109375 54.6875 
L 18.109375 46.1875 
Q 21.34375 51.125 25.703125 53.5625 
Q 30.078125 56 35.796875 56 
Q 45.21875 56 50.046875 50.171875 
Q 54.890625 44.34375 54.890625 33.015625 
z
" id="DejaVuSans-110"/>
    </defs>
    <use xlink:href="#DejaVuSans-84"/>
    <use x="57.958984" xlink:href="#DejaVuSans-105"/>
    <use x="85.742188" xlink:href="#DejaVuSans-109"/>
    <use x="183.154297" xlink:href="#DejaVuSans-101"/>
    <use x="244.677734" xlink:href="#DejaVuSans-32"/>
    <use x="276.464844" xlink:href="#DejaVuSans-68"/>
    <use x="353.466797" xlink:href="#DejaVuSans-111"/>
    <use x="414.648438" xlink:href="#DejaVuSans-109"/>
    <use x="512.060547" xlink:href="#DejaVuSans-97"/>
    <use x="573.339844" xlink:href="#DejaVuSans-105"/>
    <use x="601.123047" xlink:href="#DejaVuSans-110"/>
    <use x="664.501953" xlink:href="#DejaVuSans-32"/>
    <use x="696.289062" xlink:href="#DejaVuSans-65"/>
    <use x="764.697266" xlink:href="#DejaVuSans-109"/>
    <use x="862.109375" xlink:href="#DejaVuSans-112"/>
    <use x="925.585938" xlink:href="#DejaVuSans-108"/>
    <use x="953.369141" xlink:href="#DejaVuSans-105"/>
    <use x="981.152344" xlink:href="#DejaVuSans-116"/>
    <use x="1020.361328" xlink:href="#DejaVuSans-117"/>
    <use x="1083.740234" xlink:href="#DejaVuSans-100"/>
    <use x="1147.216797" xlink:href="#DejaVuSans-101"/>
   </g>
  </g>
 </g>
 <defs>
  <clipPath id="paed672878b">
   <rect height="149.001471" width="1058.65" x="170.75" y="80.52"/>
  </clipPath>
  <clipPath id="p757c5bd8b8">
   <rect height="149.001471" width="1058.65" x="170.75" y="259.321765"/>
  </clipPath>
  <clipPath id="p542fe7a469">
   <rect height="149.001471" width="1058.65" x="170.75" y="438.123529"/>
  </clipPath>
 </defs>
</svg>
